<?xml version="1.0" encoding="UTF-8" standalone="no"?>
<!DOCTYPE svg PUBLIC "-//W3C//DTD SVG 1.1//EN"
 "http://www.w3.org/Graphics/SVG/1.1/DTD/svg11.dtd">
<!-- Generated by graphviz version 14.0.0 (20250921.2048)
 -->
<!-- Pages: 1 -->
<svg width="1460pt" height="262pt"
 viewBox="0.00 0.00 1460.00 262.00" xmlns="http://www.w3.org/2000/svg" xmlns:xlink="http://www.w3.org/1999/xlink">
<g id="graph0" class="graph" transform="scale(1 1) rotate(0) translate(4 257.65)">
<polygon fill="white" stroke="none" points="-4,4 -4,-257.65 1455.75,-257.65 1455.75,4 -4,4"/>
<!-- ADBase -->
<g id="node1" class="node">
<title>ADBase</title>
<polygon fill="lightblue" stroke="lightblue" points="762.09,-253.65 669.59,-253.65 669.59,-212.65 762.09,-212.65 762.09,-253.65"/>
<text xml:space="preserve" text-anchor="middle" x="715.84" y="-236.35" font-family="Times,serif" font-size="14.00">ADBase</text>
<text xml:space="preserve" text-anchor="middle" x="715.84" y="-219.85" font-family="Times,serif" font-size="14.00">(Parent Class)</text>
</g>
<!-- Xspress3XChannel -->
<g id="node2" class="node">
<title>Xspress3XChannel</title>
<ellipse fill="none" stroke="black" cx="212.84" cy="-52.33" rx="212.84" ry="52.33"/>
<text xml:space="preserve" text-anchor="middle" x="212.84" y="-72.03" font-family="Times,serif" font-size="14.00">Xspress3XChannel</text>
<text xml:space="preserve" text-anchor="middle" x="212.84" y="-55.53" font-family="Times,serif" font-size="14.00">File: ./qas&#45;profile&#45;collection/startup/41&#45;xspress3x.py</text>
<text xml:space="preserve" text-anchor="middle" x="212.84" y="-39.03" font-family="Times,serif" font-size="14.00">Methods: 4</text>
<text xml:space="preserve" text-anchor="middle" x="212.84" y="-22.53" font-family="Times,serif" font-size="14.00">Attributes: 7</text>
</g>
<!-- ADBase&#45;&gt;Xspress3XChannel -->
<g id="edge1" class="edge">
<title>ADBase&#45;&gt;Xspress3XChannel</title>
<path fill="none" stroke="black" d="M669.42,-215.65C595.98,-189.54 450.37,-137.77 343.25,-99.69"/>
<polygon fill="black" stroke="black" points="344.7,-96.49 334.11,-96.44 342.36,-103.09 344.7,-96.49"/>
</g>
<!-- DanteCamBase -->
<g id="node3" class="node">
<title>DanteCamBase</title>
<ellipse fill="none" stroke="black" cx="715.84" cy="-52.33" rx="218.14" ry="52.33"/>
<text xml:space="preserve" text-anchor="middle" x="715.84" y="-72.03" font-family="Times,serif" font-size="14.00">DanteCamBase</text>
<text xml:space="preserve" text-anchor="middle" x="715.84" y="-55.53" font-family="Times,serif" font-size="14.00">File: ./bmm&#45;profile&#45;collection/startup/BMM/dante.py</text>
<text xml:space="preserve" text-anchor="middle" x="715.84" y="-39.03" font-family="Times,serif" font-size="14.00">Methods: 1</text>
<text xml:space="preserve" text-anchor="middle" x="715.84" y="-22.53" font-family="Times,serif" font-size="14.00">Attributes: 54</text>
</g>
<!-- ADBase&#45;&gt;DanteCamBase -->
<g id="edge2" class="edge">
<title>ADBase&#45;&gt;DanteCamBase</title>
<path fill="none" stroke="black" d="M715.84,-212.33C715.84,-189.21 715.84,-149.84 715.84,-116.06"/>
<polygon fill="black" stroke="black" points="719.34,-116.37 715.84,-106.37 712.34,-116.37 719.34,-116.37"/>
</g>
<!-- QuadEMPort -->
<g id="node4" class="node">
<title>QuadEMPort</title>
<ellipse fill="none" stroke="black" cx="1228.84" cy="-52.33" rx="222.92" ry="52.33"/>
<text xml:space="preserve" text-anchor="middle" x="1228.84" y="-72.03" font-family="Times,serif" font-size="14.00">QuadEMPort</text>
<text xml:space="preserve" text-anchor="middle" x="1228.84" y="-55.53" font-family="Times,serif" font-size="14.00">File: ./xfp&#45;profile&#45;collection/startup/15&#45;electrometer.py</text>
<text xml:space="preserve" text-anchor="middle" x="1228.84" y="-39.03" font-family="Times,serif" font-size="14.00">Methods: 1</text>
<text xml:space="preserve" text-anchor="middle" x="1228.84" y="-22.53" font-family="Times,serif" font-size="14.00">Attributes: 1</text>
</g>
<!-- ADBase&#45;&gt;QuadEMPort -->
<g id="edge3" class="edge">
<title>ADBase&#45;&gt;QuadEMPort</title>
<path fill="none" stroke="black" d="M762.27,-215.97C836.62,-190.05 985.17,-138.27 1094.76,-100.06"/>
<polygon fill="black" stroke="black" points="1095.85,-103.39 1104.14,-96.79 1093.55,-96.78 1095.85,-103.39"/>
</g>
</g>
</svg>
