<?xml version="1.0" encoding="UTF-8" standalone="no"?>
<!DOCTYPE svg PUBLIC "-//W3C//DTD SVG 1.1//EN"
 "http://www.w3.org/Graphics/SVG/1.1/DTD/svg11.dtd">
<!-- Generated by graphviz version 14.0.0 (20250921.2048)
 -->
<!-- Pages: 1 -->
<svg width="4705pt" height="262pt"
 viewBox="0.00 0.00 4705.00 262.00" xmlns="http://www.w3.org/2000/svg" xmlns:xlink="http://www.w3.org/1999/xlink">
<g id="graph0" class="graph" transform="scale(1 1) rotate(0) translate(4 257.65)">
<polygon fill="white" stroke="none" points="-4,4 -4,-257.65 4700.75,-257.65 4700.75,4 -4,4"/>
<!-- AreaDetectorCam -->
<g id="node1" class="node">
<title>AreaDetectorCam</title>
<polygon fill="lightblue" stroke="lightblue" points="2551.34,-253.65 2436.34,-253.65 2436.34,-212.65 2551.34,-212.65 2551.34,-253.65"/>
<text xml:space="preserve" text-anchor="middle" x="2493.84" y="-236.35" font-family="Times,serif" font-size="14.00">AreaDetectorCam</text>
<text xml:space="preserve" text-anchor="middle" x="2493.84" y="-219.85" font-family="Times,serif" font-size="14.00">(Parent Class)</text>
</g>
<!-- EigerDetectorCam -->
<g id="node2" class="node">
<title>EigerDetectorCam</title>
<ellipse fill="none" stroke="black" cx="247.84" cy="-52.33" rx="247.84" ry="52.33"/>
<text xml:space="preserve" text-anchor="middle" x="247.84" y="-72.03" font-family="Times,serif" font-size="14.00">EigerDetectorCam</text>
<text xml:space="preserve" text-anchor="middle" x="247.84" y="-55.53" font-family="Times,serif" font-size="14.00">File: ./hxn&#45;profile&#45;collection/startup/65&#45;nano&#45;eiger&#45;mobile.py</text>
<text xml:space="preserve" text-anchor="middle" x="247.84" y="-39.03" font-family="Times,serif" font-size="14.00">Methods: 0</text>
<text xml:space="preserve" text-anchor="middle" x="247.84" y="-22.53" font-family="Times,serif" font-size="14.00">Attributes: 13</text>
</g>
<!-- AreaDetectorCam&#45;&gt;EigerDetectorCam -->
<g id="edge1" class="edge">
<title>AreaDetectorCam&#45;&gt;EigerDetectorCam</title>
<path fill="none" stroke="black" d="M2436.24,-230.81C2199.81,-224.77 1281.04,-196.39 531.84,-104.65 501.37,-100.92 469.21,-96.03 437.92,-90.76"/>
<polygon fill="black" stroke="black" points="438.83,-87.37 428.39,-89.13 437.66,-94.27 438.83,-87.37"/>
</g>
<!-- MerlinDetectorCam -->
<g id="node3" class="node">
<title>MerlinDetectorCam</title>
<ellipse fill="none" stroke="black" cx="791.84" cy="-52.33" rx="223.98" ry="52.33"/>
<text xml:space="preserve" text-anchor="middle" x="791.84" y="-72.03" font-family="Times,serif" font-size="14.00">MerlinDetectorCam</text>
<text xml:space="preserve" text-anchor="middle" x="791.84" y="-55.53" font-family="Times,serif" font-size="14.00">File: ./hxn&#45;profile&#45;collection/startup/64&#45;nano&#45;merlin.py</text>
<text xml:space="preserve" text-anchor="middle" x="791.84" y="-39.03" font-family="Times,serif" font-size="14.00">Methods: 0</text>
<text xml:space="preserve" text-anchor="middle" x="791.84" y="-22.53" font-family="Times,serif" font-size="14.00">Attributes: 0</text>
</g>
<!-- AreaDetectorCam&#45;&gt;MerlinDetectorCam -->
<g id="edge2" class="edge">
<title>AreaDetectorCam&#45;&gt;MerlinDetectorCam</title>
<path fill="none" stroke="black" d="M2435.89,-229.25C2240.29,-219 1586.78,-180.88 1051.84,-104.65 1024.2,-100.71 995.04,-95.76 966.65,-90.49"/>
<polygon fill="black" stroke="black" points="967.36,-87.06 956.88,-88.65 966.07,-93.94 967.36,-87.06"/>
</g>
<!-- AxisDetectorCam -->
<g id="node4" class="node">
<title>AxisDetectorCam</title>
<ellipse fill="none" stroke="black" cx="1347.84" cy="-52.33" rx="260.04" ry="52.33"/>
<text xml:space="preserve" text-anchor="middle" x="1347.84" y="-72.03" font-family="Times,serif" font-size="14.00">AxisDetectorCam</text>
<text xml:space="preserve" text-anchor="middle" x="1347.84" y="-55.53" font-family="Times,serif" font-size="14.00">File: ./csx&#45;profile&#45;collection/startup/csx1/devices/areadetector.py</text>
<text xml:space="preserve" text-anchor="middle" x="1347.84" y="-39.03" font-family="Times,serif" font-size="14.00">Methods: 1</text>
<text xml:space="preserve" text-anchor="middle" x="1347.84" y="-22.53" font-family="Times,serif" font-size="14.00">Attributes: 48</text>
</g>
<!-- AreaDetectorCam&#45;&gt;AxisDetectorCam -->
<g id="edge3" class="edge">
<title>AreaDetectorCam&#45;&gt;AxisDetectorCam</title>
<path fill="none" stroke="black" d="M2436.05,-223.95C2298.6,-204.33 1941.4,-152.76 1643.84,-104.65 1614.38,-99.89 1583.3,-94.69 1552.8,-89.49"/>
<polygon fill="black" stroke="black" points="1553.53,-86.06 1543.08,-87.83 1552.35,-92.96 1553.53,-86.06"/>
</g>
<!-- FCCDCam -->
<g id="node5" class="node">
<title>FCCDCam</title>
<ellipse fill="none" stroke="black" cx="1939.84" cy="-52.33" rx="260.04" ry="52.33"/>
<text xml:space="preserve" text-anchor="middle" x="1939.84" y="-72.03" font-family="Times,serif" font-size="14.00">FCCDCam</text>
<text xml:space="preserve" text-anchor="middle" x="1939.84" y="-55.53" font-family="Times,serif" font-size="14.00">File: ./csx&#45;profile&#45;collection/startup/csx1/devices/areadetector.py</text>
<text xml:space="preserve" text-anchor="middle" x="1939.84" y="-39.03" font-family="Times,serif" font-size="14.00">Methods: 1</text>
<text xml:space="preserve" text-anchor="middle" x="1939.84" y="-22.53" font-family="Times,serif" font-size="14.00">Attributes: 7</text>
</g>
<!-- AreaDetectorCam&#45;&gt;FCCDCam -->
<g id="edge4" class="edge">
<title>AreaDetectorCam&#45;&gt;FCCDCam</title>
<path fill="none" stroke="black" d="M2435.86,-213.44C2353.88,-186.97 2201.33,-137.73 2086.96,-100.81"/>
<polygon fill="black" stroke="black" points="2088.05,-97.49 2077.46,-97.75 2085.9,-104.15 2088.05,-97.49"/>
</g>
<!-- AndorCam -->
<g id="node6" class="node">
<title>AndorCam</title>
<ellipse fill="none" stroke="black" cx="2493.84" cy="-52.33" rx="222.39" ry="52.33"/>
<text xml:space="preserve" text-anchor="middle" x="2493.84" y="-72.03" font-family="Times,serif" font-size="14.00">AndorCam</text>
<text xml:space="preserve" text-anchor="middle" x="2493.84" y="-55.53" font-family="Times,serif" font-size="14.00">File: ./fxi&#45;profile&#45;collection/startup/10&#45;area&#45;detector.py</text>
<text xml:space="preserve" text-anchor="middle" x="2493.84" y="-39.03" font-family="Times,serif" font-size="14.00">Methods: 2</text>
<text xml:space="preserve" text-anchor="middle" x="2493.84" y="-22.53" font-family="Times,serif" font-size="14.00">Attributes: 1</text>
</g>
<!-- AreaDetectorCam&#45;&gt;AndorCam -->
<g id="edge5" class="edge">
<title>AreaDetectorCam&#45;&gt;AndorCam</title>
<path fill="none" stroke="black" d="M2493.84,-212.33C2493.84,-189.21 2493.84,-149.84 2493.84,-116.06"/>
<polygon fill="black" stroke="black" points="2497.34,-116.37 2493.84,-106.37 2490.34,-116.37 2497.34,-116.37"/>
</g>
<!-- KinetixCam -->
<g id="node7" class="node">
<title>KinetixCam</title>
<ellipse fill="none" stroke="black" cx="3010.84" cy="-52.33" rx="222.39" ry="52.33"/>
<text xml:space="preserve" text-anchor="middle" x="3010.84" y="-72.03" font-family="Times,serif" font-size="14.00">KinetixCam</text>
<text xml:space="preserve" text-anchor="middle" x="3010.84" y="-55.53" font-family="Times,serif" font-size="14.00">File: ./fxi&#45;profile&#45;collection/startup/10&#45;area&#45;detector.py</text>
<text xml:space="preserve" text-anchor="middle" x="3010.84" y="-39.03" font-family="Times,serif" font-size="14.00">Methods: 2</text>
<text xml:space="preserve" text-anchor="middle" x="3010.84" y="-22.53" font-family="Times,serif" font-size="14.00">Attributes: 9</text>
</g>
<!-- AreaDetectorCam&#45;&gt;KinetixCam -->
<g id="edge6" class="edge">
<title>AreaDetectorCam&#45;&gt;KinetixCam</title>
<path fill="none" stroke="black" d="M2551.64,-212.16C2629.66,-185.17 2771.01,-136.28 2876.35,-99.85"/>
<polygon fill="black" stroke="black" points="2877.33,-103.21 2885.64,-96.63 2875.04,-96.59 2877.33,-103.21"/>
</g>
<!-- EigerDetectorCamV33 -->
<g id="node8" class="node">
<title>EigerDetectorCamV33</title>
<ellipse fill="none" stroke="black" cx="3534.84" cy="-52.33" rx="229.81" ry="52.33"/>
<text xml:space="preserve" text-anchor="middle" x="3534.84" y="-72.03" font-family="Times,serif" font-size="14.00">EigerDetectorCamV33</text>
<text xml:space="preserve" text-anchor="middle" x="3534.84" y="-55.53" font-family="Times,serif" font-size="14.00">File: ./chx&#45;profile&#45;collection/startup/20&#45;area&#45;detectors.py</text>
<text xml:space="preserve" text-anchor="middle" x="3534.84" y="-39.03" font-family="Times,serif" font-size="14.00">Methods: 2</text>
<text xml:space="preserve" text-anchor="middle" x="3534.84" y="-22.53" font-family="Times,serif" font-size="14.00">Attributes: 3</text>
</g>
<!-- AreaDetectorCam&#45;&gt;EigerDetectorCamV33 -->
<g id="edge7" class="edge">
<title>AreaDetectorCam&#45;&gt;EigerDetectorCamV33</title>
<path fill="none" stroke="black" d="M2551.78,-223.18C2680.78,-203.08 3001.39,-152.45 3268.84,-104.65 3295.61,-99.87 3323.86,-94.63 3351.55,-89.38"/>
<polygon fill="black" stroke="black" points="3351.89,-92.88 3361.06,-87.57 3350.58,-86 3351.89,-92.88"/>
</g>
<!-- SRXAreaDetectorCam -->
<g id="node9" class="node">
<title>SRXAreaDetectorCam</title>
<ellipse fill="none" stroke="black" cx="4042.84" cy="-52.33" rx="205.94" ry="52.33"/>
<text xml:space="preserve" text-anchor="middle" x="4042.84" y="-72.03" font-family="Times,serif" font-size="14.00">SRXAreaDetectorCam</text>
<text xml:space="preserve" text-anchor="middle" x="4042.84" y="-55.53" font-family="Times,serif" font-size="14.00">File: ./srx&#45;profile&#45;collection/startup/21&#45;cameras.py</text>
<text xml:space="preserve" text-anchor="middle" x="4042.84" y="-39.03" font-family="Times,serif" font-size="14.00">Methods: 0</text>
<text xml:space="preserve" text-anchor="middle" x="4042.84" y="-22.53" font-family="Times,serif" font-size="14.00">Attributes: 1</text>
</g>
<!-- AreaDetectorCam&#45;&gt;SRXAreaDetectorCam -->
<g id="edge8" class="edge">
<title>AreaDetectorCam&#45;&gt;SRXAreaDetectorCam</title>
<path fill="none" stroke="black" d="M2551.78,-228.82C2735.5,-217.75 3321.19,-178.67 3800.84,-104.65 3826.56,-100.68 3853.66,-95.72 3880.05,-90.45"/>
<polygon fill="black" stroke="black" points="3880.72,-93.88 3889.83,-88.47 3879.33,-87.02 3880.72,-93.88"/>
</g>
<!-- PCOEdgeCamV33 -->
<g id="node10" class="node">
<title>PCOEdgeCamV33</title>
<ellipse fill="none" stroke="black" cx="4508.84" cy="-52.33" rx="187.91" ry="52.33"/>
<text xml:space="preserve" text-anchor="middle" x="4508.84" y="-72.03" font-family="Times,serif" font-size="14.00">PCOEdgeCamV33</text>
<text xml:space="preserve" text-anchor="middle" x="4508.84" y="-55.53" font-family="Times,serif" font-size="14.00">File: ./srx&#45;profile&#45;collection/startup/33&#45;pco.py</text>
<text xml:space="preserve" text-anchor="middle" x="4508.84" y="-39.03" font-family="Times,serif" font-size="14.00">Methods: 2</text>
<text xml:space="preserve" text-anchor="middle" x="4508.84" y="-22.53" font-family="Times,serif" font-size="14.00">Attributes: 2</text>
</g>
<!-- AreaDetectorCam&#45;&gt;PCOEdgeCamV33 -->
<g id="edge9" class="edge">
<title>AreaDetectorCam&#45;&gt;PCOEdgeCamV33</title>
<path fill="none" stroke="black" d="M2551.8,-231.27C2776.12,-227.16 3608.49,-205.6 4284.84,-104.65 4309.33,-101 4335.11,-96.1 4360.12,-90.77"/>
<polygon fill="black" stroke="black" points="4360.65,-94.24 4369.69,-88.7 4359.17,-87.4 4360.65,-94.24"/>
</g>
</g>
</svg>
