<?xml version="1.0" encoding="UTF-8" standalone="no"?>
<!DOCTYPE svg PUBLIC "-//W3C//DTD SVG 1.1//EN"
 "http://www.w3.org/Graphics/SVG/1.1/DTD/svg11.dtd">
<!-- Generated by graphviz version 14.0.0 (20250921.2048)
 -->
<!-- Pages: 1 -->
<svg width="9474pt" height="262pt"
 viewBox="0.00 0.00 9474.00 262.00" xmlns="http://www.w3.org/2000/svg" xmlns:xlink="http://www.w3.org/1999/xlink">
<g id="graph0" class="graph" transform="scale(1 1) rotate(0) translate(4 257.65)">
<polygon fill="white" stroke="none" points="-4,4 -4,-257.65 9469.72,-257.65 9469.72,4 -4,4"/>
<!-- AreaDetector -->
<g id="node1" class="node">
<title>AreaDetector</title>
<polygon fill="lightblue" stroke="lightblue" points="4767.06,-253.65 4674.56,-253.65 4674.56,-212.65 4767.06,-212.65 4767.06,-253.65"/>
<text xml:space="preserve" text-anchor="middle" x="4720.81" y="-236.35" font-family="Times,serif" font-size="14.00">AreaDetector</text>
<text xml:space="preserve" text-anchor="middle" x="4720.81" y="-219.85" font-family="Times,serif" font-size="14.00">(Parent Class)</text>
</g>
<!-- EigerBase -->
<g id="node2" class="node">
<title>EigerBase</title>
<ellipse fill="none" stroke="black" cx="229.81" cy="-52.33" rx="229.81" ry="52.33"/>
<text xml:space="preserve" text-anchor="middle" x="229.81" y="-72.03" font-family="Times,serif" font-size="14.00">EigerBase</text>
<text xml:space="preserve" text-anchor="middle" x="229.81" y="-55.53" font-family="Times,serif" font-size="14.00">File: ./chx&#45;profile&#45;collection/startup/20&#45;area&#45;detectors.py</text>
<text xml:space="preserve" text-anchor="middle" x="229.81" y="-39.03" font-family="Times,serif" font-size="14.00">Methods: 3</text>
<text xml:space="preserve" text-anchor="middle" x="229.81" y="-22.53" font-family="Times,serif" font-size="14.00">Attributes: 24</text>
</g>
<!-- AreaDetector&#45;&gt;EigerBase -->
<g id="edge1" class="edge">
<title>AreaDetector&#45;&gt;EigerBase</title>
<path fill="none" stroke="black" d="M4674.26,-231.78C4271.03,-228.44 1363.16,-201.21 494.81,-104.65 465.57,-101.4 434.73,-96.66 404.83,-91.35"/>
<polygon fill="black" stroke="black" points="405.82,-87.97 395.35,-89.64 404.57,-94.86 405.82,-87.97"/>
</g>
<!-- BMMUVC -->
<g id="node3" class="node">
<title>BMMUVC</title>
<ellipse fill="none" stroke="black" cx="774.81" cy="-52.33" rx="243.6" ry="52.33"/>
<text xml:space="preserve" text-anchor="middle" x="774.81" y="-72.03" font-family="Times,serif" font-size="14.00">BMMUVC</text>
<text xml:space="preserve" text-anchor="middle" x="774.81" y="-55.53" font-family="Times,serif" font-size="14.00">File: ./bmm&#45;profile&#45;collection/startup/BMM/usb_camera.py</text>
<text xml:space="preserve" text-anchor="middle" x="774.81" y="-39.03" font-family="Times,serif" font-size="14.00">Methods: 2</text>
<text xml:space="preserve" text-anchor="middle" x="774.81" y="-22.53" font-family="Times,serif" font-size="14.00">Attributes: 5</text>
</g>
<!-- AreaDetector&#45;&gt;BMMUVC -->
<g id="edge2" class="edge">
<title>AreaDetector&#45;&gt;BMMUVC</title>
<path fill="none" stroke="black" d="M4674.16,-231.47C4301.6,-225.9 1804.08,-185.91 1054.81,-104.65 1024.04,-101.32 991.58,-96.54 960.08,-91.23"/>
<polygon fill="black" stroke="black" points="960.92,-87.82 950.48,-89.59 959.74,-94.72 960.92,-87.82"/>
</g>
<!-- BMMPilatus -->
<g id="node4" class="node">
<title>BMMPilatus</title>
<ellipse fill="none" stroke="black" cx="1313.81" cy="-52.33" rx="222.92" ry="52.33"/>
<text xml:space="preserve" text-anchor="middle" x="1313.81" y="-72.03" font-family="Times,serif" font-size="14.00">BMMPilatus</text>
<text xml:space="preserve" text-anchor="middle" x="1313.81" y="-55.53" font-family="Times,serif" font-size="14.00">File: ./bmm&#45;profile&#45;collection/startup/BMM/pilatus.py</text>
<text xml:space="preserve" text-anchor="middle" x="1313.81" y="-39.03" font-family="Times,serif" font-size="14.00">Methods: 2</text>
<text xml:space="preserve" text-anchor="middle" x="1313.81" y="-22.53" font-family="Times,serif" font-size="14.00">Attributes: 18</text>
</g>
<!-- AreaDetector&#45;&gt;BMMPilatus -->
<g id="edge3" class="edge">
<title>AreaDetector&#45;&gt;BMMPilatus</title>
<path fill="none" stroke="black" d="M4674.17,-231.26C4332.49,-224.56 2211.37,-180.39 1572.81,-104.65 1544.25,-101.26 1514.14,-96.46 1484.94,-91.12"/>
<polygon fill="black" stroke="black" points="1485.76,-87.72 1475.29,-89.33 1484.49,-94.6 1485.76,-87.72"/>
</g>
<!-- BMMPilatusTIFF -->
<g id="node5" class="node">
<title>BMMPilatusTIFF</title>
<ellipse fill="none" stroke="black" cx="1831.81" cy="-52.33" rx="222.92" ry="52.33"/>
<text xml:space="preserve" text-anchor="middle" x="1831.81" y="-72.03" font-family="Times,serif" font-size="14.00">BMMPilatusTIFF</text>
<text xml:space="preserve" text-anchor="middle" x="1831.81" y="-55.53" font-family="Times,serif" font-size="14.00">File: ./bmm&#45;profile&#45;collection/startup/BMM/pilatus.py</text>
<text xml:space="preserve" text-anchor="middle" x="1831.81" y="-39.03" font-family="Times,serif" font-size="14.00">Methods: 2</text>
<text xml:space="preserve" text-anchor="middle" x="1831.81" y="-22.53" font-family="Times,serif" font-size="14.00">Attributes: 13</text>
</g>
<!-- AreaDetector&#45;&gt;BMMPilatusTIFF -->
<g id="edge4" class="edge">
<title>AreaDetector&#45;&gt;BMMPilatusTIFF</title>
<path fill="none" stroke="black" d="M4674.31,-232.45C4415.88,-233.56 3130.43,-232.16 2090.81,-104.65 2062.47,-101.18 2032.58,-96.35 2003.59,-91.04"/>
<polygon fill="black" stroke="black" points="2004.48,-87.65 1994.01,-89.26 2003.2,-94.53 2004.48,-87.65"/>
</g>
<!-- BMMEiger -->
<g id="node6" class="node">
<title>BMMEiger</title>
<ellipse fill="none" stroke="black" cx="2342.81" cy="-52.33" rx="216.02" ry="52.33"/>
<text xml:space="preserve" text-anchor="middle" x="2342.81" y="-72.03" font-family="Times,serif" font-size="14.00">BMMEiger</text>
<text xml:space="preserve" text-anchor="middle" x="2342.81" y="-55.53" font-family="Times,serif" font-size="14.00">File: ./bmm&#45;profile&#45;collection/startup/BMM/eiger.py</text>
<text xml:space="preserve" text-anchor="middle" x="2342.81" y="-39.03" font-family="Times,serif" font-size="14.00">Methods: 2</text>
<text xml:space="preserve" text-anchor="middle" x="2342.81" y="-22.53" font-family="Times,serif" font-size="14.00">Attributes: 17</text>
</g>
<!-- AreaDetector&#45;&gt;BMMEiger -->
<g id="edge5" class="edge">
<title>AreaDetector&#45;&gt;BMMEiger</title>
<path fill="none" stroke="black" d="M4674.2,-231.79C4445.92,-229.49 3423.37,-213.32 2594.81,-104.65 2567.36,-101.05 2538.41,-96.18 2510.32,-90.87"/>
<polygon fill="black" stroke="black" points="2511.14,-87.47 2500.66,-89.02 2509.83,-94.34 2511.14,-87.47"/>
</g>
<!-- EigerDetector -->
<g id="node7" class="node">
<title>EigerDetector</title>
<ellipse fill="none" stroke="black" cx="2823.81" cy="-52.33" rx="192.69" ry="52.33"/>
<text xml:space="preserve" text-anchor="middle" x="2823.81" y="-72.03" font-family="Times,serif" font-size="14.00">EigerDetector</text>
<text xml:space="preserve" text-anchor="middle" x="2823.81" y="-55.53" font-family="Times,serif" font-size="14.00">File: ./srx&#45;profile&#45;collection/startup/36&#45;eiger.py</text>
<text xml:space="preserve" text-anchor="middle" x="2823.81" y="-39.03" font-family="Times,serif" font-size="14.00">Methods: 0</text>
<text xml:space="preserve" text-anchor="middle" x="2823.81" y="-22.53" font-family="Times,serif" font-size="14.00">Attributes: 1</text>
</g>
<!-- AreaDetector&#45;&gt;EigerDetector -->
<g id="edge6" class="edge">
<title>AreaDetector&#45;&gt;EigerDetector</title>
<path fill="none" stroke="black" d="M4674.1,-231.05C4476.55,-225.85 3690.47,-199.97 3052.81,-104.65 3027.89,-100.93 3001.64,-96.01 2976.17,-90.68"/>
<polygon fill="black" stroke="black" points="2976.9,-87.26 2966.39,-88.61 2975.45,-94.11 2976.9,-87.26"/>
</g>
<!-- MerlinDetector -->
<g id="node8" class="node">
<title>MerlinDetector</title>
<ellipse fill="none" stroke="black" cx="3312.81" cy="-52.33" rx="223.98" ry="52.33"/>
<text xml:space="preserve" text-anchor="middle" x="3312.81" y="-72.03" font-family="Times,serif" font-size="14.00">MerlinDetector</text>
<text xml:space="preserve" text-anchor="middle" x="3312.81" y="-55.53" font-family="Times,serif" font-size="14.00">File: ./hxn&#45;profile&#45;collection/startup/64&#45;nano&#45;merlin.py</text>
<text xml:space="preserve" text-anchor="middle" x="3312.81" y="-39.03" font-family="Times,serif" font-size="14.00">Methods: 0</text>
<text xml:space="preserve" text-anchor="middle" x="3312.81" y="-22.53" font-family="Times,serif" font-size="14.00">Attributes: 1</text>
</g>
<!-- AreaDetector&#45;&gt;MerlinDetector -->
<g id="edge7" class="edge">
<title>AreaDetector&#45;&gt;MerlinDetector</title>
<path fill="none" stroke="black" d="M4674.15,-228.39C4517.82,-215.49 3998.44,-170.18 3572.81,-104.65 3545.61,-100.46 3516.93,-95.43 3488.94,-90.18"/>
<polygon fill="black" stroke="black" points="3489.8,-86.78 3479.33,-88.36 3488.5,-93.66 3489.8,-86.78"/>
</g>
<!-- StandardCam -->
<g id="node9" class="node">
<title>StandardCam</title>
<ellipse fill="none" stroke="black" cx="3868.81" cy="-52.33" rx="260.04" ry="52.33"/>
<text xml:space="preserve" text-anchor="middle" x="3868.81" y="-72.03" font-family="Times,serif" font-size="14.00">StandardCam</text>
<text xml:space="preserve" text-anchor="middle" x="3868.81" y="-55.53" font-family="Times,serif" font-size="14.00">File: ./csx&#45;profile&#45;collection/startup/csx1/devices/areadetector.py</text>
<text xml:space="preserve" text-anchor="middle" x="3868.81" y="-39.03" font-family="Times,serif" font-size="14.00">Methods: 0</text>
<text xml:space="preserve" text-anchor="middle" x="3868.81" y="-22.53" font-family="Times,serif" font-size="14.00">Attributes: 11</text>
</g>
<!-- AreaDetector&#45;&gt;StandardCam -->
<g id="edge8" class="edge">
<title>AreaDetector&#45;&gt;StandardCam</title>
<path fill="none" stroke="black" d="M4674.09,-222.35C4559.23,-198.24 4257.89,-134.99 4058.17,-93.07"/>
<polygon fill="black" stroke="black" points="4058.94,-89.66 4048.44,-91.03 4057.5,-96.51 4058.94,-89.66"/>
</g>
<!-- MyDetector -->
<g id="node10" class="node">
<title>MyDetector</title>
<ellipse fill="none" stroke="black" cx="4436.81" cy="-52.33" rx="236.17" ry="52.33"/>
<text xml:space="preserve" text-anchor="middle" x="4436.81" y="-72.03" font-family="Times,serif" font-size="14.00">MyDetector</text>
<text xml:space="preserve" text-anchor="middle" x="4436.81" y="-55.53" font-family="Times,serif" font-size="14.00">File: ./esm&#45;arpes&#45;profile&#45;collection/startup/30&#45;detectors.py</text>
<text xml:space="preserve" text-anchor="middle" x="4436.81" y="-39.03" font-family="Times,serif" font-size="14.00">Methods: 1</text>
<text xml:space="preserve" text-anchor="middle" x="4436.81" y="-22.53" font-family="Times,serif" font-size="14.00">Attributes: 16</text>
</g>
<!-- AreaDetector&#45;&gt;MyDetector -->
<g id="edge9" class="edge">
<title>AreaDetector&#45;&gt;MyDetector</title>
<path fill="none" stroke="black" d="M4689.06,-212.16C4649.38,-187.17 4579.87,-143.41 4523.86,-108.14"/>
<polygon fill="black" stroke="black" points="4525.89,-105.28 4515.56,-102.91 4522.16,-111.2 4525.89,-105.28"/>
</g>
<!-- NoStatsCam -->
<g id="node11" class="node">
<title>NoStatsCam</title>
<ellipse fill="none" stroke="black" cx="5004.81" cy="-52.33" rx="260.04" ry="52.33"/>
<text xml:space="preserve" text-anchor="middle" x="5004.81" y="-72.03" font-family="Times,serif" font-size="14.00">NoStatsCam</text>
<text xml:space="preserve" text-anchor="middle" x="5004.81" y="-55.53" font-family="Times,serif" font-size="14.00">File: ./csx&#45;profile&#45;collection/startup/csx1/devices/areadetector.py</text>
<text xml:space="preserve" text-anchor="middle" x="5004.81" y="-39.03" font-family="Times,serif" font-size="14.00">Methods: 0</text>
<text xml:space="preserve" text-anchor="middle" x="5004.81" y="-22.53" font-family="Times,serif" font-size="14.00">Attributes: 0</text>
</g>
<!-- AreaDetector&#45;&gt;NoStatsCam -->
<g id="edge10" class="edge">
<title>AreaDetector&#45;&gt;NoStatsCam</title>
<path fill="none" stroke="black" d="M4752.56,-212.16C4792.04,-187.3 4861.03,-143.86 4916.89,-108.69"/>
<polygon fill="black" stroke="black" points="4918.57,-111.77 4925.17,-103.48 4914.84,-105.84 4918.57,-111.77"/>
</g>
<!-- MonitorStatsCam -->
<g id="node12" class="node">
<title>MonitorStatsCam</title>
<ellipse fill="none" stroke="black" cx="5596.81" cy="-52.33" rx="260.04" ry="52.33"/>
<text xml:space="preserve" text-anchor="middle" x="5596.81" y="-72.03" font-family="Times,serif" font-size="14.00">MonitorStatsCam</text>
<text xml:space="preserve" text-anchor="middle" x="5596.81" y="-55.53" font-family="Times,serif" font-size="14.00">File: ./csx&#45;profile&#45;collection/startup/csx1/devices/areadetector.py</text>
<text xml:space="preserve" text-anchor="middle" x="5596.81" y="-39.03" font-family="Times,serif" font-size="14.00">Methods: 2</text>
<text xml:space="preserve" text-anchor="middle" x="5596.81" y="-22.53" font-family="Times,serif" font-size="14.00">Attributes: 3</text>
</g>
<!-- AreaDetector&#45;&gt;MonitorStatsCam -->
<g id="edge11" class="edge">
<title>AreaDetector&#45;&gt;MonitorStatsCam</title>
<path fill="none" stroke="black" d="M4767.29,-222.66C4884.68,-198.7 5198.45,-134.65 5404.67,-92.55"/>
<polygon fill="black" stroke="black" points="5405.36,-95.98 5414.45,-90.55 5403.96,-89.12 5405.36,-95.98"/>
</g>
<!-- AxisCamBase -->
<g id="node13" class="node">
<title>AxisCamBase</title>
<ellipse fill="none" stroke="black" cx="6188.81" cy="-52.33" rx="260.04" ry="52.33"/>
<text xml:space="preserve" text-anchor="middle" x="6188.81" y="-72.03" font-family="Times,serif" font-size="14.00">AxisCamBase</text>
<text xml:space="preserve" text-anchor="middle" x="6188.81" y="-55.53" font-family="Times,serif" font-size="14.00">File: ./csx&#45;profile&#45;collection/startup/csx1/devices/areadetector.py</text>
<text xml:space="preserve" text-anchor="middle" x="6188.81" y="-39.03" font-family="Times,serif" font-size="14.00">Methods: 9</text>
<text xml:space="preserve" text-anchor="middle" x="6188.81" y="-22.53" font-family="Times,serif" font-size="14.00">Attributes: 26</text>
</g>
<!-- AreaDetector&#45;&gt;AxisCamBase -->
<g id="edge12" class="edge">
<title>AreaDetector&#45;&gt;AxisCamBase</title>
<path fill="none" stroke="black" d="M4767.56,-228.14C4925.96,-214.31 5456.82,-166.1 5892.81,-104.65 5923.3,-100.35 5955.47,-95.31 5986.92,-90.09"/>
<polygon fill="black" stroke="black" points="5987.24,-93.59 5996.52,-88.49 5986.08,-86.68 5987.24,-93.59"/>
</g>
<!-- Manta -->
<g id="node14" class="node">
<title>Manta</title>
<ellipse fill="none" stroke="black" cx="6742.81" cy="-52.33" rx="222.39" ry="52.33"/>
<text xml:space="preserve" text-anchor="middle" x="6742.81" y="-72.03" font-family="Times,serif" font-size="14.00">Manta</text>
<text xml:space="preserve" text-anchor="middle" x="6742.81" y="-55.53" font-family="Times,serif" font-size="14.00">File: ./fxi&#45;profile&#45;collection/startup/10&#45;area&#45;detector.py</text>
<text xml:space="preserve" text-anchor="middle" x="6742.81" y="-39.03" font-family="Times,serif" font-size="14.00">Methods: 3</text>
<text xml:space="preserve" text-anchor="middle" x="6742.81" y="-22.53" font-family="Times,serif" font-size="14.00">Attributes: 8</text>
</g>
<!-- AreaDetector&#45;&gt;Manta -->
<g id="edge13" class="edge">
<title>AreaDetector&#45;&gt;Manta</title>
<path fill="none" stroke="black" d="M4767.36,-230.91C4971.34,-225.03 5806.25,-196.31 6484.81,-104.65 6512.48,-100.91 6541.65,-96.04 6570.02,-90.77"/>
<polygon fill="black" stroke="black" points="6570.6,-94.22 6579.78,-88.94 6569.31,-87.34 6570.6,-94.22"/>
</g>
<!-- RIXSCam -->
<g id="node15" class="node">
<title>RIXSCam</title>
<ellipse fill="none" stroke="black" cx="7241.81" cy="-52.33" rx="204.35" ry="52.33"/>
<text xml:space="preserve" text-anchor="middle" x="7241.81" y="-72.03" font-family="Times,serif" font-size="14.00">RIXSCam</text>
<text xml:space="preserve" text-anchor="middle" x="7241.81" y="-55.53" font-family="Times,serif" font-size="14.00">File: ./six&#45;profile&#45;collection/startup/22&#45;rixscam.py</text>
<text xml:space="preserve" text-anchor="middle" x="7241.81" y="-39.03" font-family="Times,serif" font-size="14.00">Methods: 8</text>
<text xml:space="preserve" text-anchor="middle" x="7241.81" y="-22.53" font-family="Times,serif" font-size="14.00">Attributes: 57</text>
</g>
<!-- AreaDetector&#45;&gt;RIXSCam -->
<g id="edge14" class="edge">
<title>AreaDetector&#45;&gt;RIXSCam</title>
<path fill="none" stroke="black" d="M4767.22,-232.2C5004.8,-231.92 6108.3,-223.92 7000.81,-104.65 7027.27,-101.12 7055.15,-96.25 7082.18,-90.92"/>
<polygon fill="black" stroke="black" points="7082.7,-94.39 7091.82,-88.99 7081.33,-87.52 7082.7,-94.39"/>
</g>
<!-- TimePixDetector -->
<g id="node16" class="node">
<title>TimePixDetector</title>
<ellipse fill="none" stroke="black" cx="7756.81" cy="-52.33" rx="238.83" ry="52.33"/>
<text xml:space="preserve" text-anchor="middle" x="7756.81" y="-72.03" font-family="Times,serif" font-size="14.00">TimePixDetector</text>
<text xml:space="preserve" text-anchor="middle" x="7756.81" y="-55.53" font-family="Times,serif" font-size="14.00">File: ./chx&#45;profile&#45;collection/optional_startup/9999&#45;tpx3.py</text>
<text xml:space="preserve" text-anchor="middle" x="7756.81" y="-39.03" font-family="Times,serif" font-size="14.00">Methods: 3</text>
<text xml:space="preserve" text-anchor="middle" x="7756.81" y="-22.53" font-family="Times,serif" font-size="14.00">Attributes: 18</text>
</g>
<!-- AreaDetector&#45;&gt;TimePixDetector -->
<g id="edge15" class="edge">
<title>AreaDetector&#45;&gt;TimePixDetector</title>
<path fill="none" stroke="black" d="M4767.4,-232.41C5033.41,-233.36 6386.68,-231.52 7481.81,-104.65 7511.78,-101.18 7543.4,-96.37 7574.1,-91.08"/>
<polygon fill="black" stroke="black" points="7574.63,-94.54 7583.87,-89.37 7573.42,-87.64 7574.63,-94.54"/>
</g>
<!-- SRXPixirad -->
<g id="node17" class="node">
<title>SRXPixirad</title>
<ellipse fill="none" stroke="black" cx="8300.81" cy="-52.33" rx="233.52" ry="52.33"/>
<text xml:space="preserve" text-anchor="middle" x="8300.81" y="-72.03" font-family="Times,serif" font-size="14.00">SRXPixirad</text>
<text xml:space="preserve" text-anchor="middle" x="8300.81" y="-55.53" font-family="Times,serif" font-size="14.00">File: ./srx&#45;profile&#45;collection/startup/39&#45;legacydetectors.py</text>
<text xml:space="preserve" text-anchor="middle" x="8300.81" y="-39.03" font-family="Times,serif" font-size="14.00">Methods: 0</text>
<text xml:space="preserve" text-anchor="middle" x="8300.81" y="-22.53" font-family="Times,serif" font-size="14.00">Attributes: 11</text>
</g>
<!-- AreaDetector&#45;&gt;SRXPixirad -->
<g id="edge16" class="edge">
<title>AreaDetector&#45;&gt;SRXPixirad</title>
<path fill="none" stroke="black" d="M4767.32,-231.32C5118.51,-224.91 7358.27,-181.44 8031.81,-104.65 8061.36,-101.28 8092.54,-96.49 8122.78,-91.18"/>
<polygon fill="black" stroke="black" points="8123.15,-94.67 8132.38,-89.47 8121.93,-87.78 8123.15,-94.67"/>
</g>
<!-- SRXCamera -->
<g id="node18" class="node">
<title>SRXCamera</title>
<ellipse fill="none" stroke="black" cx="8811.81" cy="-52.33" rx="205.94" ry="52.33"/>
<text xml:space="preserve" text-anchor="middle" x="8811.81" y="-72.03" font-family="Times,serif" font-size="14.00">SRXCamera</text>
<text xml:space="preserve" text-anchor="middle" x="8811.81" y="-55.53" font-family="Times,serif" font-size="14.00">File: ./srx&#45;profile&#45;collection/startup/21&#45;cameras.py</text>
<text xml:space="preserve" text-anchor="middle" x="8811.81" y="-39.03" font-family="Times,serif" font-size="14.00">Methods: 1</text>
<text xml:space="preserve" text-anchor="middle" x="8811.81" y="-22.53" font-family="Times,serif" font-size="14.00">Attributes: 17</text>
</g>
<!-- AreaDetector&#45;&gt;SRXCamera -->
<g id="edge17" class="edge">
<title>AreaDetector&#45;&gt;SRXCamera</title>
<path fill="none" stroke="black" d="M4767.37,-231.74C5150.16,-228.23 7783.54,-200.76 8570.81,-104.65 8597.49,-101.39 8625.6,-96.64 8652.82,-91.33"/>
<polygon fill="black" stroke="black" points="8653.41,-94.78 8662.53,-89.4 8652.04,-87.91 8653.41,-94.78"/>
</g>
<!-- SRXPCOEdge -->
<g id="node19" class="node">
<title>SRXPCOEdge</title>
<ellipse fill="none" stroke="black" cx="9277.81" cy="-52.33" rx="187.91" ry="52.33"/>
<text xml:space="preserve" text-anchor="middle" x="9277.81" y="-72.03" font-family="Times,serif" font-size="14.00">SRXPCOEdge</text>
<text xml:space="preserve" text-anchor="middle" x="9277.81" y="-55.53" font-family="Times,serif" font-size="14.00">File: ./srx&#45;profile&#45;collection/startup/33&#45;pco.py</text>
<text xml:space="preserve" text-anchor="middle" x="9277.81" y="-39.03" font-family="Times,serif" font-size="14.00">Methods: 0</text>
<text xml:space="preserve" text-anchor="middle" x="9277.81" y="-22.53" font-family="Times,serif" font-size="14.00">Attributes: 12</text>
</g>
<!-- AreaDetector&#45;&gt;SRXPCOEdge -->
<g id="edge18" class="edge">
<title>AreaDetector&#45;&gt;SRXPCOEdge</title>
<path fill="none" stroke="black" d="M4767.27,-232.04C5175.96,-230.88 8164.32,-218.53 9053.81,-104.65 9079,-101.43 9105.51,-96.63 9131.13,-91.25"/>
<polygon fill="black" stroke="black" points="9131.53,-94.74 9140.57,-89.22 9130.06,-87.9 9131.53,-94.74"/>
</g>
</g>
</svg>
