<?xml version="1.0" encoding="UTF-8" standalone="no"?>
<!DOCTYPE svg PUBLIC "-//W3C//DTD SVG 1.1//EN"
 "http://www.w3.org/Graphics/SVG/1.1/DTD/svg11.dtd">
<!-- Generated by graphviz version 14.0.0 (20250921.2048)
 -->
<!-- Pages: 1 -->
<svg width="1120pt" height="262pt"
 viewBox="0.00 0.00 1120.00 262.00" xmlns="http://www.w3.org/2000/svg" xmlns:xlink="http://www.w3.org/1999/xlink">
<g id="graph0" class="graph" transform="scale(1 1) rotate(0) translate(4 257.65)">
<polygon fill="white" stroke="none" points="-4,4 -4,-257.65 1116.08,-257.65 1116.08,4 -4,4"/>
<!-- AxisCamBase -->
<g id="node1" class="node">
<title>AxisCamBase</title>
<polygon fill="lightblue" stroke="lightblue" points="603.04,-253.65 509.04,-253.65 509.04,-212.65 603.04,-212.65 603.04,-253.65"/>
<text xml:space="preserve" text-anchor="middle" x="556.04" y="-236.35" font-family="Times,serif" font-size="14.00">AxisCamBase</text>
<text xml:space="preserve" text-anchor="middle" x="556.04" y="-219.85" font-family="Times,serif" font-size="14.00">(Parent Class)</text>
</g>
<!-- StandardAxisCam -->
<g id="node2" class="node">
<title>StandardAxisCam</title>
<ellipse fill="none" stroke="black" cx="260.04" cy="-52.33" rx="260.04" ry="52.33"/>
<text xml:space="preserve" text-anchor="middle" x="260.04" y="-72.03" font-family="Times,serif" font-size="14.00">StandardAxisCam</text>
<text xml:space="preserve" text-anchor="middle" x="260.04" y="-55.53" font-family="Times,serif" font-size="14.00">File: ./csx&#45;profile&#45;collection/startup/csx1/devices/areadetector.py</text>
<text xml:space="preserve" text-anchor="middle" x="260.04" y="-39.03" font-family="Times,serif" font-size="14.00">Methods: 2</text>
<text xml:space="preserve" text-anchor="middle" x="260.04" y="-22.53" font-family="Times,serif" font-size="14.00">Attributes: 2</text>
</g>
<!-- AxisCamBase&#45;&gt;StandardAxisCam -->
<g id="edge1" class="edge">
<title>AxisCamBase&#45;&gt;StandardAxisCam</title>
<path fill="none" stroke="black" d="M522.95,-212.16C481.65,-187.21 409.35,-143.53 351.01,-108.28"/>
<polygon fill="black" stroke="black" points="353.07,-105.44 342.7,-103.26 349.45,-111.43 353.07,-105.44"/>
</g>
<!-- ContinuousAxisCam -->
<g id="node3" class="node">
<title>ContinuousAxisCam</title>
<ellipse fill="none" stroke="black" cx="852.04" cy="-52.33" rx="260.04" ry="52.33"/>
<text xml:space="preserve" text-anchor="middle" x="852.04" y="-72.03" font-family="Times,serif" font-size="14.00">ContinuousAxisCam</text>
<text xml:space="preserve" text-anchor="middle" x="852.04" y="-55.53" font-family="Times,serif" font-size="14.00">File: ./csx&#45;profile&#45;collection/startup/csx1/devices/areadetector.py</text>
<text xml:space="preserve" text-anchor="middle" x="852.04" y="-39.03" font-family="Times,serif" font-size="14.00">Methods: 6</text>
<text xml:space="preserve" text-anchor="middle" x="852.04" y="-22.53" font-family="Times,serif" font-size="14.00">Attributes: 12</text>
</g>
<!-- AxisCamBase&#45;&gt;ContinuousAxisCam -->
<g id="edge2" class="edge">
<title>AxisCamBase&#45;&gt;ContinuousAxisCam</title>
<path fill="none" stroke="black" d="M589.13,-212.16C630.43,-187.21 702.73,-143.53 761.07,-108.28"/>
<polygon fill="black" stroke="black" points="762.63,-111.43 769.38,-103.26 759.01,-105.44 762.63,-111.43"/>
</g>
</g>
</svg>
