<?xml version="1.0" encoding="UTF-8" standalone="no"?>
<!DOCTYPE svg PUBLIC "-//W3C//DTD SVG 1.1//EN"
 "http://www.w3.org/Graphics/SVG/1.1/DTD/svg11.dtd">
<!-- Generated by graphviz version 14.0.0 (20250921.2048)
 -->
<!-- Pages: 1 -->
<svg width="836pt" height="262pt"
 viewBox="0.00 0.00 836.00 262.00" xmlns="http://www.w3.org/2000/svg" xmlns:xlink="http://www.w3.org/1999/xlink">
<g id="graph0" class="graph" transform="scale(1 1) rotate(0) translate(4 257.65)">
<polygon fill="white" stroke="none" points="-4,4 -4,-257.65 831.95,-257.65 831.95,4 -4,4"/>
<!-- BaffleSlitBase -->
<g id="node1" class="node">
<title>BaffleSlitBase</title>
<polygon fill="lightblue" stroke="lightblue" points="461.35,-253.65 366.6,-253.65 366.6,-212.65 461.35,-212.65 461.35,-253.65"/>
<text xml:space="preserve" text-anchor="middle" x="413.97" y="-236.35" font-family="Times,serif" font-size="14.00">BaffleSlitBase</text>
<text xml:space="preserve" text-anchor="middle" x="413.97" y="-219.85" font-family="Times,serif" font-size="14.00">(Parent Class)</text>
</g>
<!-- BaffleSlit -->
<g id="node2" class="node">
<title>BaffleSlit</title>
<ellipse fill="none" stroke="black" cx="188.97" cy="-52.33" rx="188.97" ry="52.33"/>
<text xml:space="preserve" text-anchor="middle" x="188.97" y="-72.03" font-family="Times,serif" font-size="14.00">BaffleSlit</text>
<text xml:space="preserve" text-anchor="middle" x="188.97" y="-55.53" font-family="Times,serif" font-size="14.00">File: ./six&#45;profile&#45;collection/startup/12&#45;slits.py</text>
<text xml:space="preserve" text-anchor="middle" x="188.97" y="-39.03" font-family="Times,serif" font-size="14.00">Methods: 0</text>
<text xml:space="preserve" text-anchor="middle" x="188.97" y="-22.53" font-family="Times,serif" font-size="14.00">Attributes: 4</text>
</g>
<!-- BaffleSlitBase&#45;&gt;BaffleSlit -->
<g id="edge1" class="edge">
<title>BaffleSlitBase&#45;&gt;BaffleSlit</title>
<path fill="none" stroke="black" d="M389.04,-212.33C357.99,-187.66 303.67,-144.49 259.46,-109.35"/>
<polygon fill="black" stroke="black" points="261.67,-106.63 251.66,-103.15 257.32,-112.11 261.67,-106.63"/>
</g>
<!-- BaffleSlitSA -->
<g id="node3" class="node">
<title>BaffleSlitSA</title>
<ellipse fill="none" stroke="black" cx="638.97" cy="-52.33" rx="188.97" ry="52.33"/>
<text xml:space="preserve" text-anchor="middle" x="638.97" y="-72.03" font-family="Times,serif" font-size="14.00">BaffleSlitSA</text>
<text xml:space="preserve" text-anchor="middle" x="638.97" y="-55.53" font-family="Times,serif" font-size="14.00">File: ./six&#45;profile&#45;collection/startup/12&#45;slits.py</text>
<text xml:space="preserve" text-anchor="middle" x="638.97" y="-39.03" font-family="Times,serif" font-size="14.00">Methods: 0</text>
<text xml:space="preserve" text-anchor="middle" x="638.97" y="-22.53" font-family="Times,serif" font-size="14.00">Attributes: 4</text>
</g>
<!-- BaffleSlitBase&#45;&gt;BaffleSlitSA -->
<g id="edge2" class="edge">
<title>BaffleSlitBase&#45;&gt;BaffleSlitSA</title>
<path fill="none" stroke="black" d="M438.91,-212.33C469.96,-187.66 524.27,-144.49 568.49,-109.35"/>
<polygon fill="black" stroke="black" points="570.63,-112.11 576.28,-103.15 566.28,-106.63 570.63,-112.11"/>
</g>
</g>
</svg>
