<?xml version="1.0" encoding="UTF-8" standalone="no"?>
<!DOCTYPE svg PUBLIC "-//W3C//DTD SVG 1.1//EN"
 "http://www.w3.org/Graphics/SVG/1.1/DTD/svg11.dtd">
<!-- Generated by graphviz version 14.0.0 (20250921.2048)
 -->
<!-- Pages: 1 -->
<svg width="1349pt" height="262pt"
 viewBox="0.00 0.00 1349.00 262.00" xmlns="http://www.w3.org/2000/svg" xmlns:xlink="http://www.w3.org/1999/xlink">
<g id="graph0" class="graph" transform="scale(1 1) rotate(0) translate(4 257.65)">
<polygon fill="white" stroke="none" points="-4,4 -4,-257.65 1345.16,-257.65 1345.16,4 -4,4"/>
<!-- BeamlineElement -->
<g id="node1" class="node">
<title>BeamlineElement</title>
<polygon fill="lightblue" stroke="lightblue" points="727.71,-253.65 613.46,-253.65 613.46,-212.65 727.71,-212.65 727.71,-253.65"/>
<text xml:space="preserve" text-anchor="middle" x="670.58" y="-236.35" font-family="Times,serif" font-size="14.00">BeamlineElement</text>
<text xml:space="preserve" text-anchor="middle" x="670.58" y="-219.85" font-family="Times,serif" font-size="14.00">(Parent Class)</text>
</g>
<!-- Shutter -->
<g id="node2" class="node">
<title>Shutter</title>
<ellipse fill="none" stroke="black" cx="199.58" cy="-52.33" rx="199.58" ry="52.33"/>
<text xml:space="preserve" text-anchor="middle" x="199.58" y="-72.03" font-family="Times,serif" font-size="14.00">Shutter</text>
<text xml:space="preserve" text-anchor="middle" x="199.58" y="-55.53" font-family="Times,serif" font-size="14.00">File: ./cms&#45;profile&#45;collection/startup/81&#45;beam.py</text>
<text xml:space="preserve" text-anchor="middle" x="199.58" y="-39.03" font-family="Times,serif" font-size="14.00">Methods: 4</text>
<text xml:space="preserve" text-anchor="middle" x="199.58" y="-22.53" font-family="Times,serif" font-size="14.00">Attributes: 3</text>
</g>
<!-- BeamlineElement&#45;&gt;Shutter -->
<g id="edge1" class="edge">
<title>BeamlineElement&#45;&gt;Shutter</title>
<path fill="none" stroke="black" d="M617.92,-212.16C546.89,-185.19 418.23,-136.34 322.28,-99.91"/>
<polygon fill="black" stroke="black" points="323.64,-96.68 313.04,-96.4 321.15,-103.23 323.64,-96.68"/>
</g>
<!-- ThreePoleWiggler -->
<g id="node3" class="node">
<title>ThreePoleWiggler</title>
<ellipse fill="none" stroke="black" cx="670.58" cy="-52.33" rx="199.58" ry="52.33"/>
<text xml:space="preserve" text-anchor="middle" x="670.58" y="-72.03" font-family="Times,serif" font-size="14.00">ThreePoleWiggler</text>
<text xml:space="preserve" text-anchor="middle" x="670.58" y="-55.53" font-family="Times,serif" font-size="14.00">File: ./cms&#45;profile&#45;collection/startup/81&#45;beam.py</text>
<text xml:space="preserve" text-anchor="middle" x="670.58" y="-39.03" font-family="Times,serif" font-size="14.00">Methods: 3</text>
<text xml:space="preserve" text-anchor="middle" x="670.58" y="-22.53" font-family="Times,serif" font-size="14.00">Attributes: 3</text>
</g>
<!-- BeamlineElement&#45;&gt;ThreePoleWiggler -->
<g id="edge2" class="edge">
<title>BeamlineElement&#45;&gt;ThreePoleWiggler</title>
<path fill="none" stroke="black" d="M670.58,-212.33C670.58,-189.21 670.58,-149.84 670.58,-116.06"/>
<polygon fill="black" stroke="black" points="674.08,-116.37 670.58,-106.37 667.08,-116.37 674.08,-116.37"/>
</g>
<!-- Monitor -->
<g id="node4" class="node">
<title>Monitor</title>
<ellipse fill="none" stroke="black" cx="1141.58" cy="-52.33" rx="199.58" ry="52.33"/>
<text xml:space="preserve" text-anchor="middle" x="1141.58" y="-72.03" font-family="Times,serif" font-size="14.00">Monitor</text>
<text xml:space="preserve" text-anchor="middle" x="1141.58" y="-55.53" font-family="Times,serif" font-size="14.00">File: ./cms&#45;profile&#45;collection/startup/81&#45;beam.py</text>
<text xml:space="preserve" text-anchor="middle" x="1141.58" y="-39.03" font-family="Times,serif" font-size="14.00">Methods: 1</text>
<text xml:space="preserve" text-anchor="middle" x="1141.58" y="-22.53" font-family="Times,serif" font-size="14.00">Attributes: 1</text>
</g>
<!-- BeamlineElement&#45;&gt;Monitor -->
<g id="edge3" class="edge">
<title>BeamlineElement&#45;&gt;Monitor</title>
<path fill="none" stroke="black" d="M723.24,-212.16C794.27,-185.19 922.93,-136.34 1018.88,-99.91"/>
<polygon fill="black" stroke="black" points="1020.01,-103.23 1028.12,-96.4 1017.53,-96.68 1020.01,-103.23"/>
</g>
</g>
</svg>
