<?xml version="1.0" encoding="UTF-8" standalone="no"?>
<!DOCTYPE svg PUBLIC "-//W3C//DTD SVG 1.1//EN"
 "http://www.w3.org/Graphics/SVG/1.1/DTD/svg11.dtd">
<!-- Generated by graphviz version 14.0.0 (20250921.2048)
 -->
<!-- Pages: 1 -->
<svg width="918pt" height="262pt"
 viewBox="0.00 0.00 918.00 262.00" xmlns="http://www.w3.org/2000/svg" xmlns:xlink="http://www.w3.org/1999/xlink">
<g id="graph0" class="graph" transform="scale(1 1) rotate(0) translate(4 257.65)">
<polygon fill="white" stroke="none" points="-4,4 -4,-257.65 913.78,-257.65 913.78,4 -4,4"/>
<!-- Beamline -->
<g id="node1" class="node">
<title>Beamline</title>
<polygon fill="lightblue" stroke="lightblue" points="490.83,-253.65 398.33,-253.65 398.33,-212.65 490.83,-212.65 490.83,-253.65"/>
<text xml:space="preserve" text-anchor="middle" x="444.58" y="-236.35" font-family="Times,serif" font-size="14.00">Beamline</text>
<text xml:space="preserve" text-anchor="middle" x="444.58" y="-219.85" font-family="Times,serif" font-size="14.00">(Parent Class)</text>
</g>
<!-- CMS_Beamline -->
<g id="node2" class="node">
<title>CMS_Beamline</title>
<ellipse fill="none" stroke="black" cx="199.58" cy="-52.33" rx="199.58" ry="52.33"/>
<text xml:space="preserve" text-anchor="middle" x="199.58" y="-72.03" font-family="Times,serif" font-size="14.00">CMS_Beamline</text>
<text xml:space="preserve" text-anchor="middle" x="199.58" y="-55.53" font-family="Times,serif" font-size="14.00">File: ./cms&#45;profile&#45;collection/startup/81&#45;beam.py</text>
<text xml:space="preserve" text-anchor="middle" x="199.58" y="-39.03" font-family="Times,serif" font-size="14.00">Methods: 36</text>
<text xml:space="preserve" text-anchor="middle" x="199.58" y="-22.53" font-family="Times,serif" font-size="14.00">Attributes: 55</text>
</g>
<!-- Beamline&#45;&gt;CMS_Beamline -->
<g id="edge1" class="edge">
<title>Beamline&#45;&gt;CMS_Beamline</title>
<path fill="none" stroke="black" d="M417.43,-212.33C383.42,-187.51 323.78,-143.98 275.48,-108.73"/>
<polygon fill="black" stroke="black" points="277.66,-105.98 267.52,-102.91 273.53,-111.64 277.66,-105.98"/>
</g>
<!-- SMI_Beamline -->
<g id="node3" class="node">
<title>SMI_Beamline</title>
<ellipse fill="none" stroke="black" cx="690.58" cy="-52.33" rx="219.2" ry="52.33"/>
<text xml:space="preserve" text-anchor="middle" x="690.58" y="-72.03" font-family="Times,serif" font-size="14.00">SMI_Beamline</text>
<text xml:space="preserve" text-anchor="middle" x="690.58" y="-55.53" font-family="Times,serif" font-size="14.00">File: ./smi&#45;profile&#45;collection/startup/smibase/beam.py</text>
<text xml:space="preserve" text-anchor="middle" x="690.58" y="-39.03" font-family="Times,serif" font-size="14.00">Methods: 9</text>
<text xml:space="preserve" text-anchor="middle" x="690.58" y="-22.53" font-family="Times,serif" font-size="14.00">Attributes: 19</text>
</g>
<!-- Beamline&#45;&gt;SMI_Beamline -->
<g id="edge2" class="edge">
<title>Beamline&#45;&gt;SMI_Beamline</title>
<path fill="none" stroke="black" d="M471.85,-212.33C505.87,-187.6 565.47,-144.28 613.87,-109.09"/>
<polygon fill="black" stroke="black" points="615.82,-112 621.85,-103.29 611.71,-106.34 615.82,-112"/>
</g>
</g>
</svg>
