<?xml version="1.0" encoding="UTF-8" standalone="no"?>
<!DOCTYPE svg PUBLIC "-//W3C//DTD SVG 1.1//EN"
 "http://www.w3.org/Graphics/SVG/1.1/DTD/svg11.dtd">
<!-- Generated by graphviz version 14.0.0 (20250921.2048)
 -->
<!-- Pages: 1 -->
<svg width="878pt" height="262pt"
 viewBox="0.00 0.00 878.00 262.00" xmlns="http://www.w3.org/2000/svg" xmlns:xlink="http://www.w3.org/1999/xlink">
<g id="graph0" class="graph" transform="scale(1 1) rotate(0) translate(4 257.65)">
<polygon fill="white" stroke="none" points="-4,4 -4,-257.65 874.16,-257.65 874.16,4 -4,4"/>
<!-- BeamlineDetector -->
<g id="node1" class="node">
<title>BeamlineDetector</title>
<polygon fill="lightblue" stroke="lightblue" points="492.08,-253.65 377.08,-253.65 377.08,-212.65 492.08,-212.65 492.08,-253.65"/>
<text xml:space="preserve" text-anchor="middle" x="434.58" y="-236.35" font-family="Times,serif" font-size="14.00">BeamlineDetector</text>
<text xml:space="preserve" text-anchor="middle" x="434.58" y="-219.85" font-family="Times,serif" font-size="14.00">(Parent Class)</text>
</g>
<!-- CMS_SAXS_Detector -->
<g id="node2" class="node">
<title>CMS_SAXS_Detector</title>
<ellipse fill="none" stroke="black" cx="199.58" cy="-52.33" rx="199.58" ry="52.33"/>
<text xml:space="preserve" text-anchor="middle" x="199.58" y="-72.03" font-family="Times,serif" font-size="14.00">CMS_SAXS_Detector</text>
<text xml:space="preserve" text-anchor="middle" x="199.58" y="-55.53" font-family="Times,serif" font-size="14.00">File: ./cms&#45;profile&#45;collection/startup/81&#45;beam.py</text>
<text xml:space="preserve" text-anchor="middle" x="199.58" y="-39.03" font-family="Times,serif" font-size="14.00">Methods: 2</text>
<text xml:space="preserve" text-anchor="middle" x="199.58" y="-22.53" font-family="Times,serif" font-size="14.00">Attributes: 5</text>
</g>
<!-- BeamlineDetector&#45;&gt;CMS_SAXS_Detector -->
<g id="edge1" class="edge">
<title>BeamlineDetector&#45;&gt;CMS_SAXS_Detector</title>
<path fill="none" stroke="black" d="M408.53,-212.33C376.04,-187.61 319.14,-144.31 272.91,-109.13"/>
<polygon fill="black" stroke="black" points="275.1,-106.4 265.02,-103.13 270.86,-111.97 275.1,-106.4"/>
</g>
<!-- CMS_WAXS_Detector -->
<g id="node3" class="node">
<title>CMS_WAXS_Detector</title>
<ellipse fill="none" stroke="black" cx="670.58" cy="-52.33" rx="199.58" ry="52.33"/>
<text xml:space="preserve" text-anchor="middle" x="670.58" y="-72.03" font-family="Times,serif" font-size="14.00">CMS_WAXS_Detector</text>
<text xml:space="preserve" text-anchor="middle" x="670.58" y="-55.53" font-family="Times,serif" font-size="14.00">File: ./cms&#45;profile&#45;collection/startup/81&#45;beam.py</text>
<text xml:space="preserve" text-anchor="middle" x="670.58" y="-39.03" font-family="Times,serif" font-size="14.00">Methods: 3</text>
<text xml:space="preserve" text-anchor="middle" x="670.58" y="-22.53" font-family="Times,serif" font-size="14.00">Attributes: 7</text>
</g>
<!-- BeamlineDetector&#45;&gt;CMS_WAXS_Detector -->
<g id="edge2" class="edge">
<title>BeamlineDetector&#45;&gt;CMS_WAXS_Detector</title>
<path fill="none" stroke="black" d="M460.74,-212.33C493.37,-187.61 550.51,-144.31 596.94,-109.13"/>
<polygon fill="black" stroke="black" points="599.01,-111.95 604.86,-103.12 594.78,-106.37 599.01,-111.95"/>
</g>
</g>
</svg>
