<?xml version="1.0" encoding="UTF-8" standalone="no"?>
<!DOCTYPE svg PUBLIC "-//W3C//DTD SVG 1.1//EN"
 "http://www.w3.org/Graphics/SVG/1.1/DTD/svg11.dtd">
<!-- Generated by graphviz version 14.0.0 (20250921.2048)
 -->
<!-- Pages: 1 -->
<svg width="1463pt" height="262pt"
 viewBox="0.00 0.00 1463.00 262.00" xmlns="http://www.w3.org/2000/svg" xmlns:xlink="http://www.w3.org/1999/xlink">
<g id="graph0" class="graph" transform="scale(1 1) rotate(0) translate(4 257.65)">
<polygon fill="white" stroke="none" points="-4,4 -4,-257.65 1458.93,-257.65 1458.93,4 -4,4"/>
<!-- BestEffortCallback -->
<g id="node1" class="node">
<title>BestEffortCallback</title>
<polygon fill="lightblue" stroke="lightblue" points="792.48,-253.65 672.23,-253.65 672.23,-212.65 792.48,-212.65 792.48,-253.65"/>
<text xml:space="preserve" text-anchor="middle" x="732.35" y="-236.35" font-family="Times,serif" font-size="14.00">BestEffortCallback</text>
<text xml:space="preserve" text-anchor="middle" x="732.35" y="-219.85" font-family="Times,serif" font-size="14.00">(Parent Class)</text>
</g>
<!-- BestEffortCallbackHxn -->
<g id="node2" class="node">
<title>BestEffortCallbackHxn</title>
<ellipse fill="none" stroke="black" cx="204.35" cy="-52.33" rx="204.35" ry="52.33"/>
<text xml:space="preserve" text-anchor="middle" x="204.35" y="-72.03" font-family="Times,serif" font-size="14.00">BestEffortCallbackHxn</text>
<text xml:space="preserve" text-anchor="middle" x="204.35" y="-55.53" font-family="Times,serif" font-size="14.00">File: ./hxn&#45;profile&#45;collection/startup/43&#45;bechxn.py</text>
<text xml:space="preserve" text-anchor="middle" x="204.35" y="-39.03" font-family="Times,serif" font-size="14.00">Methods: 1</text>
<text xml:space="preserve" text-anchor="middle" x="204.35" y="-22.53" font-family="Times,serif" font-size="14.00">Attributes: 31</text>
</g>
<!-- BestEffortCallback&#45;&gt;BestEffortCallbackHxn -->
<g id="edge1" class="edge">
<title>BestEffortCallback&#45;&gt;BestEffortCallbackHxn</title>
<path fill="none" stroke="black" d="M673.32,-212.16C592.52,-184.79 445.21,-134.9 337.19,-98.31"/>
<polygon fill="black" stroke="black" points="338.56,-95.08 327.96,-95.19 336.31,-101.71 338.56,-95.08"/>
</g>
<!-- BECwithTicks -->
<g id="node3" class="node">
<title>BECwithTicks</title>
<ellipse fill="none" stroke="black" cx="732.35" cy="-52.33" rx="251.55" ry="52.33"/>
<text xml:space="preserve" text-anchor="middle" x="732.35" y="-72.03" font-family="Times,serif" font-size="14.00">BECwithTicks</text>
<text xml:space="preserve" text-anchor="middle" x="732.35" y="-55.53" font-family="Times,serif" font-size="14.00">File: ./csx&#45;profile&#45;collection/startup/csx1/analysis/callbacks.py</text>
<text xml:space="preserve" text-anchor="middle" x="732.35" y="-39.03" font-family="Times,serif" font-size="14.00">Methods: 1</text>
<text xml:space="preserve" text-anchor="middle" x="732.35" y="-22.53" font-family="Times,serif" font-size="14.00">Attributes: 0</text>
</g>
<!-- BestEffortCallback&#45;&gt;BECwithTicks -->
<g id="edge2" class="edge">
<title>BestEffortCallback&#45;&gt;BECwithTicks</title>
<path fill="none" stroke="black" d="M732.35,-212.33C732.35,-189.21 732.35,-149.84 732.35,-116.06"/>
<polygon fill="black" stroke="black" points="735.85,-116.37 732.35,-106.37 728.85,-116.37 735.85,-116.37"/>
</g>
<!-- _CustomBestEffortCallback -->
<g id="node4" class="node">
<title>_CustomBestEffortCallback</title>
<ellipse fill="none" stroke="black" cx="1255.35" cy="-52.33" rx="199.58" ry="52.33"/>
<text xml:space="preserve" text-anchor="middle" x="1255.35" y="-72.03" font-family="Times,serif" font-size="14.00">_CustomBestEffortCallback</text>
<text xml:space="preserve" text-anchor="middle" x="1255.35" y="-55.53" font-family="Times,serif" font-size="14.00">File: ./six&#45;profile&#45;collection/startup/00&#45;startup.py</text>
<text xml:space="preserve" text-anchor="middle" x="1255.35" y="-39.03" font-family="Times,serif" font-size="14.00">Methods: 1</text>
<text xml:space="preserve" text-anchor="middle" x="1255.35" y="-22.53" font-family="Times,serif" font-size="14.00">Attributes: 2</text>
</g>
<!-- BestEffortCallback&#45;&gt;_CustomBestEffortCallback -->
<g id="edge3" class="edge">
<title>BestEffortCallback&#45;&gt;_CustomBestEffortCallback</title>
<path fill="none" stroke="black" d="M790.83,-212.16C870.97,-184.76 1017.19,-134.76 1124.23,-98.16"/>
<polygon fill="black" stroke="black" points="1125.36,-101.47 1133.68,-94.93 1123.09,-94.85 1125.36,-101.47"/>
</g>
</g>
</svg>
