<?xml version="1.0" encoding="UTF-8" standalone="no"?>
<!DOCTYPE svg PUBLIC "-//W3C//DTD SVG 1.1//EN"
 "http://www.w3.org/Graphics/SVG/1.1/DTD/svg11.dtd">
<!-- Generated by graphviz version 14.0.0 (20250921.2048)
 -->
<!-- Pages: 1 -->
<svg width="1418pt" height="262pt"
 viewBox="0.00 0.00 1418.00 262.00" xmlns="http://www.w3.org/2000/svg" xmlns:xlink="http://www.w3.org/1999/xlink">
<g id="graph0" class="graph" transform="scale(1 1) rotate(0) translate(4 257.65)">
<polygon fill="white" stroke="none" points="-4,4 -4,-257.65 1413.63,-257.65 1413.63,4 -4,4"/>
<!-- Blades -->
<g id="node1" class="node">
<title>Blades</title>
<polygon fill="lightblue" stroke="lightblue" points="786.83,-253.65 694.33,-253.65 694.33,-212.65 786.83,-212.65 786.83,-253.65"/>
<text xml:space="preserve" text-anchor="middle" x="740.58" y="-236.35" font-family="Times,serif" font-size="14.00">Blades</text>
<text xml:space="preserve" text-anchor="middle" x="740.58" y="-219.85" font-family="Times,serif" font-size="14.00">(Parent Class)</text>
</g>
<!-- Virtual_Motor_Slits -->
<g id="node2" class="node">
<title>Virtual_Motor_Slits</title>
<ellipse fill="none" stroke="black" cx="234.58" cy="-52.33" rx="234.58" ry="52.33"/>
<text xml:space="preserve" text-anchor="middle" x="234.58" y="-72.03" font-family="Times,serif" font-size="14.00">Virtual_Motor_Slits</text>
<text xml:space="preserve" text-anchor="middle" x="234.58" y="-55.53" font-family="Times,serif" font-size="14.00">File: ./esm&#45;arpes&#45;profile&#45;collection/startup/10&#45;machine.py</text>
<text xml:space="preserve" text-anchor="middle" x="234.58" y="-39.03" font-family="Times,serif" font-size="14.00">Methods: 0</text>
<text xml:space="preserve" text-anchor="middle" x="234.58" y="-22.53" font-family="Times,serif" font-size="14.00">Attributes: 0</text>
</g>
<!-- Blades&#45;&gt;Virtual_Motor_Slits -->
<g id="edge1" class="edge">
<title>Blades&#45;&gt;Virtual_Motor_Slits</title>
<path fill="none" stroke="black" d="M693.89,-215.65C620.78,-189.81 476.57,-138.85 369.15,-100.88"/>
<polygon fill="black" stroke="black" points="370.57,-97.67 359.97,-97.64 368.24,-104.27 370.57,-97.67"/>
</g>
<!-- MotorSlits -->
<g id="node3" class="node">
<title>MotorSlits</title>
<ellipse fill="none" stroke="black" cx="740.58" cy="-52.33" rx="199.05" ry="52.33"/>
<text xml:space="preserve" text-anchor="middle" x="740.58" y="-72.03" font-family="Times,serif" font-size="14.00">MotorSlits</text>
<text xml:space="preserve" text-anchor="middle" x="740.58" y="-55.53" font-family="Times,serif" font-size="14.00">File: ./chx&#45;profile&#45;collection/startup/10&#45;optics.py</text>
<text xml:space="preserve" text-anchor="middle" x="740.58" y="-39.03" font-family="Times,serif" font-size="14.00">Methods: 0</text>
<text xml:space="preserve" text-anchor="middle" x="740.58" y="-22.53" font-family="Times,serif" font-size="14.00">Attributes: 0</text>
</g>
<!-- Blades&#45;&gt;MotorSlits -->
<g id="edge2" class="edge">
<title>Blades&#45;&gt;MotorSlits</title>
<path fill="none" stroke="black" d="M740.58,-212.33C740.58,-189.21 740.58,-149.84 740.58,-116.06"/>
<polygon fill="black" stroke="black" points="744.08,-116.37 740.58,-106.37 737.08,-116.37 744.08,-116.37"/>
</g>
<!-- VirtualMotorSlits -->
<g id="node4" class="node">
<title>VirtualMotorSlits</title>
<ellipse fill="none" stroke="black" cx="1210.58" cy="-52.33" rx="199.05" ry="52.33"/>
<text xml:space="preserve" text-anchor="middle" x="1210.58" y="-72.03" font-family="Times,serif" font-size="14.00">VirtualMotorSlits</text>
<text xml:space="preserve" text-anchor="middle" x="1210.58" y="-55.53" font-family="Times,serif" font-size="14.00">File: ./chx&#45;profile&#45;collection/startup/10&#45;optics.py</text>
<text xml:space="preserve" text-anchor="middle" x="1210.58" y="-39.03" font-family="Times,serif" font-size="14.00">Methods: 0</text>
<text xml:space="preserve" text-anchor="middle" x="1210.58" y="-22.53" font-family="Times,serif" font-size="14.00">Attributes: 0</text>
</g>
<!-- Blades&#45;&gt;VirtualMotorSlits -->
<g id="edge3" class="edge">
<title>Blades&#45;&gt;VirtualMotorSlits</title>
<path fill="none" stroke="black" d="M786.93,-214.52C856.31,-188.12 989.55,-137.43 1088.16,-99.91"/>
<polygon fill="black" stroke="black" points="1089.28,-103.23 1097.38,-96.4 1086.79,-96.68 1089.28,-103.23"/>
</g>
</g>
</svg>
