<?xml version="1.0" encoding="UTF-8" standalone="no"?>
<!DOCTYPE svg PUBLIC "-//W3C//DTD SVG 1.1//EN"
 "http://www.w3.org/Graphics/SVG/1.1/DTD/svg11.dtd">
<!-- Generated by graphviz version 14.0.0 (20250921.2048)
 -->
<!-- Pages: 1 -->
<svg width="1444pt" height="262pt"
 viewBox="0.00 0.00 1444.00 262.00" xmlns="http://www.w3.org/2000/svg" xmlns:xlink="http://www.w3.org/1999/xlink">
<g id="graph0" class="graph" transform="scale(1 1) rotate(0) translate(4 257.65)">
<polygon fill="white" stroke="none" points="-4,4 -4,-257.65 1439.77,-257.65 1439.77,4 -4,4"/>
<!-- BlueskyInterface -->
<g id="node1" class="node">
<title>BlueskyInterface</title>
<polygon fill="lightblue" stroke="lightblue" points="813.69,-253.65 705.44,-253.65 705.44,-212.65 813.69,-212.65 813.69,-253.65"/>
<text xml:space="preserve" text-anchor="middle" x="759.57" y="-236.35" font-family="Times,serif" font-size="14.00">BlueskyInterface</text>
<text xml:space="preserve" text-anchor="middle" x="759.57" y="-219.85" font-family="Times,serif" font-size="14.00">(Parent Class)</text>
</g>
<!-- ContinuousAcquisitionTrigger -->
<g id="node2" class="node">
<title>ContinuousAcquisitionTrigger</title>
<ellipse fill="none" stroke="black" cx="225.57" cy="-52.33" rx="225.57" ry="52.33"/>
<text xml:space="preserve" text-anchor="middle" x="225.57" y="-72.03" font-family="Times,serif" font-size="14.00">ContinuousAcquisitionTrigger</text>
<text xml:space="preserve" text-anchor="middle" x="225.57" y="-55.53" font-family="Times,serif" font-size="14.00">File: ./hex&#45;profile&#45;collection/startup/11&#45;perkin&#45;elmer.py</text>
<text xml:space="preserve" text-anchor="middle" x="225.57" y="-39.03" font-family="Times,serif" font-size="14.00">Methods: 4</text>
<text xml:space="preserve" text-anchor="middle" x="225.57" y="-22.53" font-family="Times,serif" font-size="14.00">Attributes: 7</text>
</g>
<!-- BlueskyInterface&#45;&gt;ContinuousAcquisitionTrigger -->
<g id="edge1" class="edge">
<title>BlueskyInterface&#45;&gt;ContinuousAcquisitionTrigger</title>
<path fill="none" stroke="black" d="M705.43,-214.02C625.93,-187.4 474.98,-136.85 363.53,-99.53"/>
<polygon fill="black" stroke="black" points="364.9,-96.29 354.3,-96.44 362.67,-102.93 364.9,-96.29"/>
</g>
<!-- AmptekSoftTrigger -->
<g id="node3" class="node">
<title>AmptekSoftTrigger</title>
<ellipse fill="none" stroke="black" cx="759.57" cy="-52.33" rx="236.17" ry="52.33"/>
<text xml:space="preserve" text-anchor="middle" x="759.57" y="-72.03" font-family="Times,serif" font-size="14.00">AmptekSoftTrigger</text>
<text xml:space="preserve" text-anchor="middle" x="759.57" y="-55.53" font-family="Times,serif" font-size="14.00">File: ./smi&#45;profile&#45;collection/startup/smiclasses/amptek.py</text>
<text xml:space="preserve" text-anchor="middle" x="759.57" y="-39.03" font-family="Times,serif" font-size="14.00">Methods: 5</text>
<text xml:space="preserve" text-anchor="middle" x="759.57" y="-22.53" font-family="Times,serif" font-size="14.00">Attributes: 10</text>
</g>
<!-- BlueskyInterface&#45;&gt;AmptekSoftTrigger -->
<g id="edge2" class="edge">
<title>BlueskyInterface&#45;&gt;AmptekSoftTrigger</title>
<path fill="none" stroke="black" d="M759.57,-212.33C759.57,-189.21 759.57,-149.84 759.57,-116.06"/>
<polygon fill="black" stroke="black" points="763.07,-116.37 759.57,-106.37 756.07,-116.37 763.07,-116.37"/>
</g>
<!-- XIAXMAPTrigger -->
<g id="node4" class="node">
<title>XIAXMAPTrigger</title>
<ellipse fill="none" stroke="black" cx="1251.57" cy="-52.33" rx="184.2" ry="52.33"/>
<text xml:space="preserve" text-anchor="middle" x="1251.57" y="-72.03" font-family="Times,serif" font-size="14.00">XIAXMAPTrigger</text>
<text xml:space="preserve" text-anchor="middle" x="1251.57" y="-55.53" font-family="Times,serif" font-size="14.00">File: ./iss&#45;profile&#45;collection/startup/42&#45;xia.py</text>
<text xml:space="preserve" text-anchor="middle" x="1251.57" y="-39.03" font-family="Times,serif" font-size="14.00">Methods: 5</text>
<text xml:space="preserve" text-anchor="middle" x="1251.57" y="-22.53" font-family="Times,serif" font-size="14.00">Attributes: 7</text>
</g>
<!-- BlueskyInterface&#45;&gt;XIAXMAPTrigger -->
<g id="edge3" class="edge">
<title>BlueskyInterface&#45;&gt;XIAXMAPTrigger</title>
<path fill="none" stroke="black" d="M814.1,-212.33C889.49,-184.93 1027.67,-134.7 1128.62,-98.01"/>
<polygon fill="black" stroke="black" points="1129.57,-101.39 1137.77,-94.69 1127.18,-94.81 1129.57,-101.39"/>
</g>
</g>
</svg>
