<?xml version="1.0" encoding="UTF-8" standalone="no"?>
<!DOCTYPE svg PUBLIC "-//W3C//DTD SVG 1.1//EN"
 "http://www.w3.org/Graphics/SVG/1.1/DTD/svg11.dtd">
<!-- Generated by graphviz version 14.0.0 (20250921.2048)
 -->
<!-- Pages: 1 -->
<svg width="3141pt" height="262pt"
 viewBox="0.00 0.00 3141.00 262.00" xmlns="http://www.w3.org/2000/svg" xmlns:xlink="http://www.w3.org/1999/xlink">
<g id="graph0" class="graph" transform="scale(1 1) rotate(0) translate(4 257.65)">
<polygon fill="white" stroke="none" points="-4,4 -4,-257.65 3137.1,-257.65 3137.1,4 -4,4"/>
<!-- BMMMacroBuilder -->
<g id="node1" class="node">
<title>BMMMacroBuilder</title>
<polygon fill="lightblue" stroke="lightblue" points="1644.34,-253.65 1517.34,-253.65 1517.34,-212.65 1644.34,-212.65 1644.34,-253.65"/>
<text xml:space="preserve" text-anchor="middle" x="1580.84" y="-236.35" font-family="Times,serif" font-size="14.00">BMMMacroBuilder</text>
<text xml:space="preserve" text-anchor="middle" x="1580.84" y="-219.85" font-family="Times,serif" font-size="14.00">(Parent Class)</text>
</g>
<!-- GridMacroBuilder -->
<g id="node2" class="node">
<title>GridMacroBuilder</title>
<ellipse fill="none" stroke="black" cx="212.84" cy="-52.33" rx="212.84" ry="52.33"/>
<text xml:space="preserve" text-anchor="middle" x="212.84" y="-72.03" font-family="Times,serif" font-size="14.00">GridMacroBuilder</text>
<text xml:space="preserve" text-anchor="middle" x="212.84" y="-55.53" font-family="Times,serif" font-size="14.00">File: ./bmm&#45;profile&#45;collection/startup/BMM/grid.py</text>
<text xml:space="preserve" text-anchor="middle" x="212.84" y="-39.03" font-family="Times,serif" font-size="14.00">Methods: 3</text>
<text xml:space="preserve" text-anchor="middle" x="212.84" y="-22.53" font-family="Times,serif" font-size="14.00">Attributes: 25</text>
</g>
<!-- BMMMacroBuilder&#45;&gt;GridMacroBuilder -->
<g id="edge1" class="edge">
<title>BMMMacroBuilder&#45;&gt;GridMacroBuilder</title>
<path fill="none" stroke="black" d="M1516.85,-226.89C1345.3,-212.34 861.03,-168.4 461.84,-104.65 435.69,-100.48 408.13,-95.44 381.25,-90.17"/>
<polygon fill="black" stroke="black" points="382.15,-86.79 371.67,-88.28 380.8,-93.65 382.15,-86.79"/>
</g>
<!-- GlancingAngleMacroBuilder -->
<g id="node3" class="node">
<title>GlancingAngleMacroBuilder</title>
<ellipse fill="none" stroke="black" cx="753.84" cy="-52.33" rx="255.8" ry="52.33"/>
<text xml:space="preserve" text-anchor="middle" x="753.84" y="-72.03" font-family="Times,serif" font-size="14.00">GlancingAngleMacroBuilder</text>
<text xml:space="preserve" text-anchor="middle" x="753.84" y="-55.53" font-family="Times,serif" font-size="14.00">File: ./bmm&#45;profile&#45;collection/startup/BMM/glancing_angle.py</text>
<text xml:space="preserve" text-anchor="middle" x="753.84" y="-39.03" font-family="Times,serif" font-size="14.00">Methods: 2</text>
<text xml:space="preserve" text-anchor="middle" x="753.84" y="-22.53" font-family="Times,serif" font-size="14.00">Attributes: 12</text>
</g>
<!-- BMMMacroBuilder&#45;&gt;GlancingAngleMacroBuilder -->
<g id="edge2" class="edge">
<title>BMMMacroBuilder&#45;&gt;GlancingAngleMacroBuilder</title>
<path fill="none" stroke="black" d="M1516.98,-218.34C1394.64,-191.89 1123.08,-133.17 939.17,-93.4"/>
<polygon fill="black" stroke="black" points="940.01,-90 929.49,-91.31 938.53,-96.84 940.01,-90"/>
</g>
<!-- LakeShoreMacroBuilder -->
<g id="node4" class="node">
<title>LakeShoreMacroBuilder</title>
<ellipse fill="none" stroke="black" cx="1315.84" cy="-52.33" rx="234.05" ry="52.33"/>
<text xml:space="preserve" text-anchor="middle" x="1315.84" y="-72.03" font-family="Times,serif" font-size="14.00">LakeShoreMacroBuilder</text>
<text xml:space="preserve" text-anchor="middle" x="1315.84" y="-55.53" font-family="Times,serif" font-size="14.00">File: ./bmm&#45;profile&#45;collection/startup/BMM/lakeshore.py</text>
<text xml:space="preserve" text-anchor="middle" x="1315.84" y="-39.03" font-family="Times,serif" font-size="14.00">Methods: 2</text>
<text xml:space="preserve" text-anchor="middle" x="1315.84" y="-22.53" font-family="Times,serif" font-size="14.00">Attributes: 14</text>
</g>
<!-- BMMMacroBuilder&#45;&gt;LakeShoreMacroBuilder -->
<g id="edge3" class="edge">
<title>BMMMacroBuilder&#45;&gt;LakeShoreMacroBuilder</title>
<path fill="none" stroke="black" d="M1551.21,-212.16C1514.39,-187.31 1450.05,-143.89 1397.93,-108.72"/>
<polygon fill="black" stroke="black" points="1400.18,-106.02 1389.94,-103.33 1396.27,-111.82 1400.18,-106.02"/>
</g>
<!-- LinkamMacroBuilder -->
<g id="node5" class="node">
<title>LinkamMacroBuilder</title>
<ellipse fill="none" stroke="black" cx="1846.84" cy="-52.33" rx="224.51" ry="52.33"/>
<text xml:space="preserve" text-anchor="middle" x="1846.84" y="-72.03" font-family="Times,serif" font-size="14.00">LinkamMacroBuilder</text>
<text xml:space="preserve" text-anchor="middle" x="1846.84" y="-55.53" font-family="Times,serif" font-size="14.00">File: ./bmm&#45;profile&#45;collection/startup/BMM/linkam.py</text>
<text xml:space="preserve" text-anchor="middle" x="1846.84" y="-39.03" font-family="Times,serif" font-size="14.00">Methods: 2</text>
<text xml:space="preserve" text-anchor="middle" x="1846.84" y="-22.53" font-family="Times,serif" font-size="14.00">Attributes: 13</text>
</g>
<!-- BMMMacroBuilder&#45;&gt;LinkamMacroBuilder -->
<g id="edge4" class="edge">
<title>BMMMacroBuilder&#45;&gt;LinkamMacroBuilder</title>
<path fill="none" stroke="black" d="M1610.58,-212.16C1647.6,-187.27 1712.35,-143.74 1764.71,-108.54"/>
<polygon fill="black" stroke="black" points="1766.4,-111.62 1772.74,-103.14 1762.49,-105.81 1766.4,-111.62"/>
</g>
<!-- ResonantReflectivityMacroBuilder -->
<g id="node6" class="node">
<title>ResonantReflectivityMacroBuilder</title>
<ellipse fill="none" stroke="black" cx="2381.84" cy="-52.33" rx="238.83" ry="52.33"/>
<text xml:space="preserve" text-anchor="middle" x="2381.84" y="-72.03" font-family="Times,serif" font-size="14.00">ResonantReflectivityMacroBuilder</text>
<text xml:space="preserve" text-anchor="middle" x="2381.84" y="-55.53" font-family="Times,serif" font-size="14.00">File: ./bmm&#45;profile&#45;collection/startup/BMM/reflectivity.py</text>
<text xml:space="preserve" text-anchor="middle" x="2381.84" y="-39.03" font-family="Times,serif" font-size="14.00">Methods: 7</text>
<text xml:space="preserve" text-anchor="middle" x="2381.84" y="-22.53" font-family="Times,serif" font-size="14.00">Attributes: 35</text>
</g>
<!-- BMMMacroBuilder&#45;&gt;ResonantReflectivityMacroBuilder -->
<g id="edge5" class="edge">
<title>BMMMacroBuilder&#45;&gt;ResonantReflectivityMacroBuilder</title>
<path fill="none" stroke="black" d="M1644.7,-217.9C1764.77,-191.09 2028.02,-132.32 2205.19,-92.76"/>
<polygon fill="black" stroke="black" points="2205.72,-96.23 2214.72,-90.64 2204.2,-89.4 2205.72,-96.23"/>
</g>
<!-- WheelMacroBuilder -->
<g id="node7" class="node">
<title>WheelMacroBuilder</title>
<ellipse fill="none" stroke="black" cx="2912.84" cy="-52.33" rx="220.26" ry="52.33"/>
<text xml:space="preserve" text-anchor="middle" x="2912.84" y="-72.03" font-family="Times,serif" font-size="14.00">WheelMacroBuilder</text>
<text xml:space="preserve" text-anchor="middle" x="2912.84" y="-55.53" font-family="Times,serif" font-size="14.00">File: ./bmm&#45;profile&#45;collection/startup/BMM/wheel.py</text>
<text xml:space="preserve" text-anchor="middle" x="2912.84" y="-39.03" font-family="Times,serif" font-size="14.00">Methods: 2</text>
<text xml:space="preserve" text-anchor="middle" x="2912.84" y="-22.53" font-family="Times,serif" font-size="14.00">Attributes: 12</text>
</g>
<!-- BMMMacroBuilder&#45;&gt;WheelMacroBuilder -->
<g id="edge6" class="edge">
<title>BMMMacroBuilder&#45;&gt;WheelMacroBuilder</title>
<path fill="none" stroke="black" d="M1644.76,-226.38C1811.74,-210.9 2274.61,-165.51 2656.84,-104.65 2683.49,-100.41 2711.6,-95.36 2739.04,-90.11"/>
<polygon fill="black" stroke="black" points="2739.7,-93.55 2748.85,-88.22 2738.37,-86.68 2739.7,-93.55"/>
</g>
</g>
</svg>
