<?xml version="1.0" encoding="UTF-8" standalone="no"?>
<!DOCTYPE svg PUBLIC "-//W3C//DTD SVG 1.1//EN"
 "http://www.w3.org/Graphics/SVG/1.1/DTD/svg11.dtd">
<!-- Generated by graphviz version 14.0.0 (20250921.2048)
 -->
<!-- Pages: 1 -->
<svg width="898pt" height="262pt"
 viewBox="0.00 0.00 898.00 262.00" xmlns="http://www.w3.org/2000/svg" xmlns:xlink="http://www.w3.org/1999/xlink">
<g id="graph0" class="graph" transform="scale(1 1) rotate(0) translate(4 257.65)">
<polygon fill="white" stroke="none" points="-4,4 -4,-257.65 893.71,-257.65 893.71,4 -4,4"/>
<!-- BPM -->
<g id="node1" class="node">
<title>BPM</title>
<polygon fill="lightblue" stroke="lightblue" points="490.6,-253.65 398.1,-253.65 398.1,-212.65 490.6,-212.65 490.6,-253.65"/>
<text xml:space="preserve" text-anchor="middle" x="444.35" y="-236.35" font-family="Times,serif" font-size="14.00">BPM</text>
<text xml:space="preserve" text-anchor="middle" x="444.35" y="-219.85" font-family="Times,serif" font-size="14.00">(Parent Class)</text>
</g>
<!-- FeedbackBPM -->
<g id="node2" class="node">
<title>FeedbackBPM</title>
<ellipse fill="none" stroke="black" cx="204.35" cy="-52.33" rx="204.35" ry="52.33"/>
<text xml:space="preserve" text-anchor="middle" x="204.35" y="-72.03" font-family="Times,serif" font-size="14.00">FeedbackBPM</text>
<text xml:space="preserve" text-anchor="middle" x="204.35" y="-55.53" font-family="Times,serif" font-size="14.00">File: ./iss&#45;profile&#45;collection/startup/31&#45;cameras.py</text>
<text xml:space="preserve" text-anchor="middle" x="204.35" y="-39.03" font-family="Times,serif" font-size="14.00">Methods: 5</text>
<text xml:space="preserve" text-anchor="middle" x="204.35" y="-22.53" font-family="Times,serif" font-size="14.00">Attributes: 2</text>
</g>
<!-- BPM&#45;&gt;FeedbackBPM -->
<g id="edge1" class="edge">
<title>BPM&#45;&gt;FeedbackBPM</title>
<path fill="none" stroke="black" d="M417.75,-212.33C384.5,-187.56 326.22,-144.13 278.95,-108.91"/>
<polygon fill="black" stroke="black" points="281.28,-106.28 271.17,-103.11 277.1,-111.9 281.28,-106.28"/>
</g>
<!-- SamplePositionerBPM -->
<g id="node3" class="node">
<title>SamplePositionerBPM</title>
<ellipse fill="none" stroke="black" cx="685.35" cy="-52.33" rx="204.35" ry="52.33"/>
<text xml:space="preserve" text-anchor="middle" x="685.35" y="-72.03" font-family="Times,serif" font-size="14.00">SamplePositionerBPM</text>
<text xml:space="preserve" text-anchor="middle" x="685.35" y="-55.53" font-family="Times,serif" font-size="14.00">File: ./iss&#45;profile&#45;collection/startup/31&#45;cameras.py</text>
<text xml:space="preserve" text-anchor="middle" x="685.35" y="-39.03" font-family="Times,serif" font-size="14.00">Methods: 13</text>
<text xml:space="preserve" text-anchor="middle" x="685.35" y="-22.53" font-family="Times,serif" font-size="14.00">Attributes: 9</text>
</g>
<!-- BPM&#45;&gt;SamplePositionerBPM -->
<g id="edge2" class="edge">
<title>BPM&#45;&gt;SamplePositionerBPM</title>
<path fill="none" stroke="black" d="M471.07,-212.33C504.45,-187.56 562.98,-144.13 610.45,-108.91"/>
<polygon fill="black" stroke="black" points="612.31,-111.88 618.26,-103.11 608.14,-106.26 612.31,-111.88"/>
</g>
</g>
</svg>
