<?xml version="1.0" encoding="UTF-8" standalone="no"?>
<!DOCTYPE svg PUBLIC "-//W3C//DTD SVG 1.1//EN"
 "http://www.w3.org/Graphics/SVG/1.1/DTD/svg11.dtd">
<!-- Generated by graphviz version 14.0.0 (20250921.2048)
 -->
<!-- Pages: 1 -->
<svg width="878pt" height="262pt"
 viewBox="0.00 0.00 878.00 262.00" xmlns="http://www.w3.org/2000/svg" xmlns:xlink="http://www.w3.org/1999/xlink">
<g id="graph0" class="graph" transform="scale(1 1) rotate(0) translate(4 257.65)">
<polygon fill="white" stroke="none" points="-4,4 -4,-257.65 874.16,-257.65 874.16,4 -4,4"/>
<!-- BulkXspress -->
<g id="node1" class="node">
<title>BulkXspress</title>
<polygon fill="lightblue" stroke="lightblue" points="480.83,-253.65 388.33,-253.65 388.33,-212.65 480.83,-212.65 480.83,-253.65"/>
<text xml:space="preserve" text-anchor="middle" x="434.58" y="-236.35" font-family="Times,serif" font-size="14.00">BulkXspress</text>
<text xml:space="preserve" text-anchor="middle" x="434.58" y="-219.85" font-family="Times,serif" font-size="14.00">(Parent Class)</text>
</g>
<!-- BulkMerlin -->
<g id="node2" class="node">
<title>BulkMerlin</title>
<ellipse fill="none" stroke="black" cx="199.58" cy="-52.33" rx="199.58" ry="52.33"/>
<text xml:space="preserve" text-anchor="middle" x="199.58" y="-72.03" font-family="Times,serif" font-size="14.00">BulkMerlin</text>
<text xml:space="preserve" text-anchor="middle" x="199.58" y="-55.53" font-family="Times,serif" font-size="14.00">File: ./srx&#45;profile&#45;collection/startup/34&#45;merlin.py</text>
<text xml:space="preserve" text-anchor="middle" x="199.58" y="-39.03" font-family="Times,serif" font-size="14.00">Methods: 1</text>
<text xml:space="preserve" text-anchor="middle" x="199.58" y="-22.53" font-family="Times,serif" font-size="14.00">Attributes: 1</text>
</g>
<!-- BulkXspress&#45;&gt;BulkMerlin -->
<g id="edge1" class="edge">
<title>BulkXspress&#45;&gt;BulkMerlin</title>
<path fill="none" stroke="black" d="M408.53,-212.33C376.04,-187.61 319.14,-144.31 272.91,-109.13"/>
<polygon fill="black" stroke="black" points="275.1,-106.4 265.02,-103.13 270.86,-111.97 275.1,-106.4"/>
</g>
<!-- BulkMerlinDebug -->
<g id="node3" class="node">
<title>BulkMerlinDebug</title>
<ellipse fill="none" stroke="black" cx="670.58" cy="-52.33" rx="199.58" ry="52.33"/>
<text xml:space="preserve" text-anchor="middle" x="670.58" y="-72.03" font-family="Times,serif" font-size="14.00">BulkMerlinDebug</text>
<text xml:space="preserve" text-anchor="middle" x="670.58" y="-55.53" font-family="Times,serif" font-size="14.00">File: ./srx&#45;profile&#45;collection/startup/34&#45;merlin.py</text>
<text xml:space="preserve" text-anchor="middle" x="670.58" y="-39.03" font-family="Times,serif" font-size="14.00">Methods: 1</text>
<text xml:space="preserve" text-anchor="middle" x="670.58" y="-22.53" font-family="Times,serif" font-size="14.00">Attributes: 1</text>
</g>
<!-- BulkXspress&#45;&gt;BulkMerlinDebug -->
<g id="edge2" class="edge">
<title>BulkXspress&#45;&gt;BulkMerlinDebug</title>
<path fill="none" stroke="black" d="M460.74,-212.33C493.37,-187.61 550.51,-144.31 596.94,-109.13"/>
<polygon fill="black" stroke="black" points="599.01,-111.95 604.86,-103.12 594.78,-106.37 599.01,-111.95"/>
</g>
</g>
</svg>
