<?xml version="1.0" encoding="UTF-8" standalone="no"?>
<!DOCTYPE svg PUBLIC "-//W3C//DTD SVG 1.1//EN"
 "http://www.w3.org/Graphics/SVG/1.1/DTD/svg11.dtd">
<!-- Generated by graphviz version 14.0.0 (20250921.2048)
 -->
<!-- Pages: 1 -->
<svg width="6447pt" height="262pt"
 viewBox="0.00 0.00 6447.00 262.00" xmlns="http://www.w3.org/2000/svg" xmlns:xlink="http://www.w3.org/1999/xlink">
<g id="graph0" class="graph" transform="scale(1 1) rotate(0) translate(4 257.65)">
<polygon fill="white" stroke="none" points="-4,4 -4,-257.65 6443.42,-257.65 6443.42,4 -4,4"/>
<!-- CallbackBase -->
<g id="node1" class="node">
<title>CallbackBase</title>
<polygon fill="lightblue" stroke="lightblue" points="3324.76,-253.65 3232.26,-253.65 3232.26,-212.65 3324.76,-212.65 3324.76,-253.65"/>
<text xml:space="preserve" text-anchor="middle" x="3278.51" y="-236.35" font-family="Times,serif" font-size="14.00">CallbackBase</text>
<text xml:space="preserve" text-anchor="middle" x="3278.51" y="-219.85" font-family="Times,serif" font-size="14.00">(Parent Class)</text>
</g>
<!-- RasterMaker -->
<g id="node2" class="node">
<title>RasterMaker</title>
<ellipse fill="none" stroke="black" cx="224.51" cy="-52.33" rx="224.51" ry="52.33"/>
<text xml:space="preserve" text-anchor="middle" x="224.51" y="-72.03" font-family="Times,serif" font-size="14.00">RasterMaker</text>
<text xml:space="preserve" text-anchor="middle" x="224.51" y="-55.53" font-family="Times,serif" font-size="14.00">File: ./tes&#45;profile&#45;collection/startup/89&#45;usercallbacks.py</text>
<text xml:space="preserve" text-anchor="middle" x="224.51" y="-39.03" font-family="Times,serif" font-size="14.00">Methods: 5</text>
<text xml:space="preserve" text-anchor="middle" x="224.51" y="-22.53" font-family="Times,serif" font-size="14.00">Attributes: 7</text>
</g>
<!-- CallbackBase&#45;&gt;RasterMaker -->
<g id="edge1" class="edge">
<title>CallbackBase&#45;&gt;RasterMaker</title>
<path fill="none" stroke="black" d="M3231.88,-230.98C2912.87,-222.81 1048.07,-172.75 484.51,-104.65 456.05,-101.21 426.05,-96.41 396.94,-91.11"/>
<polygon fill="black" stroke="black" points="397.79,-87.71 387.32,-89.33 396.52,-94.59 397.79,-87.71"/>
</g>
<!-- PostProcessingCallback -->
<g id="node3" class="node">
<title>PostProcessingCallback</title>
<ellipse fill="none" stroke="black" cx="780.51" cy="-52.33" rx="259.51" ry="52.33"/>
<text xml:space="preserve" text-anchor="middle" x="780.51" y="-72.03" font-family="Times,serif" font-size="14.00">PostProcessingCallback</text>
<text xml:space="preserve" text-anchor="middle" x="780.51" y="-55.53" font-family="Times,serif" font-size="14.00">File: ./qas&#45;profile&#45;collection/old/60&#45;auto&#45;processing&#45;withdask.py</text>
<text xml:space="preserve" text-anchor="middle" x="780.51" y="-39.03" font-family="Times,serif" font-size="14.00">Methods: 3</text>
<text xml:space="preserve" text-anchor="middle" x="780.51" y="-22.53" font-family="Times,serif" font-size="14.00">Attributes: 6</text>
</g>
<!-- CallbackBase&#45;&gt;PostProcessingCallback -->
<g id="edge2" class="edge">
<title>CallbackBase&#45;&gt;PostProcessingCallback</title>
<path fill="none" stroke="black" d="M3231.83,-231.43C2998.7,-227.42 1937.5,-204.25 1075.51,-104.65 1043.84,-100.99 1010.42,-96.14 977.9,-90.88"/>
<polygon fill="black" stroke="black" points="978.84,-87.49 968.41,-89.33 977.71,-94.4 978.84,-87.49"/>
</g>
<!-- SavingCallback -->
<g id="node4" class="node">
<title>SavingCallback</title>
<ellipse fill="none" stroke="black" cx="1320.51" cy="-52.33" rx="208.6" ry="52.33"/>
<text xml:space="preserve" text-anchor="middle" x="1320.51" y="-72.03" font-family="Times,serif" font-size="14.00">SavingCallback</text>
<text xml:space="preserve" text-anchor="middle" x="1320.51" y="-55.53" font-family="Times,serif" font-size="14.00">File: ./cms&#45;profile&#45;collection/startup/91&#45;fit_scan.py</text>
<text xml:space="preserve" text-anchor="middle" x="1320.51" y="-39.03" font-family="Times,serif" font-size="14.00">Methods: 3</text>
<text xml:space="preserve" text-anchor="middle" x="1320.51" y="-22.53" font-family="Times,serif" font-size="14.00">Attributes: 1</text>
</g>
<!-- CallbackBase&#45;&gt;SavingCallback -->
<g id="edge3" class="edge">
<title>CallbackBase&#45;&gt;SavingCallback</title>
<path fill="none" stroke="black" d="M3231.91,-230.96C3031.31,-225.35 2221.86,-197.82 1564.51,-104.65 1538.23,-100.93 1510.55,-96.04 1483.64,-90.77"/>
<polygon fill="black" stroke="black" points="1484.54,-87.38 1474.05,-88.86 1483.18,-94.25 1484.54,-87.38"/>
</g>
<!-- PrintCallback -->
<g id="node5" class="node">
<title>PrintCallback</title>
<ellipse fill="none" stroke="black" cx="1809.51" cy="-52.33" rx="208.6" ry="52.33"/>
<text xml:space="preserve" text-anchor="middle" x="1809.51" y="-72.03" font-family="Times,serif" font-size="14.00">PrintCallback</text>
<text xml:space="preserve" text-anchor="middle" x="1809.51" y="-55.53" font-family="Times,serif" font-size="14.00">File: ./cms&#45;profile&#45;collection/startup/91&#45;fit_scan.py</text>
<text xml:space="preserve" text-anchor="middle" x="1809.51" y="-39.03" font-family="Times,serif" font-size="14.00">Methods: 4</text>
<text xml:space="preserve" text-anchor="middle" x="1809.51" y="-22.53" font-family="Times,serif" font-size="14.00">Attributes: 0</text>
</g>
<!-- CallbackBase&#45;&gt;PrintCallback -->
<g id="edge4" class="edge">
<title>CallbackBase&#45;&gt;PrintCallback</title>
<path fill="none" stroke="black" d="M3231.83,-229.05C3068.84,-217.82 2510.05,-176.23 2053.51,-104.65 2027.78,-100.62 2000.67,-95.65 1974.25,-90.4"/>
<polygon fill="black" stroke="black" points="1974.95,-86.97 1964.46,-88.43 1973.57,-93.83 1974.95,-86.97"/>
</g>
<!-- MotorWait -->
<g id="node6" class="node">
<title>MotorWait</title>
<ellipse fill="none" stroke="black" cx="2298.51" cy="-52.33" rx="208.6" ry="52.33"/>
<text xml:space="preserve" text-anchor="middle" x="2298.51" y="-72.03" font-family="Times,serif" font-size="14.00">MotorWait</text>
<text xml:space="preserve" text-anchor="middle" x="2298.51" y="-55.53" font-family="Times,serif" font-size="14.00">File: ./cms&#45;profile&#45;collection/startup/91&#45;fit_scan.py</text>
<text xml:space="preserve" text-anchor="middle" x="2298.51" y="-39.03" font-family="Times,serif" font-size="14.00">Methods: 3</text>
<text xml:space="preserve" text-anchor="middle" x="2298.51" y="-22.53" font-family="Times,serif" font-size="14.00">Attributes: 3</text>
</g>
<!-- CallbackBase&#45;&gt;MotorWait -->
<g id="edge5" class="edge">
<title>CallbackBase&#45;&gt;MotorWait</title>
<path fill="none" stroke="black" d="M3231.9,-224.67C3115.42,-205.85 2802.32,-154.47 2542.51,-104.65 2517.88,-99.93 2491.9,-94.72 2466.45,-89.48"/>
<polygon fill="black" stroke="black" points="2467.18,-86.05 2456.67,-87.46 2465.76,-92.91 2467.18,-86.05"/>
</g>
<!-- LiveStat -->
<g id="node7" class="node">
<title>LiveStat</title>
<ellipse fill="none" stroke="black" cx="2787.51" cy="-52.33" rx="208.6" ry="52.33"/>
<text xml:space="preserve" text-anchor="middle" x="2787.51" y="-72.03" font-family="Times,serif" font-size="14.00">LiveStat</text>
<text xml:space="preserve" text-anchor="middle" x="2787.51" y="-55.53" font-family="Times,serif" font-size="14.00">File: ./cms&#45;profile&#45;collection/startup/91&#45;fit_scan.py</text>
<text xml:space="preserve" text-anchor="middle" x="2787.51" y="-39.03" font-family="Times,serif" font-size="14.00">Methods: 3</text>
<text xml:space="preserve" text-anchor="middle" x="2787.51" y="-22.53" font-family="Times,serif" font-size="14.00">Attributes: 22</text>
</g>
<!-- CallbackBase&#45;&gt;LiveStat -->
<g id="edge6" class="edge">
<title>CallbackBase&#45;&gt;LiveStat</title>
<path fill="none" stroke="black" d="M3231.87,-215.17C3159.9,-188.95 3019.21,-137.71 2915.34,-99.88"/>
<polygon fill="black" stroke="black" points="2916.78,-96.69 2906.19,-96.55 2914.39,-103.26 2916.78,-96.69"/>
</g>
<!-- SoftLinkCallBack -->
<g id="node8" class="node">
<title>SoftLinkCallBack</title>
<ellipse fill="none" stroke="black" cx="3278.51" cy="-52.33" rx="210.72" ry="52.33"/>
<text xml:space="preserve" text-anchor="middle" x="3278.51" y="-72.03" font-family="Times,serif" font-size="14.00">SoftLinkCallBack</text>
<text xml:space="preserve" text-anchor="middle" x="3278.51" y="-55.53" font-family="Times,serif" font-size="14.00">File: ./pdf&#45;profile&#45;collection/startup/91&#45;callbacks.py</text>
<text xml:space="preserve" text-anchor="middle" x="3278.51" y="-39.03" font-family="Times,serif" font-size="14.00">Methods: 5</text>
<text xml:space="preserve" text-anchor="middle" x="3278.51" y="-22.53" font-family="Times,serif" font-size="14.00">Attributes: 19</text>
</g>
<!-- CallbackBase&#45;&gt;SoftLinkCallBack -->
<g id="edge7" class="edge">
<title>CallbackBase&#45;&gt;SoftLinkCallBack</title>
<path fill="none" stroke="black" d="M3278.51,-212.33C3278.51,-189.21 3278.51,-149.84 3278.51,-116.06"/>
<polygon fill="black" stroke="black" points="3282.01,-116.37 3278.51,-106.37 3275.01,-116.37 3282.01,-116.37"/>
</g>
<!-- DarkSubtractionCallback -->
<g id="node9" class="node">
<title>DarkSubtractionCallback</title>
<ellipse fill="none" stroke="black" cx="3771.51" cy="-52.33" rx="210.72" ry="52.33"/>
<text xml:space="preserve" text-anchor="middle" x="3771.51" y="-72.03" font-family="Times,serif" font-size="14.00">DarkSubtractionCallback</text>
<text xml:space="preserve" text-anchor="middle" x="3771.51" y="-55.53" font-family="Times,serif" font-size="14.00">File: ./pdf&#45;profile&#45;collection/startup/91&#45;callbacks.py</text>
<text xml:space="preserve" text-anchor="middle" x="3771.51" y="-39.03" font-family="Times,serif" font-size="14.00">Methods: 9</text>
<text xml:space="preserve" text-anchor="middle" x="3771.51" y="-22.53" font-family="Times,serif" font-size="14.00">Attributes: 26</text>
</g>
<!-- CallbackBase&#45;&gt;DarkSubtractionCallback -->
<g id="edge8" class="edge">
<title>CallbackBase&#45;&gt;DarkSubtractionCallback</title>
<path fill="none" stroke="black" d="M3324.89,-215.33C3396.96,-189.19 3538.41,-137.88 3642.89,-99.98"/>
<polygon fill="black" stroke="black" points="3643.89,-103.34 3652.1,-96.64 3641.5,-96.76 3643.89,-103.34"/>
</g>
<!-- PdfMaker -->
<g id="node10" class="node">
<title>PdfMaker</title>
<ellipse fill="none" stroke="black" cx="4262.51" cy="-52.33" rx="208.6" ry="52.33"/>
<text xml:space="preserve" text-anchor="middle" x="4262.51" y="-72.03" font-family="Times,serif" font-size="14.00">PdfMaker</text>
<text xml:space="preserve" text-anchor="middle" x="4262.51" y="-55.53" font-family="Times,serif" font-size="14.00">File: ./fxi&#45;profile&#45;collection/startup/91&#45;functions.py</text>
<text xml:space="preserve" text-anchor="middle" x="4262.51" y="-39.03" font-family="Times,serif" font-size="14.00">Methods: 1</text>
<text xml:space="preserve" text-anchor="middle" x="4262.51" y="-22.53" font-family="Times,serif" font-size="14.00">Attributes: 1</text>
</g>
<!-- CallbackBase&#45;&gt;PdfMaker -->
<g id="edge9" class="edge">
<title>CallbackBase&#45;&gt;PdfMaker</title>
<path fill="none" stroke="black" d="M3324.94,-224.76C3441.71,-206.04 3756.98,-154.67 4018.51,-104.65 4043.14,-99.94 4069.11,-94.73 4094.57,-89.5"/>
<polygon fill="black" stroke="black" points="4095.26,-92.93 4104.34,-87.48 4093.84,-86.07 4095.26,-92.93"/>
</g>
<!-- print_scan_id -->
<g id="node11" class="node">
<title>print_scan_id</title>
<ellipse fill="none" stroke="black" cx="4748.51" cy="-52.33" rx="205.41" ry="52.33"/>
<text xml:space="preserve" text-anchor="middle" x="4748.51" y="-72.03" font-family="Times,serif" font-size="14.00">print_scan_id</text>
<text xml:space="preserve" text-anchor="middle" x="4748.51" y="-55.53" font-family="Times,serif" font-size="14.00">File: ./chx&#45;profile&#45;collection/startup/99&#45;bluesky.py</text>
<text xml:space="preserve" text-anchor="middle" x="4748.51" y="-39.03" font-family="Times,serif" font-size="14.00">Methods: 2</text>
<text xml:space="preserve" text-anchor="middle" x="4748.51" y="-22.53" font-family="Times,serif" font-size="14.00">Attributes: 1</text>
</g>
<!-- CallbackBase&#45;&gt;print_scan_id -->
<g id="edge10" class="edge">
<title>CallbackBase&#45;&gt;print_scan_id</title>
<path fill="none" stroke="black" d="M3325.06,-229.12C3488.24,-218.1 4049.3,-177 4507.51,-104.65 4533.02,-100.62 4559.9,-95.64 4586.09,-90.38"/>
<polygon fill="black" stroke="black" points="4586.68,-93.83 4595.78,-88.41 4585.28,-86.97 4586.68,-93.83"/>
</g>
<!-- LivePlot3D -->
<g id="node12" class="node">
<title>LivePlot3D</title>
<ellipse fill="none" stroke="black" cx="5232.51" cy="-52.33" rx="206.48" ry="52.33"/>
<text xml:space="preserve" text-anchor="middle" x="5232.51" y="-72.03" font-family="Times,serif" font-size="14.00">LivePlot3D</text>
<text xml:space="preserve" text-anchor="middle" x="5232.51" y="-55.53" font-family="Times,serif" font-size="14.00">File: ./lix&#45;profile&#45;collection/startup/utils/91&#45;plot.py</text>
<text xml:space="preserve" text-anchor="middle" x="5232.51" y="-39.03" font-family="Times,serif" font-size="14.00">Methods: 6</text>
<text xml:space="preserve" text-anchor="middle" x="5232.51" y="-22.53" font-family="Times,serif" font-size="14.00">Attributes: 18</text>
</g>
<!-- CallbackBase&#45;&gt;LivePlot3D -->
<g id="edge11" class="edge">
<title>CallbackBase&#45;&gt;LivePlot3D</title>
<path fill="none" stroke="black" d="M3325.03,-230.97C3525.28,-225.39 4333.34,-197.97 4989.51,-104.65 5015.86,-100.9 5043.64,-95.98 5070.62,-90.66"/>
<polygon fill="black" stroke="black" points="5071.12,-94.13 5080.24,-88.74 5069.75,-87.27 5071.12,-94.13"/>
</g>
<!-- LiveZebraPlot -->
<g id="node13" class="node">
<title>LiveZebraPlot</title>
<ellipse fill="none" stroke="black" cx="5716.51" cy="-52.33" rx="205.41" ry="52.33"/>
<text xml:space="preserve" text-anchor="middle" x="5716.51" y="-72.03" font-family="Times,serif" font-size="14.00">LiveZebraPlot</text>
<text xml:space="preserve" text-anchor="middle" x="5716.51" y="-55.53" font-family="Times,serif" font-size="14.00">File: ./srx&#45;profile&#45;collection/startup/62&#45;flyscans.py</text>
<text xml:space="preserve" text-anchor="middle" x="5716.51" y="-39.03" font-family="Times,serif" font-size="14.00">Methods: 5</text>
<text xml:space="preserve" text-anchor="middle" x="5716.51" y="-22.53" font-family="Times,serif" font-size="14.00">Attributes: 6</text>
</g>
<!-- CallbackBase&#45;&gt;LiveZebraPlot -->
<g id="edge12" class="edge">
<title>CallbackBase&#45;&gt;LiveZebraPlot</title>
<path fill="none" stroke="black" d="M3325.12,-232.05C3557.88,-230.99 4617.22,-219.78 5474.51,-104.65 5501.07,-101.08 5529.06,-96.21 5556.21,-90.87"/>
<polygon fill="black" stroke="black" points="5556.77,-94.33 5565.89,-88.94 5555.4,-87.46 5556.77,-94.33"/>
</g>
<!-- SRXLiveImage -->
<g id="node14" class="node">
<title>SRXLiveImage</title>
<ellipse fill="none" stroke="black" cx="6216.51" cy="-52.33" rx="222.92" ry="52.33"/>
<text xml:space="preserve" text-anchor="middle" x="6216.51" y="-72.03" font-family="Times,serif" font-size="14.00">SRXLiveImage</text>
<text xml:space="preserve" text-anchor="middle" x="6216.51" y="-55.53" font-family="Times,serif" font-size="14.00">File: ./srx&#45;profile&#45;collection/startup/44&#45;bs_callbacks.py</text>
<text xml:space="preserve" text-anchor="middle" x="6216.51" y="-39.03" font-family="Times,serif" font-size="14.00">Methods: 2</text>
<text xml:space="preserve" text-anchor="middle" x="6216.51" y="-22.53" font-family="Times,serif" font-size="14.00">Attributes: 5</text>
</g>
<!-- CallbackBase&#45;&gt;SRXLiveImage -->
<g id="edge13" class="edge">
<title>CallbackBase&#45;&gt;SRXLiveImage</title>
<path fill="none" stroke="black" d="M3325.01,-232.51C3586.26,-233.96 4897.35,-234.2 5957.51,-104.65 5985.85,-101.19 6015.74,-96.37 6044.73,-91.06"/>
<polygon fill="black" stroke="black" points="6045.12,-94.55 6054.31,-89.29 6043.84,-87.67 6045.12,-94.55"/>
</g>
</g>
</svg>
