<?xml version="1.0" encoding="UTF-8" standalone="no"?>
<!DOCTYPE svg PUBLIC "-//W3C//DTD SVG 1.1//EN"
 "http://www.w3.org/Graphics/SVG/1.1/DTD/svg11.dtd">
<!-- Generated by graphviz version 14.0.0 (20250921.2048)
 -->
<!-- Pages: 1 -->
<svg width="1854pt" height="262pt"
 viewBox="0.00 0.00 1854.00 262.00" xmlns="http://www.w3.org/2000/svg" xmlns:xlink="http://www.w3.org/1999/xlink">
<g id="graph0" class="graph" transform="scale(1 1) rotate(0) translate(4 257.65)">
<polygon fill="white" stroke="none" points="-4,4 -4,-257.65 1849.89,-257.65 1849.89,4 -4,4"/>
<!-- CamBase -->
<g id="node1" class="node">
<title>CamBase</title>
<polygon fill="lightblue" stroke="lightblue" points="989.94,-253.65 897.44,-253.65 897.44,-212.65 989.94,-212.65 989.94,-253.65"/>
<text xml:space="preserve" text-anchor="middle" x="943.69" y="-236.35" font-family="Times,serif" font-size="14.00">CamBase</text>
<text xml:space="preserve" text-anchor="middle" x="943.69" y="-219.85" font-family="Times,serif" font-size="14.00">(Parent Class)</text>
</g>
<!-- EigerDetectorCam -->
<g id="node2" class="node">
<title>EigerDetectorCam</title>
<ellipse fill="none" stroke="black" cx="192.69" cy="-52.33" rx="192.69" ry="52.33"/>
<text xml:space="preserve" text-anchor="middle" x="192.69" y="-72.03" font-family="Times,serif" font-size="14.00">EigerDetectorCam</text>
<text xml:space="preserve" text-anchor="middle" x="192.69" y="-55.53" font-family="Times,serif" font-size="14.00">File: ./srx&#45;profile&#45;collection/startup/36&#45;eiger.py</text>
<text xml:space="preserve" text-anchor="middle" x="192.69" y="-39.03" font-family="Times,serif" font-size="14.00">Methods: 1</text>
<text xml:space="preserve" text-anchor="middle" x="192.69" y="-22.53" font-family="Times,serif" font-size="14.00">Attributes: 11</text>
</g>
<!-- CamBase&#45;&gt;EigerDetectorCam -->
<g id="edge1" class="edge">
<title>CamBase&#45;&gt;EigerDetectorCam</title>
<path fill="none" stroke="black" d="M896.99,-221.03C789.38,-195.41 519.97,-131.26 347.28,-90.14"/>
<polygon fill="black" stroke="black" points="348.32,-86.79 337.78,-87.88 346.7,-93.6 348.32,-86.79"/>
</g>
<!-- SpecsDetectorCam -->
<g id="node3" class="node">
<title>SpecsDetectorCam</title>
<ellipse fill="none" stroke="black" cx="688.69" cy="-52.33" rx="230.87" ry="52.33"/>
<text xml:space="preserve" text-anchor="middle" x="688.69" y="-72.03" font-family="Times,serif" font-size="14.00">SpecsDetectorCam</text>
<text xml:space="preserve" text-anchor="middle" x="688.69" y="-55.53" font-family="Times,serif" font-size="14.00">File: ./ios&#45;profile&#45;collection/startup/21&#45;specs_analyzer.py</text>
<text xml:space="preserve" text-anchor="middle" x="688.69" y="-39.03" font-family="Times,serif" font-size="14.00">Methods: 0</text>
<text xml:space="preserve" text-anchor="middle" x="688.69" y="-22.53" font-family="Times,serif" font-size="14.00">Attributes: 28</text>
</g>
<!-- CamBase&#45;&gt;SpecsDetectorCam -->
<g id="edge2" class="edge">
<title>CamBase&#45;&gt;SpecsDetectorCam</title>
<path fill="none" stroke="black" d="M915.42,-212.33C880.14,-187.59 818.34,-144.25 768.15,-109.05"/>
<polygon fill="black" stroke="black" points="770.36,-106.33 760.17,-103.45 766.35,-112.06 770.36,-106.33"/>
</g>
<!-- Lambda750kCam -->
<g id="node4" class="node">
<title>Lambda750kCam</title>
<ellipse fill="none" stroke="black" cx="1198.69" cy="-52.33" rx="207.01" ry="52.33"/>
<text xml:space="preserve" text-anchor="middle" x="1198.69" y="-72.03" font-family="Times,serif" font-size="14.00">Lambda750kCam</text>
<text xml:space="preserve" text-anchor="middle" x="1198.69" y="-55.53" font-family="Times,serif" font-size="14.00">File: ./opls&#45;profile&#45;collection/startup/46&#45;lambda.py</text>
<text xml:space="preserve" text-anchor="middle" x="1198.69" y="-39.03" font-family="Times,serif" font-size="14.00">Methods: 0</text>
<text xml:space="preserve" text-anchor="middle" x="1198.69" y="-22.53" font-family="Times,serif" font-size="14.00">Attributes: 6</text>
</g>
<!-- CamBase&#45;&gt;Lambda750kCam -->
<g id="edge3" class="edge">
<title>CamBase&#45;&gt;Lambda750kCam</title>
<path fill="none" stroke="black" d="M971.95,-212.33C1007.41,-187.46 1069.68,-143.8 1120,-108.51"/>
<polygon fill="black" stroke="black" points="1121.83,-111.5 1128.01,-102.89 1117.81,-105.77 1121.83,-111.5"/>
</g>
<!-- XIAXMAPDetectorSettings -->
<g id="node5" class="node">
<title>XIAXMAPDetectorSettings</title>
<ellipse fill="none" stroke="black" cx="1661.69" cy="-52.33" rx="184.2" ry="52.33"/>
<text xml:space="preserve" text-anchor="middle" x="1661.69" y="-72.03" font-family="Times,serif" font-size="14.00">XIAXMAPDetectorSettings</text>
<text xml:space="preserve" text-anchor="middle" x="1661.69" y="-55.53" font-family="Times,serif" font-size="14.00">File: ./iss&#45;profile&#45;collection/startup/42&#45;xia.py</text>
<text xml:space="preserve" text-anchor="middle" x="1661.69" y="-39.03" font-family="Times,serif" font-size="14.00">Methods: 1</text>
<text xml:space="preserve" text-anchor="middle" x="1661.69" y="-22.53" font-family="Times,serif" font-size="14.00">Attributes: 70</text>
</g>
<!-- CamBase&#45;&gt;XIAXMAPDetectorSettings -->
<g id="edge4" class="edge">
<title>CamBase&#45;&gt;XIAXMAPDetectorSettings</title>
<path fill="none" stroke="black" d="M990.24,-220.56C1094.21,-194.66 1349,-131.2 1513.12,-90.33"/>
<polygon fill="black" stroke="black" points="1513.95,-93.73 1522.81,-87.91 1512.26,-86.93 1513.95,-93.73"/>
</g>
</g>
</svg>
