<?xml version="1.0" encoding="UTF-8" standalone="no"?>
<!DOCTYPE svg PUBLIC "-//W3C//DTD SVG 1.1//EN"
 "http://www.w3.org/Graphics/SVG/1.1/DTD/svg11.dtd">
<!-- Generated by graphviz version 14.0.0 (20250921.2048)
 -->
<!-- Pages: 1 -->
<svg width="2057pt" height="262pt"
 viewBox="0.00 0.00 2057.00 262.00" xmlns="http://www.w3.org/2000/svg" xmlns:xlink="http://www.w3.org/1999/xlink">
<g id="graph0" class="graph" transform="scale(1 1) rotate(0) translate(4 257.65)">
<polygon fill="white" stroke="none" points="-4,4 -4,-257.65 2053.23,-257.65 2053.23,4 -4,4"/>
<!-- CamV33Mixin -->
<g id="node1" class="node">
<title>CamV33Mixin</title>
<polygon fill="lightblue" stroke="lightblue" points="1100.47,-253.65 1001.22,-253.65 1001.22,-212.65 1100.47,-212.65 1100.47,-253.65"/>
<text xml:space="preserve" text-anchor="middle" x="1050.84" y="-236.35" font-family="Times,serif" font-size="14.00">CamV33Mixin</text>
<text xml:space="preserve" text-anchor="middle" x="1050.84" y="-219.85" font-family="Times,serif" font-size="14.00">(Parent Class)</text>
</g>
<!-- EigerDetectorCam -->
<g id="node2" class="node">
<title>EigerDetectorCam</title>
<ellipse fill="none" stroke="black" cx="247.84" cy="-52.33" rx="247.84" ry="52.33"/>
<text xml:space="preserve" text-anchor="middle" x="247.84" y="-72.03" font-family="Times,serif" font-size="14.00">EigerDetectorCam</text>
<text xml:space="preserve" text-anchor="middle" x="247.84" y="-55.53" font-family="Times,serif" font-size="14.00">File: ./hxn&#45;profile&#45;collection/startup/65&#45;nano&#45;eiger&#45;mobile.py</text>
<text xml:space="preserve" text-anchor="middle" x="247.84" y="-39.03" font-family="Times,serif" font-size="14.00">Methods: 0</text>
<text xml:space="preserve" text-anchor="middle" x="247.84" y="-22.53" font-family="Times,serif" font-size="14.00">Attributes: 13</text>
</g>
<!-- CamV33Mixin&#45;&gt;EigerDetectorCam -->
<g id="edge1" class="edge">
<title>CamV33Mixin&#45;&gt;EigerDetectorCam</title>
<path fill="none" stroke="black" d="M1000.91,-221.03C888.93,-196.09 613.06,-134.66 428.16,-93.48"/>
<polygon fill="black" stroke="black" points="428.95,-90.07 418.42,-91.31 427.42,-96.9 428.95,-90.07"/>
</g>
<!-- MerlinDetectorCam -->
<g id="node3" class="node">
<title>MerlinDetectorCam</title>
<ellipse fill="none" stroke="black" cx="791.84" cy="-52.33" rx="223.98" ry="52.33"/>
<text xml:space="preserve" text-anchor="middle" x="791.84" y="-72.03" font-family="Times,serif" font-size="14.00">MerlinDetectorCam</text>
<text xml:space="preserve" text-anchor="middle" x="791.84" y="-55.53" font-family="Times,serif" font-size="14.00">File: ./hxn&#45;profile&#45;collection/startup/64&#45;nano&#45;merlin.py</text>
<text xml:space="preserve" text-anchor="middle" x="791.84" y="-39.03" font-family="Times,serif" font-size="14.00">Methods: 0</text>
<text xml:space="preserve" text-anchor="middle" x="791.84" y="-22.53" font-family="Times,serif" font-size="14.00">Attributes: 0</text>
</g>
<!-- CamV33Mixin&#45;&gt;MerlinDetectorCam -->
<g id="edge2" class="edge">
<title>CamV33Mixin&#45;&gt;MerlinDetectorCam</title>
<path fill="none" stroke="black" d="M1021.88,-212.16C985.91,-187.32 923.05,-143.92 872.12,-108.76"/>
<polygon fill="black" stroke="black" points="874.23,-105.96 864.01,-103.15 870.25,-111.72 874.23,-105.96"/>
</g>
<!-- AndorCam -->
<g id="node4" class="node">
<title>AndorCam</title>
<ellipse fill="none" stroke="black" cx="1309.84" cy="-52.33" rx="222.39" ry="52.33"/>
<text xml:space="preserve" text-anchor="middle" x="1309.84" y="-72.03" font-family="Times,serif" font-size="14.00">AndorCam</text>
<text xml:space="preserve" text-anchor="middle" x="1309.84" y="-55.53" font-family="Times,serif" font-size="14.00">File: ./fxi&#45;profile&#45;collection/startup/10&#45;area&#45;detector.py</text>
<text xml:space="preserve" text-anchor="middle" x="1309.84" y="-39.03" font-family="Times,serif" font-size="14.00">Methods: 2</text>
<text xml:space="preserve" text-anchor="middle" x="1309.84" y="-22.53" font-family="Times,serif" font-size="14.00">Attributes: 1</text>
</g>
<!-- CamV33Mixin&#45;&gt;AndorCam -->
<g id="edge3" class="edge">
<title>CamV33Mixin&#45;&gt;AndorCam</title>
<path fill="none" stroke="black" d="M1079.8,-212.16C1115.77,-187.32 1178.63,-143.92 1229.56,-108.76"/>
<polygon fill="black" stroke="black" points="1231.43,-111.72 1237.67,-103.15 1227.46,-105.96 1231.43,-111.72"/>
</g>
<!-- KinetixCam -->
<g id="node5" class="node">
<title>KinetixCam</title>
<ellipse fill="none" stroke="black" cx="1826.84" cy="-52.33" rx="222.39" ry="52.33"/>
<text xml:space="preserve" text-anchor="middle" x="1826.84" y="-72.03" font-family="Times,serif" font-size="14.00">KinetixCam</text>
<text xml:space="preserve" text-anchor="middle" x="1826.84" y="-55.53" font-family="Times,serif" font-size="14.00">File: ./fxi&#45;profile&#45;collection/startup/10&#45;area&#45;detector.py</text>
<text xml:space="preserve" text-anchor="middle" x="1826.84" y="-39.03" font-family="Times,serif" font-size="14.00">Methods: 2</text>
<text xml:space="preserve" text-anchor="middle" x="1826.84" y="-22.53" font-family="Times,serif" font-size="14.00">Attributes: 9</text>
</g>
<!-- CamV33Mixin&#45;&gt;KinetixCam -->
<g id="edge4" class="edge">
<title>CamV33Mixin&#45;&gt;KinetixCam</title>
<path fill="none" stroke="black" d="M1100.86,-220.62C1211.34,-195.17 1480.43,-133.15 1658.14,-92.2"/>
<polygon fill="black" stroke="black" points="1658.75,-95.65 1667.7,-90 1657.17,-88.83 1658.75,-95.65"/>
</g>
</g>
</svg>
