<?xml version="1.0" encoding="UTF-8" standalone="no"?>
<!DOCTYPE svg PUBLIC "-//W3C//DTD SVG 1.1//EN"
 "http://www.w3.org/Graphics/SVG/1.1/DTD/svg11.dtd">
<!-- Generated by graphviz version 14.0.0 (20250921.2048)
 -->
<!-- Pages: 1 -->
<svg width="5107pt" height="262pt"
 viewBox="0.00 0.00 5107.00 262.00" xmlns="http://www.w3.org/2000/svg" xmlns:xlink="http://www.w3.org/1999/xlink">
<g id="graph0" class="graph" transform="scale(1 1) rotate(0) translate(4 257.65)">
<polygon fill="white" stroke="none" points="-4,4 -4,-257.65 5102.65,-257.65 5102.65,4 -4,4"/>
<!-- CapillaryHolder -->
<g id="node1" class="node">
<title>CapillaryHolder</title>
<polygon fill="lightblue" stroke="lightblue" points="2473.11,-253.65 2369.36,-253.65 2369.36,-212.65 2473.11,-212.65 2473.11,-253.65"/>
<text xml:space="preserve" text-anchor="middle" x="2421.23" y="-236.35" font-family="Times,serif" font-size="14.00">CapillaryHolder</text>
<text xml:space="preserve" text-anchor="middle" x="2421.23" y="-219.85" font-family="Times,serif" font-size="14.00">(Parent Class)</text>
</g>
<!-- CapillaryHolderThreeRows -->
<g id="node2" class="node">
<title>CapillaryHolderThreeRows</title>
<ellipse fill="none" stroke="black" cx="237.23" cy="-52.33" rx="237.23" ry="52.33"/>
<text xml:space="preserve" text-anchor="middle" x="237.23" y="-72.03" font-family="Times,serif" font-size="14.00">CapillaryHolderThreeRows</text>
<text xml:space="preserve" text-anchor="middle" x="237.23" y="-55.53" font-family="Times,serif" font-size="14.00">File: ./cms&#45;profile&#45;collection/startup/95&#45;sample&#45;custom.py</text>
<text xml:space="preserve" text-anchor="middle" x="237.23" y="-39.03" font-family="Times,serif" font-size="14.00">Methods: 4</text>
<text xml:space="preserve" text-anchor="middle" x="237.23" y="-22.53" font-family="Times,serif" font-size="14.00">Attributes: 5</text>
</g>
<!-- CapillaryHolder&#45;&gt;CapillaryHolderThreeRows -->
<g id="edge1" class="edge">
<title>CapillaryHolder&#45;&gt;CapillaryHolderThreeRows</title>
<path fill="none" stroke="black" d="M2368.95,-230.95C2144.89,-225.31 1243.77,-197.74 510.23,-104.65 480.94,-100.93 450.04,-96.06 419.98,-90.79"/>
<polygon fill="black" stroke="black" points="420.9,-87.4 410.44,-89.1 419.67,-94.29 420.9,-87.4"/>
</g>
<!-- CapillaryHolderHeated -->
<g id="node3" class="node">
<title>CapillaryHolderHeated</title>
<ellipse fill="none" stroke="black" cx="783.23" cy="-52.33" rx="237.23" ry="52.33"/>
<text xml:space="preserve" text-anchor="middle" x="783.23" y="-72.03" font-family="Times,serif" font-size="14.00">CapillaryHolderHeated</text>
<text xml:space="preserve" text-anchor="middle" x="783.23" y="-55.53" font-family="Times,serif" font-size="14.00">File: ./cms&#45;profile&#45;collection/startup/95&#45;sample&#45;custom.py</text>
<text xml:space="preserve" text-anchor="middle" x="783.23" y="-39.03" font-family="Times,serif" font-size="14.00">Methods: 2</text>
<text xml:space="preserve" text-anchor="middle" x="783.23" y="-22.53" font-family="Times,serif" font-size="14.00">Attributes: 0</text>
</g>
<!-- CapillaryHolder&#45;&gt;CapillaryHolderHeated -->
<g id="edge2" class="edge">
<title>CapillaryHolder&#45;&gt;CapillaryHolderHeated</title>
<path fill="none" stroke="black" d="M2368.96,-229.02C2187.09,-217.76 1565.34,-176.13 1056.23,-104.65 1027.54,-100.62 997.28,-95.66 967.77,-90.42"/>
<polygon fill="black" stroke="black" points="968.45,-86.99 957.99,-88.67 967.22,-93.88 968.45,-86.99"/>
</g>
<!-- PaloniThermalStage -->
<g id="node4" class="node">
<title>PaloniThermalStage</title>
<ellipse fill="none" stroke="black" cx="1329.23" cy="-52.33" rx="237.23" ry="52.33"/>
<text xml:space="preserve" text-anchor="middle" x="1329.23" y="-72.03" font-family="Times,serif" font-size="14.00">PaloniThermalStage</text>
<text xml:space="preserve" text-anchor="middle" x="1329.23" y="-55.53" font-family="Times,serif" font-size="14.00">File: ./cms&#45;profile&#45;collection/startup/95&#45;sample&#45;custom.py</text>
<text xml:space="preserve" text-anchor="middle" x="1329.23" y="-39.03" font-family="Times,serif" font-size="14.00">Methods: 5</text>
<text xml:space="preserve" text-anchor="middle" x="1329.23" y="-22.53" font-family="Times,serif" font-size="14.00">Attributes: 5</text>
</g>
<!-- CapillaryHolder&#45;&gt;PaloniThermalStage -->
<g id="edge3" class="edge">
<title>CapillaryHolder&#45;&gt;PaloniThermalStage</title>
<path fill="none" stroke="black" d="M2368.92,-224.59C2238.99,-205.68 1891.2,-154.3 1602.23,-104.65 1574.86,-99.95 1545.98,-94.76 1517.66,-89.55"/>
<polygon fill="black" stroke="black" points="1518.37,-86.12 1507.9,-87.75 1517.1,-93.01 1518.37,-86.12"/>
</g>
<!-- DSCStage -->
<g id="node5" class="node">
<title>DSCStage</title>
<ellipse fill="none" stroke="black" cx="1875.23" cy="-52.33" rx="237.23" ry="52.33"/>
<text xml:space="preserve" text-anchor="middle" x="1875.23" y="-72.03" font-family="Times,serif" font-size="14.00">DSCStage</text>
<text xml:space="preserve" text-anchor="middle" x="1875.23" y="-55.53" font-family="Times,serif" font-size="14.00">File: ./cms&#45;profile&#45;collection/startup/95&#45;sample&#45;custom.py</text>
<text xml:space="preserve" text-anchor="middle" x="1875.23" y="-39.03" font-family="Times,serif" font-size="14.00">Methods: 4</text>
<text xml:space="preserve" text-anchor="middle" x="1875.23" y="-22.53" font-family="Times,serif" font-size="14.00">Attributes: 4</text>
</g>
<!-- CapillaryHolder&#45;&gt;DSCStage -->
<g id="edge4" class="edge">
<title>CapillaryHolder&#45;&gt;DSCStage</title>
<path fill="none" stroke="black" d="M2368.88,-215.01C2288.64,-188.73 2132.45,-137.57 2017.16,-99.81"/>
<polygon fill="black" stroke="black" points="2018.51,-96.57 2007.92,-96.78 2016.33,-103.22 2018.51,-96.57"/>
</g>
<!-- CapillaryHolderThermal -->
<g id="node6" class="node">
<title>CapillaryHolderThermal</title>
<ellipse fill="none" stroke="black" cx="2421.23" cy="-52.33" rx="237.23" ry="52.33"/>
<text xml:space="preserve" text-anchor="middle" x="2421.23" y="-72.03" font-family="Times,serif" font-size="14.00">CapillaryHolderThermal</text>
<text xml:space="preserve" text-anchor="middle" x="2421.23" y="-55.53" font-family="Times,serif" font-size="14.00">File: ./cms&#45;profile&#45;collection/startup/95&#45;sample&#45;custom.py</text>
<text xml:space="preserve" text-anchor="middle" x="2421.23" y="-39.03" font-family="Times,serif" font-size="14.00">Methods: 4</text>
<text xml:space="preserve" text-anchor="middle" x="2421.23" y="-22.53" font-family="Times,serif" font-size="14.00">Attributes: 3</text>
</g>
<!-- CapillaryHolder&#45;&gt;CapillaryHolderThermal -->
<g id="edge5" class="edge">
<title>CapillaryHolder&#45;&gt;CapillaryHolderThermal</title>
<path fill="none" stroke="black" d="M2421.23,-212.33C2421.23,-189.21 2421.23,-149.84 2421.23,-116.06"/>
<polygon fill="black" stroke="black" points="2424.73,-116.37 2421.23,-106.37 2417.73,-116.37 2424.73,-116.37"/>
</g>
<!-- HumidityTransmissionStage -->
<g id="node7" class="node">
<title>HumidityTransmissionStage</title>
<ellipse fill="none" stroke="black" cx="2967.23" cy="-52.33" rx="237.23" ry="52.33"/>
<text xml:space="preserve" text-anchor="middle" x="2967.23" y="-72.03" font-family="Times,serif" font-size="14.00">HumidityTransmissionStage</text>
<text xml:space="preserve" text-anchor="middle" x="2967.23" y="-55.53" font-family="Times,serif" font-size="14.00">File: ./cms&#45;profile&#45;collection/startup/95&#45;sample&#45;custom.py</text>
<text xml:space="preserve" text-anchor="middle" x="2967.23" y="-39.03" font-family="Times,serif" font-size="14.00">Methods: 3</text>
<text xml:space="preserve" text-anchor="middle" x="2967.23" y="-22.53" font-family="Times,serif" font-size="14.00">Attributes: 2</text>
</g>
<!-- CapillaryHolder&#45;&gt;HumidityTransmissionStage -->
<g id="edge6" class="edge">
<title>CapillaryHolder&#45;&gt;HumidityTransmissionStage</title>
<path fill="none" stroke="black" d="M2473.59,-215.01C2553.83,-188.73 2710.02,-137.57 2825.31,-99.81"/>
<polygon fill="black" stroke="black" points="2826.13,-103.22 2834.55,-96.78 2823.96,-96.57 2826.13,-103.22"/>
</g>
<!-- InstecStage60 -->
<g id="node8" class="node">
<title>InstecStage60</title>
<ellipse fill="none" stroke="black" cx="3513.23" cy="-52.33" rx="237.23" ry="52.33"/>
<text xml:space="preserve" text-anchor="middle" x="3513.23" y="-72.03" font-family="Times,serif" font-size="14.00">InstecStage60</text>
<text xml:space="preserve" text-anchor="middle" x="3513.23" y="-55.53" font-family="Times,serif" font-size="14.00">File: ./cms&#45;profile&#45;collection/startup/95&#45;sample&#45;custom.py</text>
<text xml:space="preserve" text-anchor="middle" x="3513.23" y="-39.03" font-family="Times,serif" font-size="14.00">Methods: 4</text>
<text xml:space="preserve" text-anchor="middle" x="3513.23" y="-22.53" font-family="Times,serif" font-size="14.00">Attributes: 12</text>
</g>
<!-- CapillaryHolder&#45;&gt;InstecStage60 -->
<g id="edge7" class="edge">
<title>CapillaryHolder&#45;&gt;InstecStage60</title>
<path fill="none" stroke="black" d="M2473.55,-224.59C2603.48,-205.68 2951.27,-154.3 3240.23,-104.65 3267.61,-99.95 3296.49,-94.76 3324.81,-89.55"/>
<polygon fill="black" stroke="black" points="3325.37,-93.01 3334.57,-87.75 3324.1,-86.12 3325.37,-93.01"/>
</g>
<!-- CapillaryHoldeCustom -->
<g id="node9" class="node">
<title>CapillaryHoldeCustom</title>
<ellipse fill="none" stroke="black" cx="4114.23" cy="-52.33" rx="291.33" ry="52.33"/>
<text xml:space="preserve" text-anchor="middle" x="4114.23" y="-72.03" font-family="Times,serif" font-size="14.00">CapillaryHoldeCustom</text>
<text xml:space="preserve" text-anchor="middle" x="4114.23" y="-55.53" font-family="Times,serif" font-size="14.00">File: ./cms&#45;profile&#45;collection/startup/user_collection/user_InstecStage.py</text>
<text xml:space="preserve" text-anchor="middle" x="4114.23" y="-39.03" font-family="Times,serif" font-size="14.00">Methods: 12</text>
<text xml:space="preserve" text-anchor="middle" x="4114.23" y="-22.53" font-family="Times,serif" font-size="14.00">Attributes: 19</text>
</g>
<!-- CapillaryHolder&#45;&gt;CapillaryHoldeCustom -->
<g id="edge8" class="edge">
<title>CapillaryHolder&#45;&gt;CapillaryHoldeCustom</title>
<path fill="none" stroke="black" d="M2473.43,-228.45C2655.05,-215.32 3276.09,-168.33 3786.23,-104.65 3820.04,-100.43 3855.72,-95.43 3890.6,-90.22"/>
<polygon fill="black" stroke="black" points="3891.03,-93.69 3900.4,-88.75 3889.99,-86.77 3891.03,-93.69"/>
</g>
<!-- CapillaryHolderCustom -->
<g id="node10" class="node">
<title>CapillaryHolderCustom</title>
<ellipse fill="none" stroke="black" cx="4788.23" cy="-52.33" rx="310.42" ry="52.33"/>
<text xml:space="preserve" text-anchor="middle" x="4788.23" y="-72.03" font-family="Times,serif" font-size="14.00">CapillaryHolderCustom</text>
<text xml:space="preserve" text-anchor="middle" x="4788.23" y="-55.53" font-family="Times,serif" font-size="14.00">File: ./cms&#45;profile&#45;collection/startup/user_collection/user_LinkamThermal.py</text>
<text xml:space="preserve" text-anchor="middle" x="4788.23" y="-39.03" font-family="Times,serif" font-size="14.00">Methods: 3</text>
<text xml:space="preserve" text-anchor="middle" x="4788.23" y="-22.53" font-family="Times,serif" font-size="14.00">Attributes: 0</text>
</g>
<!-- CapillaryHolder&#45;&gt;CapillaryHolderCustom -->
<g id="edge9" class="edge">
<title>CapillaryHolder&#45;&gt;CapillaryHolderCustom</title>
<path fill="none" stroke="black" d="M2473.26,-230.47C2704.33,-222.68 3660.63,-186.87 4441.23,-104.65 4477.89,-100.79 4516.61,-95.89 4554.37,-90.65"/>
<polygon fill="black" stroke="black" points="4554.6,-94.15 4564.02,-89.3 4553.63,-87.22 4554.6,-94.15"/>
</g>
</g>
</svg>
