<?xml version="1.0" encoding="UTF-8" standalone="no"?>
<!DOCTYPE svg PUBLIC "-//W3C//DTD SVG 1.1//EN"
 "http://www.w3.org/Graphics/SVG/1.1/DTD/svg11.dtd">
<!-- Generated by graphviz version 14.0.0 (20250921.2048)
 -->
<!-- Pages: 1 -->
<svg width="3137pt" height="262pt"
 viewBox="0.00 0.00 3137.00 262.00" xmlns="http://www.w3.org/2000/svg" xmlns:xlink="http://www.w3.org/1999/xlink">
<g id="graph0" class="graph" transform="scale(1 1) rotate(0) translate(4 257.65)">
<polygon fill="white" stroke="none" points="-4,4 -4,-257.65 3133.48,-257.65 3133.48,4 -4,4"/>
<!-- ContinuousAcquisitionTrigger -->
<g id="node1" class="node">
<title>ContinuousAcquisitionTrigger</title>
<polygon fill="lightblue" stroke="lightblue" points="1689.79,-253.65 1508.04,-253.65 1508.04,-212.65 1689.79,-212.65 1689.79,-253.65"/>
<text xml:space="preserve" text-anchor="middle" x="1598.92" y="-236.35" font-family="Times,serif" font-size="14.00">ContinuousAcquisitionTrigger</text>
<text xml:space="preserve" text-anchor="middle" x="1598.92" y="-219.85" font-family="Times,serif" font-size="14.00">(Parent Class)</text>
</g>
<!-- PerkinElmerContinuous -->
<g id="node2" class="node">
<title>PerkinElmerContinuous</title>
<ellipse fill="none" stroke="black" cx="222.92" cy="-52.33" rx="222.92" ry="52.33"/>
<text xml:space="preserve" text-anchor="middle" x="222.92" y="-72.03" font-family="Times,serif" font-size="14.00">PerkinElmerContinuous</text>
<text xml:space="preserve" text-anchor="middle" x="222.92" y="-55.53" font-family="Times,serif" font-size="14.00">File: ./xpd&#45;profile&#45;collection/startup/80&#45;areadetector.py</text>
<text xml:space="preserve" text-anchor="middle" x="222.92" y="-39.03" font-family="Times,serif" font-size="14.00">Methods: 0</text>
<text xml:space="preserve" text-anchor="middle" x="222.92" y="-22.53" font-family="Times,serif" font-size="14.00">Attributes: 0</text>
</g>
<!-- ContinuousAcquisitionTrigger&#45;&gt;PerkinElmerContinuous -->
<g id="edge1" class="edge">
<title>ContinuousAcquisitionTrigger&#45;&gt;PerkinElmerContinuous</title>
<path fill="none" stroke="black" d="M1507.72,-224.3C1316.76,-207.29 861.11,-163.76 481.92,-104.65 454.83,-100.43 426.26,-95.38 398.38,-90.12"/>
<polygon fill="black" stroke="black" points="399.28,-86.72 388.8,-88.29 397.97,-93.6 399.28,-86.72"/>
</g>
<!-- ContinuousAxisCam -->
<g id="node3" class="node">
<title>ContinuousAxisCam</title>
<ellipse fill="none" stroke="black" cx="777.92" cy="-52.33" rx="260.04" ry="52.33"/>
<text xml:space="preserve" text-anchor="middle" x="777.92" y="-72.03" font-family="Times,serif" font-size="14.00">ContinuousAxisCam</text>
<text xml:space="preserve" text-anchor="middle" x="777.92" y="-55.53" font-family="Times,serif" font-size="14.00">File: ./csx&#45;profile&#45;collection/startup/csx1/devices/areadetector.py</text>
<text xml:space="preserve" text-anchor="middle" x="777.92" y="-39.03" font-family="Times,serif" font-size="14.00">Methods: 6</text>
<text xml:space="preserve" text-anchor="middle" x="777.92" y="-22.53" font-family="Times,serif" font-size="14.00">Attributes: 12</text>
</g>
<!-- ContinuousAcquisitionTrigger&#45;&gt;ContinuousAxisCam -->
<g id="edge2" class="edge">
<title>ContinuousAcquisitionTrigger&#45;&gt;ContinuousAxisCam</title>
<path fill="none" stroke="black" d="M1507.92,-212.33C1377.29,-183.88 1133.71,-130.82 964,-93.86"/>
<polygon fill="black" stroke="black" points="964.92,-90.48 954.41,-91.77 963.43,-97.32 964.92,-90.48"/>
</g>
<!-- PerkinElmerContinuous1 -->
<g id="node4" class="node">
<title>PerkinElmerContinuous1</title>
<ellipse fill="none" stroke="black" cx="1336.92" cy="-52.33" rx="226.63" ry="52.33"/>
<text xml:space="preserve" text-anchor="middle" x="1336.92" y="-72.03" font-family="Times,serif" font-size="14.00">PerkinElmerContinuous1</text>
<text xml:space="preserve" text-anchor="middle" x="1336.92" y="-55.53" font-family="Times,serif" font-size="14.00">File: ./pdf&#45;profile&#45;collection/startup/80&#45;areadetector2.py</text>
<text xml:space="preserve" text-anchor="middle" x="1336.92" y="-39.03" font-family="Times,serif" font-size="14.00">Methods: 0</text>
<text xml:space="preserve" text-anchor="middle" x="1336.92" y="-22.53" font-family="Times,serif" font-size="14.00">Attributes: 0</text>
</g>
<!-- ContinuousAcquisitionTrigger&#45;&gt;PerkinElmerContinuous1 -->
<g id="edge3" class="edge">
<title>ContinuousAcquisitionTrigger&#45;&gt;PerkinElmerContinuous1</title>
<path fill="none" stroke="black" d="M1569.62,-212.16C1533.23,-187.32 1469.65,-143.92 1418.13,-108.76"/>
<polygon fill="black" stroke="black" points="1420.14,-105.89 1409.91,-103.15 1416.2,-111.68 1420.14,-105.89"/>
</g>
<!-- PerkinElmerContinuous2 -->
<g id="node5" class="node">
<title>PerkinElmerContinuous2</title>
<ellipse fill="none" stroke="black" cx="1861.92" cy="-52.33" rx="226.63" ry="52.33"/>
<text xml:space="preserve" text-anchor="middle" x="1861.92" y="-72.03" font-family="Times,serif" font-size="14.00">PerkinElmerContinuous2</text>
<text xml:space="preserve" text-anchor="middle" x="1861.92" y="-55.53" font-family="Times,serif" font-size="14.00">File: ./pdf&#45;profile&#45;collection/startup/80&#45;areadetector2.py</text>
<text xml:space="preserve" text-anchor="middle" x="1861.92" y="-39.03" font-family="Times,serif" font-size="14.00">Methods: 0</text>
<text xml:space="preserve" text-anchor="middle" x="1861.92" y="-22.53" font-family="Times,serif" font-size="14.00">Attributes: 0</text>
</g>
<!-- ContinuousAcquisitionTrigger&#45;&gt;PerkinElmerContinuous2 -->
<g id="edge4" class="edge">
<title>ContinuousAcquisitionTrigger&#45;&gt;PerkinElmerContinuous2</title>
<path fill="none" stroke="black" d="M1628.32,-212.16C1664.85,-187.32 1728.68,-143.92 1780.39,-108.76"/>
<polygon fill="black" stroke="black" points="1782.34,-111.66 1788.65,-103.15 1778.41,-105.87 1782.34,-111.66"/>
</g>
<!-- DEX_PerkinElmerContinuous -->
<g id="node6" class="node">
<title>DEX_PerkinElmerContinuous</title>
<ellipse fill="none" stroke="black" cx="2383.92" cy="-52.33" rx="222.92" ry="52.33"/>
<text xml:space="preserve" text-anchor="middle" x="2383.92" y="-72.03" font-family="Times,serif" font-size="14.00">DEX_PerkinElmerContinuous</text>
<text xml:space="preserve" text-anchor="middle" x="2383.92" y="-55.53" font-family="Times,serif" font-size="14.00">File: ./xpd&#45;profile&#45;collection/startup/80&#45;areadetector.py</text>
<text xml:space="preserve" text-anchor="middle" x="2383.92" y="-39.03" font-family="Times,serif" font-size="14.00">Methods: 0</text>
<text xml:space="preserve" text-anchor="middle" x="2383.92" y="-22.53" font-family="Times,serif" font-size="14.00">Attributes: 0</text>
</g>
<!-- ContinuousAcquisitionTrigger&#45;&gt;DEX_PerkinElmerContinuous -->
<g id="edge5" class="edge">
<title>ContinuousAcquisitionTrigger&#45;&gt;DEX_PerkinElmerContinuous</title>
<path fill="none" stroke="black" d="M1686.68,-212.16C1813.88,-183.18 2051.97,-128.94 2214.18,-91.99"/>
<polygon fill="black" stroke="black" points="2214.79,-95.44 2223.76,-89.81 2213.24,-88.62 2214.79,-95.44"/>
</g>
<!-- HEXPerkinElmer -->
<g id="node7" class="node">
<title>HEXPerkinElmer</title>
<ellipse fill="none" stroke="black" cx="2903.92" cy="-52.33" rx="225.57" ry="52.33"/>
<text xml:space="preserve" text-anchor="middle" x="2903.92" y="-72.03" font-family="Times,serif" font-size="14.00">HEXPerkinElmer</text>
<text xml:space="preserve" text-anchor="middle" x="2903.92" y="-55.53" font-family="Times,serif" font-size="14.00">File: ./hex&#45;profile&#45;collection/startup/11&#45;perkin&#45;elmer.py</text>
<text xml:space="preserve" text-anchor="middle" x="2903.92" y="-39.03" font-family="Times,serif" font-size="14.00">Methods: 0</text>
<text xml:space="preserve" text-anchor="middle" x="2903.92" y="-22.53" font-family="Times,serif" font-size="14.00">Attributes: 7</text>
</g>
<!-- ContinuousAcquisitionTrigger&#45;&gt;HEXPerkinElmer -->
<g id="edge6" class="edge">
<title>ContinuousAcquisitionTrigger&#45;&gt;HEXPerkinElmer</title>
<path fill="none" stroke="black" d="M1690,-223.28C1871.76,-205.07 2292.18,-160.48 2642.92,-104.65 2669.89,-100.36 2698.33,-95.31 2726.13,-90.08"/>
<polygon fill="black" stroke="black" points="2726.49,-93.57 2735.67,-88.27 2725.19,-86.7 2726.49,-93.57"/>
</g>
</g>
</svg>
