<?xml version="1.0" encoding="UTF-8" standalone="no"?>
<!DOCTYPE svg PUBLIC "-//W3C//DTD SVG 1.1//EN"
 "http://www.w3.org/Graphics/SVG/1.1/DTD/svg11.dtd">
<!-- Generated by graphviz version 14.0.0 (20250921.2048)
 -->
<!-- Pages: 1 -->
<svg width="2116pt" height="262pt"
 viewBox="0.00 0.00 2116.00 262.00" xmlns="http://www.w3.org/2000/svg" xmlns:xlink="http://www.w3.org/1999/xlink">
<g id="graph0" class="graph" transform="scale(1 1) rotate(0) translate(4 257.65)">
<polygon fill="white" stroke="none" points="-4,4 -4,-257.65 2111.83,-257.65 2111.83,4 -4,4"/>
<!-- CoordinateSystem -->
<g id="node1" class="node">
<title>CoordinateSystem</title>
<polygon fill="lightblue" stroke="lightblue" points="1094.48,-253.65 977.98,-253.65 977.98,-212.65 1094.48,-212.65 1094.48,-253.65"/>
<text xml:space="preserve" text-anchor="middle" x="1036.23" y="-236.35" font-family="Times,serif" font-size="14.00">CoordinateSystem</text>
<text xml:space="preserve" text-anchor="middle" x="1036.23" y="-219.85" font-family="Times,serif" font-size="14.00">(Parent Class)</text>
</g>
<!-- ModularTable_Generic -->
<g id="node2" class="node">
<title>ModularTable_Generic</title>
<ellipse fill="none" stroke="black" cx="237.23" cy="-52.33" rx="237.23" ry="52.33"/>
<text xml:space="preserve" text-anchor="middle" x="237.23" y="-72.03" font-family="Times,serif" font-size="14.00">ModularTable_Generic</text>
<text xml:space="preserve" text-anchor="middle" x="237.23" y="-55.53" font-family="Times,serif" font-size="14.00">File: ./cms&#45;profile&#45;collection/startup/991&#45;modular&#45;table.py</text>
<text xml:space="preserve" text-anchor="middle" x="237.23" y="-39.03" font-family="Times,serif" font-size="14.00">Methods: 13</text>
<text xml:space="preserve" text-anchor="middle" x="237.23" y="-22.53" font-family="Times,serif" font-size="14.00">Attributes: 17</text>
</g>
<!-- CoordinateSystem&#45;&gt;ModularTable_Generic -->
<g id="edge1" class="edge">
<title>CoordinateSystem&#45;&gt;ModularTable_Generic</title>
<path fill="none" stroke="black" d="M977.81,-219.07C860.64,-192.85 592.88,-132.92 413.52,-92.78"/>
<polygon fill="black" stroke="black" points="414.38,-89.39 403.85,-90.62 412.85,-96.22 414.38,-89.39"/>
</g>
<!-- Queue -->
<g id="node3" class="node">
<title>Queue</title>
<ellipse fill="none" stroke="black" cx="768.23" cy="-52.33" rx="221.85" ry="52.33"/>
<text xml:space="preserve" text-anchor="middle" x="768.23" y="-72.03" font-family="Times,serif" font-size="14.00">Queue</text>
<text xml:space="preserve" text-anchor="middle" x="768.23" y="-55.53" font-family="Times,serif" font-size="14.00">File: ./cms&#45;profile&#45;collection/startup/96&#45;automation.py</text>
<text xml:space="preserve" text-anchor="middle" x="768.23" y="-39.03" font-family="Times,serif" font-size="14.00">Methods: 24</text>
<text xml:space="preserve" text-anchor="middle" x="768.23" y="-22.53" font-family="Times,serif" font-size="14.00">Attributes: 36</text>
</g>
<!-- CoordinateSystem&#45;&gt;Queue -->
<g id="edge2" class="edge">
<title>CoordinateSystem&#45;&gt;Queue</title>
<path fill="none" stroke="black" d="M1006.27,-212.16C968.9,-187.23 903.51,-143.59 850.71,-108.36"/>
<polygon fill="black" stroke="black" points="852.86,-105.59 842.6,-102.95 848.98,-111.41 852.86,-105.59"/>
</g>
<!-- Sample_Generic -->
<g id="node4" class="node">
<title>Sample_Generic</title>
<ellipse fill="none" stroke="black" cx="1305.23" cy="-52.33" rx="243.6" ry="52.33"/>
<text xml:space="preserve" text-anchor="middle" x="1305.23" y="-72.03" font-family="Times,serif" font-size="14.00">Sample_Generic</text>
<text xml:space="preserve" text-anchor="middle" x="1305.23" y="-55.53" font-family="Times,serif" font-size="14.00">File: ./opls&#45;profile&#45;collection/startup/old/990&#45;sample_test.py</text>
<text xml:space="preserve" text-anchor="middle" x="1305.23" y="-39.03" font-family="Times,serif" font-size="14.00">Methods: 49</text>
<text xml:space="preserve" text-anchor="middle" x="1305.23" y="-22.53" font-family="Times,serif" font-size="14.00">Attributes: 55</text>
</g>
<!-- CoordinateSystem&#45;&gt;Sample_Generic -->
<g id="edge3" class="edge">
<title>CoordinateSystem&#45;&gt;Sample_Generic</title>
<path fill="none" stroke="black" d="M1066.31,-212.16C1103.69,-187.31 1169,-143.89 1221.91,-108.72"/>
<polygon fill="black" stroke="black" points="1223.64,-111.77 1230.03,-103.32 1219.77,-105.94 1223.64,-111.77"/>
</g>
<!-- Stage -->
<g id="node5" class="node">
<title>Stage</title>
<ellipse fill="none" stroke="black" cx="1864.23" cy="-52.33" rx="243.6" ry="52.33"/>
<text xml:space="preserve" text-anchor="middle" x="1864.23" y="-72.03" font-family="Times,serif" font-size="14.00">Stage</text>
<text xml:space="preserve" text-anchor="middle" x="1864.23" y="-55.53" font-family="Times,serif" font-size="14.00">File: ./opls&#45;profile&#45;collection/startup/old/990&#45;sample_test.py</text>
<text xml:space="preserve" text-anchor="middle" x="1864.23" y="-39.03" font-family="Times,serif" font-size="14.00">Methods: 0</text>
<text xml:space="preserve" text-anchor="middle" x="1864.23" y="-22.53" font-family="Times,serif" font-size="14.00">Attributes: 0</text>
</g>
<!-- CoordinateSystem&#45;&gt;Stage -->
<g id="edge4" class="edge">
<title>CoordinateSystem&#45;&gt;Stage</title>
<path fill="none" stroke="black" d="M1094.79,-219.51C1215.47,-193.44 1496.19,-132.81 1683.09,-92.45"/>
<polygon fill="black" stroke="black" points="1683.63,-95.91 1692.66,-90.38 1682.15,-89.07 1683.63,-95.91"/>
</g>
</g>
</svg>
