<?xml version="1.0" encoding="UTF-8" standalone="no"?>
<!DOCTYPE svg PUBLIC "-//W3C//DTD SVG 1.1//EN"
 "http://www.w3.org/Graphics/SVG/1.1/DTD/svg11.dtd">
<!-- Generated by graphviz version 14.0.0 (20250921.2048)
 -->
<!-- Pages: 1 -->
<svg width="1351pt" height="262pt"
 viewBox="0.00 0.00 1351.00 262.00" xmlns="http://www.w3.org/2000/svg" xmlns:xlink="http://www.w3.org/1999/xlink">
<g id="graph0" class="graph" transform="scale(1 1) rotate(0) translate(4 257.65)">
<polygon fill="white" stroke="none" points="-4,4 -4,-257.65 1346.89,-257.65 1346.89,4 -4,4"/>
<!-- DeadbandMixin -->
<g id="node1" class="node">
<title>DeadbandMixin</title>
<polygon fill="lightblue" stroke="lightblue" points="760.76,-253.65 656.26,-253.65 656.26,-212.65 760.76,-212.65 760.76,-253.65"/>
<text xml:space="preserve" text-anchor="middle" x="708.51" y="-236.35" font-family="Times,serif" font-size="14.00">DeadbandMixin</text>
<text xml:space="preserve" text-anchor="middle" x="708.51" y="-219.85" font-family="Times,serif" font-size="14.00">(Parent Class)</text>
</g>
<!-- DeadbandEpicsMotor -->
<g id="node2" class="node">
<title>DeadbandEpicsMotor</title>
<ellipse fill="none" stroke="black" cx="224.51" cy="-52.33" rx="224.51" ry="52.33"/>
<text xml:space="preserve" text-anchor="middle" x="224.51" y="-72.03" font-family="Times,serif" font-size="14.00">DeadbandEpicsMotor</text>
<text xml:space="preserve" text-anchor="middle" x="224.51" y="-55.53" font-family="Times,serif" font-size="14.00">File: ./bmm&#45;profile&#45;collection/startup/BMM/motors.py</text>
<text xml:space="preserve" text-anchor="middle" x="224.51" y="-39.03" font-family="Times,serif" font-size="14.00">Methods: 0</text>
<text xml:space="preserve" text-anchor="middle" x="224.51" y="-22.53" font-family="Times,serif" font-size="14.00">Attributes: 0</text>
</g>
<!-- DeadbandMixin&#45;&gt;DeadbandEpicsMotor -->
<g id="edge1" class="edge">
<title>DeadbandMixin&#45;&gt;DeadbandEpicsMotor</title>
<path fill="none" stroke="black" d="M655.79,-212.67C583.81,-186.08 452.43,-137.54 353.52,-100.99"/>
<polygon fill="black" stroke="black" points="354.85,-97.75 344.26,-97.57 352.43,-104.32 354.85,-97.75"/>
</g>
<!-- UgapPositioner -->
<g id="node3" class="node">
<title>UgapPositioner</title>
<ellipse fill="none" stroke="black" cx="708.51" cy="-52.33" rx="187.38" ry="52.33"/>
<text xml:space="preserve" text-anchor="middle" x="708.51" y="-72.03" font-family="Times,serif" font-size="14.00">UgapPositioner</text>
<text xml:space="preserve" text-anchor="middle" x="708.51" y="-55.53" font-family="Times,serif" font-size="14.00">File: ./six&#45;profile&#45;collection/startup/04&#45;epu.py</text>
<text xml:space="preserve" text-anchor="middle" x="708.51" y="-39.03" font-family="Times,serif" font-size="14.00">Methods: 1</text>
<text xml:space="preserve" text-anchor="middle" x="708.51" y="-22.53" font-family="Times,serif" font-size="14.00">Attributes: 9</text>
</g>
<!-- DeadbandMixin&#45;&gt;UgapPositioner -->
<g id="edge2" class="edge">
<title>DeadbandMixin&#45;&gt;UgapPositioner</title>
<path fill="none" stroke="black" d="M708.51,-212.33C708.51,-189.21 708.51,-149.84 708.51,-116.06"/>
<polygon fill="black" stroke="black" points="712.01,-116.37 708.51,-106.37 705.01,-116.37 712.01,-116.37"/>
</g>
<!-- UphasePositioner -->
<g id="node4" class="node">
<title>UphasePositioner</title>
<ellipse fill="none" stroke="black" cx="1155.51" cy="-52.33" rx="187.38" ry="52.33"/>
<text xml:space="preserve" text-anchor="middle" x="1155.51" y="-72.03" font-family="Times,serif" font-size="14.00">UphasePositioner</text>
<text xml:space="preserve" text-anchor="middle" x="1155.51" y="-55.53" font-family="Times,serif" font-size="14.00">File: ./six&#45;profile&#45;collection/startup/04&#45;epu.py</text>
<text xml:space="preserve" text-anchor="middle" x="1155.51" y="-39.03" font-family="Times,serif" font-size="14.00">Methods: 1</text>
<text xml:space="preserve" text-anchor="middle" x="1155.51" y="-22.53" font-family="Times,serif" font-size="14.00">Attributes: 9</text>
</g>
<!-- DeadbandMixin&#45;&gt;UphasePositioner -->
<g id="edge3" class="edge">
<title>DeadbandMixin&#45;&gt;UphasePositioner</title>
<path fill="none" stroke="black" d="M758.48,-212.16C825.76,-185.24 947.51,-136.54 1038.51,-100.13"/>
<polygon fill="black" stroke="black" points="1039.78,-103.39 1047.76,-96.43 1037.18,-96.89 1039.78,-103.39"/>
</g>
</g>
</svg>
