<?xml version="1.0" encoding="UTF-8" standalone="no"?>
<!DOCTYPE svg PUBLIC "-//W3C//DTD SVG 1.1//EN"
 "http://www.w3.org/Graphics/SVG/1.1/DTD/svg11.dtd">
<!-- Generated by graphviz version 14.0.0 (20250921.2048)
 -->
<!-- Pages: 1 -->
<svg width="2590pt" height="262pt"
 viewBox="0.00 0.00 2590.00 262.00" xmlns="http://www.w3.org/2000/svg" xmlns:xlink="http://www.w3.org/1999/xlink">
<g id="graph0" class="graph" transform="scale(1 1) rotate(0) translate(4 257.65)">
<polygon fill="white" stroke="none" points="-4,4 -4,-257.65 2586.15,-257.65 2586.15,4 -4,4"/>
<!-- DerivedSignal -->
<g id="node1" class="node">
<title>DerivedSignal</title>
<polygon fill="lightblue" stroke="lightblue" points="1351.05,-253.65 1257.05,-253.65 1257.05,-212.65 1351.05,-212.65 1351.05,-253.65"/>
<text xml:space="preserve" text-anchor="middle" x="1304.05" y="-236.35" font-family="Times,serif" font-size="14.00">DerivedSignal</text>
<text xml:space="preserve" text-anchor="middle" x="1304.05" y="-219.85" font-family="Times,serif" font-size="14.00">(Parent Class)</text>
</g>
<!-- LSatSetPoint -->
<g id="node2" class="node">
<title>LSatSetPoint</title>
<ellipse fill="none" stroke="black" cx="234.05" cy="-52.33" rx="234.05" ry="52.33"/>
<text xml:space="preserve" text-anchor="middle" x="234.05" y="-72.03" font-family="Times,serif" font-size="14.00">LSatSetPoint</text>
<text xml:space="preserve" text-anchor="middle" x="234.05" y="-55.53" font-family="Times,serif" font-size="14.00">File: ./bmm&#45;profile&#45;collection/startup/BMM/lakeshore.py</text>
<text xml:space="preserve" text-anchor="middle" x="234.05" y="-39.03" font-family="Times,serif" font-size="14.00">Methods: 3</text>
<text xml:space="preserve" text-anchor="middle" x="234.05" y="-22.53" font-family="Times,serif" font-size="14.00">Attributes: 1</text>
</g>
<!-- DerivedSignal&#45;&gt;LSatSetPoint -->
<g id="edge1" class="edge">
<title>DerivedSignal&#45;&gt;LSatSetPoint</title>
<path fill="none" stroke="black" d="M1256.63,-225.1C1132.72,-206.56 789.11,-154.45 504.05,-104.65 476.98,-99.92 448.42,-94.72 420.41,-89.5"/>
<polygon fill="black" stroke="black" points="421.25,-86.1 410.78,-87.7 419.96,-92.98 421.25,-86.1"/>
</g>
<!-- Nanoize -->
<g id="node3" class="node">
<title>Nanoize</title>
<ellipse fill="none" stroke="black" cx="785.05" cy="-52.33" rx="245.19" ry="52.33"/>
<text xml:space="preserve" text-anchor="middle" x="785.05" y="-72.03" font-family="Times,serif" font-size="14.00">Nanoize</text>
<text xml:space="preserve" text-anchor="middle" x="785.05" y="-55.53" font-family="Times,serif" font-size="14.00">File: ./bmm&#45;profile&#45;collection/startup/BMM/electrometer.py</text>
<text xml:space="preserve" text-anchor="middle" x="785.05" y="-39.03" font-family="Times,serif" font-size="14.00">Methods: 2</text>
<text xml:space="preserve" text-anchor="middle" x="785.05" y="-22.53" font-family="Times,serif" font-size="14.00">Attributes: 0</text>
</g>
<!-- DerivedSignal&#45;&gt;Nanoize -->
<g id="edge2" class="edge">
<title>DerivedSignal&#45;&gt;Nanoize</title>
<path fill="none" stroke="black" d="M1256.62,-215.81C1181.89,-190.06 1033.92,-139.08 923.56,-101.05"/>
<polygon fill="black" stroke="black" points="925.03,-97.86 914.44,-97.91 922.75,-104.47 925.03,-97.86"/>
</g>
<!-- AtSetpoint -->
<g id="node4" class="node">
<title>AtSetpoint</title>
<ellipse fill="none" stroke="black" cx="1304.05" cy="-52.33" rx="202.23" ry="52.33"/>
<text xml:space="preserve" text-anchor="middle" x="1304.05" y="-72.03" font-family="Times,serif" font-size="14.00">AtSetpoint</text>
<text xml:space="preserve" text-anchor="middle" x="1304.05" y="-55.53" font-family="Times,serif" font-size="14.00">File: ./pdf&#45;profile&#45;collection/startup/27&#45;linkam.py</text>
<text xml:space="preserve" text-anchor="middle" x="1304.05" y="-39.03" font-family="Times,serif" font-size="14.00">Methods: 3</text>
<text xml:space="preserve" text-anchor="middle" x="1304.05" y="-22.53" font-family="Times,serif" font-size="14.00">Attributes: 1</text>
</g>
<!-- DerivedSignal&#45;&gt;AtSetpoint -->
<g id="edge3" class="edge">
<title>DerivedSignal&#45;&gt;AtSetpoint</title>
<path fill="none" stroke="black" d="M1304.05,-212.33C1304.05,-189.21 1304.05,-149.84 1304.05,-116.06"/>
<polygon fill="black" stroke="black" points="1307.55,-116.37 1304.05,-106.37 1300.55,-116.37 1307.55,-116.37"/>
</g>
<!-- DTCorr -->
<g id="node5" class="node">
<title>DTCorr</title>
<ellipse fill="none" stroke="black" cx="1818.05" cy="-52.33" rx="239.89" ry="52.33"/>
<text xml:space="preserve" text-anchor="middle" x="1818.05" y="-72.03" font-family="Times,serif" font-size="14.00">DTCorr</text>
<text xml:space="preserve" text-anchor="middle" x="1818.05" y="-55.53" font-family="Times,serif" font-size="14.00">File: ./bmm&#45;profile&#45;collection/startup/BMM/attic/struck.py</text>
<text xml:space="preserve" text-anchor="middle" x="1818.05" y="-39.03" font-family="Times,serif" font-size="14.00">Methods: 2</text>
<text xml:space="preserve" text-anchor="middle" x="1818.05" y="-22.53" font-family="Times,serif" font-size="14.00">Attributes: 3</text>
</g>
<!-- DerivedSignal&#45;&gt;DTCorr -->
<g id="edge4" class="edge">
<title>DerivedSignal&#45;&gt;DTCorr</title>
<path fill="none" stroke="black" d="M1351.49,-215.65C1425.69,-189.83 1572,-138.93 1681.09,-100.98"/>
<polygon fill="black" stroke="black" points="1682.14,-104.32 1690.43,-97.73 1679.84,-97.71 1682.14,-104.32"/>
</g>
<!-- GasSignal -->
<g id="node6" class="node">
<title>GasSignal</title>
<ellipse fill="none" stroke="black" cx="2356.05" cy="-52.33" rx="226.1" ry="52.33"/>
<text xml:space="preserve" text-anchor="middle" x="2356.05" y="-72.03" font-family="Times,serif" font-size="14.00">GasSignal</text>
<text xml:space="preserve" text-anchor="middle" x="2356.05" y="-55.53" font-family="Times,serif" font-size="14.00">File: ./xpd&#45;profile&#45;collection/startup/70&#45;gas_switcher.py</text>
<text xml:space="preserve" text-anchor="middle" x="2356.05" y="-39.03" font-family="Times,serif" font-size="14.00">Methods: 4</text>
<text xml:space="preserve" text-anchor="middle" x="2356.05" y="-22.53" font-family="Times,serif" font-size="14.00">Attributes: 4</text>
</g>
<!-- DerivedSignal&#45;&gt;GasSignal -->
<g id="edge5" class="edge">
<title>DerivedSignal&#45;&gt;GasSignal</title>
<path fill="none" stroke="black" d="M1351.34,-225.08C1474.11,-206.61 1813,-154.85 2094.05,-104.65 2120.42,-99.94 2148.23,-94.74 2175.5,-89.52"/>
<polygon fill="black" stroke="black" points="2176.09,-92.97 2185.24,-87.64 2174.76,-86.09 2176.09,-92.97"/>
</g>
</g>
</svg>
