<?xml version="1.0" encoding="UTF-8" standalone="no"?>
<!DOCTYPE svg PUBLIC "-//W3C//DTD SVG 1.1//EN"
 "http://www.w3.org/Graphics/SVG/1.1/DTD/svg11.dtd">
<!-- Generated by graphviz version 14.0.0 (20250921.2048)
 -->
<!-- Pages: 1 -->
<svg width="4028pt" height="262pt"
 viewBox="0.00 0.00 4028.00 262.00" xmlns="http://www.w3.org/2000/svg" xmlns:xlink="http://www.w3.org/1999/xlink">
<g id="graph0" class="graph" transform="scale(1 1) rotate(0) translate(4 257.65)">
<polygon fill="white" stroke="none" points="-4,4 -4,-257.65 4024.04,-257.65 4024.04,4 -4,4"/>
<!-- DetectorBase -->
<g id="node1" class="node">
<title>DetectorBase</title>
<polygon fill="lightblue" stroke="lightblue" points="2130.09,-253.65 2037.59,-253.65 2037.59,-212.65 2130.09,-212.65 2130.09,-253.65"/>
<text xml:space="preserve" text-anchor="middle" x="2083.84" y="-236.35" font-family="Times,serif" font-size="14.00">DetectorBase</text>
<text xml:space="preserve" text-anchor="middle" x="2083.84" y="-219.85" font-family="Times,serif" font-size="14.00">(Parent Class)</text>
</g>
<!-- Xspress3XDetector -->
<g id="node2" class="node">
<title>Xspress3XDetector</title>
<ellipse fill="none" stroke="black" cx="212.84" cy="-52.33" rx="212.84" ry="52.33"/>
<text xml:space="preserve" text-anchor="middle" x="212.84" y="-72.03" font-family="Times,serif" font-size="14.00">Xspress3XDetector</text>
<text xml:space="preserve" text-anchor="middle" x="212.84" y="-55.53" font-family="Times,serif" font-size="14.00">File: ./qas&#45;profile&#45;collection/startup/41&#45;xspress3x.py</text>
<text xml:space="preserve" text-anchor="middle" x="212.84" y="-39.03" font-family="Times,serif" font-size="14.00">Methods: 5</text>
<text xml:space="preserve" text-anchor="middle" x="212.84" y="-22.53" font-family="Times,serif" font-size="14.00">Attributes: 19</text>
</g>
<!-- DetectorBase&#45;&gt;Xspress3XDetector -->
<g id="edge1" class="edge">
<title>DetectorBase&#45;&gt;Xspress3XDetector</title>
<path fill="none" stroke="black" d="M2037.16,-230.62C1843.08,-223.78 1081.3,-192.49 461.84,-104.65 435.05,-100.85 406.81,-95.93 379.35,-90.64"/>
<polygon fill="black" stroke="black" points="380.03,-87.2 369.54,-88.72 378.69,-94.08 380.03,-87.2"/>
</g>
<!-- BMMDante -->
<g id="node3" class="node">
<title>BMMDante</title>
<ellipse fill="none" stroke="black" cx="715.84" cy="-52.33" rx="218.14" ry="52.33"/>
<text xml:space="preserve" text-anchor="middle" x="715.84" y="-72.03" font-family="Times,serif" font-size="14.00">BMMDante</text>
<text xml:space="preserve" text-anchor="middle" x="715.84" y="-55.53" font-family="Times,serif" font-size="14.00">File: ./bmm&#45;profile&#45;collection/startup/BMM/dante.py</text>
<text xml:space="preserve" text-anchor="middle" x="715.84" y="-39.03" font-family="Times,serif" font-size="14.00">Methods: 3</text>
<text xml:space="preserve" text-anchor="middle" x="715.84" y="-22.53" font-family="Times,serif" font-size="14.00">Attributes: 27</text>
</g>
<!-- DetectorBase&#45;&gt;BMMDante -->
<g id="edge2" class="edge">
<title>DetectorBase&#45;&gt;BMMDante</title>
<path fill="none" stroke="black" d="M2037.22,-228.25C1883.9,-215.13 1381.56,-169.69 969.84,-104.65 943.28,-100.46 915.28,-95.42 887.96,-90.17"/>
<polygon fill="black" stroke="black" points="888.68,-86.74 878.19,-88.28 887.34,-93.62 888.68,-86.74"/>
</g>
<!-- ProductionCamBase -->
<g id="node4" class="node">
<title>ProductionCamBase</title>
<ellipse fill="none" stroke="black" cx="1265.84" cy="-52.33" rx="260.04" ry="52.33"/>
<text xml:space="preserve" text-anchor="middle" x="1265.84" y="-72.03" font-family="Times,serif" font-size="14.00">ProductionCamBase</text>
<text xml:space="preserve" text-anchor="middle" x="1265.84" y="-55.53" font-family="Times,serif" font-size="14.00">File: ./csx&#45;profile&#45;collection/startup/csx1/devices/areadetector.py</text>
<text xml:space="preserve" text-anchor="middle" x="1265.84" y="-39.03" font-family="Times,serif" font-size="14.00">Methods: 3</text>
<text xml:space="preserve" text-anchor="middle" x="1265.84" y="-22.53" font-family="Times,serif" font-size="14.00">Attributes: 15</text>
</g>
<!-- DetectorBase&#45;&gt;ProductionCamBase -->
<g id="edge3" class="edge">
<title>DetectorBase&#45;&gt;ProductionCamBase</title>
<path fill="none" stroke="black" d="M2037.22,-221.96C1926.32,-197.72 1641.84,-135.53 1451.12,-93.83"/>
<polygon fill="black" stroke="black" points="1452.11,-90.47 1441.6,-91.75 1450.62,-97.3 1452.11,-90.47"/>
</g>
<!-- SpecsDetector -->
<g id="node5" class="node">
<title>SpecsDetector</title>
<ellipse fill="none" stroke="black" cx="1828.84" cy="-52.33" rx="230.87" ry="52.33"/>
<text xml:space="preserve" text-anchor="middle" x="1828.84" y="-72.03" font-family="Times,serif" font-size="14.00">SpecsDetector</text>
<text xml:space="preserve" text-anchor="middle" x="1828.84" y="-55.53" font-family="Times,serif" font-size="14.00">File: ./ios&#45;profile&#45;collection/startup/21&#45;specs_analyzer.py</text>
<text xml:space="preserve" text-anchor="middle" x="1828.84" y="-39.03" font-family="Times,serif" font-size="14.00">Methods: 2</text>
<text xml:space="preserve" text-anchor="middle" x="1828.84" y="-22.53" font-family="Times,serif" font-size="14.00">Attributes: 5</text>
</g>
<!-- DetectorBase&#45;&gt;SpecsDetector -->
<g id="edge4" class="edge">
<title>DetectorBase&#45;&gt;SpecsDetector</title>
<path fill="none" stroke="black" d="M2055.58,-212.33C2020.3,-187.59 1958.49,-144.25 1908.31,-109.05"/>
<polygon fill="black" stroke="black" points="1910.52,-106.33 1900.32,-103.45 1906.5,-112.06 1910.52,-106.33"/>
</g>
<!-- LambdaDetector -->
<g id="node6" class="node">
<title>LambdaDetector</title>
<ellipse fill="none" stroke="black" cx="2338.84" cy="-52.33" rx="207.01" ry="52.33"/>
<text xml:space="preserve" text-anchor="middle" x="2338.84" y="-72.03" font-family="Times,serif" font-size="14.00">LambdaDetector</text>
<text xml:space="preserve" text-anchor="middle" x="2338.84" y="-55.53" font-family="Times,serif" font-size="14.00">File: ./opls&#45;profile&#45;collection/startup/46&#45;lambda.py</text>
<text xml:space="preserve" text-anchor="middle" x="2338.84" y="-39.03" font-family="Times,serif" font-size="14.00">Methods: 0</text>
<text xml:space="preserve" text-anchor="middle" x="2338.84" y="-22.53" font-family="Times,serif" font-size="14.00">Attributes: 2</text>
</g>
<!-- DetectorBase&#45;&gt;LambdaDetector -->
<g id="edge5" class="edge">
<title>DetectorBase&#45;&gt;LambdaDetector</title>
<path fill="none" stroke="black" d="M2112.1,-212.33C2147.57,-187.46 2209.83,-143.8 2260.15,-108.51"/>
<polygon fill="black" stroke="black" points="2261.98,-111.5 2268.16,-102.89 2257.96,-105.77 2261.98,-111.5"/>
</g>
<!-- AndorKlass -->
<g id="node7" class="node">
<title>AndorKlass</title>
<ellipse fill="none" stroke="black" cx="2839.84" cy="-52.33" rx="222.39" ry="52.33"/>
<text xml:space="preserve" text-anchor="middle" x="2839.84" y="-72.03" font-family="Times,serif" font-size="14.00">AndorKlass</text>
<text xml:space="preserve" text-anchor="middle" x="2839.84" y="-55.53" font-family="Times,serif" font-size="14.00">File: ./fxi&#45;profile&#45;collection/startup/10&#45;area&#45;detector.py</text>
<text xml:space="preserve" text-anchor="middle" x="2839.84" y="-39.03" font-family="Times,serif" font-size="14.00">Methods: 8</text>
<text xml:space="preserve" text-anchor="middle" x="2839.84" y="-22.53" font-family="Times,serif" font-size="14.00">Attributes: 18</text>
</g>
<!-- DetectorBase&#45;&gt;AndorKlass -->
<g id="edge6" class="edge">
<title>DetectorBase&#45;&gt;AndorKlass</title>
<path fill="none" stroke="black" d="M2130.56,-221.1C2236.46,-196.05 2499.05,-133.94 2673.28,-92.72"/>
<polygon fill="black" stroke="black" points="2673.97,-96.16 2682.9,-90.45 2672.36,-89.35 2673.97,-96.16"/>
</g>
<!-- KinetixKlass -->
<g id="node8" class="node">
<title>KinetixKlass</title>
<ellipse fill="none" stroke="black" cx="3356.84" cy="-52.33" rx="222.39" ry="52.33"/>
<text xml:space="preserve" text-anchor="middle" x="3356.84" y="-72.03" font-family="Times,serif" font-size="14.00">KinetixKlass</text>
<text xml:space="preserve" text-anchor="middle" x="3356.84" y="-55.53" font-family="Times,serif" font-size="14.00">File: ./fxi&#45;profile&#45;collection/startup/10&#45;area&#45;detector.py</text>
<text xml:space="preserve" text-anchor="middle" x="3356.84" y="-39.03" font-family="Times,serif" font-size="14.00">Methods: 8</text>
<text xml:space="preserve" text-anchor="middle" x="3356.84" y="-22.53" font-family="Times,serif" font-size="14.00">Attributes: 13</text>
</g>
<!-- DetectorBase&#45;&gt;KinetixKlass -->
<g id="edge7" class="edge">
<title>DetectorBase&#45;&gt;KinetixKlass</title>
<path fill="none" stroke="black" d="M2130.5,-227.47C2274.81,-212.74 2726.52,-164.71 3097.84,-104.65 3124.8,-100.29 3153.25,-95.18 3181.02,-89.9"/>
<polygon fill="black" stroke="black" points="3181.39,-93.39 3190.56,-88.08 3180.08,-86.52 3181.39,-93.39"/>
</g>
<!-- XIAXMAPDetector -->
<g id="node9" class="node">
<title>XIAXMAPDetector</title>
<ellipse fill="none" stroke="black" cx="3835.84" cy="-52.33" rx="184.2" ry="52.33"/>
<text xml:space="preserve" text-anchor="middle" x="3835.84" y="-72.03" font-family="Times,serif" font-size="14.00">XIAXMAPDetector</text>
<text xml:space="preserve" text-anchor="middle" x="3835.84" y="-55.53" font-family="Times,serif" font-size="14.00">File: ./iss&#45;profile&#45;collection/startup/42&#45;xia.py</text>
<text xml:space="preserve" text-anchor="middle" x="3835.84" y="-39.03" font-family="Times,serif" font-size="14.00">Methods: 5</text>
<text xml:space="preserve" text-anchor="middle" x="3835.84" y="-22.53" font-family="Times,serif" font-size="14.00">Attributes: 17</text>
</g>
<!-- DetectorBase&#45;&gt;XIAXMAPDetector -->
<g id="edge8" class="edge">
<title>DetectorBase&#45;&gt;XIAXMAPDetector</title>
<path fill="none" stroke="black" d="M2130.48,-230.74C2317.87,-224.53 3033.83,-195.82 3614.84,-104.65 3639.08,-100.85 3664.6,-95.86 3689.35,-90.48"/>
<polygon fill="black" stroke="black" points="3689.79,-93.97 3698.8,-88.4 3688.29,-87.13 3689.79,-93.97"/>
</g>
</g>
</svg>
