<?xml version="1.0" encoding="UTF-8" standalone="no"?>
<!DOCTYPE svg PUBLIC "-//W3C//DTD SVG 1.1//EN"
 "http://www.w3.org/Graphics/SVG/1.1/DTD/svg11.dtd">
<!-- Generated by graphviz version 14.0.0 (20250921.2048)
 -->
<!-- Pages: 1 -->
<svg width="1030pt" height="262pt"
 viewBox="0.00 0.00 1030.00 262.00" xmlns="http://www.w3.org/2000/svg" xmlns:xlink="http://www.w3.org/1999/xlink">
<g id="graph0" class="graph" transform="scale(1 1) rotate(0) translate(4 257.65)">
<polygon fill="white" stroke="none" points="-4,4 -4,-257.65 1026,-257.65 1026,4 -4,4"/>
<!-- DeviceStatus -->
<g id="node1" class="node">
<title>DeviceStatus</title>
<polygon fill="lightblue" stroke="lightblue" points="534.21,-253.65 441.71,-253.65 441.71,-212.65 534.21,-212.65 534.21,-253.65"/>
<text xml:space="preserve" text-anchor="middle" x="487.96" y="-236.35" font-family="Times,serif" font-size="14.00">DeviceStatus</text>
<text xml:space="preserve" text-anchor="middle" x="487.96" y="-219.85" font-family="Times,serif" font-size="14.00">(Parent Class)</text>
</g>
<!-- BusyStatus -->
<g id="node2" class="node">
<title>BusyStatus</title>
<ellipse fill="none" stroke="black" cx="214.96" cy="-52.33" rx="214.96" ry="52.33"/>
<text xml:space="preserve" text-anchor="middle" x="214.96" y="-72.03" font-family="Times,serif" font-size="14.00">BusyStatus</text>
<text xml:space="preserve" text-anchor="middle" x="214.96" y="-55.53" font-family="Times,serif" font-size="14.00">File: ./bmm&#45;profile&#45;collection/startup/BMM/busy.py</text>
<text xml:space="preserve" text-anchor="middle" x="214.96" y="-39.03" font-family="Times,serif" font-size="14.00">Methods: 1</text>
<text xml:space="preserve" text-anchor="middle" x="214.96" y="-22.53" font-family="Times,serif" font-size="14.00">Attributes: 4</text>
</g>
<!-- DeviceStatus&#45;&gt;BusyStatus -->
<g id="edge1" class="edge">
<title>DeviceStatus&#45;&gt;BusyStatus</title>
<path fill="none" stroke="black" d="M457.44,-212.16C419.31,-187.18 352.53,-143.44 298.69,-108.17"/>
<polygon fill="black" stroke="black" points="300.69,-105.3 290.41,-102.75 296.86,-111.16 300.69,-105.3"/>
</g>
<!-- TriggerStatus -->
<g id="node3" class="node">
<title>TriggerStatus</title>
<ellipse fill="none" stroke="black" cx="761.96" cy="-52.33" rx="260.04" ry="52.33"/>
<text xml:space="preserve" text-anchor="middle" x="761.96" y="-72.03" font-family="Times,serif" font-size="14.00">TriggerStatus</text>
<text xml:space="preserve" text-anchor="middle" x="761.96" y="-55.53" font-family="Times,serif" font-size="14.00">File: ./csx&#45;profile&#45;collection/startup/csx1/devices/areadetector.py</text>
<text xml:space="preserve" text-anchor="middle" x="761.96" y="-39.03" font-family="Times,serif" font-size="14.00">Methods: 7</text>
<text xml:space="preserve" text-anchor="middle" x="761.96" y="-22.53" font-family="Times,serif" font-size="14.00">Attributes: 11</text>
</g>
<!-- DeviceStatus&#45;&gt;TriggerStatus -->
<g id="edge2" class="edge">
<title>DeviceStatus&#45;&gt;TriggerStatus</title>
<path fill="none" stroke="black" d="M518.59,-212.16C556.53,-187.4 622.74,-144.19 676.52,-109.09"/>
<polygon fill="black" stroke="black" points="678.34,-112.08 684.8,-103.68 674.51,-106.22 678.34,-112.08"/>
</g>
</g>
</svg>
