<?xml version="1.0" encoding="UTF-8" standalone="no"?>
<!DOCTYPE svg PUBLIC "-//W3C//DTD SVG 1.1//EN"
 "http://www.w3.org/Graphics/SVG/1.1/DTD/svg11.dtd">
<!-- Generated by graphviz version 14.0.0 (20250921.2048)
 -->
<!-- Pages: 1 -->
<svg width="1941pt" height="262pt"
 viewBox="0.00 0.00 1941.00 262.00" xmlns="http://www.w3.org/2000/svg" xmlns:xlink="http://www.w3.org/1999/xlink">
<g id="graph0" class="graph" transform="scale(1 1) rotate(0) translate(4 257.65)">
<polygon fill="white" stroke="none" points="-4,4 -4,-257.65 1936.53,-257.65 1936.53,4 -4,4"/>
<!-- EigerDetector -->
<g id="node1" class="node">
<title>EigerDetector</title>
<polygon fill="lightblue" stroke="lightblue" points="1054.09,-253.65 961.59,-253.65 961.59,-212.65 1054.09,-212.65 1054.09,-253.65"/>
<text xml:space="preserve" text-anchor="middle" x="1007.84" y="-236.35" font-family="Times,serif" font-size="14.00">EigerDetector</text>
<text xml:space="preserve" text-anchor="middle" x="1007.84" y="-219.85" font-family="Times,serif" font-size="14.00">(Parent Class)</text>
</g>
<!-- SRXEiger -->
<g id="node2" class="node">
<title>SRXEiger</title>
<ellipse fill="none" stroke="black" cx="247.84" cy="-52.33" rx="247.84" ry="52.33"/>
<text xml:space="preserve" text-anchor="middle" x="247.84" y="-72.03" font-family="Times,serif" font-size="14.00">SRXEiger</text>
<text xml:space="preserve" text-anchor="middle" x="247.84" y="-55.53" font-family="Times,serif" font-size="14.00">File: ./hxn&#45;profile&#45;collection/startup/65&#45;nano&#45;eiger&#45;mobile.py</text>
<text xml:space="preserve" text-anchor="middle" x="247.84" y="-39.03" font-family="Times,serif" font-size="14.00">Methods: 8</text>
<text xml:space="preserve" text-anchor="middle" x="247.84" y="-22.53" font-family="Times,serif" font-size="14.00">Attributes: 17</text>
</g>
<!-- EigerDetector&#45;&gt;SRXEiger -->
<g id="edge1" class="edge">
<title>EigerDetector&#45;&gt;SRXEiger</title>
<path fill="none" stroke="black" d="M961.16,-221.17C856.43,-196.52 598.2,-135.76 422.93,-94.52"/>
<polygon fill="black" stroke="black" points="423.78,-91.13 413.25,-92.25 422.18,-97.94 423.78,-91.13"/>
</g>
<!-- HxnEigerDetector -->
<g id="node3" class="node">
<title>HxnEigerDetector</title>
<ellipse fill="none" stroke="black" cx="762.84" cy="-52.33" rx="195.34" ry="52.33"/>
<text xml:space="preserve" text-anchor="middle" x="762.84" y="-72.03" font-family="Times,serif" font-size="14.00">HxnEigerDetector</text>
<text xml:space="preserve" text-anchor="middle" x="762.84" y="-55.53" font-family="Times,serif" font-size="14.00">File: ./hxn&#45;profile&#45;collection/startup/20&#45;eiger.py</text>
<text xml:space="preserve" text-anchor="middle" x="762.84" y="-39.03" font-family="Times,serif" font-size="14.00">Methods: 3</text>
<text xml:space="preserve" text-anchor="middle" x="762.84" y="-22.53" font-family="Times,serif" font-size="14.00">Attributes: 18</text>
</g>
<!-- EigerDetector&#45;&gt;HxnEigerDetector -->
<g id="edge2" class="edge">
<title>EigerDetector&#45;&gt;HxnEigerDetector</title>
<path fill="none" stroke="black" d="M980.69,-212.33C946.63,-187.47 886.83,-143.83 838.49,-108.54"/>
<polygon fill="black" stroke="black" points="840.66,-105.8 830.52,-102.73 836.54,-111.45 840.66,-105.8"/>
</g>
<!-- HXNEiger -->
<g id="node4" class="node">
<title>HXNEiger</title>
<ellipse fill="none" stroke="black" cx="1252.84" cy="-52.33" rx="222.39" ry="52.33"/>
<text xml:space="preserve" text-anchor="middle" x="1252.84" y="-72.03" font-family="Times,serif" font-size="14.00">HXNEiger</text>
<text xml:space="preserve" text-anchor="middle" x="1252.84" y="-55.53" font-family="Times,serif" font-size="14.00">File: ./hxn&#45;profile&#45;collection/startup/65&#45;nano&#45;eiger3.py</text>
<text xml:space="preserve" text-anchor="middle" x="1252.84" y="-39.03" font-family="Times,serif" font-size="14.00">Methods: 8</text>
<text xml:space="preserve" text-anchor="middle" x="1252.84" y="-22.53" font-family="Times,serif" font-size="14.00">Attributes: 17</text>
</g>
<!-- EigerDetector&#45;&gt;HXNEiger -->
<g id="edge3" class="edge">
<title>EigerDetector&#45;&gt;HXNEiger</title>
<path fill="none" stroke="black" d="M1035,-212.33C1068.82,-187.64 1128.03,-144.43 1176.19,-109.27"/>
<polygon fill="black" stroke="black" points="1178.12,-112.2 1184.13,-103.48 1173.99,-106.55 1178.12,-112.2"/>
</g>
<!-- SRXEigerDetector -->
<g id="node5" class="node">
<title>SRXEigerDetector</title>
<ellipse fill="none" stroke="black" cx="1739.84" cy="-52.33" rx="192.69" ry="52.33"/>
<text xml:space="preserve" text-anchor="middle" x="1739.84" y="-72.03" font-family="Times,serif" font-size="14.00">SRXEigerDetector</text>
<text xml:space="preserve" text-anchor="middle" x="1739.84" y="-55.53" font-family="Times,serif" font-size="14.00">File: ./srx&#45;profile&#45;collection/startup/36&#45;eiger.py</text>
<text xml:space="preserve" text-anchor="middle" x="1739.84" y="-39.03" font-family="Times,serif" font-size="14.00">Methods: 3</text>
<text xml:space="preserve" text-anchor="middle" x="1739.84" y="-22.53" font-family="Times,serif" font-size="14.00">Attributes: 18</text>
</g>
<!-- EigerDetector&#45;&gt;SRXEigerDetector -->
<g id="edge4" class="edge">
<title>EigerDetector&#45;&gt;SRXEigerDetector</title>
<path fill="none" stroke="black" d="M1054.46,-220.76C1159.57,-195.09 1418.88,-131.74 1586.69,-90.74"/>
<polygon fill="black" stroke="black" points="1587.5,-94.14 1596.39,-88.37 1585.84,-87.34 1587.5,-94.14"/>
</g>
</g>
</svg>
