<?xml version="1.0" encoding="UTF-8" standalone="no"?>
<!DOCTYPE svg PUBLIC "-//W3C//DTD SVG 1.1//EN"
 "http://www.w3.org/Graphics/SVG/1.1/DTD/svg11.dtd">
<!-- Generated by graphviz version 14.0.0 (20250921.2048)
 -->
<!-- Pages: 1 -->
<svg width="2064pt" height="262pt"
 viewBox="0.00 0.00 2064.00 262.00" xmlns="http://www.w3.org/2000/svg" xmlns:xlink="http://www.w3.org/1999/xlink">
<g id="graph0" class="graph" transform="scale(1 1) rotate(0) translate(4 257.65)">
<polygon fill="white" stroke="none" points="-4,4 -4,-257.65 2059.62,-257.65 2059.62,4 -4,4"/>
<!-- EigerBase -->
<g id="node1" class="node">
<title>EigerBase</title>
<polygon fill="lightblue" stroke="lightblue" points="1074.06,-253.65 981.56,-253.65 981.56,-212.65 1074.06,-212.65 1074.06,-253.65"/>
<text xml:space="preserve" text-anchor="middle" x="1027.81" y="-236.35" font-family="Times,serif" font-size="14.00">EigerBase</text>
<text xml:space="preserve" text-anchor="middle" x="1027.81" y="-219.85" font-family="Times,serif" font-size="14.00">(Parent Class)</text>
</g>
<!-- EigerSingleTrigger -->
<g id="node2" class="node">
<title>EigerSingleTrigger</title>
<ellipse fill="none" stroke="black" cx="229.81" cy="-52.33" rx="229.81" ry="52.33"/>
<text xml:space="preserve" text-anchor="middle" x="229.81" y="-72.03" font-family="Times,serif" font-size="14.00">EigerSingleTrigger</text>
<text xml:space="preserve" text-anchor="middle" x="229.81" y="-55.53" font-family="Times,serif" font-size="14.00">File: ./chx&#45;profile&#45;collection/startup/20&#45;area&#45;detectors.py</text>
<text xml:space="preserve" text-anchor="middle" x="229.81" y="-39.03" font-family="Times,serif" font-size="14.00">Methods: 5</text>
<text xml:space="preserve" text-anchor="middle" x="229.81" y="-22.53" font-family="Times,serif" font-size="14.00">Attributes: 4</text>
</g>
<!-- EigerBase&#45;&gt;EigerSingleTrigger -->
<g id="edge1" class="edge">
<title>EigerBase&#45;&gt;EigerSingleTrigger</title>
<path fill="none" stroke="black" d="M981.16,-221.7C870.69,-196.94 588.45,-133.69 403.08,-92.15"/>
<polygon fill="black" stroke="black" points="404.12,-88.8 393.59,-90.03 402.59,-95.63 404.12,-88.8"/>
</g>
<!-- EigerBaseV33 -->
<g id="node3" class="node">
<title>EigerBaseV33</title>
<ellipse fill="none" stroke="black" cx="761.81" cy="-52.33" rx="229.81" ry="52.33"/>
<text xml:space="preserve" text-anchor="middle" x="761.81" y="-72.03" font-family="Times,serif" font-size="14.00">EigerBaseV33</text>
<text xml:space="preserve" text-anchor="middle" x="761.81" y="-55.53" font-family="Times,serif" font-size="14.00">File: ./chx&#45;profile&#45;collection/startup/20&#45;area&#45;detectors.py</text>
<text xml:space="preserve" text-anchor="middle" x="761.81" y="-39.03" font-family="Times,serif" font-size="14.00">Methods: 0</text>
<text xml:space="preserve" text-anchor="middle" x="761.81" y="-22.53" font-family="Times,serif" font-size="14.00">Attributes: 6</text>
</g>
<!-- EigerBase&#45;&gt;EigerBaseV33 -->
<g id="edge2" class="edge">
<title>EigerBase&#45;&gt;EigerBaseV33</title>
<path fill="none" stroke="black" d="M998.07,-212.16C961.05,-187.27 896.3,-143.74 843.94,-108.54"/>
<polygon fill="black" stroke="black" points="846.16,-105.81 835.9,-103.14 842.25,-111.62 846.16,-105.81"/>
</g>
<!-- EigerFastTrigger -->
<g id="node4" class="node">
<title>EigerFastTrigger</title>
<ellipse fill="none" stroke="black" cx="1293.81" cy="-52.33" rx="229.81" ry="52.33"/>
<text xml:space="preserve" text-anchor="middle" x="1293.81" y="-72.03" font-family="Times,serif" font-size="14.00">EigerFastTrigger</text>
<text xml:space="preserve" text-anchor="middle" x="1293.81" y="-55.53" font-family="Times,serif" font-size="14.00">File: ./chx&#45;profile&#45;collection/startup/20&#45;area&#45;detectors.py</text>
<text xml:space="preserve" text-anchor="middle" x="1293.81" y="-39.03" font-family="Times,serif" font-size="14.00">Methods: 2</text>
<text xml:space="preserve" text-anchor="middle" x="1293.81" y="-22.53" font-family="Times,serif" font-size="14.00">Attributes: 1</text>
</g>
<!-- EigerBase&#45;&gt;EigerFastTrigger -->
<g id="edge3" class="edge">
<title>EigerBase&#45;&gt;EigerFastTrigger</title>
<path fill="none" stroke="black" d="M1057.55,-212.16C1094.57,-187.27 1159.32,-143.74 1211.68,-108.54"/>
<polygon fill="black" stroke="black" points="1213.37,-111.62 1219.71,-103.14 1209.46,-105.81 1213.37,-111.62"/>
</g>
<!-- EigerManualTrigger -->
<g id="node5" class="node">
<title>EigerManualTrigger</title>
<ellipse fill="none" stroke="black" cx="1825.81" cy="-52.33" rx="229.81" ry="52.33"/>
<text xml:space="preserve" text-anchor="middle" x="1825.81" y="-72.03" font-family="Times,serif" font-size="14.00">EigerManualTrigger</text>
<text xml:space="preserve" text-anchor="middle" x="1825.81" y="-55.53" font-family="Times,serif" font-size="14.00">File: ./chx&#45;profile&#45;collection/startup/20&#45;area&#45;detectors.py</text>
<text xml:space="preserve" text-anchor="middle" x="1825.81" y="-39.03" font-family="Times,serif" font-size="14.00">Methods: 4</text>
<text xml:space="preserve" text-anchor="middle" x="1825.81" y="-22.53" font-family="Times,serif" font-size="14.00">Attributes: 3</text>
</g>
<!-- EigerBase&#45;&gt;EigerManualTrigger -->
<g id="edge4" class="edge">
<title>EigerBase&#45;&gt;EigerManualTrigger</title>
<path fill="none" stroke="black" d="M1074.46,-221.7C1184.93,-196.94 1467.17,-133.69 1652.54,-92.15"/>
<polygon fill="black" stroke="black" points="1653.03,-95.63 1662.02,-90.03 1651.5,-88.8 1653.03,-95.63"/>
</g>
</g>
</svg>
