<?xml version="1.0" encoding="UTF-8" standalone="no"?>
<!DOCTYPE svg PUBLIC "-//W3C//DTD SVG 1.1//EN"
 "http://www.w3.org/Graphics/SVG/1.1/DTD/svg11.dtd">
<!-- Generated by graphviz version 14.0.0 (20250921.2048)
 -->
<!-- Pages: 1 -->
<svg width="1020pt" height="262pt"
 viewBox="0.00 0.00 1020.00 262.00" xmlns="http://www.w3.org/2000/svg" xmlns:xlink="http://www.w3.org/1999/xlink">
<g id="graph0" class="graph" transform="scale(1 1) rotate(0) translate(4 257.65)">
<polygon fill="white" stroke="none" points="-4,4 -4,-257.65 1016.23,-257.65 1016.23,4 -4,4"/>
<!-- EigerSingleTriggerV33 -->
<g id="node1" class="node">
<title>EigerSingleTriggerV33</title>
<polygon fill="lightblue" stroke="lightblue" points="590.59,-253.65 447.09,-253.65 447.09,-212.65 590.59,-212.65 590.59,-253.65"/>
<text xml:space="preserve" text-anchor="middle" x="518.84" y="-236.35" font-family="Times,serif" font-size="14.00">EigerSingleTriggerV33</text>
<text xml:space="preserve" text-anchor="middle" x="518.84" y="-219.85" font-family="Times,serif" font-size="14.00">(Parent Class)</text>
</g>
<!-- SRXEiger -->
<g id="node2" class="node">
<title>SRXEiger</title>
<ellipse fill="none" stroke="black" cx="247.84" cy="-52.33" rx="247.84" ry="52.33"/>
<text xml:space="preserve" text-anchor="middle" x="247.84" y="-72.03" font-family="Times,serif" font-size="14.00">SRXEiger</text>
<text xml:space="preserve" text-anchor="middle" x="247.84" y="-55.53" font-family="Times,serif" font-size="14.00">File: ./hxn&#45;profile&#45;collection/startup/65&#45;nano&#45;eiger&#45;mobile.py</text>
<text xml:space="preserve" text-anchor="middle" x="247.84" y="-39.03" font-family="Times,serif" font-size="14.00">Methods: 8</text>
<text xml:space="preserve" text-anchor="middle" x="247.84" y="-22.53" font-family="Times,serif" font-size="14.00">Attributes: 17</text>
</g>
<!-- EigerSingleTriggerV33&#45;&gt;SRXEiger -->
<g id="edge1" class="edge">
<title>EigerSingleTriggerV33&#45;&gt;SRXEiger</title>
<path fill="none" stroke="black" d="M488.54,-212.16C450.95,-187.35 385.31,-144.04 332.07,-108.9"/>
<polygon fill="black" stroke="black" points="334.16,-106.09 323.88,-103.5 330.3,-111.93 334.16,-106.09"/>
</g>
<!-- HXNEiger -->
<g id="node3" class="node">
<title>HXNEiger</title>
<ellipse fill="none" stroke="black" cx="789.84" cy="-52.33" rx="222.39" ry="52.33"/>
<text xml:space="preserve" text-anchor="middle" x="789.84" y="-72.03" font-family="Times,serif" font-size="14.00">HXNEiger</text>
<text xml:space="preserve" text-anchor="middle" x="789.84" y="-55.53" font-family="Times,serif" font-size="14.00">File: ./hxn&#45;profile&#45;collection/startup/65&#45;nano&#45;eiger3.py</text>
<text xml:space="preserve" text-anchor="middle" x="789.84" y="-39.03" font-family="Times,serif" font-size="14.00">Methods: 8</text>
<text xml:space="preserve" text-anchor="middle" x="789.84" y="-22.53" font-family="Times,serif" font-size="14.00">Attributes: 17</text>
</g>
<!-- EigerSingleTriggerV33&#45;&gt;HXNEiger -->
<g id="edge2" class="edge">
<title>EigerSingleTriggerV33&#45;&gt;HXNEiger</title>
<path fill="none" stroke="black" d="M549.14,-212.16C586.92,-187.23 653.05,-143.59 706.45,-108.36"/>
<polygon fill="black" stroke="black" points="708.23,-111.37 714.65,-102.94 704.38,-105.53 708.23,-111.37"/>
</g>
</g>
</svg>
