<?xml version="1.0" encoding="UTF-8" standalone="no"?>
<!DOCTYPE svg PUBLIC "-//W3C//DTD SVG 1.1//EN"
 "http://www.w3.org/Graphics/SVG/1.1/DTD/svg11.dtd">
<!-- Generated by graphviz version 14.0.0 (20250921.2048)
 -->
<!-- Pages: 1 -->
<svg width="970pt" height="262pt"
 viewBox="0.00 0.00 970.00 262.00" xmlns="http://www.w3.org/2000/svg" xmlns:xlink="http://www.w3.org/1999/xlink">
<g id="graph0" class="graph" transform="scale(1 1) rotate(0) translate(4 257.65)">
<polygon fill="white" stroke="none" points="-4,4 -4,-257.65 965.77,-257.65 965.77,4 -4,4"/>
<!-- EndStationEpicsMotor -->
<g id="node1" class="node">
<title>EndStationEpicsMotor</title>
<polygon fill="lightblue" stroke="lightblue" points="552.76,-253.65 412.26,-253.65 412.26,-212.65 552.76,-212.65 552.76,-253.65"/>
<text xml:space="preserve" text-anchor="middle" x="482.51" y="-236.35" font-family="Times,serif" font-size="14.00">EndStationEpicsMotor</text>
<text xml:space="preserve" text-anchor="middle" x="482.51" y="-219.85" font-family="Times,serif" font-size="14.00">(Parent Class)</text>
</g>
<!-- EncodedEndStationEpicsMotor -->
<g id="node2" class="node">
<title>EncodedEndStationEpicsMotor</title>
<ellipse fill="none" stroke="black" cx="224.51" cy="-52.33" rx="224.51" ry="52.33"/>
<text xml:space="preserve" text-anchor="middle" x="224.51" y="-72.03" font-family="Times,serif" font-size="14.00">EncodedEndStationEpicsMotor</text>
<text xml:space="preserve" text-anchor="middle" x="224.51" y="-55.53" font-family="Times,serif" font-size="14.00">File: ./bmm&#45;profile&#45;collection/startup/BMM/motors.py</text>
<text xml:space="preserve" text-anchor="middle" x="224.51" y="-39.03" font-family="Times,serif" font-size="14.00">Methods: 1</text>
<text xml:space="preserve" text-anchor="middle" x="224.51" y="-22.53" font-family="Times,serif" font-size="14.00">Attributes: 1</text>
</g>
<!-- EndStationEpicsMotor&#45;&gt;EncodedEndStationEpicsMotor -->
<g id="edge1" class="edge">
<title>EndStationEpicsMotor&#45;&gt;EncodedEndStationEpicsMotor</title>
<path fill="none" stroke="black" d="M453.91,-212.33C418.15,-187.55 355.46,-144.1 304.64,-108.87"/>
<polygon fill="black" stroke="black" points="306.76,-106.08 296.55,-103.26 302.77,-111.83 306.76,-106.08"/>
</g>
<!-- WheelMotor -->
<g id="node3" class="node">
<title>WheelMotor</title>
<ellipse fill="none" stroke="black" cx="741.51" cy="-52.33" rx="220.26" ry="52.33"/>
<text xml:space="preserve" text-anchor="middle" x="741.51" y="-72.03" font-family="Times,serif" font-size="14.00">WheelMotor</text>
<text xml:space="preserve" text-anchor="middle" x="741.51" y="-55.53" font-family="Times,serif" font-size="14.00">File: ./bmm&#45;profile&#45;collection/startup/BMM/wheel.py</text>
<text xml:space="preserve" text-anchor="middle" x="741.51" y="-39.03" font-family="Times,serif" font-size="14.00">Methods: 13</text>
<text xml:space="preserve" text-anchor="middle" x="741.51" y="-22.53" font-family="Times,serif" font-size="14.00">Attributes: 12</text>
</g>
<!-- EndStationEpicsMotor&#45;&gt;WheelMotor -->
<g id="edge2" class="edge">
<title>EndStationEpicsMotor&#45;&gt;WheelMotor</title>
<path fill="none" stroke="black" d="M511.46,-212.16C547.44,-187.32 610.3,-143.92 661.22,-108.76"/>
<polygon fill="black" stroke="black" points="663.1,-111.72 669.34,-103.15 659.12,-105.96 663.1,-111.72"/>
</g>
</g>
</svg>
