<?xml version="1.0" encoding="UTF-8" standalone="no"?>
<!DOCTYPE svg PUBLIC "-//W3C//DTD SVG 1.1//EN"
 "http://www.w3.org/Graphics/SVG/1.1/DTD/svg11.dtd">
<!-- Generated by graphviz version 14.0.0 (20250921.2048)
 -->
<!-- Pages: 1 -->
<svg width="7615pt" height="262pt"
 viewBox="0.00 0.00 7615.00 262.00" xmlns="http://www.w3.org/2000/svg" xmlns:xlink="http://www.w3.org/1999/xlink">
<g id="graph0" class="graph" transform="scale(1 1) rotate(0) translate(4 257.65)">
<polygon fill="white" stroke="none" points="-4,4 -4,-257.65 7610.77,-257.65 7610.77,4 -4,4"/>
<!-- Enum -->
<g id="node1" class="node">
<title>Enum</title>
<polygon fill="lightblue" stroke="lightblue" points="3782.19,-253.65 3689.69,-253.65 3689.69,-212.65 3782.19,-212.65 3782.19,-253.65"/>
<text xml:space="preserve" text-anchor="middle" x="3735.94" y="-236.35" font-family="Times,serif" font-size="14.00">Enum</text>
<text xml:space="preserve" text-anchor="middle" x="3735.94" y="-219.85" font-family="Times,serif" font-size="14.00">(Parent Class)</text>
</g>
<!-- TESMode -->
<g id="node2" class="node">
<title>TESMode</title>
<ellipse fill="none" stroke="black" cx="205.94" cy="-52.33" rx="205.94" ry="52.33"/>
<text xml:space="preserve" text-anchor="middle" x="205.94" y="-72.03" font-family="Times,serif" font-size="14.00">TESMode</text>
<text xml:space="preserve" text-anchor="middle" x="205.94" y="-55.53" font-family="Times,serif" font-size="14.00">File: ./tes&#45;profile&#45;collection/startup/27&#45;xspress3.py</text>
<text xml:space="preserve" text-anchor="middle" x="205.94" y="-39.03" font-family="Times,serif" font-size="14.00">Methods: 0</text>
<text xml:space="preserve" text-anchor="middle" x="205.94" y="-22.53" font-family="Times,serif" font-size="14.00">Attributes: 2</text>
</g>
<!-- Enum&#45;&gt;TESMode -->
<g id="edge1" class="edge">
<title>Enum&#45;&gt;TESMode</title>
<path fill="none" stroke="black" d="M3689.47,-231.44C3339.7,-225.9 1115.81,-187.81 447.94,-104.65 421.16,-101.32 392.95,-96.53 365.61,-91.2"/>
<polygon fill="black" stroke="black" points="366.35,-87.77 355.86,-89.26 364.98,-94.64 366.35,-87.77"/>
</g>
<!-- TopPlanLimit -->
<g id="node3" class="node">
<title>TopPlanLimit</title>
<ellipse fill="none" stroke="black" cx="733.94" cy="-52.33" rx="250.49" ry="52.33"/>
<text xml:space="preserve" text-anchor="middle" x="733.94" y="-72.03" font-family="Times,serif" font-size="14.00">TopPlanLimit</text>
<text xml:space="preserve" text-anchor="middle" x="733.94" y="-55.53" font-family="Times,serif" font-size="14.00">File: ./amx&#45;profile&#45;collection/startup/99&#45;plan_development.py</text>
<text xml:space="preserve" text-anchor="middle" x="733.94" y="-39.03" font-family="Times,serif" font-size="14.00">Methods: 0</text>
<text xml:space="preserve" text-anchor="middle" x="733.94" y="-22.53" font-family="Times,serif" font-size="14.00">Attributes: 3</text>
</g>
<!-- Enum&#45;&gt;TopPlanLimit -->
<g id="edge2" class="edge">
<title>Enum&#45;&gt;TopPlanLimit</title>
<path fill="none" stroke="black" d="M3689.27,-232.24C3425.63,-232.24 2096.48,-225.99 1019.94,-104.65 989,-101.16 956.36,-96.37 924.63,-91.11"/>
<polygon fill="black" stroke="black" points="925.38,-87.69 914.94,-89.49 924.22,-94.59 925.38,-87.69"/>
</g>
<!-- SRXMode -->
<g id="node4" class="node">
<title>SRXMode</title>
<ellipse fill="none" stroke="black" cx="1262.94" cy="-52.33" rx="207.01" ry="52.33"/>
<text xml:space="preserve" text-anchor="middle" x="1262.94" y="-72.03" font-family="Times,serif" font-size="14.00">SRXMode</text>
<text xml:space="preserve" text-anchor="middle" x="1262.94" y="-55.53" font-family="Times,serif" font-size="14.00">File: ./srx&#45;profile&#45;collection/startup/31&#45;xspress3.py</text>
<text xml:space="preserve" text-anchor="middle" x="1262.94" y="-39.03" font-family="Times,serif" font-size="14.00">Methods: 0</text>
<text xml:space="preserve" text-anchor="middle" x="1262.94" y="-22.53" font-family="Times,serif" font-size="14.00">Attributes: 2</text>
</g>
<!-- Enum&#45;&gt;SRXMode -->
<g id="edge3" class="edge">
<title>Enum&#45;&gt;SRXMode</title>
<path fill="none" stroke="black" d="M3689.4,-232.09C3454.64,-231.25 2377.52,-220.94 1505.94,-104.65 1479.37,-101.11 1451.37,-96.25 1424.2,-90.94"/>
<polygon fill="black" stroke="black" points="1425,-87.53 1414.51,-89.02 1423.63,-94.4 1425,-87.53"/>
</g>
<!-- SPECSmode -->
<g id="node5" class="node">
<title>SPECSmode</title>
<ellipse fill="none" stroke="black" cx="1772.94" cy="-52.33" rx="230.87" ry="52.33"/>
<text xml:space="preserve" text-anchor="middle" x="1772.94" y="-72.03" font-family="Times,serif" font-size="14.00">SPECSmode</text>
<text xml:space="preserve" text-anchor="middle" x="1772.94" y="-55.53" font-family="Times,serif" font-size="14.00">File: ./ios&#45;profile&#45;collection/startup/21&#45;specs_analyzer.py</text>
<text xml:space="preserve" text-anchor="middle" x="1772.94" y="-39.03" font-family="Times,serif" font-size="14.00">Methods: 0</text>
<text xml:space="preserve" text-anchor="middle" x="1772.94" y="-22.53" font-family="Times,serif" font-size="14.00">Attributes: 2</text>
</g>
<!-- Enum&#45;&gt;SPECSmode -->
<g id="edge4" class="edge">
<title>Enum&#45;&gt;SPECSmode</title>
<path fill="none" stroke="black" d="M3689.51,-230.63C3490.5,-223.71 2690.16,-191.65 2038.94,-104.65 2010.53,-100.86 1980.56,-95.96 1951.39,-90.7"/>
<polygon fill="black" stroke="black" points="1952.21,-87.29 1941.74,-88.93 1950.95,-94.17 1952.21,-87.29"/>
</g>
<!-- ScanMode -->
<g id="node6" class="node">
<title>ScanMode</title>
<ellipse fill="none" stroke="black" cx="2282.94" cy="-52.33" rx="207.54" ry="52.33"/>
<text xml:space="preserve" text-anchor="middle" x="2282.94" y="-72.03" font-family="Times,serif" font-size="14.00">ScanMode</text>
<text xml:space="preserve" text-anchor="middle" x="2282.94" y="-55.53" font-family="Times,serif" font-size="14.00">File: ./opls&#45;profile&#45;collection/startup/47&#45;xpress3.py</text>
<text xml:space="preserve" text-anchor="middle" x="2282.94" y="-39.03" font-family="Times,serif" font-size="14.00">Methods: 0</text>
<text xml:space="preserve" text-anchor="middle" x="2282.94" y="-22.53" font-family="Times,serif" font-size="14.00">Attributes: 2</text>
</g>
<!-- Enum&#45;&gt;ScanMode -->
<g id="edge5" class="edge">
<title>Enum&#45;&gt;ScanMode</title>
<path fill="none" stroke="black" d="M3689.28,-228.98C3527.56,-217.61 2976.37,-175.76 2525.94,-104.65 2500.32,-100.61 2473.33,-95.63 2447.01,-90.38"/>
<polygon fill="black" stroke="black" points="2447.76,-86.96 2437.27,-88.41 2446.38,-93.82 2447.76,-86.96"/>
</g>
<!-- ENDSTATION_ENUM -->
<g id="node7" class="node">
<title>ENDSTATION_ENUM</title>
<ellipse fill="none" stroke="black" cx="2761.94" cy="-52.33" rx="199.58" ry="52.33"/>
<text xml:space="preserve" text-anchor="middle" x="2761.94" y="-72.03" font-family="Times,serif" font-size="14.00">ENDSTATION_ENUM</text>
<text xml:space="preserve" text-anchor="middle" x="2761.94" y="-55.53" font-family="Times,serif" font-size="14.00">File: ./six&#45;profile&#45;collection/startup/00&#45;startup.py</text>
<text xml:space="preserve" text-anchor="middle" x="2761.94" y="-39.03" font-family="Times,serif" font-size="14.00">Methods: 0</text>
<text xml:space="preserve" text-anchor="middle" x="2761.94" y="-22.53" font-family="Times,serif" font-size="14.00">Attributes: 2</text>
</g>
<!-- Enum&#45;&gt;ENDSTATION_ENUM -->
<g id="edge6" class="edge">
<title>Enum&#45;&gt;ENDSTATION_ENUM</title>
<path fill="none" stroke="black" d="M3689.62,-224.86C3573.12,-206.37 3258.61,-155.49 2997.94,-104.65 2973.84,-99.95 2948.4,-94.71 2923.51,-89.43"/>
<polygon fill="black" stroke="black" points="2924.5,-86.06 2913.99,-87.4 2923.04,-92.91 2924.5,-86.06"/>
</g>
<!-- data_file_path -->
<g id="node8" class="node">
<title>data_file_path</title>
<ellipse fill="none" stroke="black" cx="3221.94" cy="-52.33" rx="188.44" ry="52.33"/>
<text xml:space="preserve" text-anchor="middle" x="3221.94" y="-72.03" font-family="Times,serif" font-size="14.00">data_file_path</text>
<text xml:space="preserve" text-anchor="middle" x="3221.94" y="-55.53" font-family="Times,serif" font-size="14.00">File: ./lix&#45;profile&#45;collection/startup/02&#45;vars.py</text>
<text xml:space="preserve" text-anchor="middle" x="3221.94" y="-39.03" font-family="Times,serif" font-size="14.00">Methods: 0</text>
<text xml:space="preserve" text-anchor="middle" x="3221.94" y="-22.53" font-family="Times,serif" font-size="14.00">Attributes: 7</text>
</g>
<!-- Enum&#45;&gt;data_file_path -->
<g id="edge7" class="edge">
<title>Enum&#45;&gt;data_file_path</title>
<path fill="none" stroke="black" d="M3689.42,-215.97C3613.24,-189.46 3459.3,-135.9 3348.87,-97.48"/>
<polygon fill="black" stroke="black" points="3350.35,-94.29 3339.75,-94.31 3348.05,-100.9 3350.35,-94.29"/>
</g>
<!-- triggerMode -->
<g id="node9" class="node">
<title>triggerMode</title>
<ellipse fill="none" stroke="black" cx="3735.94" cy="-52.33" rx="253.14" ry="52.33"/>
<text xml:space="preserve" text-anchor="middle" x="3735.94" y="-72.03" font-family="Times,serif" font-size="14.00">triggerMode</text>
<text xml:space="preserve" text-anchor="middle" x="3735.94" y="-55.53" font-family="Times,serif" font-size="14.00">File: ./lix&#45;profile&#45;collection/startup/obsolete/33&#45;CBFhandler.py</text>
<text xml:space="preserve" text-anchor="middle" x="3735.94" y="-39.03" font-family="Times,serif" font-size="14.00">Methods: 0</text>
<text xml:space="preserve" text-anchor="middle" x="3735.94" y="-22.53" font-family="Times,serif" font-size="14.00">Attributes: 4</text>
</g>
<!-- Enum&#45;&gt;triggerMode -->
<g id="edge8" class="edge">
<title>Enum&#45;&gt;triggerMode</title>
<path fill="none" stroke="black" d="M3735.94,-212.33C3735.94,-189.21 3735.94,-149.84 3735.94,-116.06"/>
<polygon fill="black" stroke="black" points="3739.44,-116.37 3735.94,-106.37 3732.44,-116.37 3739.44,-116.37"/>
</g>
<!-- PilatusTriggerMode -->
<g id="node10" class="node">
<title>PilatusTriggerMode</title>
<ellipse fill="none" stroke="black" cx="4307.94" cy="-52.33" rx="247.31" ry="52.33"/>
<text xml:space="preserve" text-anchor="middle" x="4307.94" y="-72.03" font-family="Times,serif" font-size="14.00">PilatusTriggerMode</text>
<text xml:space="preserve" text-anchor="middle" x="4307.94" y="-55.53" font-family="Times,serif" font-size="14.00">File: ./lix&#45;profile&#45;collection/startup/components/20&#45;pilatus.py</text>
<text xml:space="preserve" text-anchor="middle" x="4307.94" y="-39.03" font-family="Times,serif" font-size="14.00">Methods: 0</text>
<text xml:space="preserve" text-anchor="middle" x="4307.94" y="-22.53" font-family="Times,serif" font-size="14.00">Attributes: 3</text>
</g>
<!-- Enum&#45;&gt;PilatusTriggerMode -->
<g id="edge9" class="edge">
<title>Enum&#45;&gt;PilatusTriggerMode</title>
<path fill="none" stroke="black" d="M3782.27,-217.67C3863.48,-192.28 4034.8,-138.72 4159.86,-99.62"/>
<polygon fill="black" stroke="black" points="4160.73,-103.02 4169.23,-96.69 4158.64,-96.34 4160.73,-103.02"/>
</g>
<!-- HPLCStatus -->
<g id="node11" class="node">
<title>HPLCStatus</title>
<ellipse fill="none" stroke="black" cx="4850.94" cy="-52.33" rx="223.45" ry="52.33"/>
<text xml:space="preserve" text-anchor="middle" x="4850.94" y="-72.03" font-family="Times,serif" font-size="14.00">HPLCStatus</text>
<text xml:space="preserve" text-anchor="middle" x="4850.94" y="-55.53" font-family="Times,serif" font-size="14.00">File: ./lix&#45;profile&#45;collection/startup/obsolete/25&#45;hplc.py</text>
<text xml:space="preserve" text-anchor="middle" x="4850.94" y="-39.03" font-family="Times,serif" font-size="14.00">Methods: 0</text>
<text xml:space="preserve" text-anchor="middle" x="4850.94" y="-22.53" font-family="Times,serif" font-size="14.00">Attributes: 3</text>
</g>
<!-- Enum&#45;&gt;HPLCStatus -->
<g id="edge10" class="edge">
<title>Enum&#45;&gt;HPLCStatus</title>
<path fill="none" stroke="black" d="M3782.41,-226C3911.17,-208.8 4283.36,-157.92 4590.94,-104.65 4617.44,-100.06 4645.39,-94.89 4672.75,-89.65"/>
<polygon fill="black" stroke="black" points="4673.38,-93.09 4682.54,-87.77 4672.05,-86.22 4673.38,-93.09"/>
</g>
<!-- LEDState -->
<g id="node12" class="node">
<title>LEDState</title>
<ellipse fill="none" stroke="black" cx="5354.94" cy="-52.33" rx="208.07" ry="52.33"/>
<text xml:space="preserve" text-anchor="middle" x="5354.94" y="-72.03" font-family="Times,serif" font-size="14.00">LEDState</text>
<text xml:space="preserve" text-anchor="middle" x="5354.94" y="-55.53" font-family="Times,serif" font-size="14.00">File: ./xfp&#45;profile&#45;collection/startup/99&#45;gui&#45;htfly.py</text>
<text xml:space="preserve" text-anchor="middle" x="5354.94" y="-39.03" font-family="Times,serif" font-size="14.00">Methods: 0</text>
<text xml:space="preserve" text-anchor="middle" x="5354.94" y="-22.53" font-family="Times,serif" font-size="14.00">Attributes: 4</text>
</g>
<!-- Enum&#45;&gt;LEDState -->
<g id="edge11" class="edge">
<title>Enum&#45;&gt;LEDState</title>
<path fill="none" stroke="black" d="M3782.44,-229.77C3957.36,-220.38 4592.33,-182.63 5109.94,-104.65 5136.19,-100.7 5163.87,-95.71 5190.79,-90.4"/>
<polygon fill="black" stroke="black" points="5191.26,-93.88 5200.38,-88.49 5189.89,-87.01 5191.26,-93.88"/>
</g>
<!-- RequestStatus -->
<g id="node13" class="node">
<title>RequestStatus</title>
<ellipse fill="none" stroke="black" cx="5869.94" cy="-52.33" rx="235.11" ry="52.33"/>
<text xml:space="preserve" text-anchor="middle" x="5869.94" y="-72.03" font-family="Times,serif" font-size="14.00">RequestStatus</text>
<text xml:space="preserve" text-anchor="middle" x="5869.94" y="-55.53" font-family="Times,serif" font-size="14.00">File: ./xfm&#45;maia&#45;profile&#45;collection/startup/90&#45;maia&#45;gui.py</text>
<text xml:space="preserve" text-anchor="middle" x="5869.94" y="-39.03" font-family="Times,serif" font-size="14.00">Methods: 0</text>
<text xml:space="preserve" text-anchor="middle" x="5869.94" y="-22.53" font-family="Times,serif" font-size="14.00">Attributes: 3</text>
</g>
<!-- Enum&#45;&gt;RequestStatus -->
<g id="edge12" class="edge">
<title>Enum&#45;&gt;RequestStatus</title>
<path fill="none" stroke="black" d="M3782.59,-231C3993.51,-225.37 4879.07,-197.12 5598.94,-104.65 5628.13,-100.9 5658.92,-96 5688.86,-90.7"/>
<polygon fill="black" stroke="black" points="5689.14,-94.21 5698.36,-89 5687.9,-87.32 5689.14,-94.21"/>
</g>
<!-- RunEngineState -->
<g id="node14" class="node">
<title>RunEngineState</title>
<ellipse fill="none" stroke="black" cx="6411.94" cy="-52.33" rx="235.11" ry="52.33"/>
<text xml:space="preserve" text-anchor="middle" x="6411.94" y="-72.03" font-family="Times,serif" font-size="14.00">RunEngineState</text>
<text xml:space="preserve" text-anchor="middle" x="6411.94" y="-55.53" font-family="Times,serif" font-size="14.00">File: ./xfm&#45;maia&#45;profile&#45;collection/startup/90&#45;maia&#45;gui.py</text>
<text xml:space="preserve" text-anchor="middle" x="6411.94" y="-39.03" font-family="Times,serif" font-size="14.00">Methods: 0</text>
<text xml:space="preserve" text-anchor="middle" x="6411.94" y="-22.53" font-family="Times,serif" font-size="14.00">Attributes: 3</text>
</g>
<!-- Enum&#45;&gt;RunEngineState -->
<g id="edge13" class="edge">
<title>Enum&#45;&gt;RunEngineState</title>
<path fill="none" stroke="black" d="M3782.4,-232.01C4027.51,-230.75 5195.01,-218.78 6140.94,-104.65 6170.37,-101.1 6201.41,-96.27 6231.56,-90.98"/>
<polygon fill="black" stroke="black" points="6231.91,-94.47 6241.14,-89.27 6230.68,-87.58 6231.91,-94.47"/>
</g>
<!-- ScanType -->
<g id="node15" class="node">
<title>ScanType</title>
<ellipse fill="none" stroke="black" cx="6922.94" cy="-52.33" rx="203.82" ry="52.33"/>
<text xml:space="preserve" text-anchor="middle" x="6922.94" y="-72.03" font-family="Times,serif" font-size="14.00">ScanType</text>
<text xml:space="preserve" text-anchor="middle" x="6922.94" y="-55.53" font-family="Times,serif" font-size="14.00">File: ./hex&#45;profile&#45;collection/startup/01&#45;globals.py</text>
<text xml:space="preserve" text-anchor="middle" x="6922.94" y="-39.03" font-family="Times,serif" font-size="14.00">Methods: 0</text>
<text xml:space="preserve" text-anchor="middle" x="6922.94" y="-22.53" font-family="Times,serif" font-size="14.00">Attributes: 3</text>
</g>
<!-- Enum&#45;&gt;ScanType -->
<g id="edge14" class="edge">
<title>Enum&#45;&gt;ScanType</title>
<path fill="none" stroke="black" d="M3782.47,-231.21C4111.17,-224.38 6087.49,-180.66 6682.94,-104.65 6709.51,-101.26 6737.49,-96.44 6764.59,-91.1"/>
<polygon fill="black" stroke="black" points="6765.14,-94.56 6774.26,-89.16 6763.77,-87.7 6765.14,-94.56"/>
</g>
<!-- TomoFrameType -->
<g id="node16" class="node">
<title>TomoFrameType</title>
<ellipse fill="none" stroke="black" cx="7402.94" cy="-52.33" rx="203.82" ry="52.33"/>
<text xml:space="preserve" text-anchor="middle" x="7402.94" y="-72.03" font-family="Times,serif" font-size="14.00">TomoFrameType</text>
<text xml:space="preserve" text-anchor="middle" x="7402.94" y="-55.53" font-family="Times,serif" font-size="14.00">File: ./hex&#45;profile&#45;collection/startup/01&#45;globals.py</text>
<text xml:space="preserve" text-anchor="middle" x="7402.94" y="-39.03" font-family="Times,serif" font-size="14.00">Methods: 0</text>
<text xml:space="preserve" text-anchor="middle" x="7402.94" y="-22.53" font-family="Times,serif" font-size="14.00">Attributes: 3</text>
</g>
<!-- Enum&#45;&gt;TomoFrameType -->
<g id="edge15" class="edge">
<title>Enum&#45;&gt;TomoFrameType</title>
<path fill="none" stroke="black" d="M3782.66,-231.53C4141.57,-226.58 6465.79,-191.5 7162.94,-104.65 7189.61,-101.33 7217.7,-96.53 7244.9,-91.18"/>
<polygon fill="black" stroke="black" points="7245.48,-94.64 7254.6,-89.24 7244.1,-87.77 7245.48,-94.64"/>
</g>
</g>
</svg>
