<?xml version="1.0" encoding="UTF-8" standalone="no"?>
<!DOCTYPE svg PUBLIC "-//W3C//DTD SVG 1.1//EN"
 "http://www.w3.org/Graphics/SVG/1.1/DTD/svg11.dtd">
<!-- Generated by graphviz version 14.0.0 (20250921.2048)
 -->
<!-- Pages: 1 -->
<svg width="8679pt" height="262pt"
 viewBox="0.00 0.00 8679.00 262.00" xmlns="http://www.w3.org/2000/svg" xmlns:xlink="http://www.w3.org/1999/xlink">
<g id="graph0" class="graph" transform="scale(1 1) rotate(0) translate(4 257.65)">
<polygon fill="white" stroke="none" points="-4,4 -4,-257.65 8675.4,-257.65 8675.4,4 -4,4"/>
<!-- EpicsMotor -->
<g id="node1" class="node">
<title>EpicsMotor</title>
<polygon fill="lightblue" stroke="lightblue" points="4287.36,-253.65 4194.86,-253.65 4194.86,-212.65 4287.36,-212.65 4287.36,-253.65"/>
<text xml:space="preserve" text-anchor="middle" x="4241.11" y="-236.35" font-family="Times,serif" font-size="14.00">EpicsMotor</text>
<text xml:space="preserve" text-anchor="middle" x="4241.11" y="-219.85" font-family="Times,serif" font-size="14.00">(Parent Class)</text>
</g>
<!-- MresMotor -->
<g id="node2" class="node">
<title>MresMotor</title>
<ellipse fill="none" stroke="black" cx="200.11" cy="-52.33" rx="200.11" ry="52.33"/>
<text xml:space="preserve" text-anchor="middle" x="200.11" y="-72.03" font-family="Times,serif" font-size="14.00">MresMotor</text>
<text xml:space="preserve" text-anchor="middle" x="200.11" y="-55.53" font-family="Times,serif" font-size="14.00">File: ./tes&#45;profile&#45;collection/startup/20&#45;motors.py</text>
<text xml:space="preserve" text-anchor="middle" x="200.11" y="-39.03" font-family="Times,serif" font-size="14.00">Methods: 0</text>
<text xml:space="preserve" text-anchor="middle" x="200.11" y="-22.53" font-family="Times,serif" font-size="14.00">Attributes: 1</text>
</g>
<!-- EpicsMotor&#45;&gt;MresMotor -->
<g id="edge1" class="edge">
<title>EpicsMotor&#45;&gt;MresMotor</title>
<path fill="none" stroke="black" d="M4194.5,-231.74C3814.13,-228.25 1214.4,-201.05 437.11,-104.65 410.58,-101.36 382.63,-96.55 355.6,-91.16"/>
<polygon fill="black" stroke="black" points="356.46,-87.77 345.96,-89.21 355.07,-94.63 356.46,-87.77"/>
</g>
<!-- EpicsMotorSPMG -->
<g id="node3" class="node">
<title>EpicsMotorSPMG</title>
<ellipse fill="none" stroke="black" cx="679.11" cy="-52.33" rx="206.48" ry="52.33"/>
<text xml:space="preserve" text-anchor="middle" x="679.11" y="-72.03" font-family="Times,serif" font-size="14.00">EpicsMotorSPMG</text>
<text xml:space="preserve" text-anchor="middle" x="679.11" y="-55.53" font-family="Times,serif" font-size="14.00">File: ./amx&#45;profile&#45;collection/startup/10&#45;motors.py</text>
<text xml:space="preserve" text-anchor="middle" x="679.11" y="-39.03" font-family="Times,serif" font-size="14.00">Methods: 0</text>
<text xml:space="preserve" text-anchor="middle" x="679.11" y="-22.53" font-family="Times,serif" font-size="14.00">Attributes: 1</text>
</g>
<!-- EpicsMotor&#45;&gt;EpicsMotorSPMG -->
<g id="edge2" class="edge">
<title>EpicsMotor&#45;&gt;EpicsMotorSPMG</title>
<path fill="none" stroke="black" d="M4194.46,-231.45C3842.2,-226.03 1595.66,-188.51 921.11,-104.65 894.42,-101.33 866.31,-96.57 839.07,-91.26"/>
<polygon fill="black" stroke="black" points="839.84,-87.85 829.35,-89.33 838.47,-94.71 839.84,-87.85"/>
</g>
<!-- DeadbandEpicsMotor -->
<g id="node4" class="node">
<title>DeadbandEpicsMotor</title>
<ellipse fill="none" stroke="black" cx="1182.11" cy="-52.33" rx="224.51" ry="52.33"/>
<text xml:space="preserve" text-anchor="middle" x="1182.11" y="-72.03" font-family="Times,serif" font-size="14.00">DeadbandEpicsMotor</text>
<text xml:space="preserve" text-anchor="middle" x="1182.11" y="-55.53" font-family="Times,serif" font-size="14.00">File: ./bmm&#45;profile&#45;collection/startup/BMM/motors.py</text>
<text xml:space="preserve" text-anchor="middle" x="1182.11" y="-39.03" font-family="Times,serif" font-size="14.00">Methods: 0</text>
<text xml:space="preserve" text-anchor="middle" x="1182.11" y="-22.53" font-family="Times,serif" font-size="14.00">Attributes: 0</text>
</g>
<!-- EpicsMotor&#45;&gt;DeadbandEpicsMotor -->
<g id="edge3" class="edge">
<title>EpicsMotor&#45;&gt;DeadbandEpicsMotor</title>
<path fill="none" stroke="black" d="M4194.4,-230.98C3874.82,-222.83 2006.69,-172.85 1442.11,-104.65 1413.66,-101.21 1383.66,-96.41 1354.55,-91.11"/>
<polygon fill="black" stroke="black" points="1355.4,-87.71 1344.93,-89.33 1354.12,-94.59 1355.4,-87.71"/>
</g>
<!-- EpicsMotorWithDial -->
<g id="node5" class="node">
<title>EpicsMotorWithDial</title>
<ellipse fill="none" stroke="black" cx="1703.11" cy="-52.33" rx="224.51" ry="52.33"/>
<text xml:space="preserve" text-anchor="middle" x="1703.11" y="-72.03" font-family="Times,serif" font-size="14.00">EpicsMotorWithDial</text>
<text xml:space="preserve" text-anchor="middle" x="1703.11" y="-55.53" font-family="Times,serif" font-size="14.00">File: ./bmm&#45;profile&#45;collection/startup/BMM/motors.py</text>
<text xml:space="preserve" text-anchor="middle" x="1703.11" y="-39.03" font-family="Times,serif" font-size="14.00">Methods: 2</text>
<text xml:space="preserve" text-anchor="middle" x="1703.11" y="-22.53" font-family="Times,serif" font-size="14.00">Attributes: 2</text>
</g>
<!-- EpicsMotor&#45;&gt;EpicsMotorWithDial -->
<g id="edge4" class="edge">
<title>EpicsMotor&#45;&gt;EpicsMotorWithDial</title>
<path fill="none" stroke="black" d="M4194.38,-231.94C3956.35,-230.38 2855.21,-217.12 1963.11,-104.65 1934.88,-101.09 1905.11,-96.26 1876.2,-90.97"/>
<polygon fill="black" stroke="black" points="1877.12,-87.58 1866.65,-89.2 1875.85,-94.46 1877.12,-87.58"/>
</g>
<!-- FMBOEpicsMotor -->
<g id="node6" class="node">
<title>FMBOEpicsMotor</title>
<ellipse fill="none" stroke="black" cx="2224.11" cy="-52.33" rx="224.51" ry="52.33"/>
<text xml:space="preserve" text-anchor="middle" x="2224.11" y="-72.03" font-family="Times,serif" font-size="14.00">FMBOEpicsMotor</text>
<text xml:space="preserve" text-anchor="middle" x="2224.11" y="-55.53" font-family="Times,serif" font-size="14.00">File: ./bmm&#45;profile&#45;collection/startup/BMM/motors.py</text>
<text xml:space="preserve" text-anchor="middle" x="2224.11" y="-39.03" font-family="Times,serif" font-size="14.00">Methods: 5</text>
<text xml:space="preserve" text-anchor="middle" x="2224.11" y="-22.53" font-family="Times,serif" font-size="14.00">Attributes: 23</text>
</g>
<!-- EpicsMotor&#45;&gt;FMBOEpicsMotor -->
<g id="edge5" class="edge">
<title>EpicsMotor&#45;&gt;FMBOEpicsMotor</title>
<path fill="none" stroke="black" d="M4194.4,-230.86C3990.66,-224.8 3159.66,-195.5 2484.11,-104.65 2456.33,-100.92 2427.06,-96.05 2398.56,-90.81"/>
<polygon fill="black" stroke="black" points="2399.22,-87.37 2388.75,-88.98 2397.94,-94.25 2399.22,-87.37"/>
</g>
<!-- FMBOThinEpicsMotor -->
<g id="node7" class="node">
<title>FMBOThinEpicsMotor</title>
<ellipse fill="none" stroke="black" cx="2745.11" cy="-52.33" rx="224.51" ry="52.33"/>
<text xml:space="preserve" text-anchor="middle" x="2745.11" y="-72.03" font-family="Times,serif" font-size="14.00">FMBOThinEpicsMotor</text>
<text xml:space="preserve" text-anchor="middle" x="2745.11" y="-55.53" font-family="Times,serif" font-size="14.00">File: ./bmm&#45;profile&#45;collection/startup/BMM/motors.py</text>
<text xml:space="preserve" text-anchor="middle" x="2745.11" y="-39.03" font-family="Times,serif" font-size="14.00">Methods: 3</text>
<text xml:space="preserve" text-anchor="middle" x="2745.11" y="-22.53" font-family="Times,serif" font-size="14.00">Attributes: 12</text>
</g>
<!-- EpicsMotor&#45;&gt;FMBOThinEpicsMotor -->
<g id="edge6" class="edge">
<title>EpicsMotor&#45;&gt;FMBOThinEpicsMotor</title>
<path fill="none" stroke="black" d="M4194.62,-228.91C4030.99,-217.16 3466.72,-173.87 3005.11,-104.65 2977.8,-100.56 2948.99,-95.56 2920.91,-90.31"/>
<polygon fill="black" stroke="black" points="2921.73,-86.9 2911.25,-88.49 2920.43,-93.78 2921.73,-86.9"/>
</g>
<!-- EndStationEpicsMotor -->
<g id="node8" class="node">
<title>EndStationEpicsMotor</title>
<ellipse fill="none" stroke="black" cx="3266.11" cy="-52.33" rx="224.51" ry="52.33"/>
<text xml:space="preserve" text-anchor="middle" x="3266.11" y="-72.03" font-family="Times,serif" font-size="14.00">EndStationEpicsMotor</text>
<text xml:space="preserve" text-anchor="middle" x="3266.11" y="-55.53" font-family="Times,serif" font-size="14.00">File: ./bmm&#45;profile&#45;collection/startup/BMM/motors.py</text>
<text xml:space="preserve" text-anchor="middle" x="3266.11" y="-39.03" font-family="Times,serif" font-size="14.00">Methods: 3</text>
<text xml:space="preserve" text-anchor="middle" x="3266.11" y="-22.53" font-family="Times,serif" font-size="14.00">Attributes: 5</text>
</g>
<!-- EpicsMotor&#45;&gt;EndStationEpicsMotor -->
<g id="edge7" class="edge">
<title>EpicsMotor&#45;&gt;EndStationEpicsMotor</title>
<path fill="none" stroke="black" d="M4194.7,-224.15C4080.84,-204.47 3778.65,-151.84 3527.11,-104.65 3500.98,-99.75 3473.41,-94.46 3446.35,-89.2"/>
<polygon fill="black" stroke="black" points="3447.18,-85.79 3436.69,-87.32 3445.84,-92.66 3447.18,-85.79"/>
</g>
<!-- NanoMotor -->
<g id="node9" class="node">
<title>NanoMotor</title>
<ellipse fill="none" stroke="black" cx="3765.11" cy="-52.33" rx="202.23" ry="52.33"/>
<text xml:space="preserve" text-anchor="middle" x="3765.11" y="-72.03" font-family="Times,serif" font-size="14.00">NanoMotor</text>
<text xml:space="preserve" text-anchor="middle" x="3765.11" y="-55.53" font-family="Times,serif" font-size="14.00">File: ./csx&#45;profile&#45;collection/startup/02&#45;nanops.py</text>
<text xml:space="preserve" text-anchor="middle" x="3765.11" y="-39.03" font-family="Times,serif" font-size="14.00">Methods: 0</text>
<text xml:space="preserve" text-anchor="middle" x="3765.11" y="-22.53" font-family="Times,serif" font-size="14.00">Attributes: 11</text>
</g>
<!-- EpicsMotor&#45;&gt;NanoMotor -->
<g id="edge8" class="edge">
<title>EpicsMotor&#45;&gt;NanoMotor</title>
<path fill="none" stroke="black" d="M4194.6,-214.68C4124.45,-188.32 3989.13,-137.49 3889.05,-99.89"/>
<polygon fill="black" stroke="black" points="3890.58,-96.72 3879.98,-96.48 3888.11,-103.27 3890.58,-96.72"/>
</g>
<!-- NanoMotorOpenLoop -->
<g id="node10" class="node">
<title>NanoMotorOpenLoop</title>
<ellipse fill="none" stroke="black" cx="4241.11" cy="-52.33" rx="202.23" ry="52.33"/>
<text xml:space="preserve" text-anchor="middle" x="4241.11" y="-72.03" font-family="Times,serif" font-size="14.00">NanoMotorOpenLoop</text>
<text xml:space="preserve" text-anchor="middle" x="4241.11" y="-55.53" font-family="Times,serif" font-size="14.00">File: ./csx&#45;profile&#45;collection/startup/02&#45;nanops.py</text>
<text xml:space="preserve" text-anchor="middle" x="4241.11" y="-39.03" font-family="Times,serif" font-size="14.00">Methods: 2</text>
<text xml:space="preserve" text-anchor="middle" x="4241.11" y="-22.53" font-family="Times,serif" font-size="14.00">Attributes: 16</text>
</g>
<!-- EpicsMotor&#45;&gt;NanoMotorOpenLoop -->
<g id="edge9" class="edge">
<title>EpicsMotor&#45;&gt;NanoMotorOpenLoop</title>
<path fill="none" stroke="black" d="M4241.11,-212.33C4241.11,-189.21 4241.11,-149.84 4241.11,-116.06"/>
<polygon fill="black" stroke="black" points="4244.61,-116.37 4241.11,-106.37 4237.61,-116.37 4244.61,-116.37"/>
</g>
<!-- EpicsMotorWithLimits -->
<g id="node11" class="node">
<title>EpicsMotorWithLimits</title>
<ellipse fill="none" stroke="black" cx="4714.11" cy="-52.33" rx="198.52" ry="52.33"/>
<text xml:space="preserve" text-anchor="middle" x="4714.11" y="-72.03" font-family="Times,serif" font-size="14.00">EpicsMotorWithLimits</text>
<text xml:space="preserve" text-anchor="middle" x="4714.11" y="-55.53" font-family="Times,serif" font-size="14.00">File: ./opls&#45;profile&#45;collection/startup/zz&#45;dama.py</text>
<text xml:space="preserve" text-anchor="middle" x="4714.11" y="-39.03" font-family="Times,serif" font-size="14.00">Methods: 0</text>
<text xml:space="preserve" text-anchor="middle" x="4714.11" y="-22.53" font-family="Times,serif" font-size="14.00">Attributes: 2</text>
</g>
<!-- EpicsMotor&#45;&gt;EpicsMotorWithLimits -->
<g id="edge10" class="edge">
<title>EpicsMotor&#45;&gt;EpicsMotorWithLimits</title>
<path fill="none" stroke="black" d="M4287.76,-214.52C4357.58,-188.12 4491.67,-137.43 4590.9,-99.91"/>
<polygon fill="black" stroke="black" points="4592.08,-103.21 4600.19,-96.4 4589.6,-96.66 4592.08,-103.21"/>
</g>
<!-- InsertionDevice -->
<g id="node12" class="node">
<title>InsertionDevice</title>
<ellipse fill="none" stroke="black" cx="5225.11" cy="-52.33" rx="240.42" ry="52.33"/>
<text xml:space="preserve" text-anchor="middle" x="5225.11" y="-72.03" font-family="Times,serif" font-size="14.00">InsertionDevice</text>
<text xml:space="preserve" text-anchor="middle" x="5225.11" y="-55.53" font-family="Times,serif" font-size="14.00">File: ./smi&#45;profile&#45;collection/startup/smiclasses/machine.py</text>
<text xml:space="preserve" text-anchor="middle" x="5225.11" y="-39.03" font-family="Times,serif" font-size="14.00">Methods: 1</text>
<text xml:space="preserve" text-anchor="middle" x="5225.11" y="-22.53" font-family="Times,serif" font-size="14.00">Attributes: 1</text>
</g>
<!-- EpicsMotor&#45;&gt;InsertionDevice -->
<g id="edge11" class="edge">
<title>EpicsMotor&#45;&gt;InsertionDevice</title>
<path fill="none" stroke="black" d="M4287.52,-223.89C4400.66,-203.72 4699.72,-150.3 4949.11,-104.65 4976.2,-99.69 5004.77,-94.42 5032.86,-89.22"/>
<polygon fill="black" stroke="black" points="5033.33,-92.7 5042.53,-87.43 5032.05,-85.81 5033.33,-92.7"/>
</g>
<!-- MyBaseMotor -->
<g id="node13" class="node">
<title>MyBaseMotor</title>
<ellipse fill="none" stroke="black" cx="5753.11" cy="-52.33" rx="216.02" ry="52.33"/>
<text xml:space="preserve" text-anchor="middle" x="5753.11" y="-72.03" font-family="Times,serif" font-size="14.00">MyBaseMotor</text>
<text xml:space="preserve" text-anchor="middle" x="5753.11" y="-55.53" font-family="Times,serif" font-size="14.00">File: ./fxi&#45;profile&#45;collection/startup/11&#45;txm_motor.py</text>
<text xml:space="preserve" text-anchor="middle" x="5753.11" y="-39.03" font-family="Times,serif" font-size="14.00">Methods: 0</text>
<text xml:space="preserve" text-anchor="middle" x="5753.11" y="-22.53" font-family="Times,serif" font-size="14.00">Attributes: 11</text>
</g>
<!-- EpicsMotor&#45;&gt;MyBaseMotor -->
<g id="edge12" class="edge">
<title>EpicsMotor&#45;&gt;MyBaseMotor</title>
<path fill="none" stroke="black" d="M4287.66,-229.13C4453.39,-218.02 5029.96,-176.29 5501.11,-104.65 5527.69,-100.61 5555.7,-95.63 5583,-90.38"/>
<polygon fill="black" stroke="black" points="5583.61,-93.83 5592.76,-88.48 5582.27,-86.96 5583.61,-93.83"/>
</g>
<!-- EpicsGapMotor -->
<g id="node14" class="node">
<title>EpicsGapMotor</title>
<ellipse fill="none" stroke="black" cx="6288.11" cy="-52.33" rx="247.31" ry="52.33"/>
<text xml:space="preserve" text-anchor="middle" x="6288.11" y="-72.03" font-family="Times,serif" font-size="14.00">EpicsGapMotor</text>
<text xml:space="preserve" text-anchor="middle" x="6288.11" y="-55.53" font-family="Times,serif" font-size="14.00">File: ./lix&#45;profile&#45;collection/startup/components/14&#45;energy.py</text>
<text xml:space="preserve" text-anchor="middle" x="6288.11" y="-39.03" font-family="Times,serif" font-size="14.00">Methods: 2</text>
<text xml:space="preserve" text-anchor="middle" x="6288.11" y="-22.53" font-family="Times,serif" font-size="14.00">Attributes: 1</text>
</g>
<!-- EpicsMotor&#45;&gt;EpicsGapMotor -->
<g id="edge13" class="edge">
<title>EpicsMotor&#45;&gt;EpicsGapMotor</title>
<path fill="none" stroke="black" d="M4287.63,-230.62C4491.45,-223.55 5325.8,-190.55 6005.11,-104.65 6035.36,-100.83 6067.27,-95.91 6098.34,-90.63"/>
<polygon fill="black" stroke="black" points="6098.53,-94.15 6107.8,-89.01 6097.35,-87.25 6098.53,-94.15"/>
</g>
<!-- StuckingEpicsMotor -->
<g id="node15" class="node">
<title>StuckingEpicsMotor</title>
<ellipse fill="none" stroke="black" cx="6854.11" cy="-52.33" rx="246.25" ry="52.33"/>
<text xml:space="preserve" text-anchor="middle" x="6854.11" y="-72.03" font-family="Times,serif" font-size="14.00">StuckingEpicsMotor</text>
<text xml:space="preserve" text-anchor="middle" x="6854.11" y="-55.53" font-family="Times,serif" font-size="14.00">File: ./iss&#45;profile&#45;collection/startup/05&#45;aux_ophyd_classes.py</text>
<text xml:space="preserve" text-anchor="middle" x="6854.11" y="-39.03" font-family="Times,serif" font-size="14.00">Methods: 3</text>
<text xml:space="preserve" text-anchor="middle" x="6854.11" y="-22.53" font-family="Times,serif" font-size="14.00">Attributes: 6</text>
</g>
<!-- EpicsMotor&#45;&gt;StuckingEpicsMotor -->
<g id="edge14" class="edge">
<title>EpicsMotor&#45;&gt;StuckingEpicsMotor</title>
<path fill="none" stroke="black" d="M4287.68,-231.76C4528.46,-229.29 5656.27,-212.22 6571.11,-104.65 6601.83,-101.04 6634.26,-96.17 6665.76,-90.86"/>
<polygon fill="black" stroke="black" points="6666.1,-94.36 6675.37,-89.22 6664.92,-87.46 6666.1,-94.36"/>
</g>
<!-- EpicsMotorThatCannotReachTheTargetProperly -->
<g id="node16" class="node">
<title>EpicsMotorThatCannotReachTheTargetProperly</title>
<ellipse fill="none" stroke="black" cx="7418.11" cy="-52.33" rx="246.25" ry="52.33"/>
<text xml:space="preserve" text-anchor="middle" x="7418.11" y="-72.03" font-family="Times,serif" font-size="14.00">EpicsMotorThatCannotReachTheTargetProperly</text>
<text xml:space="preserve" text-anchor="middle" x="7418.11" y="-55.53" font-family="Times,serif" font-size="14.00">File: ./iss&#45;profile&#45;collection/startup/05&#45;aux_ophyd_classes.py</text>
<text xml:space="preserve" text-anchor="middle" x="7418.11" y="-39.03" font-family="Times,serif" font-size="14.00">Methods: 2</text>
<text xml:space="preserve" text-anchor="middle" x="7418.11" y="-22.53" font-family="Times,serif" font-size="14.00">Attributes: 2</text>
</g>
<!-- EpicsMotor&#45;&gt;EpicsMotorThatCannotReachTheTargetProperly -->
<g id="edge15" class="edge">
<title>EpicsMotor&#45;&gt;EpicsMotorThatCannotReachTheTargetProperly</title>
<path fill="none" stroke="black" d="M4287.7,-232.47C4561.1,-233.84 5984.38,-234.22 7136.11,-104.65 7166.85,-101.19 7199.3,-96.39 7230.8,-91.09"/>
<polygon fill="black" stroke="black" points="7231.14,-94.59 7240.41,-89.46 7229.96,-87.69 7231.14,-94.59"/>
</g>
<!-- MotorWithEncoder -->
<g id="node17" class="node">
<title>MotorWithEncoder</title>
<ellipse fill="none" stroke="black" cx="7964.11" cy="-52.33" rx="228.22" ry="52.33"/>
<text xml:space="preserve" text-anchor="middle" x="7964.11" y="-72.03" font-family="Times,serif" font-size="14.00">MotorWithEncoder</text>
<text xml:space="preserve" text-anchor="middle" x="7964.11" y="-55.53" font-family="Times,serif" font-size="14.00">File: ./fmx&#45;profile&#45;collection/startup/27&#45;chip_scanner.py</text>
<text xml:space="preserve" text-anchor="middle" x="7964.11" y="-39.03" font-family="Times,serif" font-size="14.00">Methods: 0</text>
<text xml:space="preserve" text-anchor="middle" x="7964.11" y="-22.53" font-family="Times,serif" font-size="14.00">Attributes: 1</text>
</g>
<!-- EpicsMotor&#45;&gt;MotorWithEncoder -->
<g id="edge16" class="edge">
<title>EpicsMotor&#45;&gt;MotorWithEncoder</title>
<path fill="none" stroke="black" d="M4287.68,-231.43C4647.91,-225.7 6995.28,-185.66 7700.11,-104.65 7729.11,-101.32 7759.69,-96.55 7789.34,-91.25"/>
<polygon fill="black" stroke="black" points="7789.96,-94.7 7799.17,-89.47 7788.71,-87.81 7789.96,-94.7"/>
</g>
<!-- EpicsMotorWithDescription -->
<g id="node18" class="node">
<title>EpicsMotorWithDescription</title>
<ellipse fill="none" stroke="black" cx="8468.11" cy="-52.33" rx="203.29" ry="52.33"/>
<text xml:space="preserve" text-anchor="middle" x="8468.11" y="-72.03" font-family="Times,serif" font-size="14.00">EpicsMotorWithDescription</text>
<text xml:space="preserve" text-anchor="middle" x="8468.11" y="-55.53" font-family="Times,serif" font-size="14.00">File: ./hex&#45;profile&#45;collection/startup/03&#45;motors.py</text>
<text xml:space="preserve" text-anchor="middle" x="8468.11" y="-39.03" font-family="Times,serif" font-size="14.00">Methods: 0</text>
<text xml:space="preserve" text-anchor="middle" x="8468.11" y="-22.53" font-family="Times,serif" font-size="14.00">Attributes: 1</text>
</g>
<!-- EpicsMotor&#45;&gt;EpicsMotorWithDescription -->
<g id="edge17" class="edge">
<title>EpicsMotor&#45;&gt;EpicsMotorWithDescription</title>
<path fill="none" stroke="black" d="M4287.78,-231.81C4678.55,-228.78 7411.76,-204.18 8228.11,-104.65 8254.88,-101.39 8283.07,-96.6 8310.36,-91.25"/>
<polygon fill="black" stroke="black" points="8310.98,-94.69 8320.1,-89.3 8309.61,-87.83 8310.98,-94.69"/>
</g>
</g>
</svg>
