<?xml version="1.0" encoding="UTF-8" standalone="no"?>
<!DOCTYPE svg PUBLIC "-//W3C//DTD SVG 1.1//EN"
 "http://www.w3.org/Graphics/SVG/1.1/DTD/svg11.dtd">
<!-- Generated by graphviz version 14.0.0 (20250921.2048)
 -->
<!-- Pages: 1 -->
<svg width="1474pt" height="262pt"
 viewBox="0.00 0.00 1474.00 262.00" xmlns="http://www.w3.org/2000/svg" xmlns:xlink="http://www.w3.org/1999/xlink">
<g id="graph0" class="graph" transform="scale(1 1) rotate(0) translate(4 257.65)">
<polygon fill="white" stroke="none" points="-4,4 -4,-257.65 1469.92,-257.65 1469.92,4 -4,4"/>
<!-- EpicsSignalRO -->
<g id="node1" class="node">
<title>EpicsSignalRO</title>
<polygon fill="lightblue" stroke="lightblue" points="739.87,-253.65 640.62,-253.65 640.62,-212.65 739.87,-212.65 739.87,-253.65"/>
<text xml:space="preserve" text-anchor="middle" x="690.25" y="-236.35" font-family="Times,serif" font-size="14.00">EpicsSignalRO</text>
<text xml:space="preserve" text-anchor="middle" x="690.25" y="-219.85" font-family="Times,serif" font-size="14.00">(Parent Class)</text>
</g>
<!-- EpicsSignalOverridePrecRO -->
<g id="node2" class="node">
<title>EpicsSignalOverridePrecRO</title>
<ellipse fill="none" stroke="black" cx="211.25" cy="-52.33" rx="211.25" ry="52.33"/>
<text xml:space="preserve" text-anchor="middle" x="211.25" y="-72.03" font-family="Times,serif" font-size="14.00">EpicsSignalOverridePrecRO</text>
<text xml:space="preserve" text-anchor="middle" x="211.25" y="-55.53" font-family="Times,serif" font-size="14.00">File: ./opls&#45;profile&#45;collection/startup/09&#45;machine.py</text>
<text xml:space="preserve" text-anchor="middle" x="211.25" y="-39.03" font-family="Times,serif" font-size="14.00">Methods: 2</text>
<text xml:space="preserve" text-anchor="middle" x="211.25" y="-22.53" font-family="Times,serif" font-size="14.00">Attributes: 1</text>
</g>
<!-- EpicsSignalRO&#45;&gt;EpicsSignalOverridePrecRO -->
<g id="edge1" class="edge">
<title>EpicsSignalRO&#45;&gt;EpicsSignalOverridePrecRO</title>
<path fill="none" stroke="black" d="M640.34,-213.52C569.25,-186.98 436.47,-137.41 337.36,-100.41"/>
<polygon fill="black" stroke="black" points="338.67,-97.16 328.08,-96.94 336.23,-103.72 338.67,-97.16"/>
</g>
<!-- EpicsSignalROLazyier -->
<g id="node3" class="node">
<title>EpicsSignalROLazyier</title>
<ellipse fill="none" stroke="black" cx="690.25" cy="-52.33" rx="195.87" ry="52.33"/>
<text xml:space="preserve" text-anchor="middle" x="690.25" y="-72.03" font-family="Times,serif" font-size="14.00">EpicsSignalROLazyier</text>
<text xml:space="preserve" text-anchor="middle" x="690.25" y="-55.53" font-family="Times,serif" font-size="14.00">File: ./srx&#45;profile&#45;collection/startup/30&#45;scaler.py</text>
<text xml:space="preserve" text-anchor="middle" x="690.25" y="-39.03" font-family="Times,serif" font-size="14.00">Methods: 1</text>
<text xml:space="preserve" text-anchor="middle" x="690.25" y="-22.53" font-family="Times,serif" font-size="14.00">Attributes: 0</text>
</g>
<!-- EpicsSignalRO&#45;&gt;EpicsSignalROLazyier -->
<g id="edge2" class="edge">
<title>EpicsSignalRO&#45;&gt;EpicsSignalROLazyier</title>
<path fill="none" stroke="black" d="M690.25,-212.33C690.25,-189.21 690.25,-149.84 690.25,-116.06"/>
<polygon fill="black" stroke="black" points="693.75,-116.37 690.25,-106.37 686.75,-116.37 693.75,-116.37"/>
</g>
<!-- Potentiostat -->
<g id="node4" class="node">
<title>Potentiostat</title>
<ellipse fill="none" stroke="black" cx="1212.25" cy="-52.33" rx="253.67" ry="52.33"/>
<text xml:space="preserve" text-anchor="middle" x="1212.25" y="-72.03" font-family="Times,serif" font-size="14.00">Potentiostat</text>
<text xml:space="preserve" text-anchor="middle" x="1212.25" y="-55.53" font-family="Times,serif" font-size="14.00">File: ./iss&#45;profile&#45;collection/startup/25&#45;sample_environment.py</text>
<text xml:space="preserve" text-anchor="middle" x="1212.25" y="-39.03" font-family="Times,serif" font-size="14.00">Methods: 1</text>
<text xml:space="preserve" text-anchor="middle" x="1212.25" y="-22.53" font-family="Times,serif" font-size="14.00">Attributes: 1</text>
</g>
<!-- EpicsSignalRO&#45;&gt;Potentiostat -->
<g id="edge3" class="edge">
<title>EpicsSignalRO&#45;&gt;Potentiostat</title>
<path fill="none" stroke="black" d="M740.3,-215.01C815.93,-189.1 962.15,-139.01 1071.88,-101.41"/>
<polygon fill="black" stroke="black" points="1072.96,-104.74 1081.29,-98.19 1070.69,-98.12 1072.96,-104.74"/>
</g>
</g>
</svg>
