<?xml version="1.0" encoding="UTF-8" standalone="no"?>
<!DOCTYPE svg PUBLIC "-//W3C//DTD SVG 1.1//EN"
 "http://www.w3.org/Graphics/SVG/1.1/DTD/svg11.dtd">
<!-- Generated by graphviz version 14.0.0 (20250921.2048)
 -->
<!-- Pages: 1 -->
<svg width="8921pt" height="262pt"
 viewBox="0.00 0.00 8921.00 262.00" xmlns="http://www.w3.org/2000/svg" xmlns:xlink="http://www.w3.org/1999/xlink">
<g id="graph0" class="graph" transform="scale(1 1) rotate(0) translate(4 257.65)">
<polygon fill="white" stroke="none" points="-4,4 -4,-257.65 8916.62,-257.65 8916.62,4 -4,4"/>
<!-- EpicsSignal -->
<g id="node1" class="node">
<title>EpicsSignal</title>
<polygon fill="lightblue" stroke="lightblue" points="4507.3,-253.65 4414.8,-253.65 4414.8,-212.65 4507.3,-212.65 4507.3,-253.65"/>
<text xml:space="preserve" text-anchor="middle" x="4461.05" y="-236.35" font-family="Times,serif" font-size="14.00">EpicsSignal</text>
<text xml:space="preserve" text-anchor="middle" x="4461.05" y="-219.85" font-family="Times,serif" font-size="14.00">(Parent Class)</text>
</g>
<!-- ZebraSignalWithRBV -->
<g id="node2" class="node">
<title>ZebraSignalWithRBV</title>
<ellipse fill="none" stroke="black" cx="199.05" cy="-52.33" rx="199.05" ry="52.33"/>
<text xml:space="preserve" text-anchor="middle" x="199.05" y="-72.03" font-family="Times,serif" font-size="14.00">ZebraSignalWithRBV</text>
<text xml:space="preserve" text-anchor="middle" x="199.05" y="-55.53" font-family="Times,serif" font-size="14.00">File: ./fmx&#45;profile&#45;collection/startup/26&#45;zebra.py</text>
<text xml:space="preserve" text-anchor="middle" x="199.05" y="-39.03" font-family="Times,serif" font-size="14.00">Methods: 1</text>
<text xml:space="preserve" text-anchor="middle" x="199.05" y="-22.53" font-family="Times,serif" font-size="14.00">Attributes: 0</text>
</g>
<!-- EpicsSignal&#45;&gt;ZebraSignalWithRBV -->
<g id="edge1" class="edge">
<title>EpicsSignal&#45;&gt;ZebraSignalWithRBV</title>
<path fill="none" stroke="black" d="M4414.54,-231.86C4022.1,-229.18 1258.81,-206.9 434.05,-104.65 407.82,-101.4 380.21,-96.62 353.48,-91.27"/>
<polygon fill="black" stroke="black" points="354.48,-87.9 343.98,-89.33 353.08,-94.76 354.48,-87.9"/>
</g>
<!-- ZebraArmSignalWithRBV -->
<g id="node3" class="node">
<title>ZebraArmSignalWithRBV</title>
<ellipse fill="none" stroke="black" cx="669.05" cy="-52.33" rx="199.05" ry="52.33"/>
<text xml:space="preserve" text-anchor="middle" x="669.05" y="-72.03" font-family="Times,serif" font-size="14.00">ZebraArmSignalWithRBV</text>
<text xml:space="preserve" text-anchor="middle" x="669.05" y="-55.53" font-family="Times,serif" font-size="14.00">File: ./fmx&#45;profile&#45;collection/startup/26&#45;zebra.py</text>
<text xml:space="preserve" text-anchor="middle" x="669.05" y="-39.03" font-family="Times,serif" font-size="14.00">Methods: 1</text>
<text xml:space="preserve" text-anchor="middle" x="669.05" y="-22.53" font-family="Times,serif" font-size="14.00">Attributes: 0</text>
</g>
<!-- EpicsSignal&#45;&gt;ZebraArmSignalWithRBV -->
<g id="edge2" class="edge">
<title>EpicsSignal&#45;&gt;ZebraArmSignalWithRBV</title>
<path fill="none" stroke="black" d="M4414.32,-231.63C4047.69,-227.36 1628.63,-196.02 904.05,-104.65 877.83,-101.35 850.22,-96.54 823.5,-91.17"/>
<polygon fill="black" stroke="black" points="824.49,-87.8 813.99,-89.23 823.09,-94.66 824.49,-87.8"/>
</g>
<!-- ZebraDisarmSignalWithRBV -->
<g id="node4" class="node">
<title>ZebraDisarmSignalWithRBV</title>
<ellipse fill="none" stroke="black" cx="1139.05" cy="-52.33" rx="199.05" ry="52.33"/>
<text xml:space="preserve" text-anchor="middle" x="1139.05" y="-72.03" font-family="Times,serif" font-size="14.00">ZebraDisarmSignalWithRBV</text>
<text xml:space="preserve" text-anchor="middle" x="1139.05" y="-55.53" font-family="Times,serif" font-size="14.00">File: ./fmx&#45;profile&#45;collection/startup/26&#45;zebra.py</text>
<text xml:space="preserve" text-anchor="middle" x="1139.05" y="-39.03" font-family="Times,serif" font-size="14.00">Methods: 1</text>
<text xml:space="preserve" text-anchor="middle" x="1139.05" y="-22.53" font-family="Times,serif" font-size="14.00">Attributes: 0</text>
</g>
<!-- EpicsSignal&#45;&gt;ZebraDisarmSignalWithRBV -->
<g id="edge3" class="edge">
<title>EpicsSignal&#45;&gt;ZebraDisarmSignalWithRBV</title>
<path fill="none" stroke="black" d="M4414.49,-231.34C4076.81,-225.29 1998.98,-185.18 1374.05,-104.65 1347.93,-101.29 1320.42,-96.46 1293.79,-91.11"/>
<polygon fill="black" stroke="black" points="1294.82,-87.75 1284.32,-89.17 1293.41,-94.6 1294.82,-87.75"/>
</g>
<!-- PBSignalWithRBV -->
<g id="node5" class="node">
<title>PBSignalWithRBV</title>
<ellipse fill="none" stroke="black" cx="1632.05" cy="-52.33" rx="221.85" ry="52.33"/>
<text xml:space="preserve" text-anchor="middle" x="1632.05" y="-72.03" font-family="Times,serif" font-size="14.00">PBSignalWithRBV</text>
<text xml:space="preserve" text-anchor="middle" x="1632.05" y="-55.53" font-family="Times,serif" font-size="14.00">File: ./fmx&#45;profile&#45;collection/startup/24&#45;powerbrick.py</text>
<text xml:space="preserve" text-anchor="middle" x="1632.05" y="-39.03" font-family="Times,serif" font-size="14.00">Methods: 1</text>
<text xml:space="preserve" text-anchor="middle" x="1632.05" y="-22.53" font-family="Times,serif" font-size="14.00">Attributes: 0</text>
</g>
<!-- EpicsSignal&#45;&gt;PBSignalWithRBV -->
<g id="edge4" class="edge">
<title>EpicsSignal&#45;&gt;PBSignalWithRBV</title>
<path fill="none" stroke="black" d="M4414.33,-232.4C4158.71,-233.24 2903.97,-230.46 1889.05,-104.65 1861.02,-101.18 1831.48,-96.37 1802.8,-91.08"/>
<polygon fill="black" stroke="black" points="1803.82,-87.71 1793.34,-89.31 1802.53,-94.59 1803.82,-87.71"/>
</g>
<!-- RobotTaskSignal -->
<g id="node6" class="node">
<title>RobotTaskSignal</title>
<ellipse fill="none" stroke="black" cx="2125.05" cy="-52.33" rx="199.58" ry="52.33"/>
<text xml:space="preserve" text-anchor="middle" x="2125.05" y="-72.03" font-family="Times,serif" font-size="14.00">RobotTaskSignal</text>
<text xml:space="preserve" text-anchor="middle" x="2125.05" y="-55.53" font-family="Times,serif" font-size="14.00">File: ./amx&#45;profile&#45;collection/startup/26&#45;robot.py</text>
<text xml:space="preserve" text-anchor="middle" x="2125.05" y="-39.03" font-family="Times,serif" font-size="14.00">Methods: 1</text>
<text xml:space="preserve" text-anchor="middle" x="2125.05" y="-22.53" font-family="Times,serif" font-size="14.00">Attributes: 3</text>
</g>
<!-- EpicsSignal&#45;&gt;RobotTaskSignal -->
<g id="edge5" class="edge">
<title>EpicsSignal&#45;&gt;RobotTaskSignal</title>
<path fill="none" stroke="black" d="M4414.58,-231.98C4188.09,-230.6 3177.63,-218.05 2360.05,-104.65 2334.44,-101.1 2307.48,-96.26 2281.31,-90.97"/>
<polygon fill="black" stroke="black" points="2282.13,-87.57 2271.63,-88.99 2280.72,-94.43 2282.13,-87.57"/>
</g>
<!-- RobotVariableSignal -->
<g id="node7" class="node">
<title>RobotVariableSignal</title>
<ellipse fill="none" stroke="black" cx="2596.05" cy="-52.33" rx="199.58" ry="52.33"/>
<text xml:space="preserve" text-anchor="middle" x="2596.05" y="-72.03" font-family="Times,serif" font-size="14.00">RobotVariableSignal</text>
<text xml:space="preserve" text-anchor="middle" x="2596.05" y="-55.53" font-family="Times,serif" font-size="14.00">File: ./amx&#45;profile&#45;collection/startup/26&#45;robot.py</text>
<text xml:space="preserve" text-anchor="middle" x="2596.05" y="-39.03" font-family="Times,serif" font-size="14.00">Methods: 1</text>
<text xml:space="preserve" text-anchor="middle" x="2596.05" y="-22.53" font-family="Times,serif" font-size="14.00">Attributes: 0</text>
</g>
<!-- EpicsSignal&#45;&gt;RobotVariableSignal -->
<g id="edge6" class="edge">
<title>EpicsSignal&#45;&gt;RobotVariableSignal</title>
<path fill="none" stroke="black" d="M4414.44,-230.84C4219.83,-224.88 3453.39,-196.51 2831.05,-104.65 2805.66,-100.9 2778.91,-96 2752.92,-90.7"/>
<polygon fill="black" stroke="black" points="2753.82,-87.31 2743.32,-88.72 2752.4,-94.17 2753.82,-87.31"/>
</g>
<!-- EpicsSignalLastElement -->
<g id="node8" class="node">
<title>EpicsSignalLastElement</title>
<ellipse fill="none" stroke="black" cx="3102.05" cy="-52.33" rx="234.58" ry="52.33"/>
<text xml:space="preserve" text-anchor="middle" x="3102.05" y="-72.03" font-family="Times,serif" font-size="14.00">EpicsSignalLastElement</text>
<text xml:space="preserve" text-anchor="middle" x="3102.05" y="-55.53" font-family="Times,serif" font-size="14.00">File: ./esm&#45;arpes&#45;profile&#45;collection/startup/10&#45;machine.py</text>
<text xml:space="preserve" text-anchor="middle" x="3102.05" y="-39.03" font-family="Times,serif" font-size="14.00">Methods: 1</text>
<text xml:space="preserve" text-anchor="middle" x="3102.05" y="-22.53" font-family="Times,serif" font-size="14.00">Attributes: 0</text>
</g>
<!-- EpicsSignal&#45;&gt;EpicsSignalLastElement -->
<g id="edge7" class="edge">
<title>EpicsSignal&#45;&gt;EpicsSignalLastElement</title>
<path fill="none" stroke="black" d="M4414.5,-227.88C4263.62,-213.79 3774.65,-166.13 3373.05,-104.65 3344.93,-100.35 3315.27,-95.28 3286.29,-90.03"/>
<polygon fill="black" stroke="black" points="3287.18,-86.63 3276.71,-88.28 3285.92,-93.52 3287.18,-86.63"/>
</g>
<!-- DelayGeneratorChan -->
<g id="node9" class="node">
<title>DelayGeneratorChan</title>
<ellipse fill="none" stroke="black" cx="3647.05" cy="-52.33" rx="238.29" ry="52.33"/>
<text xml:space="preserve" text-anchor="middle" x="3647.05" y="-72.03" font-family="Times,serif" font-size="14.00">DelayGeneratorChan</text>
<text xml:space="preserve" text-anchor="middle" x="3647.05" y="-55.53" font-family="Times,serif" font-size="14.00">File: ./esm&#45;arpes&#45;profile&#45;collection/startup/48&#45;lakeshore.py</text>
<text xml:space="preserve" text-anchor="middle" x="3647.05" y="-39.03" font-family="Times,serif" font-size="14.00">Methods: 1</text>
<text xml:space="preserve" text-anchor="middle" x="3647.05" y="-22.53" font-family="Times,serif" font-size="14.00">Attributes: 0</text>
</g>
<!-- EpicsSignal&#45;&gt;DelayGeneratorChan -->
<g id="edge8" class="edge">
<title>EpicsSignal&#45;&gt;DelayGeneratorChan</title>
<path fill="none" stroke="black" d="M4414.36,-221.9C4302.57,-197.34 4014.77,-134.11 3825.17,-92.46"/>
<polygon fill="black" stroke="black" points="3825.95,-89.04 3815.43,-90.32 3824.45,-95.88 3825.95,-89.04"/>
</g>
<!-- PMACKiller -->
<g id="node10" class="node">
<title>PMACKiller</title>
<ellipse fill="none" stroke="black" cx="4200.05" cy="-52.33" rx="242.54" ry="52.33"/>
<text xml:space="preserve" text-anchor="middle" x="4200.05" y="-72.03" font-family="Times,serif" font-size="14.00">PMACKiller</text>
<text xml:space="preserve" text-anchor="middle" x="4200.05" y="-55.53" font-family="Times,serif" font-size="14.00">File: ./csx&#45;profile&#45;collection/startup/csx1/devices/devices.py</text>
<text xml:space="preserve" text-anchor="middle" x="4200.05" y="-39.03" font-family="Times,serif" font-size="14.00">Methods: 1</text>
<text xml:space="preserve" text-anchor="middle" x="4200.05" y="-22.53" font-family="Times,serif" font-size="14.00">Attributes: 1</text>
</g>
<!-- EpicsSignal&#45;&gt;PMACKiller -->
<g id="edge9" class="edge">
<title>EpicsSignal&#45;&gt;PMACKiller</title>
<path fill="none" stroke="black" d="M4431.87,-212.16C4395.74,-187.41 4332.71,-144.22 4281.49,-109.12"/>
<polygon fill="black" stroke="black" points="4283.54,-106.29 4273.32,-103.52 4279.59,-112.06 4283.54,-106.29"/>
</g>
<!-- DodgyEpicsSignal -->
<g id="node11" class="node">
<title>DodgyEpicsSignal</title>
<ellipse fill="none" stroke="black" cx="4723.05" cy="-52.33" rx="208.07" ry="52.33"/>
<text xml:space="preserve" text-anchor="middle" x="4723.05" y="-72.03" font-family="Times,serif" font-size="14.00">DodgyEpicsSignal</text>
<text xml:space="preserve" text-anchor="middle" x="4723.05" y="-55.53" font-family="Times,serif" font-size="14.00">File: ./ios&#45;profile&#45;collection/startup/20&#45;detectors.py</text>
<text xml:space="preserve" text-anchor="middle" x="4723.05" y="-39.03" font-family="Times,serif" font-size="14.00">Methods: 1</text>
<text xml:space="preserve" text-anchor="middle" x="4723.05" y="-22.53" font-family="Times,serif" font-size="14.00">Attributes: 2</text>
</g>
<!-- EpicsSignal&#45;&gt;DodgyEpicsSignal -->
<g id="edge10" class="edge">
<title>EpicsSignal&#45;&gt;DodgyEpicsSignal</title>
<path fill="none" stroke="black" d="M4490.34,-212.16C4526.86,-187.23 4590.76,-143.62 4642.37,-108.39"/>
<polygon fill="black" stroke="black" points="4644.32,-111.3 4650.6,-102.77 4640.37,-105.52 4644.32,-111.3"/>
</g>
<!-- EpicsSignalOverridePrec -->
<g id="node12" class="node">
<title>EpicsSignalOverridePrec</title>
<ellipse fill="none" stroke="black" cx="5214.05" cy="-52.33" rx="211.25" ry="52.33"/>
<text xml:space="preserve" text-anchor="middle" x="5214.05" y="-72.03" font-family="Times,serif" font-size="14.00">EpicsSignalOverridePrec</text>
<text xml:space="preserve" text-anchor="middle" x="5214.05" y="-55.53" font-family="Times,serif" font-size="14.00">File: ./opls&#45;profile&#45;collection/startup/09&#45;machine.py</text>
<text xml:space="preserve" text-anchor="middle" x="5214.05" y="-39.03" font-family="Times,serif" font-size="14.00">Methods: 2</text>
<text xml:space="preserve" text-anchor="middle" x="5214.05" y="-22.53" font-family="Times,serif" font-size="14.00">Attributes: 1</text>
</g>
<!-- EpicsSignal&#45;&gt;EpicsSignalOverridePrec -->
<g id="edge11" class="edge">
<title>EpicsSignal&#45;&gt;EpicsSignalOverridePrec</title>
<path fill="none" stroke="black" d="M4507.59,-221.1C4613.85,-195.87 4878.51,-133.01 5052.02,-91.81"/>
<polygon fill="black" stroke="black" points="5052.66,-95.25 5061.58,-89.54 5051.04,-88.44 5052.66,-95.25"/>
</g>
<!-- TwoPVShutter -->
<g id="node13" class="node">
<title>TwoPVShutter</title>
<ellipse fill="none" stroke="black" cx="5699.05" cy="-52.33" rx="201.7" ry="52.33"/>
<text xml:space="preserve" text-anchor="middle" x="5699.05" y="-72.03" font-family="Times,serif" font-size="14.00">TwoPVShutter</text>
<text xml:space="preserve" text-anchor="middle" x="5699.05" y="-55.53" font-family="Times,serif" font-size="14.00">File: ./chx&#45;profile&#45;collection/startup/25&#45;shutter.py</text>
<text xml:space="preserve" text-anchor="middle" x="5699.05" y="-39.03" font-family="Times,serif" font-size="14.00">Methods: 2</text>
<text xml:space="preserve" text-anchor="middle" x="5699.05" y="-22.53" font-family="Times,serif" font-size="14.00">Attributes: 0</text>
</g>
<!-- EpicsSignal&#45;&gt;TwoPVShutter -->
<g id="edge12" class="edge">
<title>EpicsSignal&#45;&gt;TwoPVShutter</title>
<path fill="none" stroke="black" d="M4507.61,-227.65C4650.6,-213.51 5095.77,-167.21 5461.05,-104.65 5486.02,-100.38 5512.35,-95.29 5538.02,-90"/>
<polygon fill="black" stroke="black" points="5538.42,-93.5 5547.5,-88.04 5537,-86.64 5538.42,-93.5"/>
</g>
<!-- CurrentSetterEpicSignal -->
<g id="node14" class="node">
<title>CurrentSetterEpicSignal</title>
<ellipse fill="none" stroke="black" cx="6168.05" cy="-52.33" rx="195.34" ry="52.33"/>
<text xml:space="preserve" text-anchor="middle" x="6168.05" y="-72.03" font-family="Times,serif" font-size="14.00">CurrentSetterEpicSignal</text>
<text xml:space="preserve" text-anchor="middle" x="6168.05" y="-55.53" font-family="Times,serif" font-size="14.00">File: ./xpd&#45;profile&#45;collection/startup/95&#45;flash.py</text>
<text xml:space="preserve" text-anchor="middle" x="6168.05" y="-39.03" font-family="Times,serif" font-size="14.00">Methods: 1</text>
<text xml:space="preserve" text-anchor="middle" x="6168.05" y="-22.53" font-family="Times,serif" font-size="14.00">Attributes: 0</text>
</g>
<!-- EpicsSignal&#45;&gt;CurrentSetterEpicSignal -->
<g id="edge13" class="edge">
<title>EpicsSignal&#45;&gt;CurrentSetterEpicSignal</title>
<path fill="none" stroke="black" d="M4507.54,-230.38C4690.47,-222.94 5378.08,-190.51 5937.05,-104.65 5961.9,-100.84 5988.07,-95.91 6013.5,-90.63"/>
<polygon fill="black" stroke="black" points="6014.2,-94.06 6023.26,-88.57 6012.76,-87.21 6014.2,-94.06"/>
</g>
<!-- CurrentEnable -->
<g id="node15" class="node">
<title>CurrentEnable</title>
<ellipse fill="none" stroke="black" cx="6631.05" cy="-52.33" rx="195.34" ry="52.33"/>
<text xml:space="preserve" text-anchor="middle" x="6631.05" y="-72.03" font-family="Times,serif" font-size="14.00">CurrentEnable</text>
<text xml:space="preserve" text-anchor="middle" x="6631.05" y="-55.53" font-family="Times,serif" font-size="14.00">File: ./xpd&#45;profile&#45;collection/startup/95&#45;flash.py</text>
<text xml:space="preserve" text-anchor="middle" x="6631.05" y="-39.03" font-family="Times,serif" font-size="14.00">Methods: 1</text>
<text xml:space="preserve" text-anchor="middle" x="6631.05" y="-22.53" font-family="Times,serif" font-size="14.00">Attributes: 0</text>
</g>
<!-- EpicsSignal&#45;&gt;CurrentEnable -->
<g id="edge14" class="edge">
<title>EpicsSignal&#45;&gt;CurrentEnable</title>
<path fill="none" stroke="black" d="M4507.46,-231.7C4723.19,-229.04 5649.24,-211.62 6399.05,-104.65 6424.51,-101.02 6451.33,-96.11 6477.33,-90.77"/>
<polygon fill="black" stroke="black" points="6477.87,-94.23 6486.94,-88.76 6476.44,-87.38 6477.87,-94.23"/>
</g>
<!-- FlakySignal -->
<g id="node16" class="node">
<title>FlakySignal</title>
<ellipse fill="none" stroke="black" cx="7094.05" cy="-52.33" rx="195.34" ry="52.33"/>
<text xml:space="preserve" text-anchor="middle" x="7094.05" y="-72.03" font-family="Times,serif" font-size="14.00">FlakySignal</text>
<text xml:space="preserve" text-anchor="middle" x="7094.05" y="-55.53" font-family="Times,serif" font-size="14.00">File: ./xpd&#45;profile&#45;collection/startup/95&#45;flash.py</text>
<text xml:space="preserve" text-anchor="middle" x="7094.05" y="-39.03" font-family="Times,serif" font-size="14.00">Methods: 1</text>
<text xml:space="preserve" text-anchor="middle" x="7094.05" y="-22.53" font-family="Times,serif" font-size="14.00">Attributes: 2</text>
</g>
<!-- EpicsSignal&#45;&gt;FlakySignal -->
<g id="edge15" class="edge">
<title>EpicsSignal&#45;&gt;FlakySignal</title>
<path fill="none" stroke="black" d="M4507.49,-232.52C4752.54,-233.89 5919.54,-233.04 6862.05,-104.65 6887.71,-101.16 6914.74,-96.29 6940.92,-90.93"/>
<polygon fill="black" stroke="black" points="6941.52,-94.38 6950.6,-88.92 6940.1,-87.53 6941.52,-94.38"/>
</g>
<!-- EpicsSignalAsEncoderForMotor -->
<g id="node17" class="node">
<title>EpicsSignalAsEncoderForMotor</title>
<ellipse fill="none" stroke="black" cx="7614.05" cy="-52.33" rx="252.61" ry="52.33"/>
<text xml:space="preserve" text-anchor="middle" x="7614.05" y="-72.03" font-family="Times,serif" font-size="14.00">EpicsSignalAsEncoderForMotor</text>
<text xml:space="preserve" text-anchor="middle" x="7614.05" y="-55.53" font-family="Times,serif" font-size="14.00">File: ./iss&#45;profile&#45;collection/startup/80&#45;johann_spectrometer.py</text>
<text xml:space="preserve" text-anchor="middle" x="7614.05" y="-39.03" font-family="Times,serif" font-size="14.00">Methods: 8</text>
<text xml:space="preserve" text-anchor="middle" x="7614.05" y="-22.53" font-family="Times,serif" font-size="14.00">Attributes: 11</text>
</g>
<!-- EpicsSignal&#45;&gt;EpicsSignalAsEncoderForMotor -->
<g id="edge16" class="edge">
<title>EpicsSignal&#45;&gt;EpicsSignalAsEncoderForMotor</title>
<path fill="none" stroke="black" d="M4507.58,-232.36C4779.09,-233.13 6186,-230.6 7325.05,-104.65 7356.43,-101.18 7389.54,-96.39 7421.71,-91.11"/>
<polygon fill="black" stroke="black" points="7422.27,-94.57 7431.56,-89.47 7421.12,-87.66 7422.27,-94.57"/>
</g>
<!-- EpicsSignalPrec -->
<g id="node18" class="node">
<title>EpicsSignalPrec</title>
<ellipse fill="none" stroke="black" cx="8164.05" cy="-52.33" rx="225.57" ry="52.33"/>
<text xml:space="preserve" text-anchor="middle" x="8164.05" y="-72.03" font-family="Times,serif" font-size="14.00">EpicsSignalPrec</text>
<text xml:space="preserve" text-anchor="middle" x="8164.05" y="-55.53" font-family="Times,serif" font-size="14.00">File: ./fmx&#45;profile&#45;collection/startup/09&#45;machine_99.py</text>
<text xml:space="preserve" text-anchor="middle" x="8164.05" y="-39.03" font-family="Times,serif" font-size="14.00">Methods: 1</text>
<text xml:space="preserve" text-anchor="middle" x="8164.05" y="-22.53" font-family="Times,serif" font-size="14.00">Attributes: 0</text>
</g>
<!-- EpicsSignal&#45;&gt;EpicsSignalPrec -->
<g id="edge17" class="edge">
<title>EpicsSignal&#45;&gt;EpicsSignalPrec</title>
<path fill="none" stroke="black" d="M4507.67,-231.43C4867.1,-225.75 7201.96,-186.06 7903.05,-104.65 7931.73,-101.32 7961.96,-96.56 7991.28,-91.26"/>
<polygon fill="black" stroke="black" points="7991.78,-94.73 8000.98,-89.48 7990.52,-87.84 7991.78,-94.73"/>
</g>
<!-- EpicsSignalROPrec -->
<g id="node19" class="node">
<title>EpicsSignalROPrec</title>
<ellipse fill="none" stroke="black" cx="8687.05" cy="-52.33" rx="225.57" ry="52.33"/>
<text xml:space="preserve" text-anchor="middle" x="8687.05" y="-72.03" font-family="Times,serif" font-size="14.00">EpicsSignalROPrec</text>
<text xml:space="preserve" text-anchor="middle" x="8687.05" y="-55.53" font-family="Times,serif" font-size="14.00">File: ./fmx&#45;profile&#45;collection/startup/09&#45;machine_99.py</text>
<text xml:space="preserve" text-anchor="middle" x="8687.05" y="-39.03" font-family="Times,serif" font-size="14.00">Methods: 1</text>
<text xml:space="preserve" text-anchor="middle" x="8687.05" y="-22.53" font-family="Times,serif" font-size="14.00">Attributes: 0</text>
</g>
<!-- EpicsSignal&#45;&gt;EpicsSignalROPrec -->
<g id="edge18" class="edge">
<title>EpicsSignal&#45;&gt;EpicsSignalROPrec</title>
<path fill="none" stroke="black" d="M4507.75,-231.69C4897.39,-227.72 7613.64,-196.98 8426.05,-104.65 8454.84,-101.38 8485.19,-96.63 8514.61,-91.32"/>
<polygon fill="black" stroke="black" points="8515.14,-94.78 8524.35,-89.54 8513.88,-87.9 8515.14,-94.78"/>
</g>
</g>
</svg>
