<?xml version="1.0" encoding="UTF-8" standalone="no"?>
<!DOCTYPE svg PUBLIC "-//W3C//DTD SVG 1.1//EN"
 "http://www.w3.org/Graphics/SVG/1.1/DTD/svg11.dtd">
<!-- Generated by graphviz version 14.0.0 (20250921.2048)
 -->
<!-- Pages: 1 -->
<svg width="2018pt" height="262pt"
 viewBox="0.00 0.00 2018.00 262.00" xmlns="http://www.w3.org/2000/svg" xmlns:xlink="http://www.w3.org/1999/xlink">
<g id="graph0" class="graph" transform="scale(1 1) rotate(0) translate(4 257.65)">
<polygon fill="white" stroke="none" points="-4,4 -4,-257.65 2013.75,-257.65 2013.75,4 -4,4"/>
<!-- EpicsScaler -->
<g id="node1" class="node">
<title>EpicsScaler</title>
<polygon fill="lightblue" stroke="lightblue" points="1104.14,-253.65 1011.64,-253.65 1011.64,-212.65 1104.14,-212.65 1104.14,-253.65"/>
<text xml:space="preserve" text-anchor="middle" x="1057.89" y="-236.35" font-family="Times,serif" font-size="14.00">EpicsScaler</text>
<text xml:space="preserve" text-anchor="middle" x="1057.89" y="-219.85" font-family="Times,serif" font-size="14.00">(Parent Class)</text>
</g>
<!-- GonioStruck -->
<g id="node2" class="node">
<title>GonioStruck</title>
<ellipse fill="none" stroke="black" cx="239.89" cy="-52.33" rx="239.89" ry="52.33"/>
<text xml:space="preserve" text-anchor="middle" x="239.89" y="-72.03" font-family="Times,serif" font-size="14.00">GonioStruck</text>
<text xml:space="preserve" text-anchor="middle" x="239.89" y="-55.53" font-family="Times,serif" font-size="14.00">File: ./bmm&#45;profile&#45;collection/startup/BMM/attic/struck.py</text>
<text xml:space="preserve" text-anchor="middle" x="239.89" y="-39.03" font-family="Times,serif" font-size="14.00">Methods: 4</text>
<text xml:space="preserve" text-anchor="middle" x="239.89" y="-22.53" font-family="Times,serif" font-size="14.00">Attributes: 0</text>
</g>
<!-- EpicsScaler&#45;&gt;GonioStruck -->
<g id="edge1" class="edge">
<title>EpicsScaler&#45;&gt;GonioStruck</title>
<path fill="none" stroke="black" d="M1011.27,-221.96C899.12,-197.44 609.47,-134.12 418.77,-92.43"/>
<polygon fill="black" stroke="black" points="419.77,-89.07 409.26,-90.35 418.28,-95.91 419.77,-89.07"/>
</g>
<!-- BMMVortex -->
<g id="node3" class="node">
<title>BMMVortex</title>
<ellipse fill="none" stroke="black" cx="791.89" cy="-52.33" rx="239.89" ry="52.33"/>
<text xml:space="preserve" text-anchor="middle" x="791.89" y="-72.03" font-family="Times,serif" font-size="14.00">BMMVortex</text>
<text xml:space="preserve" text-anchor="middle" x="791.89" y="-55.53" font-family="Times,serif" font-size="14.00">File: ./bmm&#45;profile&#45;collection/startup/BMM/attic/struck.py</text>
<text xml:space="preserve" text-anchor="middle" x="791.89" y="-39.03" font-family="Times,serif" font-size="14.00">Methods: 8</text>
<text xml:space="preserve" text-anchor="middle" x="791.89" y="-22.53" font-family="Times,serif" font-size="14.00">Attributes: 29</text>
</g>
<!-- EpicsScaler&#45;&gt;BMMVortex -->
<g id="edge2" class="edge">
<title>EpicsScaler&#45;&gt;BMMVortex</title>
<path fill="none" stroke="black" d="M1028.15,-212.16C991.19,-187.31 926.6,-143.89 874.29,-108.72"/>
<polygon fill="black" stroke="black" points="876.51,-106 866.26,-103.33 872.61,-111.81 876.51,-106"/>
</g>
<!-- FXIScaler -->
<g id="node4" class="node">
<title>FXIScaler</title>
<ellipse fill="none" stroke="black" cx="1324.89" cy="-52.33" rx="221.32" ry="52.33"/>
<text xml:space="preserve" text-anchor="middle" x="1324.89" y="-72.03" font-family="Times,serif" font-size="14.00">FXIScaler</text>
<text xml:space="preserve" text-anchor="middle" x="1324.89" y="-55.53" font-family="Times,serif" font-size="14.00">File: ./fxi&#45;profile&#45;collection/startup/05&#45;ion&#45;chamber.py</text>
<text xml:space="preserve" text-anchor="middle" x="1324.89" y="-39.03" font-family="Times,serif" font-size="14.00">Methods: 1</text>
<text xml:space="preserve" text-anchor="middle" x="1324.89" y="-22.53" font-family="Times,serif" font-size="14.00">Attributes: 42</text>
</g>
<!-- EpicsScaler&#45;&gt;FXIScaler -->
<g id="edge3" class="edge">
<title>EpicsScaler&#45;&gt;FXIScaler</title>
<path fill="none" stroke="black" d="M1087.74,-212.16C1124.96,-187.23 1190.12,-143.59 1242.72,-108.36"/>
<polygon fill="black" stroke="black" points="1244.43,-111.42 1250.79,-102.95 1240.54,-105.61 1244.43,-111.42"/>
</g>
<!-- SRXScaler -->
<g id="node5" class="node">
<title>SRXScaler</title>
<ellipse fill="none" stroke="black" cx="1813.89" cy="-52.33" rx="195.87" ry="52.33"/>
<text xml:space="preserve" text-anchor="middle" x="1813.89" y="-72.03" font-family="Times,serif" font-size="14.00">SRXScaler</text>
<text xml:space="preserve" text-anchor="middle" x="1813.89" y="-55.53" font-family="Times,serif" font-size="14.00">File: ./srx&#45;profile&#45;collection/startup/30&#45;scaler.py</text>
<text xml:space="preserve" text-anchor="middle" x="1813.89" y="-39.03" font-family="Times,serif" font-size="14.00">Methods: 1</text>
<text xml:space="preserve" text-anchor="middle" x="1813.89" y="-22.53" font-family="Times,serif" font-size="14.00">Attributes: 42</text>
</g>
<!-- EpicsScaler&#45;&gt;SRXScaler -->
<g id="edge4" class="edge">
<title>EpicsScaler&#45;&gt;SRXScaler</title>
<path fill="none" stroke="black" d="M1104.61,-221.1C1212.55,-195.57 1483.32,-131.52 1657.34,-90.36"/>
<polygon fill="black" stroke="black" points="1658,-93.8 1666.93,-88.09 1656.39,-86.98 1658,-93.8"/>
</g>
</g>
</svg>
