<?xml version="1.0" encoding="UTF-8" standalone="no"?>
<!DOCTYPE svg PUBLIC "-//W3C//DTD SVG 1.1//EN"
 "http://www.w3.org/Graphics/SVG/1.1/DTD/svg11.dtd">
<!-- Generated by graphviz version 14.0.0 (20250921.2048)
 -->
<!-- Pages: 1 -->
<svg width="11552pt" height="262pt"
 viewBox="0.00 0.00 11552.00 262.00" xmlns="http://www.w3.org/2000/svg" xmlns:xlink="http://www.w3.org/1999/xlink">
<g id="graph0" class="graph" transform="scale(1 1) rotate(0) translate(4 257.65)">
<polygon fill="white" stroke="none" points="-4,4 -4,-257.65 11548.25,-257.65 11548.25,4 -4,4"/>
<!-- Exception -->
<g id="node1" class="node">
<title>Exception</title>
<polygon fill="lightblue" stroke="lightblue" points="5954.57,-253.65 5862.07,-253.65 5862.07,-212.65 5954.57,-212.65 5954.57,-253.65"/>
<text xml:space="preserve" text-anchor="middle" x="5908.32" y="-236.35" font-family="Times,serif" font-size="14.00">Exception</text>
<text xml:space="preserve" text-anchor="middle" x="5908.32" y="-219.85" font-family="Times,serif" font-size="14.00">(Parent Class)</text>
</g>
<!-- ADCoreVersionCheckException -->
<g id="node2" class="node">
<title>ADCoreVersionCheckException</title>
<ellipse fill="none" stroke="black" cx="221.32" cy="-52.33" rx="221.32" ry="52.33"/>
<text xml:space="preserve" text-anchor="middle" x="221.32" y="-72.03" font-family="Times,serif" font-size="14.00">ADCoreVersionCheckException</text>
<text xml:space="preserve" text-anchor="middle" x="221.32" y="-55.53" font-family="Times,serif" font-size="14.00">File: ./qas&#45;profile&#45;collection/startup/80&#45;areadetector.py</text>
<text xml:space="preserve" text-anchor="middle" x="221.32" y="-39.03" font-family="Times,serif" font-size="14.00">Methods: 0</text>
<text xml:space="preserve" text-anchor="middle" x="221.32" y="-22.53" font-family="Times,serif" font-size="14.00">Attributes: 0</text>
</g>
<!-- Exception&#45;&gt;ADCoreVersionCheckException -->
<g id="edge1" class="edge">
<title>Exception&#45;&gt;ADCoreVersionCheckException</title>
<path fill="none" stroke="black" d="M5861.62,-232.18C5397.29,-232.29 1603.89,-229.3 478.32,-104.65 449.75,-101.49 419.63,-96.76 390.46,-91.43"/>
<polygon fill="black" stroke="black" points="391.3,-88.03 380.83,-89.64 390.02,-94.91 391.3,-88.03"/>
</g>
<!-- LustreNotConnectedError -->
<g id="node3" class="node">
<title>LustreNotConnectedError</title>
<ellipse fill="none" stroke="black" cx="728.32" cy="-52.33" rx="213.9" ry="52.33"/>
<text xml:space="preserve" text-anchor="middle" x="728.32" y="-72.03" font-family="Times,serif" font-size="14.00">LustreNotConnectedError</text>
<text xml:space="preserve" text-anchor="middle" x="728.32" y="-55.53" font-family="Times,serif" font-size="14.00">File: ./qas&#45;profile&#45;collection/startup/85&#45;apb_plans.py</text>
<text xml:space="preserve" text-anchor="middle" x="728.32" y="-39.03" font-family="Times,serif" font-size="14.00">Methods: 0</text>
<text xml:space="preserve" text-anchor="middle" x="728.32" y="-22.53" font-family="Times,serif" font-size="14.00">Attributes: 0</text>
</g>
<!-- Exception&#45;&gt;LustreNotConnectedError -->
<g id="edge2" class="edge">
<title>Exception&#45;&gt;LustreNotConnectedError</title>
<path fill="none" stroke="black" d="M5861.88,-232.09C5422.81,-231.3 1996.67,-221.43 978.32,-104.65 950.44,-101.45 921.05,-96.7 892.61,-91.35"/>
<polygon fill="black" stroke="black" points="893.3,-87.92 882.82,-89.47 891.98,-94.79 893.3,-87.92"/>
</g>
<!-- GovernorError -->
<g id="node4" class="node">
<title>GovernorError</title>
<ellipse fill="none" stroke="black" cx="1249.32" cy="-52.33" rx="235.11" ry="52.33"/>
<text xml:space="preserve" text-anchor="middle" x="1249.32" y="-72.03" font-family="Times,serif" font-size="14.00">GovernorError</text>
<text xml:space="preserve" text-anchor="middle" x="1249.32" y="-55.53" font-family="Times,serif" font-size="14.00">File: ./amx&#45;profile&#45;collection/startup/96&#45;top_alignment.py</text>
<text xml:space="preserve" text-anchor="middle" x="1249.32" y="-39.03" font-family="Times,serif" font-size="14.00">Methods: 1</text>
<text xml:space="preserve" text-anchor="middle" x="1249.32" y="-22.53" font-family="Times,serif" font-size="14.00">Attributes: 0</text>
</g>
<!-- Exception&#45;&gt;GovernorError -->
<g id="edge3" class="edge">
<title>Exception&#45;&gt;GovernorError</title>
<path fill="none" stroke="black" d="M5861.63,-231.82C5449.26,-228.7 2423.38,-202.67 1520.32,-104.65 1490.43,-101.41 1458.9,-96.67 1428.33,-91.36"/>
<polygon fill="black" stroke="black" points="1429.07,-87.93 1418.61,-89.64 1427.85,-94.83 1429.07,-87.93"/>
</g>
<!-- FailedDCMParaException -->
<g id="node5" class="node">
<title>FailedDCMParaException</title>
<ellipse fill="none" stroke="black" cx="1794.32" cy="-52.33" rx="238.29" ry="52.33"/>
<text xml:space="preserve" text-anchor="middle" x="1794.32" y="-72.03" font-family="Times,serif" font-size="14.00">FailedDCMParaException</text>
<text xml:space="preserve" text-anchor="middle" x="1794.32" y="-55.53" font-family="Times,serif" font-size="14.00">File: ./bmm&#45;profile&#45;collection/startup/BMM/exceptions.py</text>
<text xml:space="preserve" text-anchor="middle" x="1794.32" y="-39.03" font-family="Times,serif" font-size="14.00">Methods: 0</text>
<text xml:space="preserve" text-anchor="middle" x="1794.32" y="-22.53" font-family="Times,serif" font-size="14.00">Attributes: 0</text>
</g>
<!-- Exception&#45;&gt;FailedDCMParaException -->
<g id="edge4" class="edge">
<title>Exception&#45;&gt;FailedDCMParaException</title>
<path fill="none" stroke="black" d="M5861.61,-231.58C5478.99,-226.71 2855.29,-190.55 2069.32,-104.65 2038.88,-101.32 2006.74,-96.52 1975.6,-91.17"/>
<polygon fill="black" stroke="black" points="1976.57,-87.79 1966.12,-89.52 1975.37,-94.68 1976.57,-87.79"/>
</g>
<!-- ArrivedInModeException -->
<g id="node6" class="node">
<title>ArrivedInModeException</title>
<ellipse fill="none" stroke="black" cx="2343.32" cy="-52.33" rx="238.29" ry="52.33"/>
<text xml:space="preserve" text-anchor="middle" x="2343.32" y="-72.03" font-family="Times,serif" font-size="14.00">ArrivedInModeException</text>
<text xml:space="preserve" text-anchor="middle" x="2343.32" y="-55.53" font-family="Times,serif" font-size="14.00">File: ./bmm&#45;profile&#45;collection/startup/BMM/exceptions.py</text>
<text xml:space="preserve" text-anchor="middle" x="2343.32" y="-39.03" font-family="Times,serif" font-size="14.00">Methods: 0</text>
<text xml:space="preserve" text-anchor="middle" x="2343.32" y="-22.53" font-family="Times,serif" font-size="14.00">Attributes: 0</text>
</g>
<!-- Exception&#45;&gt;ArrivedInModeException -->
<g id="edge5" class="edge">
<title>Exception&#45;&gt;ArrivedInModeException</title>
<path fill="none" stroke="black" d="M5861.84,-231.28C5511.99,-224.61 3287.56,-179.67 2618.32,-104.65 2588.13,-101.27 2556.26,-96.47 2525.35,-91.16"/>
<polygon fill="black" stroke="black" points="2525.96,-87.71 2515.5,-89.44 2524.75,-94.6 2525.96,-87.71"/>
</g>
<!-- ChangeModeException -->
<g id="node7" class="node">
<title>ChangeModeException</title>
<ellipse fill="none" stroke="black" cx="2892.32" cy="-52.33" rx="238.29" ry="52.33"/>
<text xml:space="preserve" text-anchor="middle" x="2892.32" y="-72.03" font-family="Times,serif" font-size="14.00">ChangeModeException</text>
<text xml:space="preserve" text-anchor="middle" x="2892.32" y="-55.53" font-family="Times,serif" font-size="14.00">File: ./bmm&#45;profile&#45;collection/startup/BMM/exceptions.py</text>
<text xml:space="preserve" text-anchor="middle" x="2892.32" y="-39.03" font-family="Times,serif" font-size="14.00">Methods: 0</text>
<text xml:space="preserve" text-anchor="middle" x="2892.32" y="-22.53" font-family="Times,serif" font-size="14.00">Attributes: 0</text>
</g>
<!-- Exception&#45;&gt;ChangeModeException -->
<g id="edge6" class="edge">
<title>Exception&#45;&gt;ChangeModeException</title>
<path fill="none" stroke="black" d="M5861.62,-232.4C5596.4,-233.29 4253.28,-231.11 3166.32,-104.65 3136.46,-101.18 3104.96,-96.37 3074.37,-91.07"/>
<polygon fill="black" stroke="black" points="3075.09,-87.65 3064.63,-89.36 3073.88,-94.54 3075.09,-87.65"/>
</g>
<!-- _PrivateException -->
<g id="node8" class="node">
<title>_PrivateException</title>
<ellipse fill="none" stroke="black" cx="3405.32" cy="-52.33" rx="202.76" ry="52.33"/>
<text xml:space="preserve" text-anchor="middle" x="3405.32" y="-72.03" font-family="Times,serif" font-size="14.00">_PrivateException</text>
<text xml:space="preserve" text-anchor="middle" x="3405.32" y="-55.53" font-family="Times,serif" font-size="14.00">File: ./hxn&#45;profile&#45;collection/startup/00&#45;startup.py</text>
<text xml:space="preserve" text-anchor="middle" x="3405.32" y="-39.03" font-family="Times,serif" font-size="14.00">Methods: 0</text>
<text xml:space="preserve" text-anchor="middle" x="3405.32" y="-22.53" font-family="Times,serif" font-size="14.00">Attributes: 0</text>
</g>
<!-- Exception&#45;&gt;_PrivateException -->
<g id="edge7" class="edge">
<title>Exception&#45;&gt;_PrivateException</title>
<path fill="none" stroke="black" d="M5861.84,-232.21C5625.1,-231.93 4529.98,-223.95 3644.32,-104.65 3618.08,-101.12 3590.43,-96.25 3563.61,-90.92"/>
<polygon fill="black" stroke="black" points="3564.56,-87.54 3554.07,-89 3563.18,-94.41 3564.56,-87.54"/>
</g>
<!-- UserError -->
<g id="node9" class="node">
<title>UserError</title>
<ellipse fill="none" stroke="black" cx="3894.32" cy="-52.33" rx="214.43" ry="52.33"/>
<text xml:space="preserve" text-anchor="middle" x="3894.32" y="-72.03" font-family="Times,serif" font-size="14.00">UserError</text>
<text xml:space="preserve" text-anchor="middle" x="3894.32" y="-55.53" font-family="Times,serif" font-size="14.00">File: ./opls&#45;profile&#45;collection/startup/30&#45;geometry.py</text>
<text xml:space="preserve" text-anchor="middle" x="3894.32" y="-39.03" font-family="Times,serif" font-size="14.00">Methods: 0</text>
<text xml:space="preserve" text-anchor="middle" x="3894.32" y="-22.53" font-family="Times,serif" font-size="14.00">Attributes: 0</text>
</g>
<!-- Exception&#45;&gt;UserError -->
<g id="edge8" class="edge">
<title>Exception&#45;&gt;UserError</title>
<path fill="none" stroke="black" d="M5861.76,-231.01C5657.72,-225.56 4822.6,-198.38 4144.32,-104.65 4117.3,-100.92 4088.81,-96.01 4061.13,-90.71"/>
<polygon fill="black" stroke="black" points="4062.12,-87.34 4051.63,-88.87 4060.78,-94.21 4062.12,-87.34"/>
</g>
<!-- TroughError -->
<g id="node10" class="node">
<title>TroughError</title>
<ellipse fill="none" stroke="black" cx="4400.32" cy="-52.33" rx="219.73" ry="52.33"/>
<text xml:space="preserve" text-anchor="middle" x="4400.32" y="-72.03" font-family="Times,serif" font-size="14.00">TroughError</text>
<text xml:space="preserve" text-anchor="middle" x="4400.32" y="-55.53" font-family="Times,serif" font-size="14.00">File: ./opls&#45;profile&#45;collection/startup/85&#45;mtx_client.py</text>
<text xml:space="preserve" text-anchor="middle" x="4400.32" y="-39.03" font-family="Times,serif" font-size="14.00">Methods: 0</text>
<text xml:space="preserve" text-anchor="middle" x="4400.32" y="-22.53" font-family="Times,serif" font-size="14.00">Attributes: 0</text>
</g>
<!-- Exception&#45;&gt;TroughError -->
<g id="edge9" class="edge">
<title>Exception&#45;&gt;TroughError</title>
<path fill="none" stroke="black" d="M5861.76,-229.05C5696.59,-217.72 5123.67,-175.44 4655.32,-104.65 4628.42,-100.59 4600.06,-95.59 4572.41,-90.33"/>
<polygon fill="black" stroke="black" points="4573.41,-86.96 4562.93,-88.51 4572.09,-93.83 4573.41,-86.96"/>
</g>
<!-- PollDataError -->
<g id="node11" class="node">
<title>PollDataError</title>
<ellipse fill="none" stroke="black" cx="4911.32" cy="-52.33" rx="219.73" ry="52.33"/>
<text xml:space="preserve" text-anchor="middle" x="4911.32" y="-72.03" font-family="Times,serif" font-size="14.00">PollDataError</text>
<text xml:space="preserve" text-anchor="middle" x="4911.32" y="-55.53" font-family="Times,serif" font-size="14.00">File: ./opls&#45;profile&#45;collection/startup/85&#45;mtx_client.py</text>
<text xml:space="preserve" text-anchor="middle" x="4911.32" y="-39.03" font-family="Times,serif" font-size="14.00">Methods: 1</text>
<text xml:space="preserve" text-anchor="middle" x="4911.32" y="-22.53" font-family="Times,serif" font-size="14.00">Attributes: 1</text>
</g>
<!-- Exception&#45;&gt;PollDataError -->
<g id="edge10" class="edge">
<title>Exception&#45;&gt;PollDataError</title>
<path fill="none" stroke="black" d="M5861.86,-224.61C5744.99,-205.55 5429.44,-153.47 5167.32,-104.65 5141.47,-99.84 5114.2,-94.57 5087.46,-89.3"/>
<polygon fill="black" stroke="black" points="5088.42,-85.92 5077.93,-87.42 5087.06,-92.79 5088.42,-85.92"/>
</g>
<!-- update_exception -->
<g id="node12" class="node">
<title>update_exception</title>
<ellipse fill="none" stroke="black" cx="5417.32" cy="-52.33" rx="213.9" ry="52.33"/>
<text xml:space="preserve" text-anchor="middle" x="5417.32" y="-72.03" font-family="Times,serif" font-size="14.00">update_exception</text>
<text xml:space="preserve" text-anchor="middle" x="5417.32" y="-55.53" font-family="Times,serif" font-size="14.00">File: ./chx&#45;profile&#45;collection/startup/37&#45;database2.py</text>
<text xml:space="preserve" text-anchor="middle" x="5417.32" y="-39.03" font-family="Times,serif" font-size="14.00">Methods: 0</text>
<text xml:space="preserve" text-anchor="middle" x="5417.32" y="-22.53" font-family="Times,serif" font-size="14.00">Attributes: 0</text>
</g>
<!-- Exception&#45;&gt;update_exception -->
<g id="edge11" class="edge">
<title>Exception&#45;&gt;update_exception</title>
<path fill="none" stroke="black" d="M5861.69,-215.17C5789.89,-189.02 5649.71,-137.96 5545.91,-100.16"/>
<polygon fill="black" stroke="black" points="5547.36,-96.96 5536.77,-96.83 5544.97,-103.54 5547.36,-96.96"/>
</g>
<!-- CHX_utilities_Exception -->
<g id="node13" class="node">
<title>CHX_utilities_Exception</title>
<ellipse fill="none" stroke="black" cx="5908.32" cy="-52.33" rx="204.88" ry="52.33"/>
<text xml:space="preserve" text-anchor="middle" x="5908.32" y="-72.03" font-family="Times,serif" font-size="14.00">CHX_utilities_Exception</text>
<text xml:space="preserve" text-anchor="middle" x="5908.32" y="-55.53" font-family="Times,serif" font-size="14.00">File: ./chx&#45;profile&#45;collection/startup/95&#45;utilities.py</text>
<text xml:space="preserve" text-anchor="middle" x="5908.32" y="-39.03" font-family="Times,serif" font-size="14.00">Methods: 0</text>
<text xml:space="preserve" text-anchor="middle" x="5908.32" y="-22.53" font-family="Times,serif" font-size="14.00">Attributes: 0</text>
</g>
<!-- Exception&#45;&gt;CHX_utilities_Exception -->
<g id="edge12" class="edge">
<title>Exception&#45;&gt;CHX_utilities_Exception</title>
<path fill="none" stroke="black" d="M5908.32,-212.33C5908.32,-189.21 5908.32,-149.84 5908.32,-116.06"/>
<polygon fill="black" stroke="black" points="5911.82,-116.37 5908.32,-106.37 5904.82,-116.37 5911.82,-116.37"/>
</g>
<!-- param_Exception -->
<g id="node14" class="node">
<title>param_Exception</title>
<ellipse fill="none" stroke="black" cx="6377.32" cy="-52.33" rx="191.63" ry="52.33"/>
<text xml:space="preserve" text-anchor="middle" x="6377.32" y="-72.03" font-family="Times,serif" font-size="14.00">param_Exception</text>
<text xml:space="preserve" text-anchor="middle" x="6377.32" y="-55.53" font-family="Times,serif" font-size="14.00">File: ./chx&#45;profile&#45;collection/startup/30&#45;user.py</text>
<text xml:space="preserve" text-anchor="middle" x="6377.32" y="-39.03" font-family="Times,serif" font-size="14.00">Methods: 0</text>
<text xml:space="preserve" text-anchor="middle" x="6377.32" y="-22.53" font-family="Times,serif" font-size="14.00">Attributes: 0</text>
</g>
<!-- Exception&#45;&gt;param_Exception -->
<g id="edge13" class="edge">
<title>Exception&#45;&gt;param_Exception</title>
<path fill="none" stroke="black" d="M5955.01,-214.35C6024.64,-187.8 6158.05,-136.93 6256.36,-99.45"/>
<polygon fill="black" stroke="black" points="6257.45,-102.78 6265.55,-95.95 6254.96,-96.24 6257.45,-102.78"/>
</g>
<!-- series_Exception -->
<g id="node15" class="node">
<title>series_Exception</title>
<ellipse fill="none" stroke="black" cx="6832.32" cy="-52.33" rx="191.63" ry="52.33"/>
<text xml:space="preserve" text-anchor="middle" x="6832.32" y="-72.03" font-family="Times,serif" font-size="14.00">series_Exception</text>
<text xml:space="preserve" text-anchor="middle" x="6832.32" y="-55.53" font-family="Times,serif" font-size="14.00">File: ./chx&#45;profile&#45;collection/startup/30&#45;user.py</text>
<text xml:space="preserve" text-anchor="middle" x="6832.32" y="-39.03" font-family="Times,serif" font-size="14.00">Methods: 0</text>
<text xml:space="preserve" text-anchor="middle" x="6832.32" y="-22.53" font-family="Times,serif" font-size="14.00">Attributes: 0</text>
</g>
<!-- Exception&#45;&gt;series_Exception -->
<g id="edge14" class="edge">
<title>Exception&#45;&gt;series_Exception</title>
<path fill="none" stroke="black" d="M5954.95,-224.31C6067.2,-205.28 6361.27,-154.54 6605.32,-104.65 6628.31,-99.95 6652.54,-94.75 6676.27,-89.5"/>
<polygon fill="black" stroke="black" points="6677.02,-92.92 6686.03,-87.34 6675.51,-86.09 6677.02,-92.92"/>
</g>
<!-- cryo_Exception -->
<g id="node16" class="node">
<title>cryo_Exception</title>
<ellipse fill="none" stroke="black" cx="7287.32" cy="-52.33" rx="191.63" ry="52.33"/>
<text xml:space="preserve" text-anchor="middle" x="7287.32" y="-72.03" font-family="Times,serif" font-size="14.00">cryo_Exception</text>
<text xml:space="preserve" text-anchor="middle" x="7287.32" y="-55.53" font-family="Times,serif" font-size="14.00">File: ./chx&#45;profile&#45;collection/startup/30&#45;user.py</text>
<text xml:space="preserve" text-anchor="middle" x="7287.32" y="-39.03" font-family="Times,serif" font-size="14.00">Methods: 0</text>
<text xml:space="preserve" text-anchor="middle" x="7287.32" y="-22.53" font-family="Times,serif" font-size="14.00">Attributes: 0</text>
</g>
<!-- Exception&#45;&gt;cryo_Exception -->
<g id="edge15" class="edge">
<title>Exception&#45;&gt;cryo_Exception</title>
<path fill="none" stroke="black" d="M5954.95,-228.88C6111.72,-217.47 6633.92,-176.22 7060.32,-104.65 7084.45,-100.6 7109.86,-95.6 7134.59,-90.32"/>
<polygon fill="black" stroke="black" points="7135.01,-93.81 7144.05,-88.28 7133.53,-86.97 7135.01,-93.81"/>
</g>
<!-- check_Exception -->
<g id="node17" class="node">
<title>check_Exception</title>
<ellipse fill="none" stroke="black" cx="7742.32" cy="-52.33" rx="191.63" ry="52.33"/>
<text xml:space="preserve" text-anchor="middle" x="7742.32" y="-72.03" font-family="Times,serif" font-size="14.00">check_Exception</text>
<text xml:space="preserve" text-anchor="middle" x="7742.32" y="-55.53" font-family="Times,serif" font-size="14.00">File: ./chx&#45;profile&#45;collection/startup/30&#45;user.py</text>
<text xml:space="preserve" text-anchor="middle" x="7742.32" y="-39.03" font-family="Times,serif" font-size="14.00">Methods: 0</text>
<text xml:space="preserve" text-anchor="middle" x="7742.32" y="-22.53" font-family="Times,serif" font-size="14.00">Attributes: 0</text>
</g>
<!-- Exception&#45;&gt;check_Exception -->
<g id="edge16" class="edge">
<title>Exception&#45;&gt;check_Exception</title>
<path fill="none" stroke="black" d="M5954.95,-230.89C6147.94,-225.17 6902.79,-197.71 7515.32,-104.65 7539.94,-100.91 7565.86,-96 7591.03,-90.69"/>
<polygon fill="black" stroke="black" points="7591.63,-94.14 7600.67,-88.63 7590.16,-87.3 7591.63,-94.14"/>
</g>
<!-- rotation_exception -->
<g id="node18" class="node">
<title>rotation_exception</title>
<ellipse fill="none" stroke="black" cx="8197.32" cy="-52.33" rx="191.63" ry="52.33"/>
<text xml:space="preserve" text-anchor="middle" x="8197.32" y="-72.03" font-family="Times,serif" font-size="14.00">rotation_exception</text>
<text xml:space="preserve" text-anchor="middle" x="8197.32" y="-55.53" font-family="Times,serif" font-size="14.00">File: ./chx&#45;profile&#45;collection/startup/30&#45;user.py</text>
<text xml:space="preserve" text-anchor="middle" x="8197.32" y="-39.03" font-family="Times,serif" font-size="14.00">Methods: 0</text>
<text xml:space="preserve" text-anchor="middle" x="8197.32" y="-22.53" font-family="Times,serif" font-size="14.00">Attributes: 0</text>
</g>
<!-- Exception&#45;&gt;rotation_exception -->
<g id="edge17" class="edge">
<title>Exception&#45;&gt;rotation_exception</title>
<path fill="none" stroke="black" d="M5955.06,-232.03C6179.61,-230.87 7169.67,-219.16 7970.32,-104.65 7995.15,-101.1 8021.28,-96.26 8046.62,-90.95"/>
<polygon fill="black" stroke="black" points="8047.28,-94.39 8056.34,-88.88 8045.83,-87.54 8047.28,-94.39"/>
</g>
<!-- vac_Exception -->
<g id="node19" class="node">
<title>vac_Exception</title>
<ellipse fill="none" stroke="black" cx="8697.32" cy="-52.33" rx="236.7" ry="52.33"/>
<text xml:space="preserve" text-anchor="middle" x="8697.32" y="-72.03" font-family="Times,serif" font-size="14.00">vac_Exception</text>
<text xml:space="preserve" text-anchor="middle" x="8697.32" y="-55.53" font-family="Times,serif" font-size="14.00">File: ./chx&#45;profile&#45;collection/startup/36&#45;commisionning.py</text>
<text xml:space="preserve" text-anchor="middle" x="8697.32" y="-39.03" font-family="Times,serif" font-size="14.00">Methods: 0</text>
<text xml:space="preserve" text-anchor="middle" x="8697.32" y="-22.53" font-family="Times,serif" font-size="14.00">Attributes: 0</text>
</g>
<!-- Exception&#45;&gt;vac_Exception -->
<g id="edge18" class="edge">
<title>Exception&#45;&gt;vac_Exception</title>
<path fill="none" stroke="black" d="M5954.85,-232.15C6206.75,-231.64 7432.57,-222.91 8425.32,-104.65 8454.86,-101.13 8486.02,-96.32 8516.28,-91.03"/>
<polygon fill="black" stroke="black" points="8516.66,-94.52 8525.9,-89.33 8515.44,-87.63 8516.66,-94.52"/>
</g>
<!-- FileInvalidException -->
<g id="node20" class="node">
<title>FileInvalidException</title>
<ellipse fill="none" stroke="black" cx="9204.32" cy="-52.33" rx="197.99" ry="52.33"/>
<text xml:space="preserve" text-anchor="middle" x="9204.32" y="-72.03" font-family="Times,serif" font-size="14.00">FileInvalidException</text>
<text xml:space="preserve" text-anchor="middle" x="9204.32" y="-55.53" font-family="Times,serif" font-size="14.00">File: ./xfp&#45;profile&#45;collection/startup/98&#45;gui&#45;ht.py</text>
<text xml:space="preserve" text-anchor="middle" x="9204.32" y="-39.03" font-family="Times,serif" font-size="14.00">Methods: 0</text>
<text xml:space="preserve" text-anchor="middle" x="9204.32" y="-22.53" font-family="Times,serif" font-size="14.00">Attributes: 0</text>
</g>
<!-- Exception&#45;&gt;FileInvalidException -->
<g id="edge19" class="edge">
<title>Exception&#45;&gt;FileInvalidException</title>
<path fill="none" stroke="black" d="M5955.04,-231.32C6291.65,-225.2 8350.83,-184.87 8970.32,-104.65 8996.22,-101.3 9023.49,-96.5 9049.9,-91.17"/>
<polygon fill="black" stroke="black" points="9050.58,-94.61 9059.67,-89.17 9049.17,-87.75 9050.58,-94.61"/>
</g>
<!-- CannotActuateShutter -->
<g id="node21" class="node">
<title>CannotActuateShutter</title>
<ellipse fill="none" stroke="black" cx="9732.32" cy="-52.33" rx="257.92" ry="52.33"/>
<text xml:space="preserve" text-anchor="middle" x="9732.32" y="-72.03" font-family="Times,serif" font-size="14.00">CannotActuateShutter</text>
<text xml:space="preserve" text-anchor="middle" x="9732.32" y="-55.53" font-family="Times,serif" font-size="14.00">File: ./iss&#45;profile&#45;collection/startup/74&#45;pre&#45;post&#45;scan&#45;routines.py</text>
<text xml:space="preserve" text-anchor="middle" x="9732.32" y="-39.03" font-family="Times,serif" font-size="14.00">Methods: 0</text>
<text xml:space="preserve" text-anchor="middle" x="9732.32" y="-22.53" font-family="Times,serif" font-size="14.00">Attributes: 0</text>
</g>
<!-- Exception&#45;&gt;CannotActuateShutter -->
<g id="edge20" class="edge">
<title>Exception&#45;&gt;CannotActuateShutter</title>
<path fill="none" stroke="black" d="M5954.96,-231.35C6319.55,-224.92 8717.69,-180.21 9438.32,-104.65 9470.5,-101.28 9504.47,-96.5 9537.45,-91.19"/>
<polygon fill="black" stroke="black" points="9537.79,-94.69 9547.1,-89.62 9536.66,-87.78 9537.79,-94.69"/>
</g>
<!-- KeyDetectorNotIncluded -->
<g id="node22" class="node">
<title>KeyDetectorNotIncluded</title>
<ellipse fill="none" stroke="black" cx="10309.32" cy="-52.33" rx="246.78" ry="52.33"/>
<text xml:space="preserve" text-anchor="middle" x="10309.32" y="-72.03" font-family="Times,serif" font-size="14.00">KeyDetectorNotIncluded</text>
<text xml:space="preserve" text-anchor="middle" x="10309.32" y="-55.53" font-family="Times,serif" font-size="14.00">File: ./iss&#45;profile&#45;collection/startup/45&#45;device_dictionaries.py</text>
<text xml:space="preserve" text-anchor="middle" x="10309.32" y="-39.03" font-family="Times,serif" font-size="14.00">Methods: 0</text>
<text xml:space="preserve" text-anchor="middle" x="10309.32" y="-22.53" font-family="Times,serif" font-size="14.00">Attributes: 0</text>
</g>
<!-- Exception&#45;&gt;KeyDetectorNotIncluded -->
<g id="edge21" class="edge">
<title>Exception&#45;&gt;KeyDetectorNotIncluded</title>
<path fill="none" stroke="black" d="M5954.92,-231.66C6352.49,-227.37 9180.52,-193.95 10026.32,-104.65 10057.53,-101.36 10090.47,-96.59 10122.41,-91.27"/>
<polygon fill="black" stroke="black" points="10122.89,-94.73 10132.17,-89.61 10121.72,-87.83 10122.89,-94.73"/>
</g>
<!-- AuthorizationError -->
<g id="node23" class="node">
<title>AuthorizationError</title>
<ellipse fill="none" stroke="black" cx="10853.32" cy="-52.33" rx="225.04" ry="52.33"/>
<text xml:space="preserve" text-anchor="middle" x="10853.32" y="-72.03" font-family="Times,serif" font-size="14.00">AuthorizationError</text>
<text xml:space="preserve" text-anchor="middle" x="10853.32" y="-55.53" font-family="Times,serif" font-size="14.00">File: ./srx&#45;profile&#45;collection/scripts/start_experiment.py</text>
<text xml:space="preserve" text-anchor="middle" x="10853.32" y="-39.03" font-family="Times,serif" font-size="14.00">Methods: 0</text>
<text xml:space="preserve" text-anchor="middle" x="10853.32" y="-22.53" font-family="Times,serif" font-size="14.00">Attributes: 0</text>
</g>
<!-- Exception&#45;&gt;AuthorizationError -->
<g id="edge22" class="edge">
<title>Exception&#45;&gt;AuthorizationError</title>
<path fill="none" stroke="black" d="M5954.77,-231.96C6381.44,-230.04 9626.15,-212.04 10592.32,-104.65 10621.22,-101.44 10651.69,-96.7 10681.21,-91.39"/>
<polygon fill="black" stroke="black" points="10681.78,-94.84 10690.98,-89.6 10680.52,-87.96 10681.78,-94.84"/>
</g>
<!-- ShutterOpeningException -->
<g id="node24" class="node">
<title>ShutterOpeningException</title>
<ellipse fill="none" stroke="black" cx="11347.32" cy="-52.33" rx="196.93" ry="52.33"/>
<text xml:space="preserve" text-anchor="middle" x="11347.32" y="-72.03" font-family="Times,serif" font-size="14.00">ShutterOpeningException</text>
<text xml:space="preserve" text-anchor="middle" x="11347.32" y="-55.53" font-family="Times,serif" font-size="14.00">File: ./srx&#45;profile&#45;collection/startup/11&#45;optics.py</text>
<text xml:space="preserve" text-anchor="middle" x="11347.32" y="-39.03" font-family="Times,serif" font-size="14.00">Methods: 0</text>
<text xml:space="preserve" text-anchor="middle" x="11347.32" y="-22.53" font-family="Times,serif" font-size="14.00">Attributes: 0</text>
</g>
<!-- Exception&#45;&gt;ShutterOpeningException -->
<g id="edge23" class="edge">
<title>Exception&#45;&gt;ShutterOpeningException</title>
<path fill="none" stroke="black" d="M5954.87,-232.25C6407.89,-233.04 10037.86,-235.16 11114.32,-104.65 11140.53,-101.48 11168.12,-96.7 11194.79,-91.32"/>
<polygon fill="black" stroke="black" points="11195.18,-94.81 11204.27,-89.37 11193.77,-87.95 11195.18,-94.81"/>
</g>
</g>
</svg>
