<?xml version="1.0" encoding="UTF-8" standalone="no"?>
<!DOCTYPE svg PUBLIC "-//W3C//DTD SVG 1.1//EN"
 "http://www.w3.org/Graphics/SVG/1.1/DTD/svg11.dtd">
<!-- Generated by graphviz version 14.0.0 (20250921.2048)
 -->
<!-- Pages: 1 -->
<svg width="2534pt" height="262pt"
 viewBox="0.00 0.00 2534.00 262.00" xmlns="http://www.w3.org/2000/svg" xmlns:xlink="http://www.w3.org/1999/xlink">
<g id="graph0" class="graph" transform="scale(1 1) rotate(0) translate(4 257.65)">
<polygon fill="white" stroke="none" points="-4,4 -4,-257.65 2530.48,-257.65 2530.48,4 -4,4"/>
<!-- FileStoreHDF5IterativeWrite -->
<g id="node1" class="node">
<title>FileStoreHDF5IterativeWrite</title>
<polygon fill="lightblue" stroke="lightblue" points="1355.63,-253.65 1180.63,-253.65 1180.63,-212.65 1355.63,-212.65 1355.63,-253.65"/>
<text xml:space="preserve" text-anchor="middle" x="1268.13" y="-236.35" font-family="Times,serif" font-size="14.00">FileStoreHDF5IterativeWrite</text>
<text xml:space="preserve" text-anchor="middle" x="1268.13" y="-219.85" font-family="Times,serif" font-size="14.00">(Parent Class)</text>
</g>
<!-- HDF5PluginWithFileStoreBase -->
<g id="node2" class="node">
<title>HDF5PluginWithFileStoreBase</title>
<ellipse fill="none" stroke="black" cx="244.13" cy="-52.33" rx="244.13" ry="52.33"/>
<text xml:space="preserve" text-anchor="middle" x="244.13" y="-72.03" font-family="Times,serif" font-size="14.00">HDF5PluginWithFileStoreBase</text>
<text xml:space="preserve" text-anchor="middle" x="244.13" y="-55.53" font-family="Times,serif" font-size="14.00">File: ./tes&#45;profile&#45;collection/startup/27&#45;Teledyne_PICAM.py</text>
<text xml:space="preserve" text-anchor="middle" x="244.13" y="-39.03" font-family="Times,serif" font-size="14.00">Methods: 1</text>
<text xml:space="preserve" text-anchor="middle" x="244.13" y="-22.53" font-family="Times,serif" font-size="14.00">Attributes: 1</text>
</g>
<!-- FileStoreHDF5IterativeWrite&#45;&gt;HDF5PluginWithFileStoreBase -->
<g id="edge1" class="edge">
<title>FileStoreHDF5IterativeWrite&#45;&gt;HDF5PluginWithFileStoreBase</title>
<path fill="none" stroke="black" d="M1180.17,-217.42C1040.89,-194.01 761.07,-146.67 524.13,-104.65 496.41,-99.74 467.15,-94.47 438.43,-89.24"/>
<polygon fill="black" stroke="black" points="439.4,-85.86 428.94,-87.51 438.15,-92.75 439.4,-85.86"/>
</g>
<!-- HDF5PluginWithFileStore -->
<g id="node3" class="node">
<title>HDF5PluginWithFileStore</title>
<ellipse fill="none" stroke="black" cx="748.13" cy="-52.33" rx="187.91" ry="52.33"/>
<text xml:space="preserve" text-anchor="middle" x="748.13" y="-72.03" font-family="Times,serif" font-size="14.00">HDF5PluginWithFileStore</text>
<text xml:space="preserve" text-anchor="middle" x="748.13" y="-55.53" font-family="Times,serif" font-size="14.00">File: ./srx&#45;profile&#45;collection/startup/33&#45;pco.py</text>
<text xml:space="preserve" text-anchor="middle" x="748.13" y="-39.03" font-family="Times,serif" font-size="14.00">Methods: 1</text>
<text xml:space="preserve" text-anchor="middle" x="748.13" y="-22.53" font-family="Times,serif" font-size="14.00">Attributes: 1</text>
</g>
<!-- FileStoreHDF5IterativeWrite&#45;&gt;HDF5PluginWithFileStore -->
<g id="edge2" class="edge">
<title>FileStoreHDF5IterativeWrite&#45;&gt;HDF5PluginWithFileStore</title>
<path fill="none" stroke="black" d="M1209.99,-212.16C1129.73,-184.56 982.82,-134.04 876.2,-97.37"/>
<polygon fill="black" stroke="black" points="877.38,-94.07 866.79,-94.13 875.11,-100.69 877.38,-94.07"/>
</g>
<!-- HDF5PluginWithFileStorePlain -->
<g id="node4" class="node">
<title>HDF5PluginWithFileStorePlain</title>
<ellipse fill="none" stroke="black" cx="1268.13" cy="-52.33" rx="260.04" ry="52.33"/>
<text xml:space="preserve" text-anchor="middle" x="1268.13" y="-72.03" font-family="Times,serif" font-size="14.00">HDF5PluginWithFileStorePlain</text>
<text xml:space="preserve" text-anchor="middle" x="1268.13" y="-55.53" font-family="Times,serif" font-size="14.00">File: ./csx&#45;profile&#45;collection/startup/csx1/devices/areadetector.py</text>
<text xml:space="preserve" text-anchor="middle" x="1268.13" y="-39.03" font-family="Times,serif" font-size="14.00">Methods: 7</text>
<text xml:space="preserve" text-anchor="middle" x="1268.13" y="-22.53" font-family="Times,serif" font-size="14.00">Attributes: 12</text>
</g>
<!-- FileStoreHDF5IterativeWrite&#45;&gt;HDF5PluginWithFileStorePlain -->
<g id="edge3" class="edge">
<title>FileStoreHDF5IterativeWrite&#45;&gt;HDF5PluginWithFileStorePlain</title>
<path fill="none" stroke="black" d="M1268.13,-212.33C1268.13,-189.21 1268.13,-149.84 1268.13,-116.06"/>
<polygon fill="black" stroke="black" points="1271.63,-116.37 1268.13,-106.37 1264.63,-116.37 1271.63,-116.37"/>
</g>
<!-- XPDHDF5Plugin -->
<g id="node5" class="node">
<title>XPDHDF5Plugin</title>
<ellipse fill="none" stroke="black" cx="1823.13" cy="-52.33" rx="222.92" ry="52.33"/>
<text xml:space="preserve" text-anchor="middle" x="1823.13" y="-72.03" font-family="Times,serif" font-size="14.00">XPDHDF5Plugin</text>
<text xml:space="preserve" text-anchor="middle" x="1823.13" y="-55.53" font-family="Times,serif" font-size="14.00">File: ./xpd&#45;profile&#45;collection/startup/80&#45;areadetector.py</text>
<text xml:space="preserve" text-anchor="middle" x="1823.13" y="-39.03" font-family="Times,serif" font-size="14.00">Methods: 0</text>
<text xml:space="preserve" text-anchor="middle" x="1823.13" y="-22.53" font-family="Times,serif" font-size="14.00">Attributes: 0</text>
</g>
<!-- FileStoreHDF5IterativeWrite&#45;&gt;XPDHDF5Plugin -->
<g id="edge4" class="edge">
<title>FileStoreHDF5IterativeWrite&#45;&gt;XPDHDF5Plugin</title>
<path fill="none" stroke="black" d="M1330.18,-212.16C1414.78,-184.9 1568.77,-135.28 1682.2,-98.74"/>
<polygon fill="black" stroke="black" points="1683.16,-102.1 1691.6,-95.7 1681.01,-95.44 1683.16,-102.1"/>
</g>
<!-- RIXSCamHDF5PluginWithFileStore -->
<g id="node6" class="node">
<title>RIXSCamHDF5PluginWithFileStore</title>
<ellipse fill="none" stroke="black" cx="2322.13" cy="-52.33" rx="204.35" ry="52.33"/>
<text xml:space="preserve" text-anchor="middle" x="2322.13" y="-72.03" font-family="Times,serif" font-size="14.00">RIXSCamHDF5PluginWithFileStore</text>
<text xml:space="preserve" text-anchor="middle" x="2322.13" y="-55.53" font-family="Times,serif" font-size="14.00">File: ./six&#45;profile&#45;collection/startup/22&#45;rixscam.py</text>
<text xml:space="preserve" text-anchor="middle" x="2322.13" y="-39.03" font-family="Times,serif" font-size="14.00">Methods: 3</text>
<text xml:space="preserve" text-anchor="middle" x="2322.13" y="-22.53" font-family="Times,serif" font-size="14.00">Attributes: 1</text>
</g>
<!-- FileStoreHDF5IterativeWrite&#45;&gt;RIXSCamHDF5PluginWithFileStore -->
<g id="edge5" class="edge">
<title>FileStoreHDF5IterativeWrite&#45;&gt;RIXSCamHDF5PluginWithFileStore</title>
<path fill="none" stroke="black" d="M1356.03,-220.01C1505.59,-198.99 1818.93,-153.37 2082.13,-104.65 2106.67,-100.11 2132.55,-94.96 2157.87,-89.71"/>
<polygon fill="black" stroke="black" points="2158.51,-93.16 2167.58,-87.69 2157.08,-86.3 2158.51,-93.16"/>
</g>
</g>
</svg>
