<?xml version="1.0" encoding="UTF-8" standalone="no"?>
<!DOCTYPE svg PUBLIC "-//W3C//DTD SVG 1.1//EN"
 "http://www.w3.org/Graphics/SVG/1.1/DTD/svg11.dtd">
<!-- Generated by graphviz version 14.0.0 (20250921.2048)
 -->
<!-- Pages: 1 -->
<svg width="1977pt" height="262pt"
 viewBox="0.00 0.00 1977.00 262.00" xmlns="http://www.w3.org/2000/svg" xmlns:xlink="http://www.w3.org/1999/xlink">
<g id="graph0" class="graph" transform="scale(1 1) rotate(0) translate(4 257.65)">
<polygon fill="white" stroke="none" points="-4,4 -4,-257.65 1972.86,-257.65 1972.86,4 -4,4"/>
<!-- FileStoreBase -->
<g id="node1" class="node">
<title>FileStoreBase</title>
<polygon fill="lightblue" stroke="lightblue" points="1085.06,-253.65 992.56,-253.65 992.56,-212.65 1085.06,-212.65 1085.06,-253.65"/>
<text xml:space="preserve" text-anchor="middle" x="1038.81" y="-236.35" font-family="Times,serif" font-size="14.00">FileStoreBase</text>
<text xml:space="preserve" text-anchor="middle" x="1038.81" y="-219.85" font-family="Times,serif" font-size="14.00">(Parent Class)</text>
</g>
<!-- EigerSimulatedFilePlugin -->
<g id="node2" class="node">
<title>EigerSimulatedFilePlugin</title>
<ellipse fill="none" stroke="black" cx="229.81" cy="-52.33" rx="229.81" ry="52.33"/>
<text xml:space="preserve" text-anchor="middle" x="229.81" y="-72.03" font-family="Times,serif" font-size="14.00">EigerSimulatedFilePlugin</text>
<text xml:space="preserve" text-anchor="middle" x="229.81" y="-55.53" font-family="Times,serif" font-size="14.00">File: ./chx&#45;profile&#45;collection/startup/20&#45;area&#45;detectors.py</text>
<text xml:space="preserve" text-anchor="middle" x="229.81" y="-39.03" font-family="Times,serif" font-size="14.00">Methods: 4</text>
<text xml:space="preserve" text-anchor="middle" x="229.81" y="-22.53" font-family="Times,serif" font-size="14.00">Attributes: 20</text>
</g>
<!-- FileStoreBase&#45;&gt;EigerSimulatedFilePlugin -->
<g id="edge1" class="edge">
<title>FileStoreBase&#45;&gt;EigerSimulatedFilePlugin</title>
<path fill="none" stroke="black" d="M992.11,-221.83C880.35,-197.13 592.81,-133.56 404.57,-91.96"/>
<polygon fill="black" stroke="black" points="405.44,-88.56 394.92,-89.82 403.92,-95.4 405.44,-88.56"/>
</g>
<!-- EigerFileStoreHDF5 -->
<g id="node3" class="node">
<title>EigerFileStoreHDF5</title>
<ellipse fill="none" stroke="black" cx="779.81" cy="-52.33" rx="247.84" ry="52.33"/>
<text xml:space="preserve" text-anchor="middle" x="779.81" y="-72.03" font-family="Times,serif" font-size="14.00">EigerFileStoreHDF5</text>
<text xml:space="preserve" text-anchor="middle" x="779.81" y="-55.53" font-family="Times,serif" font-size="14.00">File: ./hxn&#45;profile&#45;collection/startup/65&#45;nano&#45;eiger&#45;mobile.py</text>
<text xml:space="preserve" text-anchor="middle" x="779.81" y="-39.03" font-family="Times,serif" font-size="14.00">Methods: 8</text>
<text xml:space="preserve" text-anchor="middle" x="779.81" y="-22.53" font-family="Times,serif" font-size="14.00">Attributes: 14</text>
</g>
<!-- FileStoreBase&#45;&gt;EigerFileStoreHDF5 -->
<g id="edge2" class="edge">
<title>FileStoreBase&#45;&gt;EigerFileStoreHDF5</title>
<path fill="none" stroke="black" d="M1009.85,-212.16C974.06,-187.45 911.67,-144.37 860.89,-109.3"/>
<polygon fill="black" stroke="black" points="863.01,-106.52 852.79,-103.72 859.03,-112.28 863.01,-106.52"/>
</g>
<!-- MerlinFileStoreHDF5 -->
<g id="node4" class="node">
<title>MerlinFileStoreHDF5</title>
<ellipse fill="none" stroke="black" cx="1298.81" cy="-52.33" rx="199.58" ry="52.33"/>
<text xml:space="preserve" text-anchor="middle" x="1298.81" y="-72.03" font-family="Times,serif" font-size="14.00">MerlinFileStoreHDF5</text>
<text xml:space="preserve" text-anchor="middle" x="1298.81" y="-55.53" font-family="Times,serif" font-size="14.00">File: ./srx&#45;profile&#45;collection/startup/34&#45;merlin.py</text>
<text xml:space="preserve" text-anchor="middle" x="1298.81" y="-39.03" font-family="Times,serif" font-size="14.00">Methods: 6</text>
<text xml:space="preserve" text-anchor="middle" x="1298.81" y="-22.53" font-family="Times,serif" font-size="14.00">Attributes: 13</text>
</g>
<!-- FileStoreBase&#45;&gt;MerlinFileStoreHDF5 -->
<g id="edge3" class="edge">
<title>FileStoreBase&#45;&gt;MerlinFileStoreHDF5</title>
<path fill="none" stroke="black" d="M1067.88,-212.16C1104.18,-187.19 1167.75,-143.47 1219.01,-108.21"/>
<polygon fill="black" stroke="black" points="1220.93,-111.14 1227.18,-102.59 1216.96,-105.37 1220.93,-111.14"/>
</g>
<!-- DexelaFileStoreHDF5 -->
<g id="node5" class="node">
<title>DexelaFileStoreHDF5</title>
<ellipse fill="none" stroke="black" cx="1769.81" cy="-52.33" rx="199.05" ry="52.33"/>
<text xml:space="preserve" text-anchor="middle" x="1769.81" y="-72.03" font-family="Times,serif" font-size="14.00">DexelaFileStoreHDF5</text>
<text xml:space="preserve" text-anchor="middle" x="1769.81" y="-55.53" font-family="Times,serif" font-size="14.00">File: ./srx&#45;profile&#45;collection/startup/35&#45;dexela.py</text>
<text xml:space="preserve" text-anchor="middle" x="1769.81" y="-39.03" font-family="Times,serif" font-size="14.00">Methods: 6</text>
<text xml:space="preserve" text-anchor="middle" x="1769.81" y="-22.53" font-family="Times,serif" font-size="14.00">Attributes: 12</text>
</g>
<!-- FileStoreBase&#45;&gt;DexelaFileStoreHDF5 -->
<g id="edge4" class="edge">
<title>FileStoreBase&#45;&gt;DexelaFileStoreHDF5</title>
<path fill="none" stroke="black" d="M1085.37,-220.76C1189.79,-195.22 1446.63,-132.39 1614.28,-91.37"/>
<polygon fill="black" stroke="black" points="1615.09,-94.78 1623.97,-89 1613.43,-87.98 1615.09,-94.78"/>
</g>
</g>
</svg>
