<?xml version="1.0" encoding="UTF-8" standalone="no"?>
<!DOCTYPE svg PUBLIC "-//W3C//DTD SVG 1.1//EN"
 "http://www.w3.org/Graphics/SVG/1.1/DTD/svg11.dtd">
<!-- Generated by graphviz version 14.0.0 (20250921.2048)
 -->
<!-- Pages: 1 -->
<svg width="3987pt" height="262pt"
 viewBox="0.00 0.00 3987.00 262.00" xmlns="http://www.w3.org/2000/svg" xmlns:xlink="http://www.w3.org/1999/xlink">
<g id="graph0" class="graph" transform="scale(1 1) rotate(0) translate(4 257.65)">
<polygon fill="white" stroke="none" points="-4,4 -4,-257.65 3982.84,-257.65 3982.84,4 -4,4"/>
<!-- FileStorePluginBase -->
<g id="node1" class="node">
<title>FileStorePluginBase</title>
<polygon fill="lightblue" stroke="lightblue" points="2131.14,-253.65 2004.14,-253.65 2004.14,-212.65 2131.14,-212.65 2131.14,-253.65"/>
<text xml:space="preserve" text-anchor="middle" x="2067.64" y="-236.35" font-family="Times,serif" font-size="14.00">FileStorePluginBase</text>
<text xml:space="preserve" text-anchor="middle" x="2067.64" y="-219.85" font-family="Times,serif" font-size="14.00">(Parent Class)</text>
</g>
<!-- FileStoreHDF5Squashing -->
<g id="node2" class="node">
<title>FileStoreHDF5Squashing</title>
<ellipse fill="none" stroke="black" cx="200.64" cy="-52.33" rx="200.64" ry="52.33"/>
<text xml:space="preserve" text-anchor="middle" x="200.64" y="-72.03" font-family="Times,serif" font-size="14.00">FileStoreHDF5Squashing</text>
<text xml:space="preserve" text-anchor="middle" x="200.64" y="-55.53" font-family="Times,serif" font-size="14.00">File: ./qas&#45;profile&#45;collection/startup/82&#45;pilatus.py</text>
<text xml:space="preserve" text-anchor="middle" x="200.64" y="-39.03" font-family="Times,serif" font-size="14.00">Methods: 3</text>
<text xml:space="preserve" text-anchor="middle" x="200.64" y="-22.53" font-family="Times,serif" font-size="14.00">Attributes: 10</text>
</g>
<!-- FileStorePluginBase&#45;&gt;FileStoreHDF5Squashing -->
<g id="edge1" class="edge">
<title>FileStorePluginBase&#45;&gt;FileStoreHDF5Squashing</title>
<path fill="none" stroke="black" d="M2003.99,-230.27C1785.05,-223.13 1043.21,-193.49 437.64,-104.65 411.95,-100.88 384.87,-95.95 358.58,-90.63"/>
<polygon fill="black" stroke="black" points="359.34,-87.22 348.85,-88.64 357.94,-94.07 359.34,-87.22"/>
</g>
<!-- FileStoreJPEG -->
<g id="node3" class="node">
<title>FileStoreJPEG</title>
<ellipse fill="none" stroke="black" cx="713.64" cy="-52.33" rx="240.42" ry="52.33"/>
<text xml:space="preserve" text-anchor="middle" x="713.64" y="-72.03" font-family="Times,serif" font-size="14.00">FileStoreJPEG</text>
<text xml:space="preserve" text-anchor="middle" x="713.64" y="-55.53" font-family="Times,serif" font-size="14.00">File: ./amx&#45;profile&#45;collection/startup/27&#45;custom_plugins.py</text>
<text xml:space="preserve" text-anchor="middle" x="713.64" y="-39.03" font-family="Times,serif" font-size="14.00">Methods: 3</text>
<text xml:space="preserve" text-anchor="middle" x="713.64" y="-22.53" font-family="Times,serif" font-size="14.00">Attributes: 3</text>
</g>
<!-- FileStorePluginBase&#45;&gt;FileStoreJPEG -->
<g id="edge2" class="edge">
<title>FileStorePluginBase&#45;&gt;FileStoreJPEG</title>
<path fill="none" stroke="black" d="M2003.65,-226.08C1836.47,-209.88 1372.99,-162.9 989.64,-104.65 961.23,-100.33 931.26,-95.28 901.96,-90.06"/>
<polygon fill="black" stroke="black" points="902.72,-86.64 892.26,-88.32 901.49,-93.53 902.72,-86.64"/>
</g>
<!-- BMMFileStoreJPEG -->
<g id="node4" class="node">
<title>BMMFileStoreJPEG</title>
<ellipse fill="none" stroke="black" cx="1269.64" cy="-52.33" rx="243.6" ry="52.33"/>
<text xml:space="preserve" text-anchor="middle" x="1269.64" y="-72.03" font-family="Times,serif" font-size="14.00">BMMFileStoreJPEG</text>
<text xml:space="preserve" text-anchor="middle" x="1269.64" y="-55.53" font-family="Times,serif" font-size="14.00">File: ./bmm&#45;profile&#45;collection/startup/BMM/usb_camera.py</text>
<text xml:space="preserve" text-anchor="middle" x="1269.64" y="-39.03" font-family="Times,serif" font-size="14.00">Methods: 6</text>
<text xml:space="preserve" text-anchor="middle" x="1269.64" y="-22.53" font-family="Times,serif" font-size="14.00">Attributes: 8</text>
</g>
<!-- FileStorePluginBase&#45;&gt;BMMFileStoreJPEG -->
<g id="edge3" class="edge">
<title>FileStorePluginBase&#45;&gt;BMMFileStoreJPEG</title>
<path fill="none" stroke="black" d="M2003.69,-217.82C1884.38,-191.08 1624.03,-132.74 1447.72,-93.23"/>
<polygon fill="black" stroke="black" points="1448.49,-89.82 1437.97,-91.05 1446.96,-96.65 1448.49,-89.82"/>
</g>
<!-- BMMFileStoreHDF5 -->
<g id="node5" class="node">
<title>BMMFileStoreHDF5</title>
<ellipse fill="none" stroke="black" cx="1808.64" cy="-52.33" rx="222.92" ry="52.33"/>
<text xml:space="preserve" text-anchor="middle" x="1808.64" y="-72.03" font-family="Times,serif" font-size="14.00">BMMFileStoreHDF5</text>
<text xml:space="preserve" text-anchor="middle" x="1808.64" y="-55.53" font-family="Times,serif" font-size="14.00">File: ./bmm&#45;profile&#45;collection/startup/BMM/pilatus.py</text>
<text xml:space="preserve" text-anchor="middle" x="1808.64" y="-39.03" font-family="Times,serif" font-size="14.00">Methods: 3</text>
<text xml:space="preserve" text-anchor="middle" x="1808.64" y="-22.53" font-family="Times,serif" font-size="14.00">Attributes: 3</text>
</g>
<!-- FileStorePluginBase&#45;&gt;BMMFileStoreHDF5 -->
<g id="edge4" class="edge">
<title>FileStorePluginBase&#45;&gt;BMMFileStoreHDF5</title>
<path fill="none" stroke="black" d="M2038.68,-212.16C2002.71,-187.32 1939.85,-143.92 1888.93,-108.76"/>
<polygon fill="black" stroke="black" points="1891.03,-105.96 1880.81,-103.15 1887.05,-111.72 1891.03,-105.96"/>
</g>
<!-- BMMFileStoreTIFF -->
<g id="node6" class="node">
<title>BMMFileStoreTIFF</title>
<ellipse fill="none" stroke="black" cx="2326.64" cy="-52.33" rx="222.92" ry="52.33"/>
<text xml:space="preserve" text-anchor="middle" x="2326.64" y="-72.03" font-family="Times,serif" font-size="14.00">BMMFileStoreTIFF</text>
<text xml:space="preserve" text-anchor="middle" x="2326.64" y="-55.53" font-family="Times,serif" font-size="14.00">File: ./bmm&#45;profile&#45;collection/startup/BMM/pilatus.py</text>
<text xml:space="preserve" text-anchor="middle" x="2326.64" y="-39.03" font-family="Times,serif" font-size="14.00">Methods: 3</text>
<text xml:space="preserve" text-anchor="middle" x="2326.64" y="-22.53" font-family="Times,serif" font-size="14.00">Attributes: 3</text>
</g>
<!-- FileStorePluginBase&#45;&gt;BMMFileStoreTIFF -->
<g id="edge5" class="edge">
<title>FileStorePluginBase&#45;&gt;BMMFileStoreTIFF</title>
<path fill="none" stroke="black" d="M2096.6,-212.16C2132.57,-187.32 2195.43,-143.92 2246.36,-108.76"/>
<polygon fill="black" stroke="black" points="2248.23,-111.72 2254.47,-103.15 2244.26,-105.96 2248.23,-111.72"/>
</g>
<!-- BMMDanteFileStoreHDF5 -->
<g id="node7" class="node">
<title>BMMDanteFileStoreHDF5</title>
<ellipse fill="none" stroke="black" cx="2839.64" cy="-52.33" rx="218.14" ry="52.33"/>
<text xml:space="preserve" text-anchor="middle" x="2839.64" y="-72.03" font-family="Times,serif" font-size="14.00">BMMDanteFileStoreHDF5</text>
<text xml:space="preserve" text-anchor="middle" x="2839.64" y="-55.53" font-family="Times,serif" font-size="14.00">File: ./bmm&#45;profile&#45;collection/startup/BMM/dante.py</text>
<text xml:space="preserve" text-anchor="middle" x="2839.64" y="-39.03" font-family="Times,serif" font-size="14.00">Methods: 3</text>
<text xml:space="preserve" text-anchor="middle" x="2839.64" y="-22.53" font-family="Times,serif" font-size="14.00">Attributes: 3</text>
</g>
<!-- FileStorePluginBase&#45;&gt;BMMDanteFileStoreHDF5 -->
<g id="edge6" class="edge">
<title>FileStorePluginBase&#45;&gt;BMMDanteFileStoreHDF5</title>
<path fill="none" stroke="black" d="M2131.47,-217.37C2249.1,-190.12 2503.52,-131.19 2673.17,-91.89"/>
<polygon fill="black" stroke="black" points="2673.8,-95.34 2682.75,-89.67 2672.22,-88.52 2673.8,-95.34"/>
</g>
<!-- FileStoreHDF5Single -->
<g id="node8" class="node">
<title>FileStoreHDF5Single</title>
<ellipse fill="none" stroke="black" cx="3333.64" cy="-52.33" rx="204.35" ry="52.33"/>
<text xml:space="preserve" text-anchor="middle" x="3333.64" y="-72.03" font-family="Times,serif" font-size="14.00">FileStoreHDF5Single</text>
<text xml:space="preserve" text-anchor="middle" x="3333.64" y="-55.53" font-family="Times,serif" font-size="14.00">File: ./six&#45;profile&#45;collection/startup/22&#45;rixscam.py</text>
<text xml:space="preserve" text-anchor="middle" x="3333.64" y="-39.03" font-family="Times,serif" font-size="14.00">Methods: 3</text>
<text xml:space="preserve" text-anchor="middle" x="3333.64" y="-22.53" font-family="Times,serif" font-size="14.00">Attributes: 3</text>
</g>
<!-- FileStorePluginBase&#45;&gt;FileStoreHDF5Single -->
<g id="edge7" class="edge">
<title>FileStorePluginBase&#45;&gt;FileStoreHDF5Single</title>
<path fill="none" stroke="black" d="M2131.56,-226.16C2293.3,-210.59 2731.69,-165.73 3093.64,-104.65 3118.82,-100.4 3145.37,-95.33 3171.26,-90.05"/>
<polygon fill="black" stroke="black" points="3171.74,-93.53 3180.83,-88.08 3170.33,-86.67 3171.74,-93.53"/>
</g>
<!-- XIAXMAPFileStore -->
<g id="node9" class="node">
<title>XIAXMAPFileStore</title>
<ellipse fill="none" stroke="black" cx="3794.64" cy="-52.33" rx="184.2" ry="52.33"/>
<text xml:space="preserve" text-anchor="middle" x="3794.64" y="-72.03" font-family="Times,serif" font-size="14.00">XIAXMAPFileStore</text>
<text xml:space="preserve" text-anchor="middle" x="3794.64" y="-55.53" font-family="Times,serif" font-size="14.00">File: ./iss&#45;profile&#45;collection/startup/42&#45;xia.py</text>
<text xml:space="preserve" text-anchor="middle" x="3794.64" y="-39.03" font-family="Times,serif" font-size="14.00">Methods: 10</text>
<text xml:space="preserve" text-anchor="middle" x="3794.64" y="-22.53" font-family="Times,serif" font-size="14.00">Attributes: 17</text>
</g>
<!-- FileStorePluginBase&#45;&gt;XIAXMAPFileStore -->
<g id="edge8" class="edge">
<title>FileStorePluginBase&#45;&gt;XIAXMAPFileStore</title>
<path fill="none" stroke="black" d="M2131.52,-230.03C2340.05,-222.4 3019.29,-192.03 3573.64,-104.65 3597.68,-100.86 3622.99,-95.91 3647.56,-90.58"/>
<polygon fill="black" stroke="black" points="3648.29,-94 3657.31,-88.44 3646.79,-87.17 3648.29,-94"/>
</g>
</g>
</svg>
