<?xml version="1.0" encoding="UTF-8" standalone="no"?>
<!DOCTYPE svg PUBLIC "-//W3C//DTD SVG 1.1//EN"
 "http://www.w3.org/Graphics/SVG/1.1/DTD/svg11.dtd">
<!-- Generated by graphviz version 14.0.0 (20250921.2048)
 -->
<!-- Pages: 1 -->
<svg width="6157pt" height="262pt"
 viewBox="0.00 0.00 6157.00 262.00" xmlns="http://www.w3.org/2000/svg" xmlns:xlink="http://www.w3.org/1999/xlink">
<g id="graph0" class="graph" transform="scale(1 1) rotate(0) translate(4 257.65)">
<polygon fill="white" stroke="none" points="-4,4 -4,-257.65 6153.27,-257.65 6153.27,4 -4,4"/>
<!-- FileStoreIterativeWrite -->
<g id="node1" class="node">
<title>FileStoreIterativeWrite</title>
<polygon fill="lightblue" stroke="lightblue" points="3055.95,-253.65 2914.7,-253.65 2914.7,-212.65 3055.95,-212.65 3055.95,-253.65"/>
<text xml:space="preserve" text-anchor="middle" x="2985.32" y="-236.35" font-family="Times,serif" font-size="14.00">FileStoreIterativeWrite</text>
<text xml:space="preserve" text-anchor="middle" x="2985.32" y="-219.85" font-family="Times,serif" font-size="14.00">(Parent Class)</text>
</g>
<!-- QASTIFFPlugin -->
<g id="node2" class="node">
<title>QASTIFFPlugin</title>
<ellipse fill="none" stroke="black" cx="221.32" cy="-52.33" rx="221.32" ry="52.33"/>
<text xml:space="preserve" text-anchor="middle" x="221.32" y="-72.03" font-family="Times,serif" font-size="14.00">QASTIFFPlugin</text>
<text xml:space="preserve" text-anchor="middle" x="221.32" y="-55.53" font-family="Times,serif" font-size="14.00">File: ./qas&#45;profile&#45;collection/startup/80&#45;areadetector.py</text>
<text xml:space="preserve" text-anchor="middle" x="221.32" y="-39.03" font-family="Times,serif" font-size="14.00">Methods: 1</text>
<text xml:space="preserve" text-anchor="middle" x="221.32" y="-22.53" font-family="Times,serif" font-size="14.00">Attributes: 1</text>
</g>
<!-- FileStoreIterativeWrite&#45;&gt;QASTIFFPlugin -->
<g id="edge1" class="edge">
<title>FileStoreIterativeWrite&#45;&gt;QASTIFFPlugin</title>
<path fill="none" stroke="black" d="M2914.21,-232.33C2615.98,-232.29 1437.31,-224.15 478.32,-104.65 450.2,-101.15 420.55,-96.31 391.77,-90.99"/>
<polygon fill="black" stroke="black" points="392.75,-87.62 382.28,-89.21 391.46,-94.5 392.75,-87.62"/>
</g>
<!-- QASHDF5Plugin -->
<g id="node3" class="node">
<title>QASHDF5Plugin</title>
<ellipse fill="none" stroke="black" cx="715.32" cy="-52.33" rx="200.64" ry="52.33"/>
<text xml:space="preserve" text-anchor="middle" x="715.32" y="-72.03" font-family="Times,serif" font-size="14.00">QASHDF5Plugin</text>
<text xml:space="preserve" text-anchor="middle" x="715.32" y="-55.53" font-family="Times,serif" font-size="14.00">File: ./qas&#45;profile&#45;collection/startup/82&#45;pilatus.py</text>
<text xml:space="preserve" text-anchor="middle" x="715.32" y="-39.03" font-family="Times,serif" font-size="14.00">Methods: 0</text>
<text xml:space="preserve" text-anchor="middle" x="715.32" y="-22.53" font-family="Times,serif" font-size="14.00">Attributes: 0</text>
</g>
<!-- FileStoreIterativeWrite&#45;&gt;QASHDF5Plugin -->
<g id="edge2" class="edge">
<title>FileStoreIterativeWrite&#45;&gt;QASHDF5Plugin</title>
<path fill="none" stroke="black" d="M2914.27,-231.56C2652.2,-228.56 1715.51,-210.61 952.32,-104.65 926.3,-101.04 898.89,-96.14 872.3,-90.79"/>
<polygon fill="black" stroke="black" points="873.34,-87.43 862.84,-88.86 871.94,-94.29 873.34,-87.43"/>
</g>
<!-- BMMHDF5Plugin -->
<g id="node4" class="node">
<title>BMMHDF5Plugin</title>
<ellipse fill="none" stroke="black" cx="1211.32" cy="-52.33" rx="222.92" ry="52.33"/>
<text xml:space="preserve" text-anchor="middle" x="1211.32" y="-72.03" font-family="Times,serif" font-size="14.00">BMMHDF5Plugin</text>
<text xml:space="preserve" text-anchor="middle" x="1211.32" y="-55.53" font-family="Times,serif" font-size="14.00">File: ./bmm&#45;profile&#45;collection/startup/BMM/pilatus.py</text>
<text xml:space="preserve" text-anchor="middle" x="1211.32" y="-39.03" font-family="Times,serif" font-size="14.00">Methods: 1</text>
<text xml:space="preserve" text-anchor="middle" x="1211.32" y="-22.53" font-family="Times,serif" font-size="14.00">Attributes: 3</text>
</g>
<!-- FileStoreIterativeWrite&#45;&gt;BMMHDF5Plugin -->
<g id="edge3" class="edge">
<title>FileStoreIterativeWrite&#45;&gt;BMMHDF5Plugin</title>
<path fill="none" stroke="black" d="M2914.4,-229C2697.39,-218.76 2023.46,-182.49 1470.32,-104.65 1442.67,-100.76 1413.52,-95.82 1385.14,-90.54"/>
<polygon fill="black" stroke="black" points="1385.85,-87.11 1375.37,-88.7 1384.55,-93.99 1385.85,-87.11"/>
</g>
<!-- BMMTIFFPlugin -->
<g id="node5" class="node">
<title>BMMTIFFPlugin</title>
<ellipse fill="none" stroke="black" cx="1729.32" cy="-52.33" rx="222.92" ry="52.33"/>
<text xml:space="preserve" text-anchor="middle" x="1729.32" y="-72.03" font-family="Times,serif" font-size="14.00">BMMTIFFPlugin</text>
<text xml:space="preserve" text-anchor="middle" x="1729.32" y="-55.53" font-family="Times,serif" font-size="14.00">File: ./bmm&#45;profile&#45;collection/startup/BMM/pilatus.py</text>
<text xml:space="preserve" text-anchor="middle" x="1729.32" y="-39.03" font-family="Times,serif" font-size="14.00">Methods: 0</text>
<text xml:space="preserve" text-anchor="middle" x="1729.32" y="-22.53" font-family="Times,serif" font-size="14.00">Attributes: 0</text>
</g>
<!-- FileStoreIterativeWrite&#45;&gt;BMMTIFFPlugin -->
<g id="edge4" class="edge">
<title>FileStoreIterativeWrite&#45;&gt;BMMTIFFPlugin</title>
<path fill="none" stroke="black" d="M2914.37,-224.77C2750.66,-207.36 2334.08,-160.95 1988.32,-104.65 1961.46,-100.28 1933.13,-95.17 1905.46,-89.91"/>
<polygon fill="black" stroke="black" points="1906.44,-86.53 1895.96,-88.09 1905.12,-93.41 1906.44,-86.53"/>
</g>
<!-- BMMDanteHDF5Plugin -->
<g id="node6" class="node">
<title>BMMDanteHDF5Plugin</title>
<ellipse fill="none" stroke="black" cx="2242.32" cy="-52.33" rx="218.14" ry="52.33"/>
<text xml:space="preserve" text-anchor="middle" x="2242.32" y="-72.03" font-family="Times,serif" font-size="14.00">BMMDanteHDF5Plugin</text>
<text xml:space="preserve" text-anchor="middle" x="2242.32" y="-55.53" font-family="Times,serif" font-size="14.00">File: ./bmm&#45;profile&#45;collection/startup/BMM/dante.py</text>
<text xml:space="preserve" text-anchor="middle" x="2242.32" y="-39.03" font-family="Times,serif" font-size="14.00">Methods: 5</text>
<text xml:space="preserve" text-anchor="middle" x="2242.32" y="-22.53" font-family="Times,serif" font-size="14.00">Attributes: 7</text>
</g>
<!-- FileStoreIterativeWrite&#45;&gt;BMMDanteHDF5Plugin -->
<g id="edge5" class="edge">
<title>FileStoreIterativeWrite&#45;&gt;BMMDanteHDF5Plugin</title>
<path fill="none" stroke="black" d="M2914.42,-215.09C2798.29,-187.14 2564.62,-130.9 2405.8,-92.67"/>
<polygon fill="black" stroke="black" points="2406.98,-89.36 2396.44,-90.42 2405.34,-96.16 2406.98,-89.36"/>
</g>
<!-- FileStoreHDF5SingleIterativeWrite -->
<g id="node7" class="node">
<title>FileStoreHDF5SingleIterativeWrite</title>
<ellipse fill="none" stroke="black" cx="2736.32" cy="-52.33" rx="204.35" ry="52.33"/>
<text xml:space="preserve" text-anchor="middle" x="2736.32" y="-72.03" font-family="Times,serif" font-size="14.00">FileStoreHDF5SingleIterativeWrite</text>
<text xml:space="preserve" text-anchor="middle" x="2736.32" y="-55.53" font-family="Times,serif" font-size="14.00">File: ./six&#45;profile&#45;collection/startup/22&#45;rixscam.py</text>
<text xml:space="preserve" text-anchor="middle" x="2736.32" y="-39.03" font-family="Times,serif" font-size="14.00">Methods: 0</text>
<text xml:space="preserve" text-anchor="middle" x="2736.32" y="-22.53" font-family="Times,serif" font-size="14.00">Attributes: 0</text>
</g>
<!-- FileStoreIterativeWrite&#45;&gt;FileStoreHDF5SingleIterativeWrite -->
<g id="edge6" class="edge">
<title>FileStoreIterativeWrite&#45;&gt;FileStoreHDF5SingleIterativeWrite</title>
<path fill="none" stroke="black" d="M2957.73,-212.33C2923.17,-187.51 2862.55,-143.98 2813.47,-108.73"/>
<polygon fill="black" stroke="black" points="2815.52,-105.9 2805.36,-102.9 2811.44,-111.58 2815.52,-105.9"/>
</g>
<!-- XPDTIFFPlugin -->
<g id="node8" class="node">
<title>XPDTIFFPlugin</title>
<ellipse fill="none" stroke="black" cx="3235.32" cy="-52.33" rx="222.92" ry="52.33"/>
<text xml:space="preserve" text-anchor="middle" x="3235.32" y="-72.03" font-family="Times,serif" font-size="14.00">XPDTIFFPlugin</text>
<text xml:space="preserve" text-anchor="middle" x="3235.32" y="-55.53" font-family="Times,serif" font-size="14.00">File: ./xpd&#45;profile&#45;collection/startup/80&#45;areadetector.py</text>
<text xml:space="preserve" text-anchor="middle" x="3235.32" y="-39.03" font-family="Times,serif" font-size="14.00">Methods: 0</text>
<text xml:space="preserve" text-anchor="middle" x="3235.32" y="-22.53" font-family="Times,serif" font-size="14.00">Attributes: 0</text>
</g>
<!-- FileStoreIterativeWrite&#45;&gt;XPDTIFFPlugin -->
<g id="edge7" class="edge">
<title>FileStoreIterativeWrite&#45;&gt;XPDTIFFPlugin</title>
<path fill="none" stroke="black" d="M3013.03,-212.33C3047.61,-187.6 3108.18,-144.28 3157.36,-109.09"/>
<polygon fill="black" stroke="black" points="3159.39,-111.94 3165.49,-103.28 3155.32,-106.25 3159.39,-111.94"/>
</g>
<!-- LiXFileStorePluginBase -->
<g id="node9" class="node">
<title>LiXFileStorePluginBase</title>
<ellipse fill="none" stroke="black" cx="3798.32" cy="-52.33" rx="268.52" ry="52.33"/>
<text xml:space="preserve" text-anchor="middle" x="3798.32" y="-72.03" font-family="Times,serif" font-size="14.00">LiXFileStorePluginBase</text>
<text xml:space="preserve" text-anchor="middle" x="3798.32" y="-55.53" font-family="Times,serif" font-size="14.00">File: ./lix&#45;profile&#45;collection/startup/obsolete/2023Sep/20&#45;pilatus.py</text>
<text xml:space="preserve" text-anchor="middle" x="3798.32" y="-39.03" font-family="Times,serif" font-size="14.00">Methods: 2</text>
<text xml:space="preserve" text-anchor="middle" x="3798.32" y="-22.53" font-family="Times,serif" font-size="14.00">Attributes: 2</text>
</g>
<!-- FileStoreIterativeWrite&#45;&gt;LiXFileStorePluginBase -->
<g id="edge8" class="edge">
<title>FileStoreIterativeWrite&#45;&gt;LiXFileStorePluginBase</title>
<path fill="none" stroke="black" d="M3056.41,-216.52C3179.1,-189.53 3434.41,-133.37 3611,-94.53"/>
<polygon fill="black" stroke="black" points="3611.49,-98 3620.51,-92.44 3609.99,-91.17 3611.49,-98"/>
</g>
<!-- PilatusFilePlugin -->
<g id="node10" class="node">
<title>PilatusFilePlugin</title>
<ellipse fill="none" stroke="black" cx="4371.32" cy="-52.33" rx="232.46" ry="52.33"/>
<text xml:space="preserve" text-anchor="middle" x="4371.32" y="-72.03" font-family="Times,serif" font-size="14.00">PilatusFilePlugin</text>
<text xml:space="preserve" text-anchor="middle" x="4371.32" y="-55.53" font-family="Times,serif" font-size="14.00">File: ./lix&#45;profile&#45;collection/startup/obsolete/20&#45;pilatus.py</text>
<text xml:space="preserve" text-anchor="middle" x="4371.32" y="-39.03" font-family="Times,serif" font-size="14.00">Methods: 4</text>
<text xml:space="preserve" text-anchor="middle" x="4371.32" y="-22.53" font-family="Times,serif" font-size="14.00">Attributes: 17</text>
</g>
<!-- FileStoreIterativeWrite&#45;&gt;PilatusFilePlugin -->
<g id="edge9" class="edge">
<title>FileStoreIterativeWrite&#45;&gt;PilatusFilePlugin</title>
<path fill="none" stroke="black" d="M3056.21,-225.95C3233.33,-210.03 3709.36,-164.75 4103.32,-104.65 4131.15,-100.41 4160.49,-95.37 4189.15,-90.13"/>
<polygon fill="black" stroke="black" points="4189.4,-93.64 4198.61,-88.39 4188.14,-86.76 4189.4,-93.64"/>
</g>
<!-- HEXTIFFPlugin -->
<g id="node11" class="node">
<title>HEXTIFFPlugin</title>
<ellipse fill="none" stroke="black" cx="4901.32" cy="-52.33" rx="225.57" ry="52.33"/>
<text xml:space="preserve" text-anchor="middle" x="4901.32" y="-72.03" font-family="Times,serif" font-size="14.00">HEXTIFFPlugin</text>
<text xml:space="preserve" text-anchor="middle" x="4901.32" y="-55.53" font-family="Times,serif" font-size="14.00">File: ./hex&#45;profile&#45;collection/startup/11&#45;perkin&#45;elmer.py</text>
<text xml:space="preserve" text-anchor="middle" x="4901.32" y="-39.03" font-family="Times,serif" font-size="14.00">Methods: 6</text>
<text xml:space="preserve" text-anchor="middle" x="4901.32" y="-22.53" font-family="Times,serif" font-size="14.00">Attributes: 8</text>
</g>
<!-- FileStoreIterativeWrite&#45;&gt;HEXTIFFPlugin -->
<g id="edge10" class="edge">
<title>FileStoreIterativeWrite&#45;&gt;HEXTIFFPlugin</title>
<path fill="none" stroke="black" d="M3056.17,-229.64C3285.75,-220.89 4029.69,-187.58 4639.32,-104.65 4667.42,-100.83 4697.06,-95.9 4725.89,-90.62"/>
<polygon fill="black" stroke="black" points="4726.21,-94.12 4735.4,-88.85 4724.93,-87.23 4726.21,-94.12"/>
</g>
<!-- FileStoreBulkReadable -->
<g id="node12" class="node">
<title>FileStoreBulkReadable</title>
<ellipse fill="none" stroke="black" cx="5432.32" cy="-52.33" rx="233.52" ry="52.33"/>
<text xml:space="preserve" text-anchor="middle" x="5432.32" y="-72.03" font-family="Times,serif" font-size="14.00">FileStoreBulkReadable</text>
<text xml:space="preserve" text-anchor="middle" x="5432.32" y="-55.53" font-family="Times,serif" font-size="14.00">File: ./srx&#45;profile&#45;collection/startup/39&#45;legacydetectors.py</text>
<text xml:space="preserve" text-anchor="middle" x="5432.32" y="-39.03" font-family="Times,serif" font-size="14.00">Methods: 3</text>
<text xml:space="preserve" text-anchor="middle" x="5432.32" y="-22.53" font-family="Times,serif" font-size="14.00">Attributes: 3</text>
</g>
<!-- FileStoreIterativeWrite&#45;&gt;FileStoreBulkReadable -->
<g id="edge11" class="edge">
<title>FileStoreIterativeWrite&#45;&gt;FileStoreBulkReadable</title>
<path fill="none" stroke="black" d="M3056.14,-231.35C3329.15,-227.55 4339.19,-206.96 5163.32,-104.65 5192.42,-101.04 5223.12,-96.19 5252.94,-90.91"/>
<polygon fill="black" stroke="black" points="5253.17,-94.42 5262.4,-89.21 5251.94,-87.53 5253.17,-94.42"/>
</g>
<!-- SRXTIFFPlugin -->
<g id="node13" class="node">
<title>SRXTIFFPlugin</title>
<ellipse fill="none" stroke="black" cx="5943.32" cy="-52.33" rx="205.94" ry="52.33"/>
<text xml:space="preserve" text-anchor="middle" x="5943.32" y="-72.03" font-family="Times,serif" font-size="14.00">SRXTIFFPlugin</text>
<text xml:space="preserve" text-anchor="middle" x="5943.32" y="-55.53" font-family="Times,serif" font-size="14.00">File: ./srx&#45;profile&#45;collection/startup/21&#45;cameras.py</text>
<text xml:space="preserve" text-anchor="middle" x="5943.32" y="-39.03" font-family="Times,serif" font-size="14.00">Methods: 0</text>
<text xml:space="preserve" text-anchor="middle" x="5943.32" y="-22.53" font-family="Times,serif" font-size="14.00">Attributes: 0</text>
</g>
<!-- FileStoreIterativeWrite&#45;&gt;SRXTIFFPlugin -->
<g id="edge12" class="edge">
<title>FileStoreIterativeWrite&#45;&gt;SRXTIFFPlugin</title>
<path fill="none" stroke="black" d="M3056.26,-230.39C3429.42,-220.89 5168.28,-173.58 5702.32,-104.65 5728.8,-101.23 5756.69,-96.43 5783.73,-91.13"/>
<polygon fill="black" stroke="black" points="5784.24,-94.59 5793.36,-89.2 5782.87,-87.73 5784.24,-94.59"/>
</g>
</g>
</svg>
