<?xml version="1.0" encoding="UTF-8" standalone="no"?>
<!DOCTYPE svg PUBLIC "-//W3C//DTD SVG 1.1//EN"
 "http://www.w3.org/Graphics/SVG/1.1/DTD/svg11.dtd">
<!-- Generated by graphviz version 14.0.0 (20250921.2048)
 -->
<!-- Pages: 1 -->
<svg width="962pt" height="262pt"
 viewBox="0.00 0.00 962.00 262.00" xmlns="http://www.w3.org/2000/svg" xmlns:xlink="http://www.w3.org/1999/xlink">
<g id="graph0" class="graph" transform="scale(1 1) rotate(0) translate(4 257.65)">
<polygon fill="white" stroke="none" points="-4,4 -4,-257.65 958.06,-257.65 958.06,4 -4,4"/>
<!-- FileStoreTIFF -->
<g id="node1" class="node">
<title>FileStoreTIFF</title>
<polygon fill="lightblue" stroke="lightblue" points="537.74,-253.65 444.49,-253.65 444.49,-212.65 537.74,-212.65 537.74,-253.65"/>
<text xml:space="preserve" text-anchor="middle" x="491.11" y="-236.35" font-family="Times,serif" font-size="14.00">FileStoreTIFF</text>
<text xml:space="preserve" text-anchor="middle" x="491.11" y="-219.85" font-family="Times,serif" font-size="14.00">(Parent Class)</text>
</g>
<!-- TIFFPluginWithFileStore -->
<g id="node2" class="node">
<title>TIFFPluginWithFileStore</title>
<ellipse fill="none" stroke="black" cx="235.11" cy="-52.33" rx="235.11" ry="52.33"/>
<text xml:space="preserve" text-anchor="middle" x="235.11" y="-72.03" font-family="Times,serif" font-size="14.00">TIFFPluginWithFileStore</text>
<text xml:space="preserve" text-anchor="middle" x="235.11" y="-55.53" font-family="Times,serif" font-size="14.00">File: ./amx&#45;profile&#45;collection/startup/96&#45;top_alignment.py</text>
<text xml:space="preserve" text-anchor="middle" x="235.11" y="-39.03" font-family="Times,serif" font-size="14.00">Methods: 0</text>
<text xml:space="preserve" text-anchor="middle" x="235.11" y="-22.53" font-family="Times,serif" font-size="14.00">Attributes: 0</text>
</g>
<!-- FileStoreTIFF&#45;&gt;TIFFPluginWithFileStore -->
<g id="edge1" class="edge">
<title>FileStoreTIFF&#45;&gt;TIFFPluginWithFileStore</title>
<path fill="none" stroke="black" d="M462.74,-212.33C427.32,-187.59 365.27,-144.25 314.89,-109.05"/>
<polygon fill="black" stroke="black" points="317.07,-106.31 306.87,-103.45 313.06,-112.05 317.07,-106.31"/>
</g>
<!-- SRXTIFFPlugin -->
<g id="node3" class="node">
<title>SRXTIFFPlugin</title>
<ellipse fill="none" stroke="black" cx="748.11" cy="-52.33" rx="205.94" ry="52.33"/>
<text xml:space="preserve" text-anchor="middle" x="748.11" y="-72.03" font-family="Times,serif" font-size="14.00">SRXTIFFPlugin</text>
<text xml:space="preserve" text-anchor="middle" x="748.11" y="-55.53" font-family="Times,serif" font-size="14.00">File: ./srx&#45;profile&#45;collection/startup/21&#45;cameras.py</text>
<text xml:space="preserve" text-anchor="middle" x="748.11" y="-39.03" font-family="Times,serif" font-size="14.00">Methods: 0</text>
<text xml:space="preserve" text-anchor="middle" x="748.11" y="-22.53" font-family="Times,serif" font-size="14.00">Attributes: 0</text>
</g>
<!-- FileStoreTIFF&#45;&gt;SRXTIFFPlugin -->
<g id="edge2" class="edge">
<title>FileStoreTIFF&#45;&gt;SRXTIFFPlugin</title>
<path fill="none" stroke="black" d="M519.6,-212.33C555.34,-187.46 618.09,-143.8 668.81,-108.51"/>
<polygon fill="black" stroke="black" points="670.68,-111.47 676.89,-102.89 666.68,-105.73 670.68,-111.47"/>
</g>
</g>
</svg>
