<?xml version="1.0" encoding="UTF-8" standalone="no"?>
<!DOCTYPE svg PUBLIC "-//W3C//DTD SVG 1.1//EN"
 "http://www.w3.org/Graphics/SVG/1.1/DTD/svg11.dtd">
<!-- Generated by graphviz version 14.0.0 (20250921.2048)
 -->
<!-- Pages: 1 -->
<svg width="1491pt" height="262pt"
 viewBox="0.00 0.00 1491.00 262.00" xmlns="http://www.w3.org/2000/svg" xmlns:xlink="http://www.w3.org/1999/xlink">
<g id="graph0" class="graph" transform="scale(1 1) rotate(0) translate(4 257.65)">
<polygon fill="white" stroke="none" points="-4,4 -4,-257.65 1486.89,-257.65 1486.89,4 -4,4"/>
<!-- FileStoreTIFFSquashing -->
<g id="node1" class="node">
<title>FileStoreTIFFSquashing</title>
<polygon fill="lightblue" stroke="lightblue" points="812.07,-253.65 662.57,-253.65 662.57,-212.65 812.07,-212.65 812.07,-253.65"/>
<text xml:space="preserve" text-anchor="middle" x="737.32" y="-236.35" font-family="Times,serif" font-size="14.00">FileStoreTIFFSquashing</text>
<text xml:space="preserve" text-anchor="middle" x="737.32" y="-219.85" font-family="Times,serif" font-size="14.00">(Parent Class)</text>
</g>
<!-- QASTIFFPlugin -->
<g id="node2" class="node">
<title>QASTIFFPlugin</title>
<ellipse fill="none" stroke="black" cx="221.32" cy="-52.33" rx="221.32" ry="52.33"/>
<text xml:space="preserve" text-anchor="middle" x="221.32" y="-72.03" font-family="Times,serif" font-size="14.00">QASTIFFPlugin</text>
<text xml:space="preserve" text-anchor="middle" x="221.32" y="-55.53" font-family="Times,serif" font-size="14.00">File: ./qas&#45;profile&#45;collection/startup/80&#45;areadetector.py</text>
<text xml:space="preserve" text-anchor="middle" x="221.32" y="-39.03" font-family="Times,serif" font-size="14.00">Methods: 1</text>
<text xml:space="preserve" text-anchor="middle" x="221.32" y="-22.53" font-family="Times,serif" font-size="14.00">Attributes: 1</text>
</g>
<!-- FileStoreTIFFSquashing&#45;&gt;QASTIFFPlugin -->
<g id="edge1" class="edge">
<title>FileStoreTIFFSquashing&#45;&gt;QASTIFFPlugin</title>
<path fill="none" stroke="black" d="M679.63,-212.16C601.77,-185.17 460.7,-136.28 355.56,-99.85"/>
<polygon fill="black" stroke="black" points="356.88,-96.6 346.29,-96.63 354.59,-103.21 356.88,-96.6"/>
</g>
<!-- XPDFileStoreTIFFSquashing -->
<g id="node3" class="node">
<title>XPDFileStoreTIFFSquashing</title>
<ellipse fill="none" stroke="black" cx="737.32" cy="-52.33" rx="222.92" ry="52.33"/>
<text xml:space="preserve" text-anchor="middle" x="737.32" y="-72.03" font-family="Times,serif" font-size="14.00">XPDFileStoreTIFFSquashing</text>
<text xml:space="preserve" text-anchor="middle" x="737.32" y="-55.53" font-family="Times,serif" font-size="14.00">File: ./xpd&#45;profile&#45;collection/startup/80&#45;areadetector.py</text>
<text xml:space="preserve" text-anchor="middle" x="737.32" y="-39.03" font-family="Times,serif" font-size="14.00">Methods: 1</text>
<text xml:space="preserve" text-anchor="middle" x="737.32" y="-22.53" font-family="Times,serif" font-size="14.00">Attributes: 3</text>
</g>
<!-- FileStoreTIFFSquashing&#45;&gt;XPDFileStoreTIFFSquashing -->
<g id="edge2" class="edge">
<title>FileStoreTIFFSquashing&#45;&gt;XPDFileStoreTIFFSquashing</title>
<path fill="none" stroke="black" d="M737.32,-212.33C737.32,-189.21 737.32,-149.84 737.32,-116.06"/>
<polygon fill="black" stroke="black" points="740.82,-116.37 737.32,-106.37 733.82,-116.37 740.82,-116.37"/>
</g>
<!-- HEXTIFFPlugin -->
<g id="node4" class="node">
<title>HEXTIFFPlugin</title>
<ellipse fill="none" stroke="black" cx="1257.32" cy="-52.33" rx="225.57" ry="52.33"/>
<text xml:space="preserve" text-anchor="middle" x="1257.32" y="-72.03" font-family="Times,serif" font-size="14.00">HEXTIFFPlugin</text>
<text xml:space="preserve" text-anchor="middle" x="1257.32" y="-55.53" font-family="Times,serif" font-size="14.00">File: ./hex&#45;profile&#45;collection/startup/11&#45;perkin&#45;elmer.py</text>
<text xml:space="preserve" text-anchor="middle" x="1257.32" y="-39.03" font-family="Times,serif" font-size="14.00">Methods: 6</text>
<text xml:space="preserve" text-anchor="middle" x="1257.32" y="-22.53" font-family="Times,serif" font-size="14.00">Attributes: 8</text>
</g>
<!-- FileStoreTIFFSquashing&#45;&gt;HEXTIFFPlugin -->
<g id="edge3" class="edge">
<title>FileStoreTIFFSquashing&#45;&gt;HEXTIFFPlugin</title>
<path fill="none" stroke="black" d="M795.46,-212.16C873.8,-185.22 1015.63,-136.44 1121.53,-100.02"/>
<polygon fill="black" stroke="black" points="1122.56,-103.37 1130.88,-96.81 1120.28,-96.75 1122.56,-103.37"/>
</g>
</g>
</svg>
