<?xml version="1.0" encoding="UTF-8" standalone="no"?>
<!DOCTYPE svg PUBLIC "-//W3C//DTD SVG 1.1//EN"
 "http://www.w3.org/Graphics/SVG/1.1/DTD/svg11.dtd">
<!-- Generated by graphviz version 14.0.0 (20250921.2048)
 -->
<!-- Pages: 1 -->
<svg width="950pt" height="262pt"
 viewBox="0.00 0.00 950.00 262.00" xmlns="http://www.w3.org/2000/svg" xmlns:xlink="http://www.w3.org/1999/xlink">
<g id="graph0" class="graph" transform="scale(1 1) rotate(0) translate(4 257.65)">
<polygon fill="white" stroke="none" points="-4,4 -4,-257.65 946.22,-257.65 946.22,4 -4,4"/>
<!-- FileStoreHDF5SingleIterativeWrite -->
<g id="node1" class="node">
<title>FileStoreHDF5SingleIterativeWrite</title>
<polygon fill="lightblue" stroke="lightblue" points="588.62,-253.65 379.12,-253.65 379.12,-212.65 588.62,-212.65 588.62,-253.65"/>
<text xml:space="preserve" text-anchor="middle" x="483.87" y="-236.35" font-family="Times,serif" font-size="14.00">FileStoreHDF5SingleIterativeWrite</text>
<text xml:space="preserve" text-anchor="middle" x="483.87" y="-219.85" font-family="Times,serif" font-size="14.00">(Parent Class)</text>
</g>
<!-- SpecsHDF5Plugin -->
<g id="node2" class="node">
<title>SpecsHDF5Plugin</title>
<ellipse fill="none" stroke="black" cx="230.87" cy="-52.33" rx="230.87" ry="52.33"/>
<text xml:space="preserve" text-anchor="middle" x="230.87" y="-72.03" font-family="Times,serif" font-size="14.00">SpecsHDF5Plugin</text>
<text xml:space="preserve" text-anchor="middle" x="230.87" y="-55.53" font-family="Times,serif" font-size="14.00">File: ./ios&#45;profile&#45;collection/startup/21&#45;specs_analyzer.py</text>
<text xml:space="preserve" text-anchor="middle" x="230.87" y="-39.03" font-family="Times,serif" font-size="14.00">Methods: 2</text>
<text xml:space="preserve" text-anchor="middle" x="230.87" y="-22.53" font-family="Times,serif" font-size="14.00">Attributes: 5</text>
</g>
<!-- FileStoreHDF5SingleIterativeWrite&#45;&gt;SpecsHDF5Plugin -->
<g id="edge1" class="edge">
<title>FileStoreHDF5SingleIterativeWrite&#45;&gt;SpecsHDF5Plugin</title>
<path fill="none" stroke="black" d="M455.83,-212.33C420.83,-187.59 359.5,-144.25 309.71,-109.05"/>
<polygon fill="black" stroke="black" points="311.98,-106.37 301.8,-103.46 307.94,-112.09 311.98,-106.37"/>
</g>
<!-- RIXSCamHDF5PluginForXIP -->
<g id="node3" class="node">
<title>RIXSCamHDF5PluginForXIP</title>
<ellipse fill="none" stroke="black" cx="737.87" cy="-52.33" rx="204.35" ry="52.33"/>
<text xml:space="preserve" text-anchor="middle" x="737.87" y="-72.03" font-family="Times,serif" font-size="14.00">RIXSCamHDF5PluginForXIP</text>
<text xml:space="preserve" text-anchor="middle" x="737.87" y="-55.53" font-family="Times,serif" font-size="14.00">File: ./six&#45;profile&#45;collection/startup/22&#45;rixscam.py</text>
<text xml:space="preserve" text-anchor="middle" x="737.87" y="-39.03" font-family="Times,serif" font-size="14.00">Methods: 4</text>
<text xml:space="preserve" text-anchor="middle" x="737.87" y="-22.53" font-family="Times,serif" font-size="14.00">Attributes: 6</text>
</g>
<!-- FileStoreHDF5SingleIterativeWrite&#45;&gt;RIXSCamHDF5PluginForXIP -->
<g id="edge2" class="edge">
<title>FileStoreHDF5SingleIterativeWrite&#45;&gt;RIXSCamHDF5PluginForXIP</title>
<path fill="none" stroke="black" d="M512.02,-212.33C547.35,-187.46 609.37,-143.8 659.49,-108.51"/>
<polygon fill="black" stroke="black" points="661.3,-111.51 667.47,-102.89 657.27,-105.79 661.3,-111.51"/>
</g>
</g>
</svg>
