<?xml version="1.0" encoding="UTF-8" standalone="no"?>
<!DOCTYPE svg PUBLIC "-//W3C//DTD SVG 1.1//EN"
 "http://www.w3.org/Graphics/SVG/1.1/DTD/svg11.dtd">
<!-- Generated by graphviz version 14.0.0 (20250921.2048)
 -->
<!-- Pages: 1 -->
<svg width="958pt" height="262pt"
 viewBox="0.00 0.00 958.00 262.00" xmlns="http://www.w3.org/2000/svg" xmlns:xlink="http://www.w3.org/1999/xlink">
<g id="graph0" class="graph" transform="scale(1 1) rotate(0) translate(4 257.65)">
<polygon fill="white" stroke="none" points="-4,4 -4,-257.65 953.94,-257.65 953.94,4 -4,4"/>
<!-- FlyerAPBwithTrigger -->
<g id="node1" class="node">
<title>FlyerAPBwithTrigger</title>
<polygon fill="lightblue" stroke="lightblue" points="548.19,-253.65 412.94,-253.65 412.94,-212.65 548.19,-212.65 548.19,-253.65"/>
<text xml:space="preserve" text-anchor="middle" x="480.57" y="-236.35" font-family="Times,serif" font-size="14.00">FlyerAPBwithTrigger</text>
<text xml:space="preserve" text-anchor="middle" x="480.57" y="-219.85" font-family="Times,serif" font-size="14.00">(Parent Class)</text>
</g>
<!-- FlyerPilatus -->
<g id="node2" class="node">
<title>FlyerPilatus</title>
<ellipse fill="none" stroke="black" cx="225.57" cy="-52.33" rx="225.57" ry="52.33"/>
<text xml:space="preserve" text-anchor="middle" x="225.57" y="-72.03" font-family="Times,serif" font-size="14.00">FlyerPilatus</text>
<text xml:space="preserve" text-anchor="middle" x="225.57" y="-55.53" font-family="Times,serif" font-size="14.00">File: ./qas&#45;profile&#45;collection/startup/87&#45;pilatus_plans.py</text>
<text xml:space="preserve" text-anchor="middle" x="225.57" y="-39.03" font-family="Times,serif" font-size="14.00">Methods: 6</text>
<text xml:space="preserve" text-anchor="middle" x="225.57" y="-22.53" font-family="Times,serif" font-size="14.00">Attributes: 6</text>
</g>
<!-- FlyerAPBwithTrigger&#45;&gt;FlyerPilatus -->
<g id="edge1" class="edge">
<title>FlyerAPBwithTrigger&#45;&gt;FlyerPilatus</title>
<path fill="none" stroke="black" d="M452.3,-212.33C416.96,-187.55 355,-144.1 304.77,-108.87"/>
<polygon fill="black" stroke="black" points="306.98,-106.14 296.78,-103.27 302.96,-111.87 306.98,-106.14"/>
</g>
<!-- FlyerXS -->
<g id="node3" class="node">
<title>FlyerXS</title>
<ellipse fill="none" stroke="black" cx="736.57" cy="-52.33" rx="213.37" ry="52.33"/>
<text xml:space="preserve" text-anchor="middle" x="736.57" y="-72.03" font-family="Times,serif" font-size="14.00">FlyerXS</text>
<text xml:space="preserve" text-anchor="middle" x="736.57" y="-55.53" font-family="Times,serif" font-size="14.00">File: ./qas&#45;profile&#45;collection/startup/86&#45;xs3_plans.py</text>
<text xml:space="preserve" text-anchor="middle" x="736.57" y="-39.03" font-family="Times,serif" font-size="14.00">Methods: 6</text>
<text xml:space="preserve" text-anchor="middle" x="736.57" y="-22.53" font-family="Times,serif" font-size="14.00">Attributes: 7</text>
</g>
<!-- FlyerAPBwithTrigger&#45;&gt;FlyerXS -->
<g id="edge2" class="edge">
<title>FlyerAPBwithTrigger&#45;&gt;FlyerXS</title>
<path fill="none" stroke="black" d="M508.94,-212.33C544.48,-187.5 606.84,-143.95 657.31,-108.69"/>
<polygon fill="black" stroke="black" points="659.15,-111.67 665.35,-103.08 655.14,-105.93 659.15,-111.67"/>
</g>
</g>
</svg>
