<?xml version="1.0" encoding="UTF-8" standalone="no"?>
<!DOCTYPE svg PUBLIC "-//W3C//DTD SVG 1.1//EN"
 "http://www.w3.org/Graphics/SVG/1.1/DTD/svg11.dtd">
<!-- Generated by graphviz version 14.0.0 (20250921.2048)
 -->
<!-- Pages: 1 -->
<svg width="978pt" height="262pt"
 viewBox="0.00 0.00 978.00 262.00" xmlns="http://www.w3.org/2000/svg" xmlns:xlink="http://www.w3.org/1999/xlink">
<g id="graph0" class="graph" transform="scale(1 1) rotate(0) translate(4 257.65)">
<polygon fill="white" stroke="none" points="-4,4 -4,-257.65 974.01,-257.65 974.01,4 -4,4"/>
<!-- FMBOEpicsMotor -->
<g id="node1" class="node">
<title>FMBOEpicsMotor</title>
<polygon fill="lightblue" stroke="lightblue" points="544.26,-253.65 424.76,-253.65 424.76,-212.65 544.26,-212.65 544.26,-253.65"/>
<text xml:space="preserve" text-anchor="middle" x="484.51" y="-236.35" font-family="Times,serif" font-size="14.00">FMBOEpicsMotor</text>
<text xml:space="preserve" text-anchor="middle" x="484.51" y="-219.85" font-family="Times,serif" font-size="14.00">(Parent Class)</text>
</g>
<!-- XAFSEpicsMotor -->
<g id="node2" class="node">
<title>XAFSEpicsMotor</title>
<ellipse fill="none" stroke="black" cx="224.51" cy="-52.33" rx="224.51" ry="52.33"/>
<text xml:space="preserve" text-anchor="middle" x="224.51" y="-72.03" font-family="Times,serif" font-size="14.00">XAFSEpicsMotor</text>
<text xml:space="preserve" text-anchor="middle" x="224.51" y="-55.53" font-family="Times,serif" font-size="14.00">File: ./bmm&#45;profile&#45;collection/startup/BMM/motors.py</text>
<text xml:space="preserve" text-anchor="middle" x="224.51" y="-39.03" font-family="Times,serif" font-size="14.00">Methods: 4</text>
<text xml:space="preserve" text-anchor="middle" x="224.51" y="-22.53" font-family="Times,serif" font-size="14.00">Attributes: 12</text>
</g>
<!-- FMBOEpicsMotor&#45;&gt;XAFSEpicsMotor -->
<g id="edge1" class="edge">
<title>FMBOEpicsMotor&#45;&gt;XAFSEpicsMotor</title>
<path fill="none" stroke="black" d="M455.44,-212.16C419.32,-187.32 356.22,-143.92 305.1,-108.76"/>
<polygon fill="black" stroke="black" points="307.17,-105.93 296.95,-103.15 303.21,-111.7 307.17,-105.93"/>
</g>
<!-- VacuumEpicsMotor -->
<g id="node3" class="node">
<title>VacuumEpicsMotor</title>
<ellipse fill="none" stroke="black" cx="745.51" cy="-52.33" rx="224.51" ry="52.33"/>
<text xml:space="preserve" text-anchor="middle" x="745.51" y="-72.03" font-family="Times,serif" font-size="14.00">VacuumEpicsMotor</text>
<text xml:space="preserve" text-anchor="middle" x="745.51" y="-55.53" font-family="Times,serif" font-size="14.00">File: ./bmm&#45;profile&#45;collection/startup/BMM/motors.py</text>
<text xml:space="preserve" text-anchor="middle" x="745.51" y="-39.03" font-family="Times,serif" font-size="14.00">Methods: 2</text>
<text xml:space="preserve" text-anchor="middle" x="745.51" y="-22.53" font-family="Times,serif" font-size="14.00">Attributes: 4</text>
</g>
<!-- FMBOEpicsMotor&#45;&gt;VacuumEpicsMotor -->
<g id="edge2" class="edge">
<title>FMBOEpicsMotor&#45;&gt;VacuumEpicsMotor</title>
<path fill="none" stroke="black" d="M513.69,-212.16C549.94,-187.32 613.28,-143.92 664.6,-108.76"/>
<polygon fill="black" stroke="black" points="666.52,-111.69 672.79,-103.15 662.56,-105.91 666.52,-111.69"/>
</g>
</g>
</svg>
