<?xml version="1.0" encoding="UTF-8" standalone="no"?>
<!DOCTYPE svg PUBLIC "-//W3C//DTD SVG 1.1//EN"
 "http://www.w3.org/Graphics/SVG/1.1/DTD/svg11.dtd">
<!-- Generated by graphviz version 14.0.0 (20250921.2048)
 -->
<!-- Pages: 1 -->
<svg width="3360pt" height="262pt"
 viewBox="0.00 0.00 3360.00 262.00" xmlns="http://www.w3.org/2000/svg" xmlns:xlink="http://www.w3.org/1999/xlink">
<g id="graph0" class="graph" transform="scale(1 1) rotate(0) translate(4 257.65)">
<polygon fill="white" stroke="none" points="-4,4 -4,-257.65 3355.65,-257.65 3355.65,4 -4,4"/>
<!-- GIBar -->
<g id="node1" class="node">
<title>GIBar</title>
<polygon fill="lightblue" stroke="lightblue" points="1648.48,-253.65 1555.98,-253.65 1555.98,-212.65 1648.48,-212.65 1648.48,-253.65"/>
<text xml:space="preserve" text-anchor="middle" x="1602.23" y="-236.35" font-family="Times,serif" font-size="14.00">GIBar</text>
<text xml:space="preserve" text-anchor="middle" x="1602.23" y="-219.85" font-family="Times,serif" font-size="14.00">(Parent Class)</text>
</g>
<!-- GIBar_long_thermal -->
<g id="node2" class="node">
<title>GIBar_long_thermal</title>
<ellipse fill="none" stroke="black" cx="237.23" cy="-52.33" rx="237.23" ry="52.33"/>
<text xml:space="preserve" text-anchor="middle" x="237.23" y="-72.03" font-family="Times,serif" font-size="14.00">GIBar_long_thermal</text>
<text xml:space="preserve" text-anchor="middle" x="237.23" y="-55.53" font-family="Times,serif" font-size="14.00">File: ./cms&#45;profile&#45;collection/startup/95&#45;sample&#45;custom.py</text>
<text xml:space="preserve" text-anchor="middle" x="237.23" y="-39.03" font-family="Times,serif" font-size="14.00">Methods: 5</text>
<text xml:space="preserve" text-anchor="middle" x="237.23" y="-22.53" font-family="Times,serif" font-size="14.00">Attributes: 6</text>
</g>
<!-- GIBar&#45;&gt;GIBar_long_thermal -->
<g id="edge1" class="edge">
<title>GIBar&#45;&gt;GIBar_long_thermal</title>
<path fill="none" stroke="black" d="M1555.51,-227.87C1404.09,-213.75 913.34,-166 510.23,-104.65 482.01,-100.36 452.25,-95.3 423.17,-90.07"/>
<polygon fill="black" stroke="black" points="424.01,-86.67 413.55,-88.33 422.76,-93.56 424.01,-86.67"/>
</g>
<!-- GIBar_Linkam -->
<g id="node3" class="node">
<title>GIBar_Linkam</title>
<ellipse fill="none" stroke="black" cx="783.23" cy="-52.33" rx="237.23" ry="52.33"/>
<text xml:space="preserve" text-anchor="middle" x="783.23" y="-72.03" font-family="Times,serif" font-size="14.00">GIBar_Linkam</text>
<text xml:space="preserve" text-anchor="middle" x="783.23" y="-55.53" font-family="Times,serif" font-size="14.00">File: ./cms&#45;profile&#45;collection/startup/95&#45;sample&#45;custom.py</text>
<text xml:space="preserve" text-anchor="middle" x="783.23" y="-39.03" font-family="Times,serif" font-size="14.00">Methods: 1</text>
<text xml:space="preserve" text-anchor="middle" x="783.23" y="-22.53" font-family="Times,serif" font-size="14.00">Attributes: 1</text>
</g>
<!-- GIBar&#45;&gt;GIBar_Linkam -->
<g id="edge2" class="edge">
<title>GIBar&#45;&gt;GIBar_Linkam</title>
<path fill="none" stroke="black" d="M1555.56,-221.96C1443.11,-197.41 1152.41,-133.94 961.49,-92.25"/>
<polygon fill="black" stroke="black" points="962.48,-88.88 951.96,-90.17 960.99,-95.72 962.48,-88.88"/>
</g>
<!-- GIBarSecondStage -->
<g id="node4" class="node">
<title>GIBarSecondStage</title>
<ellipse fill="none" stroke="black" cx="1329.23" cy="-52.33" rx="237.23" ry="52.33"/>
<text xml:space="preserve" text-anchor="middle" x="1329.23" y="-72.03" font-family="Times,serif" font-size="14.00">GIBarSecondStage</text>
<text xml:space="preserve" text-anchor="middle" x="1329.23" y="-55.53" font-family="Times,serif" font-size="14.00">File: ./cms&#45;profile&#45;collection/startup/95&#45;sample&#45;custom.py</text>
<text xml:space="preserve" text-anchor="middle" x="1329.23" y="-39.03" font-family="Times,serif" font-size="14.00">Methods: 1</text>
<text xml:space="preserve" text-anchor="middle" x="1329.23" y="-22.53" font-family="Times,serif" font-size="14.00">Attributes: 0</text>
</g>
<!-- GIBar&#45;&gt;GIBarSecondStage -->
<g id="edge3" class="edge">
<title>GIBar&#45;&gt;GIBarSecondStage</title>
<path fill="none" stroke="black" d="M1571.71,-212.16C1533.71,-187.27 1467.26,-143.74 1413.52,-108.54"/>
<polygon fill="black" stroke="black" points="1415.54,-105.68 1405.26,-103.12 1411.7,-111.53 1415.54,-105.68"/>
</g>
<!-- HumidityStage -->
<g id="node5" class="node">
<title>HumidityStage</title>
<ellipse fill="none" stroke="black" cx="1875.23" cy="-52.33" rx="237.23" ry="52.33"/>
<text xml:space="preserve" text-anchor="middle" x="1875.23" y="-72.03" font-family="Times,serif" font-size="14.00">HumidityStage</text>
<text xml:space="preserve" text-anchor="middle" x="1875.23" y="-55.53" font-family="Times,serif" font-size="14.00">File: ./cms&#45;profile&#45;collection/startup/95&#45;sample&#45;custom.py</text>
<text xml:space="preserve" text-anchor="middle" x="1875.23" y="-39.03" font-family="Times,serif" font-size="14.00">Methods: 3</text>
<text xml:space="preserve" text-anchor="middle" x="1875.23" y="-22.53" font-family="Times,serif" font-size="14.00">Attributes: 0</text>
</g>
<!-- GIBar&#45;&gt;HumidityStage -->
<g id="edge4" class="edge">
<title>GIBar&#45;&gt;HumidityStage</title>
<path fill="none" stroke="black" d="M1632.76,-212.16C1670.76,-187.27 1737.21,-143.74 1790.95,-108.54"/>
<polygon fill="black" stroke="black" points="1792.76,-111.53 1799.21,-103.12 1788.93,-105.68 1792.76,-111.53"/>
</g>
<!-- OffCenteredHoder -->
<g id="node6" class="node">
<title>OffCenteredHoder</title>
<ellipse fill="none" stroke="black" cx="2421.23" cy="-52.33" rx="237.23" ry="52.33"/>
<text xml:space="preserve" text-anchor="middle" x="2421.23" y="-72.03" font-family="Times,serif" font-size="14.00">OffCenteredHoder</text>
<text xml:space="preserve" text-anchor="middle" x="2421.23" y="-55.53" font-family="Times,serif" font-size="14.00">File: ./cms&#45;profile&#45;collection/startup/95&#45;sample&#45;custom.py</text>
<text xml:space="preserve" text-anchor="middle" x="2421.23" y="-39.03" font-family="Times,serif" font-size="14.00">Methods: 2</text>
<text xml:space="preserve" text-anchor="middle" x="2421.23" y="-22.53" font-family="Times,serif" font-size="14.00">Attributes: 7</text>
</g>
<!-- GIBar&#45;&gt;OffCenteredHoder -->
<g id="edge5" class="edge">
<title>GIBar&#45;&gt;OffCenteredHoder</title>
<path fill="none" stroke="black" d="M1648.91,-221.96C1761.36,-197.41 2052.05,-133.94 2242.98,-92.25"/>
<polygon fill="black" stroke="black" points="2243.48,-95.72 2252.5,-90.17 2241.99,-88.88 2243.48,-95.72"/>
</g>
<!-- GIBar_Custom -->
<g id="node7" class="node">
<title>GIBar_Custom</title>
<ellipse fill="none" stroke="black" cx="3041.23" cy="-52.33" rx="310.42" ry="52.33"/>
<text xml:space="preserve" text-anchor="middle" x="3041.23" y="-72.03" font-family="Times,serif" font-size="14.00">GIBar_Custom</text>
<text xml:space="preserve" text-anchor="middle" x="3041.23" y="-55.53" font-family="Times,serif" font-size="14.00">File: ./cms&#45;profile&#45;collection/startup/user_collection/user_LinkamThermal.py</text>
<text xml:space="preserve" text-anchor="middle" x="3041.23" y="-39.03" font-family="Times,serif" font-size="14.00">Methods: 2</text>
<text xml:space="preserve" text-anchor="middle" x="3041.23" y="-22.53" font-family="Times,serif" font-size="14.00">Attributes: 0</text>
</g>
<!-- GIBar&#45;&gt;GIBar_Custom -->
<g id="edge6" class="edge">
<title>GIBar&#45;&gt;GIBar_Custom</title>
<path fill="none" stroke="black" d="M1648.86,-227.22C1800.01,-211.14 2290.01,-158.13 2694.23,-104.65 2728.98,-100.06 2765.63,-94.93 2801.59,-89.75"/>
<polygon fill="black" stroke="black" points="2801.83,-93.25 2811.22,-88.36 2800.83,-86.32 2801.83,-93.25"/>
</g>
</g>
</svg>
