<?xml version="1.0" encoding="UTF-8" standalone="no"?>
<!DOCTYPE svg PUBLIC "-//W3C//DTD SVG 1.1//EN"
 "http://www.w3.org/Graphics/SVG/1.1/DTD/svg11.dtd">
<!-- Generated by graphviz version 14.0.0 (20250921.2048)
 -->
<!-- Pages: 1 -->
<svg width="6296pt" height="262pt"
 viewBox="0.00 0.00 6296.00 262.00" xmlns="http://www.w3.org/2000/svg" xmlns:xlink="http://www.w3.org/1999/xlink">
<g id="graph0" class="graph" transform="scale(1 1) rotate(0) translate(4 257.65)">
<polygon fill="white" stroke="none" points="-4,4 -4,-257.65 6291.81,-257.65 6291.81,4 -4,4"/>
<!-- HandlerBase -->
<g id="node1" class="node">
<title>HandlerBase</title>
<polygon fill="lightblue" stroke="lightblue" points="3153.19,-253.65 3060.69,-253.65 3060.69,-212.65 3153.19,-212.65 3153.19,-253.65"/>
<text xml:space="preserve" text-anchor="middle" x="3106.94" y="-236.35" font-family="Times,serif" font-size="14.00">HandlerBase</text>
<text xml:space="preserve" text-anchor="middle" x="3106.94" y="-219.85" font-family="Times,serif" font-size="14.00">(Parent Class)</text>
</g>
<!-- BulkXspress3Handler -->
<g id="node2" class="node">
<title>BulkXspress3Handler</title>
<ellipse fill="none" stroke="black" cx="205.94" cy="-52.33" rx="205.94" ry="52.33"/>
<text xml:space="preserve" text-anchor="middle" x="205.94" y="-72.03" font-family="Times,serif" font-size="14.00">BulkXspress3Handler</text>
<text xml:space="preserve" text-anchor="middle" x="205.94" y="-55.53" font-family="Times,serif" font-size="14.00">File: ./tes&#45;profile&#45;collection/startup/27&#45;xspress3.py</text>
<text xml:space="preserve" text-anchor="middle" x="205.94" y="-39.03" font-family="Times,serif" font-size="14.00">Methods: 2</text>
<text xml:space="preserve" text-anchor="middle" x="205.94" y="-22.53" font-family="Times,serif" font-size="14.00">Attributes: 2</text>
</g>
<!-- HandlerBase&#45;&gt;BulkXspress3Handler -->
<g id="edge1" class="edge">
<title>HandlerBase&#45;&gt;BulkXspress3Handler</title>
<path fill="none" stroke="black" d="M3060.33,-230.95C2750.22,-222.81 981.67,-173.94 446.94,-104.65 420.47,-101.22 392.58,-96.41 365.55,-91.1"/>
<polygon fill="black" stroke="black" points="366.4,-87.71 355.91,-89.18 365.03,-94.57 366.4,-87.71"/>
</g>
<!-- PizzaBoxAnHandlerTxt -->
<g id="node3" class="node">
<title>PizzaBoxAnHandlerTxt</title>
<ellipse fill="none" stroke="black" cx="690.94" cy="-52.33" rx="207.54" ry="52.33"/>
<text xml:space="preserve" text-anchor="middle" x="690.94" y="-72.03" font-family="Times,serif" font-size="14.00">PizzaBoxAnHandlerTxt</text>
<text xml:space="preserve" text-anchor="middle" x="690.94" y="-55.53" font-family="Times,serif" font-size="14.00">File: ./qas&#45;profile&#45;collection/startup/11&#45;handlers.py</text>
<text xml:space="preserve" text-anchor="middle" x="690.94" y="-39.03" font-family="Times,serif" font-size="14.00">Methods: 2</text>
<text xml:space="preserve" text-anchor="middle" x="690.94" y="-22.53" font-family="Times,serif" font-size="14.00">Attributes: 7</text>
</g>
<!-- HandlerBase&#45;&gt;PizzaBoxAnHandlerTxt -->
<g id="edge2" class="edge">
<title>HandlerBase&#45;&gt;PizzaBoxAnHandlerTxt</title>
<path fill="none" stroke="black" d="M3060.47,-231.98C2829.49,-230.59 1782.49,-218.03 934.94,-104.65 908.26,-101.08 880.15,-96.22 852.87,-90.9"/>
<polygon fill="black" stroke="black" points="853.62,-87.48 843.13,-88.97 852.26,-94.35 853.62,-87.48"/>
</g>
<!-- APBTriggerFileHandler -->
<g id="node4" class="node">
<title>APBTriggerFileHandler</title>
<ellipse fill="none" stroke="black" cx="1186.94" cy="-52.33" rx="216.02" ry="52.33"/>
<text xml:space="preserve" text-anchor="middle" x="1186.94" y="-72.03" font-family="Times,serif" font-size="14.00">APBTriggerFileHandler</text>
<text xml:space="preserve" text-anchor="middle" x="1186.94" y="-55.53" font-family="Times,serif" font-size="14.00">File: ./iss&#45;profile&#45;collection/startup/34&#45;apb_trigger.py</text>
<text xml:space="preserve" text-anchor="middle" x="1186.94" y="-39.03" font-family="Times,serif" font-size="14.00">Methods: 2</text>
<text xml:space="preserve" text-anchor="middle" x="1186.94" y="-22.53" font-family="Times,serif" font-size="14.00">Attributes: 4</text>
</g>
<!-- HandlerBase&#45;&gt;APBTriggerFileHandler -->
<g id="edge3" class="edge">
<title>HandlerBase&#45;&gt;APBTriggerFileHandler</title>
<path fill="none" stroke="black" d="M3060.29,-230.72C2862.92,-224.2 2077.51,-193.73 1438.94,-104.65 1411.81,-100.87 1383.21,-95.95 1355.4,-90.66"/>
<polygon fill="black" stroke="black" points="1356.34,-87.27 1345.86,-88.82 1355.02,-94.15 1356.34,-87.27"/>
</g>
<!-- APBBinFileHandler -->
<g id="node5" class="node">
<title>APBBinFileHandler</title>
<ellipse fill="none" stroke="black" cx="1663.94" cy="-52.33" rx="188.97" ry="52.33"/>
<text xml:space="preserve" text-anchor="middle" x="1663.94" y="-72.03" font-family="Times,serif" font-size="14.00">APBBinFileHandler</text>
<text xml:space="preserve" text-anchor="middle" x="1663.94" y="-55.53" font-family="Times,serif" font-size="14.00">File: ./qas&#45;profile&#45;collection/startup/29&#45;apb.py</text>
<text xml:space="preserve" text-anchor="middle" x="1663.94" y="-39.03" font-family="Times,serif" font-size="14.00">Methods: 2</text>
<text xml:space="preserve" text-anchor="middle" x="1663.94" y="-22.53" font-family="Times,serif" font-size="14.00">Attributes: 5</text>
</g>
<!-- HandlerBase&#45;&gt;APBBinFileHandler -->
<g id="edge4" class="edge">
<title>HandlerBase&#45;&gt;APBBinFileHandler</title>
<path fill="none" stroke="black" d="M3060.21,-229.29C2897.64,-218.89 2342.01,-179.76 1888.94,-104.65 1864.76,-100.64 1839.28,-95.62 1814.5,-90.29"/>
<polygon fill="black" stroke="black" points="1815.55,-86.94 1805.04,-88.23 1814.06,-93.78 1815.55,-86.94"/>
</g>
<!-- PizzaBoxEncHandlerTxt -->
<g id="node6" class="node">
<title>PizzaBoxEncHandlerTxt</title>
<ellipse fill="none" stroke="black" cx="2132.94" cy="-52.33" rx="207.54" ry="52.33"/>
<text xml:space="preserve" text-anchor="middle" x="2132.94" y="-72.03" font-family="Times,serif" font-size="14.00">PizzaBoxEncHandlerTxt</text>
<text xml:space="preserve" text-anchor="middle" x="2132.94" y="-55.53" font-family="Times,serif" font-size="14.00">File: ./qas&#45;profile&#45;collection/startup/11&#45;handlers.py</text>
<text xml:space="preserve" text-anchor="middle" x="2132.94" y="-39.03" font-family="Times,serif" font-size="14.00">Methods: 2</text>
<text xml:space="preserve" text-anchor="middle" x="2132.94" y="-22.53" font-family="Times,serif" font-size="14.00">Attributes: 3</text>
</g>
<!-- HandlerBase&#45;&gt;PizzaBoxEncHandlerTxt -->
<g id="edge5" class="edge">
<title>HandlerBase&#45;&gt;PizzaBoxEncHandlerTxt</title>
<path fill="none" stroke="black" d="M3060.23,-224.59C2944.21,-205.7 2633.68,-154.33 2375.94,-104.65 2351.42,-99.92 2325.55,-94.71 2300.2,-89.47"/>
<polygon fill="black" stroke="black" points="2300.97,-86.05 2290.47,-87.45 2299.55,-92.91 2300.97,-86.05"/>
</g>
<!-- PizzaBoxDIHandlerTxt -->
<g id="node7" class="node">
<title>PizzaBoxDIHandlerTxt</title>
<ellipse fill="none" stroke="black" cx="2619.94" cy="-52.33" rx="207.54" ry="52.33"/>
<text xml:space="preserve" text-anchor="middle" x="2619.94" y="-72.03" font-family="Times,serif" font-size="14.00">PizzaBoxDIHandlerTxt</text>
<text xml:space="preserve" text-anchor="middle" x="2619.94" y="-55.53" font-family="Times,serif" font-size="14.00">File: ./qas&#45;profile&#45;collection/startup/11&#45;handlers.py</text>
<text xml:space="preserve" text-anchor="middle" x="2619.94" y="-39.03" font-family="Times,serif" font-size="14.00">Methods: 2</text>
<text xml:space="preserve" text-anchor="middle" x="2619.94" y="-22.53" font-family="Times,serif" font-size="14.00">Attributes: 4</text>
</g>
<!-- HandlerBase&#45;&gt;PizzaBoxDIHandlerTxt -->
<g id="edge6" class="edge">
<title>HandlerBase&#45;&gt;PizzaBoxDIHandlerTxt</title>
<path fill="none" stroke="black" d="M3060.25,-215.01C2988.8,-188.77 2849.82,-137.74 2747.03,-99.99"/>
<polygon fill="black" stroke="black" points="2748.27,-96.72 2737.68,-96.56 2745.86,-103.29 2748.27,-96.72"/>
</g>
<!-- BulkXspress -->
<g id="node8" class="node">
<title>BulkXspress</title>
<ellipse fill="none" stroke="black" cx="3106.94" cy="-52.33" rx="207.01" ry="52.33"/>
<text xml:space="preserve" text-anchor="middle" x="3106.94" y="-72.03" font-family="Times,serif" font-size="14.00">BulkXspress</text>
<text xml:space="preserve" text-anchor="middle" x="3106.94" y="-55.53" font-family="Times,serif" font-size="14.00">File: ./srx&#45;profile&#45;collection/startup/31&#45;xspress3.py</text>
<text xml:space="preserve" text-anchor="middle" x="3106.94" y="-39.03" font-family="Times,serif" font-size="14.00">Methods: 2</text>
<text xml:space="preserve" text-anchor="middle" x="3106.94" y="-22.53" font-family="Times,serif" font-size="14.00">Attributes: 2</text>
</g>
<!-- HandlerBase&#45;&gt;BulkXspress -->
<g id="edge7" class="edge">
<title>HandlerBase&#45;&gt;BulkXspress</title>
<path fill="none" stroke="black" d="M3106.94,-212.33C3106.94,-189.21 3106.94,-149.84 3106.94,-116.06"/>
<polygon fill="black" stroke="black" points="3110.44,-116.37 3106.94,-106.37 3103.44,-116.37 3110.44,-116.37"/>
</g>
<!-- BulkMerlin -->
<g id="node9" class="node">
<title>BulkMerlin</title>
<ellipse fill="none" stroke="black" cx="3609.94" cy="-52.33" rx="223.98" ry="52.33"/>
<text xml:space="preserve" text-anchor="middle" x="3609.94" y="-72.03" font-family="Times,serif" font-size="14.00">BulkMerlin</text>
<text xml:space="preserve" text-anchor="middle" x="3609.94" y="-55.53" font-family="Times,serif" font-size="14.00">File: ./hxn&#45;profile&#45;collection/startup/64&#45;nano&#45;merlin.py</text>
<text xml:space="preserve" text-anchor="middle" x="3609.94" y="-39.03" font-family="Times,serif" font-size="14.00">Methods: 2</text>
<text xml:space="preserve" text-anchor="middle" x="3609.94" y="-22.53" font-family="Times,serif" font-size="14.00">Attributes: 6</text>
</g>
<!-- HandlerBase&#45;&gt;BulkMerlin -->
<g id="edge8" class="edge">
<title>HandlerBase&#45;&gt;BulkMerlin</title>
<path fill="none" stroke="black" d="M3153.36,-215.65C3226.33,-189.71 3370.55,-138.44 3477.47,-100.42"/>
<polygon fill="black" stroke="black" points="3478.35,-103.83 3486.6,-97.18 3476,-97.23 3478.35,-103.83"/>
</g>
<!-- ZebraHDF5Handler -->
<g id="node10" class="node">
<title>ZebraHDF5Handler</title>
<ellipse fill="none" stroke="black" cx="4100.94" cy="-52.33" rx="194.81" ry="52.33"/>
<text xml:space="preserve" text-anchor="middle" x="4100.94" y="-72.03" font-family="Times,serif" font-size="14.00">ZebraHDF5Handler</text>
<text xml:space="preserve" text-anchor="middle" x="4100.94" y="-55.53" font-family="Times,serif" font-size="14.00">File: ./srx&#45;profile&#45;collection/startup/32&#45;zebra.py</text>
<text xml:space="preserve" text-anchor="middle" x="4100.94" y="-39.03" font-family="Times,serif" font-size="14.00">Methods: 3</text>
<text xml:space="preserve" text-anchor="middle" x="4100.94" y="-22.53" font-family="Times,serif" font-size="14.00">Attributes: 2</text>
</g>
<!-- HandlerBase&#45;&gt;ZebraHDF5Handler -->
<g id="edge9" class="edge">
<title>HandlerBase&#45;&gt;ZebraHDF5Handler</title>
<path fill="none" stroke="black" d="M3153.55,-225.25C3272.99,-207.36 3599.69,-157.22 3869.94,-104.65 3893.64,-100.04 3918.62,-94.85 3943.06,-89.58"/>
<polygon fill="black" stroke="black" points="3943.73,-93.01 3952.76,-87.47 3942.25,-86.17 3943.73,-93.01"/>
</g>
<!-- HDF5SingleHandler -->
<g id="node11" class="node">
<title>HDF5SingleHandler</title>
<ellipse fill="none" stroke="black" cx="4571.94" cy="-52.33" rx="204.35" ry="52.33"/>
<text xml:space="preserve" text-anchor="middle" x="4571.94" y="-72.03" font-family="Times,serif" font-size="14.00">HDF5SingleHandler</text>
<text xml:space="preserve" text-anchor="middle" x="4571.94" y="-55.53" font-family="Times,serif" font-size="14.00">File: ./six&#45;profile&#45;collection/startup/22&#45;rixscam.py</text>
<text xml:space="preserve" text-anchor="middle" x="4571.94" y="-39.03" font-family="Times,serif" font-size="14.00">Methods: 4</text>
<text xml:space="preserve" text-anchor="middle" x="4571.94" y="-22.53" font-family="Times,serif" font-size="14.00">Attributes: 11</text>
</g>
<!-- HandlerBase&#45;&gt;HDF5SingleHandler -->
<g id="edge10" class="edge">
<title>HandlerBase&#45;&gt;HDF5SingleHandler</title>
<path fill="none" stroke="black" d="M3153.63,-229.1C3316.65,-218.06 3875.52,-177 4331.94,-104.65 4357.35,-100.62 4384.13,-95.64 4410.21,-90.38"/>
<polygon fill="black" stroke="black" points="4410.75,-93.84 4419.85,-88.41 4409.35,-86.98 4410.75,-93.84"/>
</g>
<!-- PilatusCBFHandler -->
<g id="node12" class="node">
<title>PilatusCBFHandler</title>
<ellipse fill="none" stroke="black" cx="5100.94" cy="-52.33" rx="253.14" ry="52.33"/>
<text xml:space="preserve" text-anchor="middle" x="5100.94" y="-72.03" font-family="Times,serif" font-size="14.00">PilatusCBFHandler</text>
<text xml:space="preserve" text-anchor="middle" x="5100.94" y="-55.53" font-family="Times,serif" font-size="14.00">File: ./lix&#45;profile&#45;collection/startup/obsolete/33&#45;CBFhandler.py</text>
<text xml:space="preserve" text-anchor="middle" x="5100.94" y="-39.03" font-family="Times,serif" font-size="14.00">Methods: 4</text>
<text xml:space="preserve" text-anchor="middle" x="5100.94" y="-22.53" font-family="Times,serif" font-size="14.00">Attributes: 21</text>
</g>
<!-- HandlerBase&#45;&gt;PilatusCBFHandler -->
<g id="edge11" class="edge">
<title>HandlerBase&#45;&gt;PilatusCBFHandler</title>
<path fill="none" stroke="black" d="M3153.57,-230.4C3353.38,-222.51 4157.03,-187.08 4811.94,-104.65 4842.59,-100.8 4874.92,-95.89 4906.42,-90.64"/>
<polygon fill="black" stroke="black" points="4906.75,-94.14 4916.03,-89.03 4905.59,-87.23 4906.75,-94.14"/>
</g>
<!-- BulkDexela -->
<g id="node13" class="node">
<title>BulkDexela</title>
<ellipse fill="none" stroke="black" cx="5624.94" cy="-52.33" rx="199.05" ry="52.33"/>
<text xml:space="preserve" text-anchor="middle" x="5624.94" y="-72.03" font-family="Times,serif" font-size="14.00">BulkDexela</text>
<text xml:space="preserve" text-anchor="middle" x="5624.94" y="-55.53" font-family="Times,serif" font-size="14.00">File: ./srx&#45;profile&#45;collection/startup/35&#45;dexela.py</text>
<text xml:space="preserve" text-anchor="middle" x="5624.94" y="-39.03" font-family="Times,serif" font-size="14.00">Methods: 3</text>
<text xml:space="preserve" text-anchor="middle" x="5624.94" y="-22.53" font-family="Times,serif" font-size="14.00">Attributes: 2</text>
</g>
<!-- HandlerBase&#45;&gt;BulkDexela -->
<g id="edge12" class="edge">
<title>HandlerBase&#45;&gt;BulkDexela</title>
<path fill="none" stroke="black" d="M3153.43,-232.3C3391.38,-232.47 4496.58,-226.37 5389.94,-104.65 5415.74,-101.14 5442.91,-96.29 5469.25,-90.97"/>
<polygon fill="black" stroke="black" points="5469.91,-94.41 5479,-88.97 5468.5,-87.55 5469.91,-94.41"/>
</g>
<!-- SISHDF5Handler -->
<g id="node14" class="node">
<title>SISHDF5Handler</title>
<ellipse fill="none" stroke="black" cx="6091.94" cy="-52.33" rx="195.87" ry="52.33"/>
<text xml:space="preserve" text-anchor="middle" x="6091.94" y="-72.03" font-family="Times,serif" font-size="14.00">SISHDF5Handler</text>
<text xml:space="preserve" text-anchor="middle" x="6091.94" y="-55.53" font-family="Times,serif" font-size="14.00">File: ./srx&#45;profile&#45;collection/startup/30&#45;scaler.py</text>
<text xml:space="preserve" text-anchor="middle" x="6091.94" y="-39.03" font-family="Times,serif" font-size="14.00">Methods: 3</text>
<text xml:space="preserve" text-anchor="middle" x="6091.94" y="-22.53" font-family="Times,serif" font-size="14.00">Attributes: 2</text>
</g>
<!-- HandlerBase&#45;&gt;SISHDF5Handler -->
<g id="edge13" class="edge">
<title>HandlerBase&#45;&gt;SISHDF5Handler</title>
<path fill="none" stroke="black" d="M3153.66,-231.09C3470.3,-223.7 5305.9,-178.21 5859.94,-104.65 5885.62,-101.24 5912.65,-96.42 5938.84,-91.08"/>
<polygon fill="black" stroke="black" points="5939.44,-94.53 5948.52,-89.07 5938.01,-87.68 5939.44,-94.53"/>
</g>
</g>
</svg>
