<?xml version="1.0" encoding="UTF-8" standalone="no"?>
<!DOCTYPE svg PUBLIC "-//W3C//DTD SVG 1.1//EN"
 "http://www.w3.org/Graphics/SVG/1.1/DTD/svg11.dtd">
<!-- Generated by graphviz version 14.0.0 (20250921.2048)
 -->
<!-- Pages: 1 -->
<svg width="1040pt" height="262pt"
 viewBox="0.00 0.00 1040.00 262.00" xmlns="http://www.w3.org/2000/svg" xmlns:xlink="http://www.w3.org/1999/xlink">
<g id="graph0" class="graph" transform="scale(1 1) rotate(0) translate(4 257.65)">
<polygon fill="white" stroke="none" points="-4,4 -4,-257.65 1035.77,-257.65 1035.77,4 -4,4"/>
<!-- HDF5Plugin_V22 -->
<g id="node1" class="node">
<title>HDF5Plugin_V22</title>
<polygon fill="lightblue" stroke="lightblue" points="593.54,-253.65 478.54,-253.65 478.54,-212.65 593.54,-212.65 593.54,-253.65"/>
<text xml:space="preserve" text-anchor="middle" x="536.04" y="-236.35" font-family="Times,serif" font-size="14.00">HDF5Plugin_V22</text>
<text xml:space="preserve" text-anchor="middle" x="536.04" y="-219.85" font-family="Times,serif" font-size="14.00">(Parent Class)</text>
</g>
<!-- HDF5PluginWithFileStorePlain -->
<g id="node2" class="node">
<title>HDF5PluginWithFileStorePlain</title>
<ellipse fill="none" stroke="black" cx="260.04" cy="-52.33" rx="260.04" ry="52.33"/>
<text xml:space="preserve" text-anchor="middle" x="260.04" y="-72.03" font-family="Times,serif" font-size="14.00">HDF5PluginWithFileStorePlain</text>
<text xml:space="preserve" text-anchor="middle" x="260.04" y="-55.53" font-family="Times,serif" font-size="14.00">File: ./csx&#45;profile&#45;collection/startup/csx1/devices/areadetector.py</text>
<text xml:space="preserve" text-anchor="middle" x="260.04" y="-39.03" font-family="Times,serif" font-size="14.00">Methods: 7</text>
<text xml:space="preserve" text-anchor="middle" x="260.04" y="-22.53" font-family="Times,serif" font-size="14.00">Attributes: 12</text>
</g>
<!-- HDF5Plugin_V22&#45;&gt;HDF5PluginWithFileStorePlain -->
<g id="edge1" class="edge">
<title>HDF5Plugin_V22&#45;&gt;HDF5PluginWithFileStorePlain</title>
<path fill="none" stroke="black" d="M505.18,-212.16C466.9,-187.35 400.05,-144.04 345.82,-108.9"/>
<polygon fill="black" stroke="black" points="347.76,-105.99 337.47,-103.49 343.95,-111.87 347.76,-105.99"/>
</g>
<!-- HDF5PluginWithFileStore -->
<g id="node3" class="node">
<title>HDF5PluginWithFileStore</title>
<ellipse fill="none" stroke="black" cx="812.04" cy="-52.33" rx="219.73" ry="52.33"/>
<text xml:space="preserve" text-anchor="middle" x="812.04" y="-72.03" font-family="Times,serif" font-size="14.00">HDF5PluginWithFileStore</text>
<text xml:space="preserve" text-anchor="middle" x="812.04" y="-55.53" font-family="Times,serif" font-size="14.00">File: ./six&#45;profile&#45;collection/startup/21&#45;areadetector.py</text>
<text xml:space="preserve" text-anchor="middle" x="812.04" y="-39.03" font-family="Times,serif" font-size="14.00">Methods: 2</text>
<text xml:space="preserve" text-anchor="middle" x="812.04" y="-22.53" font-family="Times,serif" font-size="14.00">Attributes: 0</text>
</g>
<!-- HDF5Plugin_V22&#45;&gt;HDF5PluginWithFileStore -->
<g id="edge2" class="edge">
<title>HDF5Plugin_V22&#45;&gt;HDF5PluginWithFileStore</title>
<path fill="none" stroke="black" d="M566.9,-212.16C605.44,-187.18 672.96,-143.44 727.39,-108.17"/>
<polygon fill="black" stroke="black" points="729.28,-111.12 735.77,-102.74 725.47,-105.24 729.28,-111.12"/>
</g>
</g>
</svg>
