<?xml version="1.0" encoding="UTF-8" standalone="no"?>
<!DOCTYPE svg PUBLIC "-//W3C//DTD SVG 1.1//EN"
 "http://www.w3.org/Graphics/SVG/1.1/DTD/svg11.dtd">
<!-- Generated by graphviz version 14.0.0 (20250921.2048)
 -->
<!-- Pages: 1 -->
<svg width="5100pt" height="262pt"
 viewBox="0.00 0.00 5100.00 262.00" xmlns="http://www.w3.org/2000/svg" xmlns:xlink="http://www.w3.org/1999/xlink">
<g id="graph0" class="graph" transform="scale(1 1) rotate(0) translate(4 257.65)">
<polygon fill="white" stroke="none" points="-4,4 -4,-257.65 5096.18,-257.65 5096.18,4 -4,4"/>
<!-- HDF5Plugin -->
<g id="node1" class="node">
<title>HDF5Plugin</title>
<polygon fill="lightblue" stroke="lightblue" points="2652.38,-253.65 2559.88,-253.65 2559.88,-212.65 2652.38,-212.65 2652.38,-253.65"/>
<text xml:space="preserve" text-anchor="middle" x="2606.13" y="-236.35" font-family="Times,serif" font-size="14.00">HDF5Plugin</text>
<text xml:space="preserve" text-anchor="middle" x="2606.13" y="-219.85" font-family="Times,serif" font-size="14.00">(Parent Class)</text>
</g>
<!-- HDF5PluginWithFileStoreBase -->
<g id="node2" class="node">
<title>HDF5PluginWithFileStoreBase</title>
<ellipse fill="none" stroke="black" cx="244.13" cy="-52.33" rx="244.13" ry="52.33"/>
<text xml:space="preserve" text-anchor="middle" x="244.13" y="-72.03" font-family="Times,serif" font-size="14.00">HDF5PluginWithFileStoreBase</text>
<text xml:space="preserve" text-anchor="middle" x="244.13" y="-55.53" font-family="Times,serif" font-size="14.00">File: ./tes&#45;profile&#45;collection/startup/27&#45;Teledyne_PICAM.py</text>
<text xml:space="preserve" text-anchor="middle" x="244.13" y="-39.03" font-family="Times,serif" font-size="14.00">Methods: 1</text>
<text xml:space="preserve" text-anchor="middle" x="244.13" y="-22.53" font-family="Times,serif" font-size="14.00">Attributes: 1</text>
</g>
<!-- HDF5Plugin&#45;&gt;HDF5PluginWithFileStoreBase -->
<g id="edge1" class="edge">
<title>HDF5Plugin&#45;&gt;HDF5PluginWithFileStoreBase</title>
<path fill="none" stroke="black" d="M2559.41,-231.37C2333.84,-227.14 1335.2,-203.46 524.13,-104.65 494.09,-100.99 462.4,-96.15 431.57,-90.89"/>
<polygon fill="black" stroke="black" points="432.2,-87.45 421.75,-89.2 431.01,-94.35 432.2,-87.45"/>
</g>
<!-- HDF5PluginWithFileStore -->
<g id="node3" class="node">
<title>HDF5PluginWithFileStore</title>
<ellipse fill="none" stroke="black" cx="748.13" cy="-52.33" rx="187.91" ry="52.33"/>
<text xml:space="preserve" text-anchor="middle" x="748.13" y="-72.03" font-family="Times,serif" font-size="14.00">HDF5PluginWithFileStore</text>
<text xml:space="preserve" text-anchor="middle" x="748.13" y="-55.53" font-family="Times,serif" font-size="14.00">File: ./srx&#45;profile&#45;collection/startup/33&#45;pco.py</text>
<text xml:space="preserve" text-anchor="middle" x="748.13" y="-39.03" font-family="Times,serif" font-size="14.00">Methods: 1</text>
<text xml:space="preserve" text-anchor="middle" x="748.13" y="-22.53" font-family="Times,serif" font-size="14.00">Attributes: 1</text>
</g>
<!-- HDF5Plugin&#45;&gt;HDF5PluginWithFileStore -->
<g id="edge2" class="edge">
<title>HDF5Plugin&#45;&gt;HDF5PluginWithFileStore</title>
<path fill="none" stroke="black" d="M2559.71,-231.03C2365.05,-225.81 1595.87,-199.92 972.13,-104.65 947.65,-100.91 921.87,-95.97 896.87,-90.63"/>
<polygon fill="black" stroke="black" points="897.82,-87.25 887.31,-88.55 896.34,-94.09 897.82,-87.25"/>
</g>
<!-- HDF5PluginSWMR -->
<g id="node4" class="node">
<title>HDF5PluginSWMR</title>
<ellipse fill="none" stroke="black" cx="1268.13" cy="-52.33" rx="260.04" ry="52.33"/>
<text xml:space="preserve" text-anchor="middle" x="1268.13" y="-72.03" font-family="Times,serif" font-size="14.00">HDF5PluginSWMR</text>
<text xml:space="preserve" text-anchor="middle" x="1268.13" y="-55.53" font-family="Times,serif" font-size="14.00">File: ./csx&#45;profile&#45;collection/startup/csx1/devices/areadetector.py</text>
<text xml:space="preserve" text-anchor="middle" x="1268.13" y="-39.03" font-family="Times,serif" font-size="14.00">Methods: 1</text>
<text xml:space="preserve" text-anchor="middle" x="1268.13" y="-22.53" font-family="Times,serif" font-size="14.00">Attributes: 5</text>
</g>
<!-- HDF5Plugin&#45;&gt;HDF5PluginSWMR -->
<g id="edge3" class="edge">
<title>HDF5Plugin&#45;&gt;HDF5PluginSWMR</title>
<path fill="none" stroke="black" d="M2559.54,-227.29C2412.85,-211.8 1947.48,-161.31 1564.13,-104.65 1533.9,-100.18 1502,-95.07 1470.78,-89.85"/>
<polygon fill="black" stroke="black" points="1471.71,-86.45 1461.26,-88.25 1470.54,-93.36 1471.71,-86.45"/>
</g>
<!-- SpecsHDF5Plugin -->
<g id="node5" class="node">
<title>SpecsHDF5Plugin</title>
<ellipse fill="none" stroke="black" cx="1831.13" cy="-52.33" rx="230.87" ry="52.33"/>
<text xml:space="preserve" text-anchor="middle" x="1831.13" y="-72.03" font-family="Times,serif" font-size="14.00">SpecsHDF5Plugin</text>
<text xml:space="preserve" text-anchor="middle" x="1831.13" y="-55.53" font-family="Times,serif" font-size="14.00">File: ./ios&#45;profile&#45;collection/startup/21&#45;specs_analyzer.py</text>
<text xml:space="preserve" text-anchor="middle" x="1831.13" y="-39.03" font-family="Times,serif" font-size="14.00">Methods: 2</text>
<text xml:space="preserve" text-anchor="middle" x="1831.13" y="-22.53" font-family="Times,serif" font-size="14.00">Attributes: 5</text>
</g>
<!-- HDF5Plugin&#45;&gt;SpecsHDF5Plugin -->
<g id="edge4" class="edge">
<title>HDF5Plugin&#45;&gt;SpecsHDF5Plugin</title>
<path fill="none" stroke="black" d="M2559.39,-221.37C2451.77,-196.53 2181.95,-134.27 2002.69,-92.91"/>
<polygon fill="black" stroke="black" points="2003.56,-89.52 1993.03,-90.68 2001.98,-96.34 2003.56,-89.52"/>
</g>
<!-- XPDHDF5Plugin -->
<g id="node6" class="node">
<title>XPDHDF5Plugin</title>
<ellipse fill="none" stroke="black" cx="2357.13" cy="-52.33" rx="222.92" ry="52.33"/>
<text xml:space="preserve" text-anchor="middle" x="2357.13" y="-72.03" font-family="Times,serif" font-size="14.00">XPDHDF5Plugin</text>
<text xml:space="preserve" text-anchor="middle" x="2357.13" y="-55.53" font-family="Times,serif" font-size="14.00">File: ./xpd&#45;profile&#45;collection/startup/80&#45;areadetector.py</text>
<text xml:space="preserve" text-anchor="middle" x="2357.13" y="-39.03" font-family="Times,serif" font-size="14.00">Methods: 0</text>
<text xml:space="preserve" text-anchor="middle" x="2357.13" y="-22.53" font-family="Times,serif" font-size="14.00">Attributes: 0</text>
</g>
<!-- HDF5Plugin&#45;&gt;XPDHDF5Plugin -->
<g id="edge5" class="edge">
<title>HDF5Plugin&#45;&gt;XPDHDF5Plugin</title>
<path fill="none" stroke="black" d="M2578.53,-212.33C2544.15,-187.64 2483.98,-144.43 2435.03,-109.27"/>
<polygon fill="black" stroke="black" points="2437.11,-106.46 2426.95,-103.47 2433.03,-112.14 2437.11,-106.46"/>
</g>
<!-- RIXSCamHDF5PluginWithFileStore -->
<g id="node7" class="node">
<title>RIXSCamHDF5PluginWithFileStore</title>
<ellipse fill="none" stroke="black" cx="2856.13" cy="-52.33" rx="204.35" ry="52.33"/>
<text xml:space="preserve" text-anchor="middle" x="2856.13" y="-72.03" font-family="Times,serif" font-size="14.00">RIXSCamHDF5PluginWithFileStore</text>
<text xml:space="preserve" text-anchor="middle" x="2856.13" y="-55.53" font-family="Times,serif" font-size="14.00">File: ./six&#45;profile&#45;collection/startup/22&#45;rixscam.py</text>
<text xml:space="preserve" text-anchor="middle" x="2856.13" y="-39.03" font-family="Times,serif" font-size="14.00">Methods: 3</text>
<text xml:space="preserve" text-anchor="middle" x="2856.13" y="-22.53" font-family="Times,serif" font-size="14.00">Attributes: 1</text>
</g>
<!-- HDF5Plugin&#45;&gt;RIXSCamHDF5PluginWithFileStore -->
<g id="edge6" class="edge">
<title>HDF5Plugin&#45;&gt;RIXSCamHDF5PluginWithFileStore</title>
<path fill="none" stroke="black" d="M2633.84,-212.33C2668.61,-187.46 2729.65,-143.8 2778.98,-108.51"/>
<polygon fill="black" stroke="black" points="2780.72,-111.57 2786.82,-102.9 2776.65,-105.87 2780.72,-111.57"/>
</g>
<!-- RIXSCamHDF5PluginForXIP -->
<g id="node8" class="node">
<title>RIXSCamHDF5PluginForXIP</title>
<ellipse fill="none" stroke="black" cx="3337.13" cy="-52.33" rx="204.35" ry="52.33"/>
<text xml:space="preserve" text-anchor="middle" x="3337.13" y="-72.03" font-family="Times,serif" font-size="14.00">RIXSCamHDF5PluginForXIP</text>
<text xml:space="preserve" text-anchor="middle" x="3337.13" y="-55.53" font-family="Times,serif" font-size="14.00">File: ./six&#45;profile&#45;collection/startup/22&#45;rixscam.py</text>
<text xml:space="preserve" text-anchor="middle" x="3337.13" y="-39.03" font-family="Times,serif" font-size="14.00">Methods: 4</text>
<text xml:space="preserve" text-anchor="middle" x="3337.13" y="-22.53" font-family="Times,serif" font-size="14.00">Attributes: 6</text>
</g>
<!-- HDF5Plugin&#45;&gt;RIXSCamHDF5PluginForXIP -->
<g id="edge7" class="edge">
<title>HDF5Plugin&#45;&gt;RIXSCamHDF5PluginForXIP</title>
<path fill="none" stroke="black" d="M2652.69,-220.76C2756.65,-195.33 3011.68,-132.94 3179.37,-91.92"/>
<polygon fill="black" stroke="black" points="3180.19,-95.32 3189.07,-89.55 3178.53,-88.52 3180.19,-95.32"/>
</g>
<!-- LIXhdfPlugin -->
<g id="node9" class="node">
<title>LIXhdfPlugin</title>
<ellipse fill="none" stroke="black" cx="3882.13" cy="-52.33" rx="268.52" ry="52.33"/>
<text xml:space="preserve" text-anchor="middle" x="3882.13" y="-72.03" font-family="Times,serif" font-size="14.00">LIXhdfPlugin</text>
<text xml:space="preserve" text-anchor="middle" x="3882.13" y="-55.53" font-family="Times,serif" font-size="14.00">File: ./lix&#45;profile&#45;collection/startup/obsolete/2023Sep/20&#45;pilatus.py</text>
<text xml:space="preserve" text-anchor="middle" x="3882.13" y="-39.03" font-family="Times,serif" font-size="14.00">Methods: 4</text>
<text xml:space="preserve" text-anchor="middle" x="3882.13" y="-22.53" font-family="Times,serif" font-size="14.00">Attributes: 8</text>
</g>
<!-- HDF5Plugin&#45;&gt;LIXhdfPlugin -->
<g id="edge8" class="edge">
<title>HDF5Plugin&#45;&gt;LIXhdfPlugin</title>
<path fill="none" stroke="black" d="M2652.7,-226.64C2792.76,-209.95 3222.33,-157.78 3577.13,-104.65 3607.89,-100.05 3640.34,-94.9 3672.15,-89.69"/>
<polygon fill="black" stroke="black" points="3672.57,-93.16 3681.87,-88.09 3671.44,-86.26 3672.57,-93.16"/>
</g>
<!-- HDF5PluginWithFileStoreMerlin -->
<g id="node10" class="node">
<title>HDF5PluginWithFileStoreMerlin</title>
<ellipse fill="none" stroke="black" cx="4422.13" cy="-52.33" rx="199.58" ry="52.33"/>
<text xml:space="preserve" text-anchor="middle" x="4422.13" y="-72.03" font-family="Times,serif" font-size="14.00">HDF5PluginWithFileStoreMerlin</text>
<text xml:space="preserve" text-anchor="middle" x="4422.13" y="-55.53" font-family="Times,serif" font-size="14.00">File: ./srx&#45;profile&#45;collection/startup/34&#45;merlin.py</text>
<text xml:space="preserve" text-anchor="middle" x="4422.13" y="-39.03" font-family="Times,serif" font-size="14.00">Methods: 1</text>
<text xml:space="preserve" text-anchor="middle" x="4422.13" y="-22.53" font-family="Times,serif" font-size="14.00">Attributes: 0</text>
</g>
<!-- HDF5Plugin&#45;&gt;HDF5PluginWithFileStoreMerlin -->
<g id="edge9" class="edge">
<title>HDF5Plugin&#45;&gt;HDF5PluginWithFileStoreMerlin</title>
<path fill="none" stroke="black" d="M2652.63,-230.69C2843.45,-224.2 3584.85,-194.29 4187.13,-104.65 4212.52,-100.87 4239.26,-95.95 4265.25,-90.65"/>
<polygon fill="black" stroke="black" points="4265.77,-94.12 4274.85,-88.66 4264.35,-87.26 4265.77,-94.12"/>
</g>
<!-- DexelaHDFWithFileStore -->
<g id="node11" class="node">
<title>DexelaHDFWithFileStore</title>
<ellipse fill="none" stroke="black" cx="4893.13" cy="-52.33" rx="199.05" ry="52.33"/>
<text xml:space="preserve" text-anchor="middle" x="4893.13" y="-72.03" font-family="Times,serif" font-size="14.00">DexelaHDFWithFileStore</text>
<text xml:space="preserve" text-anchor="middle" x="4893.13" y="-55.53" font-family="Times,serif" font-size="14.00">File: ./srx&#45;profile&#45;collection/startup/35&#45;dexela.py</text>
<text xml:space="preserve" text-anchor="middle" x="4893.13" y="-39.03" font-family="Times,serif" font-size="14.00">Methods: 2</text>
<text xml:space="preserve" text-anchor="middle" x="4893.13" y="-22.53" font-family="Times,serif" font-size="14.00">Attributes: 2</text>
</g>
<!-- HDF5Plugin&#45;&gt;DexelaHDFWithFileStore -->
<g id="edge10" class="edge">
<title>HDF5Plugin&#45;&gt;DexelaHDFWithFileStore</title>
<path fill="none" stroke="black" d="M2652.62,-231.89C2876,-230.07 3860.95,-215.81 4658.13,-104.65 4683.82,-101.07 4710.89,-96.2 4737.14,-90.89"/>
<polygon fill="black" stroke="black" points="4737.77,-94.33 4746.86,-88.89 4736.35,-87.47 4737.77,-94.33"/>
</g>
</g>
</svg>
