<?xml version="1.0" encoding="UTF-8" standalone="no"?>
<!DOCTYPE svg PUBLIC "-//W3C//DTD SVG 1.1//EN"
 "http://www.w3.org/Graphics/SVG/1.1/DTD/svg11.dtd">
<!-- Generated by graphviz version 14.0.0 (20250921.2048)
 -->
<!-- Pages: 1 -->
<svg width="3437pt" height="262pt"
 viewBox="0.00 0.00 3437.00 262.00" xmlns="http://www.w3.org/2000/svg" xmlns:xlink="http://www.w3.org/1999/xlink">
<g id="graph0" class="graph" transform="scale(1 1) rotate(0) translate(4 257.65)">
<polygon fill="white" stroke="none" points="-4,4 -4,-257.65 3432.84,-257.65 3432.84,4 -4,4"/>
<!-- HDF5Plugin_V33 -->
<g id="node1" class="node">
<title>HDF5Plugin_V33</title>
<polygon fill="lightblue" stroke="lightblue" points="1740.14,-253.65 1625.14,-253.65 1625.14,-212.65 1740.14,-212.65 1740.14,-253.65"/>
<text xml:space="preserve" text-anchor="middle" x="1682.64" y="-236.35" font-family="Times,serif" font-size="14.00">HDF5Plugin_V33</text>
<text xml:space="preserve" text-anchor="middle" x="1682.64" y="-219.85" font-family="Times,serif" font-size="14.00">(Parent Class)</text>
</g>
<!-- QASHDF5Plugin -->
<g id="node2" class="node">
<title>QASHDF5Plugin</title>
<ellipse fill="none" stroke="black" cx="200.64" cy="-52.33" rx="200.64" ry="52.33"/>
<text xml:space="preserve" text-anchor="middle" x="200.64" y="-72.03" font-family="Times,serif" font-size="14.00">QASHDF5Plugin</text>
<text xml:space="preserve" text-anchor="middle" x="200.64" y="-55.53" font-family="Times,serif" font-size="14.00">File: ./qas&#45;profile&#45;collection/startup/82&#45;pilatus.py</text>
<text xml:space="preserve" text-anchor="middle" x="200.64" y="-39.03" font-family="Times,serif" font-size="14.00">Methods: 0</text>
<text xml:space="preserve" text-anchor="middle" x="200.64" y="-22.53" font-family="Times,serif" font-size="14.00">Attributes: 0</text>
</g>
<!-- HDF5Plugin_V33&#45;&gt;QASHDF5Plugin -->
<g id="edge1" class="edge">
<title>HDF5Plugin_V33&#45;&gt;QASHDF5Plugin</title>
<path fill="none" stroke="black" d="M1624.9,-228.56C1446.97,-216.99 891.62,-177.17 436.64,-104.65 411.55,-100.65 385.12,-95.67 359.38,-90.4"/>
<polygon fill="black" stroke="black" points="360.38,-87.03 349.88,-88.43 358.96,-93.88 360.38,-87.03"/>
</g>
<!-- HDF5PluginWithFileStore -->
<g id="node3" class="node">
<title>HDF5PluginWithFileStore</title>
<ellipse fill="none" stroke="black" cx="673.64" cy="-52.33" rx="200.64" ry="52.33"/>
<text xml:space="preserve" text-anchor="middle" x="673.64" y="-72.03" font-family="Times,serif" font-size="14.00">HDF5PluginWithFileStore</text>
<text xml:space="preserve" text-anchor="middle" x="673.64" y="-55.53" font-family="Times,serif" font-size="14.00">File: ./qas&#45;profile&#45;collection/startup/82&#45;pilatus.py</text>
<text xml:space="preserve" text-anchor="middle" x="673.64" y="-39.03" font-family="Times,serif" font-size="14.00">Methods: 1</text>
<text xml:space="preserve" text-anchor="middle" x="673.64" y="-22.53" font-family="Times,serif" font-size="14.00">Attributes: 0</text>
</g>
<!-- HDF5Plugin_V33&#45;&gt;HDF5PluginWithFileStore -->
<g id="edge2" class="edge">
<title>HDF5Plugin_V33&#45;&gt;HDF5PluginWithFileStore</title>
<path fill="none" stroke="black" d="M1624.85,-223.61C1496.18,-204.37 1176.52,-155.36 910.64,-104.65 886.33,-100.01 860.68,-94.8 835.59,-89.52"/>
<polygon fill="black" stroke="black" points="836.49,-86.13 825.98,-87.48 835.04,-92.98 836.49,-86.13"/>
</g>
<!-- BMMHDF5Plugin -->
<g id="node4" class="node">
<title>BMMHDF5Plugin</title>
<ellipse fill="none" stroke="black" cx="1169.64" cy="-52.33" rx="222.92" ry="52.33"/>
<text xml:space="preserve" text-anchor="middle" x="1169.64" y="-72.03" font-family="Times,serif" font-size="14.00">BMMHDF5Plugin</text>
<text xml:space="preserve" text-anchor="middle" x="1169.64" y="-55.53" font-family="Times,serif" font-size="14.00">File: ./bmm&#45;profile&#45;collection/startup/BMM/pilatus.py</text>
<text xml:space="preserve" text-anchor="middle" x="1169.64" y="-39.03" font-family="Times,serif" font-size="14.00">Methods: 1</text>
<text xml:space="preserve" text-anchor="middle" x="1169.64" y="-22.53" font-family="Times,serif" font-size="14.00">Attributes: 3</text>
</g>
<!-- HDF5Plugin_V33&#45;&gt;BMMHDF5Plugin -->
<g id="edge3" class="edge">
<title>HDF5Plugin_V33&#45;&gt;BMMHDF5Plugin</title>
<path fill="none" stroke="black" d="M1625.29,-212.16C1548,-185.22 1408.08,-136.44 1303.61,-100.02"/>
<polygon fill="black" stroke="black" points="1305,-96.8 1294.4,-96.82 1302.69,-103.41 1305,-96.8"/>
</g>
<!-- BMMDanteHDF5Plugin -->
<g id="node5" class="node">
<title>BMMDanteHDF5Plugin</title>
<ellipse fill="none" stroke="black" cx="1682.64" cy="-52.33" rx="218.14" ry="52.33"/>
<text xml:space="preserve" text-anchor="middle" x="1682.64" y="-72.03" font-family="Times,serif" font-size="14.00">BMMDanteHDF5Plugin</text>
<text xml:space="preserve" text-anchor="middle" x="1682.64" y="-55.53" font-family="Times,serif" font-size="14.00">File: ./bmm&#45;profile&#45;collection/startup/BMM/dante.py</text>
<text xml:space="preserve" text-anchor="middle" x="1682.64" y="-39.03" font-family="Times,serif" font-size="14.00">Methods: 5</text>
<text xml:space="preserve" text-anchor="middle" x="1682.64" y="-22.53" font-family="Times,serif" font-size="14.00">Attributes: 7</text>
</g>
<!-- HDF5Plugin_V33&#45;&gt;BMMDanteHDF5Plugin -->
<g id="edge4" class="edge">
<title>HDF5Plugin_V33&#45;&gt;BMMDanteHDF5Plugin</title>
<path fill="none" stroke="black" d="M1682.64,-212.33C1682.64,-189.21 1682.64,-149.84 1682.64,-116.06"/>
<polygon fill="black" stroke="black" points="1686.14,-116.37 1682.64,-106.37 1679.14,-116.37 1686.14,-116.37"/>
</g>
<!-- HDF5PluginWithFileStoreEiger -->
<g id="node6" class="node">
<title>HDF5PluginWithFileStoreEiger</title>
<ellipse fill="none" stroke="black" cx="2220.64" cy="-52.33" rx="247.84" ry="52.33"/>
<text xml:space="preserve" text-anchor="middle" x="2220.64" y="-72.03" font-family="Times,serif" font-size="14.00">HDF5PluginWithFileStoreEiger</text>
<text xml:space="preserve" text-anchor="middle" x="2220.64" y="-55.53" font-family="Times,serif" font-size="14.00">File: ./hxn&#45;profile&#45;collection/startup/65&#45;nano&#45;eiger&#45;mobile.py</text>
<text xml:space="preserve" text-anchor="middle" x="2220.64" y="-39.03" font-family="Times,serif" font-size="14.00">Methods: 4</text>
<text xml:space="preserve" text-anchor="middle" x="2220.64" y="-22.53" font-family="Times,serif" font-size="14.00">Attributes: 7</text>
</g>
<!-- HDF5Plugin_V33&#45;&gt;HDF5PluginWithFileStoreEiger -->
<g id="edge5" class="edge">
<title>HDF5Plugin_V33&#45;&gt;HDF5PluginWithFileStoreEiger</title>
<path fill="none" stroke="black" d="M1740.47,-212.93C1820.51,-186.32 1967.67,-137.41 2078.06,-100.72"/>
<polygon fill="black" stroke="black" points="2079.14,-104.05 2087.53,-97.57 2076.93,-97.41 2079.14,-104.05"/>
</g>
<!-- HDF5PluginWithFileStoreMerlin -->
<g id="node7" class="node">
<title>HDF5PluginWithFileStoreMerlin</title>
<ellipse fill="none" stroke="black" cx="2764.64" cy="-52.33" rx="223.98" ry="52.33"/>
<text xml:space="preserve" text-anchor="middle" x="2764.64" y="-72.03" font-family="Times,serif" font-size="14.00">HDF5PluginWithFileStoreMerlin</text>
<text xml:space="preserve" text-anchor="middle" x="2764.64" y="-55.53" font-family="Times,serif" font-size="14.00">File: ./hxn&#45;profile&#45;collection/startup/64&#45;nano&#45;merlin.py</text>
<text xml:space="preserve" text-anchor="middle" x="2764.64" y="-39.03" font-family="Times,serif" font-size="14.00">Methods: 3</text>
<text xml:space="preserve" text-anchor="middle" x="2764.64" y="-22.53" font-family="Times,serif" font-size="14.00">Attributes: 4</text>
</g>
<!-- HDF5Plugin_V33&#45;&gt;HDF5PluginWithFileStoreMerlin -->
<g id="edge6" class="edge">
<title>HDF5Plugin_V33&#45;&gt;HDF5PluginWithFileStoreMerlin</title>
<path fill="none" stroke="black" d="M1740.58,-224C1875.07,-204.89 2218.77,-155.02 2504.64,-104.65 2531.03,-100 2558.86,-94.81 2586.12,-89.57"/>
<polygon fill="black" stroke="black" points="2586.7,-93.02 2595.86,-87.69 2585.38,-86.15 2586.7,-93.02"/>
</g>
<!-- XIAXMAPFileStore -->
<g id="node8" class="node">
<title>XIAXMAPFileStore</title>
<ellipse fill="none" stroke="black" cx="3244.64" cy="-52.33" rx="184.2" ry="52.33"/>
<text xml:space="preserve" text-anchor="middle" x="3244.64" y="-72.03" font-family="Times,serif" font-size="14.00">XIAXMAPFileStore</text>
<text xml:space="preserve" text-anchor="middle" x="3244.64" y="-55.53" font-family="Times,serif" font-size="14.00">File: ./iss&#45;profile&#45;collection/startup/42&#45;xia.py</text>
<text xml:space="preserve" text-anchor="middle" x="3244.64" y="-39.03" font-family="Times,serif" font-size="14.00">Methods: 10</text>
<text xml:space="preserve" text-anchor="middle" x="3244.64" y="-22.53" font-family="Times,serif" font-size="14.00">Attributes: 17</text>
</g>
<!-- HDF5Plugin_V33&#45;&gt;XIAXMAPFileStore -->
<g id="edge7" class="edge">
<title>HDF5Plugin_V33&#45;&gt;XIAXMAPFileStore</title>
<path fill="none" stroke="black" d="M1740.55,-229.44C1927.51,-220.08 2531.52,-185.23 3024.64,-104.65 3048.39,-100.77 3073.39,-95.8 3097.68,-90.49"/>
<polygon fill="black" stroke="black" points="3098.3,-93.94 3107.31,-88.36 3096.79,-87.1 3098.3,-93.94"/>
</g>
</g>
</svg>
