<?xml version="1.0" encoding="UTF-8" standalone="no"?>
<!DOCTYPE svg PUBLIC "-//W3C//DTD SVG 1.1//EN"
 "http://www.w3.org/Graphics/SVG/1.1/DTD/svg11.dtd">
<!-- Generated by graphviz version 14.0.0 (20250921.2048)
 -->
<!-- Pages: 1 -->
<svg width="856pt" height="262pt"
 viewBox="0.00 0.00 856.00 262.00" xmlns="http://www.w3.org/2000/svg" xmlns:xlink="http://www.w3.org/1999/xlink">
<g id="graph0" class="graph" transform="scale(1 1) rotate(0) translate(4 257.65)">
<polygon fill="white" stroke="none" points="-4,4 -4,-257.65 852.02,-257.65 852.02,4 -4,4"/>
<!-- HxnModalTrigger -->
<g id="node1" class="node">
<title>HxnModalTrigger</title>
<polygon fill="lightblue" stroke="lightblue" points="483.21,-253.65 367.46,-253.65 367.46,-212.65 483.21,-212.65 483.21,-253.65"/>
<text xml:space="preserve" text-anchor="middle" x="425.34" y="-236.35" font-family="Times,serif" font-size="14.00">HxnModalTrigger</text>
<text xml:space="preserve" text-anchor="middle" x="425.34" y="-219.85" font-family="Times,serif" font-size="14.00">(Parent Class)</text>
</g>
<!-- HxnEigerDetector -->
<g id="node2" class="node">
<title>HxnEigerDetector</title>
<ellipse fill="none" stroke="black" cx="195.34" cy="-52.33" rx="195.34" ry="52.33"/>
<text xml:space="preserve" text-anchor="middle" x="195.34" y="-72.03" font-family="Times,serif" font-size="14.00">HxnEigerDetector</text>
<text xml:space="preserve" text-anchor="middle" x="195.34" y="-55.53" font-family="Times,serif" font-size="14.00">File: ./hxn&#45;profile&#45;collection/startup/20&#45;eiger.py</text>
<text xml:space="preserve" text-anchor="middle" x="195.34" y="-39.03" font-family="Times,serif" font-size="14.00">Methods: 3</text>
<text xml:space="preserve" text-anchor="middle" x="195.34" y="-22.53" font-family="Times,serif" font-size="14.00">Attributes: 18</text>
</g>
<!-- HxnModalTrigger&#45;&gt;HxnEigerDetector -->
<g id="edge1" class="edge">
<title>HxnModalTrigger&#45;&gt;HxnEigerDetector</title>
<path fill="none" stroke="black" d="M399.85,-212.33C368.05,-187.61 312.35,-144.31 267.11,-109.13"/>
<polygon fill="black" stroke="black" points="269.45,-106.51 259.41,-103.14 265.15,-112.04 269.45,-106.51"/>
</g>
<!-- SRXEigerDetector -->
<g id="node3" class="node">
<title>SRXEigerDetector</title>
<ellipse fill="none" stroke="black" cx="655.34" cy="-52.33" rx="192.69" ry="52.33"/>
<text xml:space="preserve" text-anchor="middle" x="655.34" y="-72.03" font-family="Times,serif" font-size="14.00">SRXEigerDetector</text>
<text xml:space="preserve" text-anchor="middle" x="655.34" y="-55.53" font-family="Times,serif" font-size="14.00">File: ./srx&#45;profile&#45;collection/startup/36&#45;eiger.py</text>
<text xml:space="preserve" text-anchor="middle" x="655.34" y="-39.03" font-family="Times,serif" font-size="14.00">Methods: 3</text>
<text xml:space="preserve" text-anchor="middle" x="655.34" y="-22.53" font-family="Times,serif" font-size="14.00">Attributes: 18</text>
</g>
<!-- HxnModalTrigger&#45;&gt;SRXEigerDetector -->
<g id="edge2" class="edge">
<title>HxnModalTrigger&#45;&gt;SRXEigerDetector</title>
<path fill="none" stroke="black" d="M450.83,-212.33C482.63,-187.61 538.32,-144.31 583.57,-109.13"/>
<polygon fill="black" stroke="black" points="585.52,-112.04 591.27,-103.14 581.23,-106.51 585.52,-112.04"/>
</g>
</g>
</svg>
