<?xml version="1.0" encoding="UTF-8" standalone="no"?>
<!DOCTYPE svg PUBLIC "-//W3C//DTD SVG 1.1//EN"
 "http://www.w3.org/Graphics/SVG/1.1/DTD/svg11.dtd">
<!-- Generated by graphviz version 14.0.0 (20250921.2048)
 -->
<!-- Pages: 1 -->
<svg width="944pt" height="262pt"
 viewBox="0.00 0.00 944.00 262.00" xmlns="http://www.w3.org/2000/svg" xmlns:xlink="http://www.w3.org/1999/xlink">
<g id="graph0" class="graph" transform="scale(1 1) rotate(0) translate(4 257.65)">
<polygon fill="white" stroke="none" points="-4,4 -4,-257.65 940.04,-257.65 940.04,4 -4,4"/>
<!-- HxnModalBase -->
<g id="node1" class="node">
<title>HxnModalBase</title>
<polygon fill="lightblue" stroke="lightblue" points="518.77,-253.65 417.27,-253.65 417.27,-212.65 518.77,-212.65 518.77,-253.65"/>
<text xml:space="preserve" text-anchor="middle" x="468.02" y="-236.35" font-family="Times,serif" font-size="14.00">HxnModalBase</text>
<text xml:space="preserve" text-anchor="middle" x="468.02" y="-219.85" font-family="Times,serif" font-size="14.00">(Parent Class)</text>
</g>
<!-- HxnFastShutter -->
<g id="node2" class="node">
<title>HxnFastShutter</title>
<ellipse fill="none" stroke="black" cx="216.02" cy="-52.33" rx="216.02" ry="52.33"/>
<text xml:space="preserve" text-anchor="middle" x="216.02" y="-72.03" font-family="Times,serif" font-size="14.00">HxnFastShutter</text>
<text xml:space="preserve" text-anchor="middle" x="216.02" y="-55.53" font-family="Times,serif" font-size="14.00">File: ./hxn&#45;profile&#45;collection/startup/12&#45;endstation.py</text>
<text xml:space="preserve" text-anchor="middle" x="216.02" y="-39.03" font-family="Times,serif" font-size="14.00">Methods: 3</text>
<text xml:space="preserve" text-anchor="middle" x="216.02" y="-22.53" font-family="Times,serif" font-size="14.00">Attributes: 1</text>
</g>
<!-- HxnModalBase&#45;&gt;HxnFastShutter -->
<g id="edge1" class="edge">
<title>HxnModalBase&#45;&gt;HxnFastShutter</title>
<path fill="none" stroke="black" d="M440.09,-212.33C405.1,-187.5 343.72,-143.95 294.04,-108.69"/>
<polygon fill="black" stroke="black" points="296.32,-106.02 286.14,-103.09 292.27,-111.73 296.32,-106.02"/>
</g>
<!-- HxnSlowShutter -->
<g id="node3" class="node">
<title>HxnSlowShutter</title>
<ellipse fill="none" stroke="black" cx="720.02" cy="-52.33" rx="216.02" ry="52.33"/>
<text xml:space="preserve" text-anchor="middle" x="720.02" y="-72.03" font-family="Times,serif" font-size="14.00">HxnSlowShutter</text>
<text xml:space="preserve" text-anchor="middle" x="720.02" y="-55.53" font-family="Times,serif" font-size="14.00">File: ./hxn&#45;profile&#45;collection/startup/12&#45;endstation.py</text>
<text xml:space="preserve" text-anchor="middle" x="720.02" y="-39.03" font-family="Times,serif" font-size="14.00">Methods: 3</text>
<text xml:space="preserve" text-anchor="middle" x="720.02" y="-22.53" font-family="Times,serif" font-size="14.00">Attributes: 2</text>
</g>
<!-- HxnModalBase&#45;&gt;HxnSlowShutter -->
<g id="edge2" class="edge">
<title>HxnModalBase&#45;&gt;HxnSlowShutter</title>
<path fill="none" stroke="black" d="M495.95,-212.33C530.94,-187.5 592.32,-143.95 642,-108.69"/>
<polygon fill="black" stroke="black" points="643.77,-111.73 649.9,-103.09 639.72,-106.02 643.77,-111.73"/>
</g>
</g>
</svg>
