<?xml version="1.0" encoding="UTF-8" standalone="no"?>
<!DOCTYPE svg PUBLIC "-//W3C//DTD SVG 1.1//EN"
 "http://www.w3.org/Graphics/SVG/1.1/DTD/svg11.dtd">
<!-- Generated by graphviz version 14.0.0 (20250921.2048)
 -->
<!-- Pages: 1 -->
<svg width="876pt" height="262pt"
 viewBox="0.00 0.00 876.00 262.00" xmlns="http://www.w3.org/2000/svg" xmlns:xlink="http://www.w3.org/1999/xlink">
<g id="graph0" class="graph" transform="scale(1 1) rotate(0) translate(4 257.65)">
<polygon fill="white" stroke="none" points="-4,4 -4,-257.65 872.1,-257.65 872.1,4 -4,4"/>
<!-- IntEnum -->
<g id="node1" class="node">
<title>IntEnum</title>
<polygon fill="lightblue" stroke="lightblue" points="480.3,-253.65 387.8,-253.65 387.8,-212.65 480.3,-212.65 480.3,-253.65"/>
<text xml:space="preserve" text-anchor="middle" x="434.05" y="-236.35" font-family="Times,serif" font-size="14.00">IntEnum</text>
<text xml:space="preserve" text-anchor="middle" x="434.05" y="-219.85" font-family="Times,serif" font-size="14.00">(Parent Class)</text>
</g>
<!-- ZebraInputEdge -->
<g id="node2" class="node">
<title>ZebraInputEdge</title>
<ellipse fill="none" stroke="black" cx="199.05" cy="-52.33" rx="199.05" ry="52.33"/>
<text xml:space="preserve" text-anchor="middle" x="199.05" y="-72.03" font-family="Times,serif" font-size="14.00">ZebraInputEdge</text>
<text xml:space="preserve" text-anchor="middle" x="199.05" y="-55.53" font-family="Times,serif" font-size="14.00">File: ./fmx&#45;profile&#45;collection/startup/26&#45;zebra.py</text>
<text xml:space="preserve" text-anchor="middle" x="199.05" y="-39.03" font-family="Times,serif" font-size="14.00">Methods: 0</text>
<text xml:space="preserve" text-anchor="middle" x="199.05" y="-22.53" font-family="Times,serif" font-size="14.00">Attributes: 2</text>
</g>
<!-- IntEnum&#45;&gt;ZebraInputEdge -->
<g id="edge1" class="edge">
<title>IntEnum&#45;&gt;ZebraInputEdge</title>
<path fill="none" stroke="black" d="M408,-212.33C375.51,-187.61 318.61,-144.31 272.38,-109.13"/>
<polygon fill="black" stroke="black" points="274.57,-106.4 264.49,-103.13 270.33,-111.97 274.57,-106.4"/>
</g>
<!-- ZebraAddresses -->
<g id="node3" class="node">
<title>ZebraAddresses</title>
<ellipse fill="none" stroke="black" cx="669.05" cy="-52.33" rx="199.05" ry="52.33"/>
<text xml:space="preserve" text-anchor="middle" x="669.05" y="-72.03" font-family="Times,serif" font-size="14.00">ZebraAddresses</text>
<text xml:space="preserve" text-anchor="middle" x="669.05" y="-55.53" font-family="Times,serif" font-size="14.00">File: ./fmx&#45;profile&#45;collection/startup/26&#45;zebra.py</text>
<text xml:space="preserve" text-anchor="middle" x="669.05" y="-39.03" font-family="Times,serif" font-size="14.00">Methods: 0</text>
<text xml:space="preserve" text-anchor="middle" x="669.05" y="-22.53" font-family="Times,serif" font-size="14.00">Attributes: 64</text>
</g>
<!-- IntEnum&#45;&gt;ZebraAddresses -->
<g id="edge2" class="edge">
<title>IntEnum&#45;&gt;ZebraAddresses</title>
<path fill="none" stroke="black" d="M460.1,-212.33C492.59,-187.61 549.49,-144.31 595.72,-109.13"/>
<polygon fill="black" stroke="black" points="597.77,-111.97 603.61,-103.13 593.53,-106.4 597.77,-111.97"/>
</g>
</g>
</svg>
