<?xml version="1.0" encoding="UTF-8" standalone="no"?>
<!DOCTYPE svg PUBLIC "-//W3C//DTD SVG 1.1//EN"
 "http://www.w3.org/Graphics/SVG/1.1/DTD/svg11.dtd">
<!-- Generated by graphviz version 14.0.0 (20250921.2048)
 -->
<!-- Pages: 1 -->
<svg width="1128pt" height="262pt"
 viewBox="0.00 0.00 1128.00 262.00" xmlns="http://www.w3.org/2000/svg" xmlns:xlink="http://www.w3.org/1999/xlink">
<g id="graph0" class="graph" transform="scale(1 1) rotate(0) translate(4 257.65)">
<polygon fill="white" stroke="none" points="-4,4 -4,-257.65 1123.79,-257.65 1123.79,4 -4,4"/>
<!-- ISSPseudoPositioner -->
<g id="node1" class="node">
<title>ISSPseudoPositioner</title>
<polygon fill="lightblue" stroke="lightblue" points="615.24,-253.65 485.99,-253.65 485.99,-212.65 615.24,-212.65 615.24,-253.65"/>
<text xml:space="preserve" text-anchor="middle" x="550.61" y="-236.35" font-family="Times,serif" font-size="14.00">ISSPseudoPositioner</text>
<text xml:space="preserve" text-anchor="middle" x="550.61" y="-219.85" font-family="Times,serif" font-size="14.00">(Parent Class)</text>
</g>
<!-- JohannPseudoPositioner -->
<g id="node2" class="node">
<title>JohannPseudoPositioner</title>
<ellipse fill="none" stroke="black" cx="252.61" cy="-52.33" rx="252.61" ry="52.33"/>
<text xml:space="preserve" text-anchor="middle" x="252.61" y="-72.03" font-family="Times,serif" font-size="14.00">JohannPseudoPositioner</text>
<text xml:space="preserve" text-anchor="middle" x="252.61" y="-55.53" font-family="Times,serif" font-size="14.00">File: ./iss&#45;profile&#45;collection/startup/80&#45;johann_spectrometer.py</text>
<text xml:space="preserve" text-anchor="middle" x="252.61" y="-39.03" font-family="Times,serif" font-size="14.00">Methods: 1</text>
<text xml:space="preserve" text-anchor="middle" x="252.61" y="-22.53" font-family="Times,serif" font-size="14.00">Attributes: 1</text>
</g>
<!-- ISSPseudoPositioner&#45;&gt;JohannPseudoPositioner -->
<g id="edge1" class="edge">
<title>ISSPseudoPositioner&#45;&gt;JohannPseudoPositioner</title>
<path fill="none" stroke="black" d="M517.3,-212.16C475.65,-187.16 402.68,-143.38 343.89,-108.1"/>
<polygon fill="black" stroke="black" points="345.89,-105.22 335.51,-103.07 342.29,-111.22 345.89,-105.22"/>
</g>
<!-- VonHamosPseudoPositioner -->
<g id="node3" class="node">
<title>VonHamosPseudoPositioner</title>
<ellipse fill="none" stroke="black" cx="848.61" cy="-52.33" rx="271.18" ry="52.33"/>
<text xml:space="preserve" text-anchor="middle" x="848.61" y="-72.03" font-family="Times,serif" font-size="14.00">VonHamosPseudoPositioner</text>
<text xml:space="preserve" text-anchor="middle" x="848.61" y="-55.53" font-family="Times,serif" font-size="14.00">File: ./iss&#45;profile&#45;collection/startup/85&#45;von_hamos_spectrometer.py</text>
<text xml:space="preserve" text-anchor="middle" x="848.61" y="-39.03" font-family="Times,serif" font-size="14.00">Methods: 0</text>
<text xml:space="preserve" text-anchor="middle" x="848.61" y="-22.53" font-family="Times,serif" font-size="14.00">Attributes: 1</text>
</g>
<!-- ISSPseudoPositioner&#45;&gt;VonHamosPseudoPositioner -->
<g id="edge2" class="edge">
<title>ISSPseudoPositioner&#45;&gt;VonHamosPseudoPositioner</title>
<path fill="none" stroke="black" d="M583.93,-212.16C625.44,-187.25 698.04,-143.68 756.72,-108.47"/>
<polygon fill="black" stroke="black" points="758.32,-111.59 765.09,-103.45 754.71,-105.59 758.32,-111.59"/>
</g>
</g>
</svg>
