<?xml version="1.0" encoding="UTF-8" standalone="no"?>
<!DOCTYPE svg PUBLIC "-//W3C//DTD SVG 1.1//EN"
 "http://www.w3.org/Graphics/SVG/1.1/DTD/svg11.dtd">
<!-- Generated by graphviz version 14.0.0 (20250921.2048)
 -->
<!-- Pages: 1 -->
<svg width="4552pt" height="262pt"
 viewBox="0.00 0.00 4552.00 262.00" xmlns="http://www.w3.org/2000/svg" xmlns:xlink="http://www.w3.org/1999/xlink">
<g id="graph0" class="graph" transform="scale(1 1) rotate(0) translate(4 257.65)">
<polygon fill="white" stroke="none" points="-4,4 -4,-257.65 4548.23,-257.65 4548.23,4 -4,4"/>
<!-- JohannPseudoPositioner -->
<g id="node1" class="node">
<title>JohannPseudoPositioner</title>
<polygon fill="lightblue" stroke="lightblue" points="2345.61,-253.65 2197.61,-253.65 2197.61,-212.65 2345.61,-212.65 2345.61,-253.65"/>
<text xml:space="preserve" text-anchor="middle" x="2271.61" y="-236.35" font-family="Times,serif" font-size="14.00">JohannPseudoPositioner</text>
<text xml:space="preserve" text-anchor="middle" x="2271.61" y="-219.85" font-family="Times,serif" font-size="14.00">(Parent Class)</text>
</g>
<!-- JohannDetectorArm -->
<g id="node2" class="node">
<title>JohannDetectorArm</title>
<ellipse fill="none" stroke="black" cx="252.61" cy="-52.33" rx="252.61" ry="52.33"/>
<text xml:space="preserve" text-anchor="middle" x="252.61" y="-72.03" font-family="Times,serif" font-size="14.00">JohannDetectorArm</text>
<text xml:space="preserve" text-anchor="middle" x="252.61" y="-55.53" font-family="Times,serif" font-size="14.00">File: ./iss&#45;profile&#45;collection/startup/80&#45;johann_spectrometer.py</text>
<text xml:space="preserve" text-anchor="middle" x="252.61" y="-39.03" font-family="Times,serif" font-size="14.00">Methods: 2</text>
<text xml:space="preserve" text-anchor="middle" x="252.61" y="-22.53" font-family="Times,serif" font-size="14.00">Attributes: 7</text>
</g>
<!-- JohannPseudoPositioner&#45;&gt;JohannDetectorArm -->
<g id="edge1" class="edge">
<title>JohannPseudoPositioner&#45;&gt;JohannDetectorArm</title>
<path fill="none" stroke="black" d="M2197.53,-229.42C1957.43,-219.99 1179.32,-184.87 540.61,-104.65 510.07,-100.82 477.85,-95.92 446.46,-90.68"/>
<polygon fill="black" stroke="black" points="447.33,-87.28 436.89,-89.07 446.16,-94.18 447.33,-87.28"/>
</g>
<!-- JohannMainCrystal -->
<g id="node3" class="node">
<title>JohannMainCrystal</title>
<ellipse fill="none" stroke="black" cx="829.61" cy="-52.33" rx="252.61" ry="52.33"/>
<text xml:space="preserve" text-anchor="middle" x="829.61" y="-72.03" font-family="Times,serif" font-size="14.00">JohannMainCrystal</text>
<text xml:space="preserve" text-anchor="middle" x="829.61" y="-55.53" font-family="Times,serif" font-size="14.00">File: ./iss&#45;profile&#45;collection/startup/80&#45;johann_spectrometer.py</text>
<text xml:space="preserve" text-anchor="middle" x="829.61" y="-39.03" font-family="Times,serif" font-size="14.00">Methods: 2</text>
<text xml:space="preserve" text-anchor="middle" x="829.61" y="-22.53" font-family="Times,serif" font-size="14.00">Attributes: 7</text>
</g>
<!-- JohannPseudoPositioner&#45;&gt;JohannMainCrystal -->
<g id="edge2" class="edge">
<title>JohannPseudoPositioner&#45;&gt;JohannMainCrystal</title>
<path fill="none" stroke="black" d="M2197.14,-225.65C2013.35,-209.23 1523.6,-163.19 1117.61,-104.65 1087.95,-100.38 1056.67,-95.34 1026.08,-90.13"/>
<polygon fill="black" stroke="black" points="1026.78,-86.7 1016.34,-88.46 1025.6,-93.6 1026.78,-86.7"/>
</g>
<!-- JohannAux2Crystal -->
<g id="node4" class="node">
<title>JohannAux2Crystal</title>
<ellipse fill="none" stroke="black" cx="1406.61" cy="-52.33" rx="252.61" ry="52.33"/>
<text xml:space="preserve" text-anchor="middle" x="1406.61" y="-72.03" font-family="Times,serif" font-size="14.00">JohannAux2Crystal</text>
<text xml:space="preserve" text-anchor="middle" x="1406.61" y="-55.53" font-family="Times,serif" font-size="14.00">File: ./iss&#45;profile&#45;collection/startup/80&#45;johann_spectrometer.py</text>
<text xml:space="preserve" text-anchor="middle" x="1406.61" y="-39.03" font-family="Times,serif" font-size="14.00">Methods: 2</text>
<text xml:space="preserve" text-anchor="middle" x="1406.61" y="-22.53" font-family="Times,serif" font-size="14.00">Attributes: 9</text>
</g>
<!-- JohannPseudoPositioner&#45;&gt;JohannAux2Crystal -->
<g id="edge3" class="edge">
<title>JohannPseudoPositioner&#45;&gt;JohannAux2Crystal</title>
<path fill="none" stroke="black" d="M2197.12,-216.75C2064.52,-189.34 1783.82,-131.31 1595.16,-92.3"/>
<polygon fill="black" stroke="black" points="1595.98,-88.9 1585.48,-90.3 1594.56,-95.76 1595.98,-88.9"/>
</g>
<!-- JohannAux3Crystal -->
<g id="node5" class="node">
<title>JohannAux3Crystal</title>
<ellipse fill="none" stroke="black" cx="1983.61" cy="-52.33" rx="252.61" ry="52.33"/>
<text xml:space="preserve" text-anchor="middle" x="1983.61" y="-72.03" font-family="Times,serif" font-size="14.00">JohannAux3Crystal</text>
<text xml:space="preserve" text-anchor="middle" x="1983.61" y="-55.53" font-family="Times,serif" font-size="14.00">File: ./iss&#45;profile&#45;collection/startup/80&#45;johann_spectrometer.py</text>
<text xml:space="preserve" text-anchor="middle" x="1983.61" y="-39.03" font-family="Times,serif" font-size="14.00">Methods: 2</text>
<text xml:space="preserve" text-anchor="middle" x="1983.61" y="-22.53" font-family="Times,serif" font-size="14.00">Attributes: 9</text>
</g>
<!-- JohannPseudoPositioner&#45;&gt;JohannAux3Crystal -->
<g id="edge4" class="edge">
<title>JohannPseudoPositioner&#45;&gt;JohannAux3Crystal</title>
<path fill="none" stroke="black" d="M2239.41,-212.16C2199.31,-187.26 2129.18,-143.71 2072.48,-108.5"/>
<polygon fill="black" stroke="black" points="2074.41,-105.58 2064.07,-103.28 2070.71,-111.53 2074.41,-105.58"/>
</g>
<!-- JohannAux4Crystal -->
<g id="node6" class="node">
<title>JohannAux4Crystal</title>
<ellipse fill="none" stroke="black" cx="2560.61" cy="-52.33" rx="252.61" ry="52.33"/>
<text xml:space="preserve" text-anchor="middle" x="2560.61" y="-72.03" font-family="Times,serif" font-size="14.00">JohannAux4Crystal</text>
<text xml:space="preserve" text-anchor="middle" x="2560.61" y="-55.53" font-family="Times,serif" font-size="14.00">File: ./iss&#45;profile&#45;collection/startup/80&#45;johann_spectrometer.py</text>
<text xml:space="preserve" text-anchor="middle" x="2560.61" y="-39.03" font-family="Times,serif" font-size="14.00">Methods: 2</text>
<text xml:space="preserve" text-anchor="middle" x="2560.61" y="-22.53" font-family="Times,serif" font-size="14.00">Attributes: 10</text>
</g>
<!-- JohannPseudoPositioner&#45;&gt;JohannAux4Crystal -->
<g id="edge5" class="edge">
<title>JohannPseudoPositioner&#45;&gt;JohannAux4Crystal</title>
<path fill="none" stroke="black" d="M2303.92,-212.16C2344.16,-187.26 2414.54,-143.71 2471.44,-108.5"/>
<polygon fill="black" stroke="black" points="2473.22,-111.52 2479.89,-103.28 2469.54,-105.56 2473.22,-111.52"/>
</g>
<!-- JohannAux5Crystal -->
<g id="node7" class="node">
<title>JohannAux5Crystal</title>
<ellipse fill="none" stroke="black" cx="3137.61" cy="-52.33" rx="252.61" ry="52.33"/>
<text xml:space="preserve" text-anchor="middle" x="3137.61" y="-72.03" font-family="Times,serif" font-size="14.00">JohannAux5Crystal</text>
<text xml:space="preserve" text-anchor="middle" x="3137.61" y="-55.53" font-family="Times,serif" font-size="14.00">File: ./iss&#45;profile&#45;collection/startup/80&#45;johann_spectrometer.py</text>
<text xml:space="preserve" text-anchor="middle" x="3137.61" y="-39.03" font-family="Times,serif" font-size="14.00">Methods: 2</text>
<text xml:space="preserve" text-anchor="middle" x="3137.61" y="-22.53" font-family="Times,serif" font-size="14.00">Attributes: 10</text>
</g>
<!-- JohannPseudoPositioner&#45;&gt;JohannAux5Crystal -->
<g id="edge6" class="edge">
<title>JohannPseudoPositioner&#45;&gt;JohannAux5Crystal</title>
<path fill="none" stroke="black" d="M2345.82,-216.83C2478.47,-189.44 2760.02,-131.3 2949.08,-92.26"/>
<polygon fill="black" stroke="black" points="2949.7,-95.7 2958.79,-90.25 2948.29,-88.85 2949.7,-95.7"/>
</g>
<!-- JohannSpectrometerX -->
<g id="node8" class="node">
<title>JohannSpectrometerX</title>
<ellipse fill="none" stroke="black" cx="3714.61" cy="-52.33" rx="252.61" ry="52.33"/>
<text xml:space="preserve" text-anchor="middle" x="3714.61" y="-72.03" font-family="Times,serif" font-size="14.00">JohannSpectrometerX</text>
<text xml:space="preserve" text-anchor="middle" x="3714.61" y="-55.53" font-family="Times,serif" font-size="14.00">File: ./iss&#45;profile&#45;collection/startup/80&#45;johann_spectrometer.py</text>
<text xml:space="preserve" text-anchor="middle" x="3714.61" y="-39.03" font-family="Times,serif" font-size="14.00">Methods: 3</text>
<text xml:space="preserve" text-anchor="middle" x="3714.61" y="-22.53" font-family="Times,serif" font-size="14.00">Attributes: 12</text>
</g>
<!-- JohannPseudoPositioner&#45;&gt;JohannSpectrometerX -->
<g id="edge7" class="edge">
<title>JohannPseudoPositioner&#45;&gt;JohannSpectrometerX</title>
<path fill="none" stroke="black" d="M2345.81,-225.68C2529.5,-209.3 3020.03,-163.26 3426.61,-104.65 3456.27,-100.38 3487.56,-95.35 3518.15,-90.13"/>
<polygon fill="black" stroke="black" points="3518.63,-93.6 3527.89,-88.46 3517.44,-86.7 3518.63,-93.6"/>
</g>
<!-- JohannMultiCrystalPseudoPositioner -->
<g id="node9" class="node">
<title>JohannMultiCrystalPseudoPositioner</title>
<ellipse fill="none" stroke="black" cx="4291.61" cy="-52.33" rx="252.61" ry="52.33"/>
<text xml:space="preserve" text-anchor="middle" x="4291.61" y="-72.03" font-family="Times,serif" font-size="14.00">JohannMultiCrystalPseudoPositioner</text>
<text xml:space="preserve" text-anchor="middle" x="4291.61" y="-55.53" font-family="Times,serif" font-size="14.00">File: ./iss&#45;profile&#45;collection/startup/80&#45;johann_spectrometer.py</text>
<text xml:space="preserve" text-anchor="middle" x="4291.61" y="-39.03" font-family="Times,serif" font-size="14.00">Methods: 9</text>
<text xml:space="preserve" text-anchor="middle" x="4291.61" y="-22.53" font-family="Times,serif" font-size="14.00">Attributes: 10</text>
</g>
<!-- JohannPseudoPositioner&#45;&gt;JohannMultiCrystalPseudoPositioner -->
<g id="edge8" class="edge">
<title>JohannPseudoPositioner&#45;&gt;JohannMultiCrystalPseudoPositioner</title>
<path fill="none" stroke="black" d="M2345.74,-229.42C2585.98,-220 3364.54,-184.9 4003.61,-104.65 4034.15,-100.82 4066.37,-95.92 4097.77,-90.68"/>
<polygon fill="black" stroke="black" points="4098.06,-94.18 4107.34,-89.07 4096.9,-87.28 4098.06,-94.18"/>
</g>
</g>
</svg>
