<?xml version="1.0" encoding="UTF-8" standalone="no"?>
<!DOCTYPE svg PUBLIC "-//W3C//DTD SVG 1.1//EN"
 "http://www.w3.org/Graphics/SVG/1.1/DTD/svg11.dtd">
<!-- Generated by graphviz version 14.0.0 (20250921.2048)
 -->
<!-- Pages: 1 -->
<svg width="2519pt" height="262pt"
 viewBox="0.00 0.00 2519.00 262.00" xmlns="http://www.w3.org/2000/svg" xmlns:xlink="http://www.w3.org/1999/xlink">
<g id="graph0" class="graph" transform="scale(1 1) rotate(0) translate(4 257.65)">
<polygon fill="white" stroke="none" points="-4,4 -4,-257.65 2515.06,-257.65 2515.06,4 -4,4"/>
<!-- LivePlot -->
<g id="node1" class="node">
<title>LivePlot</title>
<polygon fill="lightblue" stroke="lightblue" points="1340.86,-253.65 1248.36,-253.65 1248.36,-212.65 1340.86,-212.65 1340.86,-253.65"/>
<text xml:space="preserve" text-anchor="middle" x="1294.61" y="-236.35" font-family="Times,serif" font-size="14.00">LivePlot</text>
<text xml:space="preserve" text-anchor="middle" x="1294.61" y="-219.85" font-family="Times,serif" font-size="14.00">(Parent Class)</text>
</g>
<!-- HackLivePlot -->
<g id="node2" class="node">
<title>HackLivePlot</title>
<ellipse fill="none" stroke="black" cx="252.61" cy="-52.33" rx="252.61" ry="52.33"/>
<text xml:space="preserve" text-anchor="middle" x="252.61" y="-72.03" font-family="Times,serif" font-size="14.00">HackLivePlot</text>
<text xml:space="preserve" text-anchor="middle" x="252.61" y="-55.53" font-family="Times,serif" font-size="14.00">File: ./srx&#45;profile&#45;collection/startup/01&#45;liveplot&#45;workaround.py</text>
<text xml:space="preserve" text-anchor="middle" x="252.61" y="-39.03" font-family="Times,serif" font-size="14.00">Methods: 1</text>
<text xml:space="preserve" text-anchor="middle" x="252.61" y="-22.53" font-family="Times,serif" font-size="14.00">Attributes: 14</text>
</g>
<!-- LivePlot&#45;&gt;HackLivePlot -->
<g id="edge1" class="edge">
<title>LivePlot&#45;&gt;HackLivePlot</title>
<path fill="none" stroke="black" d="M1248.26,-224.46C1130.17,-204.83 808.43,-151.16 540.61,-104.65 512.33,-99.74 482.49,-94.49 453.17,-89.3"/>
<polygon fill="black" stroke="black" points="453.91,-85.88 443.45,-87.58 452.68,-92.77 453.91,-85.88"/>
</g>
<!-- NormPlot -->
<g id="node3" class="node">
<title>NormPlot</title>
<ellipse fill="none" stroke="black" cx="795.61" cy="-52.33" rx="218.67" ry="52.33"/>
<text xml:space="preserve" text-anchor="middle" x="795.61" y="-72.03" font-family="Times,serif" font-size="14.00">NormPlot</text>
<text xml:space="preserve" text-anchor="middle" x="795.61" y="-55.53" font-family="Times,serif" font-size="14.00">File: ./qas&#45;profile&#45;collection/startup/05&#45;aux&#45;classes.py</text>
<text xml:space="preserve" text-anchor="middle" x="795.61" y="-39.03" font-family="Times,serif" font-size="14.00">Methods: 2</text>
<text xml:space="preserve" text-anchor="middle" x="795.61" y="-22.53" font-family="Times,serif" font-size="14.00">Attributes: 5</text>
</g>
<!-- LivePlot&#45;&gt;NormPlot -->
<g id="edge2" class="edge">
<title>LivePlot&#45;&gt;NormPlot</title>
<path fill="none" stroke="black" d="M1248.12,-215.49C1175.49,-189.46 1032.47,-138.21 926.57,-100.26"/>
<polygon fill="black" stroke="black" points="927.82,-96.99 917.22,-96.91 925.46,-103.58 927.82,-96.99"/>
</g>
<!-- LiveStatPlot -->
<g id="node4" class="node">
<title>LiveStatPlot</title>
<ellipse fill="none" stroke="black" cx="1294.61" cy="-52.33" rx="208.6" ry="52.33"/>
<text xml:space="preserve" text-anchor="middle" x="1294.61" y="-72.03" font-family="Times,serif" font-size="14.00">LiveStatPlot</text>
<text xml:space="preserve" text-anchor="middle" x="1294.61" y="-55.53" font-family="Times,serif" font-size="14.00">File: ./cms&#45;profile&#45;collection/startup/91&#45;fit_scan.py</text>
<text xml:space="preserve" text-anchor="middle" x="1294.61" y="-39.03" font-family="Times,serif" font-size="14.00">Methods: 7</text>
<text xml:space="preserve" text-anchor="middle" x="1294.61" y="-22.53" font-family="Times,serif" font-size="14.00">Attributes: 11</text>
</g>
<!-- LivePlot&#45;&gt;LiveStatPlot -->
<g id="edge3" class="edge">
<title>LivePlot&#45;&gt;LiveStatPlot</title>
<path fill="none" stroke="black" d="M1294.61,-212.33C1294.61,-189.21 1294.61,-149.84 1294.61,-116.06"/>
<polygon fill="black" stroke="black" points="1298.11,-116.37 1294.61,-106.37 1291.11,-116.37 1298.11,-116.37"/>
</g>
<!-- LivePlot_Custom -->
<g id="node5" class="node">
<title>LivePlot_Custom</title>
<ellipse fill="none" stroke="black" cx="1783.61" cy="-52.33" rx="208.6" ry="52.33"/>
<text xml:space="preserve" text-anchor="middle" x="1783.61" y="-72.03" font-family="Times,serif" font-size="14.00">LivePlot_Custom</text>
<text xml:space="preserve" text-anchor="middle" x="1783.61" y="-55.53" font-family="Times,serif" font-size="14.00">File: ./cms&#45;profile&#45;collection/startup/91&#45;fit_scan.py</text>
<text xml:space="preserve" text-anchor="middle" x="1783.61" y="-39.03" font-family="Times,serif" font-size="14.00">Methods: 5</text>
<text xml:space="preserve" text-anchor="middle" x="1783.61" y="-22.53" font-family="Times,serif" font-size="14.00">Attributes: 17</text>
</g>
<!-- LivePlot&#45;&gt;LivePlot_Custom -->
<g id="edge4" class="edge">
<title>LivePlot&#45;&gt;LivePlot_Custom</title>
<path fill="none" stroke="black" d="M1341.06,-215.17C1412.74,-188.95 1552.85,-137.71 1656.31,-99.88"/>
<polygon fill="black" stroke="black" points="1657.22,-103.28 1665.41,-96.55 1654.81,-96.7 1657.22,-103.28"/>
</g>
<!-- LoudLivePlot -->
<g id="node6" class="node">
<title>LoudLivePlot</title>
<ellipse fill="none" stroke="black" cx="2287.61" cy="-52.33" rx="223.45" ry="52.33"/>
<text xml:space="preserve" text-anchor="middle" x="2287.61" y="-72.03" font-family="Times,serif" font-size="14.00">LoudLivePlot</text>
<text xml:space="preserve" text-anchor="middle" x="2287.61" y="-55.53" font-family="Times,serif" font-size="14.00">File: ./lix&#45;profile&#45;collection/startup/obsolete/25&#45;hplc.py</text>
<text xml:space="preserve" text-anchor="middle" x="2287.61" y="-39.03" font-family="Times,serif" font-size="14.00">Methods: 1</text>
<text xml:space="preserve" text-anchor="middle" x="2287.61" y="-22.53" font-family="Times,serif" font-size="14.00">Attributes: 0</text>
</g>
<!-- LivePlot&#45;&gt;LoudLivePlot -->
<g id="edge5" class="edge">
<title>LivePlot&#45;&gt;LoudLivePlot</title>
<path fill="none" stroke="black" d="M1341.06,-224.48C1457.13,-205.21 1769.21,-152.88 2028.61,-104.65 2054.56,-99.83 2081.93,-94.58 2108.78,-89.34"/>
<polygon fill="black" stroke="black" points="2109.21,-92.82 2118.36,-87.47 2107.87,-85.95 2109.21,-92.82"/>
</g>
</g>
</svg>
