<?xml version="1.0" encoding="UTF-8" standalone="no"?>
<!DOCTYPE svg PUBLIC "-//W3C//DTD SVG 1.1//EN"
 "http://www.w3.org/Graphics/SVG/1.1/DTD/svg11.dtd">
<!-- Generated by graphviz version 14.0.0 (20250921.2048)
 -->
<!-- Pages: 1 -->
<svg width="902pt" height="262pt"
 viewBox="0.00 0.00 902.00 262.00" xmlns="http://www.w3.org/2000/svg" xmlns:xlink="http://www.w3.org/1999/xlink">
<g id="graph0" class="graph" transform="scale(1 1) rotate(0) translate(4 257.65)">
<polygon fill="white" stroke="none" points="-4,4 -4,-257.65 897.83,-257.65 897.83,4 -4,4"/>
<!-- LiveGrid -->
<g id="node1" class="node">
<title>LiveGrid</title>
<polygon fill="lightblue" stroke="lightblue" points="492.66,-253.65 400.16,-253.65 400.16,-212.65 492.66,-212.65 492.66,-253.65"/>
<text xml:space="preserve" text-anchor="middle" x="446.41" y="-236.35" font-family="Times,serif" font-size="14.00">LiveGrid</text>
<text xml:space="preserve" text-anchor="middle" x="446.41" y="-219.85" font-family="Times,serif" font-size="14.00">(Parent Class)</text>
</g>
<!-- RowBasedLiveGrid -->
<g id="node2" class="node">
<title>RowBasedLiveGrid</title>
<ellipse fill="none" stroke="black" cx="205.41" cy="-52.33" rx="205.41" ry="52.33"/>
<text xml:space="preserve" text-anchor="middle" x="205.41" y="-72.03" font-family="Times,serif" font-size="14.00">RowBasedLiveGrid</text>
<text xml:space="preserve" text-anchor="middle" x="205.41" y="-55.53" font-family="Times,serif" font-size="14.00">File: ./srx&#45;profile&#45;collection/startup/62&#45;flyscans.py</text>
<text xml:space="preserve" text-anchor="middle" x="205.41" y="-39.03" font-family="Times,serif" font-size="14.00">Methods: 4</text>
<text xml:space="preserve" text-anchor="middle" x="205.41" y="-22.53" font-family="Times,serif" font-size="14.00">Attributes: 8</text>
</g>
<!-- LiveGrid&#45;&gt;RowBasedLiveGrid -->
<g id="edge1" class="edge">
<title>LiveGrid&#45;&gt;RowBasedLiveGrid</title>
<path fill="none" stroke="black" d="M419.7,-212.33C386.31,-187.56 327.78,-144.13 280.32,-108.91"/>
<polygon fill="black" stroke="black" points="282.63,-106.26 272.51,-103.11 278.45,-111.88 282.63,-106.26"/>
</g>
<!-- ArrayCounterLiveGrid -->
<g id="node3" class="node">
<title>ArrayCounterLiveGrid</title>
<ellipse fill="none" stroke="black" cx="688.41" cy="-52.33" rx="205.41" ry="52.33"/>
<text xml:space="preserve" text-anchor="middle" x="688.41" y="-72.03" font-family="Times,serif" font-size="14.00">ArrayCounterLiveGrid</text>
<text xml:space="preserve" text-anchor="middle" x="688.41" y="-55.53" font-family="Times,serif" font-size="14.00">File: ./srx&#45;profile&#45;collection/startup/62&#45;flyscans.py</text>
<text xml:space="preserve" text-anchor="middle" x="688.41" y="-39.03" font-family="Times,serif" font-size="14.00">Methods: 2</text>
<text xml:space="preserve" text-anchor="middle" x="688.41" y="-22.53" font-family="Times,serif" font-size="14.00">Attributes: 3</text>
</g>
<!-- LiveGrid&#45;&gt;ArrayCounterLiveGrid -->
<g id="edge2" class="edge">
<title>LiveGrid&#45;&gt;ArrayCounterLiveGrid</title>
<path fill="none" stroke="black" d="M473.24,-212.33C506.76,-187.56 565.54,-144.13 613.2,-108.91"/>
<polygon fill="black" stroke="black" points="615.08,-111.87 621.04,-103.11 610.92,-106.24 615.08,-111.87"/>
</g>
</g>
</svg>
