<?xml version="1.0" encoding="UTF-8" standalone="no"?>
<!DOCTYPE svg PUBLIC "-//W3C//DTD SVG 1.1//EN"
 "http://www.w3.org/Graphics/SVG/1.1/DTD/svg11.dtd">
<!-- Generated by graphviz version 14.0.0 (20250921.2048)
 -->
<!-- Pages: 1 -->
<svg width="852pt" height="262pt"
 viewBox="0.00 0.00 852.00 262.00" xmlns="http://www.w3.org/2000/svg" xmlns:xlink="http://www.w3.org/1999/xlink">
<g id="graph0" class="graph" transform="scale(1 1) rotate(0) translate(4 257.65)">
<polygon fill="white" stroke="none" points="-4,4 -4,-257.65 848.43,-257.65 848.43,4 -4,4"/>
<!-- Mercury1 -->
<g id="node1" class="node">
<title>Mercury1</title>
<polygon fill="lightblue" stroke="lightblue" points="469,-253.65 376.5,-253.65 376.5,-212.65 469,-212.65 469,-253.65"/>
<text xml:space="preserve" text-anchor="middle" x="422.75" y="-236.35" font-family="Times,serif" font-size="14.00">Mercury1</text>
<text xml:space="preserve" text-anchor="middle" x="422.75" y="-219.85" font-family="Times,serif" font-size="14.00">(Parent Class)</text>
</g>
<!-- AMXMercury -->
<g id="node2" class="node">
<title>AMXMercury</title>
<ellipse fill="none" stroke="black" cx="193.75" cy="-52.33" rx="193.75" ry="52.33"/>
<text xml:space="preserve" text-anchor="middle" x="193.75" y="-72.03" font-family="Times,serif" font-size="14.00">AMXMercury</text>
<text xml:space="preserve" text-anchor="middle" x="193.75" y="-55.53" font-family="Times,serif" font-size="14.00">File: ./amx&#45;profile&#45;collection/startup/22&#45;dxp.py</text>
<text xml:space="preserve" text-anchor="middle" x="193.75" y="-39.03" font-family="Times,serif" font-size="14.00">Methods: 1</text>
<text xml:space="preserve" text-anchor="middle" x="193.75" y="-22.53" font-family="Times,serif" font-size="14.00">Attributes: 0</text>
</g>
<!-- Mercury1&#45;&gt;AMXMercury -->
<g id="edge1" class="edge">
<title>Mercury1&#45;&gt;AMXMercury</title>
<path fill="none" stroke="black" d="M397.37,-212.33C365.71,-187.61 310.25,-144.31 265.21,-109.13"/>
<polygon fill="black" stroke="black" points="267.57,-106.54 257.54,-103.14 263.27,-112.05 267.57,-106.54"/>
</g>
<!-- FMXMercury -->
<g id="node3" class="node">
<title>FMXMercury</title>
<ellipse fill="none" stroke="black" cx="651.75" cy="-52.33" rx="192.69" ry="52.33"/>
<text xml:space="preserve" text-anchor="middle" x="651.75" y="-72.03" font-family="Times,serif" font-size="14.00">FMXMercury</text>
<text xml:space="preserve" text-anchor="middle" x="651.75" y="-55.53" font-family="Times,serif" font-size="14.00">File: ./fmx&#45;profile&#45;collection/startup/22&#45;dxp.py</text>
<text xml:space="preserve" text-anchor="middle" x="651.75" y="-39.03" font-family="Times,serif" font-size="14.00">Methods: 0</text>
<text xml:space="preserve" text-anchor="middle" x="651.75" y="-22.53" font-family="Times,serif" font-size="14.00">Attributes: 1</text>
</g>
<!-- Mercury1&#45;&gt;FMXMercury -->
<g id="edge2" class="edge">
<title>Mercury1&#45;&gt;FMXMercury</title>
<path fill="none" stroke="black" d="M448.13,-212.33C479.79,-187.61 535.24,-144.31 580.29,-109.13"/>
<polygon fill="black" stroke="black" points="582.23,-112.05 587.96,-103.14 577.92,-106.54 582.23,-112.05"/>
</g>
</g>
</svg>
