<?xml version="1.0" encoding="UTF-8" standalone="no"?>
<!DOCTYPE svg PUBLIC "-//W3C//DTD SVG 1.1//EN"
 "http://www.w3.org/Graphics/SVG/1.1/DTD/svg11.dtd">
<!-- Generated by graphviz version 14.0.0 (20250921.2048)
 -->
<!-- Pages: 1 -->
<svg width="1347pt" height="262pt"
 viewBox="0.00 0.00 1347.00 262.00" xmlns="http://www.w3.org/2000/svg" xmlns:xlink="http://www.w3.org/1999/xlink">
<g id="graph0" class="graph" transform="scale(1 1) rotate(0) translate(4 257.65)">
<polygon fill="white" stroke="none" points="-4,4 -4,-257.65 1343.04,-257.65 1343.04,4 -4,4"/>
<!-- Mirror -->
<g id="node1" class="node">
<title>Mirror</title>
<polygon fill="lightblue" stroke="lightblue" points="719.89,-253.65 627.39,-253.65 627.39,-212.65 719.89,-212.65 719.89,-253.65"/>
<text xml:space="preserve" text-anchor="middle" x="673.64" y="-236.35" font-family="Times,serif" font-size="14.00">Mirror</text>
<text xml:space="preserve" text-anchor="middle" x="673.64" y="-219.85" font-family="Times,serif" font-size="14.00">(Parent Class)</text>
</g>
<!-- BendM -->
<g id="node2" class="node">
<title>BendM</title>
<ellipse fill="none" stroke="black" cx="200.64" cy="-52.33" rx="200.64" ry="52.33"/>
<text xml:space="preserve" text-anchor="middle" x="200.64" y="-72.03" font-family="Times,serif" font-size="14.00">BendM</text>
<text xml:space="preserve" text-anchor="middle" x="200.64" y="-55.53" font-family="Times,serif" font-size="14.00">File: ./isr&#45;profile&#45;collection/startup/02&#45;mirrors.py</text>
<text xml:space="preserve" text-anchor="middle" x="200.64" y="-39.03" font-family="Times,serif" font-size="14.00">Methods: 0</text>
<text xml:space="preserve" text-anchor="middle" x="200.64" y="-22.53" font-family="Times,serif" font-size="14.00">Attributes: 1</text>
</g>
<!-- Mirror&#45;&gt;BendM -->
<g id="edge1" class="edge">
<title>Mirror&#45;&gt;BendM</title>
<path fill="none" stroke="black" d="M626.99,-214.52C557.17,-188.12 423.09,-137.43 323.85,-99.91"/>
<polygon fill="black" stroke="black" points="325.15,-96.66 314.56,-96.4 322.68,-103.21 325.15,-96.66"/>
</g>
<!-- DHRM -->
<g id="node3" class="node">
<title>DHRM</title>
<ellipse fill="none" stroke="black" cx="673.64" cy="-52.33" rx="200.64" ry="52.33"/>
<text xml:space="preserve" text-anchor="middle" x="673.64" y="-72.03" font-family="Times,serif" font-size="14.00">DHRM</text>
<text xml:space="preserve" text-anchor="middle" x="673.64" y="-55.53" font-family="Times,serif" font-size="14.00">File: ./isr&#45;profile&#45;collection/startup/02&#45;mirrors.py</text>
<text xml:space="preserve" text-anchor="middle" x="673.64" y="-39.03" font-family="Times,serif" font-size="14.00">Methods: 0</text>
<text xml:space="preserve" text-anchor="middle" x="673.64" y="-22.53" font-family="Times,serif" font-size="14.00">Attributes: 2</text>
</g>
<!-- Mirror&#45;&gt;DHRM -->
<g id="edge2" class="edge">
<title>Mirror&#45;&gt;DHRM</title>
<path fill="none" stroke="black" d="M673.64,-212.33C673.64,-189.21 673.64,-149.84 673.64,-116.06"/>
<polygon fill="black" stroke="black" points="677.14,-116.37 673.64,-106.37 670.14,-116.37 677.14,-116.37"/>
</g>
<!-- M1bMirror -->
<g id="node4" class="node">
<title>M1bMirror</title>
<ellipse fill="none" stroke="black" cx="1142.64" cy="-52.33" rx="196.4" ry="52.33"/>
<text xml:space="preserve" text-anchor="middle" x="1142.64" y="-72.03" font-family="Times,serif" font-size="14.00">M1bMirror</text>
<text xml:space="preserve" text-anchor="middle" x="1142.64" y="-55.53" font-family="Times,serif" font-size="14.00">File: ./ios&#45;profile&#45;collection/startup/10&#45;optics.py</text>
<text xml:space="preserve" text-anchor="middle" x="1142.64" y="-39.03" font-family="Times,serif" font-size="14.00">Methods: 0</text>
<text xml:space="preserve" text-anchor="middle" x="1142.64" y="-22.53" font-family="Times,serif" font-size="14.00">Attributes: 1</text>
</g>
<!-- Mirror&#45;&gt;M1bMirror -->
<g id="edge3" class="edge">
<title>Mirror&#45;&gt;M1bMirror</title>
<path fill="none" stroke="black" d="M720.33,-214.35C789.74,-187.89 922.51,-137.26 1020.73,-99.81"/>
<polygon fill="black" stroke="black" points="1021.81,-103.14 1029.91,-96.31 1019.32,-96.6 1021.81,-103.14"/>
</g>
</g>
</svg>
