<?xml version="1.0" encoding="UTF-8" standalone="no"?>
<!DOCTYPE svg PUBLIC "-//W3C//DTD SVG 1.1//EN"
 "http://www.w3.org/Graphics/SVG/1.1/DTD/svg11.dtd">
<!-- Generated by graphviz version 14.0.0 (20250921.2048)
 -->
<!-- Pages: 1 -->
<svg width="1820pt" height="262pt"
 viewBox="0.00 0.00 1820.00 262.00" xmlns="http://www.w3.org/2000/svg" xmlns:xlink="http://www.w3.org/1999/xlink">
<g id="graph0" class="graph" transform="scale(1 1) rotate(0) translate(4 257.65)">
<polygon fill="white" stroke="none" points="-4,4 -4,-257.65 1816.16,-257.65 1816.16,4 -4,4"/>
<!-- Monitor -->
<g id="node1" class="node">
<title>Monitor</title>
<polygon fill="lightblue" stroke="lightblue" points="951.83,-253.65 859.33,-253.65 859.33,-212.65 951.83,-212.65 951.83,-253.65"/>
<text xml:space="preserve" text-anchor="middle" x="905.58" y="-236.35" font-family="Times,serif" font-size="14.00">Monitor</text>
<text xml:space="preserve" text-anchor="middle" x="905.58" y="-219.85" font-family="Times,serif" font-size="14.00">(Parent Class)</text>
</g>
<!-- DiagnosticScreen -->
<g id="node2" class="node">
<title>DiagnosticScreen</title>
<ellipse fill="none" stroke="black" cx="199.58" cy="-52.33" rx="199.58" ry="52.33"/>
<text xml:space="preserve" text-anchor="middle" x="199.58" y="-72.03" font-family="Times,serif" font-size="14.00">DiagnosticScreen</text>
<text xml:space="preserve" text-anchor="middle" x="199.58" y="-55.53" font-family="Times,serif" font-size="14.00">File: ./cms&#45;profile&#45;collection/startup/81&#45;beam.py</text>
<text xml:space="preserve" text-anchor="middle" x="199.58" y="-39.03" font-family="Times,serif" font-size="14.00">Methods: 5</text>
<text xml:space="preserve" text-anchor="middle" x="199.58" y="-22.53" font-family="Times,serif" font-size="14.00">Attributes: 6</text>
</g>
<!-- Monitor&#45;&gt;DiagnosticScreen -->
<g id="edge1" class="edge">
<title>Monitor&#45;&gt;DiagnosticScreen</title>
<path fill="none" stroke="black" d="M858.99,-220.35C757.73,-194.7 513.79,-132.91 352.69,-92.11"/>
<polygon fill="black" stroke="black" points="353.74,-88.76 343.19,-89.7 352.02,-95.55 353.74,-88.76"/>
</g>
<!-- IonChamber_CMS -->
<g id="node3" class="node">
<title>IonChamber_CMS</title>
<ellipse fill="none" stroke="black" cx="670.58" cy="-52.33" rx="199.58" ry="52.33"/>
<text xml:space="preserve" text-anchor="middle" x="670.58" y="-72.03" font-family="Times,serif" font-size="14.00">IonChamber_CMS</text>
<text xml:space="preserve" text-anchor="middle" x="670.58" y="-55.53" font-family="Times,serif" font-size="14.00">File: ./cms&#45;profile&#45;collection/startup/81&#45;beam.py</text>
<text xml:space="preserve" text-anchor="middle" x="670.58" y="-39.03" font-family="Times,serif" font-size="14.00">Methods: 7</text>
<text xml:space="preserve" text-anchor="middle" x="670.58" y="-22.53" font-family="Times,serif" font-size="14.00">Attributes: 17</text>
</g>
<!-- Monitor&#45;&gt;IonChamber_CMS -->
<g id="edge2" class="edge">
<title>Monitor&#45;&gt;IonChamber_CMS</title>
<path fill="none" stroke="black" d="M879.53,-212.33C847.04,-187.61 790.14,-144.31 743.91,-109.13"/>
<polygon fill="black" stroke="black" points="746.1,-106.4 736.02,-103.13 741.86,-111.97 746.1,-106.4"/>
</g>
<!-- Scintillator_CMS -->
<g id="node4" class="node">
<title>Scintillator_CMS</title>
<ellipse fill="none" stroke="black" cx="1141.58" cy="-52.33" rx="199.58" ry="52.33"/>
<text xml:space="preserve" text-anchor="middle" x="1141.58" y="-72.03" font-family="Times,serif" font-size="14.00">Scintillator_CMS</text>
<text xml:space="preserve" text-anchor="middle" x="1141.58" y="-55.53" font-family="Times,serif" font-size="14.00">File: ./cms&#45;profile&#45;collection/startup/81&#45;beam.py</text>
<text xml:space="preserve" text-anchor="middle" x="1141.58" y="-39.03" font-family="Times,serif" font-size="14.00">Methods: 5</text>
<text xml:space="preserve" text-anchor="middle" x="1141.58" y="-22.53" font-family="Times,serif" font-size="14.00">Attributes: 7</text>
</g>
<!-- Monitor&#45;&gt;Scintillator_CMS -->
<g id="edge3" class="edge">
<title>Monitor&#45;&gt;Scintillator_CMS</title>
<path fill="none" stroke="black" d="M931.74,-212.33C964.37,-187.61 1021.51,-144.31 1067.94,-109.13"/>
<polygon fill="black" stroke="black" points="1070.01,-111.95 1075.86,-103.12 1065.78,-106.37 1070.01,-111.95"/>
</g>
<!-- DiamondDiode_CMS -->
<g id="node5" class="node">
<title>DiamondDiode_CMS</title>
<ellipse fill="none" stroke="black" cx="1612.58" cy="-52.33" rx="199.58" ry="52.33"/>
<text xml:space="preserve" text-anchor="middle" x="1612.58" y="-72.03" font-family="Times,serif" font-size="14.00">DiamondDiode_CMS</text>
<text xml:space="preserve" text-anchor="middle" x="1612.58" y="-55.53" font-family="Times,serif" font-size="14.00">File: ./cms&#45;profile&#45;collection/startup/81&#45;beam.py</text>
<text xml:space="preserve" text-anchor="middle" x="1612.58" y="-39.03" font-family="Times,serif" font-size="14.00">Methods: 7</text>
<text xml:space="preserve" text-anchor="middle" x="1612.58" y="-22.53" font-family="Times,serif" font-size="14.00">Attributes: 14</text>
</g>
<!-- Monitor&#45;&gt;DiamondDiode_CMS -->
<g id="edge4" class="edge">
<title>Monitor&#45;&gt;DiamondDiode_CMS</title>
<path fill="none" stroke="black" d="M952.24,-220.35C1053.64,-194.7 1297.93,-132.91 1459.25,-92.11"/>
<polygon fill="black" stroke="black" points="1459.94,-95.55 1468.77,-89.7 1458.22,-88.76 1459.94,-95.55"/>
</g>
</g>
</svg>
