<?xml version="1.0" encoding="UTF-8" standalone="no"?>
<!DOCTYPE svg PUBLIC "-//W3C//DTD SVG 1.1//EN"
 "http://www.w3.org/Graphics/SVG/1.1/DTD/svg11.dtd">
<!-- Generated by graphviz version 14.0.0 (20250921.2048)
 -->
<!-- Pages: 1 -->
<svg width="5759pt" height="262pt"
 viewBox="0.00 0.00 5759.00 262.00" xmlns="http://www.w3.org/2000/svg" xmlns:xlink="http://www.w3.org/1999/xlink">
<g id="graph0" class="graph" transform="scale(1 1) rotate(0) translate(4 257.65)">
<polygon fill="white" stroke="none" points="-4,4 -4,-257.65 5755.25,-257.65 5755.25,4 -4,4"/>
<!-- MotorBundle -->
<g id="node1" class="node">
<title>MotorBundle</title>
<polygon fill="lightblue" stroke="lightblue" points="3001.27,-253.65 2908.77,-253.65 2908.77,-212.65 3001.27,-212.65 3001.27,-253.65"/>
<text xml:space="preserve" text-anchor="middle" x="2955.02" y="-236.35" font-family="Times,serif" font-size="14.00">MotorBundle</text>
<text xml:space="preserve" text-anchor="middle" x="2955.02" y="-219.85" font-family="Times,serif" font-size="14.00">(Parent Class)</text>
</g>
<!-- HxnSSAperture -->
<g id="node2" class="node">
<title>HxnSSAperture</title>
<ellipse fill="none" stroke="black" cx="216.02" cy="-52.33" rx="216.02" ry="52.33"/>
<text xml:space="preserve" text-anchor="middle" x="216.02" y="-72.03" font-family="Times,serif" font-size="14.00">HxnSSAperture</text>
<text xml:space="preserve" text-anchor="middle" x="216.02" y="-55.53" font-family="Times,serif" font-size="14.00">File: ./hxn&#45;profile&#45;collection/startup/12&#45;endstation.py</text>
<text xml:space="preserve" text-anchor="middle" x="216.02" y="-39.03" font-family="Times,serif" font-size="14.00">Methods: 0</text>
<text xml:space="preserve" text-anchor="middle" x="216.02" y="-22.53" font-family="Times,serif" font-size="14.00">Attributes: 4</text>
</g>
<!-- MotorBundle&#45;&gt;HxnSSAperture -->
<g id="edge1" class="edge">
<title>MotorBundle&#45;&gt;HxnSSAperture</title>
<path fill="none" stroke="black" d="M2908.61,-232.36C2658.64,-232.91 1447.54,-228.8 468.02,-104.65 440.45,-101.16 411.4,-96.33 383.2,-91.02"/>
<polygon fill="black" stroke="black" points="383.99,-87.61 373.51,-89.17 382.68,-94.48 383.99,-87.61"/>
</g>
<!-- HxnTurboPmacController -->
<g id="node3" class="node">
<title>HxnTurboPmacController</title>
<ellipse fill="none" stroke="black" cx="720.02" cy="-52.33" rx="216.02" ry="52.33"/>
<text xml:space="preserve" text-anchor="middle" x="720.02" y="-72.03" font-family="Times,serif" font-size="14.00">HxnTurboPmacController</text>
<text xml:space="preserve" text-anchor="middle" x="720.02" y="-55.53" font-family="Times,serif" font-size="14.00">File: ./hxn&#45;profile&#45;collection/startup/12&#45;endstation.py</text>
<text xml:space="preserve" text-anchor="middle" x="720.02" y="-39.03" font-family="Times,serif" font-size="14.00">Methods: 0</text>
<text xml:space="preserve" text-anchor="middle" x="720.02" y="-22.53" font-family="Times,serif" font-size="14.00">Attributes: 8</text>
</g>
<!-- MotorBundle&#45;&gt;HxnTurboPmacController -->
<g id="edge2" class="edge">
<title>MotorBundle&#45;&gt;HxnTurboPmacController</title>
<path fill="none" stroke="black" d="M2908.31,-231.5C2689.13,-227.97 1740.99,-207.19 972.02,-104.65 944.67,-101 915.84,-96.13 887.84,-90.83"/>
<polygon fill="black" stroke="black" points="888.71,-87.43 878.23,-88.98 887.39,-94.3 888.71,-87.43"/>
</g>
<!-- HxnSlitB -->
<g id="node4" class="node">
<title>HxnSlitB</title>
<ellipse fill="none" stroke="black" cx="1224.02" cy="-52.33" rx="216.02" ry="52.33"/>
<text xml:space="preserve" text-anchor="middle" x="1224.02" y="-72.03" font-family="Times,serif" font-size="14.00">HxnSlitB</text>
<text xml:space="preserve" text-anchor="middle" x="1224.02" y="-55.53" font-family="Times,serif" font-size="14.00">File: ./hxn&#45;profile&#45;collection/startup/12&#45;endstation.py</text>
<text xml:space="preserve" text-anchor="middle" x="1224.02" y="-39.03" font-family="Times,serif" font-size="14.00">Methods: 0</text>
<text xml:space="preserve" text-anchor="middle" x="1224.02" y="-22.53" font-family="Times,serif" font-size="14.00">Attributes: 4</text>
</g>
<!-- MotorBundle&#45;&gt;HxnSlitB -->
<g id="edge3" class="edge">
<title>MotorBundle&#45;&gt;HxnSlitB</title>
<path fill="none" stroke="black" d="M2908.48,-230.09C2725.35,-221.57 2036.87,-185.67 1476.02,-104.65 1449.01,-100.75 1420.52,-95.78 1392.81,-90.49"/>
<polygon fill="black" stroke="black" points="1393.79,-87.11 1383.31,-88.65 1392.46,-93.98 1393.79,-87.11"/>
</g>
<!-- HxnSlitC -->
<g id="node5" class="node">
<title>HxnSlitC</title>
<ellipse fill="none" stroke="black" cx="1728.02" cy="-52.33" rx="216.02" ry="52.33"/>
<text xml:space="preserve" text-anchor="middle" x="1728.02" y="-72.03" font-family="Times,serif" font-size="14.00">HxnSlitC</text>
<text xml:space="preserve" text-anchor="middle" x="1728.02" y="-55.53" font-family="Times,serif" font-size="14.00">File: ./hxn&#45;profile&#45;collection/startup/12&#45;endstation.py</text>
<text xml:space="preserve" text-anchor="middle" x="1728.02" y="-39.03" font-family="Times,serif" font-size="14.00">Methods: 0</text>
<text xml:space="preserve" text-anchor="middle" x="1728.02" y="-22.53" font-family="Times,serif" font-size="14.00">Attributes: 4</text>
</g>
<!-- MotorBundle&#45;&gt;HxnSlitC -->
<g id="edge4" class="edge">
<title>MotorBundle&#45;&gt;HxnSlitC</title>
<path fill="none" stroke="black" d="M2908.67,-227.27C2768.3,-212.24 2335.72,-164.06 1980.02,-104.65 1953.89,-100.29 1926.34,-95.19 1899.43,-89.93"/>
<polygon fill="black" stroke="black" points="1900.32,-86.54 1889.84,-88.05 1898.97,-93.41 1900.32,-86.54"/>
</g>
<!-- HxnDetectorPositioner -->
<g id="node6" class="node">
<title>HxnDetectorPositioner</title>
<ellipse fill="none" stroke="black" cx="2232.02" cy="-52.33" rx="216.02" ry="52.33"/>
<text xml:space="preserve" text-anchor="middle" x="2232.02" y="-72.03" font-family="Times,serif" font-size="14.00">HxnDetectorPositioner</text>
<text xml:space="preserve" text-anchor="middle" x="2232.02" y="-55.53" font-family="Times,serif" font-size="14.00">File: ./hxn&#45;profile&#45;collection/startup/12&#45;endstation.py</text>
<text xml:space="preserve" text-anchor="middle" x="2232.02" y="-39.03" font-family="Times,serif" font-size="14.00">Methods: 0</text>
<text xml:space="preserve" text-anchor="middle" x="2232.02" y="-22.53" font-family="Times,serif" font-size="14.00">Attributes: 3</text>
</g>
<!-- MotorBundle&#45;&gt;HxnDetectorPositioner -->
<g id="edge5" class="edge">
<title>MotorBundle&#45;&gt;HxnDetectorPositioner</title>
<path fill="none" stroke="black" d="M2908.42,-220.62C2806.2,-195.34 2558.24,-134.01 2392.66,-93.06"/>
<polygon fill="black" stroke="black" points="2393.89,-89.76 2383.34,-90.75 2392.21,-96.55 2393.89,-89.76"/>
</g>
<!-- HxnDCM -->
<g id="node7" class="node">
<title>HxnDCM</title>
<ellipse fill="none" stroke="black" cx="2720.02" cy="-52.33" rx="199.58" ry="52.33"/>
<text xml:space="preserve" text-anchor="middle" x="2720.02" y="-72.03" font-family="Times,serif" font-size="14.00">HxnDCM</text>
<text xml:space="preserve" text-anchor="middle" x="2720.02" y="-55.53" font-family="Times,serif" font-size="14.00">File: ./hxn&#45;profile&#45;collection/startup/10&#45;optics.py</text>
<text xml:space="preserve" text-anchor="middle" x="2720.02" y="-39.03" font-family="Times,serif" font-size="14.00">Methods: 0</text>
<text xml:space="preserve" text-anchor="middle" x="2720.02" y="-22.53" font-family="Times,serif" font-size="14.00">Attributes: 4</text>
</g>
<!-- MotorBundle&#45;&gt;HxnDCM -->
<g id="edge6" class="edge">
<title>MotorBundle&#45;&gt;HxnDCM</title>
<path fill="none" stroke="black" d="M2928.97,-212.33C2896.48,-187.61 2839.58,-144.31 2793.35,-109.13"/>
<polygon fill="black" stroke="black" points="2795.54,-106.4 2785.46,-103.13 2791.3,-111.97 2795.54,-106.4"/>
</g>
<!-- HxnMirror1 -->
<g id="node8" class="node">
<title>HxnMirror1</title>
<ellipse fill="none" stroke="black" cx="3191.02" cy="-52.33" rx="199.58" ry="52.33"/>
<text xml:space="preserve" text-anchor="middle" x="3191.02" y="-72.03" font-family="Times,serif" font-size="14.00">HxnMirror1</text>
<text xml:space="preserve" text-anchor="middle" x="3191.02" y="-55.53" font-family="Times,serif" font-size="14.00">File: ./hxn&#45;profile&#45;collection/startup/10&#45;optics.py</text>
<text xml:space="preserve" text-anchor="middle" x="3191.02" y="-39.03" font-family="Times,serif" font-size="14.00">Methods: 0</text>
<text xml:space="preserve" text-anchor="middle" x="3191.02" y="-22.53" font-family="Times,serif" font-size="14.00">Attributes: 4</text>
</g>
<!-- MotorBundle&#45;&gt;HxnMirror1 -->
<g id="edge7" class="edge">
<title>MotorBundle&#45;&gt;HxnMirror1</title>
<path fill="none" stroke="black" d="M2981.18,-212.33C3013.81,-187.61 3070.95,-144.31 3117.38,-109.13"/>
<polygon fill="black" stroke="black" points="3119.45,-111.95 3125.3,-103.12 3115.22,-106.37 3119.45,-111.95"/>
</g>
<!-- HxnMirror2 -->
<g id="node9" class="node">
<title>HxnMirror2</title>
<ellipse fill="none" stroke="black" cx="3662.02" cy="-52.33" rx="199.58" ry="52.33"/>
<text xml:space="preserve" text-anchor="middle" x="3662.02" y="-72.03" font-family="Times,serif" font-size="14.00">HxnMirror2</text>
<text xml:space="preserve" text-anchor="middle" x="3662.02" y="-55.53" font-family="Times,serif" font-size="14.00">File: ./hxn&#45;profile&#45;collection/startup/10&#45;optics.py</text>
<text xml:space="preserve" text-anchor="middle" x="3662.02" y="-39.03" font-family="Times,serif" font-size="14.00">Methods: 0</text>
<text xml:space="preserve" text-anchor="middle" x="3662.02" y="-22.53" font-family="Times,serif" font-size="14.00">Attributes: 5</text>
</g>
<!-- MotorBundle&#45;&gt;HxnMirror2 -->
<g id="edge8" class="edge">
<title>MotorBundle&#45;&gt;HxnMirror2</title>
<path fill="none" stroke="black" d="M3001.68,-220.35C3103.08,-194.7 3347.37,-132.91 3508.69,-92.11"/>
<polygon fill="black" stroke="black" points="3509.38,-95.55 3518.21,-89.7 3507.66,-88.76 3509.38,-95.55"/>
</g>
<!-- HxnVMS -->
<g id="node10" class="node">
<title>HxnVMS</title>
<ellipse fill="none" stroke="black" cx="4133.02" cy="-52.33" rx="199.58" ry="52.33"/>
<text xml:space="preserve" text-anchor="middle" x="4133.02" y="-72.03" font-family="Times,serif" font-size="14.00">HxnVMS</text>
<text xml:space="preserve" text-anchor="middle" x="4133.02" y="-55.53" font-family="Times,serif" font-size="14.00">File: ./hxn&#45;profile&#45;collection/startup/10&#45;optics.py</text>
<text xml:space="preserve" text-anchor="middle" x="4133.02" y="-39.03" font-family="Times,serif" font-size="14.00">Methods: 0</text>
<text xml:space="preserve" text-anchor="middle" x="4133.02" y="-22.53" font-family="Times,serif" font-size="14.00">Attributes: 7</text>
</g>
<!-- MotorBundle&#45;&gt;HxnVMS -->
<g id="edge9" class="edge">
<title>MotorBundle&#45;&gt;HxnVMS</title>
<path fill="none" stroke="black" d="M3001.34,-227.23C3138.7,-212.34 3555.56,-165.1 3898.02,-104.65 3922.47,-100.34 3948.24,-95.26 3973.39,-90"/>
<polygon fill="black" stroke="black" points="3973.97,-93.46 3983.03,-87.97 3972.53,-86.61 3973.97,-93.46"/>
</g>
<!-- HxnXYPositioner -->
<g id="node11" class="node">
<title>HxnXYPositioner</title>
<ellipse fill="none" stroke="black" cx="4604.02" cy="-52.33" rx="199.58" ry="52.33"/>
<text xml:space="preserve" text-anchor="middle" x="4604.02" y="-72.03" font-family="Times,serif" font-size="14.00">HxnXYPositioner</text>
<text xml:space="preserve" text-anchor="middle" x="4604.02" y="-55.53" font-family="Times,serif" font-size="14.00">File: ./hxn&#45;profile&#45;collection/startup/10&#45;optics.py</text>
<text xml:space="preserve" text-anchor="middle" x="4604.02" y="-39.03" font-family="Times,serif" font-size="14.00">Methods: 0</text>
<text xml:space="preserve" text-anchor="middle" x="4604.02" y="-22.53" font-family="Times,serif" font-size="14.00">Attributes: 2</text>
</g>
<!-- MotorBundle&#45;&gt;HxnXYPositioner -->
<g id="edge10" class="edge">
<title>MotorBundle&#45;&gt;HxnXYPositioner</title>
<path fill="none" stroke="black" d="M3001.66,-230.07C3179.99,-221.66 3835.49,-186.64 4369.02,-104.65 4394.21,-100.78 4420.75,-95.84 4446.56,-90.56"/>
<polygon fill="black" stroke="black" points="4447,-94.04 4456.09,-88.58 4445.58,-87.18 4447,-94.04"/>
</g>
<!-- HxnXYPitchPositioner -->
<g id="node12" class="node">
<title>HxnXYPitchPositioner</title>
<ellipse fill="none" stroke="black" cx="5075.02" cy="-52.33" rx="199.58" ry="52.33"/>
<text xml:space="preserve" text-anchor="middle" x="5075.02" y="-72.03" font-family="Times,serif" font-size="14.00">HxnXYPitchPositioner</text>
<text xml:space="preserve" text-anchor="middle" x="5075.02" y="-55.53" font-family="Times,serif" font-size="14.00">File: ./hxn&#45;profile&#45;collection/startup/10&#45;optics.py</text>
<text xml:space="preserve" text-anchor="middle" x="5075.02" y="-39.03" font-family="Times,serif" font-size="14.00">Methods: 0</text>
<text xml:space="preserve" text-anchor="middle" x="5075.02" y="-22.53" font-family="Times,serif" font-size="14.00">Attributes: 3</text>
</g>
<!-- MotorBundle&#45;&gt;HxnXYPitchPositioner -->
<g id="edge11" class="edge">
<title>MotorBundle&#45;&gt;HxnXYPitchPositioner</title>
<path fill="none" stroke="black" d="M3001.56,-231.53C3213.96,-228.16 4112.21,-208.17 4840.02,-104.65 4865.53,-101.02 4892.38,-96.16 4918.46,-90.88"/>
<polygon fill="black" stroke="black" points="4919.01,-94.34 4928.1,-88.89 4917.6,-87.48 4919.01,-94.34"/>
</g>
<!-- NanoBundle -->
<g id="node13" class="node">
<title>NanoBundle</title>
<ellipse fill="none" stroke="black" cx="5549.02" cy="-52.33" rx="202.23" ry="52.33"/>
<text xml:space="preserve" text-anchor="middle" x="5549.02" y="-72.03" font-family="Times,serif" font-size="14.00">NanoBundle</text>
<text xml:space="preserve" text-anchor="middle" x="5549.02" y="-55.53" font-family="Times,serif" font-size="14.00">File: ./csx&#45;profile&#45;collection/startup/02&#45;nanops.py</text>
<text xml:space="preserve" text-anchor="middle" x="5549.02" y="-39.03" font-family="Times,serif" font-size="14.00">Methods: 0</text>
<text xml:space="preserve" text-anchor="middle" x="5549.02" y="-22.53" font-family="Times,serif" font-size="14.00">Attributes: 6</text>
</g>
<!-- MotorBundle&#45;&gt;NanoBundle -->
<g id="edge12" class="edge">
<title>MotorBundle&#45;&gt;NanoBundle</title>
<path fill="none" stroke="black" d="M3001.38,-232.36C3243.49,-232.91 4386.87,-228.51 5311.02,-104.65 5337.16,-101.15 5364.7,-96.3 5391.41,-90.98"/>
<polygon fill="black" stroke="black" points="5391.8,-94.47 5400.91,-89.05 5390.41,-87.61 5391.8,-94.47"/>
</g>
</g>
</svg>
