<?xml version="1.0" encoding="UTF-8" standalone="no"?>
<!DOCTYPE svg PUBLIC "-//W3C//DTD SVG 1.1//EN"
 "http://www.w3.org/Graphics/SVG/1.1/DTD/svg11.dtd">
<!-- Generated by graphviz version 14.0.0 (20250921.2048)
 -->
<!-- Pages: 1 -->
<svg width="1505pt" height="262pt"
 viewBox="0.00 0.00 1505.00 262.00" xmlns="http://www.w3.org/2000/svg" xmlns:xlink="http://www.w3.org/1999/xlink">
<g id="graph0" class="graph" transform="scale(1 1) rotate(0) translate(4 257.65)">
<polygon fill="white" stroke="none" points="-4,4 -4,-257.65 1500.54,-257.65 1500.54,4 -4,4"/>
<!-- MultiTrigger -->
<g id="node1" class="node">
<title>MultiTrigger</title>
<polygon fill="lightblue" stroke="lightblue" points="797.88,-253.65 705.38,-253.65 705.38,-212.65 797.88,-212.65 797.88,-253.65"/>
<text xml:space="preserve" text-anchor="middle" x="751.63" y="-236.35" font-family="Times,serif" font-size="14.00">MultiTrigger</text>
<text xml:space="preserve" text-anchor="middle" x="751.63" y="-219.85" font-family="Times,serif" font-size="14.00">(Parent Class)</text>
</g>
<!-- PerkinElmerMulti1 -->
<g id="node2" class="node">
<title>PerkinElmerMulti1</title>
<ellipse fill="none" stroke="black" cx="226.63" cy="-52.33" rx="226.63" ry="52.33"/>
<text xml:space="preserve" text-anchor="middle" x="226.63" y="-72.03" font-family="Times,serif" font-size="14.00">PerkinElmerMulti1</text>
<text xml:space="preserve" text-anchor="middle" x="226.63" y="-55.53" font-family="Times,serif" font-size="14.00">File: ./pdf&#45;profile&#45;collection/startup/80&#45;areadetector2.py</text>
<text xml:space="preserve" text-anchor="middle" x="226.63" y="-39.03" font-family="Times,serif" font-size="14.00">Methods: 0</text>
<text xml:space="preserve" text-anchor="middle" x="226.63" y="-22.53" font-family="Times,serif" font-size="14.00">Attributes: 1</text>
</g>
<!-- MultiTrigger&#45;&gt;PerkinElmerMulti1 -->
<g id="edge1" class="edge">
<title>MultiTrigger&#45;&gt;PerkinElmerMulti1</title>
<path fill="none" stroke="black" d="M705.04,-216.28C629.13,-190.43 475.92,-138.24 363.25,-99.86"/>
<polygon fill="black" stroke="black" points="364.51,-96.59 353.91,-96.68 362.25,-103.22 364.51,-96.59"/>
</g>
<!-- PerkinElmerMulti2 -->
<g id="node3" class="node">
<title>PerkinElmerMulti2</title>
<ellipse fill="none" stroke="black" cx="751.63" cy="-52.33" rx="226.63" ry="52.33"/>
<text xml:space="preserve" text-anchor="middle" x="751.63" y="-72.03" font-family="Times,serif" font-size="14.00">PerkinElmerMulti2</text>
<text xml:space="preserve" text-anchor="middle" x="751.63" y="-55.53" font-family="Times,serif" font-size="14.00">File: ./pdf&#45;profile&#45;collection/startup/80&#45;areadetector2.py</text>
<text xml:space="preserve" text-anchor="middle" x="751.63" y="-39.03" font-family="Times,serif" font-size="14.00">Methods: 0</text>
<text xml:space="preserve" text-anchor="middle" x="751.63" y="-22.53" font-family="Times,serif" font-size="14.00">Attributes: 1</text>
</g>
<!-- MultiTrigger&#45;&gt;PerkinElmerMulti2 -->
<g id="edge2" class="edge">
<title>MultiTrigger&#45;&gt;PerkinElmerMulti2</title>
<path fill="none" stroke="black" d="M751.63,-212.33C751.63,-189.21 751.63,-149.84 751.63,-116.06"/>
<polygon fill="black" stroke="black" points="755.13,-116.37 751.63,-106.37 748.13,-116.37 755.13,-116.37"/>
</g>
<!-- PerkinElmerMulti -->
<g id="node4" class="node">
<title>PerkinElmerMulti</title>
<ellipse fill="none" stroke="black" cx="1273.63" cy="-52.33" rx="222.92" ry="52.33"/>
<text xml:space="preserve" text-anchor="middle" x="1273.63" y="-72.03" font-family="Times,serif" font-size="14.00">PerkinElmerMulti</text>
<text xml:space="preserve" text-anchor="middle" x="1273.63" y="-55.53" font-family="Times,serif" font-size="14.00">File: ./xpd&#45;profile&#45;collection/startup/80&#45;areadetector.py</text>
<text xml:space="preserve" text-anchor="middle" x="1273.63" y="-39.03" font-family="Times,serif" font-size="14.00">Methods: 0</text>
<text xml:space="preserve" text-anchor="middle" x="1273.63" y="-22.53" font-family="Times,serif" font-size="14.00">Attributes: 1</text>
</g>
<!-- MultiTrigger&#45;&gt;PerkinElmerMulti -->
<g id="edge3" class="edge">
<title>MultiTrigger&#45;&gt;PerkinElmerMulti</title>
<path fill="none" stroke="black" d="M797.95,-216.28C873.49,-190.4 1026,-138.16 1138.05,-99.77"/>
<polygon fill="black" stroke="black" points="1139.01,-103.14 1147.33,-96.59 1136.74,-96.52 1139.01,-103.14"/>
</g>
</g>
</svg>
