<?xml version="1.0" encoding="UTF-8" standalone="no"?>
<!DOCTYPE svg PUBLIC "-//W3C//DTD SVG 1.1//EN"
 "http://www.w3.org/Graphics/SVG/1.1/DTD/svg11.dtd">
<!-- Generated by graphviz version 14.0.0 (20250921.2048)
 -->
<!-- Pages: 1 -->
<svg width="5791pt" height="262pt"
 viewBox="0.00 0.00 5791.00 262.00" xmlns="http://www.w3.org/2000/svg" xmlns:xlink="http://www.w3.org/1999/xlink">
<g id="graph0" class="graph" transform="scale(1 1) rotate(0) translate(4 257.65)">
<polygon fill="white" stroke="none" points="-4,4 -4,-257.65 5786.83,-257.65 5786.83,4 -4,4"/>
<!-- NamedDevice -->
<g id="node1" class="node">
<title>NamedDevice</title>
<polygon fill="lightblue" stroke="lightblue" points="2949.03,-253.65 2855.03,-253.65 2855.03,-212.65 2949.03,-212.65 2949.03,-253.65"/>
<text xml:space="preserve" text-anchor="middle" x="2902.03" y="-236.35" font-family="Times,serif" font-size="14.00">NamedDevice</text>
<text xml:space="preserve" text-anchor="middle" x="2902.03" y="-219.85" font-family="Times,serif" font-size="14.00">(Parent Class)</text>
</g>
<!-- HxnMLLSample -->
<g id="node2" class="node">
<title>HxnMLLSample</title>
<ellipse fill="none" stroke="black" cx="190.03" cy="-52.33" rx="190.03" ry="52.33"/>
<text xml:space="preserve" text-anchor="middle" x="190.03" y="-72.03" font-family="Times,serif" font-size="14.00">HxnMLLSample</text>
<text xml:space="preserve" text-anchor="middle" x="190.03" y="-55.53" font-family="Times,serif" font-size="14.00">File: ./hxn&#45;profile&#45;collection/startup/13&#45;mll.py</text>
<text xml:space="preserve" text-anchor="middle" x="190.03" y="-39.03" font-family="Times,serif" font-size="14.00">Methods: 0</text>
<text xml:space="preserve" text-anchor="middle" x="190.03" y="-22.53" font-family="Times,serif" font-size="14.00">Attributes: 10</text>
</g>
<!-- NamedDevice&#45;&gt;HxnMLLSample -->
<g id="edge1" class="edge">
<title>NamedDevice&#45;&gt;HxnMLLSample</title>
<path fill="none" stroke="black" d="M2854.65,-230.84C2554.4,-222.33 913.16,-173.33 416.03,-104.65 391.04,-101.2 364.72,-96.36 339.24,-91.01"/>
<polygon fill="black" stroke="black" points="339.98,-87.59 329.47,-88.93 338.51,-94.44 339.98,-87.59"/>
</g>
<!-- HxnMLLDiffractionSample -->
<g id="node3" class="node">
<title>HxnMLLDiffractionSample</title>
<ellipse fill="none" stroke="black" cx="642.03" cy="-52.33" rx="190.03" ry="52.33"/>
<text xml:space="preserve" text-anchor="middle" x="642.03" y="-72.03" font-family="Times,serif" font-size="14.00">HxnMLLDiffractionSample</text>
<text xml:space="preserve" text-anchor="middle" x="642.03" y="-55.53" font-family="Times,serif" font-size="14.00">File: ./hxn&#45;profile&#45;collection/startup/13&#45;mll.py</text>
<text xml:space="preserve" text-anchor="middle" x="642.03" y="-39.03" font-family="Times,serif" font-size="14.00">Methods: 0</text>
<text xml:space="preserve" text-anchor="middle" x="642.03" y="-22.53" font-family="Times,serif" font-size="14.00">Attributes: 10</text>
</g>
<!-- NamedDevice&#45;&gt;HxnMLLDiffractionSample -->
<g id="edge2" class="edge">
<title>NamedDevice&#45;&gt;HxnMLLDiffractionSample</title>
<path fill="none" stroke="black" d="M2854.82,-231.99C2631.17,-230.63 1656.44,-218.14 868.03,-104.65 843.23,-101.08 817.12,-96.21 791.8,-90.88"/>
<polygon fill="black" stroke="black" points="792.61,-87.48 782.1,-88.81 791.15,-94.32 792.61,-87.48"/>
</g>
<!-- HxnVerticalMLL -->
<g id="node4" class="node">
<title>HxnVerticalMLL</title>
<ellipse fill="none" stroke="black" cx="1094.03" cy="-52.33" rx="190.03" ry="52.33"/>
<text xml:space="preserve" text-anchor="middle" x="1094.03" y="-72.03" font-family="Times,serif" font-size="14.00">HxnVerticalMLL</text>
<text xml:space="preserve" text-anchor="middle" x="1094.03" y="-55.53" font-family="Times,serif" font-size="14.00">File: ./hxn&#45;profile&#45;collection/startup/13&#45;mll.py</text>
<text xml:space="preserve" text-anchor="middle" x="1094.03" y="-39.03" font-family="Times,serif" font-size="14.00">Methods: 0</text>
<text xml:space="preserve" text-anchor="middle" x="1094.03" y="-22.53" font-family="Times,serif" font-size="14.00">Attributes: 5</text>
</g>
<!-- NamedDevice&#45;&gt;HxnVerticalMLL -->
<g id="edge3" class="edge">
<title>NamedDevice&#45;&gt;HxnVerticalMLL</title>
<path fill="none" stroke="black" d="M2854.84,-230.81C2662.78,-224.83 1921.64,-196.73 1320.03,-104.65 1295.44,-100.89 1269.53,-95.95 1244.39,-90.62"/>
<polygon fill="black" stroke="black" points="1245.28,-87.23 1234.77,-88.55 1243.81,-94.07 1245.28,-87.23"/>
</g>
<!-- HxnHorizontalMLL -->
<g id="node5" class="node">
<title>HxnHorizontalMLL</title>
<ellipse fill="none" stroke="black" cx="1546.03" cy="-52.33" rx="190.03" ry="52.33"/>
<text xml:space="preserve" text-anchor="middle" x="1546.03" y="-72.03" font-family="Times,serif" font-size="14.00">HxnHorizontalMLL</text>
<text xml:space="preserve" text-anchor="middle" x="1546.03" y="-55.53" font-family="Times,serif" font-size="14.00">File: ./hxn&#45;profile&#45;collection/startup/13&#45;mll.py</text>
<text xml:space="preserve" text-anchor="middle" x="1546.03" y="-39.03" font-family="Times,serif" font-size="14.00">Methods: 0</text>
<text xml:space="preserve" text-anchor="middle" x="1546.03" y="-22.53" font-family="Times,serif" font-size="14.00">Attributes: 4</text>
</g>
<!-- NamedDevice&#45;&gt;HxnHorizontalMLL -->
<g id="edge4" class="edge">
<title>NamedDevice&#45;&gt;HxnHorizontalMLL</title>
<path fill="none" stroke="black" d="M2854.68,-228.7C2698.95,-216.95 2188.83,-175.27 1772.03,-104.65 1747.93,-100.57 1722.54,-95.53 1697.83,-90.22"/>
<polygon fill="black" stroke="black" points="1698.9,-86.88 1688.39,-88.17 1697.42,-93.72 1698.9,-86.88"/>
</g>
<!-- HxnMLL_OSA -->
<g id="node6" class="node">
<title>HxnMLL_OSA</title>
<ellipse fill="none" stroke="black" cx="1998.03" cy="-52.33" rx="190.03" ry="52.33"/>
<text xml:space="preserve" text-anchor="middle" x="1998.03" y="-72.03" font-family="Times,serif" font-size="14.00">HxnMLL_OSA</text>
<text xml:space="preserve" text-anchor="middle" x="1998.03" y="-55.53" font-family="Times,serif" font-size="14.00">File: ./hxn&#45;profile&#45;collection/startup/13&#45;mll.py</text>
<text xml:space="preserve" text-anchor="middle" x="1998.03" y="-39.03" font-family="Times,serif" font-size="14.00">Methods: 0</text>
<text xml:space="preserve" text-anchor="middle" x="1998.03" y="-22.53" font-family="Times,serif" font-size="14.00">Attributes: 3</text>
</g>
<!-- NamedDevice&#45;&gt;HxnMLL_OSA -->
<g id="edge5" class="edge">
<title>NamedDevice&#45;&gt;HxnMLL_OSA</title>
<path fill="none" stroke="black" d="M2854.65,-223.87C2743.99,-204.4 2460.05,-153.63 2224.03,-104.65 2201.08,-99.89 2176.86,-94.63 2153.15,-89.36"/>
<polygon fill="black" stroke="black" points="2153.93,-85.95 2143.41,-87.18 2152.4,-92.78 2153.93,-85.95"/>
</g>
<!-- HxnMLLBeamStop -->
<g id="node7" class="node">
<title>HxnMLLBeamStop</title>
<ellipse fill="none" stroke="black" cx="2450.03" cy="-52.33" rx="190.03" ry="52.33"/>
<text xml:space="preserve" text-anchor="middle" x="2450.03" y="-72.03" font-family="Times,serif" font-size="14.00">HxnMLLBeamStop</text>
<text xml:space="preserve" text-anchor="middle" x="2450.03" y="-55.53" font-family="Times,serif" font-size="14.00">File: ./hxn&#45;profile&#45;collection/startup/13&#45;mll.py</text>
<text xml:space="preserve" text-anchor="middle" x="2450.03" y="-39.03" font-family="Times,serif" font-size="14.00">Methods: 0</text>
<text xml:space="preserve" text-anchor="middle" x="2450.03" y="-22.53" font-family="Times,serif" font-size="14.00">Attributes: 2</text>
</g>
<!-- NamedDevice&#45;&gt;HxnMLLBeamStop -->
<g id="edge6" class="edge">
<title>NamedDevice&#45;&gt;HxnMLLBeamStop</title>
<path fill="none" stroke="black" d="M2854.94,-213.52C2787.67,-186.9 2661.84,-137.12 2568.24,-100.09"/>
<polygon fill="black" stroke="black" points="2569.56,-96.85 2558.97,-96.43 2566.98,-103.36 2569.56,-96.85"/>
</g>
<!-- PseudoAngleCorrection -->
<g id="node8" class="node">
<title>PseudoAngleCorrection</title>
<ellipse fill="none" stroke="black" cx="2902.03" cy="-52.33" rx="190.03" ry="52.33"/>
<text xml:space="preserve" text-anchor="middle" x="2902.03" y="-72.03" font-family="Times,serif" font-size="14.00">PseudoAngleCorrection</text>
<text xml:space="preserve" text-anchor="middle" x="2902.03" y="-55.53" font-family="Times,serif" font-size="14.00">File: ./hxn&#45;profile&#45;collection/startup/13&#45;mll.py</text>
<text xml:space="preserve" text-anchor="middle" x="2902.03" y="-39.03" font-family="Times,serif" font-size="14.00">Methods: 5</text>
<text xml:space="preserve" text-anchor="middle" x="2902.03" y="-22.53" font-family="Times,serif" font-size="14.00">Attributes: 5</text>
</g>
<!-- NamedDevice&#45;&gt;PseudoAngleCorrection -->
<g id="edge7" class="edge">
<title>NamedDevice&#45;&gt;PseudoAngleCorrection</title>
<path fill="none" stroke="black" d="M2902.03,-212.33C2902.03,-189.21 2902.03,-149.84 2902.03,-116.06"/>
<polygon fill="black" stroke="black" points="2905.54,-116.37 2902.03,-106.37 2898.54,-116.37 2905.54,-116.37"/>
</g>
<!-- PseudoEnergyCal -->
<g id="node9" class="node">
<title>PseudoEnergyCal</title>
<ellipse fill="none" stroke="black" cx="3364.03" cy="-52.33" rx="199.58" ry="52.33"/>
<text xml:space="preserve" text-anchor="middle" x="3364.03" y="-72.03" font-family="Times,serif" font-size="14.00">PseudoEnergyCal</text>
<text xml:space="preserve" text-anchor="middle" x="3364.03" y="-55.53" font-family="Times,serif" font-size="14.00">File: ./hxn&#45;profile&#45;collection/startup/10&#45;optics.py</text>
<text xml:space="preserve" text-anchor="middle" x="3364.03" y="-39.03" font-family="Times,serif" font-size="14.00">Methods: 4</text>
<text xml:space="preserve" text-anchor="middle" x="3364.03" y="-22.53" font-family="Times,serif" font-size="14.00">Attributes: 2</text>
</g>
<!-- NamedDevice&#45;&gt;PseudoEnergyCal -->
<g id="edge8" class="edge">
<title>NamedDevice&#45;&gt;PseudoEnergyCal</title>
<path fill="none" stroke="black" d="M2949.31,-213.85C3017.69,-187.39 3146.53,-137.52 3242.54,-100.35"/>
<polygon fill="black" stroke="black" points="3243.72,-103.65 3251.78,-96.78 3241.19,-97.12 3243.72,-103.65"/>
</g>
<!-- HxnZPSample -->
<g id="node10" class="node">
<title>HxnZPSample</title>
<ellipse fill="none" stroke="black" cx="3821.03" cy="-52.33" rx="185.79" ry="52.33"/>
<text xml:space="preserve" text-anchor="middle" x="3821.03" y="-72.03" font-family="Times,serif" font-size="14.00">HxnZPSample</text>
<text xml:space="preserve" text-anchor="middle" x="3821.03" y="-55.53" font-family="Times,serif" font-size="14.00">File: ./hxn&#45;profile&#45;collection/startup/15&#45;zp.py</text>
<text xml:space="preserve" text-anchor="middle" x="3821.03" y="-39.03" font-family="Times,serif" font-size="14.00">Methods: 0</text>
<text xml:space="preserve" text-anchor="middle" x="3821.03" y="-22.53" font-family="Times,serif" font-size="14.00">Attributes: 15</text>
</g>
<!-- NamedDevice&#45;&gt;HxnZPSample -->
<g id="edge9" class="edge">
<title>NamedDevice&#45;&gt;HxnZPSample</title>
<path fill="none" stroke="black" d="M2949.16,-224.34C3061.93,-205.47 3356.08,-155.23 3600.03,-104.65 3622.59,-99.97 3646.38,-94.76 3669.65,-89.49"/>
<polygon fill="black" stroke="black" points="3670.22,-92.95 3679.19,-87.32 3668.66,-86.12 3670.22,-92.95"/>
</g>
<!-- HxnZP_OSA -->
<g id="node11" class="node">
<title>HxnZP_OSA</title>
<ellipse fill="none" stroke="black" cx="4265.03" cy="-52.33" rx="185.79" ry="52.33"/>
<text xml:space="preserve" text-anchor="middle" x="4265.03" y="-72.03" font-family="Times,serif" font-size="14.00">HxnZP_OSA</text>
<text xml:space="preserve" text-anchor="middle" x="4265.03" y="-55.53" font-family="Times,serif" font-size="14.00">File: ./hxn&#45;profile&#45;collection/startup/15&#45;zp.py</text>
<text xml:space="preserve" text-anchor="middle" x="4265.03" y="-39.03" font-family="Times,serif" font-size="14.00">Methods: 0</text>
<text xml:space="preserve" text-anchor="middle" x="4265.03" y="-22.53" font-family="Times,serif" font-size="14.00">Attributes: 3</text>
</g>
<!-- NamedDevice&#45;&gt;HxnZP_OSA -->
<g id="edge10" class="edge">
<title>NamedDevice&#45;&gt;HxnZP_OSA</title>
<path fill="none" stroke="black" d="M2949.32,-228.84C3105.95,-217.47 3621.84,-176.62 4043.03,-104.65 4066.79,-100.59 4091.81,-95.56 4116.15,-90.24"/>
<polygon fill="black" stroke="black" points="4116.79,-93.69 4125.8,-88.11 4115.28,-86.85 4116.79,-93.69"/>
</g>
<!-- HxnZPBeamStop -->
<g id="node12" class="node">
<title>HxnZPBeamStop</title>
<ellipse fill="none" stroke="black" cx="4709.03" cy="-52.33" rx="185.79" ry="52.33"/>
<text xml:space="preserve" text-anchor="middle" x="4709.03" y="-72.03" font-family="Times,serif" font-size="14.00">HxnZPBeamStop</text>
<text xml:space="preserve" text-anchor="middle" x="4709.03" y="-55.53" font-family="Times,serif" font-size="14.00">File: ./hxn&#45;profile&#45;collection/startup/15&#45;zp.py</text>
<text xml:space="preserve" text-anchor="middle" x="4709.03" y="-39.03" font-family="Times,serif" font-size="14.00">Methods: 0</text>
<text xml:space="preserve" text-anchor="middle" x="4709.03" y="-22.53" font-family="Times,serif" font-size="14.00">Attributes: 3</text>
</g>
<!-- NamedDevice&#45;&gt;HxnZPBeamStop -->
<g id="edge11" class="edge">
<title>NamedDevice&#45;&gt;HxnZPBeamStop</title>
<path fill="none" stroke="black" d="M2949.33,-230.88C3141.79,-225.19 3884.47,-198.02 4487.03,-104.65 4511.3,-100.89 4536.84,-95.94 4561.63,-90.59"/>
<polygon fill="black" stroke="black" points="4562.07,-94.08 4571.09,-88.52 4560.58,-87.24 4562.07,-94.08"/>
</g>
<!-- HxnZonePlate -->
<g id="node13" class="node">
<title>HxnZonePlate</title>
<ellipse fill="none" stroke="black" cx="5153.03" cy="-52.33" rx="185.79" ry="52.33"/>
<text xml:space="preserve" text-anchor="middle" x="5153.03" y="-72.03" font-family="Times,serif" font-size="14.00">HxnZonePlate</text>
<text xml:space="preserve" text-anchor="middle" x="5153.03" y="-55.53" font-family="Times,serif" font-size="14.00">File: ./hxn&#45;profile&#45;collection/startup/15&#45;zp.py</text>
<text xml:space="preserve" text-anchor="middle" x="5153.03" y="-39.03" font-family="Times,serif" font-size="14.00">Methods: 0</text>
<text xml:space="preserve" text-anchor="middle" x="5153.03" y="-22.53" font-family="Times,serif" font-size="14.00">Attributes: 4</text>
</g>
<!-- NamedDevice&#45;&gt;HxnZonePlate -->
<g id="edge12" class="edge">
<title>NamedDevice&#45;&gt;HxnZonePlate</title>
<path fill="none" stroke="black" d="M2949.52,-232.04C3173.37,-230.93 4145.23,-219.38 4931.03,-104.65 4955.5,-101.08 4981.25,-96.19 5006.2,-90.85"/>
<polygon fill="black" stroke="black" points="5006.72,-94.32 5015.74,-88.77 5005.23,-87.48 5006.72,-94.32"/>
</g>
<!-- FineSampleLabX -->
<g id="node14" class="node">
<title>FineSampleLabX</title>
<ellipse fill="none" stroke="black" cx="5597.03" cy="-52.33" rx="185.79" ry="52.33"/>
<text xml:space="preserve" text-anchor="middle" x="5597.03" y="-72.03" font-family="Times,serif" font-size="14.00">FineSampleLabX</text>
<text xml:space="preserve" text-anchor="middle" x="5597.03" y="-55.53" font-family="Times,serif" font-size="14.00">File: ./hxn&#45;profile&#45;collection/startup/15&#45;zp.py</text>
<text xml:space="preserve" text-anchor="middle" x="5597.03" y="-39.03" font-family="Times,serif" font-size="14.00">Methods: 5</text>
<text xml:space="preserve" text-anchor="middle" x="5597.03" y="-22.53" font-family="Times,serif" font-size="14.00">Attributes: 11</text>
</g>
<!-- NamedDevice&#45;&gt;FineSampleLabX -->
<g id="edge13" class="edge">
<title>NamedDevice&#45;&gt;FineSampleLabX</title>
<path fill="none" stroke="black" d="M2949.17,-230.85C3247.87,-222.46 4880.64,-174 5375.03,-104.65 5399.69,-101.19 5425.64,-96.33 5450.76,-90.97"/>
<polygon fill="black" stroke="black" points="5451.34,-94.43 5460.37,-88.88 5449.85,-87.58 5451.34,-94.43"/>
</g>
</g>
</svg>
