<?xml version="1.0" encoding="UTF-8" standalone="no"?>
<!DOCTYPE svg PUBLIC "-//W3C//DTD SVG 1.1//EN"
 "http://www.w3.org/Graphics/SVG/1.1/DTD/svg11.dtd">
<!-- Generated by graphviz version 14.0.0 (20250921.2048)
 -->
<!-- Pages: 1 -->
<svg width="1032pt" height="262pt"
 viewBox="0.00 0.00 1032.00 262.00" xmlns="http://www.w3.org/2000/svg" xmlns:xlink="http://www.w3.org/1999/xlink">
<g id="graph0" class="graph" transform="scale(1 1) rotate(0) translate(4 257.65)">
<polygon fill="white" stroke="none" points="-4,4 -4,-257.65 1027.53,-257.65 1027.53,4 -4,4"/>
<!-- ObjectWithSettings -->
<g id="node1" class="node">
<title>ObjectWithSettings</title>
<polygon fill="lightblue" stroke="lightblue" points="539.6,-253.65 417.1,-253.65 417.1,-212.65 539.6,-212.65 539.6,-253.65"/>
<text xml:space="preserve" text-anchor="middle" x="478.35" y="-236.35" font-family="Times,serif" font-size="14.00">ObjectWithSettings</text>
<text xml:space="preserve" text-anchor="middle" x="478.35" y="-219.85" font-family="Times,serif" font-size="14.00">(Parent Class)</text>
</g>
<!-- SamplePositionerBPM -->
<g id="node2" class="node">
<title>SamplePositionerBPM</title>
<ellipse fill="none" stroke="black" cx="204.35" cy="-52.33" rx="204.35" ry="52.33"/>
<text xml:space="preserve" text-anchor="middle" x="204.35" y="-72.03" font-family="Times,serif" font-size="14.00">SamplePositionerBPM</text>
<text xml:space="preserve" text-anchor="middle" x="204.35" y="-55.53" font-family="Times,serif" font-size="14.00">File: ./iss&#45;profile&#45;collection/startup/31&#45;cameras.py</text>
<text xml:space="preserve" text-anchor="middle" x="204.35" y="-39.03" font-family="Times,serif" font-size="14.00">Methods: 13</text>
<text xml:space="preserve" text-anchor="middle" x="204.35" y="-22.53" font-family="Times,serif" font-size="14.00">Attributes: 9</text>
</g>
<!-- ObjectWithSettings&#45;&gt;SamplePositionerBPM -->
<g id="edge1" class="edge">
<title>ObjectWithSettings&#45;&gt;SamplePositionerBPM</title>
<path fill="none" stroke="black" d="M447.72,-212.16C409.32,-187.1 341.96,-143.14 287.84,-107.81"/>
<polygon fill="black" stroke="black" points="289.79,-104.91 279.51,-102.37 285.97,-110.77 289.79,-104.91"/>
</g>
<!-- VonHamosGeometry -->
<g id="node3" class="node">
<title>VonHamosGeometry</title>
<ellipse fill="none" stroke="black" cx="752.35" cy="-52.33" rx="271.18" ry="52.33"/>
<text xml:space="preserve" text-anchor="middle" x="752.35" y="-72.03" font-family="Times,serif" font-size="14.00">VonHamosGeometry</text>
<text xml:space="preserve" text-anchor="middle" x="752.35" y="-55.53" font-family="Times,serif" font-size="14.00">File: ./iss&#45;profile&#45;collection/startup/85&#45;von_hamos_spectrometer.py</text>
<text xml:space="preserve" text-anchor="middle" x="752.35" y="-39.03" font-family="Times,serif" font-size="14.00">Methods: 19</text>
<text xml:space="preserve" text-anchor="middle" x="752.35" y="-22.53" font-family="Times,serif" font-size="14.00">Attributes: 15</text>
</g>
<!-- ObjectWithSettings&#45;&gt;VonHamosGeometry -->
<g id="edge2" class="edge">
<title>ObjectWithSettings&#45;&gt;VonHamosGeometry</title>
<path fill="none" stroke="black" d="M508.99,-212.16C546.93,-187.4 613.13,-144.19 666.92,-109.09"/>
<polygon fill="black" stroke="black" points="668.73,-112.08 675.19,-103.68 664.91,-106.22 668.73,-112.08"/>
</g>
</g>
</svg>
