<?xml version="1.0" encoding="UTF-8" standalone="no"?>
<!DOCTYPE svg PUBLIC "-//W3C//DTD SVG 1.1//EN"
 "http://www.w3.org/Graphics/SVG/1.1/DTD/svg11.dtd">
<!-- Generated by graphviz version 14.0.0 (20250921.2048)
 -->
<!-- Pages: 1 -->
<svg width="14738pt" height="262pt"
 viewBox="0.00 0.00 14738.00 262.00" xmlns="http://www.w3.org/2000/svg" xmlns:xlink="http://www.w3.org/1999/xlink">
<g id="graph0" class="graph" transform="scale(1 1) rotate(0) translate(4 257.65)">
<polygon fill="white" stroke="none" points="-4,4 -4,-257.65 14734.24,-257.65 14734.24,4 -4,4"/>
<!-- object -->
<g id="node1" class="node">
<title>object</title>
<polygon fill="lightblue" stroke="lightblue" points="7460.26,-253.65 7367.76,-253.65 7367.76,-212.65 7460.26,-212.65 7460.26,-253.65"/>
<text xml:space="preserve" text-anchor="middle" x="7414.01" y="-236.35" font-family="Times,serif" font-size="14.00">object</text>
<text xml:space="preserve" text-anchor="middle" x="7414.01" y="-219.85" font-family="Times,serif" font-size="14.00">(Parent Class)</text>
</g>
<!-- Tee -->
<g id="node2" class="node">
<title>Tee</title>
<ellipse fill="none" stroke="black" cx="207.01" cy="-52.33" rx="207.01" ry="52.33"/>
<text xml:space="preserve" text-anchor="middle" x="207.01" y="-72.03" font-family="Times,serif" font-size="14.00">Tee</text>
<text xml:space="preserve" text-anchor="middle" x="207.01" y="-55.53" font-family="Times,serif" font-size="14.00">File: ./fxi&#45;profile&#45;collection/startup/50&#45;save_log.py</text>
<text xml:space="preserve" text-anchor="middle" x="207.01" y="-39.03" font-family="Times,serif" font-size="14.00">Methods: 3</text>
<text xml:space="preserve" text-anchor="middle" x="207.01" y="-22.53" font-family="Times,serif" font-size="14.00">Attributes: 1</text>
</g>
<!-- object&#45;&gt;Tee -->
<g id="edge1" class="edge">
<title>object&#45;&gt;Tee</title>
<path fill="none" stroke="black" d="M7367.6,-231.84C6798.81,-227.96 1179.91,-187.66 450.01,-104.65 422.68,-101.54 393.89,-96.8 366.05,-91.43"/>
<polygon fill="black" stroke="black" points="367,-88.04 356.51,-89.55 365.64,-94.91 367,-88.04"/>
</g>
<!-- TTL_control -->
<g id="node3" class="node">
<title>TTL_control</title>
<ellipse fill="none" stroke="black" cx="744.01" cy="-52.33" rx="257.92" ry="52.33"/>
<text xml:space="preserve" text-anchor="middle" x="744.01" y="-72.03" font-family="Times,serif" font-size="14.00">TTL_control</text>
<text xml:space="preserve" text-anchor="middle" x="744.01" y="-55.53" font-family="Times,serif" font-size="14.00">File: ./cms&#45;profile&#45;collection/startup/41&#45;endstation&#45;serial&#45;dev.py</text>
<text xml:space="preserve" text-anchor="middle" x="744.01" y="-39.03" font-family="Times,serif" font-size="14.00">Methods: 6</text>
<text xml:space="preserve" text-anchor="middle" x="744.01" y="-22.53" font-family="Times,serif" font-size="14.00">Attributes: 8</text>
</g>
<!-- object&#45;&gt;TTL_control -->
<g id="edge2" class="edge">
<title>object&#45;&gt;TTL_control</title>
<path fill="none" stroke="black" d="M7367.37,-232.21C6860.6,-232.7 2368.35,-233.32 1038.01,-104.65 1005.46,-101.5 971.08,-96.79 937.77,-91.47"/>
<polygon fill="black" stroke="black" points="938.44,-88.03 928.01,-89.89 937.32,-94.94 938.44,-88.03"/>
</g>
<!-- Result -->
<g id="node4" class="node">
<title>Result</title>
<ellipse fill="none" stroke="black" cx="1283.01" cy="-52.33" rx="208.6" ry="52.33"/>
<text xml:space="preserve" text-anchor="middle" x="1283.01" y="-72.03" font-family="Times,serif" font-size="14.00">Result</text>
<text xml:space="preserve" text-anchor="middle" x="1283.01" y="-55.53" font-family="Times,serif" font-size="14.00">File: ./cms&#45;profile&#45;collection/startup/91&#45;fit_scan.py</text>
<text xml:space="preserve" text-anchor="middle" x="1283.01" y="-39.03" font-family="Times,serif" font-size="14.00">Methods: 0</text>
<text xml:space="preserve" text-anchor="middle" x="1283.01" y="-22.53" font-family="Times,serif" font-size="14.00">Attributes: 0</text>
</g>
<!-- object&#45;&gt;Result -->
<g id="edge3" class="edge">
<title>object&#45;&gt;Result</title>
<path fill="none" stroke="black" d="M7367.43,-231.67C6847.72,-226.21 2141.89,-174.99 1528.01,-104.65 1500.56,-101.51 1471.64,-96.76 1443.67,-91.4"/>
<polygon fill="black" stroke="black" points="1444.56,-88.01 1434.07,-89.53 1443.22,-94.88 1444.56,-88.01"/>
</g>
<!-- OpticalSpectometer -->
<g id="node5" class="node">
<title>OpticalSpectometer</title>
<ellipse fill="none" stroke="black" cx="1787.01" cy="-52.33" rx="223.45" ry="52.33"/>
<text xml:space="preserve" text-anchor="middle" x="1787.01" y="-72.03" font-family="Times,serif" font-size="14.00">OpticalSpectometer</text>
<text xml:space="preserve" text-anchor="middle" x="1787.01" y="-55.53" font-family="Times,serif" font-size="14.00">File: ./cms&#45;profile&#45;collection/startup/52&#45;oceanoptics.py</text>
<text xml:space="preserve" text-anchor="middle" x="1787.01" y="-39.03" font-family="Times,serif" font-size="14.00">Methods: 1</text>
<text xml:space="preserve" text-anchor="middle" x="1787.01" y="-22.53" font-family="Times,serif" font-size="14.00">Attributes: 5</text>
</g>
<!-- object&#45;&gt;OpticalSpectometer -->
<g id="edge4" class="edge">
<title>object&#45;&gt;OpticalSpectometer</title>
<path fill="none" stroke="black" d="M7367.47,-232.16C6906.87,-232.02 3158.51,-227.18 2046.01,-104.65 2017.22,-101.48 1986.87,-96.75 1957.47,-91.42"/>
<polygon fill="black" stroke="black" points="1958.22,-88 1947.75,-89.63 1956.95,-94.88 1958.22,-88"/>
</g>
<!-- BeamlineDetector -->
<g id="node6" class="node">
<title>BeamlineDetector</title>
<ellipse fill="none" stroke="black" cx="2282.01" cy="-52.33" rx="199.58" ry="52.33"/>
<text xml:space="preserve" text-anchor="middle" x="2282.01" y="-72.03" font-family="Times,serif" font-size="14.00">BeamlineDetector</text>
<text xml:space="preserve" text-anchor="middle" x="2282.01" y="-55.53" font-family="Times,serif" font-size="14.00">File: ./cms&#45;profile&#45;collection/startup/81&#45;beam.py</text>
<text xml:space="preserve" text-anchor="middle" x="2282.01" y="-39.03" font-family="Times,serif" font-size="14.00">Methods: 2</text>
<text xml:space="preserve" text-anchor="middle" x="2282.01" y="-22.53" font-family="Times,serif" font-size="14.00">Attributes: 3</text>
</g>
<!-- object&#45;&gt;BeamlineDetector -->
<g id="edge5" class="edge">
<title>object&#45;&gt;BeamlineDetector</title>
<path fill="none" stroke="black" d="M7367.52,-232.16C6929.87,-232.03 3527.52,-227.04 2517.01,-104.65 2490.77,-101.47 2463.15,-96.73 2436.42,-91.39"/>
<polygon fill="black" stroke="black" points="2437.42,-88.02 2426.92,-89.45 2436.02,-94.88 2437.42,-88.02"/>
</g>
<!-- BeamlineElement -->
<g id="node7" class="node">
<title>BeamlineElement</title>
<ellipse fill="none" stroke="black" cx="2753.01" cy="-52.33" rx="199.58" ry="52.33"/>
<text xml:space="preserve" text-anchor="middle" x="2753.01" y="-72.03" font-family="Times,serif" font-size="14.00">BeamlineElement</text>
<text xml:space="preserve" text-anchor="middle" x="2753.01" y="-55.53" font-family="Times,serif" font-size="14.00">File: ./cms&#45;profile&#45;collection/startup/81&#45;beam.py</text>
<text xml:space="preserve" text-anchor="middle" x="2753.01" y="-39.03" font-family="Times,serif" font-size="14.00">Methods: 4</text>
<text xml:space="preserve" text-anchor="middle" x="2753.01" y="-22.53" font-family="Times,serif" font-size="14.00">Attributes: 9</text>
</g>
<!-- object&#45;&gt;BeamlineElement -->
<g id="edge6" class="edge">
<title>object&#45;&gt;BeamlineElement</title>
<path fill="none" stroke="black" d="M7367.54,-232.01C6953.97,-230.56 3897.9,-216.13 2988.01,-104.65 2961.78,-101.44 2934.15,-96.68 2907.43,-91.33"/>
<polygon fill="black" stroke="black" points="2908.42,-87.96 2897.93,-89.39 2907.02,-94.82 2908.42,-87.96"/>
</g>
<!-- CMSBeam -->
<g id="node8" class="node">
<title>CMSBeam</title>
<ellipse fill="none" stroke="black" cx="3224.01" cy="-52.33" rx="199.58" ry="52.33"/>
<text xml:space="preserve" text-anchor="middle" x="3224.01" y="-72.03" font-family="Times,serif" font-size="14.00">CMSBeam</text>
<text xml:space="preserve" text-anchor="middle" x="3224.01" y="-55.53" font-family="Times,serif" font-size="14.00">File: ./cms&#45;profile&#45;collection/startup/81&#45;beam.py</text>
<text xml:space="preserve" text-anchor="middle" x="3224.01" y="-39.03" font-family="Times,serif" font-size="14.00">Methods: 27</text>
<text xml:space="preserve" text-anchor="middle" x="3224.01" y="-22.53" font-family="Times,serif" font-size="14.00">Attributes: 74</text>
</g>
<!-- object&#45;&gt;CMSBeam -->
<g id="edge7" class="edge">
<title>object&#45;&gt;CMSBeam</title>
<path fill="none" stroke="black" d="M7367.42,-231.82C6978.74,-228.86 4269.2,-204.85 3460.01,-104.65 3433.58,-101.38 3405.75,-96.57 3378.82,-91.19"/>
<polygon fill="black" stroke="black" points="3379.73,-87.81 3369.24,-89.24 3378.34,-94.67 3379.73,-87.81"/>
</g>
<!-- Beamline -->
<g id="node9" class="node">
<title>Beamline</title>
<ellipse fill="none" stroke="black" cx="3715.01" cy="-52.33" rx="219.2" ry="52.33"/>
<text xml:space="preserve" text-anchor="middle" x="3715.01" y="-72.03" font-family="Times,serif" font-size="14.00">Beamline</text>
<text xml:space="preserve" text-anchor="middle" x="3715.01" y="-55.53" font-family="Times,serif" font-size="14.00">File: ./smi&#45;profile&#45;collection/startup/smibase/beam.py</text>
<text xml:space="preserve" text-anchor="middle" x="3715.01" y="-39.03" font-family="Times,serif" font-size="14.00">Methods: 2</text>
<text xml:space="preserve" text-anchor="middle" x="3715.01" y="-22.53" font-family="Times,serif" font-size="14.00">Attributes: 2</text>
</g>
<!-- object&#45;&gt;Beamline -->
<g id="edge8" class="edge">
<title>object&#45;&gt;Beamline</title>
<path fill="none" stroke="black" d="M7367.35,-231.46C7007.69,-226 4671.32,-187.66 3970.01,-104.65 3941.77,-101.31 3912,-96.51 3883.16,-91.17"/>
<polygon fill="black" stroke="black" points="3884.12,-87.78 3873.65,-89.37 3882.82,-94.66 3884.12,-87.78"/>
</g>
<!-- AOpv -->
<g id="node10" class="node">
<title>AOpv</title>
<ellipse fill="none" stroke="black" cx="4257.01" cy="-52.33" rx="251.02" ry="52.33"/>
<text xml:space="preserve" text-anchor="middle" x="4257.01" y="-72.03" font-family="Times,serif" font-size="14.00">AOpv</text>
<text xml:space="preserve" text-anchor="middle" x="4257.01" y="-55.53" font-family="Times,serif" font-size="14.00">File: ./cms&#45;profile&#45;collection/startup/43&#45;endstation&#45;ioLogik.py</text>
<text xml:space="preserve" text-anchor="middle" x="4257.01" y="-39.03" font-family="Times,serif" font-size="14.00">Methods: 1</text>
<text xml:space="preserve" text-anchor="middle" x="4257.01" y="-22.53" font-family="Times,serif" font-size="14.00">Attributes: 5</text>
</g>
<!-- object&#45;&gt;AOpv -->
<g id="edge9" class="edge">
<title>object&#45;&gt;AOpv</title>
<path fill="none" stroke="black" d="M7367.38,-232.39C7095.29,-233.31 5685.36,-231.5 4544.01,-104.65 4512.84,-101.19 4479.96,-96.4 4448,-91.12"/>
<polygon fill="black" stroke="black" points="4448.68,-87.68 4438.24,-89.49 4447.52,-94.59 4448.68,-87.68"/>
</g>
<!-- AO2pv -->
<g id="node11" class="node">
<title>AO2pv</title>
<ellipse fill="none" stroke="black" cx="4831.01" cy="-52.33" rx="251.02" ry="52.33"/>
<text xml:space="preserve" text-anchor="middle" x="4831.01" y="-72.03" font-family="Times,serif" font-size="14.00">AO2pv</text>
<text xml:space="preserve" text-anchor="middle" x="4831.01" y="-55.53" font-family="Times,serif" font-size="14.00">File: ./cms&#45;profile&#45;collection/startup/43&#45;endstation&#45;ioLogik.py</text>
<text xml:space="preserve" text-anchor="middle" x="4831.01" y="-39.03" font-family="Times,serif" font-size="14.00">Methods: 1</text>
<text xml:space="preserve" text-anchor="middle" x="4831.01" y="-22.53" font-family="Times,serif" font-size="14.00">Attributes: 5</text>
</g>
<!-- object&#45;&gt;AO2pv -->
<g id="edge10" class="edge">
<title>object&#45;&gt;AO2pv</title>
<path fill="none" stroke="black" d="M7367.34,-231.66C7128.44,-228.73 6018.63,-209.8 5118.01,-104.65 5087.09,-101.04 5054.46,-96.2 5022.73,-90.94"/>
<polygon fill="black" stroke="black" points="5023.48,-87.52 5013.04,-89.31 5022.32,-94.42 5023.48,-87.52"/>
</g>
<!-- AIpv -->
<g id="node12" class="node">
<title>AIpv</title>
<ellipse fill="none" stroke="black" cx="5405.01" cy="-52.33" rx="251.02" ry="52.33"/>
<text xml:space="preserve" text-anchor="middle" x="5405.01" y="-72.03" font-family="Times,serif" font-size="14.00">AIpv</text>
<text xml:space="preserve" text-anchor="middle" x="5405.01" y="-55.53" font-family="Times,serif" font-size="14.00">File: ./cms&#45;profile&#45;collection/startup/43&#45;endstation&#45;ioLogik.py</text>
<text xml:space="preserve" text-anchor="middle" x="5405.01" y="-39.03" font-family="Times,serif" font-size="14.00">Methods: 1</text>
<text xml:space="preserve" text-anchor="middle" x="5405.01" y="-22.53" font-family="Times,serif" font-size="14.00">Attributes: 4</text>
</g>
<!-- object&#45;&gt;AIpv -->
<g id="edge11" class="edge">
<title>object&#45;&gt;AIpv</title>
<path fill="none" stroke="black" d="M7367.26,-230.46C7166.01,-222.81 6353.77,-188.1 5692.01,-104.65 5661.46,-100.8 5629.22,-95.88 5597.83,-90.62"/>
<polygon fill="black" stroke="black" points="5598.7,-87.22 5588.26,-89 5597.53,-94.12 5598.7,-87.22"/>
</g>
<!-- Relaypv -->
<g id="node13" class="node">
<title>Relaypv</title>
<ellipse fill="none" stroke="black" cx="5979.01" cy="-52.33" rx="251.02" ry="52.33"/>
<text xml:space="preserve" text-anchor="middle" x="5979.01" y="-72.03" font-family="Times,serif" font-size="14.00">Relaypv</text>
<text xml:space="preserve" text-anchor="middle" x="5979.01" y="-55.53" font-family="Times,serif" font-size="14.00">File: ./cms&#45;profile&#45;collection/startup/43&#45;endstation&#45;ioLogik.py</text>
<text xml:space="preserve" text-anchor="middle" x="5979.01" y="-39.03" font-family="Times,serif" font-size="14.00">Methods: 1</text>
<text xml:space="preserve" text-anchor="middle" x="5979.01" y="-22.53" font-family="Times,serif" font-size="14.00">Attributes: 3</text>
</g>
<!-- object&#45;&gt;Relaypv -->
<g id="edge12" class="edge">
<title>object&#45;&gt;Relaypv</title>
<path fill="none" stroke="black" d="M7367.39,-228.09C7211.2,-214.26 6692.2,-166.36 6266.01,-104.65 6236.45,-100.37 6205.27,-95.34 6174.79,-90.13"/>
<polygon fill="black" stroke="black" points="6175.53,-86.7 6165.08,-88.46 6174.34,-93.6 6175.53,-86.7"/>
</g>
<!-- DIpv -->
<g id="node14" class="node">
<title>DIpv</title>
<ellipse fill="none" stroke="black" cx="6553.01" cy="-52.33" rx="251.02" ry="52.33"/>
<text xml:space="preserve" text-anchor="middle" x="6553.01" y="-72.03" font-family="Times,serif" font-size="14.00">DIpv</text>
<text xml:space="preserve" text-anchor="middle" x="6553.01" y="-55.53" font-family="Times,serif" font-size="14.00">File: ./cms&#45;profile&#45;collection/startup/43&#45;endstation&#45;ioLogik.py</text>
<text xml:space="preserve" text-anchor="middle" x="6553.01" y="-39.03" font-family="Times,serif" font-size="14.00">Methods: 1</text>
<text xml:space="preserve" text-anchor="middle" x="6553.01" y="-22.53" font-family="Times,serif" font-size="14.00">Attributes: 2</text>
</g>
<!-- object&#45;&gt;DIpv -->
<g id="edge13" class="edge">
<title>object&#45;&gt;DIpv</title>
<path fill="none" stroke="black" d="M7367.41,-222.47C7251.04,-198.3 6942.53,-134.23 6740.4,-92.25"/>
<polygon fill="black" stroke="black" points="6741.34,-88.87 6730.84,-90.26 6739.92,-95.72 6741.34,-88.87"/>
</g>
<!-- RTDpv -->
<g id="node15" class="node">
<title>RTDpv</title>
<ellipse fill="none" stroke="black" cx="7127.01" cy="-52.33" rx="251.02" ry="52.33"/>
<text xml:space="preserve" text-anchor="middle" x="7127.01" y="-72.03" font-family="Times,serif" font-size="14.00">RTDpv</text>
<text xml:space="preserve" text-anchor="middle" x="7127.01" y="-55.53" font-family="Times,serif" font-size="14.00">File: ./cms&#45;profile&#45;collection/startup/43&#45;endstation&#45;ioLogik.py</text>
<text xml:space="preserve" text-anchor="middle" x="7127.01" y="-39.03" font-family="Times,serif" font-size="14.00">Methods: 1</text>
<text xml:space="preserve" text-anchor="middle" x="7127.01" y="-22.53" font-family="Times,serif" font-size="14.00">Attributes: 2</text>
</g>
<!-- object&#45;&gt;RTDpv -->
<g id="edge14" class="edge">
<title>object&#45;&gt;RTDpv</title>
<path fill="none" stroke="black" d="M7381.92,-212.16C7341.96,-187.26 7272.06,-143.71 7215.56,-108.5"/>
<polygon fill="black" stroke="black" points="7217.52,-105.6 7207.18,-103.28 7213.82,-111.54 7217.52,-105.6"/>
</g>
<!-- TCpv -->
<g id="node16" class="node">
<title>TCpv</title>
<ellipse fill="none" stroke="black" cx="7701.01" cy="-52.33" rx="251.02" ry="52.33"/>
<text xml:space="preserve" text-anchor="middle" x="7701.01" y="-72.03" font-family="Times,serif" font-size="14.00">TCpv</text>
<text xml:space="preserve" text-anchor="middle" x="7701.01" y="-55.53" font-family="Times,serif" font-size="14.00">File: ./cms&#45;profile&#45;collection/startup/43&#45;endstation&#45;ioLogik.py</text>
<text xml:space="preserve" text-anchor="middle" x="7701.01" y="-39.03" font-family="Times,serif" font-size="14.00">Methods: 1</text>
<text xml:space="preserve" text-anchor="middle" x="7701.01" y="-22.53" font-family="Times,serif" font-size="14.00">Attributes: 2</text>
</g>
<!-- object&#45;&gt;TCpv -->
<g id="edge15" class="edge">
<title>object&#45;&gt;TCpv</title>
<path fill="none" stroke="black" d="M7446.09,-212.16C7486.05,-187.26 7555.95,-143.71 7612.45,-108.5"/>
<polygon fill="black" stroke="black" points="7614.19,-111.54 7620.83,-103.28 7610.49,-105.6 7614.19,-111.54"/>
</g>
<!-- CoordinateSystem -->
<g id="node17" class="node">
<title>CoordinateSystem</title>
<ellipse fill="none" stroke="black" cx="8268.01" cy="-52.33" rx="243.6" ry="52.33"/>
<text xml:space="preserve" text-anchor="middle" x="8268.01" y="-72.03" font-family="Times,serif" font-size="14.00">CoordinateSystem</text>
<text xml:space="preserve" text-anchor="middle" x="8268.01" y="-55.53" font-family="Times,serif" font-size="14.00">File: ./opls&#45;profile&#45;collection/startup/old/990&#45;sample_test.py</text>
<text xml:space="preserve" text-anchor="middle" x="8268.01" y="-39.03" font-family="Times,serif" font-size="14.00">Methods: 23</text>
<text xml:space="preserve" text-anchor="middle" x="8268.01" y="-22.53" font-family="Times,serif" font-size="14.00">Attributes: 20</text>
</g>
<!-- object&#45;&gt;CoordinateSystem -->
<g id="edge16" class="edge">
<title>object&#45;&gt;CoordinateSystem</title>
<path fill="none" stroke="black" d="M7460.53,-222.41C7576.5,-198.13 7883.51,-133.84 8083.79,-91.9"/>
<polygon fill="black" stroke="black" points="8084.48,-95.33 8093.55,-89.86 8083.05,-88.48 8084.48,-95.33"/>
</g>
<!-- Axis -->
<g id="node18" class="node">
<title>Axis</title>
<ellipse fill="none" stroke="black" cx="8827.01" cy="-52.33" rx="243.6" ry="52.33"/>
<text xml:space="preserve" text-anchor="middle" x="8827.01" y="-72.03" font-family="Times,serif" font-size="14.00">Axis</text>
<text xml:space="preserve" text-anchor="middle" x="8827.01" y="-55.53" font-family="Times,serif" font-size="14.00">File: ./opls&#45;profile&#45;collection/startup/old/990&#45;sample_test.py</text>
<text xml:space="preserve" text-anchor="middle" x="8827.01" y="-39.03" font-family="Times,serif" font-size="14.00">Methods: 28</text>
<text xml:space="preserve" text-anchor="middle" x="8827.01" y="-22.53" font-family="Times,serif" font-size="14.00">Attributes: 33</text>
</g>
<!-- object&#45;&gt;Axis -->
<g id="edge17" class="edge">
<title>object&#45;&gt;Axis</title>
<path fill="none" stroke="black" d="M7460.6,-228.09C7615.57,-214.34 8127.63,-166.87 8548.01,-104.65 8576.73,-100.4 8607.03,-95.38 8636.65,-90.18"/>
<polygon fill="black" stroke="black" points="8637.23,-93.63 8646.47,-88.44 8636.01,-86.74 8637.23,-93.63"/>
</g>
<!-- Trough -->
<g id="node19" class="node">
<title>Trough</title>
<ellipse fill="none" stroke="black" cx="9362.01" cy="-52.33" rx="219.73" ry="52.33"/>
<text xml:space="preserve" text-anchor="middle" x="9362.01" y="-72.03" font-family="Times,serif" font-size="14.00">Trough</text>
<text xml:space="preserve" text-anchor="middle" x="9362.01" y="-55.53" font-family="Times,serif" font-size="14.00">File: ./opls&#45;profile&#45;collection/startup/85&#45;mtx_client.py</text>
<text xml:space="preserve" text-anchor="middle" x="9362.01" y="-39.03" font-family="Times,serif" font-size="14.00">Methods: 8</text>
<text xml:space="preserve" text-anchor="middle" x="9362.01" y="-22.53" font-family="Times,serif" font-size="14.00">Attributes: 12</text>
</g>
<!-- object&#45;&gt;Trough -->
<g id="edge18" class="edge">
<title>object&#45;&gt;Trough</title>
<path fill="none" stroke="black" d="M7460.68,-230.75C7659.86,-224.32 8458.04,-194.05 9107.01,-104.65 9134.35,-100.88 9163.18,-95.99 9191.23,-90.72"/>
<polygon fill="black" stroke="black" points="9191.69,-94.19 9200.86,-88.89 9190.38,-87.32 9191.69,-94.19"/>
</g>
<!-- Auto_Log_Save -->
<g id="node20" class="node">
<title>Auto_Log_Save</title>
<ellipse fill="none" stroke="black" cx="9861.01" cy="-52.33" rx="207.01" ry="52.33"/>
<text xml:space="preserve" text-anchor="middle" x="9861.01" y="-72.03" font-family="Times,serif" font-size="14.00">Auto_Log_Save</text>
<text xml:space="preserve" text-anchor="middle" x="9861.01" y="-55.53" font-family="Times,serif" font-size="14.00">File: ./fxi&#45;profile&#45;collection/startup/50&#45;save_log.py</text>
<text xml:space="preserve" text-anchor="middle" x="9861.01" y="-39.03" font-family="Times,serif" font-size="14.00">Methods: 2</text>
<text xml:space="preserve" text-anchor="middle" x="9861.01" y="-22.53" font-family="Times,serif" font-size="14.00">Attributes: 3</text>
</g>
<!-- object&#45;&gt;Auto_Log_Save -->
<g id="edge19" class="edge">
<title>object&#45;&gt;Auto_Log_Save</title>
<path fill="none" stroke="black" d="M7460.4,-232.05C7693.21,-231 8757.07,-219.81 9618.01,-104.65 9644.58,-101.1 9672.58,-96.24 9699.75,-90.93"/>
<polygon fill="black" stroke="black" points="9700.32,-94.38 9709.44,-89 9698.95,-87.52 9700.32,-94.38"/>
</g>
<!-- IndexTracker -->
<g id="node21" class="node">
<title>IndexTracker</title>
<ellipse fill="none" stroke="black" cx="10349.01" cy="-52.33" rx="208.6" ry="52.33"/>
<text xml:space="preserve" text-anchor="middle" x="10349.01" y="-72.03" font-family="Times,serif" font-size="14.00">IndexTracker</text>
<text xml:space="preserve" text-anchor="middle" x="10349.01" y="-55.53" font-family="Times,serif" font-size="14.00">File: ./fxi&#45;profile&#45;collection/startup/91&#45;functions.py</text>
<text xml:space="preserve" text-anchor="middle" x="10349.01" y="-39.03" font-family="Times,serif" font-size="14.00">Methods: 3</text>
<text xml:space="preserve" text-anchor="middle" x="10349.01" y="-22.53" font-family="Times,serif" font-size="14.00">Attributes: 6</text>
</g>
<!-- object&#45;&gt;IndexTracker -->
<g id="edge20" class="edge">
<title>object&#45;&gt;IndexTracker</title>
<path fill="none" stroke="black" d="M7460.64,-230.96C7772.82,-222.82 9562.84,-173.72 10104.01,-104.65 10131.12,-101.19 10159.7,-96.33 10187.39,-90.97"/>
<polygon fill="black" stroke="black" points="10187.75,-94.47 10196.88,-89.11 10186.39,-87.6 10187.75,-94.47"/>
</g>
<!-- Shutter -->
<g id="node22" class="node">
<title>Shutter</title>
<ellipse fill="none" stroke="black" cx="10847.01" cy="-52.33" rx="217.08" ry="52.33"/>
<text xml:space="preserve" text-anchor="middle" x="10847.01" y="-72.03" font-family="Times,serif" font-size="14.00">Shutter</text>
<text xml:space="preserve" text-anchor="middle" x="10847.01" y="-55.53" font-family="Times,serif" font-size="14.00">File: ./xpd&#45;profile&#45;collection/pescan/shuttercontrol.py</text>
<text xml:space="preserve" text-anchor="middle" x="10847.01" y="-39.03" font-family="Times,serif" font-size="14.00">Methods: 6</text>
<text xml:space="preserve" text-anchor="middle" x="10847.01" y="-22.53" font-family="Times,serif" font-size="14.00">Attributes: 9</text>
</g>
<!-- object&#45;&gt;Shutter -->
<g id="edge21" class="edge">
<title>object&#45;&gt;Shutter</title>
<path fill="none" stroke="black" d="M7460.58,-231.31C7804.02,-224.94 9948.78,-182.53 10594.01,-104.65 10621.9,-101.29 10651.29,-96.49 10679.79,-91.17"/>
<polygon fill="black" stroke="black" points="10680.43,-94.61 10689.6,-89.31 10679.12,-87.73 10680.43,-94.61"/>
</g>
<!-- PESeries -->
<g id="node23" class="node">
<title>PESeries</title>
<ellipse fill="none" stroke="black" cx="11331.01" cy="-52.33" rx="194.81" ry="52.33"/>
<text xml:space="preserve" text-anchor="middle" x="11331.01" y="-72.03" font-family="Times,serif" font-size="14.00">PESeries</text>
<text xml:space="preserve" text-anchor="middle" x="11331.01" y="-55.53" font-family="Times,serif" font-size="14.00">File: ./xpd&#45;profile&#45;collection/pescan/peseries.py</text>
<text xml:space="preserve" text-anchor="middle" x="11331.01" y="-39.03" font-family="Times,serif" font-size="14.00">Methods: 13</text>
<text xml:space="preserve" text-anchor="middle" x="11331.01" y="-22.53" font-family="Times,serif" font-size="14.00">Attributes: 9</text>
</g>
<!-- object&#45;&gt;PESeries -->
<g id="edge22" class="edge">
<title>object&#45;&gt;PESeries</title>
<path fill="none" stroke="black" d="M7460.64,-231.72C7834.42,-228.09 10348.1,-200.36 11100.01,-104.65 11125.77,-101.37 11152.9,-96.58 11179.14,-91.23"/>
<polygon fill="black" stroke="black" points="11179.77,-94.67 11188.85,-89.21 11178.34,-87.82 11179.77,-94.67"/>
</g>
<!-- TemperatureController -->
<g id="node24" class="node">
<title>TemperatureController</title>
<ellipse fill="none" stroke="black" cx="11835.01" cy="-52.33" rx="237.23" ry="52.33"/>
<text xml:space="preserve" text-anchor="middle" x="11835.01" y="-72.03" font-family="Times,serif" font-size="14.00">TemperatureController</text>
<text xml:space="preserve" text-anchor="middle" x="11835.01" y="-55.53" font-family="Times,serif" font-size="14.00">File: ./xpd&#45;profile&#45;collection/pescan/temperaturecontrol.py</text>
<text xml:space="preserve" text-anchor="middle" x="11835.01" y="-39.03" font-family="Times,serif" font-size="14.00">Methods: 6</text>
<text xml:space="preserve" text-anchor="middle" x="11835.01" y="-22.53" font-family="Times,serif" font-size="14.00">Attributes: 3</text>
</g>
<!-- object&#45;&gt;TemperatureController -->
<g id="edge23" class="edge">
<title>object&#45;&gt;TemperatureController</title>
<path fill="none" stroke="black" d="M7460.63,-231.72C7859.95,-227.85 10710.1,-197.26 11562.01,-104.65 11592.11,-101.38 11623.87,-96.62 11654.66,-91.31"/>
<polygon fill="black" stroke="black" points="11655.22,-94.77 11664.47,-89.59 11654.01,-87.87 11655.22,-94.77"/>
</g>
<!-- SMIBeam -->
<g id="node25" class="node">
<title>SMIBeam</title>
<ellipse fill="none" stroke="black" cx="12363.01" cy="-52.33" rx="219.2" ry="52.33"/>
<text xml:space="preserve" text-anchor="middle" x="12363.01" y="-72.03" font-family="Times,serif" font-size="14.00">SMIBeam</text>
<text xml:space="preserve" text-anchor="middle" x="12363.01" y="-55.53" font-family="Times,serif" font-size="14.00">File: ./smi&#45;profile&#45;collection/startup/smibase/beam.py</text>
<text xml:space="preserve" text-anchor="middle" x="12363.01" y="-39.03" font-family="Times,serif" font-size="14.00">Methods: 6</text>
<text xml:space="preserve" text-anchor="middle" x="12363.01" y="-22.53" font-family="Times,serif" font-size="14.00">Attributes: 9</text>
</g>
<!-- object&#45;&gt;SMIBeam -->
<g id="edge24" class="edge">
<title>object&#45;&gt;SMIBeam</title>
<path fill="none" stroke="black" d="M7460.55,-231.99C7888.17,-230.36 11140.01,-214.4 12108.01,-104.65 12136.35,-101.44 12166.24,-96.68 12195.18,-91.35"/>
<polygon fill="black" stroke="black" points="12195.55,-94.84 12204.73,-89.55 12194.26,-87.96 12195.55,-94.84"/>
</g>
<!-- SMI_SAXS_Det -->
<g id="node26" class="node">
<title>SMI_SAXS_Det</title>
<ellipse fill="none" stroke="black" cx="12873.01" cy="-52.33" rx="219.2" ry="52.33"/>
<text xml:space="preserve" text-anchor="middle" x="12873.01" y="-72.03" font-family="Times,serif" font-size="14.00">SMI_SAXS_Det</text>
<text xml:space="preserve" text-anchor="middle" x="12873.01" y="-55.53" font-family="Times,serif" font-size="14.00">File: ./smi&#45;profile&#45;collection/startup/smibase/beam.py</text>
<text xml:space="preserve" text-anchor="middle" x="12873.01" y="-39.03" font-family="Times,serif" font-size="14.00">Methods: 4</text>
<text xml:space="preserve" text-anchor="middle" x="12873.01" y="-22.53" font-family="Times,serif" font-size="14.00">Attributes: 7</text>
</g>
<!-- object&#45;&gt;SMI_SAXS_Det -->
<g id="edge25" class="edge">
<title>object&#45;&gt;SMI_SAXS_Det</title>
<path fill="none" stroke="black" d="M7460.52,-232.13C7913.24,-231.8 11540.82,-225.32 12618.01,-104.65 12646.46,-101.46 12676.46,-96.71 12705.49,-91.35"/>
<polygon fill="black" stroke="black" points="12705.9,-94.84 12715.08,-89.55 12704.61,-87.96 12705.9,-94.84"/>
</g>
<!-- xMAPBufferHeader -->
<g id="node27" class="node">
<title>xMAPBufferHeader</title>
<ellipse fill="none" stroke="black" cx="13401.01" cy="-52.33" rx="237.23" ry="52.33"/>
<text xml:space="preserve" text-anchor="middle" x="13401.01" y="-72.03" font-family="Times,serif" font-size="14.00">xMAPBufferHeader</text>
<text xml:space="preserve" text-anchor="middle" x="13401.01" y="-55.53" font-family="Times,serif" font-size="14.00">File: ./iss&#45;profile&#45;collection/startup/scripts/xmap_loader.py</text>
<text xml:space="preserve" text-anchor="middle" x="13401.01" y="-39.03" font-family="Times,serif" font-size="14.00">Methods: 2</text>
<text xml:space="preserve" text-anchor="middle" x="13401.01" y="-22.53" font-family="Times,serif" font-size="14.00">Attributes: 18</text>
</g>
<!-- object&#45;&gt;xMAPBufferHeader -->
<g id="edge26" class="edge">
<title>object&#45;&gt;xMAPBufferHeader</title>
<path fill="none" stroke="black" d="M7460.51,-232.17C7937.12,-232.19 11940.65,-228.67 13128.01,-104.65 13158.23,-101.49 13190.11,-96.78 13221.01,-91.47"/>
<polygon fill="black" stroke="black" points="13221.61,-94.92 13230.85,-89.75 13220.4,-88.03 13221.61,-94.92"/>
</g>
<!-- xMAPMCAPixelHeader -->
<g id="node28" class="node">
<title>xMAPMCAPixelHeader</title>
<ellipse fill="none" stroke="black" cx="13947.01" cy="-52.33" rx="237.23" ry="52.33"/>
<text xml:space="preserve" text-anchor="middle" x="13947.01" y="-72.03" font-family="Times,serif" font-size="14.00">xMAPMCAPixelHeader</text>
<text xml:space="preserve" text-anchor="middle" x="13947.01" y="-55.53" font-family="Times,serif" font-size="14.00">File: ./iss&#45;profile&#45;collection/startup/scripts/xmap_loader.py</text>
<text xml:space="preserve" text-anchor="middle" x="13947.01" y="-39.03" font-family="Times,serif" font-size="14.00">Methods: 1</text>
<text xml:space="preserve" text-anchor="middle" x="13947.01" y="-22.53" font-family="Times,serif" font-size="14.00">Attributes: 7</text>
</g>
<!-- object&#45;&gt;xMAPMCAPixelHeader -->
<g id="edge27" class="edge">
<title>object&#45;&gt;xMAPMCAPixelHeader</title>
<path fill="none" stroke="black" d="M7460.58,-232.27C7962.01,-233.43 12369.4,-239.64 13674.01,-104.65 13704.23,-101.52 13736.12,-96.83 13767.02,-91.52"/>
<polygon fill="black" stroke="black" points="13767.61,-94.97 13776.86,-89.8 13766.41,-88.08 13767.61,-94.97"/>
</g>
<!-- xMAPData -->
<g id="node29" class="node">
<title>xMAPData</title>
<ellipse fill="none" stroke="black" cx="14493.01" cy="-52.33" rx="237.23" ry="52.33"/>
<text xml:space="preserve" text-anchor="middle" x="14493.01" y="-72.03" font-family="Times,serif" font-size="14.00">xMAPData</text>
<text xml:space="preserve" text-anchor="middle" x="14493.01" y="-55.53" font-family="Times,serif" font-size="14.00">File: ./iss&#45;profile&#45;collection/startup/scripts/xmap_loader.py</text>
<text xml:space="preserve" text-anchor="middle" x="14493.01" y="-39.03" font-family="Times,serif" font-size="14.00">Methods: 1</text>
<text xml:space="preserve" text-anchor="middle" x="14493.01" y="-22.53" font-family="Times,serif" font-size="14.00">Attributes: 8</text>
</g>
<!-- object&#45;&gt;xMAPData -->
<g id="edge28" class="edge">
<title>object&#45;&gt;xMAPData</title>
<path fill="none" stroke="black" d="M7460.65,-231.75C8023.62,-226.9 13506.36,-177.9 14220.01,-104.65 14250.47,-101.52 14282.63,-96.79 14313.76,-91.44"/>
<polygon fill="black" stroke="black" points="14313.98,-94.95 14323.23,-89.78 14312.77,-88.06 14313.98,-94.95"/>
</g>
</g>
</svg>
