<?xml version="1.0" encoding="UTF-8" standalone="no"?>
<!DOCTYPE svg PUBLIC "-//W3C//DTD SVG 1.1//EN"
 "http://www.w3.org/Graphics/SVG/1.1/DTD/svg11.dtd">
<!-- Generated by graphviz version 14.0.0 (20250921.2048)
 -->
<!-- Pages: 1 -->
<svg width="2009pt" height="262pt"
 viewBox="0.00 0.00 2009.00 262.00" xmlns="http://www.w3.org/2000/svg" xmlns:xlink="http://www.w3.org/1999/xlink">
<g id="graph0" class="graph" transform="scale(1 1) rotate(0) translate(4 257.65)">
<polygon fill="white" stroke="none" points="-4,4 -4,-257.65 2004.89,-257.65 2004.89,4 -4,4"/>
<!-- PerkinElmerDetector -->
<g id="node1" class="node">
<title>PerkinElmerDetector</title>
<polygon fill="lightblue" stroke="lightblue" points="1062.07,-253.65 930.57,-253.65 930.57,-212.65 1062.07,-212.65 1062.07,-253.65"/>
<text xml:space="preserve" text-anchor="middle" x="996.32" y="-236.35" font-family="Times,serif" font-size="14.00">PerkinElmerDetector</text>
<text xml:space="preserve" text-anchor="middle" x="996.32" y="-219.85" font-family="Times,serif" font-size="14.00">(Parent Class)</text>
</g>
<!-- QASPerkinElmer -->
<g id="node2" class="node">
<title>QASPerkinElmer</title>
<ellipse fill="none" stroke="black" cx="221.32" cy="-52.33" rx="221.32" ry="52.33"/>
<text xml:space="preserve" text-anchor="middle" x="221.32" y="-72.03" font-family="Times,serif" font-size="14.00">QASPerkinElmer</text>
<text xml:space="preserve" text-anchor="middle" x="221.32" y="-55.53" font-family="Times,serif" font-size="14.00">File: ./qas&#45;profile&#45;collection/startup/80&#45;areadetector.py</text>
<text xml:space="preserve" text-anchor="middle" x="221.32" y="-39.03" font-family="Times,serif" font-size="14.00">Methods: 2</text>
<text xml:space="preserve" text-anchor="middle" x="221.32" y="-22.53" font-family="Times,serif" font-size="14.00">Attributes: 26</text>
</g>
<!-- PerkinElmerDetector&#45;&gt;QASPerkinElmer -->
<g id="edge1" class="edge">
<title>PerkinElmerDetector&#45;&gt;QASPerkinElmer</title>
<path fill="none" stroke="black" d="M930.25,-216.91C811.51,-189.51 558.67,-131.17 389.31,-92.09"/>
<polygon fill="black" stroke="black" points="390.29,-88.72 379.76,-89.88 388.71,-95.54 390.29,-88.72"/>
</g>
<!-- XPDPerkinElmer -->
<g id="node3" class="node">
<title>XPDPerkinElmer</title>
<ellipse fill="none" stroke="black" cx="737.32" cy="-52.33" rx="222.92" ry="52.33"/>
<text xml:space="preserve" text-anchor="middle" x="737.32" y="-72.03" font-family="Times,serif" font-size="14.00">XPDPerkinElmer</text>
<text xml:space="preserve" text-anchor="middle" x="737.32" y="-55.53" font-family="Times,serif" font-size="14.00">File: ./xpd&#45;profile&#45;collection/startup/80&#45;areadetector.py</text>
<text xml:space="preserve" text-anchor="middle" x="737.32" y="-39.03" font-family="Times,serif" font-size="14.00">Methods: 1</text>
<text xml:space="preserve" text-anchor="middle" x="737.32" y="-22.53" font-family="Times,serif" font-size="14.00">Attributes: 17</text>
</g>
<!-- PerkinElmerDetector&#45;&gt;XPDPerkinElmer -->
<g id="edge2" class="edge">
<title>PerkinElmerDetector&#45;&gt;XPDPerkinElmer</title>
<path fill="none" stroke="black" d="M967.37,-212.16C931.39,-187.32 868.54,-143.92 817.61,-108.76"/>
<polygon fill="black" stroke="black" points="819.71,-105.96 809.49,-103.15 815.73,-111.72 819.71,-105.96"/>
</g>
<!-- XPDPerkinElmerDEX -->
<g id="node4" class="node">
<title>XPDPerkinElmerDEX</title>
<ellipse fill="none" stroke="black" cx="1255.32" cy="-52.33" rx="222.92" ry="52.33"/>
<text xml:space="preserve" text-anchor="middle" x="1255.32" y="-72.03" font-family="Times,serif" font-size="14.00">XPDPerkinElmerDEX</text>
<text xml:space="preserve" text-anchor="middle" x="1255.32" y="-55.53" font-family="Times,serif" font-size="14.00">File: ./xpd&#45;profile&#45;collection/startup/80&#45;areadetector.py</text>
<text xml:space="preserve" text-anchor="middle" x="1255.32" y="-39.03" font-family="Times,serif" font-size="14.00">Methods: 1</text>
<text xml:space="preserve" text-anchor="middle" x="1255.32" y="-22.53" font-family="Times,serif" font-size="14.00">Attributes: 17</text>
</g>
<!-- PerkinElmerDetector&#45;&gt;XPDPerkinElmerDEX -->
<g id="edge3" class="edge">
<title>PerkinElmerDetector&#45;&gt;XPDPerkinElmerDEX</title>
<path fill="none" stroke="black" d="M1025.28,-212.16C1061.26,-187.32 1124.11,-143.92 1175.04,-108.76"/>
<polygon fill="black" stroke="black" points="1176.92,-111.72 1183.16,-103.15 1172.94,-105.96 1176.92,-111.72"/>
</g>
<!-- HEXPerkinElmer -->
<g id="node5" class="node">
<title>HEXPerkinElmer</title>
<ellipse fill="none" stroke="black" cx="1775.32" cy="-52.33" rx="225.57" ry="52.33"/>
<text xml:space="preserve" text-anchor="middle" x="1775.32" y="-72.03" font-family="Times,serif" font-size="14.00">HEXPerkinElmer</text>
<text xml:space="preserve" text-anchor="middle" x="1775.32" y="-55.53" font-family="Times,serif" font-size="14.00">File: ./hex&#45;profile&#45;collection/startup/11&#45;perkin&#45;elmer.py</text>
<text xml:space="preserve" text-anchor="middle" x="1775.32" y="-39.03" font-family="Times,serif" font-size="14.00">Methods: 0</text>
<text xml:space="preserve" text-anchor="middle" x="1775.32" y="-22.53" font-family="Times,serif" font-size="14.00">Attributes: 7</text>
</g>
<!-- PerkinElmerDetector&#45;&gt;HEXPerkinElmer -->
<g id="edge4" class="edge">
<title>PerkinElmerDetector&#45;&gt;HEXPerkinElmer</title>
<path fill="none" stroke="black" d="M1062.41,-216.98C1181.3,-189.69 1434.75,-131.51 1605.13,-92.39"/>
<polygon fill="black" stroke="black" points="1605.8,-95.83 1614.76,-90.18 1604.23,-89.01 1605.8,-95.83"/>
</g>
</g>
</svg>
