<?xml version="1.0" encoding="UTF-8" standalone="no"?>
<!DOCTYPE svg PUBLIC "-//W3C//DTD SVG 1.1//EN"
 "http://www.w3.org/Graphics/SVG/1.1/DTD/svg11.dtd">
<!-- Generated by graphviz version 14.0.0 (20250921.2048)
 -->
<!-- Pages: 1 -->
<svg width="3176pt" height="262pt"
 viewBox="0.00 0.00 3176.00 262.00" xmlns="http://www.w3.org/2000/svg" xmlns:xlink="http://www.w3.org/1999/xlink">
<g id="graph0" class="graph" transform="scale(1 1) rotate(0) translate(4 257.65)">
<polygon fill="white" stroke="none" points="-4,4 -4,-257.65 3172.32,-257.65 3172.32,4 -4,4"/>
<!-- PersistentListInteractingWithGUI -->
<g id="node1" class="node">
<title>PersistentListInteractingWithGUI</title>
<polygon fill="lightblue" stroke="lightblue" points="1710.54,-253.65 1511.54,-253.65 1511.54,-212.65 1710.54,-212.65 1710.54,-253.65"/>
<text xml:space="preserve" text-anchor="middle" x="1611.04" y="-236.35" font-family="Times,serif" font-size="14.00">PersistentListInteractingWithGUI</text>
<text xml:space="preserve" text-anchor="middle" x="1611.04" y="-219.85" font-family="Times,serif" font-size="14.00">(Parent Class)</text>
</g>
<!-- SpectrometerManager -->
<g id="node2" class="node">
<title>SpectrometerManager</title>
<ellipse fill="none" stroke="black" cx="260.04" cy="-52.33" rx="260.04" ry="52.33"/>
<text xml:space="preserve" text-anchor="middle" x="260.04" y="-72.03" font-family="Times,serif" font-size="14.00">SpectrometerManager</text>
<text xml:space="preserve" text-anchor="middle" x="260.04" y="-55.53" font-family="Times,serif" font-size="14.00">File: ./iss&#45;profile&#45;collection/startup/95&#45;spectrometer_manager.py</text>
<text xml:space="preserve" text-anchor="middle" x="260.04" y="-39.03" font-family="Times,serif" font-size="14.00">Methods: 9</text>
<text xml:space="preserve" text-anchor="middle" x="260.04" y="-22.53" font-family="Times,serif" font-size="14.00">Attributes: 4</text>
</g>
<!-- PersistentListInteractingWithGUI&#45;&gt;SpectrometerManager -->
<g id="edge1" class="edge">
<title>PersistentListInteractingWithGUI&#45;&gt;SpectrometerManager</title>
<path fill="none" stroke="black" d="M1511.17,-221.81C1323.62,-202.01 906.04,-156.11 556.04,-104.65 525.8,-100.21 493.9,-95.11 462.69,-89.89"/>
<polygon fill="black" stroke="black" points="463.61,-86.49 453.17,-88.29 462.45,-93.4 463.61,-86.49"/>
</g>
<!-- UserManager -->
<g id="node3" class="node">
<title>UserManager</title>
<ellipse fill="none" stroke="black" cx="818.04" cy="-52.33" rx="226.1" ry="52.33"/>
<text xml:space="preserve" text-anchor="middle" x="818.04" y="-72.03" font-family="Times,serif" font-size="14.00">UserManager</text>
<text xml:space="preserve" text-anchor="middle" x="818.04" y="-55.53" font-family="Times,serif" font-size="14.00">File: ./iss&#45;profile&#45;collection/startup/94&#45;user_manager.py</text>
<text xml:space="preserve" text-anchor="middle" x="818.04" y="-39.03" font-family="Times,serif" font-size="14.00">Methods: 10</text>
<text xml:space="preserve" text-anchor="middle" x="818.04" y="-22.53" font-family="Times,serif" font-size="14.00">Attributes: 8</text>
</g>
<!-- PersistentListInteractingWithGUI&#45;&gt;UserManager -->
<g id="edge2" class="edge">
<title>PersistentListInteractingWithGUI&#45;&gt;UserManager</title>
<path fill="none" stroke="black" d="M1522.38,-212.16C1393.98,-183.2 1153.73,-129.03 989.88,-92.08"/>
<polygon fill="black" stroke="black" points="990.71,-88.68 980.19,-89.89 989.17,-95.51 990.71,-88.68"/>
</g>
<!-- PlanProcessor -->
<g id="node4" class="node">
<title>PlanProcessor</title>
<ellipse fill="none" stroke="black" cx="1346.04" cy="-52.33" rx="229.81" ry="52.33"/>
<text xml:space="preserve" text-anchor="middle" x="1346.04" y="-72.03" font-family="Times,serif" font-size="14.00">PlanProcessor</text>
<text xml:space="preserve" text-anchor="middle" x="1346.04" y="-55.53" font-family="Times,serif" font-size="14.00">File: ./iss&#45;profile&#45;collection/startup/96&#45;plan_processor.py</text>
<text xml:space="preserve" text-anchor="middle" x="1346.04" y="-39.03" font-family="Times,serif" font-size="14.00">Methods: 46</text>
<text xml:space="preserve" text-anchor="middle" x="1346.04" y="-22.53" font-family="Times,serif" font-size="14.00">Attributes: 37</text>
</g>
<!-- PersistentListInteractingWithGUI&#45;&gt;PlanProcessor -->
<g id="edge3" class="edge">
<title>PersistentListInteractingWithGUI&#45;&gt;PlanProcessor</title>
<path fill="none" stroke="black" d="M1581.41,-212.16C1544.53,-187.27 1480.02,-143.74 1427.86,-108.54"/>
<polygon fill="black" stroke="black" points="1430.11,-105.83 1419.86,-103.14 1426.19,-111.64 1430.11,-105.83"/>
</g>
<!-- SampleManager -->
<g id="node5" class="node">
<title>SampleManager</title>
<ellipse fill="none" stroke="black" cx="1877.04" cy="-52.33" rx="229.28" ry="52.33"/>
<text xml:space="preserve" text-anchor="middle" x="1877.04" y="-72.03" font-family="Times,serif" font-size="14.00">SampleManager</text>
<text xml:space="preserve" text-anchor="middle" x="1877.04" y="-55.53" font-family="Times,serif" font-size="14.00">File: ./iss&#45;profile&#45;collection/startup/93&#45;batch&#45;manager.py</text>
<text xml:space="preserve" text-anchor="middle" x="1877.04" y="-39.03" font-family="Times,serif" font-size="14.00">Methods: 35</text>
<text xml:space="preserve" text-anchor="middle" x="1877.04" y="-22.53" font-family="Times,serif" font-size="14.00">Attributes: 13</text>
</g>
<!-- PersistentListInteractingWithGUI&#45;&gt;SampleManager -->
<g id="edge4" class="edge">
<title>PersistentListInteractingWithGUI&#45;&gt;SampleManager</title>
<path fill="none" stroke="black" d="M1640.78,-212.16C1677.8,-187.27 1742.55,-143.74 1794.91,-108.54"/>
<polygon fill="black" stroke="black" points="1796.6,-111.62 1802.94,-103.14 1792.69,-105.81 1796.6,-111.62"/>
</g>
<!-- BatchScanManager -->
<g id="node6" class="node">
<title>BatchScanManager</title>
<ellipse fill="none" stroke="black" cx="2408.04" cy="-52.33" rx="229.28" ry="52.33"/>
<text xml:space="preserve" text-anchor="middle" x="2408.04" y="-72.03" font-family="Times,serif" font-size="14.00">BatchScanManager</text>
<text xml:space="preserve" text-anchor="middle" x="2408.04" y="-55.53" font-family="Times,serif" font-size="14.00">File: ./iss&#45;profile&#45;collection/startup/93&#45;batch&#45;manager.py</text>
<text xml:space="preserve" text-anchor="middle" x="2408.04" y="-39.03" font-family="Times,serif" font-size="14.00">Methods: 13</text>
<text xml:space="preserve" text-anchor="middle" x="2408.04" y="-22.53" font-family="Times,serif" font-size="14.00">Attributes: 4</text>
</g>
<!-- PersistentListInteractingWithGUI&#45;&gt;BatchScanManager -->
<g id="edge5" class="edge">
<title>PersistentListInteractingWithGUI&#45;&gt;BatchScanManager</title>
<path fill="none" stroke="black" d="M1700.14,-212.16C1829,-183.25 2069.91,-129.19 2234.57,-92.25"/>
<polygon fill="black" stroke="black" points="2235.33,-95.66 2244.32,-90.06 2233.8,-88.83 2235.33,-95.66"/>
</g>
<!-- BatchManager -->
<g id="node7" class="node">
<title>BatchManager</title>
<ellipse fill="none" stroke="black" cx="2939.04" cy="-52.33" rx="229.28" ry="52.33"/>
<text xml:space="preserve" text-anchor="middle" x="2939.04" y="-72.03" font-family="Times,serif" font-size="14.00">BatchManager</text>
<text xml:space="preserve" text-anchor="middle" x="2939.04" y="-55.53" font-family="Times,serif" font-size="14.00">File: ./iss&#45;profile&#45;collection/startup/93&#45;batch&#45;manager.py</text>
<text xml:space="preserve" text-anchor="middle" x="2939.04" y="-39.03" font-family="Times,serif" font-size="14.00">Methods: 28</text>
<text xml:space="preserve" text-anchor="middle" x="2939.04" y="-22.53" font-family="Times,serif" font-size="14.00">Attributes: 48</text>
</g>
<!-- PersistentListInteractingWithGUI&#45;&gt;BatchManager -->
<g id="edge6" class="edge">
<title>PersistentListInteractingWithGUI&#45;&gt;BatchManager</title>
<path fill="none" stroke="black" d="M1710.93,-222.55C1899.53,-203.9 2320.77,-159.71 2673.04,-104.65 2700.63,-100.34 2729.72,-95.27 2758.15,-90.02"/>
<polygon fill="black" stroke="black" points="2758.75,-93.47 2767.94,-88.2 2757.47,-86.59 2758.75,-93.47"/>
</g>
</g>
</svg>
