<?xml version="1.0" encoding="UTF-8" standalone="no"?>
<!DOCTYPE svg PUBLIC "-//W3C//DTD SVG 1.1//EN"
 "http://www.w3.org/Graphics/SVG/1.1/DTD/svg11.dtd">
<!-- Generated by graphviz version 14.0.0 (20250921.2048)
 -->
<!-- Pages: 1 -->
<svg width="1012pt" height="262pt"
 viewBox="0.00 0.00 1012.00 262.00" xmlns="http://www.w3.org/2000/svg" xmlns:xlink="http://www.w3.org/1999/xlink">
<g id="graph0" class="graph" transform="scale(1 1) rotate(0) translate(4 257.65)">
<polygon fill="white" stroke="none" points="-4,4 -4,-257.65 1007.98,-257.65 1007.98,4 -4,4"/>
<!-- Pilatus -->
<g id="node1" class="node">
<title>Pilatus</title>
<polygon fill="lightblue" stroke="lightblue" points="548.24,-253.65 455.74,-253.65 455.74,-212.65 548.24,-212.65 548.24,-253.65"/>
<text xml:space="preserve" text-anchor="middle" x="501.99" y="-236.35" font-family="Times,serif" font-size="14.00">Pilatus</text>
<text xml:space="preserve" text-anchor="middle" x="501.99" y="-219.85" font-family="Times,serif" font-size="14.00">(Parent Class)</text>
</g>
<!-- WAXS_Detector -->
<g id="node2" class="node">
<title>WAXS_Detector</title>
<ellipse fill="none" stroke="black" cx="232.99" cy="-52.33" rx="232.99" ry="52.33"/>
<text xml:space="preserve" text-anchor="middle" x="232.99" y="-72.03" font-family="Times,serif" font-size="14.00">WAXS_Detector</text>
<text xml:space="preserve" text-anchor="middle" x="232.99" y="-55.53" font-family="Times,serif" font-size="14.00">File: ./smi&#45;profile&#45;collection/startup/smiclasses/pilatus.py</text>
<text xml:space="preserve" text-anchor="middle" x="232.99" y="-39.03" font-family="Times,serif" font-size="14.00">Methods: 3</text>
<text xml:space="preserve" text-anchor="middle" x="232.99" y="-22.53" font-family="Times,serif" font-size="14.00">Attributes: 32</text>
</g>
<!-- Pilatus&#45;&gt;WAXS_Detector -->
<g id="edge1" class="edge">
<title>Pilatus&#45;&gt;WAXS_Detector</title>
<path fill="none" stroke="black" d="M471.92,-212.16C434.47,-187.27 369,-143.74 316.05,-108.54"/>
<polygon fill="black" stroke="black" points="318.18,-105.75 307.91,-103.13 314.3,-111.58 318.18,-105.75"/>
</g>
<!-- SAXS_Detector -->
<g id="node3" class="node">
<title>SAXS_Detector</title>
<ellipse fill="none" stroke="black" cx="770.99" cy="-52.33" rx="232.99" ry="52.33"/>
<text xml:space="preserve" text-anchor="middle" x="770.99" y="-72.03" font-family="Times,serif" font-size="14.00">SAXS_Detector</text>
<text xml:space="preserve" text-anchor="middle" x="770.99" y="-55.53" font-family="Times,serif" font-size="14.00">File: ./smi&#45;profile&#45;collection/startup/smiclasses/pilatus.py</text>
<text xml:space="preserve" text-anchor="middle" x="770.99" y="-39.03" font-family="Times,serif" font-size="14.00">Methods: 10</text>
<text xml:space="preserve" text-anchor="middle" x="770.99" y="-22.53" font-family="Times,serif" font-size="14.00">Attributes: 22</text>
</g>
<!-- Pilatus&#45;&gt;SAXS_Detector -->
<g id="edge2" class="edge">
<title>Pilatus&#45;&gt;SAXS_Detector</title>
<path fill="none" stroke="black" d="M532.07,-212.16C569.51,-187.27 634.99,-143.74 687.94,-108.54"/>
<polygon fill="black" stroke="black" points="689.68,-111.58 696.07,-103.13 685.81,-105.75 689.68,-111.58"/>
</g>
</g>
</svg>
