<?xml version="1.0" encoding="UTF-8" standalone="no"?>
<!DOCTYPE svg PUBLIC "-//W3C//DTD SVG 1.1//EN"
 "http://www.w3.org/Graphics/SVG/1.1/DTD/svg11.dtd">
<!-- Generated by graphviz version 14.0.0 (20250921.2048)
 -->
<!-- Pages: 1 -->
<svg width="4743pt" height="325pt"
 viewBox="0.00 0.00 4743.00 325.00" xmlns="http://www.w3.org/2000/svg" xmlns:xlink="http://www.w3.org/1999/xlink">
<g id="graph0" class="graph" transform="scale(1 1) rotate(0) translate(4 321.3)">
<polygon fill="white" stroke="none" points="-4,4 -4,-321.3 4738.72,-321.3 4738.72,4 -4,4"/>
<!-- PilatusDetector -->
<g id="node1" class="node">
<title>PilatusDetector</title>
<ellipse fill="lightblue" stroke="lightblue" cx="2356.64" cy="-264.98" rx="232.99" ry="52.33"/>
<text xml:space="preserve" text-anchor="middle" x="2356.64" y="-284.68" font-family="Times,serif" font-size="14.00">PilatusDetector</text>
<text xml:space="preserve" text-anchor="middle" x="2356.64" y="-268.18" font-family="Times,serif" font-size="14.00">File: ./smi&#45;profile&#45;collection/startup/smiclasses/pilatus.py</text>
<text xml:space="preserve" text-anchor="middle" x="2356.64" y="-251.68" font-family="Times,serif" font-size="14.00">Methods: 0</text>
<text xml:space="preserve" text-anchor="middle" x="2356.64" y="-235.18" font-family="Times,serif" font-size="14.00">Attributes: 1</text>
</g>
<!-- PilatusDetector&#45;&gt;PilatusDetector -->
<g id="edge7" class="edge">
<title>PilatusDetector&#45;&gt;PilatusDetector</title>
<path fill="none" stroke="black" d="M2514.74,-303.75C2592.52,-308.9 2661.63,-295.97 2661.63,-264.98 2661.63,-235.5 2599.11,-222.36 2526.06,-225.58"/>
<polygon fill="black" stroke="black" points="2526.04,-222.08 2516.25,-226.12 2526.43,-229.07 2526.04,-222.08"/>
</g>
<!-- PilatusDetectorNonBlocking -->
<g id="node2" class="node">
<title>PilatusDetectorNonBlocking</title>
<ellipse fill="none" stroke="black" cx="200.64" cy="-52.33" rx="200.64" ry="52.33"/>
<text xml:space="preserve" text-anchor="middle" x="200.64" y="-72.03" font-family="Times,serif" font-size="14.00">PilatusDetectorNonBlocking</text>
<text xml:space="preserve" text-anchor="middle" x="200.64" y="-55.53" font-family="Times,serif" font-size="14.00">File: ./qas&#45;profile&#45;collection/startup/82&#45;pilatus.py</text>
<text xml:space="preserve" text-anchor="middle" x="200.64" y="-39.03" font-family="Times,serif" font-size="14.00">Methods: 1</text>
<text xml:space="preserve" text-anchor="middle" x="200.64" y="-22.53" font-family="Times,serif" font-size="14.00">Attributes: 1</text>
</g>
<!-- PilatusDetector&#45;&gt;PilatusDetectorNonBlocking -->
<g id="edge1" class="edge">
<title>PilatusDetector&#45;&gt;PilatusDetectorNonBlocking</title>
<path fill="none" stroke="black" d="M2127.94,-254.73C1766.95,-237.94 1043.66,-195.44 436.64,-104.65 411.24,-100.85 384.49,-95.93 358.48,-90.65"/>
<polygon fill="black" stroke="black" points="359.37,-87.26 348.87,-88.67 357.95,-94.11 359.37,-87.26"/>
</g>
<!-- PilatusV33 -->
<g id="node3" class="node">
<title>PilatusV33</title>
<ellipse fill="none" stroke="black" cx="726.64" cy="-52.33" rx="253.67" ry="52.33"/>
<text xml:space="preserve" text-anchor="middle" x="726.64" y="-72.03" font-family="Times,serif" font-size="14.00">PilatusV33</text>
<text xml:space="preserve" text-anchor="middle" x="726.64" y="-55.53" font-family="Times,serif" font-size="14.00">File: ./chx&#45;profile&#45;collection/optional_startup/21&#45;ad&#45;pil800k.py</text>
<text xml:space="preserve" text-anchor="middle" x="726.64" y="-39.03" font-family="Times,serif" font-size="14.00">Methods: 3</text>
<text xml:space="preserve" text-anchor="middle" x="726.64" y="-22.53" font-family="Times,serif" font-size="14.00">Attributes: 13</text>
</g>
<!-- PilatusDetector&#45;&gt;PilatusV33 -->
<g id="edge2" class="edge">
<title>PilatusDetector&#45;&gt;PilatusV33</title>
<path fill="none" stroke="black" d="M2145.24,-242.59C1880.76,-214.98 1414.25,-163.43 1016.64,-104.65 986.91,-100.26 955.54,-95.17 924.86,-89.95"/>
<polygon fill="black" stroke="black" points="925.53,-86.51 915.08,-88.28 924.35,-93.41 925.53,-86.51"/>
</g>
<!-- Pilatus800V33 -->
<g id="node4" class="node">
<title>Pilatus800V33</title>
<ellipse fill="none" stroke="black" cx="1284.64" cy="-52.33" rx="231.93" ry="52.33"/>
<text xml:space="preserve" text-anchor="middle" x="1284.64" y="-72.03" font-family="Times,serif" font-size="14.00">Pilatus800V33</text>
<text xml:space="preserve" text-anchor="middle" x="1284.64" y="-55.53" font-family="Times,serif" font-size="14.00">File: ./cms&#45;profile&#45;collection/startup/20&#45;area&#45;detectors.py</text>
<text xml:space="preserve" text-anchor="middle" x="1284.64" y="-39.03" font-family="Times,serif" font-size="14.00">Methods: 3</text>
<text xml:space="preserve" text-anchor="middle" x="1284.64" y="-22.53" font-family="Times,serif" font-size="14.00">Attributes: 13</text>
</g>
<!-- PilatusDetector&#45;&gt;Pilatus800V33 -->
<g id="edge3" class="edge">
<title>PilatusDetector&#45;&gt;Pilatus800V33</title>
<path fill="none" stroke="black" d="M2182.62,-229.78C1986.65,-191.27 1669.51,-128.95 1469.29,-89.61"/>
<polygon fill="black" stroke="black" points="1470.03,-86.19 1459.54,-87.69 1468.68,-93.06 1470.03,-86.19"/>
</g>
<!-- Pilatus2M -->
<g id="node5" class="node">
<title>Pilatus2M</title>
<ellipse fill="none" stroke="black" cx="1820.64" cy="-52.33" rx="231.93" ry="52.33"/>
<text xml:space="preserve" text-anchor="middle" x="1820.64" y="-72.03" font-family="Times,serif" font-size="14.00">Pilatus2M</text>
<text xml:space="preserve" text-anchor="middle" x="1820.64" y="-55.53" font-family="Times,serif" font-size="14.00">File: ./cms&#45;profile&#45;collection/startup/20&#45;area&#45;detectors.py</text>
<text xml:space="preserve" text-anchor="middle" x="1820.64" y="-39.03" font-family="Times,serif" font-size="14.00">Methods: 1</text>
<text xml:space="preserve" text-anchor="middle" x="1820.64" y="-22.53" font-family="Times,serif" font-size="14.00">Attributes: 13</text>
</g>
<!-- PilatusDetector&#45;&gt;Pilatus2M -->
<g id="edge4" class="edge">
<title>PilatusDetector&#45;&gt;Pilatus2M</title>
<path fill="none" stroke="black" d="M2242.31,-219.05C2155.07,-184.76 2035.01,-137.57 1945.3,-102.32"/>
<polygon fill="black" stroke="black" points="1946.79,-99.14 1936.2,-98.74 1944.23,-105.66 1946.79,-99.14"/>
</g>
<!-- Pilatus2MV33 -->
<g id="node6" class="node">
<title>Pilatus2MV33</title>
<ellipse fill="none" stroke="black" cx="2356.64" cy="-52.33" rx="231.93" ry="52.33"/>
<text xml:space="preserve" text-anchor="middle" x="2356.64" y="-72.03" font-family="Times,serif" font-size="14.00">Pilatus2MV33</text>
<text xml:space="preserve" text-anchor="middle" x="2356.64" y="-55.53" font-family="Times,serif" font-size="14.00">File: ./cms&#45;profile&#45;collection/startup/20&#45;area&#45;detectors.py</text>
<text xml:space="preserve" text-anchor="middle" x="2356.64" y="-39.03" font-family="Times,serif" font-size="14.00">Methods: 3</text>
<text xml:space="preserve" text-anchor="middle" x="2356.64" y="-22.53" font-family="Times,serif" font-size="14.00">Attributes: 14</text>
</g>
<!-- PilatusDetector&#45;&gt;Pilatus2MV33 -->
<g id="edge5" class="edge">
<title>PilatusDetector&#45;&gt;Pilatus2MV33</title>
<path fill="none" stroke="black" d="M2356.64,-212.18C2356.64,-183.23 2356.64,-146.93 2356.64,-116.34"/>
<polygon fill="black" stroke="black" points="2360.14,-116.44 2356.64,-106.44 2353.14,-116.44 2360.14,-116.44"/>
</g>
<!-- Pilatus2MV33_h5 -->
<g id="node7" class="node">
<title>Pilatus2MV33_h5</title>
<ellipse fill="none" stroke="black" cx="2892.64" cy="-52.33" rx="231.93" ry="52.33"/>
<text xml:space="preserve" text-anchor="middle" x="2892.64" y="-72.03" font-family="Times,serif" font-size="14.00">Pilatus2MV33_h5</text>
<text xml:space="preserve" text-anchor="middle" x="2892.64" y="-55.53" font-family="Times,serif" font-size="14.00">File: ./cms&#45;profile&#45;collection/startup/20&#45;area&#45;detectors.py</text>
<text xml:space="preserve" text-anchor="middle" x="2892.64" y="-39.03" font-family="Times,serif" font-size="14.00">Methods: 4</text>
<text xml:space="preserve" text-anchor="middle" x="2892.64" y="-22.53" font-family="Times,serif" font-size="14.00">Attributes: 15</text>
</g>
<!-- PilatusDetector&#45;&gt;Pilatus2MV33_h5 -->
<g id="edge6" class="edge">
<title>PilatusDetector&#45;&gt;Pilatus2MV33_h5</title>
<path fill="none" stroke="black" d="M2470.97,-219.05C2558.21,-184.76 2678.28,-137.57 2767.98,-102.32"/>
<polygon fill="black" stroke="black" points="2769.05,-105.66 2777.08,-98.74 2766.49,-99.14 2769.05,-105.66"/>
</g>
<!-- Pilatus -->
<g id="node8" class="node">
<title>Pilatus</title>
<ellipse fill="none" stroke="black" cx="3429.64" cy="-52.33" rx="232.99" ry="52.33"/>
<text xml:space="preserve" text-anchor="middle" x="3429.64" y="-72.03" font-family="Times,serif" font-size="14.00">Pilatus</text>
<text xml:space="preserve" text-anchor="middle" x="3429.64" y="-55.53" font-family="Times,serif" font-size="14.00">File: ./smi&#45;profile&#45;collection/startup/smiclasses/pilatus.py</text>
<text xml:space="preserve" text-anchor="middle" x="3429.64" y="-39.03" font-family="Times,serif" font-size="14.00">Methods: 5</text>
<text xml:space="preserve" text-anchor="middle" x="3429.64" y="-22.53" font-family="Times,serif" font-size="14.00">Attributes: 25</text>
</g>
<!-- PilatusDetector&#45;&gt;Pilatus -->
<g id="edge8" class="edge">
<title>PilatusDetector&#45;&gt;Pilatus</title>
<path fill="none" stroke="black" d="M2530.53,-229.84C2726.47,-191.37 3043.73,-129.09 3244.27,-89.72"/>
<polygon fill="black" stroke="black" points="3244.89,-93.16 3254.03,-87.8 3243.54,-86.29 3244.89,-93.16"/>
</g>
<!-- LIXPilatus -->
<g id="node9" class="node">
<title>LIXPilatus</title>
<ellipse fill="none" stroke="black" cx="3981.64" cy="-52.33" rx="247.31" ry="52.33"/>
<text xml:space="preserve" text-anchor="middle" x="3981.64" y="-72.03" font-family="Times,serif" font-size="14.00">LIXPilatus</text>
<text xml:space="preserve" text-anchor="middle" x="3981.64" y="-55.53" font-family="Times,serif" font-size="14.00">File: ./lix&#45;profile&#45;collection/startup/components/20&#45;pilatus.py</text>
<text xml:space="preserve" text-anchor="middle" x="3981.64" y="-39.03" font-family="Times,serif" font-size="14.00">Methods: 8</text>
<text xml:space="preserve" text-anchor="middle" x="3981.64" y="-22.53" font-family="Times,serif" font-size="14.00">Attributes: 28</text>
</g>
<!-- PilatusDetector&#45;&gt;LIXPilatus -->
<g id="edge9" class="edge">
<title>PilatusDetector&#45;&gt;LIXPilatus</title>
<path fill="none" stroke="black" d="M2568.4,-242.89C2833.32,-215.57 3300.57,-164.32 3698.64,-104.65 3727.78,-100.28 3758.52,-95.2 3788.57,-89.97"/>
<polygon fill="black" stroke="black" points="3788.88,-93.47 3798.12,-88.3 3787.67,-86.58 3788.88,-93.47"/>
</g>
<!-- PilatusDetectorCam -->
<g id="node10" class="node">
<title>PilatusDetectorCam</title>
<ellipse fill="none" stroke="black" cx="4517.64" cy="-52.33" rx="217.08" ry="52.33"/>
<text xml:space="preserve" text-anchor="middle" x="4517.64" y="-72.03" font-family="Times,serif" font-size="14.00">PilatusDetectorCam</text>
<text xml:space="preserve" text-anchor="middle" x="4517.64" y="-55.53" font-family="Times,serif" font-size="14.00">File: ./iss&#45;profile&#45;collection/startup/36&#45;pilatus100k.py</text>
<text xml:space="preserve" text-anchor="middle" x="4517.64" y="-39.03" font-family="Times,serif" font-size="14.00">Methods: 1</text>
<text xml:space="preserve" text-anchor="middle" x="4517.64" y="-22.53" font-family="Times,serif" font-size="14.00">Attributes: 1</text>
</g>
<!-- PilatusDetector&#45;&gt;PilatusDetectorCam -->
<g id="edge10" class="edge">
<title>PilatusDetector&#45;&gt;PilatusDetectorCam</title>
<path fill="none" stroke="black" d="M2584.49,-253.57C2943.27,-235.25 3661.21,-190.75 4264.64,-104.65 4291.77,-100.78 4320.36,-95.83 4348.18,-90.54"/>
<polygon fill="black" stroke="black" points="4348.57,-94.03 4357.73,-88.7 4347.25,-87.16 4348.57,-94.03"/>
</g>
</g>
</svg>
