<?xml version="1.0" encoding="UTF-8" standalone="no"?>
<!DOCTYPE svg PUBLIC "-//W3C//DTD SVG 1.1//EN"
 "http://www.w3.org/Graphics/SVG/1.1/DTD/svg11.dtd">
<!-- Generated by graphviz version 14.0.0 (20250921.2048)
 -->
<!-- Pages: 1 -->
<svg width="1052pt" height="262pt"
 viewBox="0.00 0.00 1052.00 262.00" xmlns="http://www.w3.org/2000/svg" xmlns:xlink="http://www.w3.org/1999/xlink">
<g id="graph0" class="graph" transform="scale(1 1) rotate(0) translate(4 257.65)">
<polygon fill="white" stroke="none" points="-4,4 -4,-257.65 1047.61,-257.65 1047.61,4 -4,4"/>
<!-- PilatusV33 -->
<g id="node1" class="node">
<title>PilatusV33</title>
<polygon fill="lightblue" stroke="lightblue" points="557.18,-253.65 464.68,-253.65 464.68,-212.65 557.18,-212.65 557.18,-253.65"/>
<text xml:space="preserve" text-anchor="middle" x="510.93" y="-236.35" font-family="Times,serif" font-size="14.00">PilatusV33</text>
<text xml:space="preserve" text-anchor="middle" x="510.93" y="-219.85" font-family="Times,serif" font-size="14.00">(Parent Class)</text>
</g>
<!-- Pilatus8002V33 -->
<g id="node2" class="node">
<title>Pilatus8002V33</title>
<ellipse fill="none" stroke="black" cx="231.93" cy="-52.33" rx="231.93" ry="52.33"/>
<text xml:space="preserve" text-anchor="middle" x="231.93" y="-72.03" font-family="Times,serif" font-size="14.00">Pilatus8002V33</text>
<text xml:space="preserve" text-anchor="middle" x="231.93" y="-55.53" font-family="Times,serif" font-size="14.00">File: ./cms&#45;profile&#45;collection/startup/20&#45;area&#45;detectors.py</text>
<text xml:space="preserve" text-anchor="middle" x="231.93" y="-39.03" font-family="Times,serif" font-size="14.00">Methods: 0</text>
<text xml:space="preserve" text-anchor="middle" x="231.93" y="-22.53" font-family="Times,serif" font-size="14.00">Attributes: 2</text>
</g>
<!-- PilatusV33&#45;&gt;Pilatus8002V33 -->
<g id="edge1" class="edge">
<title>PilatusV33&#45;&gt;Pilatus8002V33</title>
<path fill="none" stroke="black" d="M479.74,-212.16C440.76,-187.17 372.48,-143.41 317.45,-108.14"/>
<polygon fill="black" stroke="black" points="319.62,-105.37 309.31,-102.92 315.84,-111.27 319.62,-105.37"/>
</g>
<!-- Pilatus800V33 -->
<g id="node3" class="node">
<title>Pilatus800V33</title>
<ellipse fill="none" stroke="black" cx="789.93" cy="-52.33" rx="253.67" ry="52.33"/>
<text xml:space="preserve" text-anchor="middle" x="789.93" y="-72.03" font-family="Times,serif" font-size="14.00">Pilatus800V33</text>
<text xml:space="preserve" text-anchor="middle" x="789.93" y="-55.53" font-family="Times,serif" font-size="14.00">File: ./chx&#45;profile&#45;collection/optional_startup/21&#45;ad&#45;pil800k.py</text>
<text xml:space="preserve" text-anchor="middle" x="789.93" y="-39.03" font-family="Times,serif" font-size="14.00">Methods: 0</text>
<text xml:space="preserve" text-anchor="middle" x="789.93" y="-22.53" font-family="Times,serif" font-size="14.00">Attributes: 1</text>
</g>
<!-- PilatusV33&#45;&gt;Pilatus800V33 -->
<g id="edge2" class="edge">
<title>PilatusV33&#45;&gt;Pilatus800V33</title>
<path fill="none" stroke="black" d="M542.12,-212.16C580.9,-187.3 648.68,-143.86 703.56,-108.69"/>
<polygon fill="black" stroke="black" points="705.14,-111.83 711.67,-103.49 701.36,-105.94 705.14,-111.83"/>
</g>
</g>
</svg>
