<?xml version="1.0" encoding="UTF-8" standalone="no"?>
<!DOCTYPE svg PUBLIC "-//W3C//DTD SVG 1.1//EN"
 "http://www.w3.org/Graphics/SVG/1.1/DTD/svg11.dtd">
<!-- Generated by graphviz version 14.0.0 (20250921.2048)
 -->
<!-- Pages: 1 -->
<svg width="948pt" height="262pt"
 viewBox="0.00 0.00 948.00 262.00" xmlns="http://www.w3.org/2000/svg" xmlns:xlink="http://www.w3.org/1999/xlink">
<g id="graph0" class="graph" transform="scale(1 1) rotate(0) translate(4 257.65)">
<polygon fill="white" stroke="none" points="-4,4 -4,-257.65 944.16,-257.65 944.16,4 -4,4"/>
<!-- PilatusDetectorCam -->
<g id="node1" class="node">
<title>PilatusDetectorCam</title>
<polygon fill="lightblue" stroke="lightblue" points="532.83,-253.65 407.33,-253.65 407.33,-212.65 532.83,-212.65 532.83,-253.65"/>
<text xml:space="preserve" text-anchor="middle" x="470.08" y="-236.35" font-family="Times,serif" font-size="14.00">PilatusDetectorCam</text>
<text xml:space="preserve" text-anchor="middle" x="470.08" y="-219.85" font-family="Times,serif" font-size="14.00">(Parent Class)</text>
</g>
<!-- PilatusDetectorCamV33 -->
<g id="node2" class="node">
<title>PilatusDetectorCamV33</title>
<ellipse fill="none" stroke="black" cx="217.08" cy="-52.33" rx="217.08" ry="52.33"/>
<text xml:space="preserve" text-anchor="middle" x="217.08" y="-72.03" font-family="Times,serif" font-size="14.00">PilatusDetectorCamV33</text>
<text xml:space="preserve" text-anchor="middle" x="217.08" y="-55.53" font-family="Times,serif" font-size="14.00">File: ./iss&#45;profile&#45;collection/startup/36&#45;pilatus100k.py</text>
<text xml:space="preserve" text-anchor="middle" x="217.08" y="-39.03" font-family="Times,serif" font-size="14.00">Methods: 2</text>
<text xml:space="preserve" text-anchor="middle" x="217.08" y="-22.53" font-family="Times,serif" font-size="14.00">Attributes: 8</text>
</g>
<!-- PilatusDetectorCam&#45;&gt;PilatusDetectorCamV33 -->
<g id="edge1" class="edge">
<title>PilatusDetectorCam&#45;&gt;PilatusDetectorCamV33</title>
<path fill="none" stroke="black" d="M442.04,-212.33C406.92,-187.5 345.29,-143.95 295.41,-108.69"/>
<polygon fill="black" stroke="black" points="297.66,-106 287.48,-103.08 293.62,-111.71 297.66,-106"/>
</g>
<!-- PilatusBase -->
<g id="node3" class="node">
<title>PilatusBase</title>
<ellipse fill="none" stroke="black" cx="723.08" cy="-52.33" rx="217.08" ry="52.33"/>
<text xml:space="preserve" text-anchor="middle" x="723.08" y="-72.03" font-family="Times,serif" font-size="14.00">PilatusBase</text>
<text xml:space="preserve" text-anchor="middle" x="723.08" y="-55.53" font-family="Times,serif" font-size="14.00">File: ./iss&#45;profile&#45;collection/startup/36&#45;pilatus100k.py</text>
<text xml:space="preserve" text-anchor="middle" x="723.08" y="-39.03" font-family="Times,serif" font-size="14.00">Methods: 10</text>
<text xml:space="preserve" text-anchor="middle" x="723.08" y="-22.53" font-family="Times,serif" font-size="14.00">Attributes: 27</text>
</g>
<!-- PilatusDetectorCam&#45;&gt;PilatusBase -->
<g id="edge2" class="edge">
<title>PilatusDetectorCam&#45;&gt;PilatusBase</title>
<path fill="none" stroke="black" d="M498.12,-212.33C533.25,-187.5 594.87,-143.95 644.75,-108.69"/>
<polygon fill="black" stroke="black" points="646.54,-111.71 652.69,-103.08 642.5,-106 646.54,-111.71"/>
</g>
</g>
</svg>
