<?xml version="1.0" encoding="UTF-8" standalone="no"?>
<!DOCTYPE svg PUBLIC "-//W3C//DTD SVG 1.1//EN"
 "http://www.w3.org/Graphics/SVG/1.1/DTD/svg11.dtd">
<!-- Generated by graphviz version 14.0.0 (20250921.2048)
 -->
<!-- Pages: 1 -->
<svg width="4354pt" height="262pt"
 viewBox="0.00 0.00 4354.00 262.00" xmlns="http://www.w3.org/2000/svg" xmlns:xlink="http://www.w3.org/1999/xlink">
<g id="graph0" class="graph" transform="scale(1 1) rotate(0) translate(4 257.65)">
<polygon fill="white" stroke="none" points="-4,4 -4,-257.65 4349.94,-257.65 4349.94,4 -4,4"/>
<!-- PluginBase -->
<g id="node1" class="node">
<title>PluginBase</title>
<polygon fill="lightblue" stroke="lightblue" points="2244.67,-253.65 2152.17,-253.65 2152.17,-212.65 2244.67,-212.65 2244.67,-253.65"/>
<text xml:space="preserve" text-anchor="middle" x="2198.42" y="-236.35" font-family="Times,serif" font-size="14.00">PluginBase</text>
<text xml:space="preserve" text-anchor="middle" x="2198.42" y="-219.85" font-family="Times,serif" font-size="14.00">(Parent Class)</text>
</g>
<!-- CVPlugin -->
<g id="node2" class="node">
<title>CVPlugin</title>
<ellipse fill="none" stroke="black" cx="240.42" cy="-52.33" rx="240.42" ry="52.33"/>
<text xml:space="preserve" text-anchor="middle" x="240.42" y="-72.03" font-family="Times,serif" font-size="14.00">CVPlugin</text>
<text xml:space="preserve" text-anchor="middle" x="240.42" y="-55.53" font-family="Times,serif" font-size="14.00">File: ./amx&#45;profile&#45;collection/startup/27&#45;custom_plugins.py</text>
<text xml:space="preserve" text-anchor="middle" x="240.42" y="-39.03" font-family="Times,serif" font-size="14.00">Methods: 0</text>
<text xml:space="preserve" text-anchor="middle" x="240.42" y="-22.53" font-family="Times,serif" font-size="14.00">Attributes: 7</text>
</g>
<!-- PluginBase&#45;&gt;CVPlugin -->
<g id="edge1" class="edge">
<title>PluginBase&#45;&gt;CVPlugin</title>
<path fill="none" stroke="black" d="M2151.74,-230.47C1953.43,-222.92 1161.44,-188.82 516.42,-104.65 487.04,-100.82 456.05,-95.91 425.88,-90.66"/>
<polygon fill="black" stroke="black" points="426.75,-87.26 416.29,-88.97 425.53,-94.15 426.75,-87.26"/>
</g>
<!-- FastCCDPlugin -->
<g id="node3" class="node">
<title>FastCCDPlugin</title>
<ellipse fill="none" stroke="black" cx="812.42" cy="-52.33" rx="260.04" ry="52.33"/>
<text xml:space="preserve" text-anchor="middle" x="812.42" y="-72.03" font-family="Times,serif" font-size="14.00">FastCCDPlugin</text>
<text xml:space="preserve" text-anchor="middle" x="812.42" y="-55.53" font-family="Times,serif" font-size="14.00">File: ./csx&#45;profile&#45;collection/startup/csx1/devices/areadetector.py</text>
<text xml:space="preserve" text-anchor="middle" x="812.42" y="-39.03" font-family="Times,serif" font-size="14.00">Methods: 0</text>
<text xml:space="preserve" text-anchor="middle" x="812.42" y="-22.53" font-family="Times,serif" font-size="14.00">Attributes: 8</text>
</g>
<!-- PluginBase&#45;&gt;FastCCDPlugin -->
<g id="edge2" class="edge">
<title>PluginBase&#45;&gt;FastCCDPlugin</title>
<path fill="none" stroke="black" d="M2151.82,-227.63C2000.78,-212.78 1511.21,-163.09 1108.42,-104.65 1078.06,-100.25 1046.03,-95.16 1014.69,-89.93"/>
<polygon fill="black" stroke="black" points="1015.57,-86.53 1005.13,-88.33 1014.42,-93.43 1015.57,-86.53"/>
</g>
<!-- StatsPluginCSX -->
<g id="node4" class="node">
<title>StatsPluginCSX</title>
<ellipse fill="none" stroke="black" cx="1404.42" cy="-52.33" rx="260.04" ry="52.33"/>
<text xml:space="preserve" text-anchor="middle" x="1404.42" y="-72.03" font-family="Times,serif" font-size="14.00">StatsPluginCSX</text>
<text xml:space="preserve" text-anchor="middle" x="1404.42" y="-55.53" font-family="Times,serif" font-size="14.00">File: ./csx&#45;profile&#45;collection/startup/csx1/devices/stats_plugin.py</text>
<text xml:space="preserve" text-anchor="middle" x="1404.42" y="-39.03" font-family="Times,serif" font-size="14.00">Methods: 0</text>
<text xml:space="preserve" text-anchor="middle" x="1404.42" y="-22.53" font-family="Times,serif" font-size="14.00">Attributes: 50</text>
</g>
<!-- PluginBase&#45;&gt;StatsPluginCSX -->
<g id="edge3" class="edge">
<title>PluginBase&#45;&gt;StatsPluginCSX</title>
<path fill="none" stroke="black" d="M2151.71,-221.63C2043.64,-197.29 1771.51,-136 1587.24,-94.5"/>
<polygon fill="black" stroke="black" points="1588.06,-91.1 1577.53,-92.32 1586.52,-97.93 1588.06,-91.1"/>
</g>
<!-- StatsPluginV33 -->
<g id="node5" class="node">
<title>StatsPluginV33</title>
<ellipse fill="none" stroke="black" cx="1953.42" cy="-52.33" rx="217.08" ry="52.33"/>
<text xml:space="preserve" text-anchor="middle" x="1953.42" y="-72.03" font-family="Times,serif" font-size="14.00">StatsPluginV33</text>
<text xml:space="preserve" text-anchor="middle" x="1953.42" y="-55.53" font-family="Times,serif" font-size="14.00">File: ./cms&#45;profile&#45;collection/startup/01&#45;ad33_tmp.py</text>
<text xml:space="preserve" text-anchor="middle" x="1953.42" y="-39.03" font-family="Times,serif" font-size="14.00">Methods: 0</text>
<text xml:space="preserve" text-anchor="middle" x="1953.42" y="-22.53" font-family="Times,serif" font-size="14.00">Attributes: 53</text>
</g>
<!-- PluginBase&#45;&gt;StatsPluginV33 -->
<g id="edge4" class="edge">
<title>PluginBase&#45;&gt;StatsPluginV33</title>
<path fill="none" stroke="black" d="M2171.26,-212.33C2137.38,-187.6 2078.02,-144.28 2029.82,-109.09"/>
<polygon fill="black" stroke="black" points="2032.01,-106.36 2021.87,-103.29 2027.88,-112.01 2032.01,-106.36"/>
</g>
<!-- PluginCV -->
<g id="node6" class="node">
<title>PluginCV</title>
<ellipse fill="none" stroke="black" cx="2444.42" cy="-52.33" rx="202.23" ry="52.33"/>
<text xml:space="preserve" text-anchor="middle" x="2444.42" y="-72.03" font-family="Times,serif" font-size="14.00">PluginCV</text>
<text xml:space="preserve" text-anchor="middle" x="2444.42" y="-55.53" font-family="Times,serif" font-size="14.00">File: ./ixs&#45;profile&#45;collection/startup/96&#45;lambda.py</text>
<text xml:space="preserve" text-anchor="middle" x="2444.42" y="-39.03" font-family="Times,serif" font-size="14.00">Methods: 0</text>
<text xml:space="preserve" text-anchor="middle" x="2444.42" y="-22.53" font-family="Times,serif" font-size="14.00">Attributes: 0</text>
</g>
<!-- PluginBase&#45;&gt;PluginCV -->
<g id="edge5" class="edge">
<title>PluginBase&#45;&gt;PluginCV</title>
<path fill="none" stroke="black" d="M2225.68,-212.33C2259.82,-187.51 2319.71,-143.98 2368.2,-108.73"/>
<polygon fill="black" stroke="black" points="2370.17,-111.62 2376.2,-102.91 2366.06,-105.96 2370.17,-111.62"/>
</g>
<!-- XIPPlugin -->
<g id="node7" class="node">
<title>XIPPlugin</title>
<ellipse fill="none" stroke="black" cx="2923.42" cy="-52.33" rx="204.35" ry="52.33"/>
<text xml:space="preserve" text-anchor="middle" x="2923.42" y="-72.03" font-family="Times,serif" font-size="14.00">XIPPlugin</text>
<text xml:space="preserve" text-anchor="middle" x="2923.42" y="-55.53" font-family="Times,serif" font-size="14.00">File: ./six&#45;profile&#45;collection/startup/22&#45;rixscam.py</text>
<text xml:space="preserve" text-anchor="middle" x="2923.42" y="-39.03" font-family="Times,serif" font-size="14.00">Methods: 0</text>
<text xml:space="preserve" text-anchor="middle" x="2923.42" y="-22.53" font-family="Times,serif" font-size="14.00">Attributes: 37</text>
</g>
<!-- PluginBase&#45;&gt;XIPPlugin -->
<g id="edge6" class="edge">
<title>PluginBase&#45;&gt;XIPPlugin</title>
<path fill="none" stroke="black" d="M2245.15,-220.62C2348.57,-195.12 2600.76,-132.91 2766.78,-91.96"/>
<polygon fill="black" stroke="black" points="2767.25,-95.45 2776.12,-89.66 2765.57,-88.65 2767.25,-95.45"/>
</g>
<!-- CodecPlugin -->
<g id="node8" class="node">
<title>CodecPlugin</title>
<ellipse fill="none" stroke="black" cx="3468.42" cy="-52.33" rx="268.52" ry="52.33"/>
<text xml:space="preserve" text-anchor="middle" x="3468.42" y="-72.03" font-family="Times,serif" font-size="14.00">CodecPlugin</text>
<text xml:space="preserve" text-anchor="middle" x="3468.42" y="-55.53" font-family="Times,serif" font-size="14.00">File: ./lix&#45;profile&#45;collection/startup/obsolete/2023Sep/20&#45;pilatus.py</text>
<text xml:space="preserve" text-anchor="middle" x="3468.42" y="-39.03" font-family="Times,serif" font-size="14.00">Methods: 0</text>
<text xml:space="preserve" text-anchor="middle" x="3468.42" y="-22.53" font-family="Times,serif" font-size="14.00">Attributes: 3</text>
</g>
<!-- PluginBase&#45;&gt;CodecPlugin -->
<g id="edge7" class="edge">
<title>PluginBase&#45;&gt;CodecPlugin</title>
<path fill="none" stroke="black" d="M2244.7,-226.63C2383.89,-209.88 2810.8,-157.6 3163.42,-104.65 3194.17,-100.03 3226.62,-94.88 3258.43,-89.66"/>
<polygon fill="black" stroke="black" points="3258.86,-93.14 3268.16,-88.06 3257.72,-86.23 3258.86,-93.14"/>
</g>
<!-- PvaPlugin -->
<g id="node9" class="node">
<title>PvaPlugin</title>
<ellipse fill="none" stroke="black" cx="4077.42" cy="-52.33" rx="268.52" ry="52.33"/>
<text xml:space="preserve" text-anchor="middle" x="4077.42" y="-72.03" font-family="Times,serif" font-size="14.00">PvaPlugin</text>
<text xml:space="preserve" text-anchor="middle" x="4077.42" y="-55.53" font-family="Times,serif" font-size="14.00">File: ./lix&#45;profile&#45;collection/startup/obsolete/2023Sep/20&#45;pilatus.py</text>
<text xml:space="preserve" text-anchor="middle" x="4077.42" y="-39.03" font-family="Times,serif" font-size="14.00">Methods: 0</text>
<text xml:space="preserve" text-anchor="middle" x="4077.42" y="-22.53" font-family="Times,serif" font-size="14.00">Attributes: 3</text>
</g>
<!-- PluginBase&#45;&gt;PvaPlugin -->
<g id="edge8" class="edge">
<title>PluginBase&#45;&gt;PvaPlugin</title>
<path fill="none" stroke="black" d="M2244.95,-229.86C2435.14,-220.18 3171.8,-179.65 3773.42,-104.65 3805.27,-100.68 3838.88,-95.75 3871.68,-90.54"/>
<polygon fill="black" stroke="black" points="3871.95,-94.04 3881.27,-89 3870.85,-87.13 3871.95,-94.04"/>
</g>
</g>
</svg>
