<?xml version="1.0" encoding="UTF-8" standalone="no"?>
<!DOCTYPE svg PUBLIC "-//W3C//DTD SVG 1.1//EN"
 "http://www.w3.org/Graphics/SVG/1.1/DTD/svg11.dtd">
<!-- Generated by graphviz version 14.0.0 (20250921.2048)
 -->
<!-- Pages: 1 -->
<svg width="1419pt" height="262pt"
 viewBox="0.00 0.00 1419.00 262.00" xmlns="http://www.w3.org/2000/svg" xmlns:xlink="http://www.w3.org/1999/xlink">
<g id="graph0" class="graph" transform="scale(1 1) rotate(0) translate(4 257.65)">
<polygon fill="white" stroke="none" points="-4,4 -4,-257.65 1415.39,-257.65 1415.39,4 -4,4"/>
<!-- PositionerBase -->
<g id="node1" class="node">
<title>PositionerBase</title>
<polygon fill="lightblue" stroke="lightblue" points="734.88,-253.65 637.88,-253.65 637.88,-212.65 734.88,-212.65 734.88,-253.65"/>
<text xml:space="preserve" text-anchor="middle" x="686.38" y="-236.35" font-family="Times,serif" font-size="14.00">PositionerBase</text>
<text xml:space="preserve" text-anchor="middle" x="686.38" y="-219.85" font-family="Times,serif" font-size="14.00">(Parent Class)</text>
</g>
<!-- DeadbandMixin -->
<g id="node2" class="node">
<title>DeadbandMixin</title>
<ellipse fill="none" stroke="black" cx="187.38" cy="-52.33" rx="187.38" ry="52.33"/>
<text xml:space="preserve" text-anchor="middle" x="187.38" y="-72.03" font-family="Times,serif" font-size="14.00">DeadbandMixin</text>
<text xml:space="preserve" text-anchor="middle" x="187.38" y="-55.53" font-family="Times,serif" font-size="14.00">File: ./six&#45;profile&#45;collection/startup/04&#45;epu.py</text>
<text xml:space="preserve" text-anchor="middle" x="187.38" y="-39.03" font-family="Times,serif" font-size="14.00">Methods: 2</text>
<text xml:space="preserve" text-anchor="middle" x="187.38" y="-22.53" font-family="Times,serif" font-size="14.00">Attributes: 5</text>
</g>
<!-- PositionerBase&#45;&gt;DeadbandMixin -->
<g id="edge1" class="edge">
<title>PositionerBase&#45;&gt;DeadbandMixin</title>
<path fill="none" stroke="black" d="M637.63,-214.68C562.88,-187.89 417.58,-135.82 312.21,-98.06"/>
<polygon fill="black" stroke="black" points="313.52,-94.81 302.92,-94.73 311.15,-101.4 313.52,-94.81"/>
</g>
<!-- XPSmotor -->
<g id="node3" class="node">
<title>XPSmotor</title>
<ellipse fill="none" stroke="black" cx="686.38" cy="-52.33" rx="239.36" ry="52.33"/>
<text xml:space="preserve" text-anchor="middle" x="686.38" y="-72.03" font-family="Times,serif" font-size="14.00">XPSmotor</text>
<text xml:space="preserve" text-anchor="middle" x="686.38" y="-55.53" font-family="Times,serif" font-size="14.00">File: ./lix&#45;profile&#45;collection/startup/components/25&#45;XPS.py</text>
<text xml:space="preserve" text-anchor="middle" x="686.38" y="-39.03" font-family="Times,serif" font-size="14.00">Methods: 13</text>
<text xml:space="preserve" text-anchor="middle" x="686.38" y="-22.53" font-family="Times,serif" font-size="14.00">Attributes: 18</text>
</g>
<!-- PositionerBase&#45;&gt;XPSmotor -->
<g id="edge2" class="edge">
<title>PositionerBase&#45;&gt;XPSmotor</title>
<path fill="none" stroke="black" d="M686.38,-212.33C686.38,-189.21 686.38,-149.84 686.38,-116.06"/>
<polygon fill="black" stroke="black" points="689.88,-116.37 686.38,-106.37 682.88,-116.37 689.88,-116.37"/>
</g>
<!-- InsertionDevice -->
<g id="node4" class="node">
<title>InsertionDevice</title>
<ellipse fill="none" stroke="black" cx="1204.38" cy="-52.33" rx="207.01" ry="52.33"/>
<text xml:space="preserve" text-anchor="middle" x="1204.38" y="-72.03" font-family="Times,serif" font-size="14.00">InsertionDevice</text>
<text xml:space="preserve" text-anchor="middle" x="1204.38" y="-55.53" font-family="Times,serif" font-size="14.00">File: ./srx&#45;profile&#45;collection/startup/10&#45;machine.py</text>
<text xml:space="preserve" text-anchor="middle" x="1204.38" y="-39.03" font-family="Times,serif" font-size="14.00">Methods: 14</text>
<text xml:space="preserve" text-anchor="middle" x="1204.38" y="-22.53" font-family="Times,serif" font-size="14.00">Attributes: 8</text>
</g>
<!-- PositionerBase&#45;&gt;InsertionDevice -->
<g id="edge3" class="edge">
<title>PositionerBase&#45;&gt;InsertionDevice</title>
<path fill="none" stroke="black" d="M735.12,-215.33C811.59,-188.93 962.4,-136.86 1072.48,-98.86"/>
<polygon fill="black" stroke="black" points="1073.6,-102.18 1081.91,-95.61 1071.31,-95.56 1073.6,-102.18"/>
</g>
</g>
</svg>
