<?xml version="1.0" encoding="UTF-8" standalone="no"?>
<!DOCTYPE svg PUBLIC "-//W3C//DTD SVG 1.1//EN"
 "http://www.w3.org/Graphics/SVG/1.1/DTD/svg11.dtd">
<!-- Generated by graphviz version 14.0.0 (20250921.2048)
 -->
<!-- Pages: 1 -->
<svg width="1038pt" height="262pt"
 viewBox="0.00 0.00 1038.00 262.00" xmlns="http://www.w3.org/2000/svg" xmlns:xlink="http://www.w3.org/1999/xlink">
<g id="graph0" class="graph" transform="scale(1 1) rotate(0) translate(4 257.65)">
<polygon fill="white" stroke="none" points="-4,4 -4,-257.65 1033.71,-257.65 1033.71,4 -4,4"/>
<!-- PositioningStack -->
<g id="node1" class="node">
<title>PositioningStack</title>
<polygon fill="lightblue" stroke="lightblue" points="568.11,-253.65 460.61,-253.65 460.61,-212.65 568.11,-212.65 568.11,-253.65"/>
<text xml:space="preserve" text-anchor="middle" x="514.36" y="-236.35" font-family="Times,serif" font-size="14.00">PositioningStack</text>
<text xml:space="preserve" text-anchor="middle" x="514.36" y="-219.85" font-family="Times,serif" font-size="14.00">(Parent Class)</text>
</g>
<!-- PositioningStackNonMicroscope -->
<g id="node2" class="node">
<title>PositioningStackNonMicroscope</title>
<ellipse fill="none" stroke="black" cx="239.36" cy="-52.33" rx="239.36" ry="52.33"/>
<text xml:space="preserve" text-anchor="middle" x="239.36" y="-72.03" font-family="Times,serif" font-size="14.00">PositioningStackNonMicroscope</text>
<text xml:space="preserve" text-anchor="middle" x="239.36" y="-55.53" font-family="Times,serif" font-size="14.00">File: ./lix&#45;profile&#45;collection/startup/components/25&#45;XPS.py</text>
<text xml:space="preserve" text-anchor="middle" x="239.36" y="-39.03" font-family="Times,serif" font-size="14.00">Methods: 0</text>
<text xml:space="preserve" text-anchor="middle" x="239.36" y="-22.53" font-family="Times,serif" font-size="14.00">Attributes: 1</text>
</g>
<!-- PositioningStack&#45;&gt;PositioningStackNonMicroscope -->
<g id="edge1" class="edge">
<title>PositioningStack&#45;&gt;PositioningStackNonMicroscope</title>
<path fill="none" stroke="black" d="M483.61,-212.16C445.33,-187.27 378.4,-143.74 324.26,-108.54"/>
<polygon fill="black" stroke="black" points="326.22,-105.64 315.93,-103.12 322.4,-111.5 326.22,-105.64"/>
</g>
<!-- PositioningStackMicroscope -->
<g id="node3" class="node">
<title>PositioningStackMicroscope</title>
<ellipse fill="none" stroke="black" cx="790.36" cy="-52.33" rx="239.36" ry="52.33"/>
<text xml:space="preserve" text-anchor="middle" x="790.36" y="-72.03" font-family="Times,serif" font-size="14.00">PositioningStackMicroscope</text>
<text xml:space="preserve" text-anchor="middle" x="790.36" y="-55.53" font-family="Times,serif" font-size="14.00">File: ./lix&#45;profile&#45;collection/startup/components/25&#45;XPS.py</text>
<text xml:space="preserve" text-anchor="middle" x="790.36" y="-39.03" font-family="Times,serif" font-size="14.00">Methods: 0</text>
<text xml:space="preserve" text-anchor="middle" x="790.36" y="-22.53" font-family="Times,serif" font-size="14.00">Attributes: 8</text>
</g>
<!-- PositioningStack&#45;&gt;PositioningStackMicroscope -->
<g id="edge2" class="edge">
<title>PositioningStack&#45;&gt;PositioningStackMicroscope</title>
<path fill="none" stroke="black" d="M545.21,-212.16C583.63,-187.27 650.81,-143.74 705.14,-108.54"/>
<polygon fill="black" stroke="black" points="707.02,-111.49 713.51,-103.12 703.21,-105.62 707.02,-111.49"/>
</g>
</g>
</svg>
