<?xml version="1.0" encoding="UTF-8" standalone="no"?>
<!DOCTYPE svg PUBLIC "-//W3C//DTD SVG 1.1//EN"
 "http://www.w3.org/Graphics/SVG/1.1/DTD/svg11.dtd">
<!-- Generated by graphviz version 14.0.0 (20250921.2048)
 -->
<!-- Pages: 1 -->
<svg width="2148pt" height="262pt"
 viewBox="0.00 0.00 2148.00 262.00" xmlns="http://www.w3.org/2000/svg" xmlns:xlink="http://www.w3.org/1999/xlink">
<g id="graph0" class="graph" transform="scale(1 1) rotate(0) translate(4 257.65)">
<polygon fill="white" stroke="none" points="-4,4 -4,-257.65 2143.83,-257.65 2143.83,4 -4,4"/>
<!-- PositionalHolder -->
<g id="node1" class="node">
<title>PositionalHolder</title>
<polygon fill="lightblue" stroke="lightblue" points="1119.98,-253.65 1012.48,-253.65 1012.48,-212.65 1119.98,-212.65 1119.98,-253.65"/>
<text xml:space="preserve" text-anchor="middle" x="1066.23" y="-236.35" font-family="Times,serif" font-size="14.00">PositionalHolder</text>
<text xml:space="preserve" text-anchor="middle" x="1066.23" y="-219.85" font-family="Times,serif" font-size="14.00">(Parent Class)</text>
</g>
<!-- GIBar -->
<g id="node2" class="node">
<title>GIBar</title>
<ellipse fill="none" stroke="black" cx="237.23" cy="-52.33" rx="237.23" ry="52.33"/>
<text xml:space="preserve" text-anchor="middle" x="237.23" y="-72.03" font-family="Times,serif" font-size="14.00">GIBar</text>
<text xml:space="preserve" text-anchor="middle" x="237.23" y="-55.53" font-family="Times,serif" font-size="14.00">File: ./cms&#45;profile&#45;collection/startup/95&#45;sample&#45;custom.py</text>
<text xml:space="preserve" text-anchor="middle" x="237.23" y="-39.03" font-family="Times,serif" font-size="14.00">Methods: 12</text>
<text xml:space="preserve" text-anchor="middle" x="237.23" y="-22.53" font-family="Times,serif" font-size="14.00">Attributes: 14</text>
</g>
<!-- PositionalHolder&#45;&gt;GIBar -->
<g id="edge1" class="edge">
<title>PositionalHolder&#45;&gt;GIBar</title>
<path fill="none" stroke="black" d="M1012.16,-220.49C893.55,-194.9 606.02,-132.88 416.53,-92"/>
<polygon fill="black" stroke="black" points="417.31,-88.59 406.8,-89.9 415.84,-95.43 417.31,-88.59"/>
</g>
<!-- CapillaryHolder -->
<g id="node3" class="node">
<title>CapillaryHolder</title>
<ellipse fill="none" stroke="black" cx="790.23" cy="-52.33" rx="243.6" ry="52.33"/>
<text xml:space="preserve" text-anchor="middle" x="790.23" y="-72.03" font-family="Times,serif" font-size="14.00">CapillaryHolder</text>
<text xml:space="preserve" text-anchor="middle" x="790.23" y="-55.53" font-family="Times,serif" font-size="14.00">File: ./opls&#45;profile&#45;collection/startup/old/990&#45;sample_test.py</text>
<text xml:space="preserve" text-anchor="middle" x="790.23" y="-39.03" font-family="Times,serif" font-size="14.00">Methods: 4</text>
<text xml:space="preserve" text-anchor="middle" x="790.23" y="-22.53" font-family="Times,serif" font-size="14.00">Attributes: 7</text>
</g>
<!-- PositionalHolder&#45;&gt;CapillaryHolder -->
<g id="edge2" class="edge">
<title>PositionalHolder&#45;&gt;CapillaryHolder</title>
<path fill="none" stroke="black" d="M1035.38,-212.16C997.03,-187.31 930.01,-143.89 875.73,-108.72"/>
<polygon fill="black" stroke="black" points="877.67,-105.8 867.37,-103.3 873.86,-111.68 877.67,-105.8"/>
</g>
<!-- WellPlateHolder -->
<g id="node4" class="node">
<title>WellPlateHolder</title>
<ellipse fill="none" stroke="black" cx="1343.23" cy="-52.33" rx="237.23" ry="52.33"/>
<text xml:space="preserve" text-anchor="middle" x="1343.23" y="-72.03" font-family="Times,serif" font-size="14.00">WellPlateHolder</text>
<text xml:space="preserve" text-anchor="middle" x="1343.23" y="-55.53" font-family="Times,serif" font-size="14.00">File: ./cms&#45;profile&#45;collection/startup/95&#45;sample&#45;custom.py</text>
<text xml:space="preserve" text-anchor="middle" x="1343.23" y="-39.03" font-family="Times,serif" font-size="14.00">Methods: 11</text>
<text xml:space="preserve" text-anchor="middle" x="1343.23" y="-22.53" font-family="Times,serif" font-size="14.00">Attributes: 12</text>
</g>
<!-- PositionalHolder&#45;&gt;WellPlateHolder -->
<g id="edge3" class="edge">
<title>PositionalHolder&#45;&gt;WellPlateHolder</title>
<path fill="none" stroke="black" d="M1097.2,-212.16C1135.84,-187.22 1203.46,-143.56 1258.05,-108.32"/>
<polygon fill="black" stroke="black" points="1259.61,-111.48 1266.11,-103.11 1255.81,-105.6 1259.61,-111.48"/>
</g>
<!-- TroughChamber -->
<g id="node5" class="node">
<title>TroughChamber</title>
<ellipse fill="none" stroke="black" cx="1896.23" cy="-52.33" rx="243.6" ry="52.33"/>
<text xml:space="preserve" text-anchor="middle" x="1896.23" y="-72.03" font-family="Times,serif" font-size="14.00">TroughChamber</text>
<text xml:space="preserve" text-anchor="middle" x="1896.23" y="-55.53" font-family="Times,serif" font-size="14.00">File: ./opls&#45;profile&#45;collection/startup/old/990&#45;sample_test.py</text>
<text xml:space="preserve" text-anchor="middle" x="1896.23" y="-39.03" font-family="Times,serif" font-size="14.00">Methods: 4</text>
<text xml:space="preserve" text-anchor="middle" x="1896.23" y="-22.53" font-family="Times,serif" font-size="14.00">Attributes: 7</text>
</g>
<!-- PositionalHolder&#45;&gt;TroughChamber -->
<g id="edge4" class="edge">
<title>PositionalHolder&#45;&gt;TroughChamber</title>
<path fill="none" stroke="black" d="M1120.37,-220.49C1238.69,-195 1524.86,-133.34 1714.61,-92.46"/>
<polygon fill="black" stroke="black" points="1715.31,-95.89 1724.35,-90.36 1713.84,-89.04 1715.31,-95.89"/>
</g>
</g>
</svg>
