<?xml version="1.0" encoding="UTF-8" standalone="no"?>
<!DOCTYPE svg PUBLIC "-//W3C//DTD SVG 1.1//EN"
 "http://www.w3.org/Graphics/SVG/1.1/DTD/svg11.dtd">
<!-- Generated by graphviz version 14.0.0 (20250921.2048)
 -->
<!-- Pages: 1 -->
<svg width="2122pt" height="262pt"
 viewBox="0.00 0.00 2122.00 262.00" xmlns="http://www.w3.org/2000/svg" xmlns:xlink="http://www.w3.org/1999/xlink">
<g id="graph0" class="graph" transform="scale(1 1) rotate(0) translate(4 257.65)">
<polygon fill="white" stroke="none" points="-4,4 -4,-257.65 2117.71,-257.65 2117.71,4 -4,4"/>
<!-- PreDefinedPositions -->
<g id="node1" class="node">
<title>PreDefinedPositions</title>
<polygon fill="lightblue" stroke="lightblue" points="1181.11,-253.65 1054.11,-253.65 1054.11,-212.65 1181.11,-212.65 1181.11,-253.65"/>
<text xml:space="preserve" text-anchor="middle" x="1117.61" y="-236.35" font-family="Times,serif" font-size="14.00">PreDefinedPositions</text>
<text xml:space="preserve" text-anchor="middle" x="1117.61" y="-219.85" font-family="Times,serif" font-size="14.00">(Parent Class)</text>
</g>
<!-- DiagAndSingleAxisMaskClass -->
<g id="node2" class="node">
<title>DiagAndSingleAxisMaskClass</title>
<ellipse fill="none" stroke="black" cx="252.61" cy="-52.33" rx="252.61" ry="52.33"/>
<text xml:space="preserve" text-anchor="middle" x="252.61" y="-72.03" font-family="Times,serif" font-size="14.00">DiagAndSingleAxisMaskClass</text>
<text xml:space="preserve" text-anchor="middle" x="252.61" y="-55.53" font-family="Times,serif" font-size="14.00">File: ./six&#45;profile&#45;collection/startup/82&#45;PreDefinedInstances.py</text>
<text xml:space="preserve" text-anchor="middle" x="252.61" y="-39.03" font-family="Times,serif" font-size="14.00">Methods: 0</text>
<text xml:space="preserve" text-anchor="middle" x="252.61" y="-22.53" font-family="Times,serif" font-size="14.00">Attributes: 1</text>
</g>
<!-- PreDefinedPositions&#45;&gt;DiagAndSingleAxisMaskClass -->
<g id="edge1" class="edge">
<title>PreDefinedPositions&#45;&gt;DiagAndSingleAxisMaskClass</title>
<path fill="none" stroke="black" d="M1053.66,-218.93C925.89,-192.52 634.72,-132.32 440.9,-92.25"/>
<polygon fill="black" stroke="black" points="441.7,-88.84 431.2,-90.25 440.29,-95.7 441.7,-88.84"/>
</g>
<!-- BaffleSlitClass -->
<g id="node3" class="node">
<title>BaffleSlitClass</title>
<ellipse fill="none" stroke="black" cx="829.61" cy="-52.33" rx="252.61" ry="52.33"/>
<text xml:space="preserve" text-anchor="middle" x="829.61" y="-72.03" font-family="Times,serif" font-size="14.00">BaffleSlitClass</text>
<text xml:space="preserve" text-anchor="middle" x="829.61" y="-55.53" font-family="Times,serif" font-size="14.00">File: ./six&#45;profile&#45;collection/startup/82&#45;PreDefinedInstances.py</text>
<text xml:space="preserve" text-anchor="middle" x="829.61" y="-39.03" font-family="Times,serif" font-size="14.00">Methods: 0</text>
<text xml:space="preserve" text-anchor="middle" x="829.61" y="-22.53" font-family="Times,serif" font-size="14.00">Attributes: 8</text>
</g>
<!-- PreDefinedPositions&#45;&gt;BaffleSlitClass -->
<g id="edge2" class="edge">
<title>PreDefinedPositions&#45;&gt;BaffleSlitClass</title>
<path fill="none" stroke="black" d="M1085.41,-212.16C1045.31,-187.26 975.18,-143.71 918.48,-108.5"/>
<polygon fill="black" stroke="black" points="920.41,-105.58 910.07,-103.28 916.71,-111.53 920.41,-105.58"/>
</g>
<!-- BaffleSlitSAClass -->
<g id="node4" class="node">
<title>BaffleSlitSAClass</title>
<ellipse fill="none" stroke="black" cx="1406.61" cy="-52.33" rx="252.61" ry="52.33"/>
<text xml:space="preserve" text-anchor="middle" x="1406.61" y="-72.03" font-family="Times,serif" font-size="14.00">BaffleSlitSAClass</text>
<text xml:space="preserve" text-anchor="middle" x="1406.61" y="-55.53" font-family="Times,serif" font-size="14.00">File: ./six&#45;profile&#45;collection/startup/82&#45;PreDefinedInstances.py</text>
<text xml:space="preserve" text-anchor="middle" x="1406.61" y="-39.03" font-family="Times,serif" font-size="14.00">Methods: 0</text>
<text xml:space="preserve" text-anchor="middle" x="1406.61" y="-22.53" font-family="Times,serif" font-size="14.00">Attributes: 8</text>
</g>
<!-- PreDefinedPositions&#45;&gt;BaffleSlitSAClass -->
<g id="edge3" class="edge">
<title>PreDefinedPositions&#45;&gt;BaffleSlitSAClass</title>
<path fill="none" stroke="black" d="M1149.92,-212.16C1190.16,-187.26 1260.54,-143.71 1317.44,-108.5"/>
<polygon fill="black" stroke="black" points="1319.22,-111.52 1325.89,-103.28 1315.54,-105.56 1319.22,-111.52"/>
</g>
<!-- PGM -->
<g id="node5" class="node">
<title>PGM</title>
<ellipse fill="none" stroke="black" cx="1922.61" cy="-52.33" rx="191.1" ry="52.33"/>
<text xml:space="preserve" text-anchor="middle" x="1922.61" y="-72.03" font-family="Times,serif" font-size="14.00">PGM</text>
<text xml:space="preserve" text-anchor="middle" x="1922.61" y="-55.53" font-family="Times,serif" font-size="14.00">File: ./six&#45;profile&#45;collection/startup/84&#45;pgm.py</text>
<text xml:space="preserve" text-anchor="middle" x="1922.61" y="-39.03" font-family="Times,serif" font-size="14.00">Methods: 0</text>
<text xml:space="preserve" text-anchor="middle" x="1922.61" y="-22.53" font-family="Times,serif" font-size="14.00">Attributes: 13</text>
</g>
<!-- PreDefinedPositions&#45;&gt;PGM -->
<g id="edge4" class="edge">
<title>PreDefinedPositions&#45;&gt;PGM</title>
<path fill="none" stroke="black" d="M1181.36,-218.21C1287.89,-194.87 1508.83,-146.37 1695.61,-104.65 1718.25,-99.6 1742.15,-94.23 1765.61,-88.94"/>
<polygon fill="black" stroke="black" points="1766.25,-92.38 1775.24,-86.77 1764.71,-85.55 1766.25,-92.38"/>
</g>
</g>
</svg>
