<?xml version="1.0" encoding="UTF-8" standalone="no"?>
<!DOCTYPE svg PUBLIC "-//W3C//DTD SVG 1.1//EN"
 "http://www.w3.org/Graphics/SVG/1.1/DTD/svg11.dtd">
<!-- Generated by graphviz version 14.0.0 (20250921.2048)
 -->
<!-- Pages: 1 -->
<svg width="2422pt" height="262pt"
 viewBox="0.00 0.00 2422.00 262.00" xmlns="http://www.w3.org/2000/svg" xmlns:xlink="http://www.w3.org/1999/xlink">
<g id="graph0" class="graph" transform="scale(1 1) rotate(0) translate(4 257.65)">
<polygon fill="white" stroke="none" points="-4,4 -4,-257.65 2418.33,-257.65 2418.33,4 -4,4"/>
<!-- Prompts -->
<g id="node1" class="node">
<title>Prompts</title>
<polygon fill="lightblue" stroke="lightblue" points="1252.48,-253.65 1159.98,-253.65 1159.98,-212.65 1252.48,-212.65 1252.48,-253.65"/>
<text xml:space="preserve" text-anchor="middle" x="1206.23" y="-236.35" font-family="Times,serif" font-size="14.00">Prompts</text>
<text xml:space="preserve" text-anchor="middle" x="1206.23" y="-219.85" font-family="Times,serif" font-size="14.00">(Parent Class)</text>
</g>
<!-- ProposalIDPrompt -->
<g id="node2" class="node">
<title>ProposalIDPrompt</title>
<ellipse fill="none" stroke="black" cx="202.23" cy="-52.33" rx="202.23" ry="52.33"/>
<text xml:space="preserve" text-anchor="middle" x="202.23" y="-72.03" font-family="Times,serif" font-size="14.00">ProposalIDPrompt</text>
<text xml:space="preserve" text-anchor="middle" x="202.23" y="-55.53" font-family="Times,serif" font-size="14.00">File: ./hex&#45;profile&#45;collection/startup/00&#45;startup.py</text>
<text xml:space="preserve" text-anchor="middle" x="202.23" y="-39.03" font-family="Times,serif" font-size="14.00">Methods: 1</text>
<text xml:space="preserve" text-anchor="middle" x="202.23" y="-22.53" font-family="Times,serif" font-size="14.00">Attributes: 0</text>
</g>
<!-- Prompts&#45;&gt;ProposalIDPrompt -->
<g id="edge1" class="edge">
<title>Prompts&#45;&gt;ProposalIDPrompt</title>
<path fill="none" stroke="black" d="M1159.9,-225.22C1040.39,-207.19 712.03,-156.55 440.23,-104.65 415.91,-100.01 390.26,-94.8 365.15,-89.53"/>
<polygon fill="black" stroke="black" points="366.04,-86.14 355.53,-87.5 364.6,-92.99 366.04,-86.14"/>
</g>
<!-- BMMPrompt -->
<g id="node3" class="node">
<title>BMMPrompt</title>
<ellipse fill="none" stroke="black" cx="702.23" cy="-52.33" rx="225.57" ry="52.33"/>
<text xml:space="preserve" text-anchor="middle" x="702.23" y="-72.03" font-family="Times,serif" font-size="14.00">BMMPrompt</text>
<text xml:space="preserve" text-anchor="middle" x="702.23" y="-55.53" font-family="Times,serif" font-size="14.00">File: ./bmm&#45;profile&#45;collection/startup/BMM/prompt.py</text>
<text xml:space="preserve" text-anchor="middle" x="702.23" y="-39.03" font-family="Times,serif" font-size="14.00">Methods: 1</text>
<text xml:space="preserve" text-anchor="middle" x="702.23" y="-22.53" font-family="Times,serif" font-size="14.00">Attributes: 2</text>
</g>
<!-- Prompts&#45;&gt;BMMPrompt -->
<g id="edge2" class="edge">
<title>Prompts&#45;&gt;BMMPrompt</title>
<path fill="none" stroke="black" d="M1159.72,-215.65C1086.61,-189.71 942.1,-138.44 834.97,-100.42"/>
<polygon fill="black" stroke="black" points="836.42,-97.22 825.82,-97.18 834.08,-103.82 836.42,-97.22"/>
</g>
<!-- MyPrompt -->
<g id="node4" class="node">
<title>MyPrompt</title>
<ellipse fill="none" stroke="black" cx="1206.23" cy="-52.33" rx="206.48" ry="52.33"/>
<text xml:space="preserve" text-anchor="middle" x="1206.23" y="-72.03" font-family="Times,serif" font-size="14.00">MyPrompt</text>
<text xml:space="preserve" text-anchor="middle" x="1206.23" y="-55.53" font-family="Times,serif" font-size="14.00">File: ./opls&#45;profile&#45;collection/startup/01&#45;prompt.py</text>
<text xml:space="preserve" text-anchor="middle" x="1206.23" y="-39.03" font-family="Times,serif" font-size="14.00">Methods: 1</text>
<text xml:space="preserve" text-anchor="middle" x="1206.23" y="-22.53" font-family="Times,serif" font-size="14.00">Attributes: 0</text>
</g>
<!-- Prompts&#45;&gt;MyPrompt -->
<g id="edge3" class="edge">
<title>Prompts&#45;&gt;MyPrompt</title>
<path fill="none" stroke="black" d="M1206.23,-212.33C1206.23,-189.21 1206.23,-149.84 1206.23,-116.06"/>
<polygon fill="black" stroke="black" points="1209.73,-116.37 1206.23,-106.37 1202.73,-116.37 1209.73,-116.37"/>
</g>
<!-- RSoXSPrompt -->
<g id="node5" class="node">
<title>RSoXSPrompt</title>
<ellipse fill="none" stroke="black" cx="1722.23" cy="-52.33" rx="237.76" ry="52.33"/>
<text xml:space="preserve" text-anchor="middle" x="1722.23" y="-72.03" font-family="Times,serif" font-size="14.00">RSoXSPrompt</text>
<text xml:space="preserve" text-anchor="middle" x="1722.23" y="-55.53" font-family="Times,serif" font-size="14.00">File: ./opls&#45;profile&#45;collection/startup/magic/magic_eliot.py</text>
<text xml:space="preserve" text-anchor="middle" x="1722.23" y="-39.03" font-family="Times,serif" font-size="14.00">Methods: 1</text>
<text xml:space="preserve" text-anchor="middle" x="1722.23" y="-22.53" font-family="Times,serif" font-size="14.00">Attributes: 1</text>
</g>
<!-- Prompts&#45;&gt;RSoXSPrompt -->
<g id="edge4" class="edge">
<title>Prompts&#45;&gt;RSoXSPrompt</title>
<path fill="none" stroke="black" d="M1252.93,-215.97C1327.24,-190.21 1475.22,-138.93 1585.24,-100.8"/>
<polygon fill="black" stroke="black" points="1586.37,-104.12 1594.67,-97.53 1584.08,-97.5 1586.37,-104.12"/>
</g>
<!-- SRXPrompt -->
<g id="node6" class="node">
<title>SRXPrompt</title>
<ellipse fill="none" stroke="black" cx="2223.23" cy="-52.33" rx="191.1" ry="52.33"/>
<text xml:space="preserve" text-anchor="middle" x="2223.23" y="-72.03" font-family="Times,serif" font-size="14.00">SRXPrompt</text>
<text xml:space="preserve" text-anchor="middle" x="2223.23" y="-55.53" font-family="Times,serif" font-size="14.00">File: ./srx&#45;profile&#45;collection/startup/00&#45;base.py</text>
<text xml:space="preserve" text-anchor="middle" x="2223.23" y="-39.03" font-family="Times,serif" font-size="14.00">Methods: 1</text>
<text xml:space="preserve" text-anchor="middle" x="2223.23" y="-22.53" font-family="Times,serif" font-size="14.00">Attributes: 0</text>
</g>
<!-- Prompts&#45;&gt;SRXPrompt -->
<g id="edge5" class="edge">
<title>Prompts&#45;&gt;SRXPrompt</title>
<path fill="none" stroke="black" d="M1252.71,-225.68C1374.93,-208.45 1715.26,-159.04 1996.23,-104.65 2019.71,-100.11 2044.47,-94.92 2068.65,-89.63"/>
<polygon fill="black" stroke="black" points="2069.23,-93.09 2078.24,-87.52 2067.72,-86.25 2069.23,-93.09"/>
</g>
</g>
</svg>
