<?xml version="1.0" encoding="UTF-8" standalone="no"?>
<!DOCTYPE svg PUBLIC "-//W3C//DTD SVG 1.1//EN"
 "http://www.w3.org/Graphics/SVG/1.1/DTD/svg11.dtd">
<!-- Generated by graphviz version 14.0.0 (20250921.2048)
 -->
<!-- Pages: 1 -->
<svg width="3097pt" height="262pt"
 viewBox="0.00 0.00 3097.00 262.00" xmlns="http://www.w3.org/2000/svg" xmlns:xlink="http://www.w3.org/1999/xlink">
<g id="graph0" class="graph" transform="scale(1 1) rotate(0) translate(4 257.65)">
<polygon fill="white" stroke="none" points="-4,4 -4,-257.65 3092.73,-257.65 3092.73,4 -4,4"/>
<!-- ProsilicaDetector -->
<g id="node1" class="node">
<title>ProsilicaDetector</title>
<polygon fill="lightblue" stroke="lightblue" points="1585.19,-253.65 1475.44,-253.65 1475.44,-212.65 1585.19,-212.65 1585.19,-253.65"/>
<text xml:space="preserve" text-anchor="middle" x="1530.31" y="-236.35" font-family="Times,serif" font-size="14.00">ProsilicaDetector</text>
<text xml:space="preserve" text-anchor="middle" x="1530.31" y="-219.85" font-family="Times,serif" font-size="14.00">(Parent Class)</text>
</g>
<!-- StandardProsilica -->
<g id="node2" class="node">
<title>StandardProsilica</title>
<ellipse fill="none" stroke="black" cx="247.31" cy="-52.33" rx="247.31" ry="52.33"/>
<text xml:space="preserve" text-anchor="middle" x="247.31" y="-72.03" font-family="Times,serif" font-size="14.00">StandardProsilica</text>
<text xml:space="preserve" text-anchor="middle" x="247.31" y="-55.53" font-family="Times,serif" font-size="14.00">File: ./fmx&#45;profile&#45;collection/startup/20&#45;detectors_00_lsdc.py</text>
<text xml:space="preserve" text-anchor="middle" x="247.31" y="-39.03" font-family="Times,serif" font-size="14.00">Methods: 0</text>
<text xml:space="preserve" text-anchor="middle" x="247.31" y="-22.53" font-family="Times,serif" font-size="14.00">Attributes: 13</text>
</g>
<!-- ProsilicaDetector&#45;&gt;StandardProsilica -->
<g id="edge1" class="edge">
<title>ProsilicaDetector&#45;&gt;StandardProsilica</title>
<path fill="none" stroke="black" d="M1474.94,-226.11C1323.5,-209.35 889.88,-159.9 531.31,-104.65 502.2,-100.17 471.49,-95.04 441.44,-89.79"/>
<polygon fill="black" stroke="black" points="442.35,-86.4 431.89,-88.12 441.14,-93.29 442.35,-86.4"/>
</g>
<!-- ProsilicaDetectorV33 -->
<g id="node3" class="node">
<title>ProsilicaDetectorV33</title>
<ellipse fill="none" stroke="black" cx="790.31" cy="-52.33" rx="223.45" ry="52.33"/>
<text xml:space="preserve" text-anchor="middle" x="790.31" y="-72.03" font-family="Times,serif" font-size="14.00">ProsilicaDetectorV33</text>
<text xml:space="preserve" text-anchor="middle" x="790.31" y="-55.53" font-family="Times,serif" font-size="14.00">File: ./tes&#45;profile&#45;collection/startup/26&#45;areadetectors.py</text>
<text xml:space="preserve" text-anchor="middle" x="790.31" y="-39.03" font-family="Times,serif" font-size="14.00">Methods: 0</text>
<text xml:space="preserve" text-anchor="middle" x="790.31" y="-22.53" font-family="Times,serif" font-size="14.00">Attributes: 1</text>
</g>
<!-- ProsilicaDetector&#45;&gt;ProsilicaDetectorV33 -->
<g id="edge2" class="edge">
<title>ProsilicaDetector&#45;&gt;ProsilicaDetectorV33</title>
<path fill="none" stroke="black" d="M1474.99,-218.78C1366.23,-192.5 1120.77,-133.18 955.28,-93.19"/>
<polygon fill="black" stroke="black" points="956.51,-89.89 945.97,-90.94 954.87,-96.69 956.51,-89.89"/>
</g>
<!-- BPM -->
<g id="node4" class="node">
<title>BPM</title>
<ellipse fill="none" stroke="black" cx="1290.31" cy="-52.33" rx="204.35" ry="52.33"/>
<text xml:space="preserve" text-anchor="middle" x="1290.31" y="-72.03" font-family="Times,serif" font-size="14.00">BPM</text>
<text xml:space="preserve" text-anchor="middle" x="1290.31" y="-55.53" font-family="Times,serif" font-size="14.00">File: ./iss&#45;profile&#45;collection/startup/31&#45;cameras.py</text>
<text xml:space="preserve" text-anchor="middle" x="1290.31" y="-39.03" font-family="Times,serif" font-size="14.00">Methods: 7</text>
<text xml:space="preserve" text-anchor="middle" x="1290.31" y="-22.53" font-family="Times,serif" font-size="14.00">Attributes: 32</text>
</g>
<!-- ProsilicaDetector&#45;&gt;BPM -->
<g id="edge3" class="edge">
<title>ProsilicaDetector&#45;&gt;BPM</title>
<path fill="none" stroke="black" d="M1503.71,-212.33C1470.46,-187.56 1412.17,-144.13 1364.91,-108.91"/>
<polygon fill="black" stroke="black" points="1367.24,-106.28 1357.13,-103.11 1363.06,-111.9 1367.24,-106.28"/>
</g>
<!-- CAMERA -->
<g id="node5" class="node">
<title>CAMERA</title>
<ellipse fill="none" stroke="black" cx="1771.31" cy="-52.33" rx="204.35" ry="52.33"/>
<text xml:space="preserve" text-anchor="middle" x="1771.31" y="-72.03" font-family="Times,serif" font-size="14.00">CAMERA</text>
<text xml:space="preserve" text-anchor="middle" x="1771.31" y="-55.53" font-family="Times,serif" font-size="14.00">File: ./iss&#45;profile&#45;collection/startup/31&#45;cameras.py</text>
<text xml:space="preserve" text-anchor="middle" x="1771.31" y="-39.03" font-family="Times,serif" font-size="14.00">Methods: 2</text>
<text xml:space="preserve" text-anchor="middle" x="1771.31" y="-22.53" font-family="Times,serif" font-size="14.00">Attributes: 32</text>
</g>
<!-- ProsilicaDetector&#45;&gt;CAMERA -->
<g id="edge4" class="edge">
<title>ProsilicaDetector&#45;&gt;CAMERA</title>
<path fill="none" stroke="black" d="M1557.02,-212.33C1590.41,-187.56 1648.94,-144.13 1696.4,-108.91"/>
<polygon fill="black" stroke="black" points="1698.27,-111.88 1704.22,-103.11 1694.1,-106.26 1698.27,-111.88"/>
</g>
<!-- SpecialProsilica -->
<g id="node6" class="node">
<title>SpecialProsilica</title>
<ellipse fill="none" stroke="black" cx="2291.31" cy="-52.33" rx="244.13" ry="52.33"/>
<text xml:space="preserve" text-anchor="middle" x="2291.31" y="-72.03" font-family="Times,serif" font-size="14.00">SpecialProsilica</text>
<text xml:space="preserve" text-anchor="middle" x="2291.31" y="-55.53" font-family="Times,serif" font-size="14.00">File: ./amx&#45;profile&#45;collection/startup/96&#45;beam_alignment.py</text>
<text xml:space="preserve" text-anchor="middle" x="2291.31" y="-39.03" font-family="Times,serif" font-size="14.00">Methods: 1</text>
<text xml:space="preserve" text-anchor="middle" x="2291.31" y="-22.53" font-family="Times,serif" font-size="14.00">Attributes: 7</text>
</g>
<!-- ProsilicaDetector&#45;&gt;SpecialProsilica -->
<g id="edge5" class="edge">
<title>ProsilicaDetector&#45;&gt;SpecialProsilica</title>
<path fill="none" stroke="black" d="M1585.65,-219.15C1695.76,-193.27 1946.39,-134.38 2117.3,-94.22"/>
<polygon fill="black" stroke="black" points="2118.03,-97.64 2126.96,-91.95 2116.43,-90.83 2118.03,-97.64"/>
</g>
<!-- StandardProsilicaV33 -->
<g id="node7" class="node">
<title>StandardProsilicaV33</title>
<ellipse fill="none" stroke="black" cx="2848.31" cy="-52.33" rx="240.42" ry="52.33"/>
<text xml:space="preserve" text-anchor="middle" x="2848.31" y="-72.03" font-family="Times,serif" font-size="14.00">StandardProsilicaV33</text>
<text xml:space="preserve" text-anchor="middle" x="2848.31" y="-55.53" font-family="Times,serif" font-size="14.00">File: ./smi&#45;profile&#45;collection/startup/smiclasses/prosilica.py</text>
<text xml:space="preserve" text-anchor="middle" x="2848.31" y="-39.03" font-family="Times,serif" font-size="14.00">Methods: 2</text>
<text xml:space="preserve" text-anchor="middle" x="2848.31" y="-22.53" font-family="Times,serif" font-size="14.00">Attributes: 18</text>
</g>
<!-- ProsilicaDetector&#45;&gt;StandardProsilicaV33 -->
<g id="edge6" class="edge">
<title>ProsilicaDetector&#45;&gt;StandardProsilicaV33</title>
<path fill="none" stroke="black" d="M1585.49,-226.6C1740.99,-210.69 2195.86,-162.37 2571.31,-104.65 2599.82,-100.27 2629.89,-95.18 2659.29,-89.95"/>
<polygon fill="black" stroke="black" points="2659.8,-93.41 2669.03,-88.2 2658.57,-86.52 2659.8,-93.41"/>
</g>
</g>
</svg>
