<?xml version="1.0" encoding="UTF-8" standalone="no"?>
<!DOCTYPE svg PUBLIC "-//W3C//DTD SVG 1.1//EN"
 "http://www.w3.org/Graphics/SVG/1.1/DTD/svg11.dtd">
<!-- Generated by graphviz version 14.0.0 (20250921.2048)
 -->
<!-- Pages: 1 -->
<svg width="15138pt" height="262pt"
 viewBox="0.00 0.00 15138.00 262.00" xmlns="http://www.w3.org/2000/svg" xmlns:xlink="http://www.w3.org/1999/xlink">
<g id="graph0" class="graph" transform="scale(1 1) rotate(0) translate(4 257.65)">
<polygon fill="white" stroke="none" points="-4,4 -4,-257.65 15133.89,-257.65 15133.89,4 -4,4"/>
<!-- PseudoPositioner -->
<g id="node1" class="node">
<title>PseudoPositioner</title>
<polygon fill="lightblue" stroke="lightblue" points="7390.55,-253.65 7280.8,-253.65 7280.8,-212.65 7390.55,-212.65 7390.55,-253.65"/>
<text xml:space="preserve" text-anchor="middle" x="7335.67" y="-236.35" font-family="Times,serif" font-size="14.00">PseudoPositioner</text>
<text xml:space="preserve" text-anchor="middle" x="7335.67" y="-219.85" font-family="Times,serif" font-size="14.00">(Parent Class)</text>
</g>
<!-- GonioCameraPositioner -->
<g id="node2" class="node">
<title>GonioCameraPositioner</title>
<ellipse fill="none" stroke="black" cx="253.67" cy="-52.33" rx="253.67" ry="52.33"/>
<text xml:space="preserve" text-anchor="middle" x="253.67" y="-72.03" font-family="Times,serif" font-size="14.00">GonioCameraPositioner</text>
<text xml:space="preserve" text-anchor="middle" x="253.67" y="-55.53" font-family="Times,serif" font-size="14.00">File: ./amx&#45;profile&#45;collection/startup/96&#45;rot_axis_alignment.py</text>
<text xml:space="preserve" text-anchor="middle" x="253.67" y="-39.03" font-family="Times,serif" font-size="14.00">Methods: 5</text>
<text xml:space="preserve" text-anchor="middle" x="253.67" y="-22.53" font-family="Times,serif" font-size="14.00">Attributes: 9</text>
</g>
<!-- PseudoPositioner&#45;&gt;GonioCameraPositioner -->
<g id="edge1" class="edge">
<title>PseudoPositioner&#45;&gt;GonioCameraPositioner</title>
<path fill="none" stroke="black" d="M7280.4,-232.31C6713.98,-233.8 1955.94,-242.03 543.67,-104.65 511.44,-101.52 477.41,-96.79 444.43,-91.45"/>
<polygon fill="black" stroke="black" points="445.22,-88.04 434.79,-89.87 444.09,-94.94 445.22,-88.04"/>
</g>
<!-- DCM -->
<g id="node3" class="node">
<title>DCM</title>
<ellipse fill="none" stroke="black" cx="793.67" cy="-52.33" rx="214.43" ry="52.33"/>
<text xml:space="preserve" text-anchor="middle" x="793.67" y="-72.03" font-family="Times,serif" font-size="14.00">DCM</text>
<text xml:space="preserve" text-anchor="middle" x="793.67" y="-55.53" font-family="Times,serif" font-size="14.00">File: ./bmm&#45;profile&#45;collection/startup/BMM/dcm.py</text>
<text xml:space="preserve" text-anchor="middle" x="793.67" y="-39.03" font-family="Times,serif" font-size="14.00">Methods: 18</text>
<text xml:space="preserve" text-anchor="middle" x="793.67" y="-22.53" font-family="Times,serif" font-size="14.00">Attributes: 14</text>
</g>
<!-- PseudoPositioner&#45;&gt;DCM -->
<g id="edge2" class="edge">
<title>PseudoPositioner&#45;&gt;DCM</title>
<path fill="none" stroke="black" d="M7280.59,-231.65C6699.19,-226.25 1698.05,-177.84 1043.67,-104.65 1015.78,-101.53 986.39,-96.81 957.94,-91.48"/>
<polygon fill="black" stroke="black" points="958.64,-88.05 948.16,-89.61 957.32,-94.92 958.64,-88.05"/>
</g>
<!-- Mirrors -->
<g id="node4" class="node">
<title>Mirrors</title>
<ellipse fill="none" stroke="black" cx="1304.67" cy="-52.33" rx="224.51" ry="52.33"/>
<text xml:space="preserve" text-anchor="middle" x="1304.67" y="-72.03" font-family="Times,serif" font-size="14.00">Mirrors</text>
<text xml:space="preserve" text-anchor="middle" x="1304.67" y="-55.53" font-family="Times,serif" font-size="14.00">File: ./bmm&#45;profile&#45;collection/startup/BMM/motors.py</text>
<text xml:space="preserve" text-anchor="middle" x="1304.67" y="-39.03" font-family="Times,serif" font-size="14.00">Methods: 10</text>
<text xml:space="preserve" text-anchor="middle" x="1304.67" y="-22.53" font-family="Times,serif" font-size="14.00">Attributes: 14</text>
</g>
<!-- PseudoPositioner&#45;&gt;Mirrors -->
<g id="edge3" class="edge">
<title>PseudoPositioner&#45;&gt;Mirrors</title>
<path fill="none" stroke="black" d="M7280.5,-232.25C6763.24,-233 2756.76,-234.5 1564.67,-104.65 1535.78,-101.5 1505.31,-96.78 1475.8,-91.46"/>
<polygon fill="black" stroke="black" points="1476.5,-88.03 1466.03,-89.66 1475.24,-94.91 1476.5,-88.03"/>
</g>
<!-- XAFSTable -->
<g id="node5" class="node">
<title>XAFSTable</title>
<ellipse fill="none" stroke="black" cx="1825.67" cy="-52.33" rx="224.51" ry="52.33"/>
<text xml:space="preserve" text-anchor="middle" x="1825.67" y="-72.03" font-family="Times,serif" font-size="14.00">XAFSTable</text>
<text xml:space="preserve" text-anchor="middle" x="1825.67" y="-55.53" font-family="Times,serif" font-size="14.00">File: ./bmm&#45;profile&#45;collection/startup/BMM/motors.py</text>
<text xml:space="preserve" text-anchor="middle" x="1825.67" y="-39.03" font-family="Times,serif" font-size="14.00">Methods: 5</text>
<text xml:space="preserve" text-anchor="middle" x="1825.67" y="-22.53" font-family="Times,serif" font-size="14.00">Attributes: 9</text>
</g>
<!-- PseudoPositioner&#45;&gt;XAFSTable -->
<g id="edge4" class="edge">
<title>PseudoPositioner&#45;&gt;XAFSTable</title>
<path fill="none" stroke="black" d="M7280.58,-232.11C6790.19,-231.57 3166.39,-223.56 2085.67,-104.65 2056.88,-101.48 2026.53,-96.77 1997.12,-91.46"/>
<polygon fill="black" stroke="black" points="1997.85,-88.04 1987.39,-89.67 1996.59,-94.92 1997.85,-88.04"/>
</g>
<!-- GonioTable -->
<g id="node6" class="node">
<title>GonioTable</title>
<ellipse fill="none" stroke="black" cx="2346.67" cy="-52.33" rx="224.51" ry="52.33"/>
<text xml:space="preserve" text-anchor="middle" x="2346.67" y="-72.03" font-family="Times,serif" font-size="14.00">GonioTable</text>
<text xml:space="preserve" text-anchor="middle" x="2346.67" y="-55.53" font-family="Times,serif" font-size="14.00">File: ./bmm&#45;profile&#45;collection/startup/BMM/motors.py</text>
<text xml:space="preserve" text-anchor="middle" x="2346.67" y="-39.03" font-family="Times,serif" font-size="14.00">Methods: 5</text>
<text xml:space="preserve" text-anchor="middle" x="2346.67" y="-22.53" font-family="Times,serif" font-size="14.00">Attributes: 9</text>
</g>
<!-- PseudoPositioner&#45;&gt;GonioTable -->
<g id="edge5" class="edge">
<title>PseudoPositioner&#45;&gt;GonioTable</title>
<path fill="none" stroke="black" d="M7280.35,-231.94C6817.09,-229.94 3576.81,-212.25 2607.67,-104.65 2578.68,-101.43 2548.09,-96.68 2518.48,-91.34"/>
<polygon fill="black" stroke="black" points="2519.14,-87.9 2508.67,-89.54 2517.87,-94.78 2519.14,-87.9"/>
</g>
<!-- LockedDwellTimes -->
<g id="node7" class="node">
<title>LockedDwellTimes</title>
<ellipse fill="none" stroke="black" cx="2879.67" cy="-52.33" rx="236.17" ry="52.33"/>
<text xml:space="preserve" text-anchor="middle" x="2879.67" y="-72.03" font-family="Times,serif" font-size="14.00">LockedDwellTimes</text>
<text xml:space="preserve" text-anchor="middle" x="2879.67" y="-55.53" font-family="Times,serif" font-size="14.00">File: ./bmm&#45;profile&#45;collection/startup/BMM/dwelltime.py</text>
<text xml:space="preserve" text-anchor="middle" x="2879.67" y="-39.03" font-family="Times,serif" font-size="14.00">Methods: 4</text>
<text xml:space="preserve" text-anchor="middle" x="2879.67" y="-22.53" font-family="Times,serif" font-size="14.00">Attributes: 11</text>
</g>
<!-- PseudoPositioner&#45;&gt;LockedDwellTimes -->
<g id="edge6" class="edge">
<title>PseudoPositioner&#45;&gt;LockedDwellTimes</title>
<path fill="none" stroke="black" d="M7280.39,-231.66C6848.18,-227.59 4005.3,-197.62 3151.67,-104.65 3121.68,-101.38 3090.03,-96.63 3059.35,-91.32"/>
<polygon fill="black" stroke="black" points="3060.04,-87.89 3049.59,-89.6 3058.83,-94.78 3060.04,-87.89"/>
</g>
<!-- Slits -->
<g id="node8" class="node">
<title>Slits</title>
<ellipse fill="none" stroke="black" cx="3400.67" cy="-52.33" rx="212.84" ry="52.33"/>
<text xml:space="preserve" text-anchor="middle" x="3400.67" y="-72.03" font-family="Times,serif" font-size="14.00">Slits</text>
<text xml:space="preserve" text-anchor="middle" x="3400.67" y="-55.53" font-family="Times,serif" font-size="14.00">File: ./bmm&#45;profile&#45;collection/startup/BMM/slits.py</text>
<text xml:space="preserve" text-anchor="middle" x="3400.67" y="-39.03" font-family="Times,serif" font-size="14.00">Methods: 6</text>
<text xml:space="preserve" text-anchor="middle" x="3400.67" y="-22.53" font-family="Times,serif" font-size="14.00">Attributes: 10</text>
</g>
<!-- PseudoPositioner&#45;&gt;Slits -->
<g id="edge7" class="edge">
<title>PseudoPositioner&#45;&gt;Slits</title>
<path fill="none" stroke="black" d="M7280.41,-231.52C6878.31,-226.74 4396.73,-193.92 3649.67,-104.65 3622.11,-101.36 3593.06,-96.58 3564.91,-91.26"/>
<polygon fill="black" stroke="black" points="3565.72,-87.85 3555.24,-89.39 3564.4,-94.72 3565.72,-87.85"/>
</g>
<!-- GonioSlits -->
<g id="node9" class="node">
<title>GonioSlits</title>
<ellipse fill="none" stroke="black" cx="3898.67" cy="-52.33" rx="212.84" ry="52.33"/>
<text xml:space="preserve" text-anchor="middle" x="3898.67" y="-72.03" font-family="Times,serif" font-size="14.00">GonioSlits</text>
<text xml:space="preserve" text-anchor="middle" x="3898.67" y="-55.53" font-family="Times,serif" font-size="14.00">File: ./bmm&#45;profile&#45;collection/startup/BMM/slits.py</text>
<text xml:space="preserve" text-anchor="middle" x="3898.67" y="-39.03" font-family="Times,serif" font-size="14.00">Methods: 5</text>
<text xml:space="preserve" text-anchor="middle" x="3898.67" y="-22.53" font-family="Times,serif" font-size="14.00">Attributes: 9</text>
</g>
<!-- PseudoPositioner&#45;&gt;GonioSlits -->
<g id="edge8" class="edge">
<title>PseudoPositioner&#45;&gt;GonioSlits</title>
<path fill="none" stroke="black" d="M7280.41,-231.18C6910.47,-224.47 4789.25,-183.07 4147.67,-104.65 4120.12,-101.28 4091.07,-96.47 4062.93,-91.13"/>
<polygon fill="black" stroke="black" points="4063.74,-87.72 4053.26,-89.26 4062.41,-94.6 4063.74,-87.72"/>
</g>
<!-- DetectorStation -->
<g id="node10" class="node">
<title>DetectorStation</title>
<ellipse fill="none" stroke="black" cx="4399.67" cy="-52.33" rx="216.02" ry="52.33"/>
<text xml:space="preserve" text-anchor="middle" x="4399.67" y="-72.03" font-family="Times,serif" font-size="14.00">DetectorStation</text>
<text xml:space="preserve" text-anchor="middle" x="4399.67" y="-55.53" font-family="Times,serif" font-size="14.00">File: ./hxn&#45;profile&#45;collection/startup/12&#45;endstation.py</text>
<text xml:space="preserve" text-anchor="middle" x="4399.67" y="-39.03" font-family="Times,serif" font-size="14.00">Methods: 2</text>
<text xml:space="preserve" text-anchor="middle" x="4399.67" y="-22.53" font-family="Times,serif" font-size="14.00">Attributes: 28</text>
</g>
<!-- PseudoPositioner&#45;&gt;DetectorStation -->
<g id="edge9" class="edge">
<title>PseudoPositioner&#45;&gt;DetectorStation</title>
<path fill="none" stroke="black" d="M7280.6,-232.66C7000.09,-234.62 5702.47,-235.83 4651.67,-104.65 4624,-101.2 4594.83,-96.37 4566.54,-91.05"/>
<polygon fill="black" stroke="black" points="4567.3,-87.63 4556.82,-89.19 4565.98,-94.51 4567.3,-87.63"/>
</g>
<!-- PseudoAngleCorrection -->
<g id="node11" class="node">
<title>PseudoAngleCorrection</title>
<ellipse fill="none" stroke="black" cx="4877.67" cy="-52.33" rx="190.03" ry="52.33"/>
<text xml:space="preserve" text-anchor="middle" x="4877.67" y="-72.03" font-family="Times,serif" font-size="14.00">PseudoAngleCorrection</text>
<text xml:space="preserve" text-anchor="middle" x="4877.67" y="-55.53" font-family="Times,serif" font-size="14.00">File: ./hxn&#45;profile&#45;collection/startup/13&#45;mll.py</text>
<text xml:space="preserve" text-anchor="middle" x="4877.67" y="-39.03" font-family="Times,serif" font-size="14.00">Methods: 5</text>
<text xml:space="preserve" text-anchor="middle" x="4877.67" y="-22.53" font-family="Times,serif" font-size="14.00">Attributes: 5</text>
</g>
<!-- PseudoPositioner&#45;&gt;PseudoAngleCorrection -->
<g id="edge10" class="edge">
<title>PseudoPositioner&#45;&gt;PseudoAngleCorrection</title>
<path fill="none" stroke="black" d="M7280.54,-232.37C7028.96,-232.65 5965.04,-226.2 5103.67,-104.65 5078.77,-101.14 5052.56,-96.28 5027.16,-90.94"/>
<polygon fill="black" stroke="black" points="5027.94,-87.53 5017.42,-88.86 5026.47,-94.38 5027.94,-87.53"/>
</g>
<!-- PseudoEnergyCal -->
<g id="node12" class="node">
<title>PseudoEnergyCal</title>
<ellipse fill="none" stroke="black" cx="5339.67" cy="-52.33" rx="199.58" ry="52.33"/>
<text xml:space="preserve" text-anchor="middle" x="5339.67" y="-72.03" font-family="Times,serif" font-size="14.00">PseudoEnergyCal</text>
<text xml:space="preserve" text-anchor="middle" x="5339.67" y="-55.53" font-family="Times,serif" font-size="14.00">File: ./hxn&#45;profile&#45;collection/startup/10&#45;optics.py</text>
<text xml:space="preserve" text-anchor="middle" x="5339.67" y="-39.03" font-family="Times,serif" font-size="14.00">Methods: 4</text>
<text xml:space="preserve" text-anchor="middle" x="5339.67" y="-22.53" font-family="Times,serif" font-size="14.00">Attributes: 2</text>
</g>
<!-- PseudoPositioner&#45;&gt;PseudoEnergyCal -->
<g id="edge11" class="edge">
<title>PseudoPositioner&#45;&gt;PseudoEnergyCal</title>
<path fill="none" stroke="black" d="M7280.59,-231.02C7062.93,-225.97 6242.09,-201.19 5574.67,-104.65 5549.18,-100.96 5522.33,-96.07 5496.25,-90.77"/>
<polygon fill="black" stroke="black" points="5497.11,-87.38 5486.61,-88.78 5495.7,-94.23 5497.11,-87.38"/>
</g>
<!-- FineSampleLabX -->
<g id="node13" class="node">
<title>FineSampleLabX</title>
<ellipse fill="none" stroke="black" cx="5796.67" cy="-52.33" rx="185.79" ry="52.33"/>
<text xml:space="preserve" text-anchor="middle" x="5796.67" y="-72.03" font-family="Times,serif" font-size="14.00">FineSampleLabX</text>
<text xml:space="preserve" text-anchor="middle" x="5796.67" y="-55.53" font-family="Times,serif" font-size="14.00">File: ./hxn&#45;profile&#45;collection/startup/15&#45;zp.py</text>
<text xml:space="preserve" text-anchor="middle" x="5796.67" y="-39.03" font-family="Times,serif" font-size="14.00">Methods: 5</text>
<text xml:space="preserve" text-anchor="middle" x="5796.67" y="-22.53" font-family="Times,serif" font-size="14.00">Attributes: 11</text>
</g>
<!-- PseudoPositioner&#45;&gt;FineSampleLabX -->
<g id="edge12" class="edge">
<title>PseudoPositioner&#45;&gt;FineSampleLabX</title>
<path fill="none" stroke="black" d="M7280.41,-229.42C7098.68,-219.88 6503.45,-184.2 6017.67,-104.65 5993.91,-100.76 5968.89,-95.8 5944.57,-90.5"/>
<polygon fill="black" stroke="black" points="5945.45,-87.11 5934.94,-88.38 5943.95,-93.95 5945.45,-87.11"/>
</g>
<!-- BLEnergy -->
<g id="node14" class="node">
<title>BLEnergy</title>
<ellipse fill="none" stroke="black" cx="6281.67" cy="-52.33" rx="227.69" ry="52.33"/>
<text xml:space="preserve" text-anchor="middle" x="6281.67" y="-72.03" font-family="Times,serif" font-size="14.00">BLEnergy</text>
<text xml:space="preserve" text-anchor="middle" x="6281.67" y="-55.53" font-family="Times,serif" font-size="14.00">File: ./ixs&#45;profile&#45;collection/startup/25&#45;pseudomotors.py</text>
<text xml:space="preserve" text-anchor="middle" x="6281.67" y="-39.03" font-family="Times,serif" font-size="14.00">Methods: 2</text>
<text xml:space="preserve" text-anchor="middle" x="6281.67" y="-22.53" font-family="Times,serif" font-size="14.00">Attributes: 8</text>
</g>
<!-- PseudoPositioner&#45;&gt;BLEnergy -->
<g id="edge13" class="edge">
<title>PseudoPositioner&#45;&gt;BLEnergy</title>
<path fill="none" stroke="black" d="M7280.43,-223.89C7151.4,-204.44 6820.27,-153.74 6544.67,-104.65 6518.31,-99.96 6490.5,-94.78 6463.23,-89.57"/>
<polygon fill="black" stroke="black" points="6463.96,-86.14 6453.48,-87.7 6462.65,-93.02 6463.96,-86.14"/>
</g>
<!-- DCMEnergy -->
<g id="node15" class="node">
<title>DCMEnergy</title>
<ellipse fill="none" stroke="black" cx="6808.67" cy="-52.33" rx="227.69" ry="52.33"/>
<text xml:space="preserve" text-anchor="middle" x="6808.67" y="-72.03" font-family="Times,serif" font-size="14.00">DCMEnergy</text>
<text xml:space="preserve" text-anchor="middle" x="6808.67" y="-55.53" font-family="Times,serif" font-size="14.00">File: ./ixs&#45;profile&#45;collection/startup/25&#45;pseudomotors.py</text>
<text xml:space="preserve" text-anchor="middle" x="6808.67" y="-39.03" font-family="Times,serif" font-size="14.00">Methods: 2</text>
<text xml:space="preserve" text-anchor="middle" x="6808.67" y="-22.53" font-family="Times,serif" font-size="14.00">Attributes: 6</text>
</g>
<!-- PseudoPositioner&#45;&gt;DCMEnergy -->
<g id="edge14" class="edge">
<title>PseudoPositioner&#45;&gt;DCMEnergy</title>
<path fill="none" stroke="black" d="M7280.77,-213.52C7202.19,-186.86 7055.1,-136.94 6945.9,-99.89"/>
<polygon fill="black" stroke="black" points="6947.15,-96.62 6936.55,-96.72 6944.9,-103.25 6947.15,-96.62"/>
</g>
<!-- HRMEnergy -->
<g id="node16" class="node">
<title>HRMEnergy</title>
<ellipse fill="none" stroke="black" cx="7335.67" cy="-52.33" rx="227.69" ry="52.33"/>
<text xml:space="preserve" text-anchor="middle" x="7335.67" y="-72.03" font-family="Times,serif" font-size="14.00">HRMEnergy</text>
<text xml:space="preserve" text-anchor="middle" x="7335.67" y="-55.53" font-family="Times,serif" font-size="14.00">File: ./ixs&#45;profile&#45;collection/startup/25&#45;pseudomotors.py</text>
<text xml:space="preserve" text-anchor="middle" x="7335.67" y="-39.03" font-family="Times,serif" font-size="14.00">Methods: 2</text>
<text xml:space="preserve" text-anchor="middle" x="7335.67" y="-22.53" font-family="Times,serif" font-size="14.00">Attributes: 5</text>
</g>
<!-- PseudoPositioner&#45;&gt;HRMEnergy -->
<g id="edge15" class="edge">
<title>PseudoPositioner&#45;&gt;HRMEnergy</title>
<path fill="none" stroke="black" d="M7335.67,-212.33C7335.67,-189.21 7335.67,-149.84 7335.67,-116.06"/>
<polygon fill="black" stroke="black" points="7339.17,-116.37 7335.67,-106.37 7332.17,-116.37 7339.17,-116.37"/>
</g>
<!-- AnalyzerCXtal -->
<g id="node17" class="node">
<title>AnalyzerCXtal</title>
<ellipse fill="none" stroke="black" cx="7862.67" cy="-52.33" rx="227.69" ry="52.33"/>
<text xml:space="preserve" text-anchor="middle" x="7862.67" y="-72.03" font-family="Times,serif" font-size="14.00">AnalyzerCXtal</text>
<text xml:space="preserve" text-anchor="middle" x="7862.67" y="-55.53" font-family="Times,serif" font-size="14.00">File: ./ixs&#45;profile&#45;collection/startup/25&#45;pseudomotors.py</text>
<text xml:space="preserve" text-anchor="middle" x="7862.67" y="-39.03" font-family="Times,serif" font-size="14.00">Methods: 2</text>
<text xml:space="preserve" text-anchor="middle" x="7862.67" y="-22.53" font-family="Times,serif" font-size="14.00">Attributes: 21</text>
</g>
<!-- PseudoPositioner&#45;&gt;AnalyzerCXtal -->
<g id="edge16" class="edge">
<title>PseudoPositioner&#45;&gt;AnalyzerCXtal</title>
<path fill="none" stroke="black" d="M7390.58,-213.52C7469.16,-186.86 7616.25,-136.94 7725.45,-99.89"/>
<polygon fill="black" stroke="black" points="7726.45,-103.25 7734.8,-96.72 7724.2,-96.62 7726.45,-103.25"/>
</g>
<!-- SamplePrime -->
<g id="node18" class="node">
<title>SamplePrime</title>
<ellipse fill="none" stroke="black" cx="8389.67" cy="-52.33" rx="227.69" ry="52.33"/>
<text xml:space="preserve" text-anchor="middle" x="8389.67" y="-72.03" font-family="Times,serif" font-size="14.00">SamplePrime</text>
<text xml:space="preserve" text-anchor="middle" x="8389.67" y="-55.53" font-family="Times,serif" font-size="14.00">File: ./ixs&#45;profile&#45;collection/startup/25&#45;pseudomotors.py</text>
<text xml:space="preserve" text-anchor="middle" x="8389.67" y="-39.03" font-family="Times,serif" font-size="14.00">Methods: 2</text>
<text xml:space="preserve" text-anchor="middle" x="8389.67" y="-22.53" font-family="Times,serif" font-size="14.00">Attributes: 11</text>
</g>
<!-- PseudoPositioner&#45;&gt;SamplePrime -->
<g id="edge17" class="edge">
<title>PseudoPositioner&#45;&gt;SamplePrime</title>
<path fill="none" stroke="black" d="M7390.92,-223.89C7519.95,-204.44 7851.08,-153.74 8126.67,-104.65 8153.04,-99.96 8180.85,-94.78 8208.12,-89.57"/>
<polygon fill="black" stroke="black" points="8208.7,-93.02 8217.86,-87.7 8207.38,-86.14 8208.7,-93.02"/>
</g>
<!-- Geometry -->
<g id="node19" class="node">
<title>Geometry</title>
<ellipse fill="none" stroke="black" cx="8903.67" cy="-52.33" rx="214.43" ry="52.33"/>
<text xml:space="preserve" text-anchor="middle" x="8903.67" y="-72.03" font-family="Times,serif" font-size="14.00">Geometry</text>
<text xml:space="preserve" text-anchor="middle" x="8903.67" y="-55.53" font-family="Times,serif" font-size="14.00">File: ./opls&#45;profile&#45;collection/startup/30&#45;geometry.py</text>
<text xml:space="preserve" text-anchor="middle" x="8903.67" y="-39.03" font-family="Times,serif" font-size="14.00">Methods: 5</text>
<text xml:space="preserve" text-anchor="middle" x="8903.67" y="-22.53" font-family="Times,serif" font-size="14.00">Attributes: 60</text>
</g>
<!-- PseudoPositioner&#45;&gt;Geometry -->
<g id="edge18" class="edge">
<title>PseudoPositioner&#45;&gt;Geometry</title>
<path fill="none" stroke="black" d="M7390.86,-228.92C7572.35,-217.83 8166.92,-177.95 8653.67,-104.65 8680.15,-100.67 8708.05,-95.7 8735.24,-90.44"/>
<polygon fill="black" stroke="black" points="8735.8,-93.9 8744.94,-88.54 8734.46,-87.03 8735.8,-93.9"/>
</g>
<!-- Energy -->
<g id="node20" class="node">
<title>Energy</title>
<ellipse fill="none" stroke="black" cx="9396.67" cy="-52.33" rx="207.01" ry="52.33"/>
<text xml:space="preserve" text-anchor="middle" x="9396.67" y="-72.03" font-family="Times,serif" font-size="14.00">Energy</text>
<text xml:space="preserve" text-anchor="middle" x="9396.67" y="-55.53" font-family="Times,serif" font-size="14.00">File: ./srx&#45;profile&#45;collection/startup/10&#45;machine.py</text>
<text xml:space="preserve" text-anchor="middle" x="9396.67" y="-39.03" font-family="Times,serif" font-size="14.00">Methods: 9</text>
<text xml:space="preserve" text-anchor="middle" x="9396.67" y="-22.53" font-family="Times,serif" font-size="14.00">Attributes: 42</text>
</g>
<!-- PseudoPositioner&#45;&gt;Energy -->
<g id="edge19" class="edge">
<title>PseudoPositioner&#45;&gt;Energy</title>
<path fill="none" stroke="black" d="M7391,-231.06C7613.3,-226.07 8462.75,-201.38 9153.67,-104.65 9180.04,-100.96 9207.82,-96.06 9234.81,-90.76"/>
<polygon fill="black" stroke="black" points="9235.3,-94.23 9244.42,-88.84 9233.93,-87.36 9235.3,-94.23"/>
</g>
<!-- AbsShutter -->
<g id="node21" class="node">
<title>AbsShutter</title>
<ellipse fill="none" stroke="black" cx="9923.67" cy="-52.33" rx="247.84" ry="52.33"/>
<text xml:space="preserve" text-anchor="middle" x="9923.67" y="-72.03" font-family="Times,serif" font-size="14.00">AbsShutter</text>
<text xml:space="preserve" text-anchor="middle" x="9923.67" y="-55.53" font-family="Times,serif" font-size="14.00">File: ./opls&#45;profile&#45;collection/startup/tmp/51&#45;absorber_bak.py</text>
<text xml:space="preserve" text-anchor="middle" x="9923.67" y="-39.03" font-family="Times,serif" font-size="14.00">Methods: 2</text>
<text xml:space="preserve" text-anchor="middle" x="9923.67" y="-22.53" font-family="Times,serif" font-size="14.00">Attributes: 2</text>
</g>
<!-- PseudoPositioner&#45;&gt;AbsShutter -->
<g id="edge20" class="edge">
<title>PseudoPositioner&#45;&gt;AbsShutter</title>
<path fill="none" stroke="black" d="M7390.74,-231.61C7646.75,-228.57 8745.96,-209.73 9639.67,-104.65 9670.39,-101.04 9702.8,-96.19 9734.31,-90.9"/>
<polygon fill="black" stroke="black" points="9734.65,-94.39 9743.92,-89.27 9733.47,-87.49 9734.65,-94.39"/>
</g>
<!-- SamplePositioner -->
<g id="node22" class="node">
<title>SamplePositioner</title>
<ellipse fill="none" stroke="black" cx="10473.67" cy="-52.33" rx="230.34" ry="52.33"/>
<text xml:space="preserve" text-anchor="middle" x="10473.67" y="-72.03" font-family="Times,serif" font-size="14.00">SamplePositioner</text>
<text xml:space="preserve" text-anchor="middle" x="10473.67" y="-55.53" font-family="Times,serif" font-size="14.00">File: ./chx&#45;profile&#45;collection/startup/80&#45;pseudomotors.py</text>
<text xml:space="preserve" text-anchor="middle" x="10473.67" y="-39.03" font-family="Times,serif" font-size="14.00">Methods: 2</text>
<text xml:space="preserve" text-anchor="middle" x="10473.67" y="-22.53" font-family="Times,serif" font-size="14.00">Attributes: 4</text>
</g>
<!-- PseudoPositioner&#45;&gt;SamplePositioner -->
<g id="edge21" class="edge">
<title>PseudoPositioner&#45;&gt;SamplePositioner</title>
<path fill="none" stroke="black" d="M7390.94,-230.8C7739.09,-222.14 9632.4,-172.55 10207.67,-104.65 10236.67,-101.23 10267.24,-96.45 10296.92,-91.17"/>
<polygon fill="black" stroke="black" points="10297.53,-94.62 10306.75,-89.4 10296.29,-87.73 10297.53,-94.62"/>
</g>
<!-- KBMirrorHorizontal -->
<g id="node23" class="node">
<title>KBMirrorHorizontal</title>
<ellipse fill="none" stroke="black" cx="11024.67" cy="-52.33" rx="248.9" ry="52.33"/>
<text xml:space="preserve" text-anchor="middle" x="11024.67" y="-72.03" font-family="Times,serif" font-size="14.00">KBMirrorHorizontal</text>
<text xml:space="preserve" text-anchor="middle" x="11024.67" y="-55.53" font-family="Times,serif" font-size="14.00">File: ./lix&#45;profile&#45;collection/startup/components/10&#45;motors.py</text>
<text xml:space="preserve" text-anchor="middle" x="11024.67" y="-39.03" font-family="Times,serif" font-size="14.00">Methods: 2</text>
<text xml:space="preserve" text-anchor="middle" x="11024.67" y="-22.53" font-family="Times,serif" font-size="14.00">Attributes: 12</text>
</g>
<!-- PseudoPositioner&#45;&gt;KBMirrorHorizontal -->
<g id="edge22" class="edge">
<title>PseudoPositioner&#45;&gt;KBMirrorHorizontal</title>
<path fill="none" stroke="black" d="M7390.91,-231.15C7774.93,-224.02 10051.4,-179.14 10739.67,-104.65 10770.86,-101.28 10803.77,-96.5 10835.72,-91.2"/>
<polygon fill="black" stroke="black" points="10836.2,-94.67 10845.48,-89.56 10835.04,-87.77 10836.2,-94.67"/>
</g>
<!-- KBMirrorVertical -->
<g id="node24" class="node">
<title>KBMirrorVertical</title>
<ellipse fill="none" stroke="black" cx="11594.67" cy="-52.33" rx="248.9" ry="52.33"/>
<text xml:space="preserve" text-anchor="middle" x="11594.67" y="-72.03" font-family="Times,serif" font-size="14.00">KBMirrorVertical</text>
<text xml:space="preserve" text-anchor="middle" x="11594.67" y="-55.53" font-family="Times,serif" font-size="14.00">File: ./lix&#45;profile&#45;collection/startup/components/10&#45;motors.py</text>
<text xml:space="preserve" text-anchor="middle" x="11594.67" y="-39.03" font-family="Times,serif" font-size="14.00">Methods: 2</text>
<text xml:space="preserve" text-anchor="middle" x="11594.67" y="-22.53" font-family="Times,serif" font-size="14.00">Attributes: 11</text>
</g>
<!-- PseudoPositioner&#45;&gt;KBMirrorVertical -->
<g id="edge23" class="edge">
<title>PseudoPositioner&#45;&gt;KBMirrorVertical</title>
<path fill="none" stroke="black" d="M7390.81,-231.49C7810.07,-226.31 10500.28,-190.06 11309.67,-104.65 11340.98,-101.35 11374.02,-96.59 11406.08,-91.29"/>
<polygon fill="black" stroke="black" points="11406.6,-94.75 11415.88,-89.64 11405.44,-87.85 11406.6,-94.75"/>
</g>
<!-- Blades -->
<g id="node25" class="node">
<title>Blades</title>
<ellipse fill="none" stroke="black" cx="12164.67" cy="-52.33" rx="248.9" ry="52.33"/>
<text xml:space="preserve" text-anchor="middle" x="12164.67" y="-72.03" font-family="Times,serif" font-size="14.00">Blades</text>
<text xml:space="preserve" text-anchor="middle" x="12164.67" y="-55.53" font-family="Times,serif" font-size="14.00">File: ./lix&#45;profile&#45;collection/startup/components/10&#45;motors.py</text>
<text xml:space="preserve" text-anchor="middle" x="12164.67" y="-39.03" font-family="Times,serif" font-size="14.00">Methods: 2</text>
<text xml:space="preserve" text-anchor="middle" x="12164.67" y="-22.53" font-family="Times,serif" font-size="14.00">Attributes: 16</text>
</g>
<!-- PseudoPositioner&#45;&gt;Blades -->
<g id="edge24" class="edge">
<title>PseudoPositioner&#45;&gt;Blades</title>
<path fill="none" stroke="black" d="M7390.96,-231.75C7843.79,-228.25 10948.95,-200.97 11879.67,-104.65 11911.1,-101.4 11944.27,-96.65 11976.44,-91.34"/>
<polygon fill="black" stroke="black" points="11976.99,-94.79 11986.27,-89.69 11975.83,-87.89 11976.99,-94.79"/>
</g>
<!-- Microscope -->
<g id="node26" class="node">
<title>Microscope</title>
<ellipse fill="none" stroke="black" cx="12734.67" cy="-52.33" rx="248.9" ry="52.33"/>
<text xml:space="preserve" text-anchor="middle" x="12734.67" y="-72.03" font-family="Times,serif" font-size="14.00">Microscope</text>
<text xml:space="preserve" text-anchor="middle" x="12734.67" y="-55.53" font-family="Times,serif" font-size="14.00">File: ./lix&#45;profile&#45;collection/startup/components/10&#45;motors.py</text>
<text xml:space="preserve" text-anchor="middle" x="12734.67" y="-39.03" font-family="Times,serif" font-size="14.00">Methods: 2</text>
<text xml:space="preserve" text-anchor="middle" x="12734.67" y="-22.53" font-family="Times,serif" font-size="14.00">Attributes: 12</text>
</g>
<!-- PseudoPositioner&#45;&gt;Microscope -->
<g id="edge25" class="edge">
<title>PseudoPositioner&#45;&gt;Microscope</title>
<path fill="none" stroke="black" d="M7390.84,-231.94C7874.3,-229.96 11397.15,-211.91 12449.67,-104.65 12481.11,-101.45 12514.28,-96.73 12546.44,-91.42"/>
<polygon fill="black" stroke="black" points="12547,-94.88 12556.28,-89.77 12545.84,-87.97 12547,-94.88"/>
</g>
<!-- PseudoBimorph -->
<g id="node27" class="node">
<title>PseudoBimorph</title>
<ellipse fill="none" stroke="black" cx="13310.67" cy="-52.33" rx="254.74" ry="52.33"/>
<text xml:space="preserve" text-anchor="middle" x="13310.67" y="-72.03" font-family="Times,serif" font-size="14.00">PseudoBimorph</text>
<text xml:space="preserve" text-anchor="middle" x="13310.67" y="-55.53" font-family="Times,serif" font-size="14.00">File: ./lix&#45;profile&#45;collection/startup/components/11&#45;bimorph.py</text>
<text xml:space="preserve" text-anchor="middle" x="13310.67" y="-39.03" font-family="Times,serif" font-size="14.00">Methods: 4</text>
<text xml:space="preserve" text-anchor="middle" x="13310.67" y="-22.53" font-family="Times,serif" font-size="14.00">Attributes: 31</text>
</g>
<!-- PseudoPositioner&#45;&gt;PseudoBimorph -->
<g id="edge26" class="edge">
<title>PseudoPositioner&#45;&gt;PseudoBimorph</title>
<path fill="none" stroke="black" d="M7390.8,-232.08C7903.44,-231.2 11844.94,-220.74 13019.67,-104.65 13051.9,-101.47 13085.92,-96.73 13118.89,-91.41"/>
<polygon fill="black" stroke="black" points="13119.24,-94.9 13128.54,-89.83 13118.1,-87.99 13119.24,-94.9"/>
</g>
<!-- PseudoFilterWheel -->
<g id="node28" class="node">
<title>PseudoFilterWheel</title>
<ellipse fill="none" stroke="black" cx="13830.67" cy="-52.33" rx="193.22" ry="52.33"/>
<text xml:space="preserve" text-anchor="middle" x="13830.67" y="-72.03" font-family="Times,serif" font-size="14.00">PseudoFilterWheel</text>
<text xml:space="preserve" text-anchor="middle" x="13830.67" y="-55.53" font-family="Times,serif" font-size="14.00">File: ./xfp&#45;profile&#45;collection/startup/25&#45;filter.py</text>
<text xml:space="preserve" text-anchor="middle" x="13830.67" y="-39.03" font-family="Times,serif" font-size="14.00">Methods: 3</text>
<text xml:space="preserve" text-anchor="middle" x="13830.67" y="-22.53" font-family="Times,serif" font-size="14.00">Attributes: 10</text>
</g>
<!-- PseudoPositioner&#45;&gt;PseudoFilterWheel -->
<g id="edge27" class="edge">
<title>PseudoPositioner&#45;&gt;PseudoFilterWheel</title>
<path fill="none" stroke="black" d="M7390.99,-231.7C7972.19,-226.88 12950.86,-183.4 13601.67,-104.65 13627.42,-101.54 13654.52,-96.8 13680.72,-91.43"/>
<polygon fill="black" stroke="black" points="13681.32,-94.88 13690.4,-89.41 13679.89,-88.03 13681.32,-94.88"/>
</g>
<!-- ISSPseudoPositioner -->
<g id="node29" class="node">
<title>ISSPseudoPositioner</title>
<ellipse fill="none" stroke="black" cx="14348.67" cy="-52.33" rx="252.61" ry="52.33"/>
<text xml:space="preserve" text-anchor="middle" x="14348.67" y="-72.03" font-family="Times,serif" font-size="14.00">ISSPseudoPositioner</text>
<text xml:space="preserve" text-anchor="middle" x="14348.67" y="-55.53" font-family="Times,serif" font-size="14.00">File: ./iss&#45;profile&#45;collection/startup/80&#45;johann_spectrometer.py</text>
<text xml:space="preserve" text-anchor="middle" x="14348.67" y="-39.03" font-family="Times,serif" font-size="14.00">Methods: 7</text>
<text xml:space="preserve" text-anchor="middle" x="14348.67" y="-22.53" font-family="Times,serif" font-size="14.00">Attributes: 6</text>
</g>
<!-- PseudoPositioner&#45;&gt;ISSPseudoPositioner -->
<g id="edge28" class="edge">
<title>PseudoPositioner&#45;&gt;ISSPseudoPositioner</title>
<path fill="none" stroke="black" d="M7390.83,-232.31C7953.6,-233.7 12661.96,-241.17 14059.67,-104.65 14091.8,-101.51 14125.72,-96.79 14158.58,-91.45"/>
<polygon fill="black" stroke="black" points="14158.89,-94.95 14168.18,-89.86 14157.75,-88.04 14158.89,-94.95"/>
</g>
<!-- ProjectedTopStage -->
<g id="node30" class="node">
<title>ProjectedTopStage</title>
<ellipse fill="none" stroke="black" cx="14901.67" cy="-52.33" rx="228.22" ry="52.33"/>
<text xml:space="preserve" text-anchor="middle" x="14901.67" y="-72.03" font-family="Times,serif" font-size="14.00">ProjectedTopStage</text>
<text xml:space="preserve" text-anchor="middle" x="14901.67" y="-55.53" font-family="Times,serif" font-size="14.00">File: ./srx&#45;profile&#45;collection/startup/19&#45;pseudomotors.py</text>
<text xml:space="preserve" text-anchor="middle" x="14901.67" y="-39.03" font-family="Times,serif" font-size="14.00">Methods: 8</text>
<text xml:space="preserve" text-anchor="middle" x="14901.67" y="-22.53" font-family="Times,serif" font-size="14.00">Attributes: 28</text>
</g>
<!-- PseudoPositioner&#45;&gt;ProjectedTopStage -->
<g id="edge29" class="edge">
<title>PseudoPositioner&#45;&gt;ProjectedTopStage</title>
<path fill="none" stroke="black" d="M7390.97,-231.78C8023.01,-227.4 13874.4,-184.89 14637.67,-104.65 14667.14,-101.55 14698.22,-96.84 14728.3,-91.5"/>
<polygon fill="black" stroke="black" points="14728.63,-95 14737.85,-89.77 14727.38,-88.11 14728.63,-95"/>
</g>
</g>
</svg>
