<?xml version="1.0" encoding="UTF-8" standalone="no"?>
<!DOCTYPE svg PUBLIC "-//W3C//DTD SVG 1.1//EN"
 "http://www.w3.org/Graphics/SVG/1.1/DTD/svg11.dtd">
<!-- Generated by graphviz version 14.0.0 (20250921.2048)
 -->
<!-- Pages: 1 -->
<svg width="840pt" height="262pt"
 viewBox="0.00 0.00 840.00 262.00" xmlns="http://www.w3.org/2000/svg" xmlns:xlink="http://www.w3.org/1999/xlink">
<g id="graph0" class="graph" transform="scale(1 1) rotate(0) translate(4 257.65)">
<polygon fill="white" stroke="none" points="-4,4 -4,-257.65 836.07,-257.65 836.07,4 -4,4"/>
<!-- PseudoAngleCorrection -->
<g id="node1" class="node">
<title>PseudoAngleCorrection</title>
<polygon fill="lightblue" stroke="lightblue" points="488.91,-253.65 343.16,-253.65 343.16,-212.65 488.91,-212.65 488.91,-253.65"/>
<text xml:space="preserve" text-anchor="middle" x="416.03" y="-236.35" font-family="Times,serif" font-size="14.00">PseudoAngleCorrection</text>
<text xml:space="preserve" text-anchor="middle" x="416.03" y="-219.85" font-family="Times,serif" font-size="14.00">(Parent Class)</text>
</g>
<!-- PseudoMLLFineSample -->
<g id="node2" class="node">
<title>PseudoMLLFineSample</title>
<ellipse fill="none" stroke="black" cx="190.03" cy="-52.33" rx="190.03" ry="52.33"/>
<text xml:space="preserve" text-anchor="middle" x="190.03" y="-72.03" font-family="Times,serif" font-size="14.00">PseudoMLLFineSample</text>
<text xml:space="preserve" text-anchor="middle" x="190.03" y="-55.53" font-family="Times,serif" font-size="14.00">File: ./hxn&#45;profile&#45;collection/startup/13&#45;mll.py</text>
<text xml:space="preserve" text-anchor="middle" x="190.03" y="-39.03" font-family="Times,serif" font-size="14.00">Methods: 0</text>
<text xml:space="preserve" text-anchor="middle" x="190.03" y="-22.53" font-family="Times,serif" font-size="14.00">Attributes: 5</text>
</g>
<!-- PseudoAngleCorrection&#45;&gt;PseudoMLLFineSample -->
<g id="edge1" class="edge">
<title>PseudoAngleCorrection&#45;&gt;PseudoMLLFineSample</title>
<path fill="none" stroke="black" d="M390.99,-212.33C359.81,-187.66 305.24,-144.49 260.84,-109.35"/>
<polygon fill="black" stroke="black" points="263.01,-106.61 253,-103.15 258.67,-112.1 263.01,-106.61"/>
</g>
<!-- PseudoMLLCoarseSample -->
<g id="node3" class="node">
<title>PseudoMLLCoarseSample</title>
<ellipse fill="none" stroke="black" cx="642.03" cy="-52.33" rx="190.03" ry="52.33"/>
<text xml:space="preserve" text-anchor="middle" x="642.03" y="-72.03" font-family="Times,serif" font-size="14.00">PseudoMLLCoarseSample</text>
<text xml:space="preserve" text-anchor="middle" x="642.03" y="-55.53" font-family="Times,serif" font-size="14.00">File: ./hxn&#45;profile&#45;collection/startup/13&#45;mll.py</text>
<text xml:space="preserve" text-anchor="middle" x="642.03" y="-39.03" font-family="Times,serif" font-size="14.00">Methods: 0</text>
<text xml:space="preserve" text-anchor="middle" x="642.03" y="-22.53" font-family="Times,serif" font-size="14.00">Attributes: 5</text>
</g>
<!-- PseudoAngleCorrection&#45;&gt;PseudoMLLCoarseSample -->
<g id="edge2" class="edge">
<title>PseudoAngleCorrection&#45;&gt;PseudoMLLCoarseSample</title>
<path fill="none" stroke="black" d="M441.08,-212.33C472.26,-187.66 526.83,-144.49 571.23,-109.35"/>
<polygon fill="black" stroke="black" points="573.4,-112.1 579.07,-103.15 569.06,-106.61 573.4,-112.1"/>
</g>
</g>
</svg>
