<?xml version="1.0" encoding="UTF-8" standalone="no"?>
<!DOCTYPE svg PUBLIC "-//W3C//DTD SVG 1.1//EN"
 "http://www.w3.org/Graphics/SVG/1.1/DTD/svg11.dtd">
<!-- Generated by graphviz version 14.0.0 (20250921.2048)
 -->
<!-- Pages: 1 -->
<svg width="862pt" height="262pt"
 viewBox="0.00 0.00 862.00 262.00" xmlns="http://www.w3.org/2000/svg" xmlns:xlink="http://www.w3.org/1999/xlink">
<g id="graph0" class="graph" transform="scale(1 1) rotate(0) translate(4 257.65)">
<polygon fill="white" stroke="none" points="-4,4 -4,-257.65 858.21,-257.65 858.21,4 -4,4"/>
<!-- PVGroup -->
<g id="node1" class="node">
<title>PVGroup</title>
<polygon fill="lightblue" stroke="lightblue" points="490.62,-253.65 398.12,-253.65 398.12,-212.65 490.62,-212.65 490.62,-253.65"/>
<text xml:space="preserve" text-anchor="middle" x="444.37" y="-236.35" font-family="Times,serif" font-size="14.00">PVGroup</text>
<text xml:space="preserve" text-anchor="middle" x="444.37" y="-219.85" font-family="Times,serif" font-size="14.00">(Parent Class)</text>
</g>
<!-- CSX_IOC -->
<g id="node2" class="node">
<title>CSX_IOC</title>
<ellipse fill="none" stroke="black" cx="213.37" cy="-52.33" rx="213.37" ry="52.33"/>
<text xml:space="preserve" text-anchor="middle" x="213.37" y="-72.03" font-family="Times,serif" font-size="14.00">CSX_IOC</text>
<text xml:space="preserve" text-anchor="middle" x="213.37" y="-55.53" font-family="Times,serif" font-size="14.00">File: ./csx&#45;profile&#45;collection/iocs/spoof_beamline.py</text>
<text xml:space="preserve" text-anchor="middle" x="213.37" y="-39.03" font-family="Times,serif" font-size="14.00">Methods: 2</text>
<text xml:space="preserve" text-anchor="middle" x="213.37" y="-22.53" font-family="Times,serif" font-size="14.00">Attributes: 4</text>
</g>
<!-- PVGroup&#45;&gt;CSX_IOC -->
<g id="edge1" class="edge">
<title>PVGroup&#45;&gt;CSX_IOC</title>
<path fill="none" stroke="black" d="M418.77,-212.33C386.94,-187.69 331.28,-144.6 285.92,-109.49"/>
<polygon fill="black" stroke="black" points="288.25,-106.87 278.2,-103.51 283.96,-112.4 288.25,-106.87"/>
</g>
<!-- CryoIOC -->
<g id="node3" class="node">
<title>CryoIOC</title>
<ellipse fill="none" stroke="black" cx="676.37" cy="-52.33" rx="177.84" ry="52.33"/>
<text xml:space="preserve" text-anchor="middle" x="676.37" y="-72.03" font-family="Times,serif" font-size="14.00">CryoIOC</text>
<text xml:space="preserve" text-anchor="middle" x="676.37" y="-55.53" font-family="Times,serif" font-size="14.00">File: ./iss&#45;profile&#45;collection/iocs/cryoioc.py</text>
<text xml:space="preserve" text-anchor="middle" x="676.37" y="-39.03" font-family="Times,serif" font-size="14.00">Methods: 0</text>
<text xml:space="preserve" text-anchor="middle" x="676.37" y="-22.53" font-family="Times,serif" font-size="14.00">Attributes: 4</text>
</g>
<!-- PVGroup&#45;&gt;CryoIOC -->
<g id="edge2" class="edge">
<title>PVGroup&#45;&gt;CryoIOC</title>
<path fill="none" stroke="black" d="M470.08,-212.33C502.38,-187.44 559.11,-143.71 604.92,-108.4"/>
<polygon fill="black" stroke="black" points="606.94,-111.26 612.72,-102.39 602.67,-105.72 606.94,-111.26"/>
</g>
</g>
</svg>
