<?xml version="1.0" encoding="UTF-8" standalone="no"?>
<!DOCTYPE svg PUBLIC "-//W3C//DTD SVG 1.1//EN"
 "http://www.w3.org/Graphics/SVG/1.1/DTD/svg11.dtd">
<!-- Generated by graphviz version 14.0.0 (20250921.2048)
 -->
<!-- Pages: 1 -->
<svg width="13847pt" height="262pt"
 viewBox="0.00 0.00 13847.00 262.00" xmlns="http://www.w3.org/2000/svg" xmlns:xlink="http://www.w3.org/1999/xlink">
<g id="graph0" class="graph" transform="scale(1 1) rotate(0) translate(4 257.65)">
<polygon fill="white" stroke="none" points="-4,4 -4,-257.65 13843.47,-257.65 13843.47,4 -4,4"/>
<!-- PVPositioner -->
<g id="node1" class="node">
<title>PVPositioner</title>
<polygon fill="lightblue" stroke="lightblue" points="7009.14,-253.65 6916.64,-253.65 6916.64,-212.65 7009.14,-212.65 7009.14,-253.65"/>
<text xml:space="preserve" text-anchor="middle" x="6962.89" y="-236.35" font-family="Times,serif" font-size="14.00">PVPositioner</text>
<text xml:space="preserve" text-anchor="middle" x="6962.89" y="-219.85" font-family="Times,serif" font-size="14.00">(Parent Class)</text>
</g>
<!-- VirtualGap -->
<g id="node2" class="node">
<title>VirtualGap</title>
<ellipse fill="none" stroke="black" cx="239.89" cy="-52.33" rx="239.89" ry="52.33"/>
<text xml:space="preserve" text-anchor="middle" x="239.89" y="-72.03" font-family="Times,serif" font-size="14.00">VirtualGap</text>
<text xml:space="preserve" text-anchor="middle" x="239.89" y="-55.53" font-family="Times,serif" font-size="14.00">File: ./fmx&#45;profile&#45;collection/startup/10&#45;motors_00_lsdc.py</text>
<text xml:space="preserve" text-anchor="middle" x="239.89" y="-39.03" font-family="Times,serif" font-size="14.00">Methods: 0</text>
<text xml:space="preserve" text-anchor="middle" x="239.89" y="-22.53" font-family="Times,serif" font-size="14.00">Attributes: 4</text>
</g>
<!-- PVPositioner&#45;&gt;VirtualGap -->
<g id="edge1" class="edge">
<title>PVPositioner&#45;&gt;VirtualGap</title>
<path fill="none" stroke="black" d="M6916.52,-232.29C6407.94,-233.68 1861.02,-242.09 515.89,-104.65 485.2,-101.52 452.82,-96.79 421.45,-91.46"/>
<polygon fill="black" stroke="black" points="422.35,-88.06 411.9,-89.81 421.16,-94.96 422.35,-88.06"/>
</g>
<!-- VirtualCenter -->
<g id="node3" class="node">
<title>VirtualCenter</title>
<ellipse fill="none" stroke="black" cx="791.89" cy="-52.33" rx="239.89" ry="52.33"/>
<text xml:space="preserve" text-anchor="middle" x="791.89" y="-72.03" font-family="Times,serif" font-size="14.00">VirtualCenter</text>
<text xml:space="preserve" text-anchor="middle" x="791.89" y="-55.53" font-family="Times,serif" font-size="14.00">File: ./fmx&#45;profile&#45;collection/startup/10&#45;motors_00_lsdc.py</text>
<text xml:space="preserve" text-anchor="middle" x="791.89" y="-39.03" font-family="Times,serif" font-size="14.00">Methods: 0</text>
<text xml:space="preserve" text-anchor="middle" x="791.89" y="-22.53" font-family="Times,serif" font-size="14.00">Attributes: 4</text>
</g>
<!-- PVPositioner&#45;&gt;VirtualCenter -->
<g id="edge2" class="edge">
<title>PVPositioner&#45;&gt;VirtualCenter</title>
<path fill="none" stroke="black" d="M6916.43,-232.19C6431.8,-232.47 2294.28,-231.1 1067.89,-104.65 1037.2,-101.49 1004.82,-96.75 973.46,-91.41"/>
<polygon fill="black" stroke="black" points="974.35,-88.02 963.9,-89.76 973.16,-94.91 974.35,-88.02"/>
</g>
<!-- LakeShore -->
<g id="node4" class="node">
<title>LakeShore</title>
<ellipse fill="none" stroke="black" cx="1337.89" cy="-52.33" rx="234.05" ry="52.33"/>
<text xml:space="preserve" text-anchor="middle" x="1337.89" y="-72.03" font-family="Times,serif" font-size="14.00">LakeShore</text>
<text xml:space="preserve" text-anchor="middle" x="1337.89" y="-55.53" font-family="Times,serif" font-size="14.00">File: ./bmm&#45;profile&#45;collection/startup/BMM/lakeshore.py</text>
<text xml:space="preserve" text-anchor="middle" x="1337.89" y="-39.03" font-family="Times,serif" font-size="14.00">Methods: 9</text>
<text xml:space="preserve" text-anchor="middle" x="1337.89" y="-22.53" font-family="Times,serif" font-size="14.00">Attributes: 24</text>
</g>
<!-- PVPositioner&#45;&gt;LakeShore -->
<g id="edge3" class="edge">
<title>PVPositioner&#45;&gt;LakeShore</title>
<path fill="none" stroke="black" d="M6916.47,-232.1C6457.03,-231.46 2718.16,-222.59 1607.89,-104.65 1577.99,-101.48 1546.45,-96.75 1515.89,-91.44"/>
<polygon fill="black" stroke="black" points="1516.63,-88.02 1506.17,-89.72 1515.41,-94.91 1516.63,-88.02"/>
</g>
<!-- Linkam -->
<g id="node5" class="node">
<title>Linkam</title>
<ellipse fill="none" stroke="black" cx="1878.89" cy="-52.33" rx="234.58" ry="52.33"/>
<text xml:space="preserve" text-anchor="middle" x="1878.89" y="-72.03" font-family="Times,serif" font-size="14.00">Linkam</text>
<text xml:space="preserve" text-anchor="middle" x="1878.89" y="-55.53" font-family="Times,serif" font-size="14.00">File: ./smi&#45;profile&#45;collection/startup/smiclasses/linkam.py</text>
<text xml:space="preserve" text-anchor="middle" x="1878.89" y="-39.03" font-family="Times,serif" font-size="14.00">Methods: 0</text>
<text xml:space="preserve" text-anchor="middle" x="1878.89" y="-22.53" font-family="Times,serif" font-size="14.00">Attributes: 25</text>
</g>
<!-- PVPositioner&#45;&gt;Linkam -->
<g id="edge4" class="edge">
<title>PVPositioner&#45;&gt;Linkam</title>
<path fill="none" stroke="black" d="M6916.19,-231.96C6481.92,-230 3143.02,-211.6 2148.89,-104.65 2119.1,-101.45 2087.68,-96.73 2057.22,-91.43"/>
<polygon fill="black" stroke="black" points="2058,-88.01 2047.54,-89.71 2056.78,-94.9 2058,-88.01"/>
</g>
<!-- LinearActOut -->
<g id="node6" class="node">
<title>LinearActOut</title>
<ellipse fill="none" stroke="black" cx="2450.89" cy="-52.33" rx="265.87" ry="52.33"/>
<text xml:space="preserve" text-anchor="middle" x="2450.89" y="-72.03" font-family="Times,serif" font-size="14.00">LinearActOut</text>
<text xml:space="preserve" text-anchor="middle" x="2450.89" y="-55.53" font-family="Times,serif" font-size="14.00">File: ./esm&#45;arpes&#45;profile&#45;collection/startup/40&#45;ESM_plans_elio.py</text>
<text xml:space="preserve" text-anchor="middle" x="2450.89" y="-39.03" font-family="Times,serif" font-size="14.00">Methods: 0</text>
<text xml:space="preserve" text-anchor="middle" x="2450.89" y="-22.53" font-family="Times,serif" font-size="14.00">Attributes: 4</text>
</g>
<!-- PVPositioner&#45;&gt;LinearActOut -->
<g id="edge5" class="edge">
<title>PVPositioner&#45;&gt;LinearActOut</title>
<path fill="none" stroke="black" d="M6916.21,-231.63C6513.43,-226.98 3618.77,-190.93 2752.89,-104.65 2719.7,-101.35 2684.65,-96.58 2650.64,-91.27"/>
<polygon fill="black" stroke="black" points="2651.55,-87.87 2641.13,-89.76 2650.46,-94.78 2651.55,-87.87"/>
</g>
<!-- LinearActIn -->
<g id="node7" class="node">
<title>LinearActIn</title>
<ellipse fill="none" stroke="black" cx="3054.89" cy="-52.33" rx="265.87" ry="52.33"/>
<text xml:space="preserve" text-anchor="middle" x="3054.89" y="-72.03" font-family="Times,serif" font-size="14.00">LinearActIn</text>
<text xml:space="preserve" text-anchor="middle" x="3054.89" y="-55.53" font-family="Times,serif" font-size="14.00">File: ./esm&#45;arpes&#45;profile&#45;collection/startup/40&#45;ESM_plans_elio.py</text>
<text xml:space="preserve" text-anchor="middle" x="3054.89" y="-39.03" font-family="Times,serif" font-size="14.00">Methods: 0</text>
<text xml:space="preserve" text-anchor="middle" x="3054.89" y="-22.53" font-family="Times,serif" font-size="14.00">Attributes: 4</text>
</g>
<!-- PVPositioner&#45;&gt;LinearActIn -->
<g id="edge6" class="edge">
<title>PVPositioner&#45;&gt;LinearActIn</title>
<path fill="none" stroke="black" d="M6916.41,-231.36C6547.9,-225 4093.18,-180.2 3355.89,-104.65 3323.19,-101.3 3288.69,-96.56 3255.16,-91.31"/>
<polygon fill="black" stroke="black" points="3255.75,-87.86 3245.32,-89.74 3254.65,-94.77 3255.75,-87.86"/>
</g>
<!-- Virtual_Size -->
<g id="node8" class="node">
<title>Virtual_Size</title>
<ellipse fill="none" stroke="black" cx="3626.89" cy="-52.33" rx="234.58" ry="52.33"/>
<text xml:space="preserve" text-anchor="middle" x="3626.89" y="-72.03" font-family="Times,serif" font-size="14.00">Virtual_Size</text>
<text xml:space="preserve" text-anchor="middle" x="3626.89" y="-55.53" font-family="Times,serif" font-size="14.00">File: ./esm&#45;arpes&#45;profile&#45;collection/startup/10&#45;machine.py</text>
<text xml:space="preserve" text-anchor="middle" x="3626.89" y="-39.03" font-family="Times,serif" font-size="14.00">Methods: 0</text>
<text xml:space="preserve" text-anchor="middle" x="3626.89" y="-22.53" font-family="Times,serif" font-size="14.00">Attributes: 4</text>
</g>
<!-- PVPositioner&#45;&gt;Virtual_Size -->
<g id="edge7" class="edge">
<title>PVPositioner&#45;&gt;Virtual_Size</title>
<path fill="none" stroke="black" d="M6916.4,-231.15C6580.33,-223.8 4518.42,-176.26 3896.89,-104.65 3867.33,-101.25 3836.16,-96.46 3805.91,-91.16"/>
<polygon fill="black" stroke="black" points="3806.76,-87.75 3796.31,-89.45 3805.54,-94.65 3806.76,-87.75"/>
</g>
<!-- Virtual_Center -->
<g id="node9" class="node">
<title>Virtual_Center</title>
<ellipse fill="none" stroke="black" cx="4167.89" cy="-52.33" rx="234.58" ry="52.33"/>
<text xml:space="preserve" text-anchor="middle" x="4167.89" y="-72.03" font-family="Times,serif" font-size="14.00">Virtual_Center</text>
<text xml:space="preserve" text-anchor="middle" x="4167.89" y="-55.53" font-family="Times,serif" font-size="14.00">File: ./esm&#45;arpes&#45;profile&#45;collection/startup/10&#45;machine.py</text>
<text xml:space="preserve" text-anchor="middle" x="4167.89" y="-39.03" font-family="Times,serif" font-size="14.00">Methods: 0</text>
<text xml:space="preserve" text-anchor="middle" x="4167.89" y="-22.53" font-family="Times,serif" font-size="14.00">Attributes: 4</text>
</g>
<!-- PVPositioner&#45;&gt;Virtual_Center -->
<g id="edge8" class="edge">
<title>PVPositioner&#45;&gt;Virtual_Center</title>
<path fill="none" stroke="black" d="M6916.23,-232.17C6663.62,-231.76 5434.37,-223.5 4438.89,-104.65 4409.35,-101.13 4378.19,-96.29 4347.93,-90.98"/>
<polygon fill="black" stroke="black" points="4348.78,-87.58 4338.32,-89.28 4347.56,-94.47 4348.78,-87.58"/>
</g>
<!-- UgapPositioner -->
<g id="node10" class="node">
<title>UgapPositioner</title>
<ellipse fill="none" stroke="black" cx="4661.89" cy="-52.33" rx="187.38" ry="52.33"/>
<text xml:space="preserve" text-anchor="middle" x="4661.89" y="-72.03" font-family="Times,serif" font-size="14.00">UgapPositioner</text>
<text xml:space="preserve" text-anchor="middle" x="4661.89" y="-55.53" font-family="Times,serif" font-size="14.00">File: ./six&#45;profile&#45;collection/startup/04&#45;epu.py</text>
<text xml:space="preserve" text-anchor="middle" x="4661.89" y="-39.03" font-family="Times,serif" font-size="14.00">Methods: 1</text>
<text xml:space="preserve" text-anchor="middle" x="4661.89" y="-22.53" font-family="Times,serif" font-size="14.00">Attributes: 9</text>
</g>
<!-- PVPositioner&#45;&gt;UgapPositioner -->
<g id="edge9" class="edge">
<title>PVPositioner&#45;&gt;UgapPositioner</title>
<path fill="none" stroke="black" d="M6916.18,-232.11C6690.69,-231.31 5692.65,-221.04 4885.89,-104.65 4861.12,-101.08 4835.04,-96.18 4809.79,-90.81"/>
<polygon fill="black" stroke="black" points="4810.63,-87.41 4800.11,-88.72 4809.15,-94.25 4810.63,-87.41"/>
</g>
<!-- UphasePositioner -->
<g id="node11" class="node">
<title>UphasePositioner</title>
<ellipse fill="none" stroke="black" cx="5108.89" cy="-52.33" rx="187.38" ry="52.33"/>
<text xml:space="preserve" text-anchor="middle" x="5108.89" y="-72.03" font-family="Times,serif" font-size="14.00">UphasePositioner</text>
<text xml:space="preserve" text-anchor="middle" x="5108.89" y="-55.53" font-family="Times,serif" font-size="14.00">File: ./six&#45;profile&#45;collection/startup/04&#45;epu.py</text>
<text xml:space="preserve" text-anchor="middle" x="5108.89" y="-39.03" font-family="Times,serif" font-size="14.00">Methods: 1</text>
<text xml:space="preserve" text-anchor="middle" x="5108.89" y="-22.53" font-family="Times,serif" font-size="14.00">Attributes: 9</text>
</g>
<!-- PVPositioner&#45;&gt;UphasePositioner -->
<g id="edge10" class="edge">
<title>PVPositioner&#45;&gt;UphasePositioner</title>
<path fill="none" stroke="black" d="M6916.25,-231.01C6721.54,-225.73 5954.75,-199.69 5332.89,-104.65 5308.41,-100.91 5282.63,-95.97 5257.63,-90.62"/>
<polygon fill="black" stroke="black" points="5258.58,-87.25 5248.06,-88.55 5257.09,-94.09 5258.58,-87.25"/>
</g>
<!-- Lakeshore336Setpoint -->
<g id="node12" class="node">
<title>Lakeshore336Setpoint</title>
<ellipse fill="none" stroke="black" cx="5606.89" cy="-52.33" rx="238.29" ry="52.33"/>
<text xml:space="preserve" text-anchor="middle" x="5606.89" y="-72.03" font-family="Times,serif" font-size="14.00">Lakeshore336Setpoint</text>
<text xml:space="preserve" text-anchor="middle" x="5606.89" y="-55.53" font-family="Times,serif" font-size="14.00">File: ./esm&#45;arpes&#45;profile&#45;collection/startup/48&#45;lakeshore.py</text>
<text xml:space="preserve" text-anchor="middle" x="5606.89" y="-39.03" font-family="Times,serif" font-size="14.00">Methods: 0</text>
<text xml:space="preserve" text-anchor="middle" x="5606.89" y="-22.53" font-family="Times,serif" font-size="14.00">Attributes: 11</text>
</g>
<!-- PVPositioner&#45;&gt;Lakeshore336Setpoint -->
<g id="edge11" class="edge">
<title>PVPositioner&#45;&gt;Lakeshore336Setpoint</title>
<path fill="none" stroke="black" d="M6916.33,-227.81C6766,-213.53 6280.11,-165.49 5880.89,-104.65 5852.57,-100.34 5822.7,-95.27 5793.51,-90.04"/>
<polygon fill="black" stroke="black" points="5794.31,-86.63 5783.85,-88.29 5793.06,-93.51 5794.31,-86.63"/>
</g>
<!-- Lakeshore336 -->
<g id="node13" class="node">
<title>Lakeshore336</title>
<ellipse fill="none" stroke="black" cx="6159.89" cy="-52.33" rx="242.54" ry="52.33"/>
<text xml:space="preserve" text-anchor="middle" x="6159.89" y="-72.03" font-family="Times,serif" font-size="14.00">Lakeshore336</text>
<text xml:space="preserve" text-anchor="middle" x="6159.89" y="-55.53" font-family="Times,serif" font-size="14.00">File: ./csx&#45;profile&#45;collection/startup/csx1/devices/devices.py</text>
<text xml:space="preserve" text-anchor="middle" x="6159.89" y="-39.03" font-family="Times,serif" font-size="14.00">Methods: 0</text>
<text xml:space="preserve" text-anchor="middle" x="6159.89" y="-22.53" font-family="Times,serif" font-size="14.00">Attributes: 5</text>
</g>
<!-- PVPositioner&#45;&gt;Lakeshore336 -->
<g id="edge12" class="edge">
<title>PVPositioner&#45;&gt;Lakeshore336</title>
<path fill="none" stroke="black" d="M6916.24,-221.76C6806.05,-197.23 6524.89,-134.61 6338.16,-93.03"/>
<polygon fill="black" stroke="black" points="6339.11,-89.65 6328.59,-90.9 6337.59,-96.49 6339.11,-89.65"/>
</g>
<!-- FMBHexapodMirrorAxis -->
<g id="node14" class="node">
<title>FMBHexapodMirrorAxis</title>
<ellipse fill="none" stroke="black" cx="6710.89" cy="-52.33" rx="236.7" ry="52.33"/>
<text xml:space="preserve" text-anchor="middle" x="6710.89" y="-72.03" font-family="Times,serif" font-size="14.00">FMBHexapodMirrorAxis</text>
<text xml:space="preserve" text-anchor="middle" x="6710.89" y="-55.53" font-family="Times,serif" font-size="14.00">File: ./csx&#45;profile&#45;collection/startup/csx1/devices/optics.py</text>
<text xml:space="preserve" text-anchor="middle" x="6710.89" y="-39.03" font-family="Times,serif" font-size="14.00">Methods: 0</text>
<text xml:space="preserve" text-anchor="middle" x="6710.89" y="-22.53" font-family="Times,serif" font-size="14.00">Attributes: 8</text>
</g>
<!-- PVPositioner&#45;&gt;FMBHexapodMirrorAxis -->
<g id="edge13" class="edge">
<title>PVPositioner&#45;&gt;FMBHexapodMirrorAxis</title>
<path fill="none" stroke="black" d="M6934.95,-212.33C6900.15,-187.63 6839.22,-144.4 6789.68,-109.24"/>
<polygon fill="black" stroke="black" points="6791.98,-106.58 6781.8,-103.65 6787.93,-112.29 6791.98,-106.58"/>
</g>
<!-- MirrorAxis -->
<g id="node15" class="node">
<title>MirrorAxis</title>
<ellipse fill="none" stroke="black" cx="7215.89" cy="-52.33" rx="196.4" ry="52.33"/>
<text xml:space="preserve" text-anchor="middle" x="7215.89" y="-72.03" font-family="Times,serif" font-size="14.00">MirrorAxis</text>
<text xml:space="preserve" text-anchor="middle" x="7215.89" y="-55.53" font-family="Times,serif" font-size="14.00">File: ./ios&#45;profile&#45;collection/startup/10&#45;optics.py</text>
<text xml:space="preserve" text-anchor="middle" x="7215.89" y="-39.03" font-family="Times,serif" font-size="14.00">Methods: 0</text>
<text xml:space="preserve" text-anchor="middle" x="7215.89" y="-22.53" font-family="Times,serif" font-size="14.00">Attributes: 8</text>
</g>
<!-- PVPositioner&#45;&gt;MirrorAxis -->
<g id="edge14" class="edge">
<title>PVPositioner&#45;&gt;MirrorAxis</title>
<path fill="none" stroke="black" d="M6990.93,-212.33C7026.17,-187.42 7088.1,-143.64 7138.07,-108.32"/>
<polygon fill="black" stroke="black" points="7139.87,-111.34 7146.02,-102.71 7135.83,-105.62 7139.87,-111.34"/>
</g>
<!-- CS800TemperatureController -->
<g id="node16" class="node">
<title>CS800TemperatureController</title>
<ellipse fill="none" stroke="black" cx="7746.89" cy="-52.33" rx="262.69" ry="52.33"/>
<text xml:space="preserve" text-anchor="middle" x="7746.89" y="-72.03" font-family="Times,serif" font-size="14.00">CS800TemperatureController</text>
<text xml:space="preserve" text-anchor="middle" x="7746.89" y="-55.53" font-family="Times,serif" font-size="14.00">File: ./xpd&#45;profile&#45;collection/startup/11&#45;temperature&#45;controller.py</text>
<text xml:space="preserve" text-anchor="middle" x="7746.89" y="-39.03" font-family="Times,serif" font-size="14.00">Methods: 5</text>
<text xml:space="preserve" text-anchor="middle" x="7746.89" y="-22.53" font-family="Times,serif" font-size="14.00">Attributes: 7</text>
</g>
<!-- PVPositioner&#45;&gt;CS800TemperatureController -->
<g id="edge15" class="edge">
<title>PVPositioner&#45;&gt;CS800TemperatureController</title>
<path fill="none" stroke="black" d="M7009.58,-221.5C7116.35,-197.15 7383.08,-136.31 7564.67,-94.89"/>
<polygon fill="black" stroke="black" points="7565.24,-98.35 7574.21,-92.71 7563.69,-91.52 7565.24,-98.35"/>
</g>
<!-- CS700TemperatureController -->
<g id="node17" class="node">
<title>CS700TemperatureController</title>
<ellipse fill="none" stroke="black" cx="8343.89" cy="-52.33" rx="262.69" ry="52.33"/>
<text xml:space="preserve" text-anchor="middle" x="8343.89" y="-72.03" font-family="Times,serif" font-size="14.00">CS700TemperatureController</text>
<text xml:space="preserve" text-anchor="middle" x="8343.89" y="-55.53" font-family="Times,serif" font-size="14.00">File: ./xpd&#45;profile&#45;collection/startup/11&#45;temperature&#45;controller.py</text>
<text xml:space="preserve" text-anchor="middle" x="8343.89" y="-39.03" font-family="Times,serif" font-size="14.00">Methods: 2</text>
<text xml:space="preserve" text-anchor="middle" x="8343.89" y="-22.53" font-family="Times,serif" font-size="14.00">Attributes: 6</text>
</g>
<!-- PVPositioner&#45;&gt;CS700TemperatureController -->
<g id="edge16" class="edge">
<title>PVPositioner&#45;&gt;CS700TemperatureController</title>
<path fill="none" stroke="black" d="M7009.45,-227.57C7159.81,-212.57 7645.87,-162.61 8045.89,-104.65 8076.21,-100.26 8108.2,-95.2 8139.52,-90.01"/>
<polygon fill="black" stroke="black" points="8139.78,-93.51 8149.07,-88.42 8138.63,-86.61 8139.78,-93.51"/>
</g>
<!-- LinkamFurnace -->
<g id="node18" class="node">
<title>LinkamFurnace</title>
<ellipse fill="none" stroke="black" cx="8940.89" cy="-52.33" rx="262.69" ry="52.33"/>
<text xml:space="preserve" text-anchor="middle" x="8940.89" y="-72.03" font-family="Times,serif" font-size="14.00">LinkamFurnace</text>
<text xml:space="preserve" text-anchor="middle" x="8940.89" y="-55.53" font-family="Times,serif" font-size="14.00">File: ./xpd&#45;profile&#45;collection/startup/11&#45;temperature&#45;controller.py</text>
<text xml:space="preserve" text-anchor="middle" x="8940.89" y="-39.03" font-family="Times,serif" font-size="14.00">Methods: 2</text>
<text xml:space="preserve" text-anchor="middle" x="8940.89" y="-22.53" font-family="Times,serif" font-size="14.00">Attributes: 6</text>
</g>
<!-- PVPositioner&#45;&gt;LinkamFurnace -->
<g id="edge17" class="edge">
<title>PVPositioner&#45;&gt;LinkamFurnace</title>
<path fill="none" stroke="black" d="M7009.48,-230.24C7207.43,-221.76 7998.08,-184.47 8642.89,-104.65 8674.36,-100.76 8707.58,-95.84 8739.97,-90.6"/>
<polygon fill="black" stroke="black" points="8740.12,-94.12 8749.42,-89.06 8738.99,-87.22 8740.12,-94.12"/>
</g>
<!-- LinkamFurnace_T96 -->
<g id="node19" class="node">
<title>LinkamFurnace_T96</title>
<ellipse fill="none" stroke="black" cx="9536.89" cy="-52.33" rx="261.1" ry="52.33"/>
<text xml:space="preserve" text-anchor="middle" x="9536.89" y="-72.03" font-family="Times,serif" font-size="14.00">LinkamFurnace_T96</text>
<text xml:space="preserve" text-anchor="middle" x="9536.89" y="-55.53" font-family="Times,serif" font-size="14.00">File: ./pdf&#45;profile&#45;collection/startup/11&#45;temperature&#45;controller.py</text>
<text xml:space="preserve" text-anchor="middle" x="9536.89" y="-39.03" font-family="Times,serif" font-size="14.00">Methods: 3</text>
<text xml:space="preserve" text-anchor="middle" x="9536.89" y="-22.53" font-family="Times,serif" font-size="14.00">Attributes: 8</text>
</g>
<!-- PVPositioner&#45;&gt;LinkamFurnace_T96 -->
<g id="edge18" class="edge">
<title>PVPositioner&#45;&gt;LinkamFurnace_T96</title>
<path fill="none" stroke="black" d="M7009.55,-231.53C7247.23,-227.97 8346.91,-206.47 9239.89,-104.65 9271.77,-101.02 9305.41,-96.18 9338.15,-90.92"/>
<polygon fill="black" stroke="black" points="9338.41,-94.43 9347.72,-89.37 9337.29,-87.52 9338.41,-94.43"/>
</g>
<!-- Magnet -->
<g id="node20" class="node">
<title>Magnet</title>
<ellipse fill="none" stroke="black" cx="10130.89" cy="-52.33" rx="261.1" ry="52.33"/>
<text xml:space="preserve" text-anchor="middle" x="10130.89" y="-72.03" font-family="Times,serif" font-size="14.00">Magnet</text>
<text xml:space="preserve" text-anchor="middle" x="10130.89" y="-55.53" font-family="Times,serif" font-size="14.00">File: ./pdf&#45;profile&#45;collection/startup/11&#45;temperature&#45;controller.py</text>
<text xml:space="preserve" text-anchor="middle" x="10130.89" y="-39.03" font-family="Times,serif" font-size="14.00">Methods: 0</text>
<text xml:space="preserve" text-anchor="middle" x="10130.89" y="-22.53" font-family="Times,serif" font-size="14.00">Attributes: 3</text>
</g>
<!-- PVPositioner&#45;&gt;Magnet -->
<g id="edge19" class="edge">
<title>PVPositioner&#45;&gt;Magnet</title>
<path fill="none" stroke="black" d="M7009.52,-232.29C7281.64,-232.65 8691.77,-228.2 9833.89,-104.65 9866.14,-101.16 9900.18,-96.35 9933.27,-91.07"/>
<polygon fill="black" stroke="black" points="9933.64,-94.55 9942.95,-89.5 9932.52,-87.64 9933.64,-94.55"/>
</g>
<!-- Undulator -->
<g id="node21" class="node">
<title>Undulator</title>
<ellipse fill="none" stroke="black" cx="10670.89" cy="-52.33" rx="206.48" ry="52.33"/>
<text xml:space="preserve" text-anchor="middle" x="10670.89" y="-72.03" font-family="Times,serif" font-size="14.00">Undulator</text>
<text xml:space="preserve" text-anchor="middle" x="10670.89" y="-55.53" font-family="Times,serif" font-size="14.00">File: ./ixs&#45;profile&#45;collection/startup/10&#45;machine.py</text>
<text xml:space="preserve" text-anchor="middle" x="10670.89" y="-39.03" font-family="Times,serif" font-size="14.00">Methods: 0</text>
<text xml:space="preserve" text-anchor="middle" x="10670.89" y="-22.53" font-family="Times,serif" font-size="14.00">Attributes: 8</text>
</g>
<!-- PVPositioner&#45;&gt;Undulator -->
<g id="edge20" class="edge">
<title>PVPositioner&#45;&gt;Undulator</title>
<path fill="none" stroke="black" d="M7009.54,-231.54C7370.5,-226.6 9722.51,-191.47 10427.89,-104.65 10454.99,-101.32 10483.56,-96.49 10511.21,-91.11"/>
<polygon fill="black" stroke="black" points="10511.55,-94.61 10520.68,-89.24 10510.19,-87.74 10511.55,-94.61"/>
</g>
<!-- MCMBase -->
<g id="node22" class="node">
<title>MCMBase</title>
<ellipse fill="none" stroke="black" cx="11145.89" cy="-52.33" rx="196.4" ry="52.33"/>
<text xml:space="preserve" text-anchor="middle" x="11145.89" y="-72.03" font-family="Times,serif" font-size="14.00">MCMBase</text>
<text xml:space="preserve" text-anchor="middle" x="11145.89" y="-55.53" font-family="Times,serif" font-size="14.00">File: ./ixs&#45;profile&#45;collection/startup/10&#45;optics.py</text>
<text xml:space="preserve" text-anchor="middle" x="11145.89" y="-39.03" font-family="Times,serif" font-size="14.00">Methods: 2</text>
<text xml:space="preserve" text-anchor="middle" x="11145.89" y="-22.53" font-family="Times,serif" font-size="14.00">Attributes: 9</text>
</g>
<!-- PVPositioner&#45;&gt;MCMBase -->
<g id="edge21" class="edge">
<title>PVPositioner&#45;&gt;MCMBase</title>
<path fill="none" stroke="black" d="M7009.43,-231.83C7397.73,-229.01 10104.64,-205.84 10912.89,-104.65 10939.08,-101.37 10966.66,-96.55 10993.33,-91.15"/>
<polygon fill="black" stroke="black" points="10993.73,-94.64 11002.81,-89.19 10992.31,-87.78 10993.73,-94.64"/>
</g>
<!-- UndulatorGap -->
<g id="node23" class="node">
<title>UndulatorGap</title>
<ellipse fill="none" stroke="black" cx="11625.89" cy="-52.33" rx="211.25" ry="52.33"/>
<text xml:space="preserve" text-anchor="middle" x="11625.89" y="-72.03" font-family="Times,serif" font-size="14.00">UndulatorGap</text>
<text xml:space="preserve" text-anchor="middle" x="11625.89" y="-55.53" font-family="Times,serif" font-size="14.00">File: ./opls&#45;profile&#45;collection/startup/09&#45;machine.py</text>
<text xml:space="preserve" text-anchor="middle" x="11625.89" y="-39.03" font-family="Times,serif" font-size="14.00">Methods: 3</text>
<text xml:space="preserve" text-anchor="middle" x="11625.89" y="-22.53" font-family="Times,serif" font-size="14.00">Attributes: 8</text>
</g>
<!-- PVPositioner&#45;&gt;UndulatorGap -->
<g id="edge22" class="edge">
<title>PVPositioner&#45;&gt;UndulatorGap</title>
<path fill="none" stroke="black" d="M7009.55,-231.93C7423.29,-229.83 10469.9,-210.89 11377.89,-104.65 11405.55,-101.42 11434.7,-96.64 11462.92,-91.28"/>
<polygon fill="black" stroke="black" points="11463.46,-94.74 11472.62,-89.41 11462.13,-87.87 11463.46,-94.74"/>
</g>
<!-- M5_axis -->
<g id="node24" class="node">
<title>M5_axis</title>
<ellipse fill="none" stroke="black" cx="12106.89" cy="-52.33" rx="197.99" ry="52.33"/>
<text xml:space="preserve" text-anchor="middle" x="12106.89" y="-72.03" font-family="Times,serif" font-size="14.00">M5_axis</text>
<text xml:space="preserve" text-anchor="middle" x="12106.89" y="-55.53" font-family="Times,serif" font-size="14.00">File: ./six&#45;profile&#45;collection/startup/10&#45;mirror.py</text>
<text xml:space="preserve" text-anchor="middle" x="12106.89" y="-39.03" font-family="Times,serif" font-size="14.00">Methods: 2</text>
<text xml:space="preserve" text-anchor="middle" x="12106.89" y="-22.53" font-family="Times,serif" font-size="14.00">Attributes: 5</text>
</g>
<!-- PVPositioner&#45;&gt;M5_axis -->
<g id="edge23" class="edge">
<title>PVPositioner&#45;&gt;M5_axis</title>
<path fill="none" stroke="black" d="M7009.5,-232.17C7448.31,-232.12 10859.74,-227.78 11872.89,-104.65 11899.1,-101.47 11926.71,-96.7 11953.41,-91.34"/>
<polygon fill="black" stroke="black" points="11953.81,-94.83 11962.9,-89.4 11952.4,-87.97 11953.81,-94.83"/>
</g>
<!-- DeadBandPositioner -->
<g id="node25" class="node">
<title>DeadBandPositioner</title>
<ellipse fill="none" stroke="black" cx="12563.89" cy="-52.33" rx="187.38" ry="52.33"/>
<text xml:space="preserve" text-anchor="middle" x="12563.89" y="-72.03" font-family="Times,serif" font-size="14.00">DeadBandPositioner</text>
<text xml:space="preserve" text-anchor="middle" x="12563.89" y="-55.53" font-family="Times,serif" font-size="14.00">File: ./six&#45;profile&#45;collection/startup/04&#45;epu.py</text>
<text xml:space="preserve" text-anchor="middle" x="12563.89" y="-39.03" font-family="Times,serif" font-size="14.00">Methods: 4</text>
<text xml:space="preserve" text-anchor="middle" x="12563.89" y="-22.53" font-family="Times,serif" font-size="14.00">Attributes: 3</text>
</g>
<!-- PVPositioner&#45;&gt;DeadBandPositioner -->
<g id="edge24" class="edge">
<title>PVPositioner&#45;&gt;DeadBandPositioner</title>
<path fill="none" stroke="black" d="M7009.59,-231.62C7504.8,-225.92 11782.28,-174.82 12340.89,-104.65 12365.95,-101.5 12392.32,-96.75 12417.81,-91.39"/>
<polygon fill="black" stroke="black" points="12418.54,-94.81 12427.58,-89.29 12417.06,-87.97 12418.54,-94.81"/>
</g>
<!-- SlowStopPVPositioner -->
<g id="node26" class="node">
<title>SlowStopPVPositioner</title>
<ellipse fill="none" stroke="black" cx="13060.89" cy="-52.33" rx="237.76" ry="52.33"/>
<text xml:space="preserve" text-anchor="middle" x="13060.89" y="-72.03" font-family="Times,serif" font-size="14.00">SlowStopPVPositioner</text>
<text xml:space="preserve" text-anchor="middle" x="13060.89" y="-55.53" font-family="Times,serif" font-size="14.00">File: ./esm&#45;arpes&#45;profile&#45;collection/startup/11&#45;undulator.py</text>
<text xml:space="preserve" text-anchor="middle" x="13060.89" y="-39.03" font-family="Times,serif" font-size="14.00">Methods: 1</text>
<text xml:space="preserve" text-anchor="middle" x="13060.89" y="-22.53" font-family="Times,serif" font-size="14.00">Attributes: 0</text>
</g>
<!-- PVPositioner&#45;&gt;SlowStopPVPositioner -->
<g id="edge25" class="edge">
<title>PVPositioner&#45;&gt;SlowStopPVPositioner</title>
<path fill="none" stroke="black" d="M7009.53,-232.19C7491.83,-232.4 11575.99,-230.47 12786.89,-104.65 12817.35,-101.49 12849.5,-96.75 12880.64,-91.41"/>
<polygon fill="black" stroke="black" points="12880.86,-94.92 12890.11,-89.76 12879.66,-88.03 12880.86,-94.92"/>
</g>
<!-- ThorlabsMotor -->
<g id="node27" class="node">
<title>ThorlabsMotor</title>
<ellipse fill="none" stroke="black" cx="13604.89" cy="-52.33" rx="234.58" ry="52.33"/>
<text xml:space="preserve" text-anchor="middle" x="13604.89" y="-72.03" font-family="Times,serif" font-size="14.00">ThorlabsMotor</text>
<text xml:space="preserve" text-anchor="middle" x="13604.89" y="-55.53" font-family="Times,serif" font-size="14.00">File: ./smi&#45;profile&#45;collection/startup/smiclasses/motors.py</text>
<text xml:space="preserve" text-anchor="middle" x="13604.89" y="-39.03" font-family="Times,serif" font-size="14.00">Methods: 0</text>
<text xml:space="preserve" text-anchor="middle" x="13604.89" y="-22.53" font-family="Times,serif" font-size="14.00">Attributes: 4</text>
</g>
<!-- PVPositioner&#45;&gt;ThorlabsMotor -->
<g id="edge26" class="edge">
<title>PVPositioner&#45;&gt;ThorlabsMotor</title>
<path fill="none" stroke="black" d="M7009.5,-232.31C7516.06,-233.82 12006.37,-243.22 13334.89,-104.65 13364.9,-101.52 13396.55,-96.81 13427.21,-91.48"/>
<polygon fill="black" stroke="black" points="13427.73,-94.94 13436.97,-89.76 13426.51,-88.05 13427.73,-94.94"/>
</g>
</g>
</svg>
