<?xml version="1.0" encoding="UTF-8" standalone="no"?>
<!DOCTYPE svg PUBLIC "-//W3C//DTD SVG 1.1//EN"
 "http://www.w3.org/Graphics/SVG/1.1/DTD/svg11.dtd">
<!-- Generated by graphviz version 14.0.0 (20250921.2048)
 -->
<!-- Pages: 1 -->
<svg width="19317pt" height="262pt"
 viewBox="0.00 0.00 19317.00 262.00" xmlns="http://www.w3.org/2000/svg" xmlns:xlink="http://www.w3.org/1999/xlink">
<g id="graph0" class="graph" transform="scale(1 1) rotate(0) translate(4 257.65)">
<polygon fill="white" stroke="none" points="-4,4 -4,-257.65 19313.3,-257.65 19313.3,4 -4,4"/>
<!-- PVPositionerPC -->
<g id="node1" class="node">
<title>PVPositionerPC</title>
<polygon fill="lightblue" stroke="lightblue" points="10108.73,-253.65 10004.23,-253.65 10004.23,-212.65 10108.73,-212.65 10108.73,-253.65"/>
<text xml:space="preserve" text-anchor="middle" x="10056.48" y="-236.35" font-family="Times,serif" font-size="14.00">PVPositionerPC</text>
<text xml:space="preserve" text-anchor="middle" x="10056.48" y="-219.85" font-family="Times,serif" font-size="14.00">(Parent Class)</text>
</g>
<!-- FESlitsCenter -->
<g id="node2" class="node">
<title>FESlitsCenter</title>
<ellipse fill="none" stroke="black" cx="206.48" cy="-52.33" rx="206.48" ry="52.33"/>
<text xml:space="preserve" text-anchor="middle" x="206.48" y="-72.03" font-family="Times,serif" font-size="14.00">FESlitsCenter</text>
<text xml:space="preserve" text-anchor="middle" x="206.48" y="-55.53" font-family="Times,serif" font-size="14.00">File: ./amx&#45;profile&#45;collection/startup/10&#45;motors.py</text>
<text xml:space="preserve" text-anchor="middle" x="206.48" y="-39.03" font-family="Times,serif" font-size="14.00">Methods: 0</text>
<text xml:space="preserve" text-anchor="middle" x="206.48" y="-22.53" font-family="Times,serif" font-size="14.00">Attributes: 3</text>
</g>
<!-- PVPositionerPC&#45;&gt;FESlitsCenter -->
<g id="edge1" class="edge">
<title>PVPositionerPC&#45;&gt;FESlitsCenter</title>
<path fill="none" stroke="black" d="M10003.74,-232.08C9285.75,-231.04 1461.65,-217.17 449.48,-104.65 422.05,-101.6 393.14,-96.87 365.22,-91.49"/>
<polygon fill="black" stroke="black" points="366.13,-88.1 355.64,-89.6 364.78,-94.97 366.13,-88.1"/>
</g>
<!-- FESlitsGap -->
<g id="node3" class="node">
<title>FESlitsGap</title>
<ellipse fill="none" stroke="black" cx="691.48" cy="-52.33" rx="206.48" ry="52.33"/>
<text xml:space="preserve" text-anchor="middle" x="691.48" y="-72.03" font-family="Times,serif" font-size="14.00">FESlitsGap</text>
<text xml:space="preserve" text-anchor="middle" x="691.48" y="-55.53" font-family="Times,serif" font-size="14.00">File: ./amx&#45;profile&#45;collection/startup/10&#45;motors.py</text>
<text xml:space="preserve" text-anchor="middle" x="691.48" y="-39.03" font-family="Times,serif" font-size="14.00">Methods: 0</text>
<text xml:space="preserve" text-anchor="middle" x="691.48" y="-22.53" font-family="Times,serif" font-size="14.00">Attributes: 3</text>
</g>
<!-- PVPositionerPC&#45;&gt;FESlitsGap -->
<g id="edge2" class="edge">
<title>PVPositionerPC&#45;&gt;FESlitsGap</title>
<path fill="none" stroke="black" d="M10003.75,-232.04C9305.65,-230.5 1894.29,-211.7 934.48,-104.65 907.05,-101.59 878.15,-96.86 850.22,-91.47"/>
<polygon fill="black" stroke="black" points="851.13,-88.08 840.64,-89.59 849.78,-94.95 851.13,-88.08"/>
</g>
<!-- QuadEMDwellTime -->
<g id="node4" class="node">
<title>QuadEMDwellTime</title>
<ellipse fill="none" stroke="black" cx="1206.48" cy="-52.33" rx="236.17" ry="52.33"/>
<text xml:space="preserve" text-anchor="middle" x="1206.48" y="-72.03" font-family="Times,serif" font-size="14.00">QuadEMDwellTime</text>
<text xml:space="preserve" text-anchor="middle" x="1206.48" y="-55.53" font-family="Times,serif" font-size="14.00">File: ./bmm&#45;profile&#45;collection/startup/BMM/dwelltime.py</text>
<text xml:space="preserve" text-anchor="middle" x="1206.48" y="-39.03" font-family="Times,serif" font-size="14.00">Methods: 0</text>
<text xml:space="preserve" text-anchor="middle" x="1206.48" y="-22.53" font-family="Times,serif" font-size="14.00">Attributes: 2</text>
</g>
<!-- PVPositionerPC&#45;&gt;QuadEMDwellTime -->
<g id="edge3" class="edge">
<title>PVPositionerPC&#45;&gt;QuadEMDwellTime</title>
<path fill="none" stroke="black" d="M10003.83,-231.92C9329.11,-228.91 2380.67,-195.8 1478.48,-104.65 1448,-101.57 1415.84,-96.85 1384.73,-91.48"/>
<polygon fill="black" stroke="black" points="1385.71,-88.1 1375.26,-89.82 1384.5,-95 1385.71,-88.1"/>
</g>
<!-- StruckDwellTime -->
<g id="node5" class="node">
<title>StruckDwellTime</title>
<ellipse fill="none" stroke="black" cx="1750.48" cy="-52.33" rx="236.17" ry="52.33"/>
<text xml:space="preserve" text-anchor="middle" x="1750.48" y="-72.03" font-family="Times,serif" font-size="14.00">StruckDwellTime</text>
<text xml:space="preserve" text-anchor="middle" x="1750.48" y="-55.53" font-family="Times,serif" font-size="14.00">File: ./bmm&#45;profile&#45;collection/startup/BMM/dwelltime.py</text>
<text xml:space="preserve" text-anchor="middle" x="1750.48" y="-39.03" font-family="Times,serif" font-size="14.00">Methods: 0</text>
<text xml:space="preserve" text-anchor="middle" x="1750.48" y="-22.53" font-family="Times,serif" font-size="14.00">Attributes: 2</text>
</g>
<!-- PVPositionerPC&#45;&gt;StruckDwellTime -->
<g id="edge4" class="edge">
<title>PVPositionerPC&#45;&gt;StruckDwellTime</title>
<path fill="none" stroke="black" d="M10003.96,-231.87C9353.54,-228.26 2866.02,-190.3 2022.48,-104.65 1992.24,-101.58 1960.35,-96.9 1929.46,-91.58"/>
<polygon fill="black" stroke="black" points="1930.08,-88.14 1919.62,-89.86 1928.87,-95.03 1930.08,-88.14"/>
</g>
<!-- Xspress3DwellTime -->
<g id="node6" class="node">
<title>Xspress3DwellTime</title>
<ellipse fill="none" stroke="black" cx="2294.48" cy="-52.33" rx="236.17" ry="52.33"/>
<text xml:space="preserve" text-anchor="middle" x="2294.48" y="-72.03" font-family="Times,serif" font-size="14.00">Xspress3DwellTime</text>
<text xml:space="preserve" text-anchor="middle" x="2294.48" y="-55.53" font-family="Times,serif" font-size="14.00">File: ./bmm&#45;profile&#45;collection/startup/BMM/dwelltime.py</text>
<text xml:space="preserve" text-anchor="middle" x="2294.48" y="-39.03" font-family="Times,serif" font-size="14.00">Methods: 0</text>
<text xml:space="preserve" text-anchor="middle" x="2294.48" y="-22.53" font-family="Times,serif" font-size="14.00">Attributes: 2</text>
</g>
<!-- PVPositionerPC&#45;&gt;Xspress3DwellTime -->
<g id="edge5" class="edge">
<title>PVPositionerPC&#45;&gt;Xspress3DwellTime</title>
<path fill="none" stroke="black" d="M10004.19,-231.8C9379.38,-227.57 3351.45,-184.81 2566.48,-104.65 2536.24,-101.56 2504.35,-96.87 2473.47,-91.55"/>
<polygon fill="black" stroke="black" points="2474.08,-88.11 2463.63,-89.83 2472.87,-95 2474.08,-88.11"/>
</g>
<!-- PilatusDwellTime -->
<g id="node7" class="node">
<title>PilatusDwellTime</title>
<ellipse fill="none" stroke="black" cx="2838.48" cy="-52.33" rx="236.17" ry="52.33"/>
<text xml:space="preserve" text-anchor="middle" x="2838.48" y="-72.03" font-family="Times,serif" font-size="14.00">PilatusDwellTime</text>
<text xml:space="preserve" text-anchor="middle" x="2838.48" y="-55.53" font-family="Times,serif" font-size="14.00">File: ./bmm&#45;profile&#45;collection/startup/BMM/dwelltime.py</text>
<text xml:space="preserve" text-anchor="middle" x="2838.48" y="-39.03" font-family="Times,serif" font-size="14.00">Methods: 0</text>
<text xml:space="preserve" text-anchor="middle" x="2838.48" y="-22.53" font-family="Times,serif" font-size="14.00">Attributes: 2</text>
</g>
<!-- PVPositionerPC&#45;&gt;PilatusDwellTime -->
<g id="edge6" class="edge">
<title>PVPositionerPC&#45;&gt;PilatusDwellTime</title>
<path fill="none" stroke="black" d="M10003.87,-231.73C9402.67,-226.8 3836.72,-179.3 3110.48,-104.65 3080.25,-101.54 3048.36,-96.84 3017.47,-91.52"/>
<polygon fill="black" stroke="black" points="3018.08,-88.07 3007.63,-89.79 3016.88,-94.97 3018.08,-88.07"/>
</g>
<!-- EigerDwellTime -->
<g id="node8" class="node">
<title>EigerDwellTime</title>
<ellipse fill="none" stroke="black" cx="3382.48" cy="-52.33" rx="236.17" ry="52.33"/>
<text xml:space="preserve" text-anchor="middle" x="3382.48" y="-72.03" font-family="Times,serif" font-size="14.00">EigerDwellTime</text>
<text xml:space="preserve" text-anchor="middle" x="3382.48" y="-55.53" font-family="Times,serif" font-size="14.00">File: ./bmm&#45;profile&#45;collection/startup/BMM/dwelltime.py</text>
<text xml:space="preserve" text-anchor="middle" x="3382.48" y="-39.03" font-family="Times,serif" font-size="14.00">Methods: 0</text>
<text xml:space="preserve" text-anchor="middle" x="3382.48" y="-22.53" font-family="Times,serif" font-size="14.00">Attributes: 2</text>
</g>
<!-- PVPositionerPC&#45;&gt;EigerDwellTime -->
<g id="edge7" class="edge">
<title>PVPositionerPC&#45;&gt;EigerDwellTime</title>
<path fill="none" stroke="black" d="M10003.95,-232.32C9468.05,-233.85 4984.5,-242.41 3654.48,-104.65 3624.25,-101.52 3592.36,-96.81 3561.47,-91.48"/>
<polygon fill="black" stroke="black" points="3562.09,-88.03 3551.63,-89.75 3560.88,-94.93 3562.09,-88.03"/>
</g>
<!-- DanteDwellTime -->
<g id="node9" class="node">
<title>DanteDwellTime</title>
<ellipse fill="none" stroke="black" cx="3926.48" cy="-52.33" rx="236.17" ry="52.33"/>
<text xml:space="preserve" text-anchor="middle" x="3926.48" y="-72.03" font-family="Times,serif" font-size="14.00">DanteDwellTime</text>
<text xml:space="preserve" text-anchor="middle" x="3926.48" y="-55.53" font-family="Times,serif" font-size="14.00">File: ./bmm&#45;profile&#45;collection/startup/BMM/dwelltime.py</text>
<text xml:space="preserve" text-anchor="middle" x="3926.48" y="-39.03" font-family="Times,serif" font-size="14.00">Methods: 0</text>
<text xml:space="preserve" text-anchor="middle" x="3926.48" y="-22.53" font-family="Times,serif" font-size="14.00">Attributes: 2</text>
</g>
<!-- PVPositionerPC&#45;&gt;DanteDwellTime -->
<g id="edge8" class="edge">
<title>PVPositionerPC&#45;&gt;DanteDwellTime</title>
<path fill="none" stroke="black" d="M10004.12,-232.21C9494.61,-232.57 5411.94,-231.47 4198.48,-104.65 4168.36,-101.5 4136.59,-96.8 4105.8,-91.49"/>
<polygon fill="black" stroke="black" points="4106.46,-88.05 4096,-89.77 4105.25,-94.94 4106.46,-88.05"/>
</g>
<!-- SmarpodBase -->
<g id="node10" class="node">
<title>SmarpodBase</title>
<ellipse fill="none" stroke="black" cx="4420.48" cy="-52.33" rx="185.79" ry="52.33"/>
<text xml:space="preserve" text-anchor="middle" x="4420.48" y="-72.03" font-family="Times,serif" font-size="14.00">SmarpodBase</text>
<text xml:space="preserve" text-anchor="middle" x="4420.48" y="-55.53" font-family="Times,serif" font-size="14.00">File: ./hxn&#45;profile&#45;collection/startup/15&#45;zp.py</text>
<text xml:space="preserve" text-anchor="middle" x="4420.48" y="-39.03" font-family="Times,serif" font-size="14.00">Methods: 1</text>
<text xml:space="preserve" text-anchor="middle" x="4420.48" y="-22.53" font-family="Times,serif" font-size="14.00">Attributes: 6</text>
</g>
<!-- PVPositionerPC&#45;&gt;SmarpodBase -->
<g id="edge9" class="edge">
<title>PVPositionerPC&#45;&gt;SmarpodBase</title>
<path fill="none" stroke="black" d="M10003.87,-231.57C9479.62,-225.67 5201.81,-175.56 4641.48,-104.65 4616.71,-101.52 4590.66,-96.79 4565.49,-91.45"/>
<polygon fill="black" stroke="black" points="4566.37,-88.06 4555.85,-89.36 4564.89,-94.9 4566.37,-88.06"/>
</g>
<!-- EPUMotor -->
<g id="node11" class="node">
<title>EPUMotor</title>
<ellipse fill="none" stroke="black" cx="4905.48" cy="-52.33" rx="227.69" ry="52.33"/>
<text xml:space="preserve" text-anchor="middle" x="4905.48" y="-72.03" font-family="Times,serif" font-size="14.00">EPUMotor</text>
<text xml:space="preserve" text-anchor="middle" x="4905.48" y="-55.53" font-family="Times,serif" font-size="14.00">File: ./csx&#45;profile&#45;collection/startup/csx1/devices/epu.py</text>
<text xml:space="preserve" text-anchor="middle" x="4905.48" y="-39.03" font-family="Times,serif" font-size="14.00">Methods: 1</text>
<text xml:space="preserve" text-anchor="middle" x="4905.48" y="-22.53" font-family="Times,serif" font-size="14.00">Attributes: 6</text>
</g>
<!-- PVPositionerPC&#45;&gt;EPUMotor -->
<g id="edge10" class="edge">
<title>PVPositionerPC&#45;&gt;EPUMotor</title>
<path fill="none" stroke="black" d="M10003.75,-231.98C9541.65,-230.34 6174.51,-214.69 5169.48,-104.65 5140.13,-101.44 5109.17,-96.68 5079.19,-91.34"/>
<polygon fill="black" stroke="black" points="5080.14,-87.95 5069.68,-89.62 5078.89,-94.84 5080.14,-87.95"/>
</g>
<!-- PGMEnergy -->
<g id="node12" class="node">
<title>PGMEnergy</title>
<ellipse fill="none" stroke="black" cx="5401.48" cy="-52.33" rx="196.4" ry="52.33"/>
<text xml:space="preserve" text-anchor="middle" x="5401.48" y="-72.03" font-family="Times,serif" font-size="14.00">PGMEnergy</text>
<text xml:space="preserve" text-anchor="middle" x="5401.48" y="-55.53" font-family="Times,serif" font-size="14.00">File: ./ios&#45;profile&#45;collection/startup/10&#45;optics.py</text>
<text xml:space="preserve" text-anchor="middle" x="5401.48" y="-39.03" font-family="Times,serif" font-size="14.00">Methods: 0</text>
<text xml:space="preserve" text-anchor="middle" x="5401.48" y="-22.53" font-family="Times,serif" font-size="14.00">Attributes: 4</text>
</g>
<!-- PVPositionerPC&#45;&gt;PGMEnergy -->
<g id="edge11" class="edge">
<title>PVPositionerPC&#45;&gt;PGMEnergy</title>
<path fill="none" stroke="black" d="M10004.02,-232.01C9567.97,-230.59 6538.31,-216.76 5633.48,-104.65 5607.59,-101.45 5580.35,-96.69 5553.99,-91.35"/>
<polygon fill="black" stroke="black" points="5554.74,-87.93 5544.23,-89.34 5553.32,-94.79 5554.74,-87.93"/>
</g>
<!-- PID -->
<g id="node13" class="node">
<title>PID</title>
<ellipse fill="none" stroke="black" cx="5906.48" cy="-52.33" rx="236.7" ry="52.33"/>
<text xml:space="preserve" text-anchor="middle" x="5906.48" y="-72.03" font-family="Times,serif" font-size="14.00">PID</text>
<text xml:space="preserve" text-anchor="middle" x="5906.48" y="-55.53" font-family="Times,serif" font-size="14.00">File: ./csx&#45;profile&#45;collection/startup/csx1/devices/optics.py</text>
<text xml:space="preserve" text-anchor="middle" x="5906.48" y="-39.03" font-family="Times,serif" font-size="14.00">Methods: 0</text>
<text xml:space="preserve" text-anchor="middle" x="5906.48" y="-22.53" font-family="Times,serif" font-size="14.00">Attributes: 4</text>
</g>
<!-- PVPositionerPC&#45;&gt;PID -->
<g id="edge12" class="edge">
<title>PVPositionerPC&#45;&gt;PID</title>
<path fill="none" stroke="black" d="M10003.95,-231.54C9599.05,-226.62 6968.79,-191.69 6178.48,-104.65 6148.59,-101.36 6117.06,-96.61 6086.49,-91.32"/>
<polygon fill="black" stroke="black" points="6087.22,-87.89 6076.76,-89.6 6086,-94.78 6087.22,-87.89"/>
</g>
<!-- SamplePosVirtualMotor -->
<g id="node14" class="node">
<title>SamplePosVirtualMotor</title>
<ellipse fill="none" stroke="black" cx="6451.48" cy="-52.33" rx="236.7" ry="52.33"/>
<text xml:space="preserve" text-anchor="middle" x="6451.48" y="-72.03" font-family="Times,serif" font-size="14.00">SamplePosVirtualMotor</text>
<text xml:space="preserve" text-anchor="middle" x="6451.48" y="-55.53" font-family="Times,serif" font-size="14.00">File: ./csx&#45;profile&#45;collection/startup/csx1/devices/optics.py</text>
<text xml:space="preserve" text-anchor="middle" x="6451.48" y="-39.03" font-family="Times,serif" font-size="14.00">Methods: 0</text>
<text xml:space="preserve" text-anchor="middle" x="6451.48" y="-22.53" font-family="Times,serif" font-size="14.00">Attributes: 3</text>
</g>
<!-- PVPositionerPC&#45;&gt;SamplePosVirtualMotor -->
<g id="edge13" class="edge">
<title>PVPositionerPC&#45;&gt;SamplePosVirtualMotor</title>
<path fill="none" stroke="black" d="M10003.88,-231.21C9632.28,-224.4 7397.97,-180.77 6723.48,-104.65 6693.7,-101.29 6662.3,-96.53 6631.83,-91.24"/>
<polygon fill="black" stroke="black" points="6632.6,-87.82 6622.14,-89.53 6631.38,-94.71 6632.6,-87.82"/>
</g>
<!-- Cryoangle -->
<g id="node15" class="node">
<title>Cryoangle</title>
<ellipse fill="none" stroke="black" cx="6996.48" cy="-52.33" rx="236.7" ry="52.33"/>
<text xml:space="preserve" text-anchor="middle" x="6996.48" y="-72.03" font-family="Times,serif" font-size="14.00">Cryoangle</text>
<text xml:space="preserve" text-anchor="middle" x="6996.48" y="-55.53" font-family="Times,serif" font-size="14.00">File: ./csx&#45;profile&#45;collection/startup/csx1/devices/optics.py</text>
<text xml:space="preserve" text-anchor="middle" x="6996.48" y="-39.03" font-family="Times,serif" font-size="14.00">Methods: 0</text>
<text xml:space="preserve" text-anchor="middle" x="6996.48" y="-22.53" font-family="Times,serif" font-size="14.00">Attributes: 3</text>
</g>
<!-- PVPositionerPC&#45;&gt;Cryoangle -->
<g id="edge14" class="edge">
<title>PVPositionerPC&#45;&gt;Cryoangle</title>
<path fill="none" stroke="black" d="M10004.02,-232.5C9722.96,-233.78 8366.98,-232.77 7268.48,-104.65 7238.82,-101.19 7207.55,-96.39 7177.18,-91.1"/>
<polygon fill="black" stroke="black" points="7177.98,-87.69 7167.53,-89.4 7176.76,-94.58 7177.98,-87.69"/>
</g>
<!-- acc_slit -->
<g id="node16" class="node">
<title>acc_slit</title>
<ellipse fill="none" stroke="black" cx="7541.48" cy="-52.33" rx="236.7" ry="52.33"/>
<text xml:space="preserve" text-anchor="middle" x="7541.48" y="-72.03" font-family="Times,serif" font-size="14.00">acc_slit</text>
<text xml:space="preserve" text-anchor="middle" x="7541.48" y="-55.53" font-family="Times,serif" font-size="14.00">File: ./csx&#45;profile&#45;collection/startup/csx1/devices/optics.py</text>
<text xml:space="preserve" text-anchor="middle" x="7541.48" y="-39.03" font-family="Times,serif" font-size="14.00">Methods: 0</text>
<text xml:space="preserve" text-anchor="middle" x="7541.48" y="-22.53" font-family="Times,serif" font-size="14.00">Attributes: 2</text>
</g>
<!-- PVPositionerPC&#45;&gt;acc_slit -->
<g id="edge15" class="edge">
<title>PVPositionerPC&#45;&gt;acc_slit</title>
<path fill="none" stroke="black" d="M10004.09,-231.68C9757.11,-228.93 8684.58,-211.14 7813.48,-104.65 7784.06,-101.06 7753.02,-96.21 7722.86,-90.93"/>
<polygon fill="black" stroke="black" points="7723.75,-87.53 7713.29,-89.23 7722.52,-94.43 7723.75,-87.53"/>
</g>
<!-- acc_slit_cent -->
<g id="node17" class="node">
<title>acc_slit_cent</title>
<ellipse fill="none" stroke="black" cx="8086.48" cy="-52.33" rx="236.7" ry="52.33"/>
<text xml:space="preserve" text-anchor="middle" x="8086.48" y="-72.03" font-family="Times,serif" font-size="14.00">acc_slit_cent</text>
<text xml:space="preserve" text-anchor="middle" x="8086.48" y="-55.53" font-family="Times,serif" font-size="14.00">File: ./csx&#45;profile&#45;collection/startup/csx1/devices/optics.py</text>
<text xml:space="preserve" text-anchor="middle" x="8086.48" y="-39.03" font-family="Times,serif" font-size="14.00">Methods: 0</text>
<text xml:space="preserve" text-anchor="middle" x="8086.48" y="-22.53" font-family="Times,serif" font-size="14.00">Attributes: 2</text>
</g>
<!-- PVPositionerPC&#45;&gt;acc_slit_cent -->
<g id="edge16" class="edge">
<title>PVPositionerPC&#45;&gt;acc_slit_cent</title>
<path fill="none" stroke="black" d="M10003.83,-230.32C9794.91,-222.63 9004.31,-189.23 8359.48,-104.65 8330.2,-100.81 8299.31,-95.87 8269.25,-90.58"/>
<polygon fill="black" stroke="black" points="8270.17,-87.19 8259.71,-88.88 8268.94,-94.08 8270.17,-87.19"/>
</g>
<!-- GapMotor1 -->
<g id="node18" class="node">
<title>GapMotor1</title>
<ellipse fill="none" stroke="black" cx="8601.48" cy="-52.33" rx="206.48" ry="52.33"/>
<text xml:space="preserve" text-anchor="middle" x="8601.48" y="-72.03" font-family="Times,serif" font-size="14.00">GapMotor1</text>
<text xml:space="preserve" text-anchor="middle" x="8601.48" y="-55.53" font-family="Times,serif" font-size="14.00">File: ./ios&#45;profile&#45;collection/startup/10&#45;machine.py</text>
<text xml:space="preserve" text-anchor="middle" x="8601.48" y="-39.03" font-family="Times,serif" font-size="14.00">Methods: 0</text>
<text xml:space="preserve" text-anchor="middle" x="8601.48" y="-22.53" font-family="Times,serif" font-size="14.00">Attributes: 4</text>
</g>
<!-- PVPositionerPC&#45;&gt;GapMotor1 -->
<g id="edge17" class="edge">
<title>PVPositionerPC&#45;&gt;GapMotor1</title>
<path fill="none" stroke="black" d="M10003.95,-228.58C9834.97,-216.66 9290.41,-175.01 8844.48,-104.65 8818.55,-100.56 8791.22,-95.52 8764.61,-90.2"/>
<polygon fill="black" stroke="black" points="8765.64,-86.84 8755.15,-88.29 8764.26,-93.7 8765.64,-86.84"/>
</g>
<!-- PhaseMotor1 -->
<g id="node19" class="node">
<title>PhaseMotor1</title>
<ellipse fill="none" stroke="black" cx="9086.48" cy="-52.33" rx="206.48" ry="52.33"/>
<text xml:space="preserve" text-anchor="middle" x="9086.48" y="-72.03" font-family="Times,serif" font-size="14.00">PhaseMotor1</text>
<text xml:space="preserve" text-anchor="middle" x="9086.48" y="-55.53" font-family="Times,serif" font-size="14.00">File: ./ios&#45;profile&#45;collection/startup/10&#45;machine.py</text>
<text xml:space="preserve" text-anchor="middle" x="9086.48" y="-39.03" font-family="Times,serif" font-size="14.00">Methods: 0</text>
<text xml:space="preserve" text-anchor="middle" x="9086.48" y="-22.53" font-family="Times,serif" font-size="14.00">Attributes: 4</text>
</g>
<!-- PVPositionerPC&#45;&gt;PhaseMotor1 -->
<g id="edge18" class="edge">
<title>PVPositionerPC&#45;&gt;PhaseMotor1</title>
<path fill="none" stroke="black" d="M10003.9,-223.57C9884.04,-203.87 9581.42,-153.34 9329.48,-104.65 9304.86,-99.9 9278.89,-94.65 9253.45,-89.39"/>
<polygon fill="black" stroke="black" points="9254.18,-85.96 9243.68,-87.36 9252.76,-92.82 9254.18,-85.96"/>
</g>
<!-- GapMotor2 -->
<g id="node20" class="node">
<title>GapMotor2</title>
<ellipse fill="none" stroke="black" cx="9571.48" cy="-52.33" rx="206.48" ry="52.33"/>
<text xml:space="preserve" text-anchor="middle" x="9571.48" y="-72.03" font-family="Times,serif" font-size="14.00">GapMotor2</text>
<text xml:space="preserve" text-anchor="middle" x="9571.48" y="-55.53" font-family="Times,serif" font-size="14.00">File: ./ios&#45;profile&#45;collection/startup/10&#45;machine.py</text>
<text xml:space="preserve" text-anchor="middle" x="9571.48" y="-39.03" font-family="Times,serif" font-size="14.00">Methods: 0</text>
<text xml:space="preserve" text-anchor="middle" x="9571.48" y="-22.53" font-family="Times,serif" font-size="14.00">Attributes: 4</text>
</g>
<!-- PVPositionerPC&#45;&gt;GapMotor2 -->
<g id="edge19" class="edge">
<title>PVPositionerPC&#45;&gt;GapMotor2</title>
<path fill="none" stroke="black" d="M10004.11,-212.84C9931.44,-186.05 9797.72,-136.74 9698.1,-100.01"/>
<polygon fill="black" stroke="black" points="9699.36,-96.75 9688.77,-96.57 9696.94,-103.32 9699.36,-96.75"/>
</g>
<!-- PhaseMotor2 -->
<g id="node21" class="node">
<title>PhaseMotor2</title>
<ellipse fill="none" stroke="black" cx="10056.48" cy="-52.33" rx="206.48" ry="52.33"/>
<text xml:space="preserve" text-anchor="middle" x="10056.48" y="-72.03" font-family="Times,serif" font-size="14.00">PhaseMotor2</text>
<text xml:space="preserve" text-anchor="middle" x="10056.48" y="-55.53" font-family="Times,serif" font-size="14.00">File: ./ios&#45;profile&#45;collection/startup/10&#45;machine.py</text>
<text xml:space="preserve" text-anchor="middle" x="10056.48" y="-39.03" font-family="Times,serif" font-size="14.00">Methods: 0</text>
<text xml:space="preserve" text-anchor="middle" x="10056.48" y="-22.53" font-family="Times,serif" font-size="14.00">Attributes: 4</text>
</g>
<!-- PVPositionerPC&#45;&gt;PhaseMotor2 -->
<g id="edge20" class="edge">
<title>PVPositionerPC&#45;&gt;PhaseMotor2</title>
<path fill="none" stroke="black" d="M10056.48,-212.33C10056.48,-189.21 10056.48,-149.84 10056.48,-116.06"/>
<polygon fill="black" stroke="black" points="10059.98,-116.37 10056.48,-106.37 10052.98,-116.37 10059.98,-116.37"/>
</g>
<!-- Slit2DGap -->
<g id="node22" class="node">
<title>Slit2DGap</title>
<ellipse fill="none" stroke="black" cx="10541.48" cy="-52.33" rx="206.48" ry="52.33"/>
<text xml:space="preserve" text-anchor="middle" x="10541.48" y="-72.03" font-family="Times,serif" font-size="14.00">Slit2DGap</text>
<text xml:space="preserve" text-anchor="middle" x="10541.48" y="-55.53" font-family="Times,serif" font-size="14.00">File: ./ixs&#45;profile&#45;collection/startup/10&#45;machine.py</text>
<text xml:space="preserve" text-anchor="middle" x="10541.48" y="-39.03" font-family="Times,serif" font-size="14.00">Methods: 0</text>
<text xml:space="preserve" text-anchor="middle" x="10541.48" y="-22.53" font-family="Times,serif" font-size="14.00">Attributes: 4</text>
</g>
<!-- PVPositionerPC&#45;&gt;Slit2DGap -->
<g id="edge21" class="edge">
<title>PVPositionerPC&#45;&gt;Slit2DGap</title>
<path fill="none" stroke="black" d="M10108.84,-212.84C10181.51,-186.05 10315.23,-136.74 10414.85,-100.01"/>
<polygon fill="black" stroke="black" points="10416.01,-103.32 10424.18,-96.57 10413.59,-96.75 10416.01,-103.32"/>
</g>
<!-- Slit2DCenter -->
<g id="node23" class="node">
<title>Slit2DCenter</title>
<ellipse fill="none" stroke="black" cx="11026.48" cy="-52.33" rx="206.48" ry="52.33"/>
<text xml:space="preserve" text-anchor="middle" x="11026.48" y="-72.03" font-family="Times,serif" font-size="14.00">Slit2DCenter</text>
<text xml:space="preserve" text-anchor="middle" x="11026.48" y="-55.53" font-family="Times,serif" font-size="14.00">File: ./ixs&#45;profile&#45;collection/startup/10&#45;machine.py</text>
<text xml:space="preserve" text-anchor="middle" x="11026.48" y="-39.03" font-family="Times,serif" font-size="14.00">Methods: 0</text>
<text xml:space="preserve" text-anchor="middle" x="11026.48" y="-22.53" font-family="Times,serif" font-size="14.00">Attributes: 4</text>
</g>
<!-- PVPositionerPC&#45;&gt;Slit2DCenter -->
<g id="edge22" class="edge">
<title>PVPositionerPC&#45;&gt;Slit2DCenter</title>
<path fill="none" stroke="black" d="M10109.05,-223.57C10228.91,-203.87 10531.53,-153.34 10783.48,-104.65 10808.09,-99.9 10834.06,-94.65 10859.5,-89.39"/>
<polygon fill="black" stroke="black" points="10860.19,-92.82 10869.27,-87.36 10858.77,-85.96 10860.19,-92.82"/>
</g>
<!-- SmarPod_x -->
<g id="node24" class="node">
<title>SmarPod_x</title>
<ellipse fill="none" stroke="black" cx="11504.48" cy="-52.33" rx="199.05" ry="52.33"/>
<text xml:space="preserve" text-anchor="middle" x="11504.48" y="-72.03" font-family="Times,serif" font-size="14.00">SmarPod_x</text>
<text xml:space="preserve" text-anchor="middle" x="11504.48" y="-55.53" font-family="Times,serif" font-size="14.00">File: ./chx&#45;profile&#45;collection/startup/10&#45;optics.py</text>
<text xml:space="preserve" text-anchor="middle" x="11504.48" y="-39.03" font-family="Times,serif" font-size="14.00">Methods: 0</text>
<text xml:space="preserve" text-anchor="middle" x="11504.48" y="-22.53" font-family="Times,serif" font-size="14.00">Attributes: 4</text>
</g>
<!-- PVPositionerPC&#45;&gt;SmarPod_x -->
<g id="edge23" class="edge">
<title>PVPositionerPC&#45;&gt;SmarPod_x</title>
<path fill="none" stroke="black" d="M10109.02,-228.69C10278.05,-217.1 10822.75,-176.34 11268.48,-104.65 11293.74,-100.59 11320.37,-95.54 11346.28,-90.22"/>
<polygon fill="black" stroke="black" points="11346.78,-93.69 11355.86,-88.23 11345.35,-86.84 11346.78,-93.69"/>
</g>
<!-- SmarPod_y -->
<g id="node25" class="node">
<title>SmarPod_y</title>
<ellipse fill="none" stroke="black" cx="11974.48" cy="-52.33" rx="199.05" ry="52.33"/>
<text xml:space="preserve" text-anchor="middle" x="11974.48" y="-72.03" font-family="Times,serif" font-size="14.00">SmarPod_y</text>
<text xml:space="preserve" text-anchor="middle" x="11974.48" y="-55.53" font-family="Times,serif" font-size="14.00">File: ./chx&#45;profile&#45;collection/startup/10&#45;optics.py</text>
<text xml:space="preserve" text-anchor="middle" x="11974.48" y="-39.03" font-family="Times,serif" font-size="14.00">Methods: 0</text>
<text xml:space="preserve" text-anchor="middle" x="11974.48" y="-22.53" font-family="Times,serif" font-size="14.00">Attributes: 4</text>
</g>
<!-- PVPositionerPC&#45;&gt;SmarPod_y -->
<g id="edge24" class="edge">
<title>PVPositionerPC&#45;&gt;SmarPod_y</title>
<path fill="none" stroke="black" d="M10109.12,-230.84C10317.14,-225.07 11101.62,-198.01 11739.48,-104.65 11764.96,-100.92 11791.82,-96.01 11817.89,-90.7"/>
<polygon fill="black" stroke="black" points="11818.44,-94.16 11827.53,-88.71 11817.03,-87.3 11818.44,-94.16"/>
</g>
<!-- SmarPod_z -->
<g id="node26" class="node">
<title>SmarPod_z</title>
<ellipse fill="none" stroke="black" cx="12444.48" cy="-52.33" rx="199.05" ry="52.33"/>
<text xml:space="preserve" text-anchor="middle" x="12444.48" y="-72.03" font-family="Times,serif" font-size="14.00">SmarPod_z</text>
<text xml:space="preserve" text-anchor="middle" x="12444.48" y="-55.53" font-family="Times,serif" font-size="14.00">File: ./chx&#45;profile&#45;collection/startup/10&#45;optics.py</text>
<text xml:space="preserve" text-anchor="middle" x="12444.48" y="-39.03" font-family="Times,serif" font-size="14.00">Methods: 0</text>
<text xml:space="preserve" text-anchor="middle" x="12444.48" y="-22.53" font-family="Times,serif" font-size="14.00">Attributes: 4</text>
</g>
<!-- PVPositionerPC&#45;&gt;SmarPod_z -->
<g id="edge25" class="edge">
<title>PVPositionerPC&#45;&gt;SmarPod_z</title>
<path fill="none" stroke="black" d="M10108.82,-232.05C10349.93,-230.96 11377.21,-219.47 12209.48,-104.65 12235.18,-101.11 12262.24,-96.26 12288.5,-90.95"/>
<polygon fill="black" stroke="black" points="12289.12,-94.4 12298.21,-88.95 12287.71,-87.54 12289.12,-94.4"/>
</g>
<!-- SmarPod_rx -->
<g id="node27" class="node">
<title>SmarPod_rx</title>
<ellipse fill="none" stroke="black" cx="12914.48" cy="-52.33" rx="199.05" ry="52.33"/>
<text xml:space="preserve" text-anchor="middle" x="12914.48" y="-72.03" font-family="Times,serif" font-size="14.00">SmarPod_rx</text>
<text xml:space="preserve" text-anchor="middle" x="12914.48" y="-55.53" font-family="Times,serif" font-size="14.00">File: ./chx&#45;profile&#45;collection/startup/10&#45;optics.py</text>
<text xml:space="preserve" text-anchor="middle" x="12914.48" y="-39.03" font-family="Times,serif" font-size="14.00">Methods: 0</text>
<text xml:space="preserve" text-anchor="middle" x="12914.48" y="-22.53" font-family="Times,serif" font-size="14.00">Attributes: 4</text>
</g>
<!-- PVPositionerPC&#45;&gt;SmarPod_rx -->
<g id="edge26" class="edge">
<title>PVPositionerPC&#45;&gt;SmarPod_rx</title>
<path fill="none" stroke="black" d="M10109.05,-230.79C10432.52,-222.24 12156.04,-174.04 12679.48,-104.65 12705.37,-101.22 12732.65,-96.4 12759.08,-91.07"/>
<polygon fill="black" stroke="black" points="12759.78,-94.5 12768.87,-89.07 12758.37,-87.65 12759.78,-94.5"/>
</g>
<!-- SmarPod_ry -->
<g id="node28" class="node">
<title>SmarPod_ry</title>
<ellipse fill="none" stroke="black" cx="13384.48" cy="-52.33" rx="199.05" ry="52.33"/>
<text xml:space="preserve" text-anchor="middle" x="13384.48" y="-72.03" font-family="Times,serif" font-size="14.00">SmarPod_ry</text>
<text xml:space="preserve" text-anchor="middle" x="13384.48" y="-55.53" font-family="Times,serif" font-size="14.00">File: ./chx&#45;profile&#45;collection/startup/10&#45;optics.py</text>
<text xml:space="preserve" text-anchor="middle" x="13384.48" y="-39.03" font-family="Times,serif" font-size="14.00">Methods: 0</text>
<text xml:space="preserve" text-anchor="middle" x="13384.48" y="-22.53" font-family="Times,serif" font-size="14.00">Attributes: 4</text>
</g>
<!-- PVPositionerPC&#45;&gt;SmarPod_ry -->
<g id="edge27" class="edge">
<title>PVPositionerPC&#45;&gt;SmarPod_ry</title>
<path fill="none" stroke="black" d="M10108.96,-231.24C10464.68,-224.86 12526.83,-184.86 13149.48,-104.65 13175.59,-101.29 13203.1,-96.47 13229.74,-91.11"/>
<polygon fill="black" stroke="black" points="13230.11,-94.61 13239.21,-89.17 13228.71,-87.75 13230.11,-94.61"/>
</g>
<!-- SmarPod_rz -->
<g id="node29" class="node">
<title>SmarPod_rz</title>
<ellipse fill="none" stroke="black" cx="13854.48" cy="-52.33" rx="199.05" ry="52.33"/>
<text xml:space="preserve" text-anchor="middle" x="13854.48" y="-72.03" font-family="Times,serif" font-size="14.00">SmarPod_rz</text>
<text xml:space="preserve" text-anchor="middle" x="13854.48" y="-55.53" font-family="Times,serif" font-size="14.00">File: ./chx&#45;profile&#45;collection/startup/10&#45;optics.py</text>
<text xml:space="preserve" text-anchor="middle" x="13854.48" y="-39.03" font-family="Times,serif" font-size="14.00">Methods: 0</text>
<text xml:space="preserve" text-anchor="middle" x="13854.48" y="-22.53" font-family="Times,serif" font-size="14.00">Attributes: 4</text>
</g>
<!-- PVPositionerPC&#45;&gt;SmarPod_rz -->
<g id="edge28" class="edge">
<title>PVPositionerPC&#45;&gt;SmarPod_rz</title>
<path fill="none" stroke="black" d="M10108.98,-231.57C10494.84,-227.07 12897.32,-195.69 13619.48,-104.65 13645.69,-101.35 13673.31,-96.54 13700.03,-91.17"/>
<polygon fill="black" stroke="black" points="13700.44,-94.66 13709.54,-89.23 13699.04,-87.81 13700.44,-94.66"/>
</g>
<!-- Channel -->
<g id="node30" class="node">
<title>Channel</title>
<ellipse fill="none" stroke="black" cx="14380.48" cy="-52.33" rx="254.74" ry="52.33"/>
<text xml:space="preserve" text-anchor="middle" x="14380.48" y="-72.03" font-family="Times,serif" font-size="14.00">Channel</text>
<text xml:space="preserve" text-anchor="middle" x="14380.48" y="-55.53" font-family="Times,serif" font-size="14.00">File: ./lix&#45;profile&#45;collection/startup/components/11&#45;bimorph.py</text>
<text xml:space="preserve" text-anchor="middle" x="14380.48" y="-39.03" font-family="Times,serif" font-size="14.00">Methods: 0</text>
<text xml:space="preserve" text-anchor="middle" x="14380.48" y="-22.53" font-family="Times,serif" font-size="14.00">Attributes: 3</text>
</g>
<!-- PVPositionerPC&#45;&gt;Channel -->
<g id="edge29" class="edge">
<title>PVPositionerPC&#45;&gt;Channel</title>
<path fill="none" stroke="black" d="M10109.1,-231.53C10523.4,-226.44 13265.72,-189.88 14089.48,-104.65 14121.45,-101.34 14155.21,-96.58 14187.96,-91.27"/>
<polygon fill="black" stroke="black" points="14188.24,-94.77 14197.54,-89.7 14187.1,-87.87 14188.24,-94.77"/>
</g>
<!-- SRXHFMFinePitch -->
<g id="node31" class="node">
<title>SRXHFMFinePitch</title>
<ellipse fill="none" stroke="black" cx="14904.48" cy="-52.33" rx="196.93" ry="52.33"/>
<text xml:space="preserve" text-anchor="middle" x="14904.48" y="-72.03" font-family="Times,serif" font-size="14.00">SRXHFMFinePitch</text>
<text xml:space="preserve" text-anchor="middle" x="14904.48" y="-55.53" font-family="Times,serif" font-size="14.00">File: ./srx&#45;profile&#45;collection/startup/11&#45;optics.py</text>
<text xml:space="preserve" text-anchor="middle" x="14904.48" y="-39.03" font-family="Times,serif" font-size="14.00">Methods: 0</text>
<text xml:space="preserve" text-anchor="middle" x="14904.48" y="-22.53" font-family="Times,serif" font-size="14.00">Attributes: 2</text>
</g>
<!-- PVPositionerPC&#45;&gt;SRXHFMFinePitch -->
<g id="edge30" class="edge">
<title>PVPositionerPC&#45;&gt;SRXHFMFinePitch</title>
<path fill="none" stroke="black" d="M10109.07,-232.07C10556.18,-231.18 13725.77,-220.81 14671.48,-104.65 14697.58,-101.45 14725.07,-96.67 14751.66,-91.3"/>
<polygon fill="black" stroke="black" points="14752.01,-94.8 14761.1,-89.36 14750.6,-87.95 14752.01,-94.8"/>
</g>
<!-- HDCMPiezoRoll -->
<g id="node32" class="node">
<title>HDCMPiezoRoll</title>
<ellipse fill="none" stroke="black" cx="15370.48" cy="-52.33" rx="196.93" ry="52.33"/>
<text xml:space="preserve" text-anchor="middle" x="15370.48" y="-72.03" font-family="Times,serif" font-size="14.00">HDCMPiezoRoll</text>
<text xml:space="preserve" text-anchor="middle" x="15370.48" y="-55.53" font-family="Times,serif" font-size="14.00">File: ./srx&#45;profile&#45;collection/startup/11&#45;optics.py</text>
<text xml:space="preserve" text-anchor="middle" x="15370.48" y="-39.03" font-family="Times,serif" font-size="14.00">Methods: 1</text>
<text xml:space="preserve" text-anchor="middle" x="15370.48" y="-22.53" font-family="Times,serif" font-size="14.00">Attributes: 4</text>
</g>
<!-- PVPositionerPC&#45;&gt;HDCMPiezoRoll -->
<g id="edge31" class="edge">
<title>PVPositionerPC&#45;&gt;HDCMPiezoRoll</title>
<path fill="none" stroke="black" d="M10109.07,-232.23C10580.91,-232.68 14092.36,-231.68 15137.48,-104.65 15163.68,-101.47 15191.27,-96.69 15217.94,-91.31"/>
<polygon fill="black" stroke="black" points="15218.33,-94.8 15227.42,-89.35 15216.92,-87.94 15218.33,-94.8"/>
</g>
<!-- HDCMPiezoPitch -->
<g id="node33" class="node">
<title>HDCMPiezoPitch</title>
<ellipse fill="none" stroke="black" cx="15836.48" cy="-52.33" rx="196.93" ry="52.33"/>
<text xml:space="preserve" text-anchor="middle" x="15836.48" y="-72.03" font-family="Times,serif" font-size="14.00">HDCMPiezoPitch</text>
<text xml:space="preserve" text-anchor="middle" x="15836.48" y="-55.53" font-family="Times,serif" font-size="14.00">File: ./srx&#45;profile&#45;collection/startup/11&#45;optics.py</text>
<text xml:space="preserve" text-anchor="middle" x="15836.48" y="-39.03" font-family="Times,serif" font-size="14.00">Methods: 1</text>
<text xml:space="preserve" text-anchor="middle" x="15836.48" y="-22.53" font-family="Times,serif" font-size="14.00">Attributes: 4</text>
</g>
<!-- PVPositionerPC&#45;&gt;HDCMPiezoPitch -->
<g id="edge32" class="edge">
<title>PVPositionerPC&#45;&gt;HDCMPiezoPitch</title>
<path fill="none" stroke="black" d="M10109.14,-232.35C10604.87,-234.04 14458.83,-242.56 15603.48,-104.65 15629.68,-101.49 15657.27,-96.73 15683.94,-91.35"/>
<polygon fill="black" stroke="black" points="15684.34,-94.84 15693.43,-89.4 15682.93,-87.99 15684.34,-94.84"/>
</g>
<!-- SRXSSAHG -->
<g id="node34" class="node">
<title>SRXSSAHG</title>
<ellipse fill="none" stroke="black" cx="16302.48" cy="-52.33" rx="196.93" ry="52.33"/>
<text xml:space="preserve" text-anchor="middle" x="16302.48" y="-72.03" font-family="Times,serif" font-size="14.00">SRXSSAHG</text>
<text xml:space="preserve" text-anchor="middle" x="16302.48" y="-55.53" font-family="Times,serif" font-size="14.00">File: ./srx&#45;profile&#45;collection/startup/11&#45;optics.py</text>
<text xml:space="preserve" text-anchor="middle" x="16302.48" y="-39.03" font-family="Times,serif" font-size="14.00">Methods: 0</text>
<text xml:space="preserve" text-anchor="middle" x="16302.48" y="-22.53" font-family="Times,serif" font-size="14.00">Attributes: 2</text>
</g>
<!-- PVPositionerPC&#45;&gt;SRXSSAHG -->
<g id="edge33" class="edge">
<title>PVPositionerPC&#45;&gt;SRXSSAHG</title>
<path fill="none" stroke="black" d="M10109.12,-231.66C10664.8,-226.43 15444.66,-179.36 16069.48,-104.65 16095.68,-101.52 16123.28,-96.76 16149.95,-91.39"/>
<polygon fill="black" stroke="black" points="16150.34,-94.88 16159.43,-89.44 16148.93,-88.03 16150.34,-94.88"/>
</g>
<!-- SRXSSAHC -->
<g id="node35" class="node">
<title>SRXSSAHC</title>
<ellipse fill="none" stroke="black" cx="16768.48" cy="-52.33" rx="196.93" ry="52.33"/>
<text xml:space="preserve" text-anchor="middle" x="16768.48" y="-72.03" font-family="Times,serif" font-size="14.00">SRXSSAHC</text>
<text xml:space="preserve" text-anchor="middle" x="16768.48" y="-55.53" font-family="Times,serif" font-size="14.00">File: ./srx&#45;profile&#45;collection/startup/11&#45;optics.py</text>
<text xml:space="preserve" text-anchor="middle" x="16768.48" y="-39.03" font-family="Times,serif" font-size="14.00">Methods: 0</text>
<text xml:space="preserve" text-anchor="middle" x="16768.48" y="-22.53" font-family="Times,serif" font-size="14.00">Attributes: 2</text>
</g>
<!-- PVPositionerPC&#45;&gt;SRXSSAHC -->
<g id="edge34" class="edge">
<title>PVPositionerPC&#45;&gt;SRXSSAHC</title>
<path fill="none" stroke="black" d="M10109.08,-231.75C10687.88,-227.24 15860.62,-184.83 16535.48,-104.65 16561.78,-101.53 16589.47,-96.76 16616.23,-91.37"/>
<polygon fill="black" stroke="black" points="16616.66,-94.86 16625.75,-89.41 16615.25,-88 16616.66,-94.86"/>
</g>
<!-- SRXSSAVG -->
<g id="node36" class="node">
<title>SRXSSAVG</title>
<ellipse fill="none" stroke="black" cx="17234.48" cy="-52.33" rx="196.93" ry="52.33"/>
<text xml:space="preserve" text-anchor="middle" x="17234.48" y="-72.03" font-family="Times,serif" font-size="14.00">SRXSSAVG</text>
<text xml:space="preserve" text-anchor="middle" x="17234.48" y="-55.53" font-family="Times,serif" font-size="14.00">File: ./srx&#45;profile&#45;collection/startup/11&#45;optics.py</text>
<text xml:space="preserve" text-anchor="middle" x="17234.48" y="-39.03" font-family="Times,serif" font-size="14.00">Methods: 0</text>
<text xml:space="preserve" text-anchor="middle" x="17234.48" y="-22.53" font-family="Times,serif" font-size="14.00">Attributes: 2</text>
</g>
<!-- PVPositionerPC&#45;&gt;SRXSSAVG -->
<g id="edge35" class="edge">
<title>PVPositionerPC&#45;&gt;SRXSSAVG</title>
<path fill="none" stroke="black" d="M10109.08,-231.82C10710.32,-227.99 16276.55,-190.29 17001.48,-104.65 17027.78,-101.54 17055.48,-96.79 17082.23,-91.4"/>
<polygon fill="black" stroke="black" points="17082.66,-94.88 17091.75,-89.44 17081.25,-88.03 17082.66,-94.88"/>
</g>
<!-- SRXSSAVC -->
<g id="node37" class="node">
<title>SRXSSAVC</title>
<ellipse fill="none" stroke="black" cx="17700.48" cy="-52.33" rx="196.93" ry="52.33"/>
<text xml:space="preserve" text-anchor="middle" x="17700.48" y="-72.03" font-family="Times,serif" font-size="14.00">SRXSSAVC</text>
<text xml:space="preserve" text-anchor="middle" x="17700.48" y="-55.53" font-family="Times,serif" font-size="14.00">File: ./srx&#45;profile&#45;collection/startup/11&#45;optics.py</text>
<text xml:space="preserve" text-anchor="middle" x="17700.48" y="-39.03" font-family="Times,serif" font-size="14.00">Methods: 0</text>
<text xml:space="preserve" text-anchor="middle" x="17700.48" y="-22.53" font-family="Times,serif" font-size="14.00">Attributes: 2</text>
</g>
<!-- PVPositionerPC&#45;&gt;SRXSSAVC -->
<g id="edge36" class="edge">
<title>PVPositionerPC&#45;&gt;SRXSSAVC</title>
<path fill="none" stroke="black" d="M10109.18,-231.89C10732.71,-228.68 16692.47,-195.75 17467.48,-104.65 17493.78,-101.56 17521.48,-96.81 17548.24,-91.42"/>
<polygon fill="black" stroke="black" points="17548.66,-94.91 17557.75,-89.47 17547.25,-88.05 17548.66,-94.91"/>
</g>
<!-- SRXSSABLADEO -->
<g id="node38" class="node">
<title>SRXSSABLADEO</title>
<ellipse fill="none" stroke="black" cx="18166.48" cy="-52.33" rx="196.93" ry="52.33"/>
<text xml:space="preserve" text-anchor="middle" x="18166.48" y="-72.03" font-family="Times,serif" font-size="14.00">SRXSSABLADEO</text>
<text xml:space="preserve" text-anchor="middle" x="18166.48" y="-55.53" font-family="Times,serif" font-size="14.00">File: ./srx&#45;profile&#45;collection/startup/11&#45;optics.py</text>
<text xml:space="preserve" text-anchor="middle" x="18166.48" y="-39.03" font-family="Times,serif" font-size="14.00">Methods: 0</text>
<text xml:space="preserve" text-anchor="middle" x="18166.48" y="-22.53" font-family="Times,serif" font-size="14.00">Attributes: 2</text>
</g>
<!-- PVPositionerPC&#45;&gt;SRXSSABLADEO -->
<g id="edge37" class="edge">
<title>PVPositionerPC&#45;&gt;SRXSSABLADEO</title>
<path fill="none" stroke="black" d="M10108.97,-231.95C10752.36,-229.34 17108.22,-201.23 17933.48,-104.65 17959.78,-101.57 17987.48,-96.83 18014.24,-91.45"/>
<polygon fill="black" stroke="black" points="18014.66,-94.93 18023.76,-89.49 18013.26,-88.08 18014.66,-94.93"/>
</g>
<!-- SRXSSABLADEI -->
<g id="node39" class="node">
<title>SRXSSABLADEI</title>
<ellipse fill="none" stroke="black" cx="18632.48" cy="-52.33" rx="196.93" ry="52.33"/>
<text xml:space="preserve" text-anchor="middle" x="18632.48" y="-72.03" font-family="Times,serif" font-size="14.00">SRXSSABLADEI</text>
<text xml:space="preserve" text-anchor="middle" x="18632.48" y="-55.53" font-family="Times,serif" font-size="14.00">File: ./srx&#45;profile&#45;collection/startup/11&#45;optics.py</text>
<text xml:space="preserve" text-anchor="middle" x="18632.48" y="-39.03" font-family="Times,serif" font-size="14.00">Methods: 0</text>
<text xml:space="preserve" text-anchor="middle" x="18632.48" y="-22.53" font-family="Times,serif" font-size="14.00">Attributes: 2</text>
</g>
<!-- PVPositionerPC&#45;&gt;SRXSSABLADEI -->
<g id="edge38" class="edge">
<title>PVPositionerPC&#45;&gt;SRXSSABLADEI</title>
<path fill="none" stroke="black" d="M10109.22,-232C10774.46,-229.95 17524.13,-206.69 18399.48,-104.65 18425.78,-101.59 18453.48,-96.85 18480.24,-91.47"/>
<polygon fill="black" stroke="black" points="18480.67,-94.95 18489.76,-89.51 18479.26,-88.1 18480.67,-94.95"/>
</g>
<!-- SRXNanoKBCoarse -->
<g id="node40" class="node">
<title>SRXNanoKBCoarse</title>
<ellipse fill="none" stroke="black" cx="19105.48" cy="-52.33" rx="203.82" ry="52.33"/>
<text xml:space="preserve" text-anchor="middle" x="19105.48" y="-72.03" font-family="Times,serif" font-size="14.00">SRXNanoKBCoarse</text>
<text xml:space="preserve" text-anchor="middle" x="19105.48" y="-55.53" font-family="Times,serif" font-size="14.00">File: ./srx&#45;profile&#45;collection/startup/16&#45;nanoES.py</text>
<text xml:space="preserve" text-anchor="middle" x="19105.48" y="-39.03" font-family="Times,serif" font-size="14.00">Methods: 0</text>
<text xml:space="preserve" text-anchor="middle" x="19105.48" y="-22.53" font-family="Times,serif" font-size="14.00">Attributes: 2</text>
</g>
<!-- PVPositionerPC&#45;&gt;SRXNanoKBCoarse -->
<g id="edge39" class="edge">
<title>PVPositionerPC&#45;&gt;SRXNanoKBCoarse</title>
<path fill="none" stroke="black" d="M10109.22,-232.02C10794.38,-230.25 17939.57,-209.33 18865.48,-104.65 18892.57,-101.59 18921.12,-96.85 18948.71,-91.46"/>
<polygon fill="black" stroke="black" points="18949.03,-94.97 18958.15,-89.58 18947.66,-88.1 18949.03,-94.97"/>
</g>
</g>
</svg>
