<?xml version="1.0" encoding="UTF-8" standalone="no"?>
<!DOCTYPE svg PUBLIC "-//W3C//DTD SVG 1.1//EN"
 "http://www.w3.org/Graphics/SVG/1.1/DTD/svg11.dtd">
<!-- Generated by graphviz version 14.0.0 (20250921.2048)
 -->
<!-- Pages: 1 -->
<svg width="942pt" height="262pt"
 viewBox="0.00 0.00 942.00 262.00" xmlns="http://www.w3.org/2000/svg" xmlns:xlink="http://www.w3.org/1999/xlink">
<g id="graph0" class="graph" transform="scale(1 1) rotate(0) translate(4 257.65)">
<polygon fill="white" stroke="none" points="-4,4 -4,-257.65 937.98,-257.65 937.98,4 -4,4"/>
<!-- QMainWindow -->
<g id="node1" class="node">
<title>QMainWindow</title>
<polygon fill="lightblue" stroke="lightblue" points="516.18,-253.65 414.68,-253.65 414.68,-212.65 516.18,-212.65 516.18,-253.65"/>
<text xml:space="preserve" text-anchor="middle" x="465.43" y="-236.35" font-family="Times,serif" font-size="14.00">QMainWindow</text>
<text xml:space="preserve" text-anchor="middle" x="465.43" y="-219.85" font-family="Times,serif" font-size="14.00">(Parent Class)</text>
</g>
<!-- QT_Plot_GUI -->
<g id="node2" class="node">
<title>QT_Plot_GUI</title>
<ellipse fill="none" stroke="black" cx="214.43" cy="-52.33" rx="214.43" ry="52.33"/>
<text xml:space="preserve" text-anchor="middle" x="214.43" y="-72.03" font-family="Times,serif" font-size="14.00">QT_Plot_GUI</text>
<text xml:space="preserve" text-anchor="middle" x="214.43" y="-55.53" font-family="Times,serif" font-size="14.00">File: ./ios&#45;profile&#45;collection/startup/pyqt_plot_gui.py</text>
<text xml:space="preserve" text-anchor="middle" x="214.43" y="-39.03" font-family="Times,serif" font-size="14.00">Methods: 1</text>
<text xml:space="preserve" text-anchor="middle" x="214.43" y="-22.53" font-family="Times,serif" font-size="14.00">Attributes: 23</text>
</g>
<!-- QMainWindow&#45;&gt;QT_Plot_GUI -->
<g id="edge1" class="edge">
<title>QMainWindow&#45;&gt;QT_Plot_GUI</title>
<path fill="none" stroke="black" d="M437.61,-212.33C402.76,-187.5 341.62,-143.95 292.14,-108.69"/>
<polygon fill="black" stroke="black" points="294.45,-106.04 284.28,-103.09 290.39,-111.74 294.45,-106.04"/>
</g>
<!-- QT_Scan_GUI -->
<g id="node3" class="node">
<title>QT_Scan_GUI</title>
<ellipse fill="none" stroke="black" cx="717.43" cy="-52.33" rx="216.55" ry="52.33"/>
<text xml:space="preserve" text-anchor="middle" x="717.43" y="-72.03" font-family="Times,serif" font-size="14.00">QT_Scan_GUI</text>
<text xml:space="preserve" text-anchor="middle" x="717.43" y="-55.53" font-family="Times,serif" font-size="14.00">File: ./ios&#45;profile&#45;collection/startup/pyqt_scan_gui.py</text>
<text xml:space="preserve" text-anchor="middle" x="717.43" y="-39.03" font-family="Times,serif" font-size="14.00">Methods: 2</text>
<text xml:space="preserve" text-anchor="middle" x="717.43" y="-22.53" font-family="Times,serif" font-size="14.00">Attributes: 31</text>
</g>
<!-- QMainWindow&#45;&gt;QT_Scan_GUI -->
<g id="edge2" class="edge">
<title>QMainWindow&#45;&gt;QT_Scan_GUI</title>
<path fill="none" stroke="black" d="M493.36,-212.33C528.29,-187.55 589.52,-144.1 639.16,-108.87"/>
<polygon fill="black" stroke="black" points="640.92,-111.91 647.05,-103.27 636.86,-106.21 640.92,-111.91"/>
</g>
</g>
</svg>
