<?xml version="1.0" encoding="UTF-8" standalone="no"?>
<!DOCTYPE svg PUBLIC "-//W3C//DTD SVG 1.1//EN"
 "http://www.w3.org/Graphics/SVG/1.1/DTD/svg11.dtd">
<!-- Generated by graphviz version 14.0.0 (20250921.2048)
 -->
<!-- Pages: 1 -->
<svg width="5811pt" height="262pt"
 viewBox="0.00 0.00 5811.00 262.00" xmlns="http://www.w3.org/2000/svg" xmlns:xlink="http://www.w3.org/1999/xlink">
<g id="graph0" class="graph" transform="scale(1 1) rotate(0) translate(4 257.65)">
<polygon fill="white" stroke="none" points="-4,4 -4,-257.65 5807.06,-257.65 5807.06,4 -4,4"/>
<!-- QtAwareCallback -->
<g id="node1" class="node">
<title>QtAwareCallback</title>
<polygon fill="lightblue" stroke="lightblue" points="3146.26,-253.65 3032.76,-253.65 3032.76,-212.65 3146.26,-212.65 3146.26,-253.65"/>
<text xml:space="preserve" text-anchor="middle" x="3089.51" y="-236.35" font-family="Times,serif" font-size="14.00">QtAwareCallback</text>
<text xml:space="preserve" text-anchor="middle" x="3089.51" y="-219.85" font-family="Times,serif" font-size="14.00">(Parent Class)</text>
</g>
<!-- EScanPlot -->
<g id="node2" class="node">
<title>EScanPlot</title>
<ellipse fill="none" stroke="black" cx="224.51" cy="-52.33" rx="224.51" ry="52.33"/>
<text xml:space="preserve" text-anchor="middle" x="224.51" y="-72.03" font-family="Times,serif" font-size="14.00">EScanPlot</text>
<text xml:space="preserve" text-anchor="middle" x="224.51" y="-55.53" font-family="Times,serif" font-size="14.00">File: ./tes&#45;profile&#45;collection/startup/89&#45;usercallbacks.py</text>
<text xml:space="preserve" text-anchor="middle" x="224.51" y="-39.03" font-family="Times,serif" font-size="14.00">Methods: 4</text>
<text xml:space="preserve" text-anchor="middle" x="224.51" y="-22.53" font-family="Times,serif" font-size="14.00">Attributes: 9</text>
</g>
<!-- QtAwareCallback&#45;&gt;EScanPlot -->
<g id="edge1" class="edge">
<title>QtAwareCallback&#45;&gt;EScanPlot</title>
<path fill="none" stroke="black" d="M3032.42,-232.44C2752.8,-233.19 1500.24,-229.09 484.51,-104.65 456.16,-101.18 426.27,-96.37 397.26,-91.08"/>
<polygon fill="black" stroke="black" points="398.15,-87.69 387.68,-89.31 396.88,-94.57 398.15,-87.69"/>
</g>
<!-- SRX1DFlyerPlot -->
<g id="node3" class="node">
<title>SRX1DFlyerPlot</title>
<ellipse fill="none" stroke="black" cx="773.51" cy="-52.33" rx="252.61" ry="52.33"/>
<text xml:space="preserve" text-anchor="middle" x="773.51" y="-72.03" font-family="Times,serif" font-size="14.00">SRX1DFlyerPlot</text>
<text xml:space="preserve" text-anchor="middle" x="773.51" y="-55.53" font-family="Times,serif" font-size="14.00">File: ./srx&#45;profile&#45;collection/startup/01&#45;liveplot&#45;workaround.py</text>
<text xml:space="preserve" text-anchor="middle" x="773.51" y="-39.03" font-family="Times,serif" font-size="14.00">Methods: 6</text>
<text xml:space="preserve" text-anchor="middle" x="773.51" y="-22.53" font-family="Times,serif" font-size="14.00">Attributes: 23</text>
</g>
<!-- QtAwareCallback&#45;&gt;SRX1DFlyerPlot -->
<g id="edge2" class="edge">
<title>QtAwareCallback&#45;&gt;SRX1DFlyerPlot</title>
<path fill="none" stroke="black" d="M3032.43,-230.94C2792.06,-225.32 1838.64,-198.02 1061.51,-104.65 1030.72,-100.95 998.24,-96.1 966.62,-90.85"/>
<polygon fill="black" stroke="black" points="967.41,-87.44 956.97,-89.23 966.25,-94.34 967.41,-87.44"/>
</g>
<!-- SRX1DTSFlyerPlot -->
<g id="node4" class="node">
<title>SRX1DTSFlyerPlot</title>
<ellipse fill="none" stroke="black" cx="1350.51" cy="-52.33" rx="252.61" ry="52.33"/>
<text xml:space="preserve" text-anchor="middle" x="1350.51" y="-72.03" font-family="Times,serif" font-size="14.00">SRX1DTSFlyerPlot</text>
<text xml:space="preserve" text-anchor="middle" x="1350.51" y="-55.53" font-family="Times,serif" font-size="14.00">File: ./srx&#45;profile&#45;collection/startup/01&#45;liveplot&#45;workaround.py</text>
<text xml:space="preserve" text-anchor="middle" x="1350.51" y="-39.03" font-family="Times,serif" font-size="14.00">Methods: 7</text>
<text xml:space="preserve" text-anchor="middle" x="1350.51" y="-22.53" font-family="Times,serif" font-size="14.00">Attributes: 24</text>
</g>
<!-- QtAwareCallback&#45;&gt;SRX1DTSFlyerPlot -->
<g id="edge3" class="edge">
<title>QtAwareCallback&#45;&gt;SRX1DTSFlyerPlot</title>
<path fill="none" stroke="black" d="M3032.27,-228.95C2836.88,-217.65 2178.41,-176.34 1638.51,-104.65 1608.22,-100.63 1576.26,-95.66 1545.1,-90.42"/>
<polygon fill="black" stroke="black" points="1546.04,-87.03 1535.6,-88.81 1544.87,-93.93 1546.04,-87.03"/>
</g>
<!-- TSLiveGrid -->
<g id="node5" class="node">
<title>TSLiveGrid</title>
<ellipse fill="none" stroke="black" cx="1927.51" cy="-52.33" rx="252.61" ry="52.33"/>
<text xml:space="preserve" text-anchor="middle" x="1927.51" y="-72.03" font-family="Times,serif" font-size="14.00">TSLiveGrid</text>
<text xml:space="preserve" text-anchor="middle" x="1927.51" y="-55.53" font-family="Times,serif" font-size="14.00">File: ./srx&#45;profile&#45;collection/startup/01&#45;liveplot&#45;workaround.py</text>
<text xml:space="preserve" text-anchor="middle" x="1927.51" y="-39.03" font-family="Times,serif" font-size="14.00">Methods: 5</text>
<text xml:space="preserve" text-anchor="middle" x="1927.51" y="-22.53" font-family="Times,serif" font-size="14.00">Attributes: 29</text>
</g>
<!-- QtAwareCallback&#45;&gt;TSLiveGrid -->
<g id="edge4" class="edge">
<title>QtAwareCallback&#45;&gt;TSLiveGrid</title>
<path fill="none" stroke="black" d="M3032.4,-224.46C2892.76,-205.5 2522.97,-154.46 2215.51,-104.65 2186.6,-99.97 2156.09,-94.79 2126.19,-89.58"/>
<polygon fill="black" stroke="black" points="2127.15,-86.19 2116.69,-87.92 2125.94,-93.09 2127.15,-86.19"/>
</g>
<!-- HackLiveFlyerPlot -->
<g id="node6" class="node">
<title>HackLiveFlyerPlot</title>
<ellipse fill="none" stroke="black" cx="2504.51" cy="-52.33" rx="252.61" ry="52.33"/>
<text xml:space="preserve" text-anchor="middle" x="2504.51" y="-72.03" font-family="Times,serif" font-size="14.00">HackLiveFlyerPlot</text>
<text xml:space="preserve" text-anchor="middle" x="2504.51" y="-55.53" font-family="Times,serif" font-size="14.00">File: ./srx&#45;profile&#45;collection/startup/01&#45;liveplot&#45;workaround.py</text>
<text xml:space="preserve" text-anchor="middle" x="2504.51" y="-39.03" font-family="Times,serif" font-size="14.00">Methods: 6</text>
<text xml:space="preserve" text-anchor="middle" x="2504.51" y="-22.53" font-family="Times,serif" font-size="14.00">Attributes: 24</text>
</g>
<!-- QtAwareCallback&#45;&gt;HackLiveFlyerPlot -->
<g id="edge5" class="edge">
<title>QtAwareCallback&#45;&gt;HackLiveFlyerPlot</title>
<path fill="none" stroke="black" d="M3032.35,-214.68C2945.82,-188.23 2778.62,-137.12 2655.49,-99.48"/>
<polygon fill="black" stroke="black" points="2656.88,-96.24 2646.29,-96.67 2654.83,-102.94 2656.88,-96.24"/>
</g>
<!-- DerivedPlot -->
<g id="node7" class="node">
<title>DerivedPlot</title>
<ellipse fill="none" stroke="black" cx="3089.51" cy="-52.33" rx="260.04" ry="52.33"/>
<text xml:space="preserve" text-anchor="middle" x="3089.51" y="-72.03" font-family="Times,serif" font-size="14.00">DerivedPlot</text>
<text xml:space="preserve" text-anchor="middle" x="3089.51" y="-55.53" font-family="Times,serif" font-size="14.00">File: ./bmm&#45;profile&#45;collection/startup/BMM/attic/derivedplot.py</text>
<text xml:space="preserve" text-anchor="middle" x="3089.51" y="-39.03" font-family="Times,serif" font-size="14.00">Methods: 5</text>
<text xml:space="preserve" text-anchor="middle" x="3089.51" y="-22.53" font-family="Times,serif" font-size="14.00">Attributes: 18</text>
</g>
<!-- QtAwareCallback&#45;&gt;DerivedPlot -->
<g id="edge6" class="edge">
<title>QtAwareCallback&#45;&gt;DerivedPlot</title>
<path fill="none" stroke="black" d="M3089.51,-212.33C3089.51,-189.21 3089.51,-149.84 3089.51,-116.06"/>
<polygon fill="black" stroke="black" points="3093.01,-116.37 3089.51,-106.37 3086.01,-116.37 3093.01,-116.37"/>
</g>
<!-- LivePlot -->
<g id="node8" class="node">
<title>LivePlot</title>
<ellipse fill="none" stroke="black" cx="3617.51" cy="-52.33" rx="196.4" ry="52.33"/>
<text xml:space="preserve" text-anchor="middle" x="3617.51" y="-72.03" font-family="Times,serif" font-size="14.00">LivePlot</text>
<text xml:space="preserve" text-anchor="middle" x="3617.51" y="-55.53" font-family="Times,serif" font-size="14.00">File: ./opls&#45;profile&#45;collection/startup/89&#45;hack.py</text>
<text xml:space="preserve" text-anchor="middle" x="3617.51" y="-39.03" font-family="Times,serif" font-size="14.00">Methods: 6</text>
<text xml:space="preserve" text-anchor="middle" x="3617.51" y="-22.53" font-family="Times,serif" font-size="14.00">Attributes: 19</text>
</g>
<!-- QtAwareCallback&#45;&gt;LivePlot -->
<g id="edge7" class="edge">
<title>QtAwareCallback&#45;&gt;LivePlot</title>
<path fill="none" stroke="black" d="M3146.51,-212.84C3227.29,-185.49 3377.34,-134.67 3486.43,-97.72"/>
<polygon fill="black" stroke="black" points="3487.41,-101.08 3495.75,-94.56 3485.16,-94.45 3487.41,-101.08"/>
</g>
<!-- EngScanPlot -->
<g id="node9" class="node">
<title>EngScanPlot</title>
<ellipse fill="none" stroke="black" cx="4079.51" cy="-52.33" rx="193.75" ry="52.33"/>
<text xml:space="preserve" text-anchor="middle" x="4079.51" y="-72.03" font-family="Times,serif" font-size="14.00">EngScanPlot</text>
<text xml:space="preserve" text-anchor="middle" x="4079.51" y="-55.53" font-family="Times,serif" font-size="14.00">File: ./fxi&#45;profile&#45;collection/startup/41&#45;scans.py</text>
<text xml:space="preserve" text-anchor="middle" x="4079.51" y="-39.03" font-family="Times,serif" font-size="14.00">Methods: 4</text>
<text xml:space="preserve" text-anchor="middle" x="4079.51" y="-22.53" font-family="Times,serif" font-size="14.00">Attributes: 20</text>
</g>
<!-- QtAwareCallback&#45;&gt;EngScanPlot -->
<g id="edge8" class="edge">
<title>QtAwareCallback&#45;&gt;EngScanPlot</title>
<path fill="none" stroke="black" d="M3146.42,-223.67C3273.12,-204.54 3587.88,-155.75 3849.51,-104.65 3873.18,-100.03 3898.16,-94.81 3922.57,-89.52"/>
<polygon fill="black" stroke="black" points="3923.24,-92.95 3932.27,-87.41 3921.75,-86.12 3923.24,-92.95"/>
</g>
<!-- LoadCellScanPlot -->
<g id="node10" class="node">
<title>LoadCellScanPlot</title>
<ellipse fill="none" stroke="black" cx="4562.51" cy="-52.33" rx="217.61" ry="52.33"/>
<text xml:space="preserve" text-anchor="middle" x="4562.51" y="-72.03" font-family="Times,serif" font-size="14.00">LoadCellScanPlot</text>
<text xml:space="preserve" text-anchor="middle" x="4562.51" y="-55.53" font-family="Times,serif" font-size="14.00">File: ./fxi&#45;profile&#45;collection/startup/44&#45;scans_other.py</text>
<text xml:space="preserve" text-anchor="middle" x="4562.51" y="-39.03" font-family="Times,serif" font-size="14.00">Methods: 4</text>
<text xml:space="preserve" text-anchor="middle" x="4562.51" y="-22.53" font-family="Times,serif" font-size="14.00">Attributes: 21</text>
</g>
<!-- QtAwareCallback&#45;&gt;LoadCellScanPlot -->
<g id="edge9" class="edge">
<title>QtAwareCallback&#45;&gt;LoadCellScanPlot</title>
<path fill="none" stroke="black" d="M3146.61,-228.14C3321.36,-215.46 3864.04,-172.95 4309.51,-104.65 4336.08,-100.58 4364.09,-95.59 4391.41,-90.35"/>
<polygon fill="black" stroke="black" points="4392.02,-93.8 4401.17,-88.46 4390.68,-86.93 4392.02,-93.8"/>
</g>
<!-- LivePlotFlyingXAS -->
<g id="node11" class="node">
<title>LivePlotFlyingXAS</title>
<ellipse fill="none" stroke="black" cx="5075.51" cy="-52.33" rx="222.92" ry="52.33"/>
<text xml:space="preserve" text-anchor="middle" x="5075.51" y="-72.03" font-family="Times,serif" font-size="14.00">LivePlotFlyingXAS</text>
<text xml:space="preserve" text-anchor="middle" x="5075.51" y="-55.53" font-family="Times,serif" font-size="14.00">File: ./srx&#45;profile&#45;collection/startup/44&#45;bs_callbacks.py</text>
<text xml:space="preserve" text-anchor="middle" x="5075.51" y="-39.03" font-family="Times,serif" font-size="14.00">Methods: 6</text>
<text xml:space="preserve" text-anchor="middle" x="5075.51" y="-22.53" font-family="Times,serif" font-size="14.00">Attributes: 25</text>
</g>
<!-- QtAwareCallback&#45;&gt;LivePlotFlyingXAS -->
<g id="edge10" class="edge">
<title>QtAwareCallback&#45;&gt;LivePlotFlyingXAS</title>
<path fill="none" stroke="black" d="M3146.42,-230.47C3364.04,-223.51 4164.06,-193.05 4816.51,-104.65 4844.28,-100.89 4873.55,-96 4902.03,-90.73"/>
<polygon fill="black" stroke="black" points="4902.66,-94.17 4911.84,-88.89 4901.37,-87.29 4902.66,-94.17"/>
</g>
<!-- PairedCallback -->
<g id="node12" class="node">
<title>PairedCallback</title>
<ellipse fill="none" stroke="black" cx="5586.51" cy="-52.33" rx="216.55" ry="52.33"/>
<text xml:space="preserve" text-anchor="middle" x="5586.51" y="-72.03" font-family="Times,serif" font-size="14.00">PairedCallback</text>
<text xml:space="preserve" text-anchor="middle" x="5586.51" y="-55.53" font-family="Times,serif" font-size="14.00">File: ./srx&#45;profile&#45;collection/startup/52&#45;hdcmscans.py</text>
<text xml:space="preserve" text-anchor="middle" x="5586.51" y="-39.03" font-family="Times,serif" font-size="14.00">Methods: 6</text>
<text xml:space="preserve" text-anchor="middle" x="5586.51" y="-22.53" font-family="Times,serif" font-size="14.00">Attributes: 9</text>
</g>
<!-- QtAwareCallback&#45;&gt;PairedCallback -->
<g id="edge11" class="edge">
<title>QtAwareCallback&#45;&gt;PairedCallback</title>
<path fill="none" stroke="black" d="M3146.6,-231.93C3402.45,-230.31 4468.74,-216.81 5334.51,-104.65 5361.87,-101.11 5390.71,-96.28 5418.71,-91"/>
<polygon fill="black" stroke="black" points="5419.16,-94.48 5428.33,-89.16 5417.85,-87.61 5419.16,-94.48"/>
</g>
</g>
</svg>
