<?xml version="1.0" encoding="UTF-8" standalone="no"?>
<!DOCTYPE svg PUBLIC "-//W3C//DTD SVG 1.1//EN"
 "http://www.w3.org/Graphics/SVG/1.1/DTD/svg11.dtd">
<!-- Generated by graphviz version 14.0.0 (20250921.2048)
 -->
<!-- Pages: 1 -->
<svg width="1465pt" height="262pt"
 viewBox="0.00 0.00 1465.00 262.00" xmlns="http://www.w3.org/2000/svg" xmlns:xlink="http://www.w3.org/1999/xlink">
<g id="graph0" class="graph" transform="scale(1 1) rotate(0) translate(4 257.65)">
<polygon fill="white" stroke="none" points="-4,4 -4,-257.65 1460.63,-257.65 1460.63,4 -4,4"/>
<!-- QuadEMV33 -->
<g id="node1" class="node">
<title>QuadEMV33</title>
<polygon fill="lightblue" stroke="lightblue" points="759.38,-253.65 666.88,-253.65 666.88,-212.65 759.38,-212.65 759.38,-253.65"/>
<text xml:space="preserve" text-anchor="middle" x="713.13" y="-236.35" font-family="Times,serif" font-size="14.00">QuadEMV33</text>
<text xml:space="preserve" text-anchor="middle" x="713.13" y="-219.85" font-family="Times,serif" font-size="14.00">(Parent Class)</text>
</g>
<!-- new_qm -->
<g id="node2" class="node">
<title>new_qm</title>
<ellipse fill="none" stroke="black" cx="209.13" cy="-52.33" rx="209.13" ry="52.33"/>
<text xml:space="preserve" text-anchor="middle" x="209.13" y="-72.03" font-family="Times,serif" font-size="14.00">new_qm</text>
<text xml:space="preserve" text-anchor="middle" x="209.13" y="-55.53" font-family="Times,serif" font-size="14.00">File: ./opls&#45;profile&#45;collection/startup/40&#45;quadem.py</text>
<text xml:space="preserve" text-anchor="middle" x="209.13" y="-39.03" font-family="Times,serif" font-size="14.00">Methods: 2</text>
<text xml:space="preserve" text-anchor="middle" x="209.13" y="-22.53" font-family="Times,serif" font-size="14.00">Attributes: 3</text>
</g>
<!-- QuadEMV33&#45;&gt;new_qm -->
<g id="edge1" class="edge">
<title>QuadEMV33&#45;&gt;new_qm</title>
<path fill="none" stroke="black" d="M666.62,-215.65C592.86,-189.48 446.43,-137.52 339.02,-99.42"/>
<polygon fill="black" stroke="black" points="340.45,-96.21 329.85,-96.16 338.11,-102.8 340.45,-96.21"/>
</g>
<!-- XFPQuadEM -->
<g id="node3" class="node">
<title>XFPQuadEM</title>
<ellipse fill="none" stroke="black" cx="713.13" cy="-52.33" rx="222.92" ry="52.33"/>
<text xml:space="preserve" text-anchor="middle" x="713.13" y="-72.03" font-family="Times,serif" font-size="14.00">XFPQuadEM</text>
<text xml:space="preserve" text-anchor="middle" x="713.13" y="-55.53" font-family="Times,serif" font-size="14.00">File: ./xfp&#45;profile&#45;collection/startup/15&#45;electrometer.py</text>
<text xml:space="preserve" text-anchor="middle" x="713.13" y="-39.03" font-family="Times,serif" font-size="14.00">Methods: 2</text>
<text xml:space="preserve" text-anchor="middle" x="713.13" y="-22.53" font-family="Times,serif" font-size="14.00">Attributes: 7</text>
</g>
<!-- QuadEMV33&#45;&gt;XFPQuadEM -->
<g id="edge2" class="edge">
<title>QuadEMV33&#45;&gt;XFPQuadEM</title>
<path fill="none" stroke="black" d="M713.13,-212.33C713.13,-189.21 713.13,-149.84 713.13,-116.06"/>
<polygon fill="black" stroke="black" points="716.63,-116.37 713.13,-106.37 709.63,-116.37 716.63,-116.37"/>
</g>
<!-- XPDQuadEM -->
<g id="node4" class="node">
<title>XPDQuadEM</title>
<ellipse fill="none" stroke="black" cx="1232.13" cy="-52.33" rx="224.51" ry="52.33"/>
<text xml:space="preserve" text-anchor="middle" x="1232.13" y="-72.03" font-family="Times,serif" font-size="14.00">XPDQuadEM</text>
<text xml:space="preserve" text-anchor="middle" x="1232.13" y="-55.53" font-family="Times,serif" font-size="14.00">File: ./xpd&#45;profile&#45;collection/startup/16&#45;electrometer.py</text>
<text xml:space="preserve" text-anchor="middle" x="1232.13" y="-39.03" font-family="Times,serif" font-size="14.00">Methods: 2</text>
<text xml:space="preserve" text-anchor="middle" x="1232.13" y="-22.53" font-family="Times,serif" font-size="14.00">Attributes: 3</text>
</g>
<!-- QuadEMV33&#45;&gt;XPDQuadEM -->
<g id="edge3" class="edge">
<title>QuadEMV33&#45;&gt;XPDQuadEM</title>
<path fill="none" stroke="black" d="M759.64,-216.12C834.78,-190.23 985.67,-138.24 1096.8,-99.95"/>
<polygon fill="black" stroke="black" points="1097.69,-103.35 1106,-96.78 1095.41,-96.73 1097.69,-103.35"/>
</g>
</g>
</svg>
