<?xml version="1.0" encoding="UTF-8" standalone="no"?>
<!DOCTYPE svg PUBLIC "-//W3C//DTD SVG 1.1//EN"
 "http://www.w3.org/Graphics/SVG/1.1/DTD/svg11.dtd">
<!-- Generated by graphviz version 14.0.0 (20250921.2048)
 -->
<!-- Pages: 1 -->
<svg width="5230pt" height="262pt"
 viewBox="0.00 0.00 5230.00 262.00" xmlns="http://www.w3.org/2000/svg" xmlns:xlink="http://www.w3.org/1999/xlink">
<g id="graph0" class="graph" transform="scale(1 1) rotate(0) translate(4 257.65)">
<polygon fill="white" stroke="none" points="-4,4 -4,-257.65 5225.84,-257.65 5225.84,4 -4,4"/>
<!-- QuadEM -->
<g id="node1" class="node">
<title>QuadEM</title>
<polygon fill="lightblue" stroke="lightblue" points="2626.01,-253.65 2533.51,-253.65 2533.51,-212.65 2626.01,-212.65 2626.01,-253.65"/>
<text xml:space="preserve" text-anchor="middle" x="2579.76" y="-236.35" font-family="Times,serif" font-size="14.00">QuadEM</text>
<text xml:space="preserve" text-anchor="middle" x="2579.76" y="-219.85" font-family="Times,serif" font-size="14.00">(Parent Class)</text>
</g>
<!-- QuadEMWithPort -->
<g id="node2" class="node">
<title>QuadEMWithPort</title>
<ellipse fill="none" stroke="black" cx="202.76" cy="-52.33" rx="202.76" ry="52.33"/>
<text xml:space="preserve" text-anchor="middle" x="202.76" y="-72.03" font-family="Times,serif" font-size="14.00">QuadEMWithPort</text>
<text xml:space="preserve" text-anchor="middle" x="202.76" y="-55.53" font-family="Times,serif" font-size="14.00">File: ./isr&#45;profile&#45;collection/startup/70&#45;quadem.py</text>
<text xml:space="preserve" text-anchor="middle" x="202.76" y="-39.03" font-family="Times,serif" font-size="14.00">Methods: 1</text>
<text xml:space="preserve" text-anchor="middle" x="202.76" y="-22.53" font-family="Times,serif" font-size="14.00">Attributes: 1</text>
</g>
<!-- QuadEM&#45;&gt;QuadEMWithPort -->
<g id="edge1" class="edge">
<title>QuadEM&#45;&gt;QuadEMWithPort</title>
<path fill="none" stroke="black" d="M2533.25,-231.99C2304.32,-230.65 1274.87,-218.28 441.76,-104.65 415.52,-101.07 387.87,-96.19 361.06,-90.85"/>
<polygon fill="black" stroke="black" points="362.01,-87.47 351.52,-88.92 360.63,-94.33 362.01,-87.47"/>
</g>
<!-- QuadEMWithPortSS -->
<g id="node3" class="node">
<title>QuadEMWithPortSS</title>
<ellipse fill="none" stroke="black" cx="680.76" cy="-52.33" rx="202.76" ry="52.33"/>
<text xml:space="preserve" text-anchor="middle" x="680.76" y="-72.03" font-family="Times,serif" font-size="14.00">QuadEMWithPortSS</text>
<text xml:space="preserve" text-anchor="middle" x="680.76" y="-55.53" font-family="Times,serif" font-size="14.00">File: ./isr&#45;profile&#45;collection/startup/70&#45;quadem.py</text>
<text xml:space="preserve" text-anchor="middle" x="680.76" y="-39.03" font-family="Times,serif" font-size="14.00">Methods: 1</text>
<text xml:space="preserve" text-anchor="middle" x="680.76" y="-22.53" font-family="Times,serif" font-size="14.00">Attributes: 1</text>
</g>
<!-- QuadEM&#45;&gt;QuadEMWithPortSS -->
<g id="edge2" class="edge">
<title>QuadEM&#45;&gt;QuadEMWithPortSS</title>
<path fill="none" stroke="black" d="M2533.3,-230.88C2336.79,-225.01 1554.79,-196.8 919.76,-104.65 893.95,-100.91 866.75,-96 840.32,-90.71"/>
<polygon fill="black" stroke="black" points="841.03,-87.28 830.53,-88.72 839.63,-94.14 841.03,-87.28"/>
</g>
<!-- BMMQuadEM -->
<g id="node4" class="node">
<title>BMMQuadEM</title>
<ellipse fill="none" stroke="black" cx="1200.76" cy="-52.33" rx="245.19" ry="52.33"/>
<text xml:space="preserve" text-anchor="middle" x="1200.76" y="-72.03" font-family="Times,serif" font-size="14.00">BMMQuadEM</text>
<text xml:space="preserve" text-anchor="middle" x="1200.76" y="-55.53" font-family="Times,serif" font-size="14.00">File: ./bmm&#45;profile&#45;collection/startup/BMM/electrometer.py</text>
<text xml:space="preserve" text-anchor="middle" x="1200.76" y="-39.03" font-family="Times,serif" font-size="14.00">Methods: 8</text>
<text xml:space="preserve" text-anchor="middle" x="1200.76" y="-22.53" font-family="Times,serif" font-size="14.00">Attributes: 17</text>
</g>
<!-- QuadEM&#45;&gt;BMMQuadEM -->
<g id="edge3" class="edge">
<title>QuadEM&#45;&gt;BMMQuadEM</title>
<path fill="none" stroke="black" d="M2533.06,-227.83C2381.16,-213.52 1887.47,-165.19 1481.76,-104.65 1452.71,-100.32 1422.06,-95.24 1392.11,-90"/>
<polygon fill="black" stroke="black" points="1393.06,-86.61 1382.6,-88.32 1391.84,-93.5 1393.06,-86.61"/>
</g>
<!-- BMMDualEM -->
<g id="node5" class="node">
<title>BMMDualEM</title>
<ellipse fill="none" stroke="black" cx="1762.76" cy="-52.33" rx="245.19" ry="52.33"/>
<text xml:space="preserve" text-anchor="middle" x="1762.76" y="-72.03" font-family="Times,serif" font-size="14.00">BMMDualEM</text>
<text xml:space="preserve" text-anchor="middle" x="1762.76" y="-55.53" font-family="Times,serif" font-size="14.00">File: ./bmm&#45;profile&#45;collection/startup/BMM/electrometer.py</text>
<text xml:space="preserve" text-anchor="middle" x="1762.76" y="-39.03" font-family="Times,serif" font-size="14.00">Methods: 7</text>
<text xml:space="preserve" text-anchor="middle" x="1762.76" y="-22.53" font-family="Times,serif" font-size="14.00">Attributes: 18</text>
</g>
<!-- QuadEM&#45;&gt;BMMDualEM -->
<g id="edge4" class="edge">
<title>QuadEM&#45;&gt;BMMDualEM</title>
<path fill="none" stroke="black" d="M2533.2,-221.96C2421.61,-197.53 2134.04,-134.59 1943.55,-92.9"/>
<polygon fill="black" stroke="black" points="1944.56,-89.54 1934.05,-90.82 1943.07,-96.37 1944.56,-89.54"/>
</g>
<!-- ESMQuadEM -->
<g id="node6" class="node">
<title>ESMQuadEM</title>
<ellipse fill="none" stroke="black" cx="2315.76" cy="-52.33" rx="236.17" ry="52.33"/>
<text xml:space="preserve" text-anchor="middle" x="2315.76" y="-72.03" font-family="Times,serif" font-size="14.00">ESMQuadEM</text>
<text xml:space="preserve" text-anchor="middle" x="2315.76" y="-55.53" font-family="Times,serif" font-size="14.00">File: ./esm&#45;arpes&#45;profile&#45;collection/startup/30&#45;detectors.py</text>
<text xml:space="preserve" text-anchor="middle" x="2315.76" y="-39.03" font-family="Times,serif" font-size="14.00">Methods: 2</text>
<text xml:space="preserve" text-anchor="middle" x="2315.76" y="-22.53" font-family="Times,serif" font-size="14.00">Attributes: 11</text>
</g>
<!-- QuadEM&#45;&gt;ESMQuadEM -->
<g id="edge5" class="edge">
<title>QuadEM&#45;&gt;ESMQuadEM</title>
<path fill="none" stroke="black" d="M2550.25,-212.16C2513.56,-187.31 2449.46,-143.89 2397.54,-108.72"/>
<polygon fill="black" stroke="black" points="2399.83,-106.04 2389.58,-103.33 2395.9,-111.84 2399.83,-106.04"/>
</g>
<!-- SIXQuadEM -->
<g id="node7" class="node">
<title>SIXQuadEM</title>
<ellipse fill="none" stroke="black" cx="2843.76" cy="-52.33" rx="219.73" ry="52.33"/>
<text xml:space="preserve" text-anchor="middle" x="2843.76" y="-72.03" font-family="Times,serif" font-size="14.00">SIXQuadEM</text>
<text xml:space="preserve" text-anchor="middle" x="2843.76" y="-55.53" font-family="Times,serif" font-size="14.00">File: ./six&#45;profile&#45;collection/startup/21&#45;areadetector.py</text>
<text xml:space="preserve" text-anchor="middle" x="2843.76" y="-39.03" font-family="Times,serif" font-size="14.00">Methods: 1</text>
<text xml:space="preserve" text-anchor="middle" x="2843.76" y="-22.53" font-family="Times,serif" font-size="14.00">Attributes: 3</text>
</g>
<!-- QuadEM&#45;&gt;SIXQuadEM -->
<g id="edge6" class="edge">
<title>QuadEM&#45;&gt;SIXQuadEM</title>
<path fill="none" stroke="black" d="M2609.28,-212.16C2646.09,-187.23 2710.51,-143.59 2762.52,-108.36"/>
<polygon fill="black" stroke="black" points="2764.18,-111.46 2770.49,-102.96 2760.25,-105.67 2764.18,-111.46"/>
</g>
<!-- LiX_EM -->
<g id="node8" class="node">
<title>LiX_EM</title>
<ellipse fill="none" stroke="black" cx="3374.76" cy="-52.33" rx="239.36" ry="52.33"/>
<text xml:space="preserve" text-anchor="middle" x="3374.76" y="-72.03" font-family="Times,serif" font-size="14.00">LiX_EM</text>
<text xml:space="preserve" text-anchor="middle" x="3374.76" y="-55.53" font-family="Times,serif" font-size="14.00">File: ./lix&#45;profile&#45;collection/startup/components/20&#45;bpm.py</text>
<text xml:space="preserve" text-anchor="middle" x="3374.76" y="-39.03" font-family="Times,serif" font-size="14.00">Methods: 1</text>
<text xml:space="preserve" text-anchor="middle" x="3374.76" y="-22.53" font-family="Times,serif" font-size="14.00">Attributes: 4</text>
</g>
<!-- QuadEM&#45;&gt;LiX_EM -->
<g id="edge7" class="edge">
<title>QuadEM&#45;&gt;LiX_EM</title>
<path fill="none" stroke="black" d="M2626.23,-221.7C2735.51,-197.12 3013.46,-134.6 3198.17,-93.05"/>
<polygon fill="black" stroke="black" points="3198.91,-96.47 3207.89,-90.86 3197.37,-89.64 3198.91,-96.47"/>
</g>
<!-- LiXTetrAMM -->
<g id="node9" class="node">
<title>LiXTetrAMM</title>
<ellipse fill="none" stroke="black" cx="3925.76" cy="-52.33" rx="239.36" ry="52.33"/>
<text xml:space="preserve" text-anchor="middle" x="3925.76" y="-72.03" font-family="Times,serif" font-size="14.00">LiXTetrAMM</text>
<text xml:space="preserve" text-anchor="middle" x="3925.76" y="-55.53" font-family="Times,serif" font-size="14.00">File: ./lix&#45;profile&#45;collection/startup/components/20&#45;bpm.py</text>
<text xml:space="preserve" text-anchor="middle" x="3925.76" y="-39.03" font-family="Times,serif" font-size="14.00">Methods: 1</text>
<text xml:space="preserve" text-anchor="middle" x="3925.76" y="-22.53" font-family="Times,serif" font-size="14.00">Attributes: 3</text>
</g>
<!-- QuadEM&#45;&gt;LiXTetrAMM -->
<g id="edge8" class="edge">
<title>QuadEM&#45;&gt;LiXTetrAMM</title>
<path fill="none" stroke="black" d="M2626.32,-227.7C2775.57,-213.2 3255.37,-164.75 3649.76,-104.65 3678.28,-100.31 3708.37,-95.23 3737.77,-89.98"/>
<polygon fill="black" stroke="black" points="3738.29,-93.45 3747.51,-88.23 3737.05,-86.56 3738.29,-93.45"/>
</g>
<!-- LiXTetrAMMext -->
<g id="node10" class="node">
<title>LiXTetrAMMext</title>
<ellipse fill="none" stroke="black" cx="4476.76" cy="-52.33" rx="239.36" ry="52.33"/>
<text xml:space="preserve" text-anchor="middle" x="4476.76" y="-72.03" font-family="Times,serif" font-size="14.00">LiXTetrAMMext</text>
<text xml:space="preserve" text-anchor="middle" x="4476.76" y="-55.53" font-family="Times,serif" font-size="14.00">File: ./lix&#45;profile&#45;collection/startup/components/20&#45;bpm.py</text>
<text xml:space="preserve" text-anchor="middle" x="4476.76" y="-39.03" font-family="Times,serif" font-size="14.00">Methods: 6</text>
<text xml:space="preserve" text-anchor="middle" x="4476.76" y="-22.53" font-family="Times,serif" font-size="14.00">Attributes: 11</text>
</g>
<!-- QuadEM&#45;&gt;LiXTetrAMMext -->
<g id="edge9" class="edge">
<title>QuadEM&#45;&gt;LiXTetrAMMext</title>
<path fill="none" stroke="black" d="M2626.37,-230.29C2820.15,-222.15 3580.86,-186.44 4200.76,-104.65 4230.24,-100.76 4261.34,-95.81 4291.62,-90.53"/>
<polygon fill="black" stroke="black" points="4292.01,-94.01 4301.25,-88.83 4290.79,-87.12 4292.01,-94.01"/>
</g>
<!-- SRX_AH501 -->
<g id="node11" class="node">
<title>SRX_AH501</title>
<ellipse fill="none" stroke="black" cx="5004.76" cy="-52.33" rx="217.08" ry="52.33"/>
<text xml:space="preserve" text-anchor="middle" x="5004.76" y="-72.03" font-family="Times,serif" font-size="14.00">SRX_AH501</text>
<text xml:space="preserve" text-anchor="middle" x="5004.76" y="-55.53" font-family="Times,serif" font-size="14.00">File: ./srx&#45;profile&#45;collection/startup/20&#45;diagnostics.py</text>
<text xml:space="preserve" text-anchor="middle" x="5004.76" y="-39.03" font-family="Times,serif" font-size="14.00">Methods: 1</text>
<text xml:space="preserve" text-anchor="middle" x="5004.76" y="-22.53" font-family="Times,serif" font-size="14.00">Attributes: 2</text>
</g>
<!-- QuadEM&#45;&gt;SRX_AH501 -->
<g id="edge10" class="edge">
<title>QuadEM&#45;&gt;SRX_AH501</title>
<path fill="none" stroke="black" d="M2626.23,-231.86C2857.12,-229.89 3903.82,-214.99 4751.76,-104.65 4779.33,-101.07 4808.38,-96.2 4836.59,-90.9"/>
<polygon fill="black" stroke="black" points="4837.12,-94.36 4846.29,-89.05 4835.81,-87.48 4837.12,-94.36"/>
</g>
</g>
</svg>
