<?xml version="1.0" encoding="UTF-8" standalone="no"?>
<!DOCTYPE svg PUBLIC "-//W3C//DTD SVG 1.1//EN"
 "http://www.w3.org/Graphics/SVG/1.1/DTD/svg11.dtd">
<!-- Generated by graphviz version 14.0.0 (20250921.2048)
 -->
<!-- Pages: 1 -->
<svg width="2112pt" height="262pt"
 viewBox="0.00 0.00 2112.00 262.00" xmlns="http://www.w3.org/2000/svg" xmlns:xlink="http://www.w3.org/1999/xlink">
<g id="graph0" class="graph" transform="scale(1 1) rotate(0) translate(4 257.65)">
<polygon fill="white" stroke="none" points="-4,4 -4,-257.65 2108.35,-257.65 2108.35,4 -4,4"/>
<!-- QuadEMDwellTime -->
<g id="node1" class="node">
<title>QuadEMDwellTime</title>
<polygon fill="lightblue" stroke="lightblue" points="1116.42,-253.65 987.92,-253.65 987.92,-212.65 1116.42,-212.65 1116.42,-253.65"/>
<text xml:space="preserve" text-anchor="middle" x="1052.17" y="-236.35" font-family="Times,serif" font-size="14.00">QuadEMDwellTime</text>
<text xml:space="preserve" text-anchor="middle" x="1052.17" y="-219.85" font-family="Times,serif" font-size="14.00">(Parent Class)</text>
</g>
<!-- DualEMDwellTime -->
<g id="node2" class="node">
<title>DualEMDwellTime</title>
<ellipse fill="none" stroke="black" cx="236.17" cy="-52.33" rx="236.17" ry="52.33"/>
<text xml:space="preserve" text-anchor="middle" x="236.17" y="-72.03" font-family="Times,serif" font-size="14.00">DualEMDwellTime</text>
<text xml:space="preserve" text-anchor="middle" x="236.17" y="-55.53" font-family="Times,serif" font-size="14.00">File: ./bmm&#45;profile&#45;collection/startup/BMM/dwelltime.py</text>
<text xml:space="preserve" text-anchor="middle" x="236.17" y="-39.03" font-family="Times,serif" font-size="14.00">Methods: 0</text>
<text xml:space="preserve" text-anchor="middle" x="236.17" y="-22.53" font-family="Times,serif" font-size="14.00">Attributes: 0</text>
</g>
<!-- QuadEMDwellTime&#45;&gt;DualEMDwellTime -->
<g id="edge1" class="edge">
<title>QuadEMDwellTime&#45;&gt;DualEMDwellTime</title>
<path fill="none" stroke="black" d="M987.46,-217.97C864.79,-191.09 594.53,-131.86 413.87,-92.27"/>
<polygon fill="black" stroke="black" points="414.64,-88.85 404.12,-90.13 413.14,-95.69 414.64,-88.85"/>
</g>
<!-- IC0DwellTime -->
<g id="node3" class="node">
<title>IC0DwellTime</title>
<ellipse fill="none" stroke="black" cx="780.17" cy="-52.33" rx="236.17" ry="52.33"/>
<text xml:space="preserve" text-anchor="middle" x="780.17" y="-72.03" font-family="Times,serif" font-size="14.00">IC0DwellTime</text>
<text xml:space="preserve" text-anchor="middle" x="780.17" y="-55.53" font-family="Times,serif" font-size="14.00">File: ./bmm&#45;profile&#45;collection/startup/BMM/dwelltime.py</text>
<text xml:space="preserve" text-anchor="middle" x="780.17" y="-39.03" font-family="Times,serif" font-size="14.00">Methods: 0</text>
<text xml:space="preserve" text-anchor="middle" x="780.17" y="-22.53" font-family="Times,serif" font-size="14.00">Attributes: 0</text>
</g>
<!-- QuadEMDwellTime&#45;&gt;IC0DwellTime -->
<g id="edge2" class="edge">
<title>QuadEMDwellTime&#45;&gt;IC0DwellTime</title>
<path fill="none" stroke="black" d="M1021.76,-212.16C983.9,-187.27 917.7,-143.74 864.15,-108.54"/>
<polygon fill="black" stroke="black" points="866.2,-105.69 855.92,-103.13 862.35,-111.54 866.2,-105.69"/>
</g>
<!-- IC1DwellTime -->
<g id="node4" class="node">
<title>IC1DwellTime</title>
<ellipse fill="none" stroke="black" cx="1324.17" cy="-52.33" rx="236.17" ry="52.33"/>
<text xml:space="preserve" text-anchor="middle" x="1324.17" y="-72.03" font-family="Times,serif" font-size="14.00">IC1DwellTime</text>
<text xml:space="preserve" text-anchor="middle" x="1324.17" y="-55.53" font-family="Times,serif" font-size="14.00">File: ./bmm&#45;profile&#45;collection/startup/BMM/dwelltime.py</text>
<text xml:space="preserve" text-anchor="middle" x="1324.17" y="-39.03" font-family="Times,serif" font-size="14.00">Methods: 0</text>
<text xml:space="preserve" text-anchor="middle" x="1324.17" y="-22.53" font-family="Times,serif" font-size="14.00">Attributes: 0</text>
</g>
<!-- QuadEMDwellTime&#45;&gt;IC1DwellTime -->
<g id="edge3" class="edge">
<title>QuadEMDwellTime&#45;&gt;IC1DwellTime</title>
<path fill="none" stroke="black" d="M1082.58,-212.16C1120.44,-187.27 1186.65,-143.74 1240.19,-108.54"/>
<polygon fill="black" stroke="black" points="1241.99,-111.54 1248.43,-103.13 1238.15,-105.69 1241.99,-111.54"/>
</g>
<!-- IC2DwellTime -->
<g id="node5" class="node">
<title>IC2DwellTime</title>
<ellipse fill="none" stroke="black" cx="1868.17" cy="-52.33" rx="236.17" ry="52.33"/>
<text xml:space="preserve" text-anchor="middle" x="1868.17" y="-72.03" font-family="Times,serif" font-size="14.00">IC2DwellTime</text>
<text xml:space="preserve" text-anchor="middle" x="1868.17" y="-55.53" font-family="Times,serif" font-size="14.00">File: ./bmm&#45;profile&#45;collection/startup/BMM/dwelltime.py</text>
<text xml:space="preserve" text-anchor="middle" x="1868.17" y="-39.03" font-family="Times,serif" font-size="14.00">Methods: 0</text>
<text xml:space="preserve" text-anchor="middle" x="1868.17" y="-22.53" font-family="Times,serif" font-size="14.00">Attributes: 0</text>
</g>
<!-- QuadEMDwellTime&#45;&gt;IC2DwellTime -->
<g id="edge4" class="edge">
<title>QuadEMDwellTime&#45;&gt;IC2DwellTime</title>
<path fill="none" stroke="black" d="M1116.89,-217.97C1239.56,-191.09 1509.81,-131.86 1690.48,-92.27"/>
<polygon fill="black" stroke="black" points="1691.21,-95.69 1700.23,-90.13 1689.71,-88.85 1691.21,-95.69"/>
</g>
</g>
</svg>
