<?xml version="1.0" encoding="UTF-8" standalone="no"?>
<!DOCTYPE svg PUBLIC "-//W3C//DTD SVG 1.1//EN"
 "http://www.w3.org/Graphics/SVG/1.1/DTD/svg11.dtd">
<!-- Generated by graphviz version 14.0.0 (20250921.2048)
 -->
<!-- Pages: 1 -->
<svg width="1020pt" height="262pt"
 viewBox="0.00 0.00 1020.00 262.00" xmlns="http://www.w3.org/2000/svg" xmlns:xlink="http://www.w3.org/1999/xlink">
<g id="graph0" class="graph" transform="scale(1 1) rotate(0) translate(4 257.65)">
<polygon fill="white" stroke="none" points="-4,4 -4,-257.65 1016.23,-257.65 1016.23,4 -4,4"/>
<!-- QueueWidget -->
<g id="node1" class="node">
<title>QueueWidget</title>
<polygon fill="lightblue" stroke="lightblue" points="552.36,-253.65 459.86,-253.65 459.86,-212.65 552.36,-212.65 552.36,-253.65"/>
<text xml:space="preserve" text-anchor="middle" x="506.11" y="-236.35" font-family="Times,serif" font-size="14.00">QueueWidget</text>
<text xml:space="preserve" text-anchor="middle" x="506.11" y="-219.85" font-family="Times,serif" font-size="14.00">(Parent Class)</text>
</g>
<!-- SamplePositionQueueWidget -->
<g id="node2" class="node">
<title>SamplePositionQueueWidget</title>
<ellipse fill="none" stroke="black" cx="235.11" cy="-52.33" rx="235.11" ry="52.33"/>
<text xml:space="preserve" text-anchor="middle" x="235.11" y="-72.03" font-family="Times,serif" font-size="14.00">SamplePositionQueueWidget</text>
<text xml:space="preserve" text-anchor="middle" x="235.11" y="-55.53" font-family="Times,serif" font-size="14.00">File: ./xfm&#45;maia&#45;profile&#45;collection/startup/90&#45;maia&#45;gui.py</text>
<text xml:space="preserve" text-anchor="middle" x="235.11" y="-39.03" font-family="Times,serif" font-size="14.00">Methods: 3</text>
<text xml:space="preserve" text-anchor="middle" x="235.11" y="-22.53" font-family="Times,serif" font-size="14.00">Attributes: 7</text>
</g>
<!-- QueueWidget&#45;&gt;SamplePositionQueueWidget -->
<g id="edge1" class="edge">
<title>QueueWidget&#45;&gt;SamplePositionQueueWidget</title>
<path fill="none" stroke="black" d="M475.81,-212.16C438.09,-187.27 372.13,-143.74 318.78,-108.54"/>
<polygon fill="black" stroke="black" points="320.86,-105.71 310.58,-103.13 317,-111.56 320.86,-105.71"/>
</g>
<!-- CollectionQueueWidget -->
<g id="node3" class="node">
<title>CollectionQueueWidget</title>
<ellipse fill="none" stroke="black" cx="777.11" cy="-52.33" rx="235.11" ry="52.33"/>
<text xml:space="preserve" text-anchor="middle" x="777.11" y="-72.03" font-family="Times,serif" font-size="14.00">CollectionQueueWidget</text>
<text xml:space="preserve" text-anchor="middle" x="777.11" y="-55.53" font-family="Times,serif" font-size="14.00">File: ./xfm&#45;maia&#45;profile&#45;collection/startup/90&#45;maia&#45;gui.py</text>
<text xml:space="preserve" text-anchor="middle" x="777.11" y="-39.03" font-family="Times,serif" font-size="14.00">Methods: 4</text>
<text xml:space="preserve" text-anchor="middle" x="777.11" y="-22.53" font-family="Times,serif" font-size="14.00">Attributes: 7</text>
</g>
<!-- QueueWidget&#45;&gt;CollectionQueueWidget -->
<g id="edge2" class="edge">
<title>QueueWidget&#45;&gt;CollectionQueueWidget</title>
<path fill="none" stroke="black" d="M536.41,-212.16C574.13,-187.27 640.1,-143.74 693.44,-108.54"/>
<polygon fill="black" stroke="black" points="695.22,-111.56 701.64,-103.13 691.37,-105.71 695.22,-111.56"/>
</g>
</g>
</svg>
