<?xml version="1.0" encoding="UTF-8" standalone="no"?>
<!DOCTYPE svg PUBLIC "-//W3C//DTD SVG 1.1//EN"
 "http://www.w3.org/Graphics/SVG/1.1/DTD/svg11.dtd">
<!-- Generated by graphviz version 14.0.0 (20250921.2048)
 -->
<!-- Pages: 1 -->
<svg width="916pt" height="262pt"
 viewBox="0.00 0.00 916.00 262.00" xmlns="http://www.w3.org/2000/svg" xmlns:xlink="http://www.w3.org/1999/xlink">
<g id="graph0" class="graph" transform="scale(1 1) rotate(0) translate(4 257.65)">
<polygon fill="white" stroke="none" points="-4,4 -4,-257.65 911.72,-257.65 911.72,4 -4,4"/>
<!-- ROIStatPlugin_V34 -->
<g id="node1" class="node">
<title>ROIStatPlugin_V34</title>
<polygon fill="lightblue" stroke="lightblue" points="508.39,-253.65 382.89,-253.65 382.89,-212.65 508.39,-212.65 508.39,-253.65"/>
<text xml:space="preserve" text-anchor="middle" x="445.64" y="-236.35" font-family="Times,serif" font-size="14.00">ROIStatPlugin_V34</text>
<text xml:space="preserve" text-anchor="middle" x="445.64" y="-219.85" font-family="Times,serif" font-size="14.00">(Parent Class)</text>
</g>
<!-- QASROIStatPlugin -->
<g id="node2" class="node">
<title>QASROIStatPlugin</title>
<ellipse fill="none" stroke="black" cx="200.64" cy="-52.33" rx="200.64" ry="52.33"/>
<text xml:space="preserve" text-anchor="middle" x="200.64" y="-72.03" font-family="Times,serif" font-size="14.00">QASROIStatPlugin</text>
<text xml:space="preserve" text-anchor="middle" x="200.64" y="-55.53" font-family="Times,serif" font-size="14.00">File: ./qas&#45;profile&#45;collection/startup/82&#45;pilatus.py</text>
<text xml:space="preserve" text-anchor="middle" x="200.64" y="-39.03" font-family="Times,serif" font-size="14.00">Methods: 0</text>
<text xml:space="preserve" text-anchor="middle" x="200.64" y="-22.53" font-family="Times,serif" font-size="14.00">Attributes: 13</text>
</g>
<!-- ROIStatPlugin_V34&#45;&gt;QASROIStatPlugin -->
<g id="edge1" class="edge">
<title>ROIStatPlugin_V34&#45;&gt;QASROIStatPlugin</title>
<path fill="none" stroke="black" d="M418.49,-212.33C384.48,-187.51 324.84,-143.98 276.54,-108.73"/>
<polygon fill="black" stroke="black" points="278.72,-105.98 268.58,-102.91 274.59,-111.64 278.72,-105.98"/>
</g>
<!-- ISSROIStatPlugin -->
<g id="node3" class="node">
<title>ISSROIStatPlugin</title>
<ellipse fill="none" stroke="black" cx="690.64" cy="-52.33" rx="217.08" ry="52.33"/>
<text xml:space="preserve" text-anchor="middle" x="690.64" y="-72.03" font-family="Times,serif" font-size="14.00">ISSROIStatPlugin</text>
<text xml:space="preserve" text-anchor="middle" x="690.64" y="-55.53" font-family="Times,serif" font-size="14.00">File: ./iss&#45;profile&#45;collection/startup/36&#45;pilatus100k.py</text>
<text xml:space="preserve" text-anchor="middle" x="690.64" y="-39.03" font-family="Times,serif" font-size="14.00">Methods: 0</text>
<text xml:space="preserve" text-anchor="middle" x="690.64" y="-22.53" font-family="Times,serif" font-size="14.00">Attributes: 13</text>
</g>
<!-- ROIStatPlugin_V34&#45;&gt;ISSROIStatPlugin -->
<g id="edge2" class="edge">
<title>ROIStatPlugin_V34&#45;&gt;ISSROIStatPlugin</title>
<path fill="none" stroke="black" d="M472.8,-212.33C506.68,-187.6 566.04,-144.28 614.24,-109.09"/>
<polygon fill="black" stroke="black" points="616.18,-112.01 622.19,-103.29 612.05,-106.36 616.18,-112.01"/>
</g>
</g>
</svg>
