<?xml version="1.0" encoding="UTF-8" standalone="no"?>
<!DOCTYPE svg PUBLIC "-//W3C//DTD SVG 1.1//EN"
 "http://www.w3.org/Graphics/SVG/1.1/DTD/svg11.dtd">
<!-- Generated by graphviz version 14.0.0 (20250921.2048)
 -->
<!-- Pages: 1 -->
<svg width="2082pt" height="262pt"
 viewBox="0.00 0.00 2082.00 262.00" xmlns="http://www.w3.org/2000/svg" xmlns:xlink="http://www.w3.org/1999/xlink">
<g id="graph0" class="graph" transform="scale(1 1) rotate(0) translate(4 257.65)">
<polygon fill="white" stroke="none" points="-4,4 -4,-257.65 2077.95,-257.65 2077.95,4 -4,4"/>
<!-- Sample_Generic -->
<g id="node1" class="node">
<title>Sample_Generic</title>
<polygon fill="lightblue" stroke="lightblue" points="1119.61,-253.65 1012.86,-253.65 1012.86,-212.65 1119.61,-212.65 1119.61,-253.65"/>
<text xml:space="preserve" text-anchor="middle" x="1066.23" y="-236.35" font-family="Times,serif" font-size="14.00">Sample_Generic</text>
<text xml:space="preserve" text-anchor="middle" x="1066.23" y="-219.85" font-family="Times,serif" font-size="14.00">(Parent Class)</text>
</g>
<!-- SampleTSAXS_Generic -->
<g id="node2" class="node">
<title>SampleTSAXS_Generic</title>
<ellipse fill="none" stroke="black" cx="237.23" cy="-52.33" rx="237.23" ry="52.33"/>
<text xml:space="preserve" text-anchor="middle" x="237.23" y="-72.03" font-family="Times,serif" font-size="14.00">SampleTSAXS_Generic</text>
<text xml:space="preserve" text-anchor="middle" x="237.23" y="-55.53" font-family="Times,serif" font-size="14.00">File: ./cms&#45;profile&#45;collection/startup/95&#45;sample&#45;custom.py</text>
<text xml:space="preserve" text-anchor="middle" x="237.23" y="-39.03" font-family="Times,serif" font-size="14.00">Methods: 2</text>
<text xml:space="preserve" text-anchor="middle" x="237.23" y="-22.53" font-family="Times,serif" font-size="14.00">Attributes: 11</text>
</g>
<!-- Sample_Generic&#45;&gt;SampleTSAXS_Generic -->
<g id="edge1" class="edge">
<title>Sample_Generic&#45;&gt;SampleTSAXS_Generic</title>
<path fill="none" stroke="black" d="M1012.48,-220.56C894.1,-195.02 606.38,-132.95 416.71,-92.04"/>
<polygon fill="black" stroke="black" points="417.49,-88.63 406.97,-89.94 416.01,-95.47 417.49,-88.63"/>
</g>
<!-- SampleGISAXS_Generic -->
<g id="node3" class="node">
<title>SampleGISAXS_Generic</title>
<ellipse fill="none" stroke="black" cx="790.23" cy="-52.33" rx="243.6" ry="52.33"/>
<text xml:space="preserve" text-anchor="middle" x="790.23" y="-72.03" font-family="Times,serif" font-size="14.00">SampleGISAXS_Generic</text>
<text xml:space="preserve" text-anchor="middle" x="790.23" y="-55.53" font-family="Times,serif" font-size="14.00">File: ./opls&#45;profile&#45;collection/startup/old/990&#45;sample_test.py</text>
<text xml:space="preserve" text-anchor="middle" x="790.23" y="-39.03" font-family="Times,serif" font-size="14.00">Methods: 18</text>
<text xml:space="preserve" text-anchor="middle" x="790.23" y="-22.53" font-family="Times,serif" font-size="14.00">Attributes: 33</text>
</g>
<!-- Sample_Generic&#45;&gt;SampleGISAXS_Generic -->
<g id="edge2" class="edge">
<title>Sample_Generic&#45;&gt;SampleGISAXS_Generic</title>
<path fill="none" stroke="black" d="M1035.38,-212.16C997.03,-187.31 930.01,-143.89 875.73,-108.72"/>
<polygon fill="black" stroke="black" points="877.67,-105.8 867.37,-103.3 873.86,-111.68 877.67,-105.8"/>
</g>
<!-- SampleCDSAXS_Generic -->
<g id="node4" class="node">
<title>SampleCDSAXS_Generic</title>
<ellipse fill="none" stroke="black" cx="1343.23" cy="-52.33" rx="237.23" ry="52.33"/>
<text xml:space="preserve" text-anchor="middle" x="1343.23" y="-72.03" font-family="Times,serif" font-size="14.00">SampleCDSAXS_Generic</text>
<text xml:space="preserve" text-anchor="middle" x="1343.23" y="-55.53" font-family="Times,serif" font-size="14.00">File: ./cms&#45;profile&#45;collection/startup/95&#45;sample&#45;custom.py</text>
<text xml:space="preserve" text-anchor="middle" x="1343.23" y="-39.03" font-family="Times,serif" font-size="14.00">Methods: 4</text>
<text xml:space="preserve" text-anchor="middle" x="1343.23" y="-22.53" font-family="Times,serif" font-size="14.00">Attributes: 3</text>
</g>
<!-- Sample_Generic&#45;&gt;SampleCDSAXS_Generic -->
<g id="edge3" class="edge">
<title>Sample_Generic&#45;&gt;SampleCDSAXS_Generic</title>
<path fill="none" stroke="black" d="M1097.2,-212.16C1135.84,-187.22 1203.46,-143.56 1258.05,-108.32"/>
<polygon fill="black" stroke="black" points="1259.61,-111.48 1266.11,-103.11 1255.81,-105.6 1259.61,-111.48"/>
</g>
<!-- Sample -->
<g id="node5" class="node">
<title>Sample</title>
<ellipse fill="none" stroke="black" cx="1863.23" cy="-52.33" rx="210.72" ry="52.33"/>
<text xml:space="preserve" text-anchor="middle" x="1863.23" y="-72.03" font-family="Times,serif" font-size="14.00">Sample</text>
<text xml:space="preserve" text-anchor="middle" x="1863.23" y="-55.53" font-family="Times,serif" font-size="14.00">File: ./opls&#45;profile&#45;collection/startup/990&#45;sample.py</text>
<text xml:space="preserve" text-anchor="middle" x="1863.23" y="-39.03" font-family="Times,serif" font-size="14.00">Methods: 6</text>
<text xml:space="preserve" text-anchor="middle" x="1863.23" y="-22.53" font-family="Times,serif" font-size="14.00">Attributes: 13</text>
</g>
<!-- Sample_Generic&#45;&gt;Sample -->
<g id="edge4" class="edge">
<title>Sample_Generic&#45;&gt;Sample</title>
<path fill="none" stroke="black" d="M1120.08,-220.07C1236.59,-193.93 1516.18,-131.19 1697.26,-90.57"/>
<polygon fill="black" stroke="black" points="1697.76,-94.04 1706.75,-88.44 1696.23,-87.21 1697.76,-94.04"/>
</g>
</g>
</svg>
