<?xml version="1.0" encoding="UTF-8" standalone="no"?>
<!DOCTYPE svg PUBLIC "-//W3C//DTD SVG 1.1//EN"
 "http://www.w3.org/Graphics/SVG/1.1/DTD/svg11.dtd">
<!-- Generated by graphviz version 14.0.0 (20250921.2048)
 -->
<!-- Pages: 1 -->
<svg width="2903pt" height="262pt"
 viewBox="0.00 0.00 2903.00 262.00" xmlns="http://www.w3.org/2000/svg" xmlns:xlink="http://www.w3.org/1999/xlink">
<g id="graph0" class="graph" transform="scale(1 1) rotate(0) translate(4 257.65)">
<polygon fill="white" stroke="none" points="-4,4 -4,-257.65 2899.2,-257.65 2899.2,4 -4,4"/>
<!-- SampleGISAXS_Generic -->
<g id="node1" class="node">
<title>SampleGISAXS_Generic</title>
<polygon fill="lightblue" stroke="lightblue" points="1496.53,-253.65 1341.03,-253.65 1341.03,-212.65 1496.53,-212.65 1496.53,-253.65"/>
<text xml:space="preserve" text-anchor="middle" x="1418.78" y="-236.35" font-family="Times,serif" font-size="14.00">SampleGISAXS_Generic</text>
<text xml:space="preserve" text-anchor="middle" x="1418.78" y="-219.85" font-family="Times,serif" font-size="14.00">(Parent Class)</text>
</g>
<!-- SampleGISAXS -->
<g id="node2" class="node">
<title>SampleGISAXS</title>
<ellipse fill="none" stroke="black" cx="281.78" cy="-52.33" rx="281.78" ry="52.33"/>
<text xml:space="preserve" text-anchor="middle" x="281.78" y="-72.03" font-family="Times,serif" font-size="14.00">SampleGISAXS</text>
<text xml:space="preserve" text-anchor="middle" x="281.78" y="-55.53" font-family="Times,serif" font-size="14.00">File: ./cms&#45;profile&#45;collection/startup/user_collection/user_humidity.py</text>
<text xml:space="preserve" text-anchor="middle" x="281.78" y="-39.03" font-family="Times,serif" font-size="14.00">Methods: 1</text>
<text xml:space="preserve" text-anchor="middle" x="281.78" y="-22.53" font-family="Times,serif" font-size="14.00">Attributes: 1</text>
</g>
<!-- SampleGISAXS_Generic&#45;&gt;SampleGISAXS -->
<g id="edge1" class="edge">
<title>SampleGISAXS_Generic&#45;&gt;SampleGISAXS</title>
<path fill="none" stroke="black" d="M1340.56,-220.12C1194.8,-197.68 871.77,-147.77 599.78,-104.65 568.52,-99.7 535.54,-94.42 503.12,-89.21"/>
<polygon fill="black" stroke="black" points="504.08,-85.82 493.65,-87.69 502.96,-92.73 504.08,-85.82"/>
</g>
<!-- SampleXR_WAXS -->
<g id="node3" class="node">
<title>SampleXR_WAXS</title>
<ellipse fill="none" stroke="black" cx="872.78" cy="-52.33" rx="237.23" ry="52.33"/>
<text xml:space="preserve" text-anchor="middle" x="872.78" y="-72.03" font-family="Times,serif" font-size="14.00">SampleXR_WAXS</text>
<text xml:space="preserve" text-anchor="middle" x="872.78" y="-55.53" font-family="Times,serif" font-size="14.00">File: ./cms&#45;profile&#45;collection/startup/95&#45;sample&#45;custom.py</text>
<text xml:space="preserve" text-anchor="middle" x="872.78" y="-39.03" font-family="Times,serif" font-size="14.00">Methods: 6</text>
<text xml:space="preserve" text-anchor="middle" x="872.78" y="-22.53" font-family="Times,serif" font-size="14.00">Attributes: 37</text>
</g>
<!-- SampleGISAXS_Generic&#45;&gt;SampleXR_WAXS -->
<g id="edge2" class="edge">
<title>SampleGISAXS_Generic&#45;&gt;SampleXR_WAXS</title>
<path fill="none" stroke="black" d="M1357.74,-212.16C1275.31,-185.16 1125.96,-136.25 1014.69,-99.8"/>
<polygon fill="black" stroke="black" points="1016.08,-96.58 1005.49,-96.79 1013.9,-103.23 1016.08,-96.58"/>
</g>
<!-- SampleGonio_Generic -->
<g id="node4" class="node">
<title>SampleGonio_Generic</title>
<ellipse fill="none" stroke="black" cx="1418.78" cy="-52.33" rx="237.23" ry="52.33"/>
<text xml:space="preserve" text-anchor="middle" x="1418.78" y="-72.03" font-family="Times,serif" font-size="14.00">SampleGonio_Generic</text>
<text xml:space="preserve" text-anchor="middle" x="1418.78" y="-55.53" font-family="Times,serif" font-size="14.00">File: ./cms&#45;profile&#45;collection/startup/95&#45;sample&#45;custom.py</text>
<text xml:space="preserve" text-anchor="middle" x="1418.78" y="-39.03" font-family="Times,serif" font-size="14.00">Methods: 2</text>
<text xml:space="preserve" text-anchor="middle" x="1418.78" y="-22.53" font-family="Times,serif" font-size="14.00">Attributes: 0</text>
</g>
<!-- SampleGISAXS_Generic&#45;&gt;SampleGonio_Generic -->
<g id="edge3" class="edge">
<title>SampleGISAXS_Generic&#45;&gt;SampleGonio_Generic</title>
<path fill="none" stroke="black" d="M1418.78,-212.33C1418.78,-189.21 1418.78,-149.84 1418.78,-116.06"/>
<polygon fill="black" stroke="black" points="1422.28,-116.37 1418.78,-106.37 1415.28,-116.37 1422.28,-116.37"/>
</g>
<!-- SampleSecondStage -->
<g id="node5" class="node">
<title>SampleSecondStage</title>
<ellipse fill="none" stroke="black" cx="1964.78" cy="-52.33" rx="237.23" ry="52.33"/>
<text xml:space="preserve" text-anchor="middle" x="1964.78" y="-72.03" font-family="Times,serif" font-size="14.00">SampleSecondStage</text>
<text xml:space="preserve" text-anchor="middle" x="1964.78" y="-55.53" font-family="Times,serif" font-size="14.00">File: ./cms&#45;profile&#45;collection/startup/95&#45;sample&#45;custom.py</text>
<text xml:space="preserve" text-anchor="middle" x="1964.78" y="-39.03" font-family="Times,serif" font-size="14.00">Methods: 1</text>
<text xml:space="preserve" text-anchor="middle" x="1964.78" y="-22.53" font-family="Times,serif" font-size="14.00">Attributes: 0</text>
</g>
<!-- SampleGISAXS_Generic&#45;&gt;SampleSecondStage -->
<g id="edge4" class="edge">
<title>SampleGISAXS_Generic&#45;&gt;SampleSecondStage</title>
<path fill="none" stroke="black" d="M1479.83,-212.16C1562.25,-185.16 1711.61,-136.25 1822.87,-99.8"/>
<polygon fill="black" stroke="black" points="1823.67,-103.23 1832.08,-96.79 1821.49,-96.58 1823.67,-103.23"/>
</g>
<!-- SampleLinkamTensile -->
<g id="node6" class="node">
<title>SampleLinkamTensile</title>
<ellipse fill="none" stroke="black" cx="2584.78" cy="-52.33" rx="310.42" ry="52.33"/>
<text xml:space="preserve" text-anchor="middle" x="2584.78" y="-72.03" font-family="Times,serif" font-size="14.00">SampleLinkamTensile</text>
<text xml:space="preserve" text-anchor="middle" x="2584.78" y="-55.53" font-family="Times,serif" font-size="14.00">File: ./cms&#45;profile&#45;collection/startup/user_collection/user_LinkamThermal.py</text>
<text xml:space="preserve" text-anchor="middle" x="2584.78" y="-39.03" font-family="Times,serif" font-size="14.00">Methods: 8</text>
<text xml:space="preserve" text-anchor="middle" x="2584.78" y="-22.53" font-family="Times,serif" font-size="14.00">Attributes: 1</text>
</g>
<!-- SampleGISAXS_Generic&#45;&gt;SampleLinkamTensile -->
<g id="edge5" class="edge">
<title>SampleGISAXS_Generic&#45;&gt;SampleLinkamTensile</title>
<path fill="none" stroke="black" d="M1496.64,-220.21C1667.34,-194.03 2080.37,-130.69 2345.63,-90"/>
<polygon fill="black" stroke="black" points="2346.12,-93.47 2355.47,-88.49 2345.05,-86.55 2346.12,-93.47"/>
</g>
</g>
</svg>
