<?xml version="1.0" encoding="UTF-8" standalone="no"?>
<!DOCTYPE svg PUBLIC "-//W3C//DTD SVG 1.1//EN"
 "http://www.w3.org/Graphics/SVG/1.1/DTD/svg11.dtd">
<!-- Generated by graphviz version 14.0.0 (20250921.2048)
 -->
<!-- Pages: 1 -->
<svg width="1044pt" height="262pt"
 viewBox="0.00 0.00 1044.00 262.00" xmlns="http://www.w3.org/2000/svg" xmlns:xlink="http://www.w3.org/1999/xlink">
<g id="graph0" class="graph" transform="scale(1 1) rotate(0) translate(4 257.65)">
<polygon fill="white" stroke="none" points="-4,4 -4,-257.65 1039.89,-257.65 1039.89,4 -4,4"/>
<!-- serial_port -->
<g id="node1" class="node">
<title>serial_port</title>
<polygon fill="lightblue" stroke="lightblue" points="564.2,-253.65 471.7,-253.65 471.7,-212.65 564.2,-212.65 564.2,-253.65"/>
<text xml:space="preserve" text-anchor="middle" x="517.95" y="-236.35" font-family="Times,serif" font-size="14.00">serial_port</text>
<text xml:space="preserve" text-anchor="middle" x="517.95" y="-219.85" font-family="Times,serif" font-size="14.00">(Parent Class)</text>
</g>
<!-- SMCchiller -->
<g id="node2" class="node">
<title>SMCchiller</title>
<ellipse fill="none" stroke="black" cx="240.95" cy="-52.33" rx="240.95" ry="52.33"/>
<text xml:space="preserve" text-anchor="middle" x="240.95" y="-72.03" font-family="Times,serif" font-size="14.00">SMCchiller</text>
<text xml:space="preserve" text-anchor="middle" x="240.95" y="-55.53" font-family="Times,serif" font-size="14.00">File: ./lix&#45;profile&#45;collection/startup/experiments/50&#45;Tctrl.py</text>
<text xml:space="preserve" text-anchor="middle" x="240.95" y="-39.03" font-family="Times,serif" font-size="14.00">Methods: 10</text>
<text xml:space="preserve" text-anchor="middle" x="240.95" y="-22.53" font-family="Times,serif" font-size="14.00">Attributes: 9</text>
</g>
<!-- serial_port&#45;&gt;SMCchiller -->
<g id="edge1" class="edge">
<title>serial_port&#45;&gt;SMCchiller</title>
<path fill="none" stroke="black" d="M486.98,-212.16C448.34,-187.22 380.72,-143.56 326.13,-108.32"/>
<polygon fill="black" stroke="black" points="328.37,-105.6 318.07,-103.11 324.57,-111.48 328.37,-105.6"/>
</g>
<!-- tctrl_FTC100D -->
<g id="node3" class="node">
<title>tctrl_FTC100D</title>
<ellipse fill="none" stroke="black" cx="794.95" cy="-52.33" rx="240.95" ry="52.33"/>
<text xml:space="preserve" text-anchor="middle" x="794.95" y="-72.03" font-family="Times,serif" font-size="14.00">tctrl_FTC100D</text>
<text xml:space="preserve" text-anchor="middle" x="794.95" y="-55.53" font-family="Times,serif" font-size="14.00">File: ./lix&#45;profile&#45;collection/startup/experiments/50&#45;Tctrl.py</text>
<text xml:space="preserve" text-anchor="middle" x="794.95" y="-39.03" font-family="Times,serif" font-size="14.00">Methods: 7</text>
<text xml:space="preserve" text-anchor="middle" x="794.95" y="-22.53" font-family="Times,serif" font-size="14.00">Attributes: 10</text>
</g>
<!-- serial_port&#45;&gt;tctrl_FTC100D -->
<g id="edge2" class="edge">
<title>serial_port&#45;&gt;tctrl_FTC100D</title>
<path fill="none" stroke="black" d="M548.92,-212.16C587.55,-187.22 655.18,-143.56 709.76,-108.32"/>
<polygon fill="black" stroke="black" points="711.32,-111.48 717.82,-103.11 707.52,-105.6 711.32,-111.48"/>
</g>
</g>
</svg>
