<?xml version="1.0" encoding="UTF-8" standalone="no"?>
<!DOCTYPE svg PUBLIC "-//W3C//DTD SVG 1.1//EN"
 "http://www.w3.org/Graphics/SVG/1.1/DTD/svg11.dtd">
<!-- Generated by graphviz version 14.0.0 (20250921.2048)
 -->
<!-- Pages: 1 -->
<svg width="2539pt" height="262pt"
 viewBox="0.00 0.00 2539.00 262.00" xmlns="http://www.w3.org/2000/svg" xmlns:xlink="http://www.w3.org/1999/xlink">
<g id="graph0" class="graph" transform="scale(1 1) rotate(0) translate(4 257.65)">
<polygon fill="white" stroke="none" points="-4,4 -4,-257.65 2534.6,-257.65 2534.6,4 -4,4"/>
<!-- Signal -->
<g id="node1" class="node">
<title>Signal</title>
<polygon fill="lightblue" stroke="lightblue" points="1319.64,-253.65 1227.14,-253.65 1227.14,-212.65 1319.64,-212.65 1319.64,-253.65"/>
<text xml:space="preserve" text-anchor="middle" x="1273.39" y="-236.35" font-family="Times,serif" font-size="14.00">Signal</text>
<text xml:space="preserve" text-anchor="middle" x="1273.39" y="-219.85" font-family="Times,serif" font-size="14.00">(Parent Class)</text>
</g>
<!-- ExternalFileReference -->
<g id="node2" class="node">
<title>ExternalFileReference</title>
<ellipse fill="none" stroke="black" cx="222.39" cy="-52.33" rx="222.39" ry="52.33"/>
<text xml:space="preserve" text-anchor="middle" x="222.39" y="-72.03" font-family="Times,serif" font-size="14.00">ExternalFileReference</text>
<text xml:space="preserve" text-anchor="middle" x="222.39" y="-55.53" font-family="Times,serif" font-size="14.00">File: ./fxi&#45;profile&#45;collection/startup/10&#45;area&#45;detector.py</text>
<text xml:space="preserve" text-anchor="middle" x="222.39" y="-39.03" font-family="Times,serif" font-size="14.00">Methods: 2</text>
<text xml:space="preserve" text-anchor="middle" x="222.39" y="-22.53" font-family="Times,serif" font-size="14.00">Attributes: 2</text>
</g>
<!-- Signal&#45;&gt;ExternalFileReference -->
<g id="edge1" class="edge">
<title>Signal&#45;&gt;ExternalFileReference</title>
<path fill="none" stroke="black" d="M1226.8,-225.28C1104.31,-207.07 763.1,-155.48 480.39,-104.65 454.31,-99.96 426.81,-94.77 399.86,-89.53"/>
<polygon fill="black" stroke="black" points="400.73,-86.13 390.24,-87.65 399.39,-93 400.73,-86.13"/>
</g>
<!-- SavedImageSignal -->
<g id="node3" class="node">
<title>SavedImageSignal</title>
<ellipse fill="none" stroke="black" cx="739.39" cy="-52.33" rx="222.92" ry="52.33"/>
<text xml:space="preserve" text-anchor="middle" x="739.39" y="-72.03" font-family="Times,serif" font-size="14.00">SavedImageSignal</text>
<text xml:space="preserve" text-anchor="middle" x="739.39" y="-55.53" font-family="Times,serif" font-size="14.00">File: ./xpd&#45;profile&#45;collection/startup/80&#45;areadetector.py</text>
<text xml:space="preserve" text-anchor="middle" x="739.39" y="-39.03" font-family="Times,serif" font-size="14.00">Methods: 2</text>
<text xml:space="preserve" text-anchor="middle" x="739.39" y="-22.53" font-family="Times,serif" font-size="14.00">Attributes: 2</text>
</g>
<!-- Signal&#45;&gt;SavedImageSignal -->
<g id="edge2" class="edge">
<title>Signal&#45;&gt;SavedImageSignal</title>
<path fill="none" stroke="black" d="M1226.93,-216.6C1149.67,-190.72 991.86,-137.88 876.65,-99.29"/>
<polygon fill="black" stroke="black" points="878.01,-96.06 867.42,-96.2 875.79,-102.7 878.01,-96.06"/>
</g>
<!-- PreciseDtypeSignal -->
<g id="node4" class="node">
<title>PreciseDtypeSignal</title>
<ellipse fill="none" stroke="black" cx="1273.39" cy="-52.33" rx="238.83" ry="52.33"/>
<text xml:space="preserve" text-anchor="middle" x="1273.39" y="-72.03" font-family="Times,serif" font-size="14.00">PreciseDtypeSignal</text>
<text xml:space="preserve" text-anchor="middle" x="1273.39" y="-55.53" font-family="Times,serif" font-size="14.00">File: ./chx&#45;profile&#45;collection/optional_startup/9999&#45;tpx3.py</text>
<text xml:space="preserve" text-anchor="middle" x="1273.39" y="-39.03" font-family="Times,serif" font-size="14.00">Methods: 1</text>
<text xml:space="preserve" text-anchor="middle" x="1273.39" y="-22.53" font-family="Times,serif" font-size="14.00">Attributes: 1</text>
</g>
<!-- Signal&#45;&gt;PreciseDtypeSignal -->
<g id="edge3" class="edge">
<title>Signal&#45;&gt;PreciseDtypeSignal</title>
<path fill="none" stroke="black" d="M1273.39,-212.33C1273.39,-189.21 1273.39,-149.84 1273.39,-116.06"/>
<polygon fill="black" stroke="black" points="1276.89,-116.37 1273.39,-106.37 1269.89,-116.37 1276.89,-116.37"/>
</g>
<!-- SignalWithUnits -->
<g id="node5" class="node">
<title>SignalWithUnits</title>
<ellipse fill="none" stroke="black" cx="1793.39" cy="-52.33" rx="209.13" ry="52.33"/>
<text xml:space="preserve" text-anchor="middle" x="1793.39" y="-72.03" font-family="Times,serif" font-size="14.00">SignalWithUnits</text>
<text xml:space="preserve" text-anchor="middle" x="1793.39" y="-55.53" font-family="Times,serif" font-size="14.00">File: ./xpd&#45;profile&#45;collection/startup/02&#45;adaptive.py</text>
<text xml:space="preserve" text-anchor="middle" x="1793.39" y="-39.03" font-family="Times,serif" font-size="14.00">Methods: 2</text>
<text xml:space="preserve" text-anchor="middle" x="1793.39" y="-22.53" font-family="Times,serif" font-size="14.00">Attributes: 2</text>
</g>
<!-- Signal&#45;&gt;SignalWithUnits -->
<g id="edge4" class="edge">
<title>Signal&#45;&gt;SignalWithUnits</title>
<path fill="none" stroke="black" d="M1319.99,-216.12C1395.94,-190.01 1549.13,-137.32 1660.74,-98.94"/>
<polygon fill="black" stroke="black" points="1661.66,-102.33 1669.97,-95.77 1659.38,-95.71 1661.66,-102.33"/>
</g>
<!-- LimitedSignal -->
<g id="node6" class="node">
<title>LimitedSignal</title>
<ellipse fill="none" stroke="black" cx="2302.39" cy="-52.33" rx="228.22" ry="52.33"/>
<text xml:space="preserve" text-anchor="middle" x="2302.39" y="-72.03" font-family="Times,serif" font-size="14.00">LimitedSignal</text>
<text xml:space="preserve" text-anchor="middle" x="2302.39" y="-55.53" font-family="Times,serif" font-size="14.00">File: ./srx&#45;profile&#45;collection/startup/19&#45;pseudomotors.py</text>
<text xml:space="preserve" text-anchor="middle" x="2302.39" y="-39.03" font-family="Times,serif" font-size="14.00">Methods: 3</text>
<text xml:space="preserve" text-anchor="middle" x="2302.39" y="-22.53" font-family="Times,serif" font-size="14.00">Attributes: 3</text>
</g>
<!-- Signal&#45;&gt;LimitedSignal -->
<g id="edge5" class="edge">
<title>Signal&#45;&gt;LimitedSignal</title>
<path fill="none" stroke="black" d="M1320.03,-224.83C1439.6,-205.95 1766.75,-153.68 2038.39,-104.65 2064.84,-99.88 2092.74,-94.65 2120.11,-89.43"/>
<polygon fill="black" stroke="black" points="2120.74,-92.87 2129.9,-87.55 2119.42,-85.99 2120.74,-92.87"/>
</g>
</g>
</svg>
