<?xml version="1.0" encoding="UTF-8" standalone="no"?>
<!DOCTYPE svg PUBLIC "-//W3C//DTD SVG 1.1//EN"
 "http://www.w3.org/Graphics/SVG/1.1/DTD/svg11.dtd">
<!-- Generated by graphviz version 14.0.0 (20250921.2048)
 -->
<!-- Pages: 1 -->
<svg width="12612pt" height="262pt"
 viewBox="0.00 0.00 12612.00 262.00" xmlns="http://www.w3.org/2000/svg" xmlns:xlink="http://www.w3.org/1999/xlink">
<g id="graph0" class="graph" transform="scale(1 1) rotate(0) translate(4 257.65)">
<polygon fill="white" stroke="none" points="-4,4 -4,-257.65 12607.72,-257.65 12607.72,4 -4,4"/>
<!-- SingleTrigger -->
<g id="node1" class="node">
<title>SingleTrigger</title>
<polygon fill="lightblue" stroke="lightblue" points="6641.06,-253.65 6548.56,-253.65 6548.56,-212.65 6641.06,-212.65 6641.06,-253.65"/>
<text xml:space="preserve" text-anchor="middle" x="6594.81" y="-236.35" font-family="Times,serif" font-size="14.00">SingleTrigger</text>
<text xml:space="preserve" text-anchor="middle" x="6594.81" y="-219.85" font-family="Times,serif" font-size="14.00">(Parent Class)</text>
</g>
<!-- EigerSingleTrigger -->
<g id="node2" class="node">
<title>EigerSingleTrigger</title>
<ellipse fill="none" stroke="black" cx="229.81" cy="-52.33" rx="229.81" ry="52.33"/>
<text xml:space="preserve" text-anchor="middle" x="229.81" y="-72.03" font-family="Times,serif" font-size="14.00">EigerSingleTrigger</text>
<text xml:space="preserve" text-anchor="middle" x="229.81" y="-55.53" font-family="Times,serif" font-size="14.00">File: ./chx&#45;profile&#45;collection/startup/20&#45;area&#45;detectors.py</text>
<text xml:space="preserve" text-anchor="middle" x="229.81" y="-39.03" font-family="Times,serif" font-size="14.00">Methods: 5</text>
<text xml:space="preserve" text-anchor="middle" x="229.81" y="-22.53" font-family="Times,serif" font-size="14.00">Attributes: 4</text>
</g>
<!-- SingleTrigger&#45;&gt;EigerSingleTrigger -->
<g id="edge1" class="edge">
<title>SingleTrigger&#45;&gt;EigerSingleTrigger</title>
<path fill="none" stroke="black" d="M6548.29,-232.28C6054.19,-233.43 1765.54,-239.44 495.81,-104.65 466.13,-101.5 434.82,-96.76 404.51,-91.41"/>
<polygon fill="black" stroke="black" points="405.35,-88 394.89,-89.68 404.11,-94.89 405.35,-88"/>
</g>
<!-- StandardProsilica -->
<g id="node3" class="node">
<title>StandardProsilica</title>
<ellipse fill="none" stroke="black" cx="778.81" cy="-52.33" rx="247.31" ry="52.33"/>
<text xml:space="preserve" text-anchor="middle" x="778.81" y="-72.03" font-family="Times,serif" font-size="14.00">StandardProsilica</text>
<text xml:space="preserve" text-anchor="middle" x="778.81" y="-55.53" font-family="Times,serif" font-size="14.00">File: ./fmx&#45;profile&#45;collection/startup/20&#45;detectors_00_lsdc.py</text>
<text xml:space="preserve" text-anchor="middle" x="778.81" y="-39.03" font-family="Times,serif" font-size="14.00">Methods: 0</text>
<text xml:space="preserve" text-anchor="middle" x="778.81" y="-22.53" font-family="Times,serif" font-size="14.00">Attributes: 13</text>
</g>
<!-- SingleTrigger&#45;&gt;StandardProsilica -->
<g id="edge2" class="edge">
<title>SingleTrigger&#45;&gt;StandardProsilica</title>
<path fill="none" stroke="black" d="M6548.34,-232.08C6080.35,-231.26 2211.54,-220.98 1062.81,-104.65 1031.37,-101.47 998.19,-96.74 966.03,-91.42"/>
<polygon fill="black" stroke="black" points="966.63,-87.97 956.19,-89.76 965.47,-94.87 966.63,-87.97"/>
</g>
<!-- BPM -->
<g id="node4" class="node">
<title>BPM</title>
<ellipse fill="none" stroke="black" cx="1302.81" cy="-52.33" rx="204.35" ry="52.33"/>
<text xml:space="preserve" text-anchor="middle" x="1302.81" y="-72.03" font-family="Times,serif" font-size="14.00">BPM</text>
<text xml:space="preserve" text-anchor="middle" x="1302.81" y="-55.53" font-family="Times,serif" font-size="14.00">File: ./iss&#45;profile&#45;collection/startup/31&#45;cameras.py</text>
<text xml:space="preserve" text-anchor="middle" x="1302.81" y="-39.03" font-family="Times,serif" font-size="14.00">Methods: 7</text>
<text xml:space="preserve" text-anchor="middle" x="1302.81" y="-22.53" font-family="Times,serif" font-size="14.00">Attributes: 32</text>
</g>
<!-- SingleTrigger&#45;&gt;BPM -->
<g id="edge3" class="edge">
<title>SingleTrigger&#45;&gt;BPM</title>
<path fill="none" stroke="black" d="M6548.27,-232.17C6102.83,-232.13 2587.54,-227.9 1543.81,-104.65 1516.71,-101.45 1488.16,-96.66 1460.55,-91.27"/>
<polygon fill="black" stroke="black" points="1461.59,-87.91 1451.1,-89.39 1460.22,-94.77 1461.59,-87.91"/>
</g>
<!-- CAMERA -->
<g id="node5" class="node">
<title>CAMERA</title>
<ellipse fill="none" stroke="black" cx="1783.81" cy="-52.33" rx="204.35" ry="52.33"/>
<text xml:space="preserve" text-anchor="middle" x="1783.81" y="-72.03" font-family="Times,serif" font-size="14.00">CAMERA</text>
<text xml:space="preserve" text-anchor="middle" x="1783.81" y="-55.53" font-family="Times,serif" font-size="14.00">File: ./iss&#45;profile&#45;collection/startup/31&#45;cameras.py</text>
<text xml:space="preserve" text-anchor="middle" x="1783.81" y="-39.03" font-family="Times,serif" font-size="14.00">Methods: 2</text>
<text xml:space="preserve" text-anchor="middle" x="1783.81" y="-22.53" font-family="Times,serif" font-size="14.00">Attributes: 32</text>
</g>
<!-- SingleTrigger&#45;&gt;CAMERA -->
<g id="edge4" class="edge">
<title>SingleTrigger&#45;&gt;CAMERA</title>
<path fill="none" stroke="black" d="M6548.16,-232.03C6126.36,-230.75 2964.78,-217.43 2023.81,-104.65 1997.04,-101.44 1968.84,-96.68 1941.55,-91.34"/>
<polygon fill="black" stroke="black" points="1942.3,-87.92 1931.81,-89.39 1940.93,-94.78 1942.3,-87.92"/>
</g>
<!-- StandardCam -->
<g id="node6" class="node">
<title>StandardCam</title>
<ellipse fill="none" stroke="black" cx="2319.81" cy="-52.33" rx="260.04" ry="52.33"/>
<text xml:space="preserve" text-anchor="middle" x="2319.81" y="-72.03" font-family="Times,serif" font-size="14.00">StandardCam</text>
<text xml:space="preserve" text-anchor="middle" x="2319.81" y="-55.53" font-family="Times,serif" font-size="14.00">File: ./csx&#45;profile&#45;collection/startup/csx1/devices/areadetector.py</text>
<text xml:space="preserve" text-anchor="middle" x="2319.81" y="-39.03" font-family="Times,serif" font-size="14.00">Methods: 0</text>
<text xml:space="preserve" text-anchor="middle" x="2319.81" y="-22.53" font-family="Times,serif" font-size="14.00">Attributes: 11</text>
</g>
<!-- SingleTrigger&#45;&gt;StandardCam -->
<g id="edge5" class="edge">
<title>SingleTrigger&#45;&gt;StandardCam</title>
<path fill="none" stroke="black" d="M6548.27,-231.56C6158.51,-226.45 3432.3,-188.11 2615.81,-104.65 2583.41,-101.34 2549.21,-96.59 2516.01,-91.3"/>
<polygon fill="black" stroke="black" points="2516.72,-87.87 2506.29,-89.73 2515.6,-94.78 2516.72,-87.87"/>
</g>
<!-- MyDetector -->
<g id="node7" class="node">
<title>MyDetector</title>
<ellipse fill="none" stroke="black" cx="2887.81" cy="-52.33" rx="236.17" ry="52.33"/>
<text xml:space="preserve" text-anchor="middle" x="2887.81" y="-72.03" font-family="Times,serif" font-size="14.00">MyDetector</text>
<text xml:space="preserve" text-anchor="middle" x="2887.81" y="-55.53" font-family="Times,serif" font-size="14.00">File: ./esm&#45;arpes&#45;profile&#45;collection/startup/30&#45;detectors.py</text>
<text xml:space="preserve" text-anchor="middle" x="2887.81" y="-39.03" font-family="Times,serif" font-size="14.00">Methods: 1</text>
<text xml:space="preserve" text-anchor="middle" x="2887.81" y="-22.53" font-family="Times,serif" font-size="14.00">Attributes: 16</text>
</g>
<!-- SingleTrigger&#45;&gt;MyDetector -->
<g id="edge6" class="edge">
<title>SingleTrigger&#45;&gt;MyDetector</title>
<path fill="none" stroke="black" d="M6548.29,-231.38C6189.63,-225.31 3859.78,-183.24 3159.81,-104.65 3129.93,-101.3 3098.41,-96.52 3067.83,-91.21"/>
<polygon fill="black" stroke="black" points="3068.56,-87.78 3058.11,-89.49 3067.35,-94.68 3068.56,-87.78"/>
</g>
<!-- NoStatsCam -->
<g id="node8" class="node">
<title>NoStatsCam</title>
<ellipse fill="none" stroke="black" cx="3455.81" cy="-52.33" rx="260.04" ry="52.33"/>
<text xml:space="preserve" text-anchor="middle" x="3455.81" y="-72.03" font-family="Times,serif" font-size="14.00">NoStatsCam</text>
<text xml:space="preserve" text-anchor="middle" x="3455.81" y="-55.53" font-family="Times,serif" font-size="14.00">File: ./csx&#45;profile&#45;collection/startup/csx1/devices/areadetector.py</text>
<text xml:space="preserve" text-anchor="middle" x="3455.81" y="-39.03" font-family="Times,serif" font-size="14.00">Methods: 0</text>
<text xml:space="preserve" text-anchor="middle" x="3455.81" y="-22.53" font-family="Times,serif" font-size="14.00">Attributes: 0</text>
</g>
<!-- SingleTrigger&#45;&gt;NoStatsCam -->
<g id="edge7" class="edge">
<title>SingleTrigger&#45;&gt;NoStatsCam</title>
<path fill="none" stroke="black" d="M6548.19,-232.27C6277.64,-232.51 4882.14,-227.49 3751.81,-104.65 3719.67,-101.16 3685.73,-96.35 3652.76,-91.06"/>
<polygon fill="black" stroke="black" points="3653.55,-87.64 3643.11,-89.49 3652.42,-94.55 3653.55,-87.64"/>
</g>
<!-- MonitorStatsCam -->
<g id="node9" class="node">
<title>MonitorStatsCam</title>
<ellipse fill="none" stroke="black" cx="4047.81" cy="-52.33" rx="260.04" ry="52.33"/>
<text xml:space="preserve" text-anchor="middle" x="4047.81" y="-72.03" font-family="Times,serif" font-size="14.00">MonitorStatsCam</text>
<text xml:space="preserve" text-anchor="middle" x="4047.81" y="-55.53" font-family="Times,serif" font-size="14.00">File: ./csx&#45;profile&#45;collection/startup/csx1/devices/areadetector.py</text>
<text xml:space="preserve" text-anchor="middle" x="4047.81" y="-39.03" font-family="Times,serif" font-size="14.00">Methods: 2</text>
<text xml:space="preserve" text-anchor="middle" x="4047.81" y="-22.53" font-family="Times,serif" font-size="14.00">Attributes: 3</text>
</g>
<!-- SingleTrigger&#45;&gt;MonitorStatsCam -->
<g id="edge8" class="edge">
<title>SingleTrigger&#45;&gt;MonitorStatsCam</title>
<path fill="none" stroke="black" d="M6548.29,-231.5C6312.51,-227.8 5226.08,-205.79 4343.81,-104.65 4311.92,-101 4278.26,-96.13 4245.51,-90.85"/>
<polygon fill="black" stroke="black" points="4246.38,-87.45 4235.94,-89.29 4245.25,-94.35 4246.38,-87.45"/>
</g>
<!-- StandardAxisCam -->
<g id="node10" class="node">
<title>StandardAxisCam</title>
<ellipse fill="none" stroke="black" cx="4639.81" cy="-52.33" rx="260.04" ry="52.33"/>
<text xml:space="preserve" text-anchor="middle" x="4639.81" y="-72.03" font-family="Times,serif" font-size="14.00">StandardAxisCam</text>
<text xml:space="preserve" text-anchor="middle" x="4639.81" y="-55.53" font-family="Times,serif" font-size="14.00">File: ./csx&#45;profile&#45;collection/startup/csx1/devices/areadetector.py</text>
<text xml:space="preserve" text-anchor="middle" x="4639.81" y="-39.03" font-family="Times,serif" font-size="14.00">Methods: 2</text>
<text xml:space="preserve" text-anchor="middle" x="4639.81" y="-22.53" font-family="Times,serif" font-size="14.00">Attributes: 2</text>
</g>
<!-- SingleTrigger&#45;&gt;StandardAxisCam -->
<g id="edge9" class="edge">
<title>SingleTrigger&#45;&gt;StandardAxisCam</title>
<path fill="none" stroke="black" d="M6548.14,-230.19C6351.55,-221.59 5571.8,-184.05 4935.81,-104.65 4904.56,-100.75 4871.59,-95.83 4839.44,-90.6"/>
<polygon fill="black" stroke="black" points="4840.03,-87.15 4829.6,-88.98 4838.9,-94.06 4840.03,-87.15"/>
</g>
<!-- ProductionCamStandard -->
<g id="node11" class="node">
<title>ProductionCamStandard</title>
<ellipse fill="none" stroke="black" cx="5231.81" cy="-52.33" rx="260.04" ry="52.33"/>
<text xml:space="preserve" text-anchor="middle" x="5231.81" y="-72.03" font-family="Times,serif" font-size="14.00">ProductionCamStandard</text>
<text xml:space="preserve" text-anchor="middle" x="5231.81" y="-55.53" font-family="Times,serif" font-size="14.00">File: ./csx&#45;profile&#45;collection/startup/csx1/devices/areadetector.py</text>
<text xml:space="preserve" text-anchor="middle" x="5231.81" y="-39.03" font-family="Times,serif" font-size="14.00">Methods: 4</text>
<text xml:space="preserve" text-anchor="middle" x="5231.81" y="-22.53" font-family="Times,serif" font-size="14.00">Attributes: 5</text>
</g>
<!-- SingleTrigger&#45;&gt;ProductionCamStandard -->
<g id="edge10" class="edge">
<title>SingleTrigger&#45;&gt;ProductionCamStandard</title>
<path fill="none" stroke="black" d="M6548.15,-227.47C6399.11,-212.31 5921.23,-162.23 5527.81,-104.65 5497.57,-100.23 5465.67,-95.14 5434.45,-89.92"/>
<polygon fill="black" stroke="black" points="5435.37,-86.53 5424.93,-88.32 5434.22,-93.43 5435.37,-86.53"/>
</g>
<!-- SpecsSingleTrigger -->
<g id="node12" class="node">
<title>SpecsSingleTrigger</title>
<ellipse fill="none" stroke="black" cx="5794.81" cy="-52.33" rx="230.87" ry="52.33"/>
<text xml:space="preserve" text-anchor="middle" x="5794.81" y="-72.03" font-family="Times,serif" font-size="14.00">SpecsSingleTrigger</text>
<text xml:space="preserve" text-anchor="middle" x="5794.81" y="-55.53" font-family="Times,serif" font-size="14.00">File: ./ios&#45;profile&#45;collection/startup/21&#45;specs_analyzer.py</text>
<text xml:space="preserve" text-anchor="middle" x="5794.81" y="-39.03" font-family="Times,serif" font-size="14.00">Methods: 1</text>
<text xml:space="preserve" text-anchor="middle" x="5794.81" y="-22.53" font-family="Times,serif" font-size="14.00">Attributes: 1</text>
</g>
<!-- SingleTrigger&#45;&gt;SpecsSingleTrigger -->
<g id="edge11" class="edge">
<title>SingleTrigger&#45;&gt;SpecsSingleTrigger</title>
<path fill="none" stroke="black" d="M6548.34,-221.76C6437.83,-197.06 6154.69,-133.77 5968.69,-92.19"/>
<polygon fill="black" stroke="black" points="5969.69,-88.83 5959.17,-90.06 5968.16,-95.66 5969.69,-88.83"/>
</g>
<!-- Pilatus2M -->
<g id="node13" class="node">
<title>Pilatus2M</title>
<ellipse fill="none" stroke="black" cx="6329.81" cy="-52.33" rx="231.93" ry="52.33"/>
<text xml:space="preserve" text-anchor="middle" x="6329.81" y="-72.03" font-family="Times,serif" font-size="14.00">Pilatus2M</text>
<text xml:space="preserve" text-anchor="middle" x="6329.81" y="-55.53" font-family="Times,serif" font-size="14.00">File: ./cms&#45;profile&#45;collection/startup/20&#45;area&#45;detectors.py</text>
<text xml:space="preserve" text-anchor="middle" x="6329.81" y="-39.03" font-family="Times,serif" font-size="14.00">Methods: 1</text>
<text xml:space="preserve" text-anchor="middle" x="6329.81" y="-22.53" font-family="Times,serif" font-size="14.00">Attributes: 13</text>
</g>
<!-- SingleTrigger&#45;&gt;Pilatus2M -->
<g id="edge12" class="edge">
<title>SingleTrigger&#45;&gt;Pilatus2M</title>
<path fill="none" stroke="black" d="M6565.18,-212.16C6528.36,-187.31 6464.02,-143.89 6411.9,-108.72"/>
<polygon fill="black" stroke="black" points="6414.15,-106.02 6403.91,-103.33 6410.24,-111.82 6414.15,-106.02"/>
</g>
<!-- PerkinElmerStandard1 -->
<g id="node14" class="node">
<title>PerkinElmerStandard1</title>
<ellipse fill="none" stroke="black" cx="6860.81" cy="-52.33" rx="226.63" ry="52.33"/>
<text xml:space="preserve" text-anchor="middle" x="6860.81" y="-72.03" font-family="Times,serif" font-size="14.00">PerkinElmerStandard1</text>
<text xml:space="preserve" text-anchor="middle" x="6860.81" y="-55.53" font-family="Times,serif" font-size="14.00">File: ./pdf&#45;profile&#45;collection/startup/80&#45;areadetector2.py</text>
<text xml:space="preserve" text-anchor="middle" x="6860.81" y="-39.03" font-family="Times,serif" font-size="14.00">Methods: 0</text>
<text xml:space="preserve" text-anchor="middle" x="6860.81" y="-22.53" font-family="Times,serif" font-size="14.00">Attributes: 0</text>
</g>
<!-- SingleTrigger&#45;&gt;PerkinElmerStandard1 -->
<g id="edge13" class="edge">
<title>SingleTrigger&#45;&gt;PerkinElmerStandard1</title>
<path fill="none" stroke="black" d="M6624.55,-212.16C6661.57,-187.27 6726.32,-143.74 6778.68,-108.54"/>
<polygon fill="black" stroke="black" points="6780.37,-111.62 6786.71,-103.14 6776.46,-105.81 6780.37,-111.62"/>
</g>
<!-- PerkinElmerStandard2 -->
<g id="node15" class="node">
<title>PerkinElmerStandard2</title>
<ellipse fill="none" stroke="black" cx="7385.81" cy="-52.33" rx="226.63" ry="52.33"/>
<text xml:space="preserve" text-anchor="middle" x="7385.81" y="-72.03" font-family="Times,serif" font-size="14.00">PerkinElmerStandard2</text>
<text xml:space="preserve" text-anchor="middle" x="7385.81" y="-55.53" font-family="Times,serif" font-size="14.00">File: ./pdf&#45;profile&#45;collection/startup/80&#45;areadetector2.py</text>
<text xml:space="preserve" text-anchor="middle" x="7385.81" y="-39.03" font-family="Times,serif" font-size="14.00">Methods: 0</text>
<text xml:space="preserve" text-anchor="middle" x="7385.81" y="-22.53" font-family="Times,serif" font-size="14.00">Attributes: 0</text>
</g>
<!-- SingleTrigger&#45;&gt;PerkinElmerStandard2 -->
<g id="edge14" class="edge">
<title>SingleTrigger&#45;&gt;PerkinElmerStandard2</title>
<path fill="none" stroke="black" d="M6641.34,-221.63C6751.11,-196.82 7030.79,-133.59 7214.37,-92.09"/>
<polygon fill="black" stroke="black" points="7215.04,-95.52 7224.02,-89.9 7213.49,-88.69 7215.04,-95.52"/>
</g>
<!-- Manta -->
<g id="node16" class="node">
<title>Manta</title>
<ellipse fill="none" stroke="black" cx="7906.81" cy="-52.33" rx="222.39" ry="52.33"/>
<text xml:space="preserve" text-anchor="middle" x="7906.81" y="-72.03" font-family="Times,serif" font-size="14.00">Manta</text>
<text xml:space="preserve" text-anchor="middle" x="7906.81" y="-55.53" font-family="Times,serif" font-size="14.00">File: ./fxi&#45;profile&#45;collection/startup/10&#45;area&#45;detector.py</text>
<text xml:space="preserve" text-anchor="middle" x="7906.81" y="-39.03" font-family="Times,serif" font-size="14.00">Methods: 3</text>
<text xml:space="preserve" text-anchor="middle" x="7906.81" y="-22.53" font-family="Times,serif" font-size="14.00">Attributes: 8</text>
</g>
<!-- SingleTrigger&#45;&gt;Manta -->
<g id="edge15" class="edge">
<title>SingleTrigger&#45;&gt;Manta</title>
<path fill="none" stroke="black" d="M6641.48,-227.78C6789.47,-213.66 7261.35,-166.54 7648.81,-104.65 7675.68,-100.36 7704.03,-95.28 7731.7,-90.02"/>
<polygon fill="black" stroke="black" points="7732.03,-93.52 7741.19,-88.21 7730.71,-86.65 7732.03,-93.52"/>
</g>
<!-- RIXSSingleTrigger -->
<g id="node17" class="node">
<title>RIXSSingleTrigger</title>
<ellipse fill="none" stroke="black" cx="8405.81" cy="-52.33" rx="204.35" ry="52.33"/>
<text xml:space="preserve" text-anchor="middle" x="8405.81" y="-72.03" font-family="Times,serif" font-size="14.00">RIXSSingleTrigger</text>
<text xml:space="preserve" text-anchor="middle" x="8405.81" y="-55.53" font-family="Times,serif" font-size="14.00">File: ./six&#45;profile&#45;collection/startup/22&#45;rixscam.py</text>
<text xml:space="preserve" text-anchor="middle" x="8405.81" y="-39.03" font-family="Times,serif" font-size="14.00">Methods: 1</text>
<text xml:space="preserve" text-anchor="middle" x="8405.81" y="-22.53" font-family="Times,serif" font-size="14.00">Attributes: 1</text>
</g>
<!-- SingleTrigger&#45;&gt;RIXSSingleTrigger -->
<g id="edge16" class="edge">
<title>SingleTrigger&#45;&gt;RIXSSingleTrigger</title>
<path fill="none" stroke="black" d="M6641.29,-230.57C6831.25,-223.62 7566.83,-192.24 8164.81,-104.65 8190.94,-100.82 8218.49,-95.86 8245.25,-90.52"/>
<polygon fill="black" stroke="black" points="8245.66,-94.01 8254.77,-88.6 8244.28,-87.15 8245.66,-94.01"/>
</g>
<!-- EigerSingleTrigger_AD37 -->
<g id="node18" class="node">
<title>EigerSingleTrigger_AD37</title>
<ellipse fill="none" stroke="black" cx="8911.81" cy="-52.33" rx="229.81" ry="52.33"/>
<text xml:space="preserve" text-anchor="middle" x="8911.81" y="-72.03" font-family="Times,serif" font-size="14.00">EigerSingleTrigger_AD37</text>
<text xml:space="preserve" text-anchor="middle" x="8911.81" y="-55.53" font-family="Times,serif" font-size="14.00">File: ./chx&#45;profile&#45;collection/startup/20&#45;area&#45;detectors.py</text>
<text xml:space="preserve" text-anchor="middle" x="8911.81" y="-39.03" font-family="Times,serif" font-size="14.00">Methods: 5</text>
<text xml:space="preserve" text-anchor="middle" x="8911.81" y="-22.53" font-family="Times,serif" font-size="14.00">Attributes: 4</text>
</g>
<!-- SingleTrigger&#45;&gt;EigerSingleTrigger_AD37 -->
<g id="edge17" class="edge">
<title>SingleTrigger&#45;&gt;EigerSingleTrigger_AD37</title>
<path fill="none" stroke="black" d="M6641.23,-231.47C6864.24,-227.74 7847.72,-206.03 8645.81,-104.65 8674.56,-101 8704.89,-96.13 8734.36,-90.84"/>
<polygon fill="black" stroke="black" points="8734.91,-94.3 8744.12,-89.07 8733.66,-87.41 8734.91,-94.3"/>
</g>
<!-- EigerManualTrigger -->
<g id="node19" class="node">
<title>EigerManualTrigger</title>
<ellipse fill="none" stroke="black" cx="9443.81" cy="-52.33" rx="229.81" ry="52.33"/>
<text xml:space="preserve" text-anchor="middle" x="9443.81" y="-72.03" font-family="Times,serif" font-size="14.00">EigerManualTrigger</text>
<text xml:space="preserve" text-anchor="middle" x="9443.81" y="-55.53" font-family="Times,serif" font-size="14.00">File: ./chx&#45;profile&#45;collection/startup/20&#45;area&#45;detectors.py</text>
<text xml:space="preserve" text-anchor="middle" x="9443.81" y="-39.03" font-family="Times,serif" font-size="14.00">Methods: 4</text>
<text xml:space="preserve" text-anchor="middle" x="9443.81" y="-22.53" font-family="Times,serif" font-size="14.00">Attributes: 3</text>
</g>
<!-- SingleTrigger&#45;&gt;EigerManualTrigger -->
<g id="edge18" class="edge">
<title>SingleTrigger&#45;&gt;EigerManualTrigger</title>
<path fill="none" stroke="black" d="M6641.3,-232.3C6896.98,-232.63 8157.58,-227.64 9177.81,-104.65 9206.79,-101.16 9237.36,-96.34 9267.04,-91.05"/>
<polygon fill="black" stroke="black" points="9267.66,-94.49 9276.87,-89.27 9266.41,-87.6 9267.66,-94.49"/>
</g>
<!-- PerkinElmerStandard -->
<g id="node20" class="node">
<title>PerkinElmerStandard</title>
<ellipse fill="none" stroke="black" cx="9968.81" cy="-52.33" rx="222.92" ry="52.33"/>
<text xml:space="preserve" text-anchor="middle" x="9968.81" y="-72.03" font-family="Times,serif" font-size="14.00">PerkinElmerStandard</text>
<text xml:space="preserve" text-anchor="middle" x="9968.81" y="-55.53" font-family="Times,serif" font-size="14.00">File: ./xpd&#45;profile&#45;collection/startup/80&#45;areadetector.py</text>
<text xml:space="preserve" text-anchor="middle" x="9968.81" y="-39.03" font-family="Times,serif" font-size="14.00">Methods: 0</text>
<text xml:space="preserve" text-anchor="middle" x="9968.81" y="-22.53" font-family="Times,serif" font-size="14.00">Attributes: 0</text>
</g>
<!-- SingleTrigger&#45;&gt;PerkinElmerStandard -->
<g id="edge19" class="edge">
<title>SingleTrigger&#45;&gt;PerkinElmerStandard</title>
<path fill="none" stroke="black" d="M6641.51,-231.23C6981.29,-224.4 9078.28,-179.69 9709.81,-104.65 9738.27,-101.27 9768.27,-96.48 9797.37,-91.17"/>
<polygon fill="black" stroke="black" points="9797.79,-94.65 9806.98,-89.39 9796.51,-87.77 9797.79,-94.65"/>
</g>
<!-- SRXMerlin -->
<g id="node21" class="node">
<title>SRXMerlin</title>
<ellipse fill="none" stroke="black" cx="10462.81" cy="-52.33" rx="199.58" ry="52.33"/>
<text xml:space="preserve" text-anchor="middle" x="10462.81" y="-72.03" font-family="Times,serif" font-size="14.00">SRXMerlin</text>
<text xml:space="preserve" text-anchor="middle" x="10462.81" y="-55.53" font-family="Times,serif" font-size="14.00">File: ./srx&#45;profile&#45;collection/startup/34&#45;merlin.py</text>
<text xml:space="preserve" text-anchor="middle" x="10462.81" y="-39.03" font-family="Times,serif" font-size="14.00">Methods: 4</text>
<text xml:space="preserve" text-anchor="middle" x="10462.81" y="-22.53" font-family="Times,serif" font-size="14.00">Attributes: 18</text>
</g>
<!-- SingleTrigger&#45;&gt;SRXMerlin -->
<g id="edge20" class="edge">
<title>SingleTrigger&#45;&gt;SRXMerlin</title>
<path fill="none" stroke="black" d="M6641.36,-231.67C7011.77,-227.68 9486.95,-197.79 10227.81,-104.65 10253.94,-101.37 10281.45,-96.59 10308.09,-91.25"/>
<polygon fill="black" stroke="black" points="10308.46,-94.74 10317.56,-89.31 10307.06,-87.88 10308.46,-94.74"/>
</g>
<!-- SRXDexelaDetector -->
<g id="node22" class="node">
<title>SRXDexelaDetector</title>
<ellipse fill="none" stroke="black" cx="10933.81" cy="-52.33" rx="199.05" ry="52.33"/>
<text xml:space="preserve" text-anchor="middle" x="10933.81" y="-72.03" font-family="Times,serif" font-size="14.00">SRXDexelaDetector</text>
<text xml:space="preserve" text-anchor="middle" x="10933.81" y="-55.53" font-family="Times,serif" font-size="14.00">File: ./srx&#45;profile&#45;collection/startup/35&#45;dexela.py</text>
<text xml:space="preserve" text-anchor="middle" x="10933.81" y="-39.03" font-family="Times,serif" font-size="14.00">Methods: 5</text>
<text xml:space="preserve" text-anchor="middle" x="10933.81" y="-22.53" font-family="Times,serif" font-size="14.00">Attributes: 17</text>
</g>
<!-- SingleTrigger&#45;&gt;SRXDexelaDetector -->
<g id="edge21" class="edge">
<title>SingleTrigger&#45;&gt;SRXDexelaDetector</title>
<path fill="none" stroke="black" d="M6641.27,-231.89C7037.7,-229.46 9857.6,-208.68 10698.81,-104.65 10725.04,-101.41 10752.66,-96.63 10779.38,-91.28"/>
<polygon fill="black" stroke="black" points="10779.79,-94.77 10788.88,-89.34 10778.39,-87.91 10779.79,-94.77"/>
</g>
<!-- SRXPixirad -->
<g id="node23" class="node">
<title>SRXPixirad</title>
<ellipse fill="none" stroke="black" cx="11438.81" cy="-52.33" rx="233.52" ry="52.33"/>
<text xml:space="preserve" text-anchor="middle" x="11438.81" y="-72.03" font-family="Times,serif" font-size="14.00">SRXPixirad</text>
<text xml:space="preserve" text-anchor="middle" x="11438.81" y="-55.53" font-family="Times,serif" font-size="14.00">File: ./srx&#45;profile&#45;collection/startup/39&#45;legacydetectors.py</text>
<text xml:space="preserve" text-anchor="middle" x="11438.81" y="-39.03" font-family="Times,serif" font-size="14.00">Methods: 0</text>
<text xml:space="preserve" text-anchor="middle" x="11438.81" y="-22.53" font-family="Times,serif" font-size="14.00">Attributes: 11</text>
</g>
<!-- SingleTrigger&#45;&gt;SRXPixirad -->
<g id="edge22" class="edge">
<title>SingleTrigger&#45;&gt;SRXPixirad</title>
<path fill="none" stroke="black" d="M6641.47,-231.88C7063.4,-229.31 10226,-206.74 11168.81,-104.65 11198.7,-101.42 11230.23,-96.66 11260.79,-91.34"/>
<polygon fill="black" stroke="black" points="11261.28,-94.8 11270.51,-89.61 11260.05,-87.91 11261.28,-94.8"/>
</g>
<!-- SRXCamera -->
<g id="node24" class="node">
<title>SRXCamera</title>
<ellipse fill="none" stroke="black" cx="11949.81" cy="-52.33" rx="205.94" ry="52.33"/>
<text xml:space="preserve" text-anchor="middle" x="11949.81" y="-72.03" font-family="Times,serif" font-size="14.00">SRXCamera</text>
<text xml:space="preserve" text-anchor="middle" x="11949.81" y="-55.53" font-family="Times,serif" font-size="14.00">File: ./srx&#45;profile&#45;collection/startup/21&#45;cameras.py</text>
<text xml:space="preserve" text-anchor="middle" x="11949.81" y="-39.03" font-family="Times,serif" font-size="14.00">Methods: 1</text>
<text xml:space="preserve" text-anchor="middle" x="11949.81" y="-22.53" font-family="Times,serif" font-size="14.00">Attributes: 17</text>
</g>
<!-- SingleTrigger&#45;&gt;SRXCamera -->
<g id="edge23" class="edge">
<title>SingleTrigger&#45;&gt;SRXCamera</title>
<path fill="none" stroke="black" d="M6641.23,-232.18C7089.21,-232.31 10651.5,-229.33 11708.81,-104.65 11735.6,-101.49 11763.82,-96.78 11791.13,-91.46"/>
<polygon fill="black" stroke="black" points="11791.75,-94.9 11800.88,-89.52 11790.39,-88.04 11791.75,-94.9"/>
</g>
<!-- SRXPCOEdge -->
<g id="node25" class="node">
<title>SRXPCOEdge</title>
<ellipse fill="none" stroke="black" cx="12415.81" cy="-52.33" rx="187.91" ry="52.33"/>
<text xml:space="preserve" text-anchor="middle" x="12415.81" y="-72.03" font-family="Times,serif" font-size="14.00">SRXPCOEdge</text>
<text xml:space="preserve" text-anchor="middle" x="12415.81" y="-55.53" font-family="Times,serif" font-size="14.00">File: ./srx&#45;profile&#45;collection/startup/33&#45;pco.py</text>
<text xml:space="preserve" text-anchor="middle" x="12415.81" y="-39.03" font-family="Times,serif" font-size="14.00">Methods: 0</text>
<text xml:space="preserve" text-anchor="middle" x="12415.81" y="-22.53" font-family="Times,serif" font-size="14.00">Attributes: 12</text>
</g>
<!-- SingleTrigger&#45;&gt;SRXPCOEdge -->
<g id="edge24" class="edge">
<title>SingleTrigger&#45;&gt;SRXPCOEdge</title>
<path fill="none" stroke="black" d="M6641.43,-231.67C7147.23,-226.31 11609.65,-177.22 12191.81,-104.65 12217.1,-101.5 12243.71,-96.73 12269.42,-91.33"/>
<polygon fill="black" stroke="black" points="12269.84,-94.82 12278.89,-89.31 12268.38,-87.98 12269.84,-94.82"/>
</g>
</g>
</svg>
