<?xml version="1.0" encoding="UTF-8" standalone="no"?>
<!DOCTYPE svg PUBLIC "-//W3C//DTD SVG 1.1//EN"
 "http://www.w3.org/Graphics/SVG/1.1/DTD/svg11.dtd">
<!-- Generated by graphviz version 14.0.0 (20250921.2048)
 -->
<!-- Pages: 1 -->
<svg width="11596pt" height="262pt"
 viewBox="0.00 0.00 11596.00 262.00" xmlns="http://www.w3.org/2000/svg" xmlns:xlink="http://www.w3.org/1999/xlink">
<g id="graph0" class="graph" transform="scale(1 1) rotate(0) translate(4 257.65)">
<polygon fill="white" stroke="none" points="-4,4 -4,-257.65 11592.36,-257.65 11592.36,4 -4,4"/>
<!-- SingleTriggerV33 -->
<g id="node1" class="node">
<title>SingleTriggerV33</title>
<polygon fill="lightblue" stroke="lightblue" points="5824.57,-253.65 5710.32,-253.65 5710.32,-212.65 5824.57,-212.65 5824.57,-253.65"/>
<text xml:space="preserve" text-anchor="middle" x="5767.45" y="-236.35" font-family="Times,serif" font-size="14.00">SingleTriggerV33</text>
<text xml:space="preserve" text-anchor="middle" x="5767.45" y="-219.85" font-family="Times,serif" font-size="14.00">(Parent Class)</text>
</g>
<!-- StandardProsilica -->
<g id="node2" class="node">
<title>StandardProsilica</title>
<ellipse fill="none" stroke="black" cx="223.45" cy="-52.33" rx="223.45" ry="52.33"/>
<text xml:space="preserve" text-anchor="middle" x="223.45" y="-72.03" font-family="Times,serif" font-size="14.00">StandardProsilica</text>
<text xml:space="preserve" text-anchor="middle" x="223.45" y="-55.53" font-family="Times,serif" font-size="14.00">File: ./tes&#45;profile&#45;collection/startup/26&#45;areadetectors.py</text>
<text xml:space="preserve" text-anchor="middle" x="223.45" y="-39.03" font-family="Times,serif" font-size="14.00">Methods: 3</text>
<text xml:space="preserve" text-anchor="middle" x="223.45" y="-22.53" font-family="Times,serif" font-size="14.00">Attributes: 13</text>
</g>
<!-- SingleTriggerV33&#45;&gt;StandardProsilica -->
<g id="edge1" class="edge">
<title>SingleTriggerV33&#45;&gt;StandardProsilica</title>
<path fill="none" stroke="black" d="M5710.04,-232.12C5208.87,-231.65 1569.74,-224.09 483.45,-104.65 454.45,-101.46 423.87,-96.71 394.27,-91.35"/>
<polygon fill="black" stroke="black" points="394.93,-87.92 384.46,-89.55 393.66,-94.8 394.93,-87.92"/>
</g>
<!-- StandardPICam -->
<g id="node3" class="node">
<title>StandardPICam</title>
<ellipse fill="none" stroke="black" cx="763.45" cy="-52.33" rx="244.13" ry="52.33"/>
<text xml:space="preserve" text-anchor="middle" x="763.45" y="-72.03" font-family="Times,serif" font-size="14.00">StandardPICam</text>
<text xml:space="preserve" text-anchor="middle" x="763.45" y="-55.53" font-family="Times,serif" font-size="14.00">File: ./tes&#45;profile&#45;collection/startup/27&#45;Teledyne_PICAM.py</text>
<text xml:space="preserve" text-anchor="middle" x="763.45" y="-39.03" font-family="Times,serif" font-size="14.00">Methods: 5</text>
<text xml:space="preserve" text-anchor="middle" x="763.45" y="-22.53" font-family="Times,serif" font-size="14.00">Attributes: 14</text>
</g>
<!-- SingleTriggerV33&#45;&gt;StandardPICam -->
<g id="edge2" class="edge">
<title>SingleTriggerV33&#45;&gt;StandardPICam</title>
<path fill="none" stroke="black" d="M5709.97,-231.82C5239.18,-228.95 2010.91,-205.77 1043.45,-104.65 1012.56,-101.42 979.96,-96.69 948.36,-91.38"/>
<polygon fill="black" stroke="black" points="949.16,-87.97 938.72,-89.73 947.99,-94.87 949.16,-87.97"/>
</g>
<!-- QASPerkinElmer -->
<g id="node4" class="node">
<title>QASPerkinElmer</title>
<ellipse fill="none" stroke="black" cx="1300.45" cy="-52.33" rx="221.32" ry="52.33"/>
<text xml:space="preserve" text-anchor="middle" x="1300.45" y="-72.03" font-family="Times,serif" font-size="14.00">QASPerkinElmer</text>
<text xml:space="preserve" text-anchor="middle" x="1300.45" y="-55.53" font-family="Times,serif" font-size="14.00">File: ./qas&#45;profile&#45;collection/startup/80&#45;areadetector.py</text>
<text xml:space="preserve" text-anchor="middle" x="1300.45" y="-39.03" font-family="Times,serif" font-size="14.00">Methods: 2</text>
<text xml:space="preserve" text-anchor="middle" x="1300.45" y="-22.53" font-family="Times,serif" font-size="14.00">Attributes: 26</text>
</g>
<!-- SingleTriggerV33&#45;&gt;QASPerkinElmer -->
<g id="edge3" class="edge">
<title>SingleTriggerV33&#45;&gt;QASPerkinElmer</title>
<path fill="none" stroke="black" d="M5710.07,-231.73C5269.28,-228.3 2414.74,-202.55 1557.45,-104.65 1528.99,-101.4 1498.98,-96.65 1469.91,-91.32"/>
<polygon fill="black" stroke="black" points="1470.78,-87.92 1460.31,-89.53 1469.5,-94.81 1470.78,-87.92"/>
</g>
<!-- PilatusBase -->
<g id="node5" class="node">
<title>PilatusBase</title>
<ellipse fill="none" stroke="black" cx="1810.45" cy="-52.33" rx="217.08" ry="52.33"/>
<text xml:space="preserve" text-anchor="middle" x="1810.45" y="-72.03" font-family="Times,serif" font-size="14.00">PilatusBase</text>
<text xml:space="preserve" text-anchor="middle" x="1810.45" y="-55.53" font-family="Times,serif" font-size="14.00">File: ./iss&#45;profile&#45;collection/startup/36&#45;pilatus100k.py</text>
<text xml:space="preserve" text-anchor="middle" x="1810.45" y="-39.03" font-family="Times,serif" font-size="14.00">Methods: 10</text>
<text xml:space="preserve" text-anchor="middle" x="1810.45" y="-22.53" font-family="Times,serif" font-size="14.00">Attributes: 27</text>
</g>
<!-- SingleTriggerV33&#45;&gt;PilatusBase -->
<g id="edge4" class="edge">
<title>SingleTriggerV33&#45;&gt;PilatusBase</title>
<path fill="none" stroke="black" d="M5709.97,-231.48C5299.91,-226.5 2813.09,-192.98 2063.45,-104.65 2035.55,-101.36 2006.14,-96.61 1977.64,-91.3"/>
<polygon fill="black" stroke="black" points="1978.31,-87.87 1967.83,-89.45 1977.01,-94.75 1978.31,-87.87"/>
</g>
<!-- BMMUVCSingleTrigger -->
<g id="node6" class="node">
<title>BMMUVCSingleTrigger</title>
<ellipse fill="none" stroke="black" cx="2343.45" cy="-52.33" rx="243.6" ry="52.33"/>
<text xml:space="preserve" text-anchor="middle" x="2343.45" y="-72.03" font-family="Times,serif" font-size="14.00">BMMUVCSingleTrigger</text>
<text xml:space="preserve" text-anchor="middle" x="2343.45" y="-55.53" font-family="Times,serif" font-size="14.00">File: ./bmm&#45;profile&#45;collection/startup/BMM/usb_camera.py</text>
<text xml:space="preserve" text-anchor="middle" x="2343.45" y="-39.03" font-family="Times,serif" font-size="14.00">Methods: 0</text>
<text xml:space="preserve" text-anchor="middle" x="2343.45" y="-22.53" font-family="Times,serif" font-size="14.00">Attributes: 0</text>
</g>
<!-- SingleTriggerV33&#45;&gt;BMMUVCSingleTrigger -->
<g id="edge5" class="edge">
<title>SingleTriggerV33&#45;&gt;BMMUVCSingleTrigger</title>
<path fill="none" stroke="black" d="M5709.99,-230.93C5337.07,-222.83 3255.28,-175.02 2623.45,-104.65 2592.8,-101.24 2560.46,-96.44 2529.07,-91.14"/>
<polygon fill="black" stroke="black" points="2529.95,-87.74 2519.5,-89.49 2528.77,-94.63 2529.95,-87.74"/>
</g>
<!-- BMMPilatusSingleTrigger -->
<g id="node7" class="node">
<title>BMMPilatusSingleTrigger</title>
<ellipse fill="none" stroke="black" cx="2882.45" cy="-52.33" rx="222.92" ry="52.33"/>
<text xml:space="preserve" text-anchor="middle" x="2882.45" y="-72.03" font-family="Times,serif" font-size="14.00">BMMPilatusSingleTrigger</text>
<text xml:space="preserve" text-anchor="middle" x="2882.45" y="-55.53" font-family="Times,serif" font-size="14.00">File: ./bmm&#45;profile&#45;collection/startup/BMM/pilatus.py</text>
<text xml:space="preserve" text-anchor="middle" x="2882.45" y="-39.03" font-family="Times,serif" font-size="14.00">Methods: 0</text>
<text xml:space="preserve" text-anchor="middle" x="2882.45" y="-22.53" font-family="Times,serif" font-size="14.00">Attributes: 0</text>
</g>
<!-- SingleTriggerV33&#45;&gt;BMMPilatusSingleTrigger -->
<g id="edge6" class="edge">
<title>SingleTriggerV33&#45;&gt;BMMPilatusSingleTrigger</title>
<path fill="none" stroke="black" d="M5709.89,-232.48C5428.01,-233.46 4165.32,-230.27 3141.45,-104.65 3113.1,-101.17 3083.22,-96.35 3054.22,-91.04"/>
<polygon fill="black" stroke="black" points="3055.12,-87.65 3044.64,-89.26 3053.84,-94.53 3055.12,-87.65"/>
</g>
<!-- BMMPilatusTIFFSingleTrigger -->
<g id="node8" class="node">
<title>BMMPilatusTIFFSingleTrigger</title>
<ellipse fill="none" stroke="black" cx="3400.45" cy="-52.33" rx="222.92" ry="52.33"/>
<text xml:space="preserve" text-anchor="middle" x="3400.45" y="-72.03" font-family="Times,serif" font-size="14.00">BMMPilatusTIFFSingleTrigger</text>
<text xml:space="preserve" text-anchor="middle" x="3400.45" y="-55.53" font-family="Times,serif" font-size="14.00">File: ./bmm&#45;profile&#45;collection/startup/BMM/pilatus.py</text>
<text xml:space="preserve" text-anchor="middle" x="3400.45" y="-39.03" font-family="Times,serif" font-size="14.00">Methods: 0</text>
<text xml:space="preserve" text-anchor="middle" x="3400.45" y="-22.53" font-family="Times,serif" font-size="14.00">Attributes: 0</text>
</g>
<!-- SingleTriggerV33&#45;&gt;BMMPilatusTIFFSingleTrigger -->
<g id="edge7" class="edge">
<title>SingleTriggerV33&#45;&gt;BMMPilatusTIFFSingleTrigger</title>
<path fill="none" stroke="black" d="M5710.17,-231.52C5463.6,-228.22 4468.55,-208.8 3659.45,-104.65 3631.33,-101.03 3601.68,-96.17 3572.88,-90.87"/>
<polygon fill="black" stroke="black" points="3573.85,-87.49 3563.37,-89.09 3572.56,-94.37 3573.85,-87.49"/>
</g>
<!-- BMMDanteSingleTrigger -->
<g id="node9" class="node">
<title>BMMDanteSingleTrigger</title>
<ellipse fill="none" stroke="black" cx="3913.45" cy="-52.33" rx="218.14" ry="52.33"/>
<text xml:space="preserve" text-anchor="middle" x="3913.45" y="-72.03" font-family="Times,serif" font-size="14.00">BMMDanteSingleTrigger</text>
<text xml:space="preserve" text-anchor="middle" x="3913.45" y="-55.53" font-family="Times,serif" font-size="14.00">File: ./bmm&#45;profile&#45;collection/startup/BMM/dante.py</text>
<text xml:space="preserve" text-anchor="middle" x="3913.45" y="-39.03" font-family="Times,serif" font-size="14.00">Methods: 2</text>
<text xml:space="preserve" text-anchor="middle" x="3913.45" y="-22.53" font-family="Times,serif" font-size="14.00">Attributes: 12</text>
</g>
<!-- SingleTriggerV33&#45;&gt;BMMDanteSingleTrigger -->
<g id="edge8" class="edge">
<title>SingleTriggerV33&#45;&gt;BMMDanteSingleTrigger</title>
<path fill="none" stroke="black" d="M5710.13,-230.07C5502.07,-221.99 4767.3,-188.85 4167.45,-104.65 4140.21,-100.83 4111.5,-95.9 4083.56,-90.62"/>
<polygon fill="black" stroke="black" points="4084.45,-87.23 4073.97,-88.79 4083.14,-94.11 4084.45,-87.23"/>
</g>
<!-- BMMEigerSingleTrigger -->
<g id="node10" class="node">
<title>BMMEigerSingleTrigger</title>
<ellipse fill="none" stroke="black" cx="4419.45" cy="-52.33" rx="216.02" ry="52.33"/>
<text xml:space="preserve" text-anchor="middle" x="4419.45" y="-72.03" font-family="Times,serif" font-size="14.00">BMMEigerSingleTrigger</text>
<text xml:space="preserve" text-anchor="middle" x="4419.45" y="-55.53" font-family="Times,serif" font-size="14.00">File: ./bmm&#45;profile&#45;collection/startup/BMM/eiger.py</text>
<text xml:space="preserve" text-anchor="middle" x="4419.45" y="-39.03" font-family="Times,serif" font-size="14.00">Methods: 0</text>
<text xml:space="preserve" text-anchor="middle" x="4419.45" y="-22.53" font-family="Times,serif" font-size="14.00">Attributes: 0</text>
</g>
<!-- SingleTriggerV33&#45;&gt;BMMEigerSingleTrigger -->
<g id="edge9" class="edge">
<title>SingleTriggerV33&#45;&gt;BMMEigerSingleTrigger</title>
<path fill="none" stroke="black" d="M5709.87,-227.2C5546.54,-212.76 5066.56,-167.75 4671.45,-104.65 4645.1,-100.44 4617.31,-95.4 4590.21,-90.15"/>
<polygon fill="black" stroke="black" points="4591.02,-86.74 4580.53,-88.26 4589.67,-93.61 4591.02,-86.74"/>
</g>
<!-- EigerSingleTriggerV33 -->
<g id="node11" class="node">
<title>EigerSingleTriggerV33</title>
<ellipse fill="none" stroke="black" cx="4955.45" cy="-52.33" rx="247.84" ry="52.33"/>
<text xml:space="preserve" text-anchor="middle" x="4955.45" y="-72.03" font-family="Times,serif" font-size="14.00">EigerSingleTriggerV33</text>
<text xml:space="preserve" text-anchor="middle" x="4955.45" y="-55.53" font-family="Times,serif" font-size="14.00">File: ./hxn&#45;profile&#45;collection/startup/65&#45;nano&#45;eiger&#45;mobile.py</text>
<text xml:space="preserve" text-anchor="middle" x="4955.45" y="-39.03" font-family="Times,serif" font-size="14.00">Methods: 0</text>
<text xml:space="preserve" text-anchor="middle" x="4955.45" y="-22.53" font-family="Times,serif" font-size="14.00">Attributes: 1</text>
</g>
<!-- SingleTriggerV33&#45;&gt;EigerSingleTriggerV33 -->
<g id="edge10" class="edge">
<title>SingleTriggerV33&#45;&gt;EigerSingleTriggerV33</title>
<path fill="none" stroke="black" d="M5710.02,-219.51C5592.45,-193.61 5319.94,-133.6 5136.67,-93.24"/>
<polygon fill="black" stroke="black" points="5137.55,-89.85 5127.03,-91.11 5136.04,-96.68 5137.55,-89.85"/>
</g>
<!-- SRXMerlin -->
<g id="node12" class="node">
<title>SRXMerlin</title>
<ellipse fill="none" stroke="black" cx="5499.45" cy="-52.33" rx="223.98" ry="52.33"/>
<text xml:space="preserve" text-anchor="middle" x="5499.45" y="-72.03" font-family="Times,serif" font-size="14.00">SRXMerlin</text>
<text xml:space="preserve" text-anchor="middle" x="5499.45" y="-55.53" font-family="Times,serif" font-size="14.00">File: ./hxn&#45;profile&#45;collection/startup/64&#45;nano&#45;merlin.py</text>
<text xml:space="preserve" text-anchor="middle" x="5499.45" y="-39.03" font-family="Times,serif" font-size="14.00">Methods: 7</text>
<text xml:space="preserve" text-anchor="middle" x="5499.45" y="-22.53" font-family="Times,serif" font-size="14.00">Attributes: 19</text>
</g>
<!-- SingleTriggerV33&#45;&gt;SRXMerlin -->
<g id="edge11" class="edge">
<title>SingleTriggerV33&#45;&gt;SRXMerlin</title>
<path fill="none" stroke="black" d="M5737.48,-212.16C5700.12,-187.23 5634.72,-143.59 5581.92,-108.36"/>
<polygon fill="black" stroke="black" points="5584.07,-105.59 5573.81,-102.95 5580.19,-111.41 5584.07,-105.59"/>
</g>
<!-- StandardProsilicaV33 -->
<g id="node13" class="node">
<title>StandardProsilicaV33</title>
<ellipse fill="none" stroke="black" cx="6035.45" cy="-52.33" rx="240.42" ry="52.33"/>
<text xml:space="preserve" text-anchor="middle" x="6035.45" y="-72.03" font-family="Times,serif" font-size="14.00">StandardProsilicaV33</text>
<text xml:space="preserve" text-anchor="middle" x="6035.45" y="-55.53" font-family="Times,serif" font-size="14.00">File: ./smi&#45;profile&#45;collection/startup/smiclasses/prosilica.py</text>
<text xml:space="preserve" text-anchor="middle" x="6035.45" y="-39.03" font-family="Times,serif" font-size="14.00">Methods: 2</text>
<text xml:space="preserve" text-anchor="middle" x="6035.45" y="-22.53" font-family="Times,serif" font-size="14.00">Attributes: 18</text>
</g>
<!-- SingleTriggerV33&#45;&gt;StandardProsilicaV33 -->
<g id="edge12" class="edge">
<title>SingleTriggerV33&#45;&gt;StandardProsilicaV33</title>
<path fill="none" stroke="black" d="M5797.41,-212.16C5834.65,-187.31 5899.72,-143.89 5952.43,-108.72"/>
<polygon fill="black" stroke="black" points="5954.14,-111.78 5960.52,-103.32 5950.26,-105.96 5954.14,-111.78"/>
</g>
<!-- PilatusV33 -->
<g id="node14" class="node">
<title>PilatusV33</title>
<ellipse fill="none" stroke="black" cx="6601.45" cy="-52.33" rx="253.67" ry="52.33"/>
<text xml:space="preserve" text-anchor="middle" x="6601.45" y="-72.03" font-family="Times,serif" font-size="14.00">PilatusV33</text>
<text xml:space="preserve" text-anchor="middle" x="6601.45" y="-55.53" font-family="Times,serif" font-size="14.00">File: ./chx&#45;profile&#45;collection/optional_startup/21&#45;ad&#45;pil800k.py</text>
<text xml:space="preserve" text-anchor="middle" x="6601.45" y="-39.03" font-family="Times,serif" font-size="14.00">Methods: 3</text>
<text xml:space="preserve" text-anchor="middle" x="6601.45" y="-22.53" font-family="Times,serif" font-size="14.00">Attributes: 13</text>
</g>
<!-- SingleTriggerV33&#45;&gt;PilatusV33 -->
<g id="edge13" class="edge">
<title>SingleTriggerV33&#45;&gt;PilatusV33</title>
<path fill="none" stroke="black" d="M5824.77,-219.86C5944.75,-194.14 6226.82,-133.65 6415.93,-93.1"/>
<polygon fill="black" stroke="black" points="6416.59,-96.54 6425.64,-91.02 6415.12,-89.7 6416.59,-96.54"/>
</g>
<!-- Pilatus800V33 -->
<g id="node15" class="node">
<title>Pilatus800V33</title>
<ellipse fill="none" stroke="black" cx="7159.45" cy="-52.33" rx="231.93" ry="52.33"/>
<text xml:space="preserve" text-anchor="middle" x="7159.45" y="-72.03" font-family="Times,serif" font-size="14.00">Pilatus800V33</text>
<text xml:space="preserve" text-anchor="middle" x="7159.45" y="-55.53" font-family="Times,serif" font-size="14.00">File: ./cms&#45;profile&#45;collection/startup/20&#45;area&#45;detectors.py</text>
<text xml:space="preserve" text-anchor="middle" x="7159.45" y="-39.03" font-family="Times,serif" font-size="14.00">Methods: 3</text>
<text xml:space="preserve" text-anchor="middle" x="7159.45" y="-22.53" font-family="Times,serif" font-size="14.00">Attributes: 13</text>
</g>
<!-- SingleTriggerV33&#45;&gt;Pilatus800V33 -->
<g id="edge14" class="edge">
<title>SingleTriggerV33&#45;&gt;Pilatus800V33</title>
<path fill="none" stroke="black" d="M5824.97,-227.19C5990.92,-212.54 6484.7,-166.58 6891.45,-104.65 6919.37,-100.4 6948.83,-95.34 6977.59,-90.09"/>
<polygon fill="black" stroke="black" points="6977.89,-93.59 6987.09,-88.34 6976.62,-86.71 6977.89,-93.59"/>
</g>
<!-- Pilatus2MV33 -->
<g id="node16" class="node">
<title>Pilatus2MV33</title>
<ellipse fill="none" stroke="black" cx="7695.45" cy="-52.33" rx="231.93" ry="52.33"/>
<text xml:space="preserve" text-anchor="middle" x="7695.45" y="-72.03" font-family="Times,serif" font-size="14.00">Pilatus2MV33</text>
<text xml:space="preserve" text-anchor="middle" x="7695.45" y="-55.53" font-family="Times,serif" font-size="14.00">File: ./cms&#45;profile&#45;collection/startup/20&#45;area&#45;detectors.py</text>
<text xml:space="preserve" text-anchor="middle" x="7695.45" y="-39.03" font-family="Times,serif" font-size="14.00">Methods: 3</text>
<text xml:space="preserve" text-anchor="middle" x="7695.45" y="-22.53" font-family="Times,serif" font-size="14.00">Attributes: 14</text>
</g>
<!-- SingleTriggerV33&#45;&gt;Pilatus2MV33 -->
<g id="edge15" class="edge">
<title>SingleTriggerV33&#45;&gt;Pilatus2MV33</title>
<path fill="none" stroke="black" d="M5825.03,-230.08C6038.27,-221.9 6802.89,-188.17 7427.45,-104.65 7456.07,-100.82 7486.26,-95.91 7515.65,-90.64"/>
<polygon fill="black" stroke="black" points="7516.16,-94.1 7525.37,-88.88 7514.91,-87.22 7516.16,-94.1"/>
</g>
<!-- Pilatus2MV33_h5 -->
<g id="node17" class="node">
<title>Pilatus2MV33_h5</title>
<ellipse fill="none" stroke="black" cx="8231.45" cy="-52.33" rx="231.93" ry="52.33"/>
<text xml:space="preserve" text-anchor="middle" x="8231.45" y="-72.03" font-family="Times,serif" font-size="14.00">Pilatus2MV33_h5</text>
<text xml:space="preserve" text-anchor="middle" x="8231.45" y="-55.53" font-family="Times,serif" font-size="14.00">File: ./cms&#45;profile&#45;collection/startup/20&#45;area&#45;detectors.py</text>
<text xml:space="preserve" text-anchor="middle" x="8231.45" y="-39.03" font-family="Times,serif" font-size="14.00">Methods: 4</text>
<text xml:space="preserve" text-anchor="middle" x="8231.45" y="-22.53" font-family="Times,serif" font-size="14.00">Attributes: 15</text>
</g>
<!-- SingleTriggerV33&#45;&gt;Pilatus2MV33_h5 -->
<g id="edge16" class="edge">
<title>SingleTriggerV33&#45;&gt;Pilatus2MV33_h5</title>
<path fill="none" stroke="black" d="M5824.95,-231.58C6078.06,-228.49 7117.85,-209.71 7963.45,-104.65 7992.55,-101.04 8023.24,-96.17 8053.06,-90.87"/>
<polygon fill="black" stroke="black" points="8053.29,-94.38 8062.51,-89.16 8052.05,-87.49 8053.29,-94.38"/>
</g>
<!-- Lambda -->
<g id="node18" class="node">
<title>Lambda</title>
<ellipse fill="none" stroke="black" cx="8742.45" cy="-52.33" rx="207.01" ry="52.33"/>
<text xml:space="preserve" text-anchor="middle" x="8742.45" y="-72.03" font-family="Times,serif" font-size="14.00">Lambda</text>
<text xml:space="preserve" text-anchor="middle" x="8742.45" y="-55.53" font-family="Times,serif" font-size="14.00">File: ./opls&#45;profile&#45;collection/startup/46&#45;lambda.py</text>
<text xml:space="preserve" text-anchor="middle" x="8742.45" y="-39.03" font-family="Times,serif" font-size="14.00">Methods: 0</text>
<text xml:space="preserve" text-anchor="middle" x="8742.45" y="-22.53" font-family="Times,serif" font-size="14.00">Attributes: 14</text>
</g>
<!-- SingleTriggerV33&#45;&gt;Lambda -->
<g id="edge17" class="edge">
<title>SingleTriggerV33&#45;&gt;Lambda</title>
<path fill="none" stroke="black" d="M5824.96,-230.73C6168.74,-222.07 7955.47,-174.33 8499.45,-104.65 8526.23,-101.22 8554.45,-96.4 8581.8,-91.07"/>
<polygon fill="black" stroke="black" points="8582.44,-94.51 8591.57,-89.13 8581.08,-87.64 8582.44,-94.51"/>
</g>
<!-- Pilatus -->
<g id="node19" class="node">
<title>Pilatus</title>
<ellipse fill="none" stroke="black" cx="9254.45" cy="-52.33" rx="232.99" ry="52.33"/>
<text xml:space="preserve" text-anchor="middle" x="9254.45" y="-72.03" font-family="Times,serif" font-size="14.00">Pilatus</text>
<text xml:space="preserve" text-anchor="middle" x="9254.45" y="-55.53" font-family="Times,serif" font-size="14.00">File: ./smi&#45;profile&#45;collection/startup/smiclasses/pilatus.py</text>
<text xml:space="preserve" text-anchor="middle" x="9254.45" y="-39.03" font-family="Times,serif" font-size="14.00">Methods: 5</text>
<text xml:space="preserve" text-anchor="middle" x="9254.45" y="-22.53" font-family="Times,serif" font-size="14.00">Attributes: 25</text>
</g>
<!-- SingleTriggerV33&#45;&gt;Pilatus -->
<g id="edge18" class="edge">
<title>SingleTriggerV33&#45;&gt;Pilatus</title>
<path fill="none" stroke="black" d="M5825.03,-231.04C6203.42,-223.59 8338.31,-178.79 8985.45,-104.65 9015,-101.27 9046.17,-96.47 9076.41,-91.15"/>
<polygon fill="black" stroke="black" points="9076.79,-94.64 9086.02,-89.44 9075.56,-87.75 9076.79,-94.64"/>
</g>
<!-- AndorKlass -->
<g id="node20" class="node">
<title>AndorKlass</title>
<ellipse fill="none" stroke="black" cx="9781.45" cy="-52.33" rx="222.39" ry="52.33"/>
<text xml:space="preserve" text-anchor="middle" x="9781.45" y="-72.03" font-family="Times,serif" font-size="14.00">AndorKlass</text>
<text xml:space="preserve" text-anchor="middle" x="9781.45" y="-55.53" font-family="Times,serif" font-size="14.00">File: ./fxi&#45;profile&#45;collection/startup/10&#45;area&#45;detector.py</text>
<text xml:space="preserve" text-anchor="middle" x="9781.45" y="-39.03" font-family="Times,serif" font-size="14.00">Methods: 8</text>
<text xml:space="preserve" text-anchor="middle" x="9781.45" y="-22.53" font-family="Times,serif" font-size="14.00">Attributes: 18</text>
</g>
<!-- SingleTriggerV33&#45;&gt;AndorKlass -->
<g id="edge19" class="edge">
<title>SingleTriggerV33&#45;&gt;AndorKlass</title>
<path fill="none" stroke="black" d="M5825.06,-231.48C6238.82,-226.47 8762.69,-192.64 9523.45,-104.65 9551.91,-101.36 9581.91,-96.6 9611,-91.29"/>
<polygon fill="black" stroke="black" points="9611.41,-94.77 9620.61,-89.5 9610.13,-87.89 9611.41,-94.77"/>
</g>
<!-- KinetixKlass -->
<g id="node21" class="node">
<title>KinetixKlass</title>
<ellipse fill="none" stroke="black" cx="10298.45" cy="-52.33" rx="222.39" ry="52.33"/>
<text xml:space="preserve" text-anchor="middle" x="10298.45" y="-72.03" font-family="Times,serif" font-size="14.00">KinetixKlass</text>
<text xml:space="preserve" text-anchor="middle" x="10298.45" y="-55.53" font-family="Times,serif" font-size="14.00">File: ./fxi&#45;profile&#45;collection/startup/10&#45;area&#45;detector.py</text>
<text xml:space="preserve" text-anchor="middle" x="10298.45" y="-39.03" font-family="Times,serif" font-size="14.00">Methods: 8</text>
<text xml:space="preserve" text-anchor="middle" x="10298.45" y="-22.53" font-family="Times,serif" font-size="14.00">Attributes: 13</text>
</g>
<!-- SingleTriggerV33&#45;&gt;KinetixKlass -->
<g id="edge20" class="edge">
<title>SingleTriggerV33&#45;&gt;KinetixKlass</title>
<path fill="none" stroke="black" d="M5824.96,-231.75C6269.87,-228.43 9168.99,-203.2 10039.45,-104.65 10068.22,-101.39 10098.57,-96.62 10127.96,-91.27"/>
<polygon fill="black" stroke="black" points="10128.49,-94.73 10137.69,-89.47 10127.22,-87.85 10128.49,-94.73"/>
</g>
<!-- TimePixDetector -->
<g id="node22" class="node">
<title>TimePixDetector</title>
<ellipse fill="none" stroke="black" cx="10831.45" cy="-52.33" rx="238.83" ry="52.33"/>
<text xml:space="preserve" text-anchor="middle" x="10831.45" y="-72.03" font-family="Times,serif" font-size="14.00">TimePixDetector</text>
<text xml:space="preserve" text-anchor="middle" x="10831.45" y="-55.53" font-family="Times,serif" font-size="14.00">File: ./chx&#45;profile&#45;collection/optional_startup/9999&#45;tpx3.py</text>
<text xml:space="preserve" text-anchor="middle" x="10831.45" y="-39.03" font-family="Times,serif" font-size="14.00">Methods: 3</text>
<text xml:space="preserve" text-anchor="middle" x="10831.45" y="-22.53" font-family="Times,serif" font-size="14.00">Attributes: 18</text>
</g>
<!-- SingleTriggerV33&#45;&gt;TimePixDetector -->
<g id="edge21" class="edge">
<title>SingleTriggerV33&#45;&gt;TimePixDetector</title>
<path fill="none" stroke="black" d="M5824.96,-231.87C6299.55,-229.39 9575.31,-208.61 10556.45,-104.65 10586.9,-101.42 10619.04,-96.67 10650.19,-91.34"/>
<polygon fill="black" stroke="black" points="10650.42,-94.86 10659.67,-89.69 10649.22,-87.96 10650.42,-94.86"/>
</g>
<!-- PerkinElmerStandardV33 -->
<g id="node23" class="node">
<title>PerkinElmerStandardV33</title>
<ellipse fill="none" stroke="black" cx="11365.45" cy="-52.33" rx="222.92" ry="52.33"/>
<text xml:space="preserve" text-anchor="middle" x="11365.45" y="-72.03" font-family="Times,serif" font-size="14.00">PerkinElmerStandardV33</text>
<text xml:space="preserve" text-anchor="middle" x="11365.45" y="-55.53" font-family="Times,serif" font-size="14.00">File: ./xpd&#45;profile&#45;collection/startup/80&#45;areadetector.py</text>
<text xml:space="preserve" text-anchor="middle" x="11365.45" y="-39.03" font-family="Times,serif" font-size="14.00">Methods: 0</text>
<text xml:space="preserve" text-anchor="middle" x="11365.45" y="-22.53" font-family="Times,serif" font-size="14.00">Attributes: 0</text>
</g>
<!-- SingleTriggerV33&#45;&gt;PerkinElmerStandardV33 -->
<g id="edge22" class="edge">
<title>SingleTriggerV33&#45;&gt;PerkinElmerStandardV33</title>
<path fill="none" stroke="black" d="M5825.05,-232.14C6329.91,-231.86 10008.6,-225.63 11106.45,-104.65 11135.23,-101.48 11165.59,-96.75 11194.98,-91.42"/>
<polygon fill="black" stroke="black" points="11195.5,-94.88 11204.7,-89.62 11194.23,-88 11195.5,-94.88"/>
</g>
</g>
</svg>
