<?xml version="1.0" encoding="UTF-8" standalone="no"?>
<!DOCTYPE svg PUBLIC "-//W3C//DTD SVG 1.1//EN"
 "http://www.w3.org/Graphics/SVG/1.1/DTD/svg11.dtd">
<!-- Generated by graphviz version 14.0.0 (20250921.2048)
 -->
<!-- Pages: 1 -->
<svg width="1032pt" height="262pt"
 viewBox="0.00 0.00 1032.00 262.00" xmlns="http://www.w3.org/2000/svg" xmlns:xlink="http://www.w3.org/1999/xlink">
<g id="graph0" class="graph" transform="scale(1 1) rotate(0) translate(4 257.65)">
<polygon fill="white" stroke="none" points="-4,4 -4,-257.65 1027.53,-257.65 1027.53,4 -4,4"/>
<!-- SlowStopPVPositioner -->
<g id="node1" class="node">
<title>SlowStopPVPositioner</title>
<polygon fill="lightblue" stroke="lightblue" points="582.01,-253.65 441.51,-253.65 441.51,-212.65 582.01,-212.65 582.01,-253.65"/>
<text xml:space="preserve" text-anchor="middle" x="511.76" y="-236.35" font-family="Times,serif" font-size="14.00">SlowStopPVPositioner</text>
<text xml:space="preserve" text-anchor="middle" x="511.76" y="-219.85" font-family="Times,serif" font-size="14.00">(Parent Class)</text>
</g>
<!-- UgapPositioner -->
<g id="node2" class="node">
<title>UgapPositioner</title>
<ellipse fill="none" stroke="black" cx="237.76" cy="-52.33" rx="237.76" ry="52.33"/>
<text xml:space="preserve" text-anchor="middle" x="237.76" y="-72.03" font-family="Times,serif" font-size="14.00">UgapPositioner</text>
<text xml:space="preserve" text-anchor="middle" x="237.76" y="-55.53" font-family="Times,serif" font-size="14.00">File: ./esm&#45;arpes&#45;profile&#45;collection/startup/11&#45;undulator.py</text>
<text xml:space="preserve" text-anchor="middle" x="237.76" y="-39.03" font-family="Times,serif" font-size="14.00">Methods: 8</text>
<text xml:space="preserve" text-anchor="middle" x="237.76" y="-22.53" font-family="Times,serif" font-size="14.00">Attributes: 11</text>
</g>
<!-- SlowStopPVPositioner&#45;&gt;UgapPositioner -->
<g id="edge1" class="edge">
<title>SlowStopPVPositioner&#45;&gt;UgapPositioner</title>
<path fill="none" stroke="black" d="M481.13,-212.16C442.99,-187.27 376.3,-143.74 322.36,-108.54"/>
<polygon fill="black" stroke="black" points="324.35,-105.66 314.06,-103.12 320.52,-111.52 324.35,-105.66"/>
</g>
<!-- UphasePositioner -->
<g id="node3" class="node">
<title>UphasePositioner</title>
<ellipse fill="none" stroke="black" cx="785.76" cy="-52.33" rx="237.76" ry="52.33"/>
<text xml:space="preserve" text-anchor="middle" x="785.76" y="-72.03" font-family="Times,serif" font-size="14.00">UphasePositioner</text>
<text xml:space="preserve" text-anchor="middle" x="785.76" y="-55.53" font-family="Times,serif" font-size="14.00">File: ./esm&#45;arpes&#45;profile&#45;collection/startup/11&#45;undulator.py</text>
<text xml:space="preserve" text-anchor="middle" x="785.76" y="-39.03" font-family="Times,serif" font-size="14.00">Methods: 0</text>
<text xml:space="preserve" text-anchor="middle" x="785.76" y="-22.53" font-family="Times,serif" font-size="14.00">Attributes: 11</text>
</g>
<!-- SlowStopPVPositioner&#45;&gt;UphasePositioner -->
<g id="edge2" class="edge">
<title>SlowStopPVPositioner&#45;&gt;UphasePositioner</title>
<path fill="none" stroke="black" d="M542.4,-212.16C580.54,-187.27 647.23,-143.74 701.17,-108.54"/>
<polygon fill="black" stroke="black" points="703.01,-111.52 709.47,-103.12 699.18,-105.66 703.01,-111.52"/>
</g>
</g>
</svg>
