<?xml version="1.0" encoding="UTF-8" standalone="no"?>
<!DOCTYPE svg PUBLIC "-//W3C//DTD SVG 1.1//EN"
 "http://www.w3.org/Graphics/SVG/1.1/DTD/svg11.dtd">
<!-- Generated by graphviz version 14.0.0 (20250921.2048)
 -->
<!-- Pages: 1 -->
<svg width="824pt" height="262pt"
 viewBox="0.00 0.00 824.00 262.00" xmlns="http://www.w3.org/2000/svg" xmlns:xlink="http://www.w3.org/1999/xlink">
<g id="graph0" class="graph" transform="scale(1 1) rotate(0) translate(4 257.65)">
<polygon fill="white" stroke="none" points="-4,4 -4,-257.65 819.58,-257.65 819.58,4 -4,4"/>
<!-- SmarpodBase -->
<g id="node1" class="node">
<title>SmarpodBase</title>
<polygon fill="lightblue" stroke="lightblue" points="454.04,-253.65 361.54,-253.65 361.54,-212.65 454.04,-212.65 454.04,-253.65"/>
<text xml:space="preserve" text-anchor="middle" x="407.79" y="-236.35" font-family="Times,serif" font-size="14.00">SmarpodBase</text>
<text xml:space="preserve" text-anchor="middle" x="407.79" y="-219.85" font-family="Times,serif" font-size="14.00">(Parent Class)</text>
</g>
<!-- SmarpodTranslationAxis -->
<g id="node2" class="node">
<title>SmarpodTranslationAxis</title>
<ellipse fill="none" stroke="black" cx="185.79" cy="-52.33" rx="185.79" ry="52.33"/>
<text xml:space="preserve" text-anchor="middle" x="185.79" y="-72.03" font-family="Times,serif" font-size="14.00">SmarpodTranslationAxis</text>
<text xml:space="preserve" text-anchor="middle" x="185.79" y="-55.53" font-family="Times,serif" font-size="14.00">File: ./hxn&#45;profile&#45;collection/startup/15&#45;zp.py</text>
<text xml:space="preserve" text-anchor="middle" x="185.79" y="-39.03" font-family="Times,serif" font-size="14.00">Methods: 0</text>
<text xml:space="preserve" text-anchor="middle" x="185.79" y="-22.53" font-family="Times,serif" font-size="14.00">Attributes: 2</text>
</g>
<!-- SmarpodBase&#45;&gt;SmarpodTranslationAxis -->
<g id="edge1" class="edge">
<title>SmarpodBase&#45;&gt;SmarpodTranslationAxis</title>
<path fill="none" stroke="black" d="M383.19,-212.33C352.56,-187.66 298.96,-144.49 255.34,-109.35"/>
<polygon fill="black" stroke="black" points="257.64,-106.71 247.66,-103.16 253.25,-112.16 257.64,-106.71"/>
</g>
<!-- SmarpodRotationAxis -->
<g id="node3" class="node">
<title>SmarpodRotationAxis</title>
<ellipse fill="none" stroke="black" cx="629.79" cy="-52.33" rx="185.79" ry="52.33"/>
<text xml:space="preserve" text-anchor="middle" x="629.79" y="-72.03" font-family="Times,serif" font-size="14.00">SmarpodRotationAxis</text>
<text xml:space="preserve" text-anchor="middle" x="629.79" y="-55.53" font-family="Times,serif" font-size="14.00">File: ./hxn&#45;profile&#45;collection/startup/15&#45;zp.py</text>
<text xml:space="preserve" text-anchor="middle" x="629.79" y="-39.03" font-family="Times,serif" font-size="14.00">Methods: 0</text>
<text xml:space="preserve" text-anchor="middle" x="629.79" y="-22.53" font-family="Times,serif" font-size="14.00">Attributes: 2</text>
</g>
<!-- SmarpodBase&#45;&gt;SmarpodRotationAxis -->
<g id="edge2" class="edge">
<title>SmarpodBase&#45;&gt;SmarpodRotationAxis</title>
<path fill="none" stroke="black" d="M432.4,-212.33C463.03,-187.66 516.62,-144.49 560.24,-109.35"/>
<polygon fill="black" stroke="black" points="562.34,-112.16 567.93,-103.16 557.94,-106.71 562.34,-112.16"/>
</g>
</g>
</svg>
