<?xml version="1.0" encoding="UTF-8" standalone="no"?>
<!DOCTYPE svg PUBLIC "-//W3C//DTD SVG 1.1//EN"
 "http://www.w3.org/Graphics/SVG/1.1/DTD/svg11.dtd">
<!-- Generated by graphviz version 14.0.0 (20250921.2048)
 -->
<!-- Pages: 1 -->
<svg width="1569pt" height="262pt"
 viewBox="0.00 0.00 1569.00 262.00" xmlns="http://www.w3.org/2000/svg" xmlns:xlink="http://www.w3.org/1999/xlink">
<g id="graph0" class="graph" transform="scale(1 1) rotate(0) translate(4 257.65)">
<polygon fill="white" stroke="none" points="-4,4 -4,-257.65 1565.45,-257.65 1565.45,4 -4,4"/>
<!-- Stage -->
<g id="node1" class="node">
<title>Stage</title>
<polygon fill="lightblue" stroke="lightblue" points="805.1,-253.65 712.6,-253.65 712.6,-212.65 805.1,-212.65 805.1,-253.65"/>
<text xml:space="preserve" text-anchor="middle" x="758.85" y="-236.35" font-family="Times,serif" font-size="14.00">Stage</text>
<text xml:space="preserve" text-anchor="middle" x="758.85" y="-219.85" font-family="Times,serif" font-size="14.00">(Parent Class)</text>
</g>
<!-- SampleExchangeRobot -->
<g id="node2" class="node">
<title>SampleExchangeRobot</title>
<ellipse fill="none" stroke="black" cx="221.85" cy="-52.33" rx="221.85" ry="52.33"/>
<text xml:space="preserve" text-anchor="middle" x="221.85" y="-72.03" font-family="Times,serif" font-size="14.00">SampleExchangeRobot</text>
<text xml:space="preserve" text-anchor="middle" x="221.85" y="-55.53" font-family="Times,serif" font-size="14.00">File: ./cms&#45;profile&#45;collection/startup/96&#45;automation.py</text>
<text xml:space="preserve" text-anchor="middle" x="221.85" y="-39.03" font-family="Times,serif" font-size="14.00">Methods: 39</text>
<text xml:space="preserve" text-anchor="middle" x="221.85" y="-22.53" font-family="Times,serif" font-size="14.00">Attributes: 27</text>
</g>
<!-- Stage&#45;&gt;SampleExchangeRobot -->
<g id="edge1" class="edge">
<title>Stage&#45;&gt;SampleExchangeRobot</title>
<path fill="none" stroke="black" d="M712.14,-216.6C634.38,-190.7 475.5,-137.79 359.61,-99.2"/>
<polygon fill="black" stroke="black" points="360.92,-95.95 350.32,-96.11 358.7,-102.59 360.92,-95.95"/>
</g>
<!-- SampleStage -->
<g id="node3" class="node">
<title>SampleStage</title>
<ellipse fill="none" stroke="black" cx="758.85" cy="-52.33" rx="243.6" ry="52.33"/>
<text xml:space="preserve" text-anchor="middle" x="758.85" y="-72.03" font-family="Times,serif" font-size="14.00">SampleStage</text>
<text xml:space="preserve" text-anchor="middle" x="758.85" y="-55.53" font-family="Times,serif" font-size="14.00">File: ./opls&#45;profile&#45;collection/startup/old/990&#45;sample_test.py</text>
<text xml:space="preserve" text-anchor="middle" x="758.85" y="-39.03" font-family="Times,serif" font-size="14.00">Methods: 2</text>
<text xml:space="preserve" text-anchor="middle" x="758.85" y="-22.53" font-family="Times,serif" font-size="14.00">Attributes: 1</text>
</g>
<!-- Stage&#45;&gt;SampleStage -->
<g id="edge2" class="edge">
<title>Stage&#45;&gt;SampleStage</title>
<path fill="none" stroke="black" d="M758.85,-212.33C758.85,-189.21 758.85,-149.84 758.85,-116.06"/>
<polygon fill="black" stroke="black" points="762.35,-116.37 758.85,-106.37 755.35,-116.37 762.35,-116.37"/>
</g>
<!-- Holder -->
<g id="node4" class="node">
<title>Holder</title>
<ellipse fill="none" stroke="black" cx="1317.85" cy="-52.33" rx="243.6" ry="52.33"/>
<text xml:space="preserve" text-anchor="middle" x="1317.85" y="-72.03" font-family="Times,serif" font-size="14.00">Holder</text>
<text xml:space="preserve" text-anchor="middle" x="1317.85" y="-55.53" font-family="Times,serif" font-size="14.00">File: ./opls&#45;profile&#45;collection/startup/old/990&#45;sample_test.py</text>
<text xml:space="preserve" text-anchor="middle" x="1317.85" y="-39.03" font-family="Times,serif" font-size="14.00">Methods: 18</text>
<text xml:space="preserve" text-anchor="middle" x="1317.85" y="-22.53" font-family="Times,serif" font-size="14.00">Attributes: 16</text>
</g>
<!-- Stage&#45;&gt;Holder -->
<g id="edge3" class="edge">
<title>Stage&#45;&gt;Holder</title>
<path fill="none" stroke="black" d="M805.55,-217.21C885.34,-191.69 1051.05,-138.68 1172.48,-99.83"/>
<polygon fill="black" stroke="black" points="1173.46,-103.19 1181.91,-96.81 1171.32,-96.53 1173.46,-103.19"/>
</g>
</g>
</svg>
