<?xml version="1.0" encoding="UTF-8" standalone="no"?>
<!DOCTYPE svg PUBLIC "-//W3C//DTD SVG 1.1//EN"
 "http://www.w3.org/Graphics/SVG/1.1/DTD/svg11.dtd">
<!-- Generated by graphviz version 14.0.0 (20250921.2048)
 -->
<!-- Pages: 1 -->
<svg width="4834pt" height="262pt"
 viewBox="0.00 0.00 4834.00 262.00" xmlns="http://www.w3.org/2000/svg" xmlns:xlink="http://www.w3.org/1999/xlink">
<g id="graph0" class="graph" transform="scale(1 1) rotate(0) translate(4 257.65)">
<polygon fill="white" stroke="none" points="-4,4 -4,-257.65 4829.89,-257.65 4829.89,4 -4,4"/>
<!-- StandardProsilica -->
<g id="node1" class="node">
<title>StandardProsilica</title>
<polygon fill="lightblue" stroke="lightblue" points="2406.78,-253.65 2295.53,-253.65 2295.53,-212.65 2406.78,-212.65 2406.78,-253.65"/>
<text xml:space="preserve" text-anchor="middle" x="2351.16" y="-236.35" font-family="Times,serif" font-size="14.00">StandardProsilica</text>
<text xml:space="preserve" text-anchor="middle" x="2351.16" y="-219.85" font-family="Times,serif" font-size="14.00">(Parent Class)</text>
</g>
<!-- StandardProsilicaWithTIFF -->
<g id="node2" class="node">
<title>StandardProsilicaWithTIFF</title>
<ellipse fill="none" stroke="black" cx="227.16" cy="-52.33" rx="227.16" ry="52.33"/>
<text xml:space="preserve" text-anchor="middle" x="227.16" y="-72.03" font-family="Times,serif" font-size="14.00">StandardProsilicaWithTIFF</text>
<text xml:space="preserve" text-anchor="middle" x="227.16" y="-55.53" font-family="Times,serif" font-size="14.00">File: ./fmx&#45;profile&#45;collection/startup/20&#45;detectors_99.py</text>
<text xml:space="preserve" text-anchor="middle" x="227.16" y="-39.03" font-family="Times,serif" font-size="14.00">Methods: 0</text>
<text xml:space="preserve" text-anchor="middle" x="227.16" y="-22.53" font-family="Times,serif" font-size="14.00">Attributes: 1</text>
</g>
<!-- StandardProsilica&#45;&gt;StandardProsilicaWithTIFF -->
<g id="edge1" class="edge">
<title>StandardProsilica&#45;&gt;StandardProsilicaWithTIFF</title>
<path fill="none" stroke="black" d="M2295.37,-230.84C2069.3,-225.01 1199.62,-197.44 491.16,-104.65 462.63,-100.92 432.53,-96 403.28,-90.7"/>
<polygon fill="black" stroke="black" points="404.08,-87.29 393.61,-88.92 402.81,-94.17 404.08,-87.29"/>
</g>
<!-- StandardProsilicaWithHDF5 -->
<g id="node3" class="node">
<title>StandardProsilicaWithHDF5</title>
<ellipse fill="none" stroke="black" cx="750.16" cy="-52.33" rx="223.45" ry="52.33"/>
<text xml:space="preserve" text-anchor="middle" x="750.16" y="-72.03" font-family="Times,serif" font-size="14.00">StandardProsilicaWithHDF5</text>
<text xml:space="preserve" text-anchor="middle" x="750.16" y="-55.53" font-family="Times,serif" font-size="14.00">File: ./tes&#45;profile&#45;collection/startup/26&#45;areadetectors.py</text>
<text xml:space="preserve" text-anchor="middle" x="750.16" y="-39.03" font-family="Times,serif" font-size="14.00">Methods: 0</text>
<text xml:space="preserve" text-anchor="middle" x="750.16" y="-22.53" font-family="Times,serif" font-size="14.00">Attributes: 1</text>
</g>
<!-- StandardProsilica&#45;&gt;StandardProsilicaWithHDF5 -->
<g id="edge2" class="edge">
<title>StandardProsilica&#45;&gt;StandardProsilicaWithHDF5</title>
<path fill="none" stroke="black" d="M2295.35,-228.86C2111.15,-217.55 1505.96,-176.97 1010.16,-104.65 982.63,-100.64 953.59,-95.65 925.3,-90.38"/>
<polygon fill="black" stroke="black" points="926.05,-86.96 915.57,-88.55 924.75,-93.84 926.05,-86.96"/>
</g>
<!-- WebcamWithHDF5 -->
<g id="node4" class="node">
<title>WebcamWithHDF5</title>
<ellipse fill="none" stroke="black" cx="1269.16" cy="-52.33" rx="223.45" ry="52.33"/>
<text xml:space="preserve" text-anchor="middle" x="1269.16" y="-72.03" font-family="Times,serif" font-size="14.00">WebcamWithHDF5</text>
<text xml:space="preserve" text-anchor="middle" x="1269.16" y="-55.53" font-family="Times,serif" font-size="14.00">File: ./tes&#45;profile&#45;collection/startup/26&#45;areadetectors.py</text>
<text xml:space="preserve" text-anchor="middle" x="1269.16" y="-39.03" font-family="Times,serif" font-size="14.00">Methods: 0</text>
<text xml:space="preserve" text-anchor="middle" x="1269.16" y="-22.53" font-family="Times,serif" font-size="14.00">Attributes: 1</text>
</g>
<!-- StandardProsilica&#45;&gt;WebcamWithHDF5 -->
<g id="edge3" class="edge">
<title>StandardProsilica&#45;&gt;WebcamWithHDF5</title>
<path fill="none" stroke="black" d="M2295.21,-224.28C2162.15,-205.39 1816.45,-155.27 1529.16,-104.65 1502.77,-100 1474.94,-94.81 1447.68,-89.57"/>
<polygon fill="black" stroke="black" points="1448.42,-86.15 1437.94,-87.69 1447.1,-93.02 1448.42,-86.15"/>
</g>
<!-- TopAlignCam -->
<g id="node5" class="node">
<title>TopAlignCam</title>
<ellipse fill="none" stroke="black" cx="1800.16" cy="-52.33" rx="235.11" ry="52.33"/>
<text xml:space="preserve" text-anchor="middle" x="1800.16" y="-72.03" font-family="Times,serif" font-size="14.00">TopAlignCam</text>
<text xml:space="preserve" text-anchor="middle" x="1800.16" y="-55.53" font-family="Times,serif" font-size="14.00">File: ./amx&#45;profile&#45;collection/startup/96&#45;top_alignment.py</text>
<text xml:space="preserve" text-anchor="middle" x="1800.16" y="-39.03" font-family="Times,serif" font-size="14.00">Methods: 4</text>
<text xml:space="preserve" text-anchor="middle" x="1800.16" y="-22.53" font-family="Times,serif" font-size="14.00">Attributes: 10</text>
</g>
<!-- StandardProsilica&#45;&gt;TopAlignCam -->
<g id="edge4" class="edge">
<title>StandardProsilica&#45;&gt;TopAlignCam</title>
<path fill="none" stroke="black" d="M2295.04,-213.94C2212.95,-187.3 2057.45,-136.83 1942.57,-99.55"/>
<polygon fill="black" stroke="black" points="1943.97,-96.32 1933.37,-96.56 1941.81,-102.98 1943.97,-96.32"/>
</g>
<!-- Screen4Cam -->
<g id="node6" class="node">
<title>Screen4Cam</title>
<ellipse fill="none" stroke="black" cx="2351.16" cy="-52.33" rx="244.13" ry="52.33"/>
<text xml:space="preserve" text-anchor="middle" x="2351.16" y="-72.03" font-family="Times,serif" font-size="14.00">Screen4Cam</text>
<text xml:space="preserve" text-anchor="middle" x="2351.16" y="-55.53" font-family="Times,serif" font-size="14.00">File: ./amx&#45;profile&#45;collection/startup/96&#45;beam_alignment.py</text>
<text xml:space="preserve" text-anchor="middle" x="2351.16" y="-39.03" font-family="Times,serif" font-size="14.00">Methods: 2</text>
<text xml:space="preserve" text-anchor="middle" x="2351.16" y="-22.53" font-family="Times,serif" font-size="14.00">Attributes: 3</text>
</g>
<!-- StandardProsilica&#45;&gt;Screen4Cam -->
<g id="edge5" class="edge">
<title>StandardProsilica&#45;&gt;Screen4Cam</title>
<path fill="none" stroke="black" d="M2351.16,-212.33C2351.16,-189.21 2351.16,-149.84 2351.16,-116.06"/>
<polygon fill="black" stroke="black" points="2354.66,-116.37 2351.16,-106.37 2347.66,-116.37 2354.66,-116.37"/>
</g>
<!-- TwoClickLowMag -->
<g id="node7" class="node">
<title>TwoClickLowMag</title>
<ellipse fill="none" stroke="black" cx="2912.16" cy="-52.33" rx="244.66" ry="52.33"/>
<text xml:space="preserve" text-anchor="middle" x="2912.16" y="-72.03" font-family="Times,serif" font-size="14.00">TwoClickLowMag</text>
<text xml:space="preserve" text-anchor="middle" x="2912.16" y="-55.53" font-family="Times,serif" font-size="14.00">File: ./amx&#45;profile&#45;collection/startup/96&#45;two_click_center.py</text>
<text xml:space="preserve" text-anchor="middle" x="2912.16" y="-39.03" font-family="Times,serif" font-size="14.00">Methods: 3</text>
<text xml:space="preserve" text-anchor="middle" x="2912.16" y="-22.53" font-family="Times,serif" font-size="14.00">Attributes: 7</text>
</g>
<!-- StandardProsilica&#45;&gt;TwoClickLowMag -->
<g id="edge6" class="edge">
<title>StandardProsilica&#45;&gt;TwoClickLowMag</title>
<path fill="none" stroke="black" d="M2407.26,-214.27C2490.34,-187.78 2648.91,-137.24 2766.27,-99.83"/>
<polygon fill="black" stroke="black" points="2767.23,-103.2 2775.7,-96.83 2765.1,-96.53 2767.23,-103.2"/>
</g>
<!-- RotAlignLowMag -->
<g id="node8" class="node">
<title>RotAlignLowMag</title>
<ellipse fill="none" stroke="black" cx="3482.16" cy="-52.33" rx="253.67" ry="52.33"/>
<text xml:space="preserve" text-anchor="middle" x="3482.16" y="-72.03" font-family="Times,serif" font-size="14.00">RotAlignLowMag</text>
<text xml:space="preserve" text-anchor="middle" x="3482.16" y="-55.53" font-family="Times,serif" font-size="14.00">File: ./amx&#45;profile&#45;collection/startup/96&#45;rot_axis_alignment.py</text>
<text xml:space="preserve" text-anchor="middle" x="3482.16" y="-39.03" font-family="Times,serif" font-size="14.00">Methods: 4</text>
<text xml:space="preserve" text-anchor="middle" x="3482.16" y="-22.53" font-family="Times,serif" font-size="14.00">Attributes: 5</text>
</g>
<!-- StandardProsilica&#45;&gt;RotAlignLowMag -->
<g id="edge7" class="edge">
<title>StandardProsilica&#45;&gt;RotAlignLowMag</title>
<path fill="none" stroke="black" d="M2407.15,-224.18C2542.4,-204.8 2897.56,-153.27 3193.16,-104.65 3222.04,-99.9 3252.52,-94.7 3282.41,-89.48"/>
<polygon fill="black" stroke="black" points="3282.66,-92.99 3291.91,-87.82 3281.45,-86.1 3282.66,-92.99"/>
</g>
<!-- RotAlignHighMag -->
<g id="node9" class="node">
<title>RotAlignHighMag</title>
<ellipse fill="none" stroke="black" cx="4061.16" cy="-52.33" rx="253.67" ry="52.33"/>
<text xml:space="preserve" text-anchor="middle" x="4061.16" y="-72.03" font-family="Times,serif" font-size="14.00">RotAlignHighMag</text>
<text xml:space="preserve" text-anchor="middle" x="4061.16" y="-55.53" font-family="Times,serif" font-size="14.00">File: ./amx&#45;profile&#45;collection/startup/96&#45;rot_axis_alignment.py</text>
<text xml:space="preserve" text-anchor="middle" x="4061.16" y="-39.03" font-family="Times,serif" font-size="14.00">Methods: 7</text>
<text xml:space="preserve" text-anchor="middle" x="4061.16" y="-22.53" font-family="Times,serif" font-size="14.00">Attributes: 9</text>
</g>
<!-- StandardProsilica&#45;&gt;RotAlignHighMag -->
<g id="edge8" class="edge">
<title>StandardProsilica&#45;&gt;RotAlignHighMag</title>
<path fill="none" stroke="black" d="M2407.21,-228.87C2598.55,-217.29 3243.38,-175.2 3772.16,-104.65 3802.43,-100.61 3834.37,-95.65 3865.53,-90.42"/>
<polygon fill="black" stroke="black" points="3865.75,-93.94 3875.03,-88.82 3864.59,-87.03 3865.75,-93.94"/>
</g>
<!-- StandardProsilicaROI -->
<g id="node10" class="node">
<title>StandardProsilicaROI</title>
<ellipse fill="none" stroke="black" cx="4606.16" cy="-52.33" rx="219.73" ry="52.33"/>
<text xml:space="preserve" text-anchor="middle" x="4606.16" y="-72.03" font-family="Times,serif" font-size="14.00">StandardProsilicaROI</text>
<text xml:space="preserve" text-anchor="middle" x="4606.16" y="-55.53" font-family="Times,serif" font-size="14.00">File: ./six&#45;profile&#45;collection/startup/21&#45;areadetector.py</text>
<text xml:space="preserve" text-anchor="middle" x="4606.16" y="-39.03" font-family="Times,serif" font-size="14.00">Methods: 4</text>
<text xml:space="preserve" text-anchor="middle" x="4606.16" y="-22.53" font-family="Times,serif" font-size="14.00">Attributes: 1</text>
</g>
<!-- StandardProsilica&#45;&gt;StandardProsilicaROI -->
<g id="edge9" class="edge">
<title>StandardProsilica&#45;&gt;StandardProsilicaROI</title>
<path fill="none" stroke="black" d="M2407.1,-231.35C2643.72,-227.36 3585.39,-205.66 4351.16,-104.65 4378.73,-101.02 4407.79,-96.16 4436.02,-90.88"/>
<polygon fill="black" stroke="black" points="4436.56,-94.34 4445.73,-89.04 4435.26,-87.46 4436.56,-94.34"/>
</g>
</g>
</svg>
