<?xml version="1.0" encoding="UTF-8" standalone="no"?>
<!DOCTYPE svg PUBLIC "-//W3C//DTD SVG 1.1//EN"
 "http://www.w3.org/Graphics/SVG/1.1/DTD/svg11.dtd">
<!-- Generated by graphviz version 14.0.0 (20250921.2048)
 -->
<!-- Pages: 1 -->
<svg width="998pt" height="262pt"
 viewBox="0.00 0.00 998.00 262.00" xmlns="http://www.w3.org/2000/svg" xmlns:xlink="http://www.w3.org/1999/xlink">
<g id="graph0" class="graph" transform="scale(1 1) rotate(0) translate(4 257.65)">
<polygon fill="white" stroke="none" points="-4,4 -4,-257.65 993.56,-257.65 993.56,4 -4,4"/>
<!-- str -->
<g id="node1" class="node">
<title>str</title>
<polygon fill="lightblue" stroke="lightblue" points="534.7,-253.65 442.2,-253.65 442.2,-212.65 534.7,-212.65 534.7,-253.65"/>
<text xml:space="preserve" text-anchor="middle" x="488.45" y="-236.35" font-family="Times,serif" font-size="14.00">str</text>
<text xml:space="preserve" text-anchor="middle" x="488.45" y="-219.85" font-family="Times,serif" font-size="14.00">(Parent Class)</text>
</g>
<!-- HPLCStatus -->
<g id="node2" class="node">
<title>HPLCStatus</title>
<ellipse fill="none" stroke="black" cx="223.45" cy="-52.33" rx="223.45" ry="52.33"/>
<text xml:space="preserve" text-anchor="middle" x="223.45" y="-72.03" font-family="Times,serif" font-size="14.00">HPLCStatus</text>
<text xml:space="preserve" text-anchor="middle" x="223.45" y="-55.53" font-family="Times,serif" font-size="14.00">File: ./lix&#45;profile&#45;collection/startup/obsolete/25&#45;hplc.py</text>
<text xml:space="preserve" text-anchor="middle" x="223.45" y="-39.03" font-family="Times,serif" font-size="14.00">Methods: 0</text>
<text xml:space="preserve" text-anchor="middle" x="223.45" y="-22.53" font-family="Times,serif" font-size="14.00">Attributes: 3</text>
</g>
<!-- str&#45;&gt;HPLCStatus -->
<g id="edge1" class="edge">
<title>str&#45;&gt;HPLCStatus</title>
<path fill="none" stroke="black" d="M458.82,-212.16C421.93,-187.27 357.43,-143.74 305.27,-108.54"/>
<polygon fill="black" stroke="black" points="307.51,-105.83 297.27,-103.14 303.6,-111.64 307.51,-105.83"/>
</g>
<!-- RunEngineState -->
<g id="node3" class="node">
<title>RunEngineState</title>
<ellipse fill="none" stroke="black" cx="754.45" cy="-52.33" rx="235.11" ry="52.33"/>
<text xml:space="preserve" text-anchor="middle" x="754.45" y="-72.03" font-family="Times,serif" font-size="14.00">RunEngineState</text>
<text xml:space="preserve" text-anchor="middle" x="754.45" y="-55.53" font-family="Times,serif" font-size="14.00">File: ./xfm&#45;maia&#45;profile&#45;collection/startup/90&#45;maia&#45;gui.py</text>
<text xml:space="preserve" text-anchor="middle" x="754.45" y="-39.03" font-family="Times,serif" font-size="14.00">Methods: 0</text>
<text xml:space="preserve" text-anchor="middle" x="754.45" y="-22.53" font-family="Times,serif" font-size="14.00">Attributes: 3</text>
</g>
<!-- str&#45;&gt;RunEngineState -->
<g id="edge2" class="edge">
<title>str&#45;&gt;RunEngineState</title>
<path fill="none" stroke="black" d="M518.19,-212.16C555.15,-187.31 619.73,-143.89 672.05,-108.72"/>
<polygon fill="black" stroke="black" points="673.73,-111.81 680.07,-103.33 669.82,-106 673.73,-111.81"/>
</g>
</g>
</svg>
