<?xml version="1.0" encoding="UTF-8" standalone="no"?>
<!DOCTYPE svg PUBLIC "-//W3C//DTD SVG 1.1//EN"
 "http://www.w3.org/Graphics/SVG/1.1/DTD/svg11.dtd">
<!-- Generated by graphviz version 14.0.0 (20250921.2048)
 -->
<!-- Pages: 1 -->
<svg width="1064pt" height="262pt"
 viewBox="0.00 0.00 1064.00 262.00" xmlns="http://www.w3.org/2000/svg" xmlns:xlink="http://www.w3.org/1999/xlink">
<g id="graph0" class="graph" transform="scale(1 1) rotate(0) translate(4 257.65)">
<polygon fill="white" stroke="none" points="-4,4 -4,-257.65 1060.5,-257.65 1060.5,4 -4,4"/>
<!-- StuckingEpicsMotor -->
<g id="node1" class="node">
<title>StuckingEpicsMotor</title>
<polygon fill="lightblue" stroke="lightblue" points="592.5,-253.65 464,-253.65 464,-212.65 592.5,-212.65 592.5,-253.65"/>
<text xml:space="preserve" text-anchor="middle" x="528.25" y="-236.35" font-family="Times,serif" font-size="14.00">StuckingEpicsMotor</text>
<text xml:space="preserve" text-anchor="middle" x="528.25" y="-219.85" font-family="Times,serif" font-size="14.00">(Parent Class)</text>
</g>
<!-- StuckingEpicsMotorThatFlies -->
<g id="node2" class="node">
<title>StuckingEpicsMotorThatFlies</title>
<ellipse fill="none" stroke="black" cx="246.25" cy="-52.33" rx="246.25" ry="52.33"/>
<text xml:space="preserve" text-anchor="middle" x="246.25" y="-72.03" font-family="Times,serif" font-size="14.00">StuckingEpicsMotorThatFlies</text>
<text xml:space="preserve" text-anchor="middle" x="246.25" y="-55.53" font-family="Times,serif" font-size="14.00">File: ./iss&#45;profile&#45;collection/startup/05&#45;aux_ophyd_classes.py</text>
<text xml:space="preserve" text-anchor="middle" x="246.25" y="-39.03" font-family="Times,serif" font-size="14.00">Methods: 3</text>
<text xml:space="preserve" text-anchor="middle" x="246.25" y="-22.53" font-family="Times,serif" font-size="14.00">Attributes: 5</text>
</g>
<!-- StuckingEpicsMotor&#45;&gt;StuckingEpicsMotorThatFlies -->
<g id="edge1" class="edge">
<title>StuckingEpicsMotor&#45;&gt;StuckingEpicsMotorThatFlies</title>
<path fill="none" stroke="black" d="M496.72,-212.16C457.39,-187.22 388.54,-143.56 332.97,-108.32"/>
<polygon fill="black" stroke="black" points="335.07,-105.5 324.75,-103.1 331.32,-111.42 335.07,-105.5"/>
</g>
<!-- InfirmStuckingEpicsMotor -->
<g id="node3" class="node">
<title>InfirmStuckingEpicsMotor</title>
<ellipse fill="none" stroke="black" cx="810.25" cy="-52.33" rx="246.25" ry="52.33"/>
<text xml:space="preserve" text-anchor="middle" x="810.25" y="-72.03" font-family="Times,serif" font-size="14.00">InfirmStuckingEpicsMotor</text>
<text xml:space="preserve" text-anchor="middle" x="810.25" y="-55.53" font-family="Times,serif" font-size="14.00">File: ./iss&#45;profile&#45;collection/startup/05&#45;aux_ophyd_classes.py</text>
<text xml:space="preserve" text-anchor="middle" x="810.25" y="-39.03" font-family="Times,serif" font-size="14.00">Methods: 7</text>
<text xml:space="preserve" text-anchor="middle" x="810.25" y="-22.53" font-family="Times,serif" font-size="14.00">Attributes: 8</text>
</g>
<!-- StuckingEpicsMotor&#45;&gt;InfirmStuckingEpicsMotor -->
<g id="edge2" class="edge">
<title>StuckingEpicsMotor&#45;&gt;InfirmStuckingEpicsMotor</title>
<path fill="none" stroke="black" d="M559.78,-212.16C599.11,-187.22 667.96,-143.56 723.53,-108.32"/>
<polygon fill="black" stroke="black" points="725.18,-111.42 731.75,-103.1 721.43,-105.5 725.18,-111.42"/>
</g>
</g>
</svg>
