<?xml version="1.0" encoding="UTF-8" standalone="no"?>
<!DOCTYPE svg PUBLIC "-//W3C//DTD SVG 1.1//EN"
 "http://www.w3.org/Graphics/SVG/1.1/DTD/svg11.dtd">
<!-- Generated by graphviz version 14.0.0 (20250921.2048)
 -->
<!-- Pages: 1 -->
<svg width="1034pt" height="262pt"
 viewBox="0.00 0.00 1034.00 262.00" xmlns="http://www.w3.org/2000/svg" xmlns:xlink="http://www.w3.org/1999/xlink">
<g id="graph0" class="graph" transform="scale(1 1) rotate(0) translate(4 257.65)">
<polygon fill="white" stroke="none" points="-4,4 -4,-257.65 1030.12,-257.65 1030.12,4 -4,4"/>
<!-- SynSignal -->
<g id="node1" class="node">
<title>SynSignal</title>
<polygon fill="lightblue" stroke="lightblue" points="543.17,-253.65 450.67,-253.65 450.67,-212.65 543.17,-212.65 543.17,-253.65"/>
<text xml:space="preserve" text-anchor="middle" x="496.92" y="-236.35" font-family="Times,serif" font-size="14.00">SynSignal</text>
<text xml:space="preserve" text-anchor="middle" x="496.92" y="-219.85" font-family="Times,serif" font-size="14.00">(Parent Class)</text>
</g>
<!-- OmniaDetector -->
<g id="node2" class="node">
<title>OmniaDetector</title>
<ellipse fill="none" stroke="black" cx="222.92" cy="-52.33" rx="222.92" ry="52.33"/>
<text xml:space="preserve" text-anchor="middle" x="222.92" y="-72.03" font-family="Times,serif" font-size="14.00">OmniaDetector</text>
<text xml:space="preserve" text-anchor="middle" x="222.92" y="-55.53" font-family="Times,serif" font-size="14.00">File: ./pdf&#45;profile&#45;collection/startup/82&#45;sim&#45;detector.py</text>
<text xml:space="preserve" text-anchor="middle" x="222.92" y="-39.03" font-family="Times,serif" font-size="14.00">Methods: 2</text>
<text xml:space="preserve" text-anchor="middle" x="222.92" y="-22.53" font-family="Times,serif" font-size="14.00">Attributes: 22</text>
</g>
<!-- SynSignal&#45;&gt;OmniaDetector -->
<g id="edge1" class="edge">
<title>SynSignal&#45;&gt;OmniaDetector</title>
<path fill="none" stroke="black" d="M466.28,-212.16C428.08,-187.23 361.22,-143.59 307.23,-108.36"/>
<polygon fill="black" stroke="black" points="309.21,-105.47 298.93,-102.93 305.39,-111.33 309.21,-105.47"/>
</g>
<!-- SynGaussPeaks -->
<g id="node3" class="node">
<title>SynGaussPeaks</title>
<ellipse fill="none" stroke="black" cx="771.92" cy="-52.33" rx="254.2" ry="52.33"/>
<text xml:space="preserve" text-anchor="middle" x="771.92" y="-72.03" font-family="Times,serif" font-size="14.00">SynGaussPeaks</text>
<text xml:space="preserve" text-anchor="middle" x="771.92" y="-55.53" font-family="Times,serif" font-size="14.00">File: ./xpd&#45;profile&#45;collection/simulators/10&#45;motors&#45;dets&#45;sim.py</text>
<text xml:space="preserve" text-anchor="middle" x="771.92" y="-39.03" font-family="Times,serif" font-size="14.00">Methods: 1</text>
<text xml:space="preserve" text-anchor="middle" x="771.92" y="-22.53" font-family="Times,serif" font-size="14.00">Attributes: 4</text>
</g>
<!-- SynSignal&#45;&gt;SynGaussPeaks -->
<g id="edge2" class="edge">
<title>SynSignal&#45;&gt;SynGaussPeaks</title>
<path fill="none" stroke="black" d="M527.66,-212.16C565.81,-187.35 632.41,-144.04 686.45,-108.9"/>
<polygon fill="black" stroke="black" points="688.29,-111.88 694.77,-103.49 684.47,-106.01 688.29,-111.88"/>
</g>
</g>
</svg>
