<?xml version="1.0" encoding="UTF-8" standalone="no"?>
<!DOCTYPE svg PUBLIC "-//W3C//DTD SVG 1.1//EN"
 "http://www.w3.org/Graphics/SVG/1.1/DTD/svg11.dtd">
<!-- Generated by graphviz version 14.0.0 (20250921.2048)
 -->
<!-- Pages: 1 -->
<svg width="3055pt" height="262pt"
 viewBox="0.00 0.00 3055.00 262.00" xmlns="http://www.w3.org/2000/svg" xmlns:xlink="http://www.w3.org/1999/xlink">
<g id="graph0" class="graph" transform="scale(1 1) rotate(0) translate(4 257.65)">
<polygon fill="white" stroke="none" points="-4,4 -4,-257.65 3051.1,-257.65 3051.1,4 -4,4"/>
<!-- TIFFPlugin -->
<g id="node1" class="node">
<title>TIFFPlugin</title>
<polygon fill="lightblue" stroke="lightblue" points="1605.41,-253.65 1512.91,-253.65 1512.91,-212.65 1605.41,-212.65 1605.41,-253.65"/>
<text xml:space="preserve" text-anchor="middle" x="1559.16" y="-236.35" font-family="Times,serif" font-size="14.00">TIFFPlugin</text>
<text xml:space="preserve" text-anchor="middle" x="1559.16" y="-219.85" font-family="Times,serif" font-size="14.00">(Parent Class)</text>
</g>
<!-- TIFFPluginWithFileStore -->
<g id="node2" class="node">
<title>TIFFPluginWithFileStore</title>
<ellipse fill="none" stroke="black" cx="227.16" cy="-52.33" rx="227.16" ry="52.33"/>
<text xml:space="preserve" text-anchor="middle" x="227.16" y="-72.03" font-family="Times,serif" font-size="14.00">TIFFPluginWithFileStore</text>
<text xml:space="preserve" text-anchor="middle" x="227.16" y="-55.53" font-family="Times,serif" font-size="14.00">File: ./fmx&#45;profile&#45;collection/startup/20&#45;detectors_99.py</text>
<text xml:space="preserve" text-anchor="middle" x="227.16" y="-39.03" font-family="Times,serif" font-size="14.00">Methods: 0</text>
<text xml:space="preserve" text-anchor="middle" x="227.16" y="-22.53" font-family="Times,serif" font-size="14.00">Attributes: 0</text>
</g>
<!-- TIFFPlugin&#45;&gt;TIFFPluginWithFileStore -->
<g id="edge1" class="edge">
<title>TIFFPlugin&#45;&gt;TIFFPluginWithFileStore</title>
<path fill="none" stroke="black" d="M1512.67,-227.83C1363.64,-213.71 884.57,-166.29 491.16,-104.65 463.67,-100.34 434.67,-95.26 406.36,-90"/>
<polygon fill="black" stroke="black" points="407.09,-86.57 396.62,-88.17 405.8,-93.45 407.09,-86.57"/>
</g>
<!-- TIFFPluginEnsuredOff -->
<g id="node3" class="node">
<title>TIFFPluginEnsuredOff</title>
<ellipse fill="none" stroke="black" cx="767.16" cy="-52.33" rx="240.42" ry="52.33"/>
<text xml:space="preserve" text-anchor="middle" x="767.16" y="-72.03" font-family="Times,serif" font-size="14.00">TIFFPluginEnsuredOff</text>
<text xml:space="preserve" text-anchor="middle" x="767.16" y="-55.53" font-family="Times,serif" font-size="14.00">File: ./smi&#45;profile&#45;collection/startup/smiclasses/prosilica.py</text>
<text xml:space="preserve" text-anchor="middle" x="767.16" y="-39.03" font-family="Times,serif" font-size="14.00">Methods: 1</text>
<text xml:space="preserve" text-anchor="middle" x="767.16" y="-22.53" font-family="Times,serif" font-size="14.00">Attributes: 0</text>
</g>
<!-- TIFFPlugin&#45;&gt;TIFFPluginEnsuredOff -->
<g id="edge2" class="edge">
<title>TIFFPlugin&#45;&gt;TIFFPluginEnsuredOff</title>
<path fill="none" stroke="black" d="M1512.57,-221.63C1403.63,-197.04 1127.58,-134.71 943.73,-93.19"/>
<polygon fill="black" stroke="black" points="944.58,-89.8 934.06,-91.01 943.04,-96.63 944.58,-89.8"/>
</g>
<!-- QASTIFFPlugin -->
<g id="node4" class="node">
<title>QASTIFFPlugin</title>
<ellipse fill="none" stroke="black" cx="1301.16" cy="-52.33" rx="221.32" ry="52.33"/>
<text xml:space="preserve" text-anchor="middle" x="1301.16" y="-72.03" font-family="Times,serif" font-size="14.00">QASTIFFPlugin</text>
<text xml:space="preserve" text-anchor="middle" x="1301.16" y="-55.53" font-family="Times,serif" font-size="14.00">File: ./qas&#45;profile&#45;collection/startup/80&#45;areadetector.py</text>
<text xml:space="preserve" text-anchor="middle" x="1301.16" y="-39.03" font-family="Times,serif" font-size="14.00">Methods: 1</text>
<text xml:space="preserve" text-anchor="middle" x="1301.16" y="-22.53" font-family="Times,serif" font-size="14.00">Attributes: 1</text>
</g>
<!-- TIFFPlugin&#45;&gt;QASTIFFPlugin -->
<g id="edge3" class="edge">
<title>TIFFPlugin&#45;&gt;QASTIFFPlugin</title>
<path fill="none" stroke="black" d="M1530.56,-212.33C1494.74,-187.5 1431.9,-143.95 1381.03,-108.69"/>
<polygon fill="black" stroke="black" points="1383.14,-105.89 1372.93,-103.07 1379.15,-111.64 1383.14,-105.89"/>
</g>
<!-- XPDTIFFPlugin -->
<g id="node5" class="node">
<title>XPDTIFFPlugin</title>
<ellipse fill="none" stroke="black" cx="1817.16" cy="-52.33" rx="222.92" ry="52.33"/>
<text xml:space="preserve" text-anchor="middle" x="1817.16" y="-72.03" font-family="Times,serif" font-size="14.00">XPDTIFFPlugin</text>
<text xml:space="preserve" text-anchor="middle" x="1817.16" y="-55.53" font-family="Times,serif" font-size="14.00">File: ./xpd&#45;profile&#45;collection/startup/80&#45;areadetector.py</text>
<text xml:space="preserve" text-anchor="middle" x="1817.16" y="-39.03" font-family="Times,serif" font-size="14.00">Methods: 0</text>
<text xml:space="preserve" text-anchor="middle" x="1817.16" y="-22.53" font-family="Times,serif" font-size="14.00">Attributes: 0</text>
</g>
<!-- TIFFPlugin&#45;&gt;XPDTIFFPlugin -->
<g id="edge4" class="edge">
<title>TIFFPlugin&#45;&gt;XPDTIFFPlugin</title>
<path fill="none" stroke="black" d="M1587.75,-212.33C1623.51,-187.55 1686.2,-144.1 1737.02,-108.87"/>
<polygon fill="black" stroke="black" points="1738.89,-111.83 1745.12,-103.26 1734.9,-106.08 1738.89,-111.83"/>
</g>
<!-- HEXTIFFPlugin -->
<g id="node6" class="node">
<title>HEXTIFFPlugin</title>
<ellipse fill="none" stroke="black" cx="2337.16" cy="-52.33" rx="225.57" ry="52.33"/>
<text xml:space="preserve" text-anchor="middle" x="2337.16" y="-72.03" font-family="Times,serif" font-size="14.00">HEXTIFFPlugin</text>
<text xml:space="preserve" text-anchor="middle" x="2337.16" y="-55.53" font-family="Times,serif" font-size="14.00">File: ./hex&#45;profile&#45;collection/startup/11&#45;perkin&#45;elmer.py</text>
<text xml:space="preserve" text-anchor="middle" x="2337.16" y="-39.03" font-family="Times,serif" font-size="14.00">Methods: 6</text>
<text xml:space="preserve" text-anchor="middle" x="2337.16" y="-22.53" font-family="Times,serif" font-size="14.00">Attributes: 8</text>
</g>
<!-- TIFFPlugin&#45;&gt;HEXTIFFPlugin -->
<g id="edge5" class="edge">
<title>TIFFPlugin&#45;&gt;HEXTIFFPlugin</title>
<path fill="none" stroke="black" d="M1605.78,-221.43C1714.08,-196.54 1987.07,-133.79 2167.17,-92.4"/>
<polygon fill="black" stroke="black" points="2167.92,-95.82 2176.88,-90.17 2166.35,-88.99 2167.92,-95.82"/>
</g>
<!-- SRXTIFFPlugin -->
<g id="node7" class="node">
<title>SRXTIFFPlugin</title>
<ellipse fill="none" stroke="black" cx="2841.16" cy="-52.33" rx="205.94" ry="52.33"/>
<text xml:space="preserve" text-anchor="middle" x="2841.16" y="-72.03" font-family="Times,serif" font-size="14.00">SRXTIFFPlugin</text>
<text xml:space="preserve" text-anchor="middle" x="2841.16" y="-55.53" font-family="Times,serif" font-size="14.00">File: ./srx&#45;profile&#45;collection/startup/21&#45;cameras.py</text>
<text xml:space="preserve" text-anchor="middle" x="2841.16" y="-39.03" font-family="Times,serif" font-size="14.00">Methods: 0</text>
<text xml:space="preserve" text-anchor="middle" x="2841.16" y="-22.53" font-family="Times,serif" font-size="14.00">Attributes: 0</text>
</g>
<!-- TIFFPlugin&#45;&gt;SRXTIFFPlugin -->
<g id="edge6" class="edge">
<title>TIFFPlugin&#45;&gt;SRXTIFFPlugin</title>
<path fill="none" stroke="black" d="M1605.75,-227.9C1752.45,-214.2 2217.66,-168.37 2599.16,-104.65 2624.55,-100.41 2651.32,-95.34 2677.42,-90.07"/>
<polygon fill="black" stroke="black" points="2677.98,-93.52 2687.08,-88.1 2676.58,-86.67 2677.98,-93.52"/>
</g>
</g>
</svg>
