<?xml version="1.0" encoding="UTF-8" standalone="no"?>
<!DOCTYPE svg PUBLIC "-//W3C//DTD SVG 1.1//EN"
 "http://www.w3.org/Graphics/SVG/1.1/DTD/svg11.dtd">
<!-- Generated by graphviz version 14.0.0 (20250921.2048)
 -->
<!-- Pages: 1 -->
<svg width="1018pt" height="262pt"
 viewBox="0.00 0.00 1018.00 262.00" xmlns="http://www.w3.org/2000/svg" xmlns:xlink="http://www.w3.org/1999/xlink">
<g id="graph0" class="graph" transform="scale(1 1) rotate(0) translate(4 257.65)">
<polygon fill="white" stroke="none" points="-4,4 -4,-257.65 1014.17,-257.65 1014.17,4 -4,4"/>
<!-- trajControl -->
<g id="node1" class="node">
<title>trajControl</title>
<polygon fill="lightblue" stroke="lightblue" points="550.83,-253.65 458.33,-253.65 458.33,-212.65 550.83,-212.65 550.83,-253.65"/>
<text xml:space="preserve" text-anchor="middle" x="504.58" y="-236.35" font-family="Times,serif" font-size="14.00">trajControl</text>
<text xml:space="preserve" text-anchor="middle" x="504.58" y="-219.85" font-family="Times,serif" font-size="14.00">(Parent Class)</text>
</g>
<!-- XPStraj -->
<g id="node2" class="node">
<title>XPStraj</title>
<ellipse fill="none" stroke="black" cx="234.58" cy="-52.33" rx="234.58" ry="52.33"/>
<text xml:space="preserve" text-anchor="middle" x="234.58" y="-72.03" font-family="Times,serif" font-size="14.00">XPStraj</text>
<text xml:space="preserve" text-anchor="middle" x="234.58" y="-55.53" font-family="Times,serif" font-size="14.00">File: ./lix&#45;profile&#45;collection/startup/components/30&#45;traj.py</text>
<text xml:space="preserve" text-anchor="middle" x="234.58" y="-39.03" font-family="Times,serif" font-size="14.00">Methods: 4</text>
<text xml:space="preserve" text-anchor="middle" x="234.58" y="-22.53" font-family="Times,serif" font-size="14.00">Attributes: 32</text>
</g>
<!-- trajControl&#45;&gt;XPStraj -->
<g id="edge1" class="edge">
<title>trajControl&#45;&gt;XPStraj</title>
<path fill="none" stroke="black" d="M474.4,-212.16C436.81,-187.27 371.09,-143.74 317.95,-108.54"/>
<polygon fill="black" stroke="black" points="320.05,-105.73 309.78,-103.13 316.18,-111.57 320.05,-105.73"/>
</g>
<!-- ZEBRAtraj -->
<g id="node3" class="node">
<title>ZEBRAtraj</title>
<ellipse fill="none" stroke="black" cx="775.58" cy="-52.33" rx="234.58" ry="52.33"/>
<text xml:space="preserve" text-anchor="middle" x="775.58" y="-72.03" font-family="Times,serif" font-size="14.00">ZEBRAtraj</text>
<text xml:space="preserve" text-anchor="middle" x="775.58" y="-55.53" font-family="Times,serif" font-size="14.00">File: ./lix&#45;profile&#45;collection/startup/components/30&#45;traj.py</text>
<text xml:space="preserve" text-anchor="middle" x="775.58" y="-39.03" font-family="Times,serif" font-size="14.00">Methods: 4</text>
<text xml:space="preserve" text-anchor="middle" x="775.58" y="-22.53" font-family="Times,serif" font-size="14.00">Attributes: 20</text>
</g>
<!-- trajControl&#45;&gt;ZEBRAtraj -->
<g id="edge2" class="edge">
<title>trajControl&#45;&gt;ZEBRAtraj</title>
<path fill="none" stroke="black" d="M534.88,-212.16C572.6,-187.27 638.57,-143.74 691.91,-108.54"/>
<polygon fill="black" stroke="black" points="693.69,-111.56 700.11,-103.13 689.84,-105.71 693.69,-111.56"/>
</g>
</g>
</svg>
