<?xml version="1.0" encoding="UTF-8" standalone="no"?>
<!DOCTYPE svg PUBLIC "-//W3C//DTD SVG 1.1//EN"
 "http://www.w3.org/Graphics/SVG/1.1/DTD/svg11.dtd">
<!-- Generated by graphviz version 14.0.0 (20250921.2048)
 -->
<!-- Pages: 1 -->
<svg width="918pt" height="262pt"
 viewBox="0.00 0.00 918.00 262.00" xmlns="http://www.w3.org/2000/svg" xmlns:xlink="http://www.w3.org/1999/xlink">
<g id="graph0" class="graph" transform="scale(1 1) rotate(0) translate(4 257.65)">
<polygon fill="white" stroke="none" points="-4,4 -4,-257.65 914.31,-257.65 914.31,4 -4,4"/>
<!-- TriggerAdc -->
<g id="node1" class="node">
<title>TriggerAdc</title>
<polygon fill="lightblue" stroke="lightblue" points="500.91,-253.65 408.41,-253.65 408.41,-212.65 500.91,-212.65 500.91,-253.65"/>
<text xml:space="preserve" text-anchor="middle" x="454.66" y="-236.35" font-family="Times,serif" font-size="14.00">TriggerAdc</text>
<text xml:space="preserve" text-anchor="middle" x="454.66" y="-219.85" font-family="Times,serif" font-size="14.00">(Parent Class)</text>
</g>
<!-- Adc -->
<g id="node2" class="node">
<title>Adc</title>
<ellipse fill="none" stroke="black" cx="209.66" cy="-52.33" rx="209.66" ry="52.33"/>
<text xml:space="preserve" text-anchor="middle" x="209.66" y="-72.03" font-family="Times,serif" font-size="14.00">Adc</text>
<text xml:space="preserve" text-anchor="middle" x="209.66" y="-55.53" font-family="Times,serif" font-size="14.00">File: ./qas&#45;profile&#45;collection/startup/10&#45;detectors.py</text>
<text xml:space="preserve" text-anchor="middle" x="209.66" y="-39.03" font-family="Times,serif" font-size="14.00">Methods: 0</text>
<text xml:space="preserve" text-anchor="middle" x="209.66" y="-22.53" font-family="Times,serif" font-size="14.00">Attributes: 3</text>
</g>
<!-- TriggerAdc&#45;&gt;Adc -->
<g id="edge1" class="edge">
<title>TriggerAdc&#45;&gt;Adc</title>
<path fill="none" stroke="black" d="M427.5,-212.33C393.56,-187.56 334.06,-144.13 285.81,-108.91"/>
<polygon fill="black" stroke="black" points="287.99,-106.17 277.85,-103.1 283.87,-111.82 287.99,-106.17"/>
</g>
<!-- DualAdcFS -->
<g id="node3" class="node">
<title>DualAdcFS</title>
<ellipse fill="none" stroke="black" cx="700.66" cy="-52.33" rx="209.66" ry="52.33"/>
<text xml:space="preserve" text-anchor="middle" x="700.66" y="-72.03" font-family="Times,serif" font-size="14.00">DualAdcFS</text>
<text xml:space="preserve" text-anchor="middle" x="700.66" y="-55.53" font-family="Times,serif" font-size="14.00">File: ./qas&#45;profile&#45;collection/startup/10&#45;detectors.py</text>
<text xml:space="preserve" text-anchor="middle" x="700.66" y="-39.03" font-family="Times,serif" font-size="14.00">Methods: 9</text>
<text xml:space="preserve" text-anchor="middle" x="700.66" y="-22.53" font-family="Times,serif" font-size="14.00">Attributes: 33</text>
</g>
<!-- TriggerAdc&#45;&gt;DualAdcFS -->
<g id="edge2" class="edge">
<title>TriggerAdc&#45;&gt;DualAdcFS</title>
<path fill="none" stroke="black" d="M481.92,-212.33C516,-187.56 575.75,-144.13 624.19,-108.91"/>
<polygon fill="black" stroke="black" points="626.16,-111.81 632.19,-103.1 622.04,-106.15 626.16,-111.81"/>
</g>
</g>
</svg>
