<?xml version="1.0" encoding="UTF-8" standalone="no"?>
<!DOCTYPE svg PUBLIC "-//W3C//DTD SVG 1.1//EN"
 "http://www.w3.org/Graphics/SVG/1.1/DTD/svg11.dtd">
<!-- Generated by graphviz version 14.0.0 (20250921.2048)
 -->
<!-- Pages: 1 -->
<svg width="3560pt" height="262pt"
 viewBox="0.00 0.00 3560.00 262.00" xmlns="http://www.w3.org/2000/svg" xmlns:xlink="http://www.w3.org/1999/xlink">
<g id="graph0" class="graph" transform="scale(1 1) rotate(0) translate(4 257.65)">
<polygon fill="white" stroke="none" points="-4,4 -4,-257.65 3555.83,-257.65 3555.83,4 -4,4"/>
<!-- TwoButtonShutter -->
<g id="node1" class="node">
<title>TwoButtonShutter</title>
<polygon fill="lightblue" stroke="lightblue" points="1841.15,-253.65 1724.65,-253.65 1724.65,-212.65 1841.15,-212.65 1841.15,-253.65"/>
<text xml:space="preserve" text-anchor="middle" x="1782.9" y="-236.35" font-family="Times,serif" font-size="14.00">TwoButtonShutter</text>
<text xml:space="preserve" text-anchor="middle" x="1782.9" y="-219.85" font-family="Times,serif" font-size="14.00">(Parent Class)</text>
</g>
<!-- AttnShutter -->
<g id="node2" class="node">
<title>AttnShutter</title>
<ellipse fill="none" stroke="black" cx="213.9" cy="-52.33" rx="213.9" ry="52.33"/>
<text xml:space="preserve" text-anchor="middle" x="213.9" y="-72.03" font-family="Times,serif" font-size="14.00">AttnShutter</text>
<text xml:space="preserve" text-anchor="middle" x="213.9" y="-55.53" font-family="Times,serif" font-size="14.00">File: ./isr&#45;profile&#45;collection/startup/15&#45;attenuators.py</text>
<text xml:space="preserve" text-anchor="middle" x="213.9" y="-39.03" font-family="Times,serif" font-size="14.00">Methods: 1</text>
<text xml:space="preserve" text-anchor="middle" x="213.9" y="-22.53" font-family="Times,serif" font-size="14.00">Attributes: 0</text>
</g>
<!-- TwoButtonShutter&#45;&gt;AttnShutter -->
<g id="edge1" class="edge">
<title>TwoButtonShutter&#45;&gt;AttnShutter</title>
<path fill="none" stroke="black" d="M1724.45,-228.72C1539.1,-217.38 948.18,-177.56 463.9,-104.65 437.33,-100.65 409.32,-95.67 382.04,-90.39"/>
<polygon fill="black" stroke="black" points="382.78,-86.97 372.3,-88.48 381.44,-93.84 382.78,-86.97"/>
</g>
<!-- TwoButtonShutterQAS -->
<g id="node3" class="node">
<title>TwoButtonShutterQAS</title>
<ellipse fill="none" stroke="black" cx="703.9" cy="-52.33" rx="203.82" ry="52.33"/>
<text xml:space="preserve" text-anchor="middle" x="703.9" y="-72.03" font-family="Times,serif" font-size="14.00">TwoButtonShutterQAS</text>
<text xml:space="preserve" text-anchor="middle" x="703.9" y="-55.53" font-family="Times,serif" font-size="14.00">File: ./qas&#45;profile&#45;collection/startup/22&#45;devices.py</text>
<text xml:space="preserve" text-anchor="middle" x="703.9" y="-39.03" font-family="Times,serif" font-size="14.00">Methods: 1</text>
<text xml:space="preserve" text-anchor="middle" x="703.9" y="-22.53" font-family="Times,serif" font-size="14.00">Attributes: 0</text>
</g>
<!-- TwoButtonShutter&#45;&gt;TwoButtonShutterQAS -->
<g id="edge2" class="edge">
<title>TwoButtonShutter&#45;&gt;TwoButtonShutterQAS</title>
<path fill="none" stroke="black" d="M1724.21,-224.46C1587.17,-206.25 1235.58,-157.95 943.9,-104.65 919.05,-100.11 892.84,-94.92 867.23,-89.63"/>
<polygon fill="black" stroke="black" points="868.29,-86.27 857.78,-87.66 866.86,-93.12 868.29,-86.27"/>
</g>
<!-- TwoButtonShutterNC -->
<g id="node4" class="node">
<title>TwoButtonShutterNC</title>
<ellipse fill="none" stroke="black" cx="1219.9" cy="-52.33" rx="239.89" ry="52.33"/>
<text xml:space="preserve" text-anchor="middle" x="1219.9" y="-72.03" font-family="Times,serif" font-size="14.00">TwoButtonShutterNC</text>
<text xml:space="preserve" text-anchor="middle" x="1219.9" y="-55.53" font-family="Times,serif" font-size="14.00">File: ./cms&#45;profile&#45;collection/startup/50&#45;bluesky&#45;devices.py</text>
<text xml:space="preserve" text-anchor="middle" x="1219.9" y="-39.03" font-family="Times,serif" font-size="14.00">Methods: 1</text>
<text xml:space="preserve" text-anchor="middle" x="1219.9" y="-22.53" font-family="Times,serif" font-size="14.00">Attributes: 0</text>
</g>
<!-- TwoButtonShutter&#45;&gt;TwoButtonShutterNC -->
<g id="edge3" class="edge">
<title>TwoButtonShutter&#45;&gt;TwoButtonShutterNC</title>
<path fill="none" stroke="black" d="M1724.24,-213.52C1639.99,-186.76 1482.01,-136.58 1365.22,-99.48"/>
<polygon fill="black" stroke="black" points="1366.44,-96.2 1355.85,-96.51 1364.32,-102.87 1366.44,-96.2"/>
</g>
<!-- TwoButtonShutterSIX -->
<g id="node5" class="node">
<title>TwoButtonShutterSIX</title>
<ellipse fill="none" stroke="black" cx="1782.9" cy="-52.33" rx="251.02" ry="52.33"/>
<text xml:space="preserve" text-anchor="middle" x="1782.9" y="-72.03" font-family="Times,serif" font-size="14.00">TwoButtonShutterSIX</text>
<text xml:space="preserve" text-anchor="middle" x="1782.9" y="-55.53" font-family="Times,serif" font-size="14.00">File: ./six&#45;profile&#45;collection/startup/15&#45;valves_and_shutters.py</text>
<text xml:space="preserve" text-anchor="middle" x="1782.9" y="-39.03" font-family="Times,serif" font-size="14.00">Methods: 1</text>
<text xml:space="preserve" text-anchor="middle" x="1782.9" y="-22.53" font-family="Times,serif" font-size="14.00">Attributes: 0</text>
</g>
<!-- TwoButtonShutter&#45;&gt;TwoButtonShutterSIX -->
<g id="edge4" class="edge">
<title>TwoButtonShutter&#45;&gt;TwoButtonShutterSIX</title>
<path fill="none" stroke="black" d="M1782.9,-212.33C1782.9,-189.21 1782.9,-149.84 1782.9,-116.06"/>
<polygon fill="black" stroke="black" points="1786.4,-116.37 1782.9,-106.37 1779.4,-116.37 1786.4,-116.37"/>
</g>
<!-- valve -->
<g id="node6" class="node">
<title>valve</title>
<ellipse fill="none" stroke="black" cx="2358.9" cy="-52.33" rx="252.61" ry="52.33"/>
<text xml:space="preserve" text-anchor="middle" x="2358.9" y="-72.03" font-family="Times,serif" font-size="14.00">valve</text>
<text xml:space="preserve" text-anchor="middle" x="2358.9" y="-55.53" font-family="Times,serif" font-size="14.00">File: ./lix&#45;profile&#45;collection/startup/components/10&#45;vacuum.py</text>
<text xml:space="preserve" text-anchor="middle" x="2358.9" y="-39.03" font-family="Times,serif" font-size="14.00">Methods: 0</text>
<text xml:space="preserve" text-anchor="middle" x="2358.9" y="-22.53" font-family="Times,serif" font-size="14.00">Attributes: 1</text>
</g>
<!-- TwoButtonShutter&#45;&gt;valve -->
<g id="edge5" class="edge">
<title>TwoButtonShutter&#45;&gt;valve</title>
<path fill="none" stroke="black" d="M1841.57,-213.94C1927.18,-187.36 2089.21,-137.05 2209.22,-99.8"/>
<polygon fill="black" stroke="black" points="2210.01,-103.22 2218.52,-96.91 2207.93,-96.53 2210.01,-103.22"/>
</g>
<!-- TwoButtonShutterISS -->
<g id="node7" class="node">
<title>TwoButtonShutterISS</title>
<ellipse fill="none" stroke="black" cx="2884.9" cy="-52.33" rx="201.17" ry="52.33"/>
<text xml:space="preserve" text-anchor="middle" x="2884.9" y="-72.03" font-family="Times,serif" font-size="14.00">TwoButtonShutterISS</text>
<text xml:space="preserve" text-anchor="middle" x="2884.9" y="-55.53" font-family="Times,serif" font-size="14.00">File: ./iss&#45;profile&#45;collection/startup/20&#45;devices.py</text>
<text xml:space="preserve" text-anchor="middle" x="2884.9" y="-39.03" font-family="Times,serif" font-size="14.00">Methods: 2</text>
<text xml:space="preserve" text-anchor="middle" x="2884.9" y="-22.53" font-family="Times,serif" font-size="14.00">Attributes: 9</text>
</g>
<!-- TwoButtonShutter&#45;&gt;TwoButtonShutterISS -->
<g id="edge6" class="edge">
<title>TwoButtonShutter&#45;&gt;TwoButtonShutterISS</title>
<path fill="none" stroke="black" d="M1841.6,-224.88C1981.61,-207.23 2346.03,-159.52 2647.9,-104.65 2672.35,-100.21 2698.11,-95.09 2723.3,-89.83"/>
<polygon fill="black" stroke="black" points="2723.89,-93.29 2732.95,-87.81 2722.45,-86.44 2723.89,-93.29"/>
</g>
<!-- SRXTwoButtonShutter -->
<g id="node8" class="node">
<title>SRXTwoButtonShutter</title>
<ellipse fill="none" stroke="black" cx="3354.9" cy="-52.33" rx="196.93" ry="52.33"/>
<text xml:space="preserve" text-anchor="middle" x="3354.9" y="-72.03" font-family="Times,serif" font-size="14.00">SRXTwoButtonShutter</text>
<text xml:space="preserve" text-anchor="middle" x="3354.9" y="-55.53" font-family="Times,serif" font-size="14.00">File: ./srx&#45;profile&#45;collection/startup/11&#45;optics.py</text>
<text xml:space="preserve" text-anchor="middle" x="3354.9" y="-39.03" font-family="Times,serif" font-size="14.00">Methods: 1</text>
<text xml:space="preserve" text-anchor="middle" x="3354.9" y="-22.53" font-family="Times,serif" font-size="14.00">Attributes: 0</text>
</g>
<!-- TwoButtonShutter&#45;&gt;SRXTwoButtonShutter -->
<g id="edge7" class="edge">
<title>TwoButtonShutter&#45;&gt;SRXTwoButtonShutter</title>
<path fill="none" stroke="black" d="M1841.62,-229.12C2029.17,-218.9 2630.25,-181.92 3121.9,-104.65 3146.96,-100.71 3173.37,-95.72 3199.05,-90.41"/>
<polygon fill="black" stroke="black" points="3199.45,-93.9 3208.52,-88.42 3198.01,-87.05 3199.45,-93.9"/>
</g>
</g>
</svg>
