<?xml version="1.0" encoding="UTF-8" standalone="no"?>
<!DOCTYPE svg PUBLIC "-//W3C//DTD SVG 1.1//EN"
 "http://www.w3.org/Graphics/SVG/1.1/DTD/svg11.dtd">
<!-- Generated by graphviz version 14.0.0 (20250921.2048)
 -->
<!-- Pages: 1 -->
<svg width="984pt" height="262pt"
 viewBox="0.00 0.00 984.00 262.00" xmlns="http://www.w3.org/2000/svg" xmlns:xlink="http://www.w3.org/1999/xlink">
<g id="graph0" class="graph" transform="scale(1 1) rotate(0) translate(4 257.65)">
<polygon fill="white" stroke="none" points="-4,4 -4,-257.65 980.19,-257.65 980.19,4 -4,4"/>
<!-- ValueError -->
<g id="node1" class="node">
<title>ValueError</title>
<polygon fill="lightblue" stroke="lightblue" points="534.35,-253.65 441.85,-253.65 441.85,-212.65 534.35,-212.65 534.35,-253.65"/>
<text xml:space="preserve" text-anchor="middle" x="488.1" y="-236.35" font-family="Times,serif" font-size="14.00">ValueError</text>
<text xml:space="preserve" text-anchor="middle" x="488.1" y="-219.85" font-family="Times,serif" font-size="14.00">(Parent Class)</text>
</g>
<!-- MultiSpectraValueError -->
<g id="node2" class="node">
<title>MultiSpectraValueError</title>
<ellipse fill="none" stroke="black" cx="226.1" cy="-52.33" rx="226.1" ry="52.33"/>
<text xml:space="preserve" text-anchor="middle" x="226.1" y="-72.03" font-family="Times,serif" font-size="14.00">MultiSpectraValueError</text>
<text xml:space="preserve" text-anchor="middle" x="226.1" y="-55.53" font-family="Times,serif" font-size="14.00">File: ./ios&#45;profile&#45;collection/startup/94&#45;multi_spectra.py</text>
<text xml:space="preserve" text-anchor="middle" x="226.1" y="-39.03" font-family="Times,serif" font-size="14.00">Methods: 0</text>
<text xml:space="preserve" text-anchor="middle" x="226.1" y="-22.53" font-family="Times,serif" font-size="14.00">Attributes: 0</text>
</g>
<!-- ValueError&#45;&gt;MultiSpectraValueError -->
<g id="edge1" class="edge">
<title>ValueError&#45;&gt;MultiSpectraValueError</title>
<path fill="none" stroke="black" d="M458.81,-212.16C422.41,-187.32 358.83,-143.92 307.31,-108.76"/>
<polygon fill="black" stroke="black" points="309.32,-105.89 299.09,-103.15 305.38,-111.68 309.32,-105.89"/>
</g>
<!-- FileDataRouterValueError -->
<g id="node3" class="node">
<title>FileDataRouterValueError</title>
<ellipse fill="none" stroke="black" cx="750.1" cy="-52.33" rx="226.1" ry="52.33"/>
<text xml:space="preserve" text-anchor="middle" x="750.1" y="-72.03" font-family="Times,serif" font-size="14.00">FileDataRouterValueError</text>
<text xml:space="preserve" text-anchor="middle" x="750.1" y="-55.53" font-family="Times,serif" font-size="14.00">File: ./ios&#45;profile&#45;collection/startup/94&#45;multi_spectra.py</text>
<text xml:space="preserve" text-anchor="middle" x="750.1" y="-39.03" font-family="Times,serif" font-size="14.00">Methods: 0</text>
<text xml:space="preserve" text-anchor="middle" x="750.1" y="-22.53" font-family="Times,serif" font-size="14.00">Attributes: 0</text>
</g>
<!-- ValueError&#45;&gt;FileDataRouterValueError -->
<g id="edge2" class="edge">
<title>ValueError&#45;&gt;FileDataRouterValueError</title>
<path fill="none" stroke="black" d="M517.39,-212.16C553.78,-187.32 617.37,-143.92 668.88,-108.76"/>
<polygon fill="black" stroke="black" points="670.82,-111.68 677.1,-103.15 666.87,-105.89 670.82,-111.68"/>
</g>
</g>
</svg>
