<?xml version="1.0" encoding="UTF-8" standalone="no"?>
<!DOCTYPE svg PUBLIC "-//W3C//DTD SVG 1.1//EN"
 "http://www.w3.org/Graphics/SVG/1.1/DTD/svg11.dtd">
<!-- Generated by graphviz version 14.0.0 (20250921.2048)
 -->
<!-- Pages: 1 -->
<svg width="1511pt" height="262pt"
 viewBox="0.00 0.00 1511.00 262.00" xmlns="http://www.w3.org/2000/svg" xmlns:xlink="http://www.w3.org/1999/xlink">
<g id="graph0" class="graph" transform="scale(1 1) rotate(0) translate(4 257.65)">
<polygon fill="white" stroke="none" points="-4,4 -4,-257.65 1507.26,-257.65 1507.26,4 -4,4"/>
<!-- XPDPerkinElmer1 -->
<g id="node1" class="node">
<title>XPDPerkinElmer1</title>
<polygon fill="lightblue" stroke="lightblue" points="811,-253.65 692.25,-253.65 692.25,-212.65 811,-212.65 811,-253.65"/>
<text xml:space="preserve" text-anchor="middle" x="751.63" y="-236.35" font-family="Times,serif" font-size="14.00">XPDPerkinElmer1</text>
<text xml:space="preserve" text-anchor="middle" x="751.63" y="-219.85" font-family="Times,serif" font-size="14.00">(Parent Class)</text>
</g>
<!-- PerkinElmerContinuous1 -->
<g id="node2" class="node">
<title>PerkinElmerContinuous1</title>
<ellipse fill="none" stroke="black" cx="226.63" cy="-52.33" rx="226.63" ry="52.33"/>
<text xml:space="preserve" text-anchor="middle" x="226.63" y="-72.03" font-family="Times,serif" font-size="14.00">PerkinElmerContinuous1</text>
<text xml:space="preserve" text-anchor="middle" x="226.63" y="-55.53" font-family="Times,serif" font-size="14.00">File: ./pdf&#45;profile&#45;collection/startup/80&#45;areadetector2.py</text>
<text xml:space="preserve" text-anchor="middle" x="226.63" y="-39.03" font-family="Times,serif" font-size="14.00">Methods: 0</text>
<text xml:space="preserve" text-anchor="middle" x="226.63" y="-22.53" font-family="Times,serif" font-size="14.00">Attributes: 0</text>
</g>
<!-- XPDPerkinElmer1&#45;&gt;PerkinElmerContinuous1 -->
<g id="edge1" class="edge">
<title>XPDPerkinElmer1&#45;&gt;PerkinElmerContinuous1</title>
<path fill="none" stroke="black" d="M692.93,-212.16C613.77,-185.2 470.41,-136.36 363.46,-99.94"/>
<polygon fill="black" stroke="black" points="364.61,-96.63 354.01,-96.72 362.35,-103.25 364.61,-96.63"/>
</g>
<!-- PerkinElmerStandard1 -->
<g id="node3" class="node">
<title>PerkinElmerStandard1</title>
<ellipse fill="none" stroke="black" cx="751.63" cy="-52.33" rx="226.63" ry="52.33"/>
<text xml:space="preserve" text-anchor="middle" x="751.63" y="-72.03" font-family="Times,serif" font-size="14.00">PerkinElmerStandard1</text>
<text xml:space="preserve" text-anchor="middle" x="751.63" y="-55.53" font-family="Times,serif" font-size="14.00">File: ./pdf&#45;profile&#45;collection/startup/80&#45;areadetector2.py</text>
<text xml:space="preserve" text-anchor="middle" x="751.63" y="-39.03" font-family="Times,serif" font-size="14.00">Methods: 0</text>
<text xml:space="preserve" text-anchor="middle" x="751.63" y="-22.53" font-family="Times,serif" font-size="14.00">Attributes: 0</text>
</g>
<!-- XPDPerkinElmer1&#45;&gt;PerkinElmerStandard1 -->
<g id="edge2" class="edge">
<title>XPDPerkinElmer1&#45;&gt;PerkinElmerStandard1</title>
<path fill="none" stroke="black" d="M751.63,-212.33C751.63,-189.21 751.63,-149.84 751.63,-116.06"/>
<polygon fill="black" stroke="black" points="755.13,-116.37 751.63,-106.37 748.13,-116.37 755.13,-116.37"/>
</g>
<!-- PerkinElmerMulti1 -->
<g id="node4" class="node">
<title>PerkinElmerMulti1</title>
<ellipse fill="none" stroke="black" cx="1276.63" cy="-52.33" rx="226.63" ry="52.33"/>
<text xml:space="preserve" text-anchor="middle" x="1276.63" y="-72.03" font-family="Times,serif" font-size="14.00">PerkinElmerMulti1</text>
<text xml:space="preserve" text-anchor="middle" x="1276.63" y="-55.53" font-family="Times,serif" font-size="14.00">File: ./pdf&#45;profile&#45;collection/startup/80&#45;areadetector2.py</text>
<text xml:space="preserve" text-anchor="middle" x="1276.63" y="-39.03" font-family="Times,serif" font-size="14.00">Methods: 0</text>
<text xml:space="preserve" text-anchor="middle" x="1276.63" y="-22.53" font-family="Times,serif" font-size="14.00">Attributes: 1</text>
</g>
<!-- XPDPerkinElmer1&#45;&gt;PerkinElmerMulti1 -->
<g id="edge3" class="edge">
<title>XPDPerkinElmer1&#45;&gt;PerkinElmerMulti1</title>
<path fill="none" stroke="black" d="M810.32,-212.16C889.48,-185.2 1032.85,-136.36 1139.79,-99.94"/>
<polygon fill="black" stroke="black" points="1140.91,-103.25 1149.24,-96.72 1138.65,-96.63 1140.91,-103.25"/>
</g>
</g>
</svg>
