<?xml version="1.0" encoding="UTF-8" standalone="no"?>
<!DOCTYPE svg PUBLIC "-//W3C//DTD SVG 1.1//EN"
 "http://www.w3.org/Graphics/SVG/1.1/DTD/svg11.dtd">
<!-- Generated by graphviz version 14.0.0 (20250921.2048)
 -->
<!-- Pages: 1 -->
<svg width="3059pt" height="262pt"
 viewBox="0.00 0.00 3059.00 262.00" xmlns="http://www.w3.org/2000/svg" xmlns:xlink="http://www.w3.org/1999/xlink">
<g id="graph0" class="graph" transform="scale(1 1) rotate(0) translate(4 257.65)">
<polygon fill="white" stroke="none" points="-4,4 -4,-257.65 3054.54,-257.65 3054.54,4 -4,4"/>
<!-- XPDPerkinElmer -->
<g id="node1" class="node">
<title>XPDPerkinElmer</title>
<polygon fill="lightblue" stroke="lightblue" points="1588.63,-253.65 1476.63,-253.65 1476.63,-212.65 1588.63,-212.65 1588.63,-253.65"/>
<text xml:space="preserve" text-anchor="middle" x="1532.63" y="-236.35" font-family="Times,serif" font-size="14.00">XPDPerkinElmer</text>
<text xml:space="preserve" text-anchor="middle" x="1532.63" y="-219.85" font-family="Times,serif" font-size="14.00">(Parent Class)</text>
</g>
<!-- XPDPerkinElmer1 -->
<g id="node2" class="node">
<title>XPDPerkinElmer1</title>
<ellipse fill="none" stroke="black" cx="226.63" cy="-52.33" rx="226.63" ry="52.33"/>
<text xml:space="preserve" text-anchor="middle" x="226.63" y="-72.03" font-family="Times,serif" font-size="14.00">XPDPerkinElmer1</text>
<text xml:space="preserve" text-anchor="middle" x="226.63" y="-55.53" font-family="Times,serif" font-size="14.00">File: ./pdf&#45;profile&#45;collection/startup/80&#45;areadetector2.py</text>
<text xml:space="preserve" text-anchor="middle" x="226.63" y="-39.03" font-family="Times,serif" font-size="14.00">Methods: 0</text>
<text xml:space="preserve" text-anchor="middle" x="226.63" y="-22.53" font-family="Times,serif" font-size="14.00">Attributes: 1</text>
</g>
<!-- XPDPerkinElmer&#45;&gt;XPDPerkinElmer1 -->
<g id="edge1" class="edge">
<title>XPDPerkinElmer&#45;&gt;XPDPerkinElmer1</title>
<path fill="none" stroke="black" d="M1476.41,-226.72C1319.59,-211.27 864.18,-164.29 488.63,-104.65 461.55,-100.35 433,-95.3 405.1,-90.07"/>
<polygon fill="black" stroke="black" points="405.99,-86.68 395.52,-88.26 404.7,-93.56 405.99,-86.68"/>
</g>
<!-- XPDPerkinElmer2 -->
<g id="node3" class="node">
<title>XPDPerkinElmer2</title>
<ellipse fill="none" stroke="black" cx="751.63" cy="-52.33" rx="226.63" ry="52.33"/>
<text xml:space="preserve" text-anchor="middle" x="751.63" y="-72.03" font-family="Times,serif" font-size="14.00">XPDPerkinElmer2</text>
<text xml:space="preserve" text-anchor="middle" x="751.63" y="-55.53" font-family="Times,serif" font-size="14.00">File: ./pdf&#45;profile&#45;collection/startup/80&#45;areadetector2.py</text>
<text xml:space="preserve" text-anchor="middle" x="751.63" y="-39.03" font-family="Times,serif" font-size="14.00">Methods: 0</text>
<text xml:space="preserve" text-anchor="middle" x="751.63" y="-22.53" font-family="Times,serif" font-size="14.00">Attributes: 1</text>
</g>
<!-- XPDPerkinElmer&#45;&gt;XPDPerkinElmer2 -->
<g id="edge2" class="edge">
<title>XPDPerkinElmer&#45;&gt;XPDPerkinElmer2</title>
<path fill="none" stroke="black" d="M1476.15,-219.22C1361.57,-192.99 1097.83,-132.6 922.19,-92.38"/>
<polygon fill="black" stroke="black" points="923.02,-88.98 912.49,-90.16 921.45,-95.8 923.02,-88.98"/>
</g>
<!-- PerkinElmerContinuous -->
<g id="node4" class="node">
<title>PerkinElmerContinuous</title>
<ellipse fill="none" stroke="black" cx="1273.63" cy="-52.33" rx="222.92" ry="52.33"/>
<text xml:space="preserve" text-anchor="middle" x="1273.63" y="-72.03" font-family="Times,serif" font-size="14.00">PerkinElmerContinuous</text>
<text xml:space="preserve" text-anchor="middle" x="1273.63" y="-55.53" font-family="Times,serif" font-size="14.00">File: ./xpd&#45;profile&#45;collection/startup/80&#45;areadetector.py</text>
<text xml:space="preserve" text-anchor="middle" x="1273.63" y="-39.03" font-family="Times,serif" font-size="14.00">Methods: 0</text>
<text xml:space="preserve" text-anchor="middle" x="1273.63" y="-22.53" font-family="Times,serif" font-size="14.00">Attributes: 0</text>
</g>
<!-- XPDPerkinElmer&#45;&gt;PerkinElmerContinuous -->
<g id="edge3" class="edge">
<title>XPDPerkinElmer&#45;&gt;PerkinElmerContinuous</title>
<path fill="none" stroke="black" d="M1503.67,-212.16C1467.7,-187.32 1404.84,-143.92 1353.91,-108.76"/>
<polygon fill="black" stroke="black" points="1356.01,-105.96 1345.8,-103.15 1352.04,-111.72 1356.01,-105.96"/>
</g>
<!-- PerkinElmerStandard -->
<g id="node5" class="node">
<title>PerkinElmerStandard</title>
<ellipse fill="none" stroke="black" cx="1791.63" cy="-52.33" rx="222.92" ry="52.33"/>
<text xml:space="preserve" text-anchor="middle" x="1791.63" y="-72.03" font-family="Times,serif" font-size="14.00">PerkinElmerStandard</text>
<text xml:space="preserve" text-anchor="middle" x="1791.63" y="-55.53" font-family="Times,serif" font-size="14.00">File: ./xpd&#45;profile&#45;collection/startup/80&#45;areadetector.py</text>
<text xml:space="preserve" text-anchor="middle" x="1791.63" y="-39.03" font-family="Times,serif" font-size="14.00">Methods: 0</text>
<text xml:space="preserve" text-anchor="middle" x="1791.63" y="-22.53" font-family="Times,serif" font-size="14.00">Attributes: 0</text>
</g>
<!-- XPDPerkinElmer&#45;&gt;PerkinElmerStandard -->
<g id="edge4" class="edge">
<title>XPDPerkinElmer&#45;&gt;PerkinElmerStandard</title>
<path fill="none" stroke="black" d="M1561.58,-212.16C1597.56,-187.32 1660.42,-143.92 1711.34,-108.76"/>
<polygon fill="black" stroke="black" points="1713.22,-111.72 1719.46,-103.15 1709.24,-105.96 1713.22,-111.72"/>
</g>
<!-- PerkinElmerStandardV33 -->
<g id="node6" class="node">
<title>PerkinElmerStandardV33</title>
<ellipse fill="none" stroke="black" cx="2309.63" cy="-52.33" rx="222.92" ry="52.33"/>
<text xml:space="preserve" text-anchor="middle" x="2309.63" y="-72.03" font-family="Times,serif" font-size="14.00">PerkinElmerStandardV33</text>
<text xml:space="preserve" text-anchor="middle" x="2309.63" y="-55.53" font-family="Times,serif" font-size="14.00">File: ./xpd&#45;profile&#45;collection/startup/80&#45;areadetector.py</text>
<text xml:space="preserve" text-anchor="middle" x="2309.63" y="-39.03" font-family="Times,serif" font-size="14.00">Methods: 0</text>
<text xml:space="preserve" text-anchor="middle" x="2309.63" y="-22.53" font-family="Times,serif" font-size="14.00">Attributes: 0</text>
</g>
<!-- XPDPerkinElmer&#45;&gt;PerkinElmerStandardV33 -->
<g id="edge5" class="edge">
<title>XPDPerkinElmer&#45;&gt;PerkinElmerStandardV33</title>
<path fill="none" stroke="black" d="M1588.82,-219.22C1702.98,-192.95 1965.98,-132.42 2140.72,-92.2"/>
<polygon fill="black" stroke="black" points="2141.41,-95.63 2150.37,-89.98 2139.84,-88.81 2141.41,-95.63"/>
</g>
<!-- PerkinElmerMulti -->
<g id="node7" class="node">
<title>PerkinElmerMulti</title>
<ellipse fill="none" stroke="black" cx="2827.63" cy="-52.33" rx="222.92" ry="52.33"/>
<text xml:space="preserve" text-anchor="middle" x="2827.63" y="-72.03" font-family="Times,serif" font-size="14.00">PerkinElmerMulti</text>
<text xml:space="preserve" text-anchor="middle" x="2827.63" y="-55.53" font-family="Times,serif" font-size="14.00">File: ./xpd&#45;profile&#45;collection/startup/80&#45;areadetector.py</text>
<text xml:space="preserve" text-anchor="middle" x="2827.63" y="-39.03" font-family="Times,serif" font-size="14.00">Methods: 0</text>
<text xml:space="preserve" text-anchor="middle" x="2827.63" y="-22.53" font-family="Times,serif" font-size="14.00">Attributes: 1</text>
</g>
<!-- XPDPerkinElmer&#45;&gt;PerkinElmerMulti -->
<g id="edge6" class="edge">
<title>XPDPerkinElmer&#45;&gt;PerkinElmerMulti</title>
<path fill="none" stroke="black" d="M1588.98,-226.68C1745.14,-211.21 2196.45,-164.35 2568.63,-104.65 2595.6,-100.33 2624.05,-95.23 2651.82,-89.96"/>
<polygon fill="black" stroke="black" points="2652.19,-93.46 2661.36,-88.14 2650.88,-86.58 2652.19,-93.46"/>
</g>
</g>
</svg>
