<?xml version="1.0" encoding="UTF-8" standalone="no"?>
<!DOCTYPE svg PUBLIC "-//W3C//DTD SVG 1.1//EN"
 "http://www.w3.org/Graphics/SVG/1.1/DTD/svg11.dtd">
<!-- Generated by graphviz version 14.0.0 (20250921.2048)
 -->
<!-- Pages: 1 -->
<svg width="2877pt" height="262pt"
 viewBox="0.00 0.00 2877.00 262.00" xmlns="http://www.w3.org/2000/svg" xmlns:xlink="http://www.w3.org/1999/xlink">
<g id="graph0" class="graph" transform="scale(1 1) rotate(0) translate(4 257.65)">
<polygon fill="white" stroke="none" points="-4,4 -4,-257.65 2873.25,-257.65 2873.25,4 -4,4"/>
<!-- XspressTrigger -->
<g id="node1" class="node">
<title>XspressTrigger</title>
<polygon fill="lightblue" stroke="lightblue" points="1491.46,-253.65 1392.21,-253.65 1392.21,-212.65 1491.46,-212.65 1491.46,-253.65"/>
<text xml:space="preserve" text-anchor="middle" x="1441.84" y="-236.35" font-family="Times,serif" font-size="14.00">XspressTrigger</text>
<text xml:space="preserve" text-anchor="middle" x="1441.84" y="-219.85" font-family="Times,serif" font-size="14.00">(Parent Class)</text>
</g>
<!-- QASXspress3XDetector -->
<g id="node2" class="node">
<title>QASXspress3XDetector</title>
<ellipse fill="none" stroke="black" cx="212.84" cy="-52.33" rx="212.84" ry="52.33"/>
<text xml:space="preserve" text-anchor="middle" x="212.84" y="-72.03" font-family="Times,serif" font-size="14.00">QASXspress3XDetector</text>
<text xml:space="preserve" text-anchor="middle" x="212.84" y="-55.53" font-family="Times,serif" font-size="14.00">File: ./qas&#45;profile&#45;collection/startup/41&#45;xspress3x.py</text>
<text xml:space="preserve" text-anchor="middle" x="212.84" y="-39.03" font-family="Times,serif" font-size="14.00">Methods: 9</text>
<text xml:space="preserve" text-anchor="middle" x="212.84" y="-22.53" font-family="Times,serif" font-size="14.00">Attributes: 50</text>
</g>
<!-- XspressTrigger&#45;&gt;QASXspress3XDetector -->
<g id="edge1" class="edge">
<title>XspressTrigger&#45;&gt;QASXspress3XDetector</title>
<path fill="none" stroke="black" d="M1391.93,-226.98C1247.45,-211.72 816.54,-164.2 461.84,-104.65 435.92,-100.3 408.59,-95.2 381.9,-89.93"/>
<polygon fill="black" stroke="black" points="382.89,-86.55 372.39,-88.03 381.52,-93.42 382.89,-86.55"/>
</g>
<!-- QASXspress3Detector -->
<g id="node3" class="node">
<title>QASXspress3Detector</title>
<ellipse fill="none" stroke="black" cx="705.84" cy="-52.33" rx="208.07" ry="52.33"/>
<text xml:space="preserve" text-anchor="middle" x="705.84" y="-72.03" font-family="Times,serif" font-size="14.00">QASXspress3Detector</text>
<text xml:space="preserve" text-anchor="middle" x="705.84" y="-55.53" font-family="Times,serif" font-size="14.00">File: ./qas&#45;profile&#45;collection/startup/40&#45;xspress3.py</text>
<text xml:space="preserve" text-anchor="middle" x="705.84" y="-39.03" font-family="Times,serif" font-size="14.00">Methods: 9</text>
<text xml:space="preserve" text-anchor="middle" x="705.84" y="-22.53" font-family="Times,serif" font-size="14.00">Attributes: 44</text>
</g>
<!-- XspressTrigger&#45;&gt;QASXspress3Detector -->
<g id="edge2" class="edge">
<title>XspressTrigger&#45;&gt;QASXspress3Detector</title>
<path fill="none" stroke="black" d="M1391.83,-220C1285.35,-194.13 1032.32,-132.65 865.14,-92.03"/>
<polygon fill="black" stroke="black" points="866.02,-88.64 855.48,-89.68 864.37,-95.45 866.02,-88.64"/>
</g>
<!-- SrxXspress3Detector -->
<g id="node4" class="node">
<title>SrxXspress3Detector</title>
<ellipse fill="none" stroke="black" cx="1196.84" cy="-52.33" rx="211.25" ry="52.33"/>
<text xml:space="preserve" text-anchor="middle" x="1196.84" y="-72.03" font-family="Times,serif" font-size="14.00">SrxXspress3Detector</text>
<text xml:space="preserve" text-anchor="middle" x="1196.84" y="-55.53" font-family="Times,serif" font-size="14.00">File: ./xfm&#45;profile&#45;collection/startup/30&#45;xspress3.py</text>
<text xml:space="preserve" text-anchor="middle" x="1196.84" y="-39.03" font-family="Times,serif" font-size="14.00">Methods: 3</text>
<text xml:space="preserve" text-anchor="middle" x="1196.84" y="-22.53" font-family="Times,serif" font-size="14.00">Attributes: 9</text>
</g>
<!-- XspressTrigger&#45;&gt;SrxXspress3Detector -->
<g id="edge3" class="edge">
<title>XspressTrigger&#45;&gt;SrxXspress3Detector</title>
<path fill="none" stroke="black" d="M1414.68,-212.33C1380.8,-187.6 1321.44,-144.28 1273.24,-109.09"/>
<polygon fill="black" stroke="black" points="1275.43,-106.36 1265.29,-103.29 1271.31,-112.01 1275.43,-106.36"/>
</g>
<!-- XspressTriggerFlyable -->
<g id="node5" class="node">
<title>XspressTriggerFlyable</title>
<ellipse fill="none" stroke="black" cx="1687.84" cy="-52.33" rx="207.54" ry="52.33"/>
<text xml:space="preserve" text-anchor="middle" x="1687.84" y="-72.03" font-family="Times,serif" font-size="14.00">XspressTriggerFlyable</text>
<text xml:space="preserve" text-anchor="middle" x="1687.84" y="-55.53" font-family="Times,serif" font-size="14.00">File: ./opls&#45;profile&#45;collection/startup/47&#45;xpress3.py</text>
<text xml:space="preserve" text-anchor="middle" x="1687.84" y="-39.03" font-family="Times,serif" font-size="14.00">Methods: 1</text>
<text xml:space="preserve" text-anchor="middle" x="1687.84" y="-22.53" font-family="Times,serif" font-size="14.00">Attributes: 4</text>
</g>
<!-- XspressTrigger&#45;&gt;XspressTriggerFlyable -->
<g id="edge4" class="edge">
<title>XspressTrigger&#45;&gt;XspressTriggerFlyable</title>
<path fill="none" stroke="black" d="M1469.11,-212.33C1503.19,-187.56 1562.93,-144.13 1611.38,-108.91"/>
<polygon fill="black" stroke="black" points="1613.34,-111.81 1619.37,-103.1 1609.22,-106.15 1613.34,-111.81"/>
</g>
<!-- CHXXspress3Detector -->
<g id="node6" class="node">
<title>CHXXspress3Detector</title>
<ellipse fill="none" stroke="black" cx="2176.84" cy="-52.33" rx="209.13" ry="52.33"/>
<text xml:space="preserve" text-anchor="middle" x="2176.84" y="-72.03" font-family="Times,serif" font-size="14.00">CHXXspress3Detector</text>
<text xml:space="preserve" text-anchor="middle" x="2176.84" y="-55.53" font-family="Times,serif" font-size="14.00">File: ./chx&#45;profile&#45;collection/startup/98&#45;xspress3.py</text>
<text xml:space="preserve" text-anchor="middle" x="2176.84" y="-39.03" font-family="Times,serif" font-size="14.00">Methods: 0</text>
<text xml:space="preserve" text-anchor="middle" x="2176.84" y="-22.53" font-family="Times,serif" font-size="14.00">Attributes: 2</text>
</g>
<!-- XspressTrigger&#45;&gt;CHXXspress3Detector -->
<g id="edge5" class="edge">
<title>XspressTrigger&#45;&gt;CHXXspress3Detector</title>
<path fill="none" stroke="black" d="M1491.78,-220C1597.96,-194.17 1850.05,-132.83 2017.01,-92.21"/>
<polygon fill="black" stroke="black" points="2017.77,-95.63 2026.66,-89.87 2016.11,-88.83 2017.77,-95.63"/>
</g>
<!-- ISSXspress3Detector -->
<g id="node7" class="node">
<title>ISSXspress3Detector</title>
<ellipse fill="none" stroke="black" cx="2663.84" cy="-52.33" rx="205.41" ry="52.33"/>
<text xml:space="preserve" text-anchor="middle" x="2663.84" y="-72.03" font-family="Times,serif" font-size="14.00">ISSXspress3Detector</text>
<text xml:space="preserve" text-anchor="middle" x="2663.84" y="-55.53" font-family="Times,serif" font-size="14.00">File: ./iss&#45;profile&#45;collection/startup/38&#45;xspress3.py</text>
<text xml:space="preserve" text-anchor="middle" x="2663.84" y="-39.03" font-family="Times,serif" font-size="14.00">Methods: 11</text>
<text xml:space="preserve" text-anchor="middle" x="2663.84" y="-22.53" font-family="Times,serif" font-size="14.00">Attributes: 32</text>
</g>
<!-- XspressTrigger&#45;&gt;ISSXspress3Detector -->
<g id="edge6" class="edge">
<title>XspressTrigger&#45;&gt;ISSXspress3Detector</title>
<path fill="none" stroke="black" d="M1491.76,-227.08C1636.29,-212.08 2067.31,-165.21 2421.84,-104.65 2447.12,-100.33 2473.78,-95.24 2499.79,-89.96"/>
<polygon fill="black" stroke="black" points="2500.31,-93.42 2509.41,-87.99 2498.91,-86.57 2500.31,-93.42"/>
</g>
</g>
</svg>
