<?xml version="1.0" encoding="UTF-8" standalone="no"?>
<!DOCTYPE svg PUBLIC "-//W3C//DTD SVG 1.1//EN"
 "http://www.w3.org/Graphics/SVG/1.1/DTD/svg11.dtd">
<!-- Generated by graphviz version 14.0.0 (20250921.2048)
 -->
<!-- Pages: 1 -->
<svg width="954pt" height="262pt"
 viewBox="0.00 0.00 954.00 262.00" xmlns="http://www.w3.org/2000/svg" xmlns:xlink="http://www.w3.org/1999/xlink">
<g id="graph0" class="graph" transform="scale(1 1) rotate(0) translate(4 257.65)">
<polygon fill="white" stroke="none" points="-4,4 -4,-257.65 950.35,-257.65 950.35,4 -4,4"/>
<!-- Xspress3Trigger -->
<g id="node1" class="node">
<title>Xspress3Trigger</title>
<polygon fill="lightblue" stroke="lightblue" points="537.34,-253.65 431.34,-253.65 431.34,-212.65 537.34,-212.65 537.34,-253.65"/>
<text xml:space="preserve" text-anchor="middle" x="484.34" y="-236.35" font-family="Times,serif" font-size="14.00">Xspress3Trigger</text>
<text xml:space="preserve" text-anchor="middle" x="484.34" y="-219.85" font-family="Times,serif" font-size="14.00">(Parent Class)</text>
</g>
<!-- BMMXspress3DetectorBase -->
<g id="node2" class="node">
<title>BMMXspress3DetectorBase</title>
<ellipse fill="none" stroke="black" cx="230.34" cy="-52.33" rx="230.34" ry="52.33"/>
<text xml:space="preserve" text-anchor="middle" x="230.34" y="-72.03" font-family="Times,serif" font-size="14.00">BMMXspress3DetectorBase</text>
<text xml:space="preserve" text-anchor="middle" x="230.34" y="-55.53" font-family="Times,serif" font-size="14.00">File: ./bmm&#45;profile&#45;collection/startup/BMM/xspress3.py</text>
<text xml:space="preserve" text-anchor="middle" x="230.34" y="-39.03" font-family="Times,serif" font-size="14.00">Methods: 25</text>
<text xml:space="preserve" text-anchor="middle" x="230.34" y="-22.53" font-family="Times,serif" font-size="14.00">Attributes: 44</text>
</g>
<!-- Xspress3Trigger&#45;&gt;BMMXspress3DetectorBase -->
<g id="edge1" class="edge">
<title>Xspress3Trigger&#45;&gt;BMMXspress3DetectorBase</title>
<path fill="none" stroke="black" d="M456.19,-212.33C421.05,-187.59 359.48,-144.25 309.5,-109.05"/>
<polygon fill="black" stroke="black" points="311.74,-106.35 301.54,-103.46 307.71,-112.07 311.74,-106.35"/>
</g>
<!-- CommunitySRXXspressTrigger -->
<g id="node3" class="node">
<title>CommunitySRXXspressTrigger</title>
<ellipse fill="none" stroke="black" cx="739.34" cy="-52.33" rx="207.01" ry="52.33"/>
<text xml:space="preserve" text-anchor="middle" x="739.34" y="-72.03" font-family="Times,serif" font-size="14.00">CommunitySRXXspressTrigger</text>
<text xml:space="preserve" text-anchor="middle" x="739.34" y="-55.53" font-family="Times,serif" font-size="14.00">File: ./srx&#45;profile&#45;collection/startup/31&#45;xspress3.py</text>
<text xml:space="preserve" text-anchor="middle" x="739.34" y="-39.03" font-family="Times,serif" font-size="14.00">Methods: 1</text>
<text xml:space="preserve" text-anchor="middle" x="739.34" y="-22.53" font-family="Times,serif" font-size="14.00">Attributes: 4</text>
</g>
<!-- Xspress3Trigger&#45;&gt;CommunitySRXXspressTrigger -->
<g id="edge2" class="edge">
<title>Xspress3Trigger&#45;&gt;CommunitySRXXspressTrigger</title>
<path fill="none" stroke="black" d="M512.6,-212.33C548.07,-187.46 610.33,-143.8 660.65,-108.51"/>
<polygon fill="black" stroke="black" points="662.48,-111.5 668.66,-102.89 658.46,-105.77 662.48,-111.5"/>
</g>
</g>
</svg>
