<?xml version="1.0" encoding="UTF-8" standalone="no"?>
<!DOCTYPE svg PUBLIC "-//W3C//DTD SVG 1.1//EN"
 "http://www.w3.org/Graphics/SVG/1.1/DTD/svg11.dtd">
<!-- Generated by graphviz version 14.0.0 (20250921.2048)
 -->
<!-- Pages: 1 -->
<svg width="1409pt" height="262pt"
 viewBox="0.00 0.00 1409.00 262.00" xmlns="http://www.w3.org/2000/svg" xmlns:xlink="http://www.w3.org/1999/xlink">
<g id="graph0" class="graph" transform="scale(1 1) rotate(0) translate(4 257.65)">
<polygon fill="white" stroke="none" points="-4,4 -4,-257.65 1404.91,-257.65 1404.91,4 -4,4"/>
<!-- Xspress3HDF5Handler -->
<g id="node1" class="node">
<title>Xspress3HDF5Handler</title>
<polygon fill="lightblue" stroke="lightblue" points="776.21,-253.65 633.46,-253.65 633.46,-212.65 776.21,-212.65 776.21,-253.65"/>
<text xml:space="preserve" text-anchor="middle" x="704.84" y="-236.35" font-family="Times,serif" font-size="14.00">Xspress3HDF5Handler</text>
<text xml:space="preserve" text-anchor="middle" x="704.84" y="-219.85" font-family="Times,serif" font-size="14.00">(Parent Class)</text>
</g>
<!-- QASXspress3XHDF5Handler -->
<g id="node2" class="node">
<title>QASXspress3XHDF5Handler</title>
<ellipse fill="none" stroke="black" cx="212.84" cy="-52.33" rx="212.84" ry="52.33"/>
<text xml:space="preserve" text-anchor="middle" x="212.84" y="-72.03" font-family="Times,serif" font-size="14.00">QASXspress3XHDF5Handler</text>
<text xml:space="preserve" text-anchor="middle" x="212.84" y="-55.53" font-family="Times,serif" font-size="14.00">File: ./qas&#45;profile&#45;collection/startup/41&#45;xspress3x.py</text>
<text xml:space="preserve" text-anchor="middle" x="212.84" y="-39.03" font-family="Times,serif" font-size="14.00">Methods: 3</text>
<text xml:space="preserve" text-anchor="middle" x="212.84" y="-22.53" font-family="Times,serif" font-size="14.00">Attributes: 8</text>
</g>
<!-- Xspress3HDF5Handler&#45;&gt;QASXspress3XHDF5Handler -->
<g id="edge1" class="edge">
<title>Xspress3HDF5Handler&#45;&gt;QASXspress3XHDF5Handler</title>
<path fill="none" stroke="black" d="M649.83,-212.16C575.8,-185.25 441.84,-136.56 341.68,-100.16"/>
<polygon fill="black" stroke="black" points="342.89,-96.87 332.3,-96.74 340.5,-103.45 342.89,-96.87"/>
</g>
<!-- QASXspress3HDF5Handler -->
<g id="node3" class="node">
<title>QASXspress3HDF5Handler</title>
<ellipse fill="none" stroke="black" cx="704.84" cy="-52.33" rx="207.54" ry="52.33"/>
<text xml:space="preserve" text-anchor="middle" x="704.84" y="-72.03" font-family="Times,serif" font-size="14.00">QASXspress3HDF5Handler</text>
<text xml:space="preserve" text-anchor="middle" x="704.84" y="-55.53" font-family="Times,serif" font-size="14.00">File: ./qas&#45;profile&#45;collection/startup/11&#45;handlers.py</text>
<text xml:space="preserve" text-anchor="middle" x="704.84" y="-39.03" font-family="Times,serif" font-size="14.00">Methods: 1</text>
<text xml:space="preserve" text-anchor="middle" x="704.84" y="-22.53" font-family="Times,serif" font-size="14.00">Attributes: 5</text>
</g>
<!-- Xspress3HDF5Handler&#45;&gt;QASXspress3HDF5Handler -->
<g id="edge2" class="edge">
<title>Xspress3HDF5Handler&#45;&gt;QASXspress3HDF5Handler</title>
<path fill="none" stroke="black" d="M704.84,-212.33C704.84,-189.21 704.84,-149.84 704.84,-116.06"/>
<polygon fill="black" stroke="black" points="708.34,-116.37 704.84,-106.37 701.34,-116.37 708.34,-116.37"/>
</g>
<!-- QASXspress3HDF5Handler_light -->
<g id="node4" class="node">
<title>QASXspress3HDF5Handler_light</title>
<ellipse fill="none" stroke="black" cx="1192.84" cy="-52.33" rx="208.07" ry="52.33"/>
<text xml:space="preserve" text-anchor="middle" x="1192.84" y="-72.03" font-family="Times,serif" font-size="14.00">QASXspress3HDF5Handler_light</text>
<text xml:space="preserve" text-anchor="middle" x="1192.84" y="-55.53" font-family="Times,serif" font-size="14.00">File: ./qas&#45;profile&#45;collection/startup/40&#45;xspress3.py</text>
<text xml:space="preserve" text-anchor="middle" x="1192.84" y="-39.03" font-family="Times,serif" font-size="14.00">Methods: 3</text>
<text xml:space="preserve" text-anchor="middle" x="1192.84" y="-22.53" font-family="Times,serif" font-size="14.00">Attributes: 6</text>
</g>
<!-- Xspress3HDF5Handler&#45;&gt;QASXspress3HDF5Handler_light -->
<g id="edge3" class="edge">
<title>Xspress3HDF5Handler&#45;&gt;QASXspress3HDF5Handler_light</title>
<path fill="none" stroke="black" d="M759.4,-212.16C832.95,-185.21 966.14,-136.4 1065.53,-99.98"/>
<polygon fill="black" stroke="black" points="1066.65,-103.3 1074.83,-96.57 1064.24,-96.72 1066.65,-103.3"/>
</g>
</g>
</svg>
