<?xml version="1.0" encoding="UTF-8" standalone="no"?>
<!DOCTYPE svg PUBLIC "-//W3C//DTD SVG 1.1//EN"
 "http://www.w3.org/Graphics/SVG/1.1/DTD/svg11.dtd">
<!-- Generated by graphviz version 14.0.0 (20250921.2048)
 -->
<!-- Pages: 1 -->
<svg width="1438pt" height="262pt"
 viewBox="0.00 0.00 1438.00 262.00" xmlns="http://www.w3.org/2000/svg" xmlns:xlink="http://www.w3.org/1999/xlink">
<g id="graph0" class="graph" transform="scale(1 1) rotate(0) translate(4 257.65)">
<polygon fill="white" stroke="none" points="-4,4 -4,-257.65 1433.95,-257.65 1433.95,4 -4,4"/>
<!-- Xspress3HDF5Plugin -->
<g id="node1" class="node">
<title>Xspress3HDF5Plugin</title>
<polygon fill="lightblue" stroke="lightblue" points="781.19,-253.65 646.69,-253.65 646.69,-212.65 781.19,-212.65 781.19,-253.65"/>
<text xml:space="preserve" text-anchor="middle" x="713.94" y="-236.35" font-family="Times,serif" font-size="14.00">Xspress3HDF5Plugin</text>
<text xml:space="preserve" text-anchor="middle" x="713.94" y="-219.85" font-family="Times,serif" font-size="14.00">(Parent Class)</text>
</g>
<!-- TESXspress3DetectorHDF5Plugin -->
<g id="node2" class="node">
<title>TESXspress3DetectorHDF5Plugin</title>
<ellipse fill="none" stroke="black" cx="205.94" cy="-52.33" rx="205.94" ry="52.33"/>
<text xml:space="preserve" text-anchor="middle" x="205.94" y="-72.03" font-family="Times,serif" font-size="14.00">TESXspress3DetectorHDF5Plugin</text>
<text xml:space="preserve" text-anchor="middle" x="205.94" y="-55.53" font-family="Times,serif" font-size="14.00">File: ./tes&#45;profile&#45;collection/startup/27&#45;xspress3.py</text>
<text xml:space="preserve" text-anchor="middle" x="205.94" y="-39.03" font-family="Times,serif" font-size="14.00">Methods: 2</text>
<text xml:space="preserve" text-anchor="middle" x="205.94" y="-22.53" font-family="Times,serif" font-size="14.00">Attributes: 4</text>
</g>
<!-- Xspress3HDF5Plugin&#45;&gt;TESXspress3DetectorHDF5Plugin -->
<g id="edge1" class="edge">
<title>Xspress3HDF5Plugin&#45;&gt;TESXspress3DetectorHDF5Plugin</title>
<path fill="none" stroke="black" d="M657.15,-212.16C579.93,-184.98 439.56,-135.56 335.82,-99.05"/>
<polygon fill="black" stroke="black" points="337.29,-95.85 326.69,-95.83 334.97,-102.45 337.29,-95.85"/>
</g>
<!-- BMMXspress3HDF5Plugin -->
<g id="node3" class="node">
<title>BMMXspress3HDF5Plugin</title>
<ellipse fill="none" stroke="black" cx="713.94" cy="-52.33" rx="230.34" ry="52.33"/>
<text xml:space="preserve" text-anchor="middle" x="713.94" y="-72.03" font-family="Times,serif" font-size="14.00">BMMXspress3HDF5Plugin</text>
<text xml:space="preserve" text-anchor="middle" x="713.94" y="-55.53" font-family="Times,serif" font-size="14.00">File: ./bmm&#45;profile&#45;collection/startup/BMM/xspress3.py</text>
<text xml:space="preserve" text-anchor="middle" x="713.94" y="-39.03" font-family="Times,serif" font-size="14.00">Methods: 7</text>
<text xml:space="preserve" text-anchor="middle" x="713.94" y="-22.53" font-family="Times,serif" font-size="14.00">Attributes: 4</text>
</g>
<!-- Xspress3HDF5Plugin&#45;&gt;BMMXspress3HDF5Plugin -->
<g id="edge2" class="edge">
<title>Xspress3HDF5Plugin&#45;&gt;BMMXspress3HDF5Plugin</title>
<path fill="none" stroke="black" d="M713.94,-212.33C713.94,-189.21 713.94,-149.84 713.94,-116.06"/>
<polygon fill="black" stroke="black" points="717.44,-116.37 713.94,-106.37 710.44,-116.37 717.44,-116.37"/>
</g>
<!-- Xspress3HDF5PluginWithRedis -->
<g id="node4" class="node">
<title>Xspress3HDF5PluginWithRedis</title>
<ellipse fill="none" stroke="black" cx="1222.94" cy="-52.33" rx="207.01" ry="52.33"/>
<text xml:space="preserve" text-anchor="middle" x="1222.94" y="-72.03" font-family="Times,serif" font-size="14.00">Xspress3HDF5PluginWithRedis</text>
<text xml:space="preserve" text-anchor="middle" x="1222.94" y="-55.53" font-family="Times,serif" font-size="14.00">File: ./srx&#45;profile&#45;collection/startup/31&#45;xspress3.py</text>
<text xml:space="preserve" text-anchor="middle" x="1222.94" y="-39.03" font-family="Times,serif" font-size="14.00">Methods: 4</text>
<text xml:space="preserve" text-anchor="middle" x="1222.94" y="-22.53" font-family="Times,serif" font-size="14.00">Attributes: 4</text>
</g>
<!-- Xspress3HDF5Plugin&#45;&gt;Xspress3HDF5PluginWithRedis -->
<g id="edge3" class="edge">
<title>Xspress3HDF5Plugin&#45;&gt;Xspress3HDF5PluginWithRedis</title>
<path fill="none" stroke="black" d="M770.85,-212.16C848.16,-185 988.64,-135.64 1092.56,-99.13"/>
<polygon fill="black" stroke="black" points="1093.43,-102.54 1101.7,-95.92 1091.11,-95.93 1093.43,-102.54"/>
</g>
</g>
</svg>
