<?xml version="1.0" encoding="UTF-8" standalone="no"?>
<!DOCTYPE svg PUBLIC "-//W3C//DTD SVG 1.1//EN"
 "http://www.w3.org/Graphics/SVG/1.1/DTD/svg11.dtd">
<!-- Generated by graphviz version 14.0.0 (20250921.2048)
 -->
<!-- Pages: 1 -->
<svg width="2912pt" height="262pt"
 viewBox="0.00 0.00 2912.00 262.00" xmlns="http://www.w3.org/2000/svg" xmlns:xlink="http://www.w3.org/1999/xlink">
<g id="graph0" class="graph" transform="scale(1 1) rotate(0) translate(4 257.65)">
<polygon fill="white" stroke="none" points="-4,4 -4,-257.65 2908.48,-257.65 2908.48,4 -4,4"/>
<!-- Xspress3Detector -->
<g id="node1" class="node">
<title>Xspress3Detector</title>
<polygon fill="lightblue" stroke="lightblue" points="1524.07,-253.65 1412.07,-253.65 1412.07,-212.65 1524.07,-212.65 1524.07,-253.65"/>
<text xml:space="preserve" text-anchor="middle" x="1468.07" y="-236.35" font-family="Times,serif" font-size="14.00">Xspress3Detector</text>
<text xml:space="preserve" text-anchor="middle" x="1468.07" y="-219.85" font-family="Times,serif" font-size="14.00">(Parent Class)</text>
</g>
<!-- QASXspress3Detector -->
<g id="node2" class="node">
<title>QASXspress3Detector</title>
<ellipse fill="none" stroke="black" cx="208.07" cy="-52.33" rx="208.07" ry="52.33"/>
<text xml:space="preserve" text-anchor="middle" x="208.07" y="-72.03" font-family="Times,serif" font-size="14.00">QASXspress3Detector</text>
<text xml:space="preserve" text-anchor="middle" x="208.07" y="-55.53" font-family="Times,serif" font-size="14.00">File: ./qas&#45;profile&#45;collection/startup/40&#45;xspress3.py</text>
<text xml:space="preserve" text-anchor="middle" x="208.07" y="-39.03" font-family="Times,serif" font-size="14.00">Methods: 9</text>
<text xml:space="preserve" text-anchor="middle" x="208.07" y="-22.53" font-family="Times,serif" font-size="14.00">Attributes: 44</text>
</g>
<!-- Xspress3Detector&#45;&gt;QASXspress3Detector -->
<g id="edge1" class="edge">
<title>Xspress3Detector&#45;&gt;QASXspress3Detector</title>
<path fill="none" stroke="black" d="M1411.66,-226.72C1257.41,-211.52 815.87,-165.64 452.07,-104.65 426.57,-100.38 399.69,-95.31 373.46,-90.04"/>
<polygon fill="black" stroke="black" points="374.25,-86.63 363.75,-88.07 372.86,-93.49 374.25,-86.63"/>
</g>
<!-- SrxXspress3Detector -->
<g id="node3" class="node">
<title>SrxXspress3Detector</title>
<ellipse fill="none" stroke="black" cx="699.07" cy="-52.33" rx="211.25" ry="52.33"/>
<text xml:space="preserve" text-anchor="middle" x="699.07" y="-72.03" font-family="Times,serif" font-size="14.00">SrxXspress3Detector</text>
<text xml:space="preserve" text-anchor="middle" x="699.07" y="-55.53" font-family="Times,serif" font-size="14.00">File: ./xfm&#45;profile&#45;collection/startup/30&#45;xspress3.py</text>
<text xml:space="preserve" text-anchor="middle" x="699.07" y="-39.03" font-family="Times,serif" font-size="14.00">Methods: 3</text>
<text xml:space="preserve" text-anchor="middle" x="699.07" y="-22.53" font-family="Times,serif" font-size="14.00">Attributes: 9</text>
</g>
<!-- Xspress3Detector&#45;&gt;SrxXspress3Detector -->
<g id="edge2" class="edge">
<title>Xspress3Detector&#45;&gt;SrxXspress3Detector</title>
<path fill="none" stroke="black" d="M1411.83,-219.07C1297.77,-192.55 1035.4,-131.54 862.8,-91.4"/>
<polygon fill="black" stroke="black" points="863.83,-88.05 853.3,-89.19 862.24,-94.87 863.83,-88.05"/>
</g>
<!-- BMMXspress3DetectorBase -->
<g id="node4" class="node">
<title>BMMXspress3DetectorBase</title>
<ellipse fill="none" stroke="black" cx="1213.07" cy="-52.33" rx="230.34" ry="52.33"/>
<text xml:space="preserve" text-anchor="middle" x="1213.07" y="-72.03" font-family="Times,serif" font-size="14.00">BMMXspress3DetectorBase</text>
<text xml:space="preserve" text-anchor="middle" x="1213.07" y="-55.53" font-family="Times,serif" font-size="14.00">File: ./bmm&#45;profile&#45;collection/startup/BMM/xspress3.py</text>
<text xml:space="preserve" text-anchor="middle" x="1213.07" y="-39.03" font-family="Times,serif" font-size="14.00">Methods: 25</text>
<text xml:space="preserve" text-anchor="middle" x="1213.07" y="-22.53" font-family="Times,serif" font-size="14.00">Attributes: 44</text>
</g>
<!-- Xspress3Detector&#45;&gt;BMMXspress3DetectorBase -->
<g id="edge3" class="edge">
<title>Xspress3Detector&#45;&gt;BMMXspress3DetectorBase</title>
<path fill="none" stroke="black" d="M1439.8,-212.33C1404.52,-187.59 1342.71,-144.25 1292.53,-109.05"/>
<polygon fill="black" stroke="black" points="1294.74,-106.33 1284.55,-103.45 1290.72,-112.06 1294.74,-106.33"/>
</g>
<!-- OPLSXspress3Detector -->
<g id="node5" class="node">
<title>OPLSXspress3Detector</title>
<ellipse fill="none" stroke="black" cx="1723.07" cy="-52.33" rx="207.54" ry="52.33"/>
<text xml:space="preserve" text-anchor="middle" x="1723.07" y="-72.03" font-family="Times,serif" font-size="14.00">OPLSXspress3Detector</text>
<text xml:space="preserve" text-anchor="middle" x="1723.07" y="-55.53" font-family="Times,serif" font-size="14.00">File: ./opls&#45;profile&#45;collection/startup/47&#45;xpress3.py</text>
<text xml:space="preserve" text-anchor="middle" x="1723.07" y="-39.03" font-family="Times,serif" font-size="14.00">Methods: 4</text>
<text xml:space="preserve" text-anchor="middle" x="1723.07" y="-22.53" font-family="Times,serif" font-size="14.00">Attributes: 14</text>
</g>
<!-- Xspress3Detector&#45;&gt;OPLSXspress3Detector -->
<g id="edge4" class="edge">
<title>Xspress3Detector&#45;&gt;OPLSXspress3Detector</title>
<path fill="none" stroke="black" d="M1496.33,-212.33C1531.79,-187.46 1594.06,-143.8 1644.38,-108.51"/>
<polygon fill="black" stroke="black" points="1646.21,-111.5 1652.39,-102.89 1642.19,-105.77 1646.21,-111.5"/>
</g>
<!-- CHXXspress3Detector -->
<g id="node6" class="node">
<title>CHXXspress3Detector</title>
<ellipse fill="none" stroke="black" cx="2212.07" cy="-52.33" rx="209.13" ry="52.33"/>
<text xml:space="preserve" text-anchor="middle" x="2212.07" y="-72.03" font-family="Times,serif" font-size="14.00">CHXXspress3Detector</text>
<text xml:space="preserve" text-anchor="middle" x="2212.07" y="-55.53" font-family="Times,serif" font-size="14.00">File: ./chx&#45;profile&#45;collection/startup/98&#45;xspress3.py</text>
<text xml:space="preserve" text-anchor="middle" x="2212.07" y="-39.03" font-family="Times,serif" font-size="14.00">Methods: 0</text>
<text xml:space="preserve" text-anchor="middle" x="2212.07" y="-22.53" font-family="Times,serif" font-size="14.00">Attributes: 2</text>
</g>
<!-- Xspress3Detector&#45;&gt;CHXXspress3Detector -->
<g id="edge5" class="edge">
<title>Xspress3Detector&#45;&gt;CHXXspress3Detector</title>
<path fill="none" stroke="black" d="M1524.29,-218.64C1635.18,-191.99 1885.69,-131.77 2051.78,-91.85"/>
<polygon fill="black" stroke="black" points="2052.22,-95.35 2061.12,-89.61 2050.58,-88.54 2052.22,-95.35"/>
</g>
<!-- ISSXspress3Detector -->
<g id="node7" class="node">
<title>ISSXspress3Detector</title>
<ellipse fill="none" stroke="black" cx="2699.07" cy="-52.33" rx="205.41" ry="52.33"/>
<text xml:space="preserve" text-anchor="middle" x="2699.07" y="-72.03" font-family="Times,serif" font-size="14.00">ISSXspress3Detector</text>
<text xml:space="preserve" text-anchor="middle" x="2699.07" y="-55.53" font-family="Times,serif" font-size="14.00">File: ./iss&#45;profile&#45;collection/startup/38&#45;xspress3.py</text>
<text xml:space="preserve" text-anchor="middle" x="2699.07" y="-39.03" font-family="Times,serif" font-size="14.00">Methods: 11</text>
<text xml:space="preserve" text-anchor="middle" x="2699.07" y="-22.53" font-family="Times,serif" font-size="14.00">Attributes: 32</text>
</g>
<!-- Xspress3Detector&#45;&gt;ISSXspress3Detector -->
<g id="edge6" class="edge">
<title>Xspress3Detector&#45;&gt;ISSXspress3Detector</title>
<path fill="none" stroke="black" d="M1524.34,-226.51C1675.71,-210.98 2104,-164.75 2457.07,-104.65 2482.44,-100.33 2509.2,-95.22 2535.31,-89.93"/>
<polygon fill="black" stroke="black" points="2535.87,-93.38 2544.97,-87.95 2534.47,-86.53 2535.87,-93.38"/>
</g>
</g>
</svg>
