<?xml version="1.0" encoding="UTF-8" standalone="no"?>
<!DOCTYPE svg PUBLIC "-//W3C//DTD SVG 1.1//EN"
 "http://www.w3.org/Graphics/SVG/1.1/DTD/svg11.dtd">
<!-- Generated by graphviz version 14.0.0 (20250921.2048)
 -->
<!-- Pages: 1 -->
<svg width="910pt" height="262pt"
 viewBox="0.00 0.00 910.00 262.00" xmlns="http://www.w3.org/2000/svg" xmlns:xlink="http://www.w3.org/1999/xlink">
<g id="graph0" class="graph" transform="scale(1 1) rotate(0) translate(4 257.65)">
<polygon fill="white" stroke="none" points="-4,4 -4,-257.65 906.07,-257.65 906.07,4 -4,4"/>
<!-- Xspress3FileStore -->
<g id="node1" class="node">
<title>Xspress3FileStore</title>
<polygon fill="lightblue" stroke="lightblue" points="505.91,-253.65 390.91,-253.65 390.91,-212.65 505.91,-212.65 505.91,-253.65"/>
<text xml:space="preserve" text-anchor="middle" x="448.41" y="-236.35" font-family="Times,serif" font-size="14.00">Xspress3FileStore</text>
<text xml:space="preserve" text-anchor="middle" x="448.41" y="-219.85" font-family="Times,serif" font-size="14.00">(Parent Class)</text>
</g>
<!-- Xspress3FileStoreFlyable -->
<g id="node2" class="node">
<title>Xspress3FileStoreFlyable</title>
<ellipse fill="none" stroke="black" cx="205.41" cy="-52.33" rx="205.41" ry="52.33"/>
<text xml:space="preserve" text-anchor="middle" x="205.41" y="-72.03" font-family="Times,serif" font-size="14.00">Xspress3FileStoreFlyable</text>
<text xml:space="preserve" text-anchor="middle" x="205.41" y="-55.53" font-family="Times,serif" font-size="14.00">File: ./iss&#45;profile&#45;collection/startup/38&#45;xspress3.py</text>
<text xml:space="preserve" text-anchor="middle" x="205.41" y="-39.03" font-family="Times,serif" font-size="14.00">Methods: 1</text>
<text xml:space="preserve" text-anchor="middle" x="205.41" y="-22.53" font-family="Times,serif" font-size="14.00">Attributes: 2</text>
</g>
<!-- Xspress3FileStore&#45;&gt;Xspress3FileStoreFlyable -->
<g id="edge1" class="edge">
<title>Xspress3FileStore&#45;&gt;Xspress3FileStoreFlyable</title>
<path fill="none" stroke="black" d="M421.48,-212.33C387.82,-187.56 328.8,-144.13 280.94,-108.91"/>
<polygon fill="black" stroke="black" points="283.19,-106.21 273.06,-103.11 279.04,-111.85 283.19,-106.21"/>
</g>
<!-- Xspress3FileStoreHXN -->
<g id="node3" class="node">
<title>Xspress3FileStoreHXN</title>
<ellipse fill="none" stroke="black" cx="692.41" cy="-52.33" rx="209.66" ry="52.33"/>
<text xml:space="preserve" text-anchor="middle" x="692.41" y="-72.03" font-family="Times,serif" font-size="14.00">Xspress3FileStoreHXN</text>
<text xml:space="preserve" text-anchor="middle" x="692.41" y="-55.53" font-family="Times,serif" font-size="14.00">File: ./hxn&#45;profile&#45;collection/startup/21&#45;xspress3.py</text>
<text xml:space="preserve" text-anchor="middle" x="692.41" y="-39.03" font-family="Times,serif" font-size="14.00">Methods: 2</text>
<text xml:space="preserve" text-anchor="middle" x="692.41" y="-22.53" font-family="Times,serif" font-size="14.00">Attributes: 9</text>
</g>
<!-- Xspress3FileStore&#45;&gt;Xspress3FileStoreHXN -->
<g id="edge2" class="edge">
<title>Xspress3FileStore&#45;&gt;Xspress3FileStoreHXN</title>
<path fill="none" stroke="black" d="M475.46,-212.33C509.21,-187.6 568.32,-144.28 616.33,-109.09"/>
<polygon fill="black" stroke="black" points="618.24,-112.03 624.24,-103.29 614.1,-106.38 618.24,-112.03"/>
</g>
</g>
</svg>
