<?xml version="1.0" encoding="UTF-8" standalone="no"?>
<!DOCTYPE svg PUBLIC "-//W3C//DTD SVG 1.1//EN"
 "http://www.w3.org/Graphics/SVG/1.1/DTD/svg11.dtd">
<!-- Generated by graphviz version 14.0.0 (20250921.2048)
 -->
<!-- Pages: 1 -->
<svg width="1002pt" height="262pt"
 viewBox="0.00 0.00 1002.00 262.00" xmlns="http://www.w3.org/2000/svg" xmlns:xlink="http://www.w3.org/1999/xlink">
<g id="graph0" class="graph" transform="scale(1 1) rotate(0) translate(4 257.65)">
<polygon fill="white" stroke="none" points="-4,4 -4,-257.65 997.68,-257.65 997.68,4 -4,4"/>
<!-- xspress3_class_4ch -->
<g id="node1" class="node">
<title>xspress3_class_4ch</title>
<polygon fill="lightblue" stroke="lightblue" points="532.82,-253.65 411.07,-253.65 411.07,-212.65 532.82,-212.65 532.82,-253.65"/>
<text xml:space="preserve" text-anchor="middle" x="471.94" y="-236.35" font-family="Times,serif" font-size="14.00">xspress3_class_4ch</text>
<text xml:space="preserve" text-anchor="middle" x="471.94" y="-219.85" font-family="Times,serif" font-size="14.00">(Parent Class)</text>
</g>
<!-- TESXspress3Detector4CH -->
<g id="node2" class="node">
<title>TESXspress3Detector4CH</title>
<ellipse fill="none" stroke="black" cx="205.94" cy="-52.33" rx="205.94" ry="52.33"/>
<text xml:space="preserve" text-anchor="middle" x="205.94" y="-72.03" font-family="Times,serif" font-size="14.00">TESXspress3Detector4CH</text>
<text xml:space="preserve" text-anchor="middle" x="205.94" y="-55.53" font-family="Times,serif" font-size="14.00">File: ./tes&#45;profile&#45;collection/startup/27&#45;xspress3.py</text>
<text xml:space="preserve" text-anchor="middle" x="205.94" y="-39.03" font-family="Times,serif" font-size="14.00">Methods: 4</text>
<text xml:space="preserve" text-anchor="middle" x="205.94" y="-22.53" font-family="Times,serif" font-size="14.00">Attributes: 9</text>
</g>
<!-- xspress3_class_4ch&#45;&gt;TESXspress3Detector4CH -->
<g id="edge1" class="edge">
<title>xspress3_class_4ch&#45;&gt;TESXspress3Detector4CH</title>
<path fill="none" stroke="black" d="M442.21,-212.16C404.99,-187.14 339.76,-143.29 287.26,-107.99"/>
<polygon fill="black" stroke="black" points="289.46,-105.25 279.21,-102.58 285.55,-111.06 289.46,-105.25"/>
</g>
<!-- LiXXspress -->
<g id="node3" class="node">
<title>LiXXspress</title>
<ellipse fill="none" stroke="black" cx="738.94" cy="-52.33" rx="254.74" ry="52.33"/>
<text xml:space="preserve" text-anchor="middle" x="738.94" y="-72.03" font-family="Times,serif" font-size="14.00">LiXXspress</text>
<text xml:space="preserve" text-anchor="middle" x="738.94" y="-55.53" font-family="Times,serif" font-size="14.00">File: ./lix&#45;profile&#45;collection/startup/components/20&#45;xspress3.py</text>
<text xml:space="preserve" text-anchor="middle" x="738.94" y="-39.03" font-family="Times,serif" font-size="14.00">Methods: 13</text>
<text xml:space="preserve" text-anchor="middle" x="738.94" y="-22.53" font-family="Times,serif" font-size="14.00">Attributes: 22</text>
</g>
<!-- xspress3_class_4ch&#45;&gt;LiXXspress -->
<g id="edge2" class="edge">
<title>xspress3_class_4ch&#45;&gt;LiXXspress</title>
<path fill="none" stroke="black" d="M501.8,-212.16C538.77,-187.4 603.28,-144.19 655.69,-109.09"/>
<polygon fill="black" stroke="black" points="657.37,-112.17 663.73,-103.7 653.48,-106.36 657.37,-112.17"/>
</g>
</g>
</svg>
