<?xml version="1.0" encoding="UTF-8" standalone="no"?>
<!DOCTYPE svg PUBLIC "-//W3C//DTD SVG 1.1//EN"
 "http://www.w3.org/Graphics/SVG/1.1/DTD/svg11.dtd">
<!-- Generated by graphviz version 14.0.0 (20250921.2048)
 -->
<!-- Pages: 1 -->
<svg width="1940pt" height="262pt"
 viewBox="0.00 0.00 1940.00 262.00" xmlns="http://www.w3.org/2000/svg" xmlns:xlink="http://www.w3.org/1999/xlink">
<g id="graph0" class="graph" transform="scale(1 1) rotate(0) translate(4 257.65)">
<polygon fill="white" stroke="none" points="-4,4 -4,-257.65 1935.94,-257.65 1935.94,4 -4,4"/>
<!-- XYMotor -->
<g id="node1" class="node">
<title>XYMotor</title>
<polygon fill="lightblue" stroke="lightblue" points="1063.14,-253.65 970.64,-253.65 970.64,-212.65 1063.14,-212.65 1063.14,-253.65"/>
<text xml:space="preserve" text-anchor="middle" x="1016.89" y="-236.35" font-family="Times,serif" font-size="14.00">XYMotor</text>
<text xml:space="preserve" text-anchor="middle" x="1016.89" y="-219.85" font-family="Times,serif" font-size="14.00">(Parent Class)</text>
</g>
<!-- XYZMotor -->
<g id="node2" class="node">
<title>XYZMotor</title>
<ellipse fill="none" stroke="black" cx="239.89" cy="-52.33" rx="239.89" ry="52.33"/>
<text xml:space="preserve" text-anchor="middle" x="239.89" y="-72.03" font-family="Times,serif" font-size="14.00">XYZMotor</text>
<text xml:space="preserve" text-anchor="middle" x="239.89" y="-55.53" font-family="Times,serif" font-size="14.00">File: ./fmx&#45;profile&#45;collection/startup/10&#45;motors_00_lsdc.py</text>
<text xml:space="preserve" text-anchor="middle" x="239.89" y="-39.03" font-family="Times,serif" font-size="14.00">Methods: 0</text>
<text xml:space="preserve" text-anchor="middle" x="239.89" y="-22.53" font-family="Times,serif" font-size="14.00">Attributes: 1</text>
</g>
<!-- XYMotor&#45;&gt;XYZMotor -->
<g id="edge1" class="edge">
<title>XYMotor&#45;&gt;XYZMotor</title>
<path fill="none" stroke="black" d="M970.32,-221.43C863.13,-196.76 594.36,-134.91 414.48,-93.51"/>
<polygon fill="black" stroke="black" points="415.3,-90.11 404.77,-91.27 413.73,-96.93 415.3,-90.11"/>
</g>
<!-- XYPitchMotor -->
<g id="node3" class="node">
<title>XYPitchMotor</title>
<ellipse fill="none" stroke="black" cx="771.89" cy="-52.33" rx="219.73" ry="52.33"/>
<text xml:space="preserve" text-anchor="middle" x="771.89" y="-72.03" font-family="Times,serif" font-size="14.00">XYPitchMotor</text>
<text xml:space="preserve" text-anchor="middle" x="771.89" y="-55.53" font-family="Times,serif" font-size="14.00">File: ./fmx&#45;profile&#45;collection/startup/10&#45;motors_99.py</text>
<text xml:space="preserve" text-anchor="middle" x="771.89" y="-39.03" font-family="Times,serif" font-size="14.00">Methods: 0</text>
<text xml:space="preserve" text-anchor="middle" x="771.89" y="-22.53" font-family="Times,serif" font-size="14.00">Attributes: 1</text>
</g>
<!-- XYMotor&#45;&gt;XYPitchMotor -->
<g id="edge2" class="edge">
<title>XYMotor&#45;&gt;XYPitchMotor</title>
<path fill="none" stroke="black" d="M989.73,-212.33C955.9,-187.64 896.7,-144.43 848.54,-109.27"/>
<polygon fill="black" stroke="black" points="850.74,-106.55 840.6,-103.48 846.61,-112.2 850.74,-106.55"/>
</g>
<!-- XYThetaMotor -->
<g id="node4" class="node">
<title>XYThetaMotor</title>
<ellipse fill="none" stroke="black" cx="1262.89" cy="-52.33" rx="199.05" ry="52.33"/>
<text xml:space="preserve" text-anchor="middle" x="1262.89" y="-72.03" font-family="Times,serif" font-size="14.00">XYThetaMotor</text>
<text xml:space="preserve" text-anchor="middle" x="1262.89" y="-55.53" font-family="Times,serif" font-size="14.00">File: ./chx&#45;profile&#45;collection/startup/10&#45;optics.py</text>
<text xml:space="preserve" text-anchor="middle" x="1262.89" y="-39.03" font-family="Times,serif" font-size="14.00">Methods: 0</text>
<text xml:space="preserve" text-anchor="middle" x="1262.89" y="-22.53" font-family="Times,serif" font-size="14.00">Attributes: 1</text>
</g>
<!-- XYMotor&#45;&gt;XYThetaMotor -->
<g id="edge3" class="edge">
<title>XYMotor&#45;&gt;XYThetaMotor</title>
<path fill="none" stroke="black" d="M1044.15,-212.33C1078.29,-187.51 1138.18,-143.98 1186.67,-108.73"/>
<polygon fill="black" stroke="black" points="1188.64,-111.62 1194.67,-102.91 1184.53,-105.96 1188.64,-111.62"/>
</g>
<!-- HorizontalDiffractionMirror -->
<g id="node5" class="node">
<title>HorizontalDiffractionMirror</title>
<ellipse fill="none" stroke="black" cx="1732.89" cy="-52.33" rx="199.05" ry="52.33"/>
<text xml:space="preserve" text-anchor="middle" x="1732.89" y="-72.03" font-family="Times,serif" font-size="14.00">HorizontalDiffractionMirror</text>
<text xml:space="preserve" text-anchor="middle" x="1732.89" y="-55.53" font-family="Times,serif" font-size="14.00">File: ./chx&#45;profile&#45;collection/startup/10&#45;optics.py</text>
<text xml:space="preserve" text-anchor="middle" x="1732.89" y="-39.03" font-family="Times,serif" font-size="14.00">Methods: 0</text>
<text xml:space="preserve" text-anchor="middle" x="1732.89" y="-22.53" font-family="Times,serif" font-size="14.00">Attributes: 1</text>
</g>
<!-- XYMotor&#45;&gt;HorizontalDiffractionMirror -->
<g id="edge4" class="edge">
<title>XYMotor&#45;&gt;HorizontalDiffractionMirror</title>
<path fill="none" stroke="black" d="M1063.59,-220.49C1166.18,-194.86 1415.09,-132.7 1578.75,-91.82"/>
<polygon fill="black" stroke="black" points="1579.57,-95.23 1588.42,-89.41 1577.87,-88.43 1579.57,-95.23"/>
</g>
</g>
</svg>
