<?xml version="1.0" encoding="UTF-8" standalone="no"?>
<!DOCTYPE svg PUBLIC "-//W3C//DTD SVG 1.1//EN"
 "http://www.w3.org/Graphics/SVG/1.1/DTD/svg11.dtd">
<!-- Generated by graphviz version 14.0.0 (20250921.2048)
 -->
<!-- Pages: 1 -->
<svg width="1816pt" height="262pt"
 viewBox="0.00 0.00 1816.00 262.00" xmlns="http://www.w3.org/2000/svg" xmlns:xlink="http://www.w3.org/1999/xlink">
<g id="graph0" class="graph" transform="scale(1 1) rotate(0) translate(4 257.65)">
<polygon fill="white" stroke="none" points="-4,4 -4,-257.65 1812.1,-257.65 1812.1,4 -4,4"/>
<!-- ZebraOutputBase -->
<g id="node1" class="node">
<title>ZebraOutputBase</title>
<polygon fill="lightblue" stroke="lightblue" points="959.68,-253.65 848.43,-253.65 848.43,-212.65 959.68,-212.65 959.68,-253.65"/>
<text xml:space="preserve" text-anchor="middle" x="904.05" y="-236.35" font-family="Times,serif" font-size="14.00">ZebraOutputBase</text>
<text xml:space="preserve" text-anchor="middle" x="904.05" y="-219.85" font-family="Times,serif" font-size="14.00">(Parent Class)</text>
</g>
<!-- ZebraFrontOutput12 -->
<g id="node2" class="node">
<title>ZebraFrontOutput12</title>
<ellipse fill="none" stroke="black" cx="199.05" cy="-52.33" rx="199.05" ry="52.33"/>
<text xml:space="preserve" text-anchor="middle" x="199.05" y="-72.03" font-family="Times,serif" font-size="14.00">ZebraFrontOutput12</text>
<text xml:space="preserve" text-anchor="middle" x="199.05" y="-55.53" font-family="Times,serif" font-size="14.00">File: ./fmx&#45;profile&#45;collection/startup/26&#45;zebra.py</text>
<text xml:space="preserve" text-anchor="middle" x="199.05" y="-39.03" font-family="Times,serif" font-size="14.00">Methods: 1</text>
<text xml:space="preserve" text-anchor="middle" x="199.05" y="-22.53" font-family="Times,serif" font-size="14.00">Attributes: 5</text>
</g>
<!-- ZebraOutputBase&#45;&gt;ZebraFrontOutput12 -->
<g id="edge1" class="edge">
<title>ZebraOutputBase&#45;&gt;ZebraFrontOutput12</title>
<path fill="none" stroke="black" d="M848.14,-217.97C742.07,-191.07 508.31,-131.77 352.22,-92.18"/>
<polygon fill="black" stroke="black" points="353.14,-88.8 342.58,-89.73 351.42,-95.59 353.14,-88.8"/>
</g>
<!-- ZebraFrontOutput3 -->
<g id="node3" class="node">
<title>ZebraFrontOutput3</title>
<ellipse fill="none" stroke="black" cx="669.05" cy="-52.33" rx="199.05" ry="52.33"/>
<text xml:space="preserve" text-anchor="middle" x="669.05" y="-72.03" font-family="Times,serif" font-size="14.00">ZebraFrontOutput3</text>
<text xml:space="preserve" text-anchor="middle" x="669.05" y="-55.53" font-family="Times,serif" font-size="14.00">File: ./fmx&#45;profile&#45;collection/startup/26&#45;zebra.py</text>
<text xml:space="preserve" text-anchor="middle" x="669.05" y="-39.03" font-family="Times,serif" font-size="14.00">Methods: 1</text>
<text xml:space="preserve" text-anchor="middle" x="669.05" y="-22.53" font-family="Times,serif" font-size="14.00">Attributes: 5</text>
</g>
<!-- ZebraOutputBase&#45;&gt;ZebraFrontOutput3 -->
<g id="edge2" class="edge">
<title>ZebraOutputBase&#45;&gt;ZebraFrontOutput3</title>
<path fill="none" stroke="black" d="M878,-212.33C845.51,-187.61 788.61,-144.31 742.38,-109.13"/>
<polygon fill="black" stroke="black" points="744.57,-106.4 734.49,-103.13 740.33,-111.97 744.57,-106.4"/>
</g>
<!-- ZebraFrontOutput4 -->
<g id="node4" class="node">
<title>ZebraFrontOutput4</title>
<ellipse fill="none" stroke="black" cx="1139.05" cy="-52.33" rx="199.05" ry="52.33"/>
<text xml:space="preserve" text-anchor="middle" x="1139.05" y="-72.03" font-family="Times,serif" font-size="14.00">ZebraFrontOutput4</text>
<text xml:space="preserve" text-anchor="middle" x="1139.05" y="-55.53" font-family="Times,serif" font-size="14.00">File: ./fmx&#45;profile&#45;collection/startup/26&#45;zebra.py</text>
<text xml:space="preserve" text-anchor="middle" x="1139.05" y="-39.03" font-family="Times,serif" font-size="14.00">Methods: 1</text>
<text xml:space="preserve" text-anchor="middle" x="1139.05" y="-22.53" font-family="Times,serif" font-size="14.00">Attributes: 5</text>
</g>
<!-- ZebraOutputBase&#45;&gt;ZebraFrontOutput4 -->
<g id="edge3" class="edge">
<title>ZebraOutputBase&#45;&gt;ZebraFrontOutput4</title>
<path fill="none" stroke="black" d="M930.1,-212.33C962.59,-187.61 1019.49,-144.31 1065.72,-109.13"/>
<polygon fill="black" stroke="black" points="1067.77,-111.97 1073.61,-103.13 1063.53,-106.4 1067.77,-111.97"/>
</g>
<!-- ZebraRearOutput -->
<g id="node5" class="node">
<title>ZebraRearOutput</title>
<ellipse fill="none" stroke="black" cx="1609.05" cy="-52.33" rx="199.05" ry="52.33"/>
<text xml:space="preserve" text-anchor="middle" x="1609.05" y="-72.03" font-family="Times,serif" font-size="14.00">ZebraRearOutput</text>
<text xml:space="preserve" text-anchor="middle" x="1609.05" y="-55.53" font-family="Times,serif" font-size="14.00">File: ./fmx&#45;profile&#45;collection/startup/26&#45;zebra.py</text>
<text xml:space="preserve" text-anchor="middle" x="1609.05" y="-39.03" font-family="Times,serif" font-size="14.00">Methods: 1</text>
<text xml:space="preserve" text-anchor="middle" x="1609.05" y="-22.53" font-family="Times,serif" font-size="14.00">Attributes: 6</text>
</g>
<!-- ZebraOutputBase&#45;&gt;ZebraRearOutput -->
<g id="edge4" class="edge">
<title>ZebraOutputBase&#45;&gt;ZebraRearOutput</title>
<path fill="none" stroke="black" d="M959.96,-217.97C1066.03,-191.07 1299.79,-131.77 1455.88,-92.18"/>
<polygon fill="black" stroke="black" points="1456.68,-95.59 1465.52,-89.73 1454.96,-88.8 1456.68,-95.59"/>
</g>
</g>
</svg>
