<?xml version="1.0" encoding="UTF-8" standalone="no"?>
<!DOCTYPE svg PUBLIC "-//W3C//DTD SVG 1.1//EN"
 "http://www.w3.org/Graphics/SVG/1.1/DTD/svg11.dtd">
<!-- Generated by graphviz version 14.0.0 (20250921.2048)
 -->
<!-- Pages: 1 -->
<svg width="1890pt" height="262pt"
 viewBox="0.00 0.00 1890.00 262.00" xmlns="http://www.w3.org/2000/svg" xmlns:xlink="http://www.w3.org/1999/xlink">
<g id="graph0" class="graph" transform="scale(1 1) rotate(0) translate(4 257.65)">
<polygon fill="white" stroke="none" points="-4,4 -4,-257.65 1886.24,-257.65 1886.24,4 -4,4"/>
<!-- Zebra -->
<g id="node1" class="node">
<title>Zebra</title>
<polygon fill="lightblue" stroke="lightblue" points="1013.36,-253.65 920.86,-253.65 920.86,-212.65 1013.36,-212.65 1013.36,-253.65"/>
<text xml:space="preserve" text-anchor="middle" x="967.11" y="-236.35" font-family="Times,serif" font-size="14.00">Zebra</text>
<text xml:space="preserve" text-anchor="middle" x="967.11" y="-219.85" font-family="Times,serif" font-size="14.00">(Parent Class)</text>
</g>
<!-- ZebraMXOr -->
<g id="node2" class="node">
<title>ZebraMXOr</title>
<ellipse fill="none" stroke="black" cx="235.11" cy="-52.33" rx="235.11" ry="52.33"/>
<text xml:space="preserve" text-anchor="middle" x="235.11" y="-72.03" font-family="Times,serif" font-size="14.00">ZebraMXOr</text>
<text xml:space="preserve" text-anchor="middle" x="235.11" y="-55.53" font-family="Times,serif" font-size="14.00">File: ./amx&#45;profile&#45;collection/startup/96&#45;top_alignment.py</text>
<text xml:space="preserve" text-anchor="middle" x="235.11" y="-39.03" font-family="Times,serif" font-size="14.00">Methods: 0</text>
<text xml:space="preserve" text-anchor="middle" x="235.11" y="-22.53" font-family="Times,serif" font-size="14.00">Attributes: 3</text>
</g>
<!-- Zebra&#45;&gt;ZebraMXOr -->
<g id="edge1" class="edge">
<title>Zebra&#45;&gt;ZebraMXOr</title>
<path fill="none" stroke="black" d="M920.49,-220.76C818.42,-195.83 570.9,-135.36 403,-94.34"/>
<polygon fill="black" stroke="black" points="404.07,-91 393.52,-92.03 402.41,-97.8 404.07,-91"/>
</g>
<!-- SRXZebra -->
<g id="node3" class="node">
<title>SRXZebra</title>
<ellipse fill="none" stroke="black" cx="737.11" cy="-52.33" rx="194.81" ry="52.33"/>
<text xml:space="preserve" text-anchor="middle" x="737.11" y="-72.03" font-family="Times,serif" font-size="14.00">SRXZebra</text>
<text xml:space="preserve" text-anchor="middle" x="737.11" y="-55.53" font-family="Times,serif" font-size="14.00">File: ./srx&#45;profile&#45;collection/startup/32&#45;zebra.py</text>
<text xml:space="preserve" text-anchor="middle" x="737.11" y="-39.03" font-family="Times,serif" font-size="14.00">Methods: 3</text>
<text xml:space="preserve" text-anchor="middle" x="737.11" y="-22.53" font-family="Times,serif" font-size="14.00">Attributes: 15</text>
</g>
<!-- Zebra&#45;&gt;SRXZebra -->
<g id="edge2" class="edge">
<title>Zebra&#45;&gt;SRXZebra</title>
<path fill="none" stroke="black" d="M941.62,-212.33C909.82,-187.61 854.13,-144.31 808.88,-109.13"/>
<polygon fill="black" stroke="black" points="811.22,-106.51 801.18,-103.14 806.93,-112.04 811.22,-106.51"/>
</g>
<!-- FXIZebra -->
<g id="node4" class="node">
<title>FXIZebra</title>
<ellipse fill="none" stroke="black" cx="1198.11" cy="-52.33" rx="193.75" ry="52.33"/>
<text xml:space="preserve" text-anchor="middle" x="1198.11" y="-72.03" font-family="Times,serif" font-size="14.00">FXIZebra</text>
<text xml:space="preserve" text-anchor="middle" x="1198.11" y="-55.53" font-family="Times,serif" font-size="14.00">File: ./fxi&#45;profile&#45;collection/startup/18&#45;zebra.py</text>
<text xml:space="preserve" text-anchor="middle" x="1198.11" y="-39.03" font-family="Times,serif" font-size="14.00">Methods: 3</text>
<text xml:space="preserve" text-anchor="middle" x="1198.11" y="-22.53" font-family="Times,serif" font-size="14.00">Attributes: 15</text>
</g>
<!-- Zebra&#45;&gt;FXIZebra -->
<g id="edge3" class="edge">
<title>Zebra&#45;&gt;FXIZebra</title>
<path fill="none" stroke="black" d="M992.72,-212.33C1024.65,-187.61 1080.59,-144.31 1126.03,-109.13"/>
<polygon fill="black" stroke="black" points="1128.01,-112.02 1133.77,-103.14 1123.72,-106.49 1128.01,-112.02"/>
</g>
<!-- CHXZebra -->
<g id="node5" class="node">
<title>CHXZebra</title>
<ellipse fill="none" stroke="black" cx="1673.11" cy="-52.33" rx="209.13" ry="52.33"/>
<text xml:space="preserve" text-anchor="middle" x="1673.11" y="-72.03" font-family="Times,serif" font-size="14.00">CHXZebra</text>
<text xml:space="preserve" text-anchor="middle" x="1673.11" y="-55.53" font-family="Times,serif" font-size="14.00">File: ./chx&#45;profile&#45;collection/startup/98&#45;xspress3.py</text>
<text xml:space="preserve" text-anchor="middle" x="1673.11" y="-39.03" font-family="Times,serif" font-size="14.00">Methods: 0</text>
<text xml:space="preserve" text-anchor="middle" x="1673.11" y="-22.53" font-family="Times,serif" font-size="14.00">Attributes: 0</text>
</g>
<!-- Zebra&#45;&gt;CHXZebra -->
<g id="edge4" class="edge">
<title>Zebra&#45;&gt;CHXZebra</title>
<path fill="none" stroke="black" d="M1013.71,-220.35C1114.22,-194.89 1355.3,-133.83 1516.4,-93.02"/>
<polygon fill="black" stroke="black" points="1517.08,-96.46 1525.91,-90.61 1515.36,-89.67 1517.08,-96.46"/>
</g>
</g>
</svg>
